<svg xmlns="http://www.w3.org/2000/svg" viewBox="0 0 153.8 150.3">
  <style>
    .centeredtext-st0{fill:#EA4D7D;}
  </style>
  <path d="M40.8 12.8c2.4-.6 4.1-1 5.1-1.2 0-1.2-.1-2.4-.1-3.8-.2-1.5-.1-2.4.4-2.6.6-.2 1.1-.4 1.6-.5 1.1-.2 1.8.1 2.1.7 0 .1.1.1.1.2 0 .3 0 .6.1.8 0 .2.1.5.1.7.1.5.1 1 .2 1.5 0 .9 0 1.3-.1 1.5-.1 1.6-.1 3.2-.2 4.9-.1 3.4-.2 5.5 0 6.3v.1l.1.1c-.2.5-.3 1-.5 1.4-.2.5-.5.8-1.1.8h-.3c-.8 0-1.5-.5-2-1.4-.1-2.5-.2-4.8-.2-7.1-.3.1-.8.2-1.5.4-1.8.4-3.1.7-3.9.8 0 .8-.1 1.7-.1 2.8.2 1.6.1 3.3-.3 4.9-.3.8-.6 1.2-1 1.2-.6.1-1.2.1-1.8-.1-.8-.2-1.3-.6-1.6-1.2 0-.1-.1-.1-.1-.2s-.1-.2-.1-.3v-.7c0-.6.2-3.5.6-8.5.5-5.3.9-8.2 1.2-8.7.1-.3.4-.4.7-.5.5-.1 1.2.2 2.1.7.8.5 1.3.9 1.4 1.2v.1c0 .2-.1.3-.3.3h-.1c-.2.1-.3 1.8-.5 5.4zm27.6-2.6c.1.2.1.3.2.5.1.3.2.6.2.9.3 1.7 0 3.8-.9 6.3-.4 1-1.3 1.9-2.8 2.7-1.3.7-2.6 1.1-4 1.3-1.6.2-2.9.2-4.1-.2-1.5-.5-2.5-1.4-3.1-2.8-.1-.3-.2-.6-.3-1-.1-.5-.3-.9-.3-1.4-.2-1-.1-2.1 0-3.2.3-1.9 1.1-3.5 2.3-4.9 1.3-1.5 2.9-2.3 4.8-2.6 1.6-.3 3.2 0 4.8.8 1.5.9 2.6 2 3.2 3.6zm-9.5 8.4c.7.2 1.4.2 2.1.1 1.3-.2 2.5-1.3 3.4-3.2.8-1.6 1.1-2.9.9-4.1 0-.2-.1-.4-.1-.5 0-.1-.1-.2-.1-.3-.3-.6-.8-1.1-1.7-1.4-.6-.2-1.3-.3-2.1-.2-1.8.3-3.1 1.3-3.9 2.9-.6 1.2-.8 2.4-.6 3.6 0 .3.1.6.2 1 .1.2.2.4.2.7.4.7.9 1.1 1.7 1.4zm19.5-8.5c-.1.4-.5 1.5-1 3.2-.8 2.7-1.3 4.5-1.3 5.5 0 .5-.5.8-1.4 1-1 .2-1.8-.1-2.3-.6-.1-.2-.3-.4-.4-.7l-.3-.9c-.4-1.2-.7-2.8-1.1-5-.1-.4-.1-.9-.2-1.3-.5-3.5-.5-5.3-.1-5.4 2 .1 3.1.4 3.3.9V7c-.1.3 0 1.3.1 2.9.1.8.1 1.4.2 1.9.5-1.2 1-2.4 1.6-3.5.9-2.1 1.6-3.2 1.9-3.2h.3c.3-.1 1.1-.4 2.2-1.1l3 6.9c.3-1 .8-2.3 1.3-3.9 1-3.1 1.7-4.7 2.1-4.8h.1c1.5.4 2.4.9 2.6 1.3 0 .2-.5 2.3-1.7 6.4-1 3.6-1.5 5.7-1.4 6.2 0 0 0 .1.1.1v.1c.1.5-1 1.2-3.3 2.1-1.8-4-3.2-6.7-4.3-8.3z" class="centeredtext-st0"/>
  <path d="M89.4 12.1c1.2.3 2 .8 2.3 1.7v.1c0 .1 0 .2.1.3v.7l-.2.6c-.3.5-.5.9-.8 1.3-.5.5-1 .8-1.5.8-.4.1-.8 0-1.1-.1-.8-.3-1.4-.8-1.7-1.5 0-.1-.1-.2-.1-.3 0-.1-.1-.2-.1-.3-.1-.4 0-.8.2-1.2l.6-1 .1-.1c.4-.5.8-.8 1.4-.9.2-.1.5-.2.8-.1zm7.1-1.1c1.2.3 2 .8 2.3 1.7v.1c0 .1 0 .2.1.3v.7l-.2.6c-.3.5-.5.9-.8 1.3-.5.5-1 .8-1.5.8-.4.1-.8 0-1.1-.1-.8-.3-1.4-.8-1.7-1.5 0-.1-.1-.2-.1-.3 0-.1-.1-.2-.1-.3-.1-.4 0-.8.2-1.2l.6-1 .1-.1c.4-.5.8-.8 1.4-.9.2-.1.5-.1.8-.1zm-75 40.1c.1 0 .1.1.1.1v.1c0 .2-.1.4-.3.6-.2.2-.6.4-1 .4-1 .2-2-.3-2.9-1.3-.2-.2-1.4-1.8-3.6-4.8-1.6-2.1-2.5-3.2-2.7-3.1-.2.1-.3.2-.4.5 0 .3-.1.6-.1.9v4.8c0 2.6.1 4.2.2 4.7v.2c0 .3-.2.5-.9.6-.7.1-1.4 0-2.1-.2-.8-.3-1.4-.9-1.7-1.6l-.1-.2v-8.1c.2-5.4.7-8.3 1.6-8.5.1 0 .3-.2.6-.4.3-.3.6-.4.8-.4.3 0 .6 0 .9.2.8.5 2 2 3.7 4.4 1.4 2 2.8 4 3.9 5.9 0-.8.1-2.7.1-6 .1-4.2.3-6.4.7-6.5.2-.1.3-.1.5-.1.5-.1 1-.1 1.6 0 1.1.1 1.7.4 1.9.9v.1c.1.5-.1 3.4-.6 8.6-.1 4.8-.3 7.5-.2 8.2zm8.1-11.8c2.8-.7 4.9-1.2 6.1-1.4.9-.1 1.4-.1 1.5 0 .1.1.4.4 1 .8s.9.7 1 1v.2c0 .3-.1.5-.4.7-.5.4-2.3.9-5.3 1.5-2.1.5-3.6.8-4.5.9l-.6.1s-.1 0-.3.1c-.2 0-.6-.2-1.3-.7-.8-.5-1.3-1-1.5-1.4v-.2c0-.1 0-.2.1-.4.1-.1 1.5-.5 4.2-1.2zm21.8 2.8c0-.7 0-2.2.1-4.6.1-3.4.3-5.1.6-5.2.1 0 .3-.1.4-.1.4-.1.8-.1 1.3 0 .9.1 1.4.3 1.6.8v.1c.1.4-.1 2.7-.5 6.9-.4 3.8-.5 6-.5 6.4 0 0 .1.1.1.2v.1c0 .2-.1.3-.2.5-.2.2-.5.3-.8.4-.8.1-1.6-.2-2.4-1.1-.2-.2-1.1-1.4-2.9-3.8-1.3-1.7-2-2.5-2.1-2.5-.1 0-.2.2-.3.4 0 .2-.1.4-.1.7v3.8c0 2.1.1 3.4.1 3.8v.2c0 .3-.2.5-.8.6-.6.1-1.1 0-1.7-.2-.7-.3-1.1-.7-1.4-1.3l.1-.4v-6.5c.1-4.4.6-6.7 1.3-6.9.1 0 .2-.1.5-.3.2-.2.5-.3.7-.4.3 0 .5 0 .8.2.6.4 1.6 1.6 3 3.5 1.1 1.6 2.2 3.1 3.1 4.7zm22-7.7c.1.2.1.3.2.5.1.3.2.6.2.9.3 1.7 0 3.8-.9 6.3-.4 1-1.3 1.9-2.8 2.7-1.3.7-2.6 1.1-4 1.3-1.6.2-2.9.2-4.1-.2-1.5-.5-2.5-1.4-3.1-2.8-.1-.3-.2-.6-.3-1-.1-.5-.3-.9-.3-1.4-.2-1-.1-2.1 0-3.2.3-1.9 1.1-3.5 2.3-4.9 1.3-1.5 2.9-2.3 4.8-2.6 1.6-.3 3.2 0 4.8.8 1.4.9 2.5 2.1 3.2 3.6zm-9.5 8.4c.7.2 1.4.2 2.1.1 1.3-.2 2.5-1.3 3.4-3.2.8-1.6 1.1-2.9.9-4.1 0-.2-.1-.4-.1-.5 0-.1-.1-.2-.1-.3-.3-.6-.8-1.1-1.7-1.4-.7-.2-1.4-.3-2.2-.2-1.8.3-3.1 1.3-3.9 2.9-.6 1.2-.8 2.4-.6 3.6 0 .3.1.6.2 1 .1.2.2.4.2.7.5.7 1 1.2 1.8 1.4zm15.4-4.2c1.2.3 2 .8 2.3 1.7v.1c0 .1 0 .2.1.3v.7l-.1.6c-.3.5-.5.9-.8 1.3-.5.5-1 .8-1.5.8-.4.1-.7 0-1.1-.1-.8-.3-1.4-.8-1.7-1.5 0-.1-.1-.2-.1-.3 0-.1-.1-.2-.1-.3-.1-.4 0-.8.2-1.2l.6-1 .1-.1c.4-.5.8-.8 1.4-.9.2-.1.5-.1.7-.1zm7.1-1.1c1.2.3 2 .8 2.3 1.7v.1c0 .1 0 .2.1.3v.7l-.2.6c-.3.5-.5.9-.8 1.3-.5.5-1 .8-1.5.8-.4.1-.8 0-1.1-.1-.8-.3-1.4-.8-1.7-1.5 0-.1-.1-.2-.1-.3 0-.1-.1-.2-.1-.3-.1-.4 0-.8.2-1.2l.6-1 .1-.1c.4-.5.8-.8 1.4-.9.2-.1.5-.1.8-.1zm13.5-3c0-.7 0-2.2.1-4.6.1-3.4.3-5.1.6-5.2.1 0 .3-.1.4-.1.4-.1.8-.1 1.3 0 .9.1 1.4.3 1.6.8v.1c.1.4-.1 2.7-.5 6.9-.4 3.8-.5 6-.5 6.4 0 0 .1.1.1.2v.1c0 .2-.1.3-.2.5-.2.2-.5.3-.8.4-.8.1-1.6-.2-2.4-1.1-.2-.2-1.1-1.4-2.9-3.8-1.3-1.7-2-2.5-2.1-2.5-.1 0-.2.2-.3.4 0 .2-.1.4-.1.7v3.8c0 2.1.1 3.4.1 3.8v.2c0 .3-.2.5-.8.6-.6.1-1.1 0-1.7-.2-.7-.3-1.1-.7-1.4-1.3l-.1-.1V34c.1-4.4.6-6.7 1.3-6.9.1 0 .2-.1.5-.3.2-.2.5-.3.7-.4.3 0 .5 0 .8.2.6.4 1.6 1.6 3 3.5 1.3 1.4 2.4 2.9 3.3 4.4zm22-7.6c.1.2.1.3.2.5.1.3.2.6.2.9.3 1.7 0 3.8-.9 6.3-.4 1-1.3 1.9-2.8 2.7-1.3.7-2.6 1.1-4 1.3-1.6.2-2.9.2-4.1-.2-1.5-.5-2.5-1.4-3.1-2.8-.1-.3-.2-.6-.3-1-.1-.5-.3-.9-.3-1.4-.2-1-.1-2.1 0-3.2.3-1.9 1.1-3.5 2.3-4.9 1.3-1.5 2.9-2.3 4.8-2.6 1.6-.3 3.2 0 4.8.8 1.4.9 2.5 2 3.2 3.6zm-9.5 8.4c.7.2 1.4.2 2.1.1 1.3-.2 2.5-1.3 3.4-3.2.8-1.6 1.1-2.9.9-4.1 0-.2-.1-.4-.1-.5 0-.1-.1-.2-.1-.3-.3-.6-.8-1.1-1.7-1.4-.7-.2-1.4-.3-2.2-.2-1.8.3-3.1 1.3-3.9 2.9-.6 1.2-.8 2.4-.6 3.6 0 .3.1.6.2 1 .1.2.2.4.2.7.5.7 1 1.1 1.8 1.4zm15.4-4.2c1.2.3 2 .8 2.3 1.7v.1c0 .1 0 .2.1.3v.7l-.2.6c-.3.5-.5.9-.8 1.3-.5.5-1 .8-1.5.8-.4.1-.8 0-1.1-.1-.8-.3-1.4-.8-1.7-1.6 0-.1-.1-.2-.1-.2 0-.1-.1-.2-.1-.4-.1-.4 0-.8.2-1.2l.6-1 .1-.1c.4-.5.8-.8 1.4-.9h.8zm2.6-2.3c.1 0 .1.1.1.2 0 .2-.4.4-1.2.5-.5.1-1.3.2-2.1.3-.3 0-.9.1-1.8.2.4-.5.5-1.3.4-2.4-.1-2.2-.1-3.5-.1-3.9 0-.3 0-2.2-.1-5.7.1-.6.8-1 2.2-1.2.3-.1 1-.1 2-.2.6-.1 1.1-.1 1.5-.2.2 0 .4-.1.5-.1h.1c.7-.1 1.2.1 1.4.6v.1c0 .1 0 .2.1.2.2 1.1-.5 3.2-2.1 6.1-.6 3.2-.9 5-.9 5.5zM8.4 67.1s-.2.1-.6.1c-.8.2-2.1.5-3.8 1v-2.5c.1-1.1.7-1.8 1.7-2 .8-.2 1.9-.4 3.2-.6 1.3-.2 2.9-.4 4.8-.7.6.5 1.2 1.1 1.6 2 .1.2.1.3.2.4 0 .1.1.3.1.4v.1c0 .3 0 .5-.2.7-.5.3-1.4.6-2.7.8l-.4.1c-.5 5.2-.7 8.1-.6 8.8h.1c.4-.1 1.3-.3 2.7-.8l.1.3.3.9v.4c.1 1.1-.3 1.7-1.3 2-1.1.3-3.9 1-8.2 2.1l-.1-.4c0-.2-.1-.4-.1-.5-.1-.3-.1-.6-.1-.9-.1-1.2.1-1.9.7-2l1.2-.2c.4-.1.6-.2.7-.4s.3-1.4.4-3.7c.3-2.3.3-4.1.3-5.4zm16.2.8l.1.1c-.4.6-.7 2.1-.7 4.5v4c-.4.8-.8 1.3-1.2 1.3-.5.1-1-.2-1.5-.9l-.1-.1s0-.1-.1-.1c0-.1-.1-.2-.1-.4-.1-.8-.1-2.1 0-4 .1-2.8.4-4.2.7-4.2h-.1s-.1.1-.1.2h-.2c-.3.1-.7.2-1 .3-.7.2-1.2.4-1.3.5-.1.1-.2.1-.3.1-.4.1-.9-.6-1.5-1.9-.1-.2-.1-.3-.1-.4l-.1-.3c1.4-.5 2.8-.9 4.1-1.4 2.5-.8 4.3-1.3 5.4-1.5.2 0 .4-.1.6-.1.4 0 .8.4 1.2 1.3.1.2.2.4.2.5 0 .1.1.2.1.3 0 .2 0 .3-.1.4-.1.1-1.3.5-3.6 1.1-.1.5-.3.7-.3.7zm19.9 0v.4c0 .2.1.3.1.5 0 .1.1.2.1.3.3.6.7 1.2 1.4 1.6.4.3.9.4 1.6.2.7-.1 1.3-.4 1.7-.8.3-.3.5-.6.4-.9V69s-.1-.1-.2-.3l2.2-1.4c.6.5 1 1 1.3 1.6 0 .1.1.2.1.2 0 .1.1.2.1.3v.5c-.2.9-.8 1.7-1.9 2.5-1 .7-2.1 1.2-3.3 1.3-.5.3-.9.3-1.2.3-1-.1-1.9-.5-2.8-1.3-.8-.7-1.4-1.6-1.8-2.6-.1-.3-.2-.5-.3-.8-.1-.3-.2-.6-.2-.9-.1-.5-.1-1 0-1.5.3-1.7.7-3 1-3.7.8-1.8 2-2.8 3.6-3.1 1.3-.2 2.4-.1 3.5.3s1.7.9 2 1.6c.1.5-.1 1-.6 1.4-.4.4-.7.6-1 .7-.1 0-.2 0-.4-.1-.9-1.2-1.8-1.8-2.8-1.6-.1 0-.2 0-.2.1-.5.1-1 .8-1.6 2.1-.4 1.2-.7 2.3-.8 3.3zm13 4.6c-1.4.1-2.3-.2-2.6-1v-.6c.1-1.4 1-3.7 2.8-7 1.8-3.3 3.1-5 3.9-5.1h.1c.1 0 .2 0 .3-.1.2 0 .3-.1.4-.1.4-.1.9.1 1.5.5.3.2.5.6.8 1.3.2.5.5 1.2.7 1.9.3 1.1.7 2.4 1 3.9.3 1.2.5 2.1.6 2.8.1.7.1 1.1-.1 1.2-.2.2-.6.3-1 .4-.6.1-1 0-1.3-.2-.1-.1-.2-.2-.2-.4 0-.1 0-.1-.1-.2-.1-.2-.1-.4-.1-.6v-.3c-.4 0-.9 0-1.6.1-.9.1-1.7.4-2.6.8-.7.3-1.2.7-1.5 1l-1 1.7zm5.1-9.3h-.3c-.5.1-.9.5-1.3 1.4-.2.5-.5 1.2-.8 2.1l2.7-.6c.3-.3.5-.4.4-.5 0 0-.1-.3-.3-1-.1-.3-.2-.6-.2-.8-.1-.2-.1-.4-.2-.5v-.1c-.1 0-.1 0 0 0zm13.6.9v-3.9c.1-2.8.2-4.3.5-4.4.1 0 .2-.1.4-.1.3 0 .7-.1 1.1 0 .8.1 1.2.3 1.4.7v.1c.1.4-.1 2.3-.4 5.8-.3 3.2-.5 5-.4 5.4 0 0 .1.1.1.2s0 .3-.2.4c-.2.2-.4.3-.7.3-.7.1-1.4-.2-2-.9-.1-.2-.9-1.2-2.4-3.2-1.1-1.4-1.7-2.1-1.8-2.1-.1 0-.2.1-.2.3 0 .2-.1.4-.1.6v3.2c0 1.8.1 2.8.1 3.2v.1c0 .2-.2.4-.6.5-.5.1-1 0-1.4-.2-.6-.2-1-.6-1.2-1.1v-5.6c.1-3.7.5-5.6 1.1-5.8.1 0 .2-.1.4-.3.2-.2.4-.3.6-.3.2 0 .5 0 .7.2.5.3 1.4 1.3 2.5 3 .9 1.4 1.7 2.6 2.5 3.9zm7.1-11.8c1 .2 1.7.7 2 1.4v.9c-.1.4-.2.9-.5 1.5-.2.7-.5 1.3-.9 1.6-.2.1-.3.1-.5.1-.4.1-.8 0-1.4-.2.3-.6.5-1 .4-1.3v-.1c-.1-.3-.6-.5-1.5-.3-.1-.2-.1-.3-.1-.4 0-.1-.1-.2-.1-.3-.1-.4 0-.7.1-1.1l.5-.9.1-.1c.3-.4.7-.7 1.2-.8h.7zm9.4 5l.1.1c-.4.6-.7 2.1-.7 4.5v4c-.4.8-.8 1.3-1.2 1.3-.5.1-1-.2-1.5-.9l-.1-.1s0-.1-.1-.1c0-.1-.1-.2-.1-.4-.1-.8-.1-2.1 0-4 .1-2.8.4-4.2.7-4.2h-.1s-.1.1-.1.2h-.2c-.3.1-.7.2-1 .3-.7.2-1.2.4-1.3.5-.1.1-.2.1-.3.1-.4.1-.9-.6-1.5-1.9-.1-.2-.1-.3-.1-.4l-.1-.3c1.4-.5 2.8-.9 4.1-1.4 2.5-.8 4.3-1.3 5.4-1.5.2 0 .4-.1.6-.1.4 0 .8.4 1.2 1.3.1.2.2.4.2.5 0 .1.1.2.1.3 0 .2 0 .3-.1.4-.1.1-1.3.5-3.6 1.1-.2.5-.3.7-.3.7zm22.6-7.6c1.5-.2 2.6-.3 3.2-.1.9.2 1.5.6 1.8 1.1 0 .1.1.1.1.2s0 .1.1.2c.1.9-.3 1.9-1.2 3.1.4.2.8.6 1.3 1.2.6.7 1.1 1.5 1.5 2.3 0 0 0 .1.1.1v.2c.1.9-.7 2-2.5 3.2-1.6 1.1-3.3 1.9-4.8 2.3-.2.1-.3.1-.5.1-.8.1-1.6 0-2.3-.3-.7-.3-1.2-.9-1.6-1.6 0-.1-.1-.2-.1-.3 0-.1-.1-.2-.1-.4.1-3.1.3-6.1.4-8.9.4-1.2 1.9-2 4.6-2.4zm.2 10.9c.4-.1 1-.4 1.9-.9.3-.2.6-.5.8-.9.3-.4.4-.8.3-1.1v-.2c-.1-.3-.4-.4-.8-.5-.2-.1-.5-.1-.8 0-.9.1-1.9.5-3.1 1.2-.1.6-.1 1 0 1.4 0 .1 0 .2.1.3v.1c.1.1.1.2.1.2.4.4.9.5 1.5.4zm.3-6.8c.8-.5 1.2-1.2 1.1-1.9v-.1c-.1-.1-.3-.2-.9-.1-.7.1-1.4.4-2.1.7l-.1 2.2c.8-.1 1.4-.4 2-.8zm11.5-1.6h.1c.3 0 .6-.1 1.1-.3 1.1-.4 1.9-.6 2.4-.7.4-.1.6 0 .7.1.1.1.3.3.7.5.4.3.6.5.7.7v.1c0 .2-.1.4-.3.5-.3.2-1.3.7-3 1.5-1.5.7-2.3 1.1-2.3 1.1s-.1.8-.1 2.3c2.2-1.5 3.7-2.3 4.6-2.4.2 0 .4 0 .6.1.3.2.7.4 1 .8.3.3.6.6.7.9v.2c0 .2 0 .3-.1.4-.2.2-1.4.9-3.5 2-2 1.1-3.2 1.6-3.6 1.7h-.2c-1.5-.2-2.4-.5-2.7-1.1v-.3c-.1-1.2-.2-3.2-.1-5.9.1-3.6.4-5.5 1-5.8.6-.3 1.5-.6 2.8-1.1 1.5-.5 2.6-.8 3.3-.9.5-.1.8 0 1 .1.3.3.6.7.7 1.1 0 .1 0 .1.1.2v.2c0 .3 0 .5-.2.7-.2.2-1.2.5-3 1-1.5.4-2.3.7-2.3.7v1l-.1.6zm10.8 3.1c1 .2 1.7.7 2 1.4v.9l-.1.5c-.2.4-.4.8-.7 1.1-.4.4-.8.6-1.3.7-.3.1-.6 0-.9-.1-.7-.3-1.2-.7-1.5-1.3 0-.1-.1-.1-.1-.2s-.1-.2-.1-.3c-.1-.4 0-.7.2-1l.5-.9.1-.1c.3-.4.7-.7 1.2-.7h.7zm2.2-2c.1 0 .1.1.1.1 0 .2-.3.3-1 .4-.5.1-1.1.2-1.8.2-.3 0-.8.1-1.5.2.3-.4.4-1.1.4-2-.1-1.8-.1-3-.1-3.3 0-.3 0-1.9-.1-4.8.1-.5.7-.8 1.9-1 .3 0 .9-.1 1.7-.2.5-.1.9-.1 1.3-.2.2 0 .3-.1.4-.1h.1c.6-.1 1 .1 1.2.5v.3c.1.9-.4 2.7-1.8 5.2-.5 2.8-.8 4.3-.8 4.7zM12.7 92.4h.2c-.6.7-.9 2.6-.9 5.7 0 1.7 0 3.3.1 5-.5 1-.9 1.6-1.5 1.6-.6.1-1.2-.3-1.9-1.1 0-.1-.1-.1-.1-.2 0 0-.1-.1-.1-.2s-.1-.3-.1-.5c-.1-.9-.2-2.6 0-5 .2-3.4.4-5.1.8-5.2h-.1s0 .1-.1.1l-.1-.1h-.1c-.5.1-.9.2-1.3.3-.9.3-1.5.5-1.6.7-.1.1-.2.1-.3.2-.5.1-1.1-.7-1.8-2.4-.1-.2-.1-.3-.2-.4l-.1-.3c1.7-.6 3.4-1.2 5-1.7 3.2-1 5.4-1.6 6.8-1.9.3 0 .5-.1.7-.1.5 0 1 .5 1.5 1.7.1.3.2.5.3.7 0 .1.1.2.1.3 0 .2 0 .4-.1.4-.2.1-1.6.6-4.5 1.4l-.6 1zm11.9 1.7c1.6-.4 2.7-.7 3.3-.8 0-.8 0-1.6-.1-2.5-.2-1.1-.1-1.7.3-1.8.4-.2.8-.3 1.1-.3.8-.1 1.3.1 1.5.5 0 0 0 .1.1.1.1.2.1.4.1.6 0 .2.1.3.1.5.1.3.1.7.1 1v1c0 1.1-.1 2.2-.1 3.3-.1 2.3-.1 3.7 0 4.3v.1c-.1.4-.2.7-.4 1-.1.3-.4.5-.8.6h-.2c-.6 0-1.1-.3-1.4-1-.1-1.7-.2-3.3-.2-4.8-.2 0-.5.1-1 .2-1.2.3-2.1.5-2.6.5 0 .5 0 1.1-.1 1.9.1 1.1.1 2.2-.2 3.3-.2.5-.5.8-.7.9-.4.1-.8 0-1.3-.1s-.9-.4-1.1-.8c0 0 0-.1-.1-.1 0-.1 0-.1-.1-.2v-.5c0-.4.1-2.4.4-5.8.3-3.6.6-5.5.8-5.9.1-.2.3-.3.5-.3.4-.1.9.1 1.5.5.5.3.9.6 1 .8 0 .2-.1.3-.3.3 0 .1 0 1.2-.1 3.5zM37 91.2h.1c.3 0 .6-.1 1.1-.3 1.1-.4 1.9-.6 2.4-.7.4-.1.6 0 .7.1.1.1.3.3.7.5.4.3.6.5.7.7v.1c0 .2-.1.4-.3.5-.3.2-1.3.7-3 1.5-1.5.7-2.3 1.1-2.3 1.1s-.1.8-.1 2.3c2.2-1.5 3.7-2.3 4.6-2.4.2 0 .4 0 .6.1.3.2.7.4 1 .8.3.3.6.6.7.9v.2c0 .2 0 .3-.1.4-.2.2-1.4.9-3.5 2-2 1.1-3.2 1.6-3.6 1.7h-.2c-1.5-.2-2.4-.5-2.7-1.1v-.3c-.1-1.2-.2-3.2-.1-5.9.1-3.6.4-5.5 1-5.8.6-.3 1.5-.6 2.8-1.1 1.5-.5 2.6-.8 3.3-.9.5-.1.8 0 1 .1.3.3.6.7.7 1.1 0 .1 0 .1.1.2v.2c0 .3 0 .5-.2.7-.2.2-1.2.5-3 1-1.5.4-2.3.7-2.3.7v1l-.1.6zm28.9-5.3v.6c0 .1.1.2.1.4.1.7.2 2 .1 4-.2 2.2-.4 3.5-.7 3.9-.8 1.1-1.8 1.8-3.1 2-.9.1-1.8 0-2.9-.3-.5-.2-1.1-.4-1.6-.6-.6-.2-1.1-.8-1.5-1.8-.1-.2-.2-.5-.3-.7-.1-.3-.2-.6-.2-.9 0-.2-.1-.3-.1-.5 0-.3-.1-.5 0-.7.1-.6.4-.9 1-1 .4-.1.8 0 1.2.2.4.2.6.3.7.5v-.2.4c0 .2.1.3.1.6.1.3.2.6.4 1 .3.7.5 1.1.8 1.1.6.2 1.2.3 1.7.2.6-.1 1-.3 1.2-.8.1-.1.1-1.1.2-2.9-.1-1.1-.2-2.2-.2-3.3v-.2h-.1c-.1 0-.3.1-.4.1-1 .2-1.6-.1-1.9-.7l-.1-.1v-.7c.1-1.1 1.2-1.9 3.4-2.3.6-.1 1-.2 1.3-.2.7-.1 1.2-.1 1.5-.1.3.1.5.3.7.6l.1.4c.1.2.1.3.1.4v.2c0 .2 0 .4-.2.7-.2.4-.6.7-1.2.8 0-.1-.1-.1-.1-.1zm7 9.2c-1.4.1-2.3-.2-2.6-1v-.6c.1-1.4 1-3.7 2.8-7 1.8-3.3 3.1-5 3.9-5.1h.1c.1 0 .2 0 .3-.1.2 0 .3-.1.4-.1.4-.1.9.1 1.5.5.3.2.5.6.8 1.3.2.5.5 1.2.7 1.9.3 1.1.7 2.4 1 3.9.3 1.2.5 2.1.6 2.8.1.7.1 1.1-.1 1.2-.2.2-.6.3-1 .4-.6.1-1 0-1.3-.2-.1-.1-.2-.2-.2-.4 0-.1 0-.1-.1-.2-.1-.2-.1-.4-.1-.6v-.3c-.4 0-.9 0-1.6.1-.9.1-1.7.4-2.6.8-.7.3-1.2.7-1.5 1l-1 1.7zm5.1-9.3h-.3c-.5.1-.9.5-1.3 1.4-.2.5-.5 1.2-.8 2.1l2.7-.6c.3-.3.5-.4.4-.5 0 0-.1-.3-.3-1-.1-.3-.2-.6-.2-.8-.1-.2-.2-.4-.2-.5v-.1c-.1 0 0 0 0 0zm7.7.7v.4c0 .2.1.3.1.5 0 .1.1.2.1.3.3.6.7 1.2 1.4 1.6.4.3.9.4 1.6.2.7-.1 1.3-.4 1.7-.8.3-.3.4-.6.4-.9v-.2s-.1-.1-.2-.3L93 86c.6.5 1 1 1.3 1.6 0 .1.1.2.1.2 0 .1.1.2.1.3v.5c-.2.9-.8 1.7-1.9 2.5-1 .7-2.1 1.2-3.3 1.3-.4.1-.8.1-1.2.1-1-.1-1.9-.5-2.8-1.3-.8-.7-1.4-1.6-1.8-2.6-.1-.3-.2-.5-.3-.8-.1-.2-.2-.5-.2-.8-.1-.5-.1-1 0-1.5.3-1.7.7-3 1-3.7.8-1.8 2-2.8 3.6-3.1 1.3-.2 2.4-.1 3.5.3s1.7.9 2 1.6c.1.5-.1 1-.6 1.4-.4.4-.7.6-1 .7-.1 0-.2 0-.4-.1-.9-1.2-1.8-1.8-2.8-1.6-.1 0-.2 0-.2.1-.5.1-1 .8-1.6 2.1-.4 1.2-.6 2.2-.8 3.3zm16.8-3c.4.1 1.5.6 3.4 1.5 2.1 1.1 3.3 1.8 3.5 2.1v.2c0 .3-.1.6-.5 1s-.8.7-1.2.7c-.2 0-.4 0-.5-.2-.1-.2-2.5-1.2-7.1-3.1-.1 2.6-.3 4.2-.5 4.8-.1.3-.3.4-.6.4-.5.1-1.1-.1-1.8-.5s-1.1-.6-1.1-.8v-.1c.2-.7.3-1.2.4-1.6-.2-.4-.4-.7-.6-.9l-.1-.1v-.1c0-.2 0-.4.2-.7.2-.4.6-.7 1-.9.2-.1.3-1.4.4-3.8v-4c0-.3.2-.4.7-.5.4-.1.9 0 1.4.1.5.2.9.4 1 .7l.1.1c.1 1.2.2 2.1.2 2.5l-.2.5c.1 0 .2 0 .4.1.2-.1 1-.8 2.4-2 1.7-1.6 2.6-2.4 2.7-2.4.1 0 .2-.1.3-.1.3 0 .7 0 1.3.2.5.2.9.4 1.2.7.1 0 .1.1.1.2.1.6-2 2.6-6.1 6-.4-.1-.4 0-.4 0zm13.4-9.2c.2-.1.6-.2 1-.2 1.1-.2 2.1-.2 3.1 0 1.4.3 2.4.8 3.1 1.7.1.1.1.2.2.3v.1c0 .1 0 .1.1.2.1.6-.2 1.5-.9 2.5-.7 1.1-1.7 2.2-3 3.2-1.3 1.1-2.6 1.7-3.8 2 0 .1-.1.6-.2 1.5-.2 1.3-.4 2-.4 2.2-.2.5-.6.8-1.1.9-.5.1-1-.1-1.6-.4-.5-.3-.8-.6-.9-.9v-.1c0-.1 0-.2.1-.3.6-.4 1-1.8 1.2-4.2.1-1.3.2-2.6.2-3.8v-.2c0-.1 0-.2-.1-.4 0-.1-.1-.2-.1-.4-.1-.3-.2-.5-.3-.7 0-.2-.1-.3-.1-.4v-.1c-.1-.7 1.1-1.5 3.5-2.5zm4.6 2.2c-.2-.2-.9-.2-2 0-1.2.2-2 .5-2.3 1-.1.1-.2.7-.3 1.7-.1.9-.1 1.5-.1 1.7.3-.1.8-.3 1.5-.6.7-.4 1.1-.7 1.4-1 .4-.4.8-.9 1.1-1.4.6-.7.8-1.1.7-1.4zm17.9-.6c0 .1.1.3.1.4.1.2.1.5.2.8.2 1.4 0 3.2-.8 5.4-.3.9-1.1 1.6-2.4 2.3-1.1.6-2.2.9-3.4 1.1-1.3.2-2.5.1-3.4-.2-1.2-.4-2.1-1.2-2.6-2.4-.1-.3-.2-.5-.3-.8l-.3-1.2c-.1-.9-.1-1.8 0-2.7.3-1.6.9-3 1.9-4.2 1.1-1.2 2.4-2 4-2.2 1.4-.2 2.7 0 4 .7 1.5.7 2.4 1.7 3 3zm-8.1 7.1c.6.2 1.1.2 1.8.1 1.1-.2 2.1-1.1 2.9-2.7.7-1.3.9-2.5.8-3.4 0-.2-.1-.3-.1-.5 0-.1-.1-.2-.1-.3-.2-.5-.7-.9-1.4-1.1-.6-.2-1.2-.2-1.9-.1-1.5.2-2.6 1.1-3.3 2.5-.5 1-.6 2-.5 3.1 0 .3.1.5.2.8.1.2.1.4.2.6.3.4.8.8 1.4 1zm16.6-9.1l.1.1c-.4.6-.7 2.1-.7 4.5v4c-.4.8-.8 1.3-1.2 1.3-.5.1-1-.2-1.5-.9l-.1-.1s0-.1-.1-.1c0-.1-.1-.2-.1-.4-.1-.8-.1-2.1 0-4 .1-2.8.4-4.2.7-4.2h-.1s-.1.1-.1.2h-.2c-.3.1-.7.2-1 .3-.7.2-1.2.4-1.3.5-.1.1-.2.1-.3.1-.4.1-.9-.6-1.5-1.9-.1-.2-.1-.3-.1-.4l-.1-.3c1.4-.5 2.8-.9 4.1-1.4 2.5-.8 4.3-1.3 5.4-1.5.2 0 .4-.1.6-.1.4 0 .8.4 1.2 1.3.1.2.2.4.2.5 0 .1.1.2.1.3 0 .2 0 .3-.1.4-.1.1-1.3.5-3.6 1.1-.2.5-.3.7-.3.7zM38.5 115s-.2.1-.4.1c-.6.1-1.7.3-3.1.7v-2c.1-.9.6-1.5 1.4-1.6.7-.1 1.5-.3 2.6-.4 1.1-.2 2.3-.3 3.9-.6.5.4 1 .9 1.3 1.6 0 .1.1.2.1.4 0 .1 0 .2.1.3v.1c0 .3 0 .5-.2.6-.4.3-1.1.5-2.1.7h-.3c-.4 4-.6 6.3-.5 6.9.4-.1 1.1-.3 2.2-.6l.1.3c.1.3.2.5.2.7l.1.3c.1.9-.3 1.4-1.1 1.6-.9.2-3.1.8-6.6 1.7l-.1-.4c0-.2-.1-.3-.1-.4 0-.3-.1-.5-.1-.7-.1-1 .1-1.5.6-1.6l.9-.1c.3 0 .5-.1.6-.3.1-.1.2-1.1.3-3 .2-1.8.2-3.3.2-4.3zm18.7-3.7c0 .1 0 .1.1.2v.2c.1.3 0 .6-.2.9-.3.4-.6.7-1.1.7-.7.1-1.2-.2-1.6-.9-.1-.2-.4-.3-.9-.4-.5-.1-1.1-.1-1.6 0s-.9.2-1.1.5c-.5.4-.9.7-1.3 1.1-.4.4-.6.7-.5 1v.2c.1.2.7.2 1.7.1.2 0 .9-.2 2.2-.4l.4-.1c2.5-.4 4.2.5 5.1 2.5.1.2.2.4.3.7l.1.2c0 .1 0 .2.1.3.1.9-.2 1.8-1.1 2.9-1 1.2-2.3 1.9-3.9 2.2-2.6.4-4.8 0-6.5-1.3-.1 0-.1-.1-.2-.2v-.1c0-.3.1-.6.5-1.1.4-.5.8-.8 1.2-.9.3 0 .5 0 .6.3.4.6 1.8.9 4.3.6h.3c.7-.1 1.1-.4 1.3-.8.2-.4.2-.9.1-1.6 0-.1-.1-.3-.1-.4v-.1c-.1-.2-.6-.4-1.4-.4-.8 0-1.7 0-2.8.2-.9.1-1.4.3-1.6.4-.1.1-.3.1-.4.1-.5.1-1.1 0-1.7-.1-.7-.2-1.1-.5-1.3-.9 0-.1-.1-.2-.1-.3-.1-.3-.1-.5-.2-.8-.1-.5-.1-1 0-1.4.1-.6.4-1.1.9-1.7l1.2-1.2c.3-.3.8-.6 1.6-.9.8-.4 1.7-.6 2.6-.8 2.1-.3 3.7 0 4.7 1 .1.1.2.3.3.5zm11.8-4.6c.4-.1.8 0 1.2.2.4.2.6.4.7.6v.1c0 .1 0 .2-.1.3-.1.1-.3 1.2-.4 3.4-.1 1.8-.1 3.1 0 4 0 .2.1.4.1.6 0 .1.1.2.1.2.1.3.4.5.9.4.7-.1 1.5-.4 2.4-1 .8-.5 1.1-.8 1.1-.9v-.1c-.1-.4.1-1.7.5-4 .4-2.4.6-3.8.8-4.3.1-.2.3-.4.6-.4.4-.1.9 0 1.5.3s.9.5 1 .7v.1c0 .1 0 .3-.2.3-.4.2-.7 1.9-.8 5.1-.1 2.2 0 3.8.2 4.9 0 .3.1.5.2.7 0 .1 0 .1.1.2l.1.3c-.5.2-1 .3-1.4.4-1 .2-1.6 0-1.9-.6 0 0-.1-.1-.2 0-.6.1-1.8.8-3.7 2-.1.1-.3.2-.5.2-.6.1-1.3-.1-2-.7-.7-.5-1.3-1.1-1.5-1.8 0-.1-.1-.2-.1-.3v-.3c-.1-.6-.1-2 .1-4.3 0-.7.1-2.4.3-5 0-.8.3-1.2.9-1.3zm17.6-2.9c.2-.1.6-.2 1-.2 1.1-.2 2.1-.2 3.1 0 1.4.3 2.4.8 3.1 1.7.1.1.1.2.2.3v.1c0 .1 0 .1.1.2.1.6-.2 1.5-.9 2.5-.7 1.1-1.7 2.2-3 3.2-1.3 1.1-2.6 1.7-3.8 2 0 .1-.1.6-.2 1.5-.2 1.3-.4 2-.4 2.2-.2.5-.6.8-1.1.9-.5.1-1-.1-1.6-.4-.5-.3-.8-.6-.9-.9v-.1c0-.1 0-.2.1-.3.6-.4 1-1.8 1.2-4.2.1-1.3.2-2.6.2-3.8v-.2c0-.1 0-.2-.1-.4 0-.1-.1-.2-.1-.4-.1-.3-.2-.5-.3-.7 0-.2-.1-.3-.1-.4v-.1c-.1-.7 1.1-1.5 3.5-2.5zm4.6 2.3c-.2-.2-.9-.2-2 0-1.2.2-2 .5-2.3 1-.1.1-.2.7-.3 1.7-.1.9-.1 1.5-.1 1.7.3-.1.8-.3 1.5-.6.7-.4 1.1-.7 1.4-1 .4-.4.8-.9 1.1-1.4.6-.7.8-1.2.7-1.4zm18.2-1.4l.1.1c-.4.6-.7 2.1-.7 4.5v4c-.4.8-.8 1.3-1.2 1.3-.5.1-1-.2-1.5-.9l-.1-.1s0-.1-.1-.1c0-.1-.1-.2-.1-.4-.1-.8-.1-2.1 0-4 .1-2.8.4-4.2.7-4.2h-.1s-.1.1-.1.2h-.2c-.3.1-.7.2-1 .3-.7.2-1.2.4-1.3.5-.1.1-.2.1-.3.1-.4.1-.9-.6-1.5-1.9-.1-.2-.1-.3-.1-.4l-.1-.3c1.4-.5 2.8-.9 4.1-1.4 2.5-.8 4.3-1.3 5.4-1.5.2 0 .4-.1.6-.1.4 0 .8.4 1.2 1.3.1.2.2.4.2.5 0 .1.1.2.1.3 0 .2 0 .3-.1.4-.1.1-1.3.5-3.6 1.1-.1.5-.2.7-.3.7zm18.9-2.2c0 .1.1.3.1.4.1.2.1.5.2.8.2 1.4 0 3.2-.8 5.4-.3.9-1.1 1.6-2.4 2.3-1.1.6-2.2.9-3.4 1.1-1.3.2-2.5.1-3.4-.2-1.2-.4-2.1-1.2-2.6-2.4-.1-.3-.2-.5-.3-.8l-.3-1.2c-.1-.9-.1-1.8 0-2.7.3-1.6.9-3 1.9-4.2 1.1-1.2 2.4-2 4-2.2 1.4-.2 2.7 0 4 .7 1.5.7 2.4 1.6 3 3zm-8 7.1c.6.2 1.1.2 1.8.1 1.1-.2 2.1-1.1 2.9-2.7.7-1.3.9-2.5.8-3.4 0-.2-.1-.3-.1-.5 0-.1-.1-.2-.1-.3-.2-.5-.7-.9-1.4-1.1-.6-.2-1.2-.2-1.9-.1-1.5.2-2.6 1.1-3.3 2.5-.5 1-.6 2-.5 3.1 0 .3.1.5.2.8.1.2.1.4.2.6.2.4.7.8 1.4 1zm-63.1 30.1c-.1.4-.4 1.3-.9 2.7-.7 2.2-1.1 3.8-1.1 4.7 0 .4-.4.7-1.2.8-.9.1-1.5 0-2-.5-.1-.1-.2-.3-.4-.6-.1-.2-.2-.5-.3-.8-.3-1-.6-2.4-.9-4.2-.1-.4-.1-.7-.2-1.1-.4-3-.4-4.5 0-4.5 1.7.1 2.6.3 2.8.7v.2c-.1.3 0 1.1.1 2.4.1.7.1 1.2.2 1.6.4-1 .9-2 1.3-3 .8-1.8 1.3-2.7 1.6-2.7h.2c.3 0 .9-.4 1.8-1l2.5 5.8c.3-.9.6-2 1.1-3.3.9-2.6 1.5-4 1.8-4h.1c1.3.4 2 .7 2.2 1.1 0 .2-.4 2-1.4 5.5-.9 3.1-1.3 4.8-1.2 5.2 0 0 0 .1.1.1v.1c.1.4-.9 1-2.8 1.8-1.2-3.3-2.4-5.6-3.4-7zm15.3-3c1.6-.4 2.7-.7 3.3-.8 0-.8 0-1.6-.1-2.5-.2-1.1-.1-1.7.3-1.8.4-.2.8-.3 1.1-.3.8-.1 1.3.1 1.5.5 0 0 0 .1.1.1.1.2.1.4.1.6 0 .2.1.3.1.5.1.3.1.7.1 1v1c0 1.1-.1 2.2-.1 3.3-.1 2.3-.1 3.7 0 4.3v.1c-.1.4-.2.7-.4 1-.1.3-.4.5-.8.6h-.2c-.6 0-1.1-.3-1.4-1-.1-1.7-.1-3.3-.2-4.8-.2 0-.5.1-1 .2-1.2.3-2.1.5-2.6.5 0 .5 0 1.1-.1 1.9.1 1.1.1 2.2-.2 3.3-.2.5-.5.8-.7.9-.4.1-.8 0-1.3-.1s-.9-.4-1.1-.8c0 0 0-.1-.1-.1 0-.1 0-.1-.1-.2v-.5c0-.4.1-2.4.4-5.8.3-3.6.6-5.5.8-5.9.1-.2.3-.3.5-.3.4-.1.9.1 1.5.5.5.3.9.6 1 .8 0 .2-.1.3-.3.3 0 0 0 1.2-.1 3.5zm11.5 6.6c-1.4.1-2.3-.2-2.6-1v-.6c.1-1.4 1-3.7 2.8-7 1.8-3.3 3.1-5 3.9-5.1h.1c.1 0 .2 0 .3-.1.2 0 .3-.1.4-.1.4-.1.9.1 1.5.5.3.2.5.6.8 1.3.2.5.5 1.2.7 1.9.3 1.1.7 2.4 1 3.9.3 1.2.5 2.1.6 2.8.1.7.1 1.1-.1 1.2-.2.2-.6.3-1 .4-.6.1-1 0-1.3-.2-.1-.1-.2-.2-.2-.4 0-.1 0-.1-.1-.2-.1-.2-.1-.4-.1-.6v-.3c-.4 0-.9 0-1.6.1-.9.1-1.7.4-2.6.8-.7.3-1.2.7-1.5 1l-1 1.7zm5.1-9.2h-.3c-.5.1-.9.5-1.3 1.4-.2.5-.5 1.2-.8 2.1l2.7-.6c.3-.3.5-.4.4-.5 0 0-.1-.3-.3-1-.1-.3-.2-.6-.2-.8-.1-.2-.1-.4-.2-.5v-.1zm11.4-3l.1.1c-.4.6-.7 2.1-.7 4.5v4c-.4.8-.8 1.3-1.2 1.3-.5.1-1-.2-1.5-.9l-.1-.1s0-.1-.1-.1c0-.1-.1-.2-.1-.4-.1-.8-.1-2.1 0-4 .1-2.8.4-4.2.7-4.2h-.1s-.1.1-.1.2h-.2c-.3.1-.7.2-1 .3-.7.2-1.2.4-1.3.5-.1.1-.2.1-.3.1-.4.1-.9-.6-1.5-1.9-.1-.2-.1-.3-.1-.4l-.1-.3c1.4-.5 2.8-.9 4.1-1.4 2.5-.8 4.3-1.3 5.4-1.5.2 0 .4-.1.6-.1.4 0 .8.4 1.2 1.3.1.2.2.4.2.5 0 .1.1.2.1.3 0 .2 0 .3-.1.4-.1.1-1.3.5-3.6 1.1-.1.5-.2.7-.3.7zm8.1-.5c.5-.5 1-.9 1.4-1.2.7-.8 1.2-1.2 1.7-1.4 1-.3 1.9-.6 2.9-.9.7-.2 1.1-.5 1.3-.8.1-.1.1-.2.1-.4v-.3c-.2-.4-.6-.6-1.3-.8-.8-.2-1.7-.3-2.5-.1-.2 0-.4.1-.5.1-.1.1-.8.5-2.1 1.1-1 .6-1.6 1-1.8 1.2-.1.1-.2.1-.2.1-.3 0-.7-.2-1.3-.6s-.9-.8-1-1v-.1c0-.2 0-.3.2-.4l2.1-1.5c1.4-.8 2.8-1.3 4.3-1.6.2 0 .3 0 .5-.1 1.4-.2 2.9.1 4.5.7 1.5.5 2.4 1.1 2.8 1.7l.3.6c.1.1.1.3.1.4 0 .2.1.3.1.5.2 1.4-.6 2.6-2.5 3.4-.1 0-1.1.4-3.2 1.1-1.5.5-2.4.9-2.8 1.2-.3.3-.6.9-.7 1.8-1.5-.4-2.3-.9-2.5-1.3v-.2c-.2-.3-.1-.7.1-1.2zm3.3 3.7c1 .2 1.7.7 2 1.4v.9l-.1.5c-.2.4-.4.8-.7 1.1-.4.4-.8.6-1.3.7-.3.1-.6 0-.9-.1-.7-.3-1.2-.7-1.4-1.3 0-.1-.1-.1-.1-.2s-.1-.2-.1-.3c-.1-.4 0-.7.2-1l.5-.9.1-.1c.3-.4.7-.7 1.2-.8.2.1.4.1.6.1z" class="centeredtext-st0"/>
</svg>
