<svg xmlns="http://www.w3.org/2000/svg" class="powerball-logo" viewBox="0 0 2481.2 447">
  <style>
    .red-ball-circle{fill:#EE3224;}
    .ball > path {fill:#FFFFFF;}
  </style>
  <path class="registered" d="M2446.8 69.2c0 3.1-.8 6.1-2.4 8.8-1.6 2.7-3.7 4.8-6.4 6.4-2.7 1.6-5.6 2.3-8.8 2.3-3.1 0-6-.8-8.7-2.3-2.7-1.6-4.8-3.7-6.4-6.4-1.6-2.7-2.4-5.6-2.4-8.8 0-3.1.8-6 2.4-8.7 1.6-2.7 3.7-4.9 6.4-6.4 2.7-1.6 5.6-2.3 8.7-2.3 3.2 0 6.1.8 8.8 2.3 2.7 1.6 4.9 3.7 6.4 6.4 1.6 2.7 2.4 5.6 2.4 8.7m-3.4 0c0-3.9-1.4-7.2-4.2-10-2.8-2.8-6.1-4.1-10-4.1-3.9 0-7.2 1.4-10 4.1-2.7 2.8-4.1 6.1-4.1 10 0 3.9 1.4 7.2 4.1 10 2.8 2.8 6.1 4.1 10 4.1 3.9 0 7.2-1.4 10-4.1 2.8-2.7 4.2-6.1 4.2-10zm-22.1-9.3h8.4c2.4 0 4.1.5 5.2 1.4 1.1 1 1.6 2.2 1.6 3.9 0 1.2-.4 2.3-1.2 3.2-.8.9-2.1 1.6-3.8 2 .7.3 1.2.6 1.6.9.5.4 1 1.1 1.5 1.9 0 .1 1 1.9 3 5.4h-5.5c-1.8-3.6-3-5.7-3.6-6.4-.6-.7-1.2-1-1.8-1-.1 0-.3 0-.6.1v7.4h-4.6V59.9zm4.7 7.9h2c1.4 0 2.3-.2 2.8-.7.6-.4.8-1 .8-1.7s-.3-1.2-.8-1.7c-.5-.4-1.4-.7-2.7-.7h-2.2v4.8z" />
  <g class="circles">
    <path class="p-circle" d="M226 34.2c103.7 0 187.7 84 187.7 187.5 0 103.6-84.1 187.5-187.7 187.5-103.7 0-187.7-84-187.7-187.5 0-103.6 84.1-187.5 187.7-187.5m0-20c-28 0-55.2 5.5-80.9 16.3-24.7 10.5-47 25.4-66 44.5C60 94.1 45 116.2 34.6 141c-10.8 25.6-16.3 52.8-16.3 80.8s5.5 55.2 16.3 80.8c10.5 24.7 25.4 46.9 44.5 66s41.3 34 66 44.5c25.6 10.8 52.8 16.3 80.9 16.3 28 0 55.2-5.5 80.9-16.3 24.7-10.5 47-25.4 66-44.5 19.1-19.1 34.1-41.2 44.5-66 10.8-25.6 16.3-52.8 16.3-80.8s-5.5-55.2-16.3-80.8C407 116.2 392 94 372.9 74.9c-19.1-19-41.3-34-66-44.5-25.6-10.8-52.8-16.2-80.9-16.2z"/>
    <path class="o-circle" d="M632.3 34.2c103.7 0 187.7 84 187.7 187.5 0 103.6-84.1 187.5-187.7 187.5-103.7 0-187.7-84-187.7-187.5 0-103.6 84-187.5 187.7-187.5m0-20c-28 0-55.2 5.5-80.9 16.3-24.7 10.5-47 25.4-66 44.5-19.1 19.1-34 41.2-44.5 66-10.8 25.6-16.3 52.8-16.3 80.8s5.5 55.2 16.3 80.8c10.5 24.7 25.4 46.9 44.5 66s41.3 34 66 44.5c25.6 10.8 52.8 16.3 80.9 16.3 28 0 55.2-5.5 80.9-16.3 24.7-10.5 47-25.4 66-44.5 19.1-19.1 34.1-41.2 44.5-66 10.8-25.6 16.3-52.8 16.3-80.8s-5.5-55.2-16.3-80.8c-10.5-24.7-25.4-46.9-44.5-66-19.1-19-41.3-34-66-44.5-25.7-10.9-52.9-16.3-80.9-16.3"/>
    <path class="w-circle" d="M1039.4 34.2c103.7 0 187.7 84 187.7 187.5 0 103.6-84 187.5-187.7 187.5-103.7 0-187.7-84-187.7-187.5 0-103.6 84-187.5 187.7-187.5m0-20c-28 0-55.2 5.5-80.9 16.3-24.7 10.5-47 25.4-66 44.5-19.1 19.1-34 41.2-44.5 66-10.8 25.6-16.3 52.8-16.3 80.8s5.5 55.2 16.3 80.8c10.5 24.7 25.4 46.9 44.5 66s41.3 34 66 44.5c25.6 10.8 52.8 16.3 80.9 16.3 28 0 55.2-5.5 80.9-16.3 24.7-10.5 47-25.4 66-44.5 19.1-19.1 34.1-41.2 44.5-66 10.8-25.6 16.3-52.8 16.3-80.8s-5.5-55.2-16.3-80.8c-10.5-24.7-25.5-46.9-44.5-66-19.1-19-41.3-34-66-44.5-25.6-10.9-52.8-16.3-80.9-16.3"/>
    <path class="e-circle" d="M1447.4 34.2c103.7 0 187.7 84 187.7 187.5 0 103.6-84.1 187.5-187.7 187.5-103.7 0-187.7-84-187.7-187.5 0-103.6 84-187.5 187.7-187.5m0-20c-28 0-55.2 5.5-80.8 16.3-24.7 10.5-47 25.4-66 44.5-19.1 19.1-34 41.2-44.5 66-10.8 25.6-16.3 52.8-16.3 80.8s5.5 55.2 16.3 80.8c10.5 24.7 25.5 46.9 44.5 66 19.1 19.1 41.3 34 66 44.5 25.6 10.8 52.8 16.3 80.8 16.3s55.2-5.5 80.9-16.3c24.7-10.5 47-25.4 66-44.5 19.1-19.1 34.1-41.2 44.5-66 10.8-25.6 16.3-52.8 16.3-80.8s-5.5-55.2-16.3-80.8c-10.5-24.7-25.4-46.9-44.5-66-19.1-19-41.3-34-66-44.5-25.7-10.9-52.9-16.3-80.9-16.3"/>
    <path class="r-circle" d="M1851.1 34.2c103.7 0 187.7 84 187.7 187.5 0 103.6-84.1 187.5-187.7 187.5-103.7 0-187.7-84-187.7-187.5 0-103.6 84-187.5 187.7-187.5m0-20c-28 0-55.2 5.5-80.9 16.3-24.7 10.5-47 25.4-66 44.5-19.1 19.1-34.1 41.2-44.5 66-10.8 25.6-16.3 52.8-16.3 80.8s5.5 55.2 16.3 80.8c10.5 24.7 25.4 46.9 44.5 66s41.3 34 66 44.5c25.6 10.8 52.8 16.3 80.9 16.3 28 0 55.2-5.5 80.9-16.3 24.7-10.5 46.9-25.4 66-44.5s34-41.2 44.5-66c10.8-25.6 16.3-52.8 16.3-80.8s-5.5-55.2-16.3-80.8c-10.5-24.7-25.4-46.9-44.5-66-19.1-19-41.3-34-66-44.5-25.7-10.9-52.9-16.3-80.9-16.3z"/>
    <path class="red-ball-circle" d="M2251.8 419.2c-109 0-197.7-88.6-197.7-197.5s88.7-197.5 197.7-197.5 197.7 88.6 197.7 197.5-88.7 197.5-197.7 197.5" />
    <path class="ball-circle" d="M2251.8 34.2c103.7 0 187.7 84 187.7 187.5 0 103.6-84.1 187.5-187.7 187.5s-187.7-84-187.7-187.5c0-103.6 84-187.5 187.7-187.5m0-20c-28 0-55.2 5.5-80.9 16.3-24.7 10.5-46.9 25.4-66 44.5s-34.1 41.2-44.5 66c-10.8 25.6-16.3 52.8-16.3 80.8s5.5 55.2 16.3 80.8c10.5 24.7 25.4 46.9 44.5 66s41.3 34 66 44.5c25.6 10.8 52.8 16.3 80.9 16.3s55.2-5.5 80.9-16.3c24.7-10.5 46.9-25.4 66-44.5s34-41.2 44.5-66c10.8-25.6 16.3-52.8 16.3-80.8s-5.5-55.2-16.3-80.8c-10.5-24.7-25.4-46.9-44.5-66-19.1-19-41.3-34-66-44.5-25.7-10.9-52.9-16.3-80.9-16.3z"/>
  </g>
  <g class="powerball-letters">
    <g class="ball">
      <path class="b" d="M2148.8 215.6s12.8-12.2 12.8-35c0-23.7-22.5-28.2-22.5-28.2l-38.2-.3s-10.6 27.6-10.6 66.1 9 68.6 9 68.6l42.7-.3s23.4-9.3 22.8-32.4c-.6-23.1-6.7-32.4-16-38.5m-35.6-34l11.2-.3s8.8 1.9 8.7 11.2c-.1 8.2-6.7 13.1-10.6 13.8-3.9.6-10.9.3-10.9.3s-.3-17.6 1.6-25zm12.5 75h-11.9c-2.2-8.7-2.2-26.6-2.2-26.6l12.2-.3s12.2.6 12.2 13.5c0 12.8-10.3 13.4-10.3 13.4z" />
      <path class="a" d="M2234.5 152.2l-33.6.9c-22.2 39.6-35.1 132.8-35.1 132.8l31.4.4 2.1-16.9 34.4.4 4.1 16 34.2-.2c-2.7-12.6-37.5-133.4-37.5-133.4m-30 89.4l10.5-47.3 12.4 47.3h-22.9z" />
      <path class="l" d="M2278.9 286.2s5.4-99-.6-134.1l33.8.6s7.5 51.1 2.8 99.2l43.4.2s-2.6 25.4-6.6 33.8l-72.8.3" />
      <path class="l-1" d="M2358.9 286.7s18.2-55.8-.6-133.4l24.8-.4s13.7 34.2 7.9 98.4l24.2.2s1.5 17.5-7.9 35.5l-48.4-.3" />
    </g>
    <g class="power">
      <path class="p" d="M233 151.6c-12.7 0-24.4 1.4-24.4 1.4l-1.3 48.9 33.8 1h.8c3.9 0 21.1-.5 26.3-9.3 5.8-10 5.8-18 5.5-20.9-.3-2.9-1.6-13.2-17.1-18.4-6.3-2.1-15.2-2.7-23.6-2.7m-23.2 172.1h-61.5s-31.9-101.9 4.2-215.5l92.4-2.8s47.2 2.5 68.9 27.7c16.1 18.7 23.5 33.5 21.2 56.3-2.3 22.9-7.4 40.6-23.8 53.8-16.4 13.2-42.8 15.1-42.8 15.1l-59.2-1s.6 39 .6 66.4" />
      <path class="o" d="M630.7 154.9c-33.6 0-46.9 42.2-46.9 59.9 0 18 3.3 42.6 23.5 59.6 7.2 6 15 8.2 22.4 8.2 13.2 0 24.8-7 28.4-10.8 4.6-4.9 26.5-32 17.6-73.9-8.8-41.9-43.7-43-43.7-43h-1.3m-1 177.8c-25.2 0-41.5-8.7-41.5-8.7s-70.6-26.1-71.3-95.6c-.7-69.5 47.4-121.7 112.5-121.7s105.1 50 111.4 83.5c0 0 3.7 10.7 3.7 30.9 0 0 3.3 61.8-53.7 94.5-23 13.2-44.1 17.1-61.1 17.1" />
      <path class="w" d="M1062.9 338s-12.5-101.8-22.1-124.6c-9.6 22.8-22.1 124.6-22.1 124.6l-56.6-.4c-22.8-35.7-44.5-97.8-47.8-142.3-3.3-44.5 7.7-71.7 7.7-71.7l47.8-1.1s-4.4 95.2 11.4 135.7c0 0 23.2-118.7 32-134.9h55.2c8.8 16.2 32 134.9 32 134.9 15.8-40.4 11.4-135.7 11.4-135.7l47.8 1.1s11 27.2 7.7 71.7-25 106.6-47.8 142.3l-56.6.4" />
      <path class="e" d="M1533 326.2h-157.2s-14.1-48.4-14.1-111.6c0-63.2 18-104.9 18-104.9l145.6 1.3s7.7 16.7 13.2 46.2l-103.9.3-1.3 31.8h95.9s1.6 27.9-.3 50.7l-95.2-.6v37.5l112.6-1c-.1 0-4 28.2-13.3 50.3" />
      <path class="r" d="M1824.6 153.7c-3.8 14.8-2.9 44.9-2.9 44.9l42 1.3s25.7-.6 26-22.5c.3-21.8-21.5-23.1-21.5-23.1l-43.6-.6m119.6 171.6l-57.7-.3s-.6-28.5 1.9-44.3c2.6-15.7-9-31.8-24.7-32.1-5.2-.1-11.6-.1-17.8-.1-12.4 0-23.9.1-23.9.1s1.6 48.1 4.8 76l-57.7.3s-15.7-40.4-15.7-108.1c0-67.7 21.5-110.7 21.5-110.7h98.5s47.2 1 67 34.3c19.9 33.4 5.4 64.5-.3 68.6-5.8 4.2-19.6 10.9-19.6 10.9s34.3 10.9 32.4 35.9c-1.9 25-9.3 60.9-8 61.9l3.5 1.3-4.2 6.3" />
    </g>
  </g>
</svg>
