<svg xmlns="http://www.w3.org/2000/svg" viewBox="0 0 79.5 39.1" style="enable-background:new 0 0 79.5 39.1;">
  <style>
    .the-st1{fill:#FF0000;} .the-st2{fill:#000;}
  </style>
  <path d="M12.8 36.5c-.5 0-1-.2-1.3-.5-.4-.3-.6-.8-.7-1.4l-.2-3.1c-.1-1 .6-1.8 1.5-2.1l1.1-.3-1-14.5-.9.1v1c0 1-.8 1.9-1.9 2l-3.9.3h-.1c-1 0-1.9-.8-2-1.9l-.5-6.8c0-.5.1-1.1.5-1.5s.8-.6 1.4-.7l22.9-1.5h.1c.5 0 1 .2 1.3.5.4.3.6.8.7 1.4l.5 6.8c.1 1.1-.8 2.1-1.9 2.1l-4 .3h-.1c-1 0-1.8-.7-2-1.7l-.1-1-.9.1 1 14.5 1.1.1c1 .1 1.7.9 1.8 1.9l.2 3.1c0 .5-.1 1.1-.5 1.5s-.8.6-1.4.7l-10.7.7c.1-.1 0-.1 0-.1z" class="the-st1"/>
  <path d="M27.8 7.6l.5 6.8-4 .3-.4-2.9-4.7.3 1.2 18.1 2.8.3.2 3.1-10.7.7-.2-3.1 2.7-.7L14 12.4l-4.7.3v2.9l-3.9.4-.5-6.8 22.9-1.6m0-4h-.3L4.7 5.2c-1.1.1-2 .6-2.7 1.4-.7.8-1.1 1.8-1 2.9l.5 6.8c.1 1.1.6 2 1.4 2.7.7.6 1.7 1 2.6 1h.3l3.9-.3c.3 0 .6-.1.9-.2l.5 8.1c-1.6.6-2.6 2.2-2.5 4l.2 3.1c.1 2.1 1.9 3.7 4 3.7h.3l10.7-.7c2.2-.1 3.9-2.1 3.7-4.3l-.2-3.1c-.1-1.7-1.3-3.2-3-3.6l-.5-8.1c.2 0 .5.1.7.1h.3l4-.3c2.2-.1 3.9-2.1 3.7-4.3L32 7.3c-.3-2-2.1-3.7-4.2-3.7z" class="the-st2"/>
  <path d="M34.1 35c-1 0-1.9-.8-2-1.9l-.2-3.1c-.1-.9.5-1.8 1.4-2.1l.9-.3-1.1-17-1.1-.1c-1-.1-1.7-.9-1.8-1.9l-.2-3c0-.5.1-1.1.5-1.5s.8-.6 1.4-.7l7.9-.5h.1c1 0 1.9.8 2 1.9l.4 6.7c.9-.5 2-.7 3.1-.8h.7c2.3 0 4.2.8 5.7 2.3 1.6 1.6 2.5 4 2.7 7.3l.4 6.1.9.1c.9.1 1.6.9 1.7 1.8l.2 3.1c0 .5-.1 1.1-.5 1.5s-.8.6-1.4.7l-9.8.7h-.1c-.3 0-.6-.1-.8-.2-.3.2-.6.3-.9.3l-10 .6h-.1zm9.9-7.8c.2 0 .3.1.5.2.1-.1.3-.2.5-.2l.7-.2-.4-6.2c-.1-1.5-.4-1.8-.4-1.8s-.2-.2-.6-.2h-.2c-.4 0-.7.1-1 .3-.1 0-.1.1-.2.1l.5 7.9.6.1z" class="the-st1"/>
  <path d="M39.8 4.9l.7 10.9c.5-.9 1.2-1.7 2.1-2.2.8-.5 1.8-.9 2.8-.9h.6c1.7 0 3.2.6 4.3 1.7 1.2 1.2 1.9 3.3 2.1 6l.5 7.7 2.5.4.2 3.1-9.8.7-.2-3.1 2.2-.7-.5-7.7c-.1-1.5-.4-2.5-1-3.1-.5-.5-1.2-.8-2.1-.8h-.3c-.7 0-1.3.2-1.9.5-.5.3-.9.7-1.3 1.2l.7 10.3 2.3.4.2 3.1-9.8.6-.2-3.1 2.5-.7-1.5-20.3-2.8-.3-.2-3.1 7.9-.6m0-4h-.3l-7.9.5c-2.2.1-3.9 2.1-3.7 4.3l.2 3.1c.1 1.7 1.3 3.2 3 3.6l.9 13.8c-1.4.7-2.3 2.2-2.2 3.9l.2 3.1c.1 2.1 1.9 3.7 4 3.7h.3l9.8-.7c.3 0 .6-.1.9-.2.2 0 .5.1.7.1h.3l9.8-.7c1.1-.1 2-.6 2.7-1.4s1.1-1.8 1-2.9l-.2-3.1c-.1-1.6-1.2-3-2.7-3.5l-.3-4.5c-.3-3.7-1.3-6.6-3.2-8.5-1.9-1.9-4.3-2.9-7.1-2.9h-.8c-.4 0-.7.1-1.1.1l-.3-4.1c-.1-1.1-.6-2-1.4-2.7-.7-.6-1.6-1-2.6-1z" class="the-st2"/>
  <path d="M66.7 33c-2.9 0-5.4-.9-7.3-2.8-2.1-2-3.3-4.7-3.5-7.9v-.7c-.2-3.3.5-6.2 2.3-8.5 1.8-2.4 4.3-3.8 7.6-4h.9c2.7 0 5 .8 6.7 2.5 1.9 1.8 3 4.3 3.2 7.5l.2 2.8c0 .5-.1 1.1-.5 1.5-.3.4-.8.6-1.4.7h-.1c0 .1.1.1.1.2l1.6 3.1c.4.8.2 1.8-.4 2.4-.9.8-2.1 1.5-3.5 2.1-1.4.6-3 .9-4.8 1.1h-1.1zm-.5-8.4c.2.2.6.3 1.2.3h.2c.9-.1 1.7-.2 2.2-.4.2-.1.3-.1.5-.2l-4.1.3zm-.1-7.5c-.2 0-.3 0-.4.1l.9-.1h-.5z" class="the-st1"/>
  <path d="M66.5 11.1c2.2 0 4 .7 5.4 2 1.5 1.5 2.4 3.5 2.6 6.2l.2 2.8-11.4.8v.1c.2 1.3.7 2.3 1.5 3 .7.7 1.6 1 2.7 1h.4c1.1-.1 2.1-.3 2.8-.5.7-.3 1.5-.7 2.4-1.3l1.6 3.1c-.7.7-1.7 1.3-3 1.8-1.2.5-2.6.8-4.1.9h-.8c-2.4 0-4.4-.7-6-2.2-1.8-1.7-2.7-3.8-2.9-6.6v-.7c-.2-2.8.4-5.2 1.9-7.2 1.4-1.9 3.5-3 6.1-3.2.1.1.3 0 .6 0M63 19.4l6.3-.4v-.5c-.1-1.1-.4-1.9-.9-2.6-.5-.6-1.2-.8-2.1-.8H66c-1 .1-1.7.5-2.2 1.2-.5.9-.8 1.8-.8 3.1m3.5-12.3h-1.1c-3.8.2-6.9 1.9-9 4.8-2 2.7-2.9 6-2.6 9.8v.7c.3 3.7 1.7 6.8 4.2 9.2 2.3 2.2 5.3 3.3 8.7 3.3h1.1c2-.1 3.8-.5 5.4-1.2 1.6-.7 3-1.5 4.1-2.5 1.3-1.2 1.7-3.2.9-4.8l-.8-1.5c.1-.1.2-.2.2-.3.7-.8 1.1-1.8 1-2.9l-.2-2.7c-.2-3.7-1.5-6.6-3.8-8.8-2.1-2-4.9-3.1-8.1-3.1z" class="the-st2"/>
</svg>
