<svg xmlns="http://www.w3.org/2000/svg" id="Layer_1" xmlns:xlink="http://www.w3.org/1999/xlink" viewBox="0 0 150 18.5" style="enable-background:new 0 0 150 18.5;">
  <style>
    .alt-bg-st0{fill:#44B7F6;} .alt-bg-st1{clip-path:url(#SVGID_2_);fill:#DEF0FF;}
  </style>
  <path d="M0-40.7h150v100H0z" class="alt-bg-st0"/>
  <defs>
    <path id="SVGID_1_" d="M0-40.7h150v100H0z"/>
  </defs>
  <clipPath id="SVGID_2_">
    <use xlink:href="#SVGID_1_" style="overflow:visible;"/>
  </clipPath>
  <path d="M222.2-81c.2.1.5 0 .6-.2h-.9c.1.1.2.1.3.2m4.1 0c-.3-.1-.5.1-.6.4-.1.3.1.5.4.6.3.1.5-.1.6-.4.1-.3-.1-.5-.4-.6m3.9 1.1c-.2-.1-.4.1-.5.3-.1.2.1.4.3.5.2.1.4-.1.5-.3 0-.2-.1-.4-.3-.5m3.8 1.1c-.2 0-.3.1-.4.2 0 .2.1.3.2.4.2 0 .3-.1.4-.2.1-.1 0-.3-.2-.4m3.9 1.2c-.1 0-.2 0-.3.2 0 .1 0 .2.2.3.1 0 .2 0 .3-.2-.1-.2-.1-.3-.2-.3m3.8 1.1c-.1 0-.1 0-.1.1s0 .1.1.1.1 0 .1-.1c0 0 0-.1-.1-.1M205.6-81c.3.1.7 0 .9-.3h-1.3c.1.2.3.3.4.3m3.9 1c.5.1.9-.1 1.1-.6.1-.2 0-.5-.1-.7H209c0 .1-.1.1-.1.2-.1.5.1 1 .6 1.1m4.3-.6c-.4-.1-.9.1-1 .6-.1.4.1.9.6 1 .4.1.9-.1 1-.6.1-.4-.2-.8-.6-1m3.9 1.1c-.4-.1-.9.1-1 .6-.1.4.1.9.6 1 .4.1.9-.1 1-.6 0-.4-.2-.9-.6-1m3.8 1.1c-.4-.1-.8.1-.9.5-.1.4.1.8.5.9.4.1.8-.1.9-.5.1-.4-.1-.8-.5-.9m3.8 1.1c-.3-.1-.7.1-.8.5-.1.3.1.7.5.8.3.1.7-.1.8-.5.1-.3-.1-.7-.5-.8m3.9 1.1c-.3-.1-.6.1-.7.4-.1.3.1.6.4.7.3.1.6-.1.7-.4.1-.3-.1-.6-.4-.7m3.8 1.1c-.3-.1-.5.1-.6.3-.1.3.1.5.3.6.3.1.5-.1.6-.3.1-.2 0-.5-.3-.6m3.9 1.2c-.2-.1-.4.1-.5.3-.1.2.1.4.3.5.2.1.4-.1.5-.3 0-.3-.1-.5-.3-.5m3.8 1.1c-.1 0-.3 0-.3.2 0 .1 0 .3.2.3.1 0 .3 0 .3-.2 0-.1-.1-.2-.2-.3m3.8 1.2c-.1 0-.2 0-.2.1s0 .2.1.2.2 0 .2-.1c.1-.1 0-.2-.1-.2m3.8 1.1c0 .1 0 .1 0 0 .1.1.1.1 0 0 .1 0 .1 0 0 0 .1 0 0 0 0 0M78.8-40.7h-1c.1 0 .1.1.2.1.3.1.6 0 .8-.1m3.1 1.1c.6.1 1.1-.2 1.3-.7v-.4h-2c-.2.5.1 1 .7 1.1m4.4-1c-.6-.1-1.1.2-1.3.7-.2.6.2 1.1.7 1.3.6.2 1.1-.2 1.3-.7.2-.5-.2-1.1-.7-1.3m3.8 1.1c-.6-.1-1.1.2-1.3.7-.2.6.2 1.1.7 1.3.6.2 1.1-.2 1.3-.7.2-.6-.1-1.2-.7-1.3m3.9 1c-.6-.1-1.1.2-1.3.7-.1.6.2 1.1.7 1.3.6.1 1.1-.2 1.3-.7.2-.6-.2-1.1-.7-1.3m3.8 1.1c-.5-.1-1.1.2-1.2.7-.1.5.2 1.1.7 1.2.5.1 1.1-.2 1.2-.7.2-.5-.1-1.1-.7-1.2m3.9 1c-.5-.1-1.1.2-1.2.7-.1.5.2 1.1.7 1.2.5.1 1.1-.2 1.2-.7.1-.5-.2-1-.7-1.2m3.9 1.1c-.5-.1-1 .2-1.1.7-.1.5.2 1 .7 1.1.5.1 1-.2 1.1-.7 0-.4-.2-.9-.7-1.1m3.8 1.1c-.5-.1-1 .2-1.1.6-.1.5.2 1 .6 1.1.5.1 1-.2 1.1-.6.2-.5-.1-1-.6-1.1m3.8 1.1c-.4-.1-.9.1-1 .6-.1.4.1.9.6 1 .4.1.9-.1 1-.6.1-.4-.1-.9-.6-1m3.9 1.1c-.4-.1-.8.1-.9.5-.1.4.1.8.5.9.4.1.8-.1.9-.5.1-.4-.1-.8-.5-.9m3.8 1.2c-.3-.1-.7.1-.8.4-.1.3.1.7.4.8.3.1.7-.1.8-.4.2-.4 0-.7-.4-.8m3.9 1.1c-.3-.1-.6.1-.6.4-.1.3.1.6.4.6.3.1.6-.1.6-.4 0-.2-.2-.5-.4-.6m3.8 1.2c-.2-.1-.4.1-.5.3-.1.2.1.4.3.5.2.1.4-.1.5-.3 0-.3-.1-.5-.3-.5m3.8 1.1c-.2 0-.3.1-.4.2 0 .2.1.3.2.4.2 0 .3-.1.4-.2.1-.2 0-.4-.2-.4m3.9 1.2c-.1 0-.2 0-.2.1s0 .2.1.2.2 0 .2-.1-.1-.2-.1-.2m3.8 1.1s0 .1 0 0c0 .1 0 .1 0 0M65.4-39.9c.5.1 1.1-.2 1.2-.7v-.2h-2c.1.5.4.8.8.9m3.1-.2c-.2.6.2 1.2.8 1.3.6.2 1.2-.2 1.3-.8.1-.5-.1-1-.5-1.2H69c-.3.2-.5.4-.5.7m5.2.2c-.6-.2-1.2.2-1.4.8-.2.6.2 1.2.8 1.4.6.2 1.2-.2 1.4-.8.1-.6-.2-1.2-.8-1.4m3.8 1c-.6-.2-1.2.2-1.4.8-.2.6.2 1.2.8 1.4.6.2 1.2-.2 1.4-.8.2-.6-.2-1.2-.8-1.4m3.9 1c-.6-.2-1.3.2-1.5.8-.2.6.2 1.3.8 1.5.6.2 1.3-.2 1.5-.8.2-.6-.2-1.3-.8-1.5m3.9 1.1c-.7-.2-1.3.2-1.5.8-.2.6.2 1.3.8 1.5.6.2 1.3-.2 1.5-.8.2-.7-.2-1.4-.8-1.5m3.8 1c-.6-.2-1.3.2-1.5.8-.2.6.2 1.3.8 1.5.6.2 1.3-.2 1.5-.8.3-.7-.1-1.3-.8-1.5m3.9 1.1c-.6-.2-1.3.2-1.4.8-.2.6.2 1.3.8 1.4.6.2 1.3-.2 1.4-.8.2-.6-.2-1.3-.8-1.4m3.8 1c-.6-.2-1.2.2-1.4.8-.2.6.2 1.2.8 1.4.6.2 1.2-.2 1.4-.8.2-.6-.1-1.2-.8-1.4m3.9 1.1c-.6-.2-1.2.2-1.4.8-.2.6.2 1.2.8 1.4.6.2 1.2-.2 1.4-.8.2-.6-.2-1.3-.8-1.4m3.9 1.1c-.6-.2-1.2.2-1.3.8-.2.6.2 1.2.8 1.3.6.2 1.2-.2 1.3-.8.1-.6-.3-1.2-.8-1.3m3.8 1.1c-.5-.1-1.1.2-1.2.7-.1.5.2 1.1.7 1.2.5.1 1.1-.2 1.2-.7.2-.5-.2-1.1-.7-1.2m3.8 1.1c-.5-.1-1 .2-1.2.7-.1.5.2 1 .7 1.2.5.1 1-.2 1.2-.7.2-.6-.1-1.1-.7-1.2m3.9 1.1c-.5-.1-.9.1-1 .6-.1.5.1.9.6 1 .5.1.9-.1 1-.6.1-.4-.2-.9-.6-1m3.8 1.1c-.4-.1-.8.1-.9.5-.1.4.1.8.5.9.4.1.8-.1.9-.5.2-.4-.1-.8-.5-.9m3.9 1.1c-.4-.1-.7.1-.8.5-.1.4.1.7.5.8.4.1.7-.1.8-.5 0-.3-.2-.7-.5-.8m3.8 1.2c-.3-.1-.6.1-.7.4-.1.3.1.6.4.7.3.1.6-.1.7-.4.1-.3-.1-.6-.4-.7m3.8 1.1c-.2-.1-.4.1-.5.3-.1.2.1.4.3.5.2.1.4-.1.5-.3.1-.2 0-.4-.3-.5m3.9 1.2c-.2 0-.3.1-.4.2 0 .2.1.3.2.4.2 0 .3-.1.4-.2 0-.2-.1-.4-.2-.4m3.8 1.2c-.1 0-.2 0-.2.1s0 .2.1.2.2 0 .2-.1 0-.2-.1-.2m-90.2-19c.4.1.7-.1.9-.4h-1.4c.2.2.3.3.5.4m3.2 0c-.1.5.2 1 .6 1.1.5.1 1-.2 1.1-.6.1-.3 0-.7-.3-.9h-1.2c0 .1-.1.2-.2.4m5 .3c-.5-.1-1.1.2-1.2.7-.1.5.2 1.1.7 1.2.5.1 1.1-.2 1.2-.7.2-.5-.1-1.1-.7-1.2m3.9.9c-.6-.2-1.2.2-1.3.8-.2.6.2 1.2.8 1.3.6.2 1.2-.2 1.3-.8.1-.5-.2-1.1-.8-1.3m3.9 1c-.6-.2-1.2.2-1.4.8-.2.6.2 1.2.8 1.4.6.2 1.2-.2 1.4-.8.2-.6-.2-1.2-.8-1.4m3.9 1c-.6-.2-1.3.2-1.5.9-.2.6.2 1.3.9 1.5.6.2 1.3-.2 1.5-.9.1-.7-.3-1.3-.9-1.5m3.9 1c-.7-.2-1.4.2-1.5.9-.2.7.2 1.4.9 1.5s1.4-.2 1.5-.9c.1-.7-.3-1.3-.9-1.5m3.8 1c-.7-.2-1.4.2-1.6.9-.2.7.2 1.4.9 1.6.7.2 1.4-.2 1.6-.9.2-.7-.2-1.4-.9-1.6m3.9 1c-.7-.2-1.4.2-1.6.9-.2.7.2 1.4.9 1.6.7.2 1.4-.2 1.6-.9.2-.7-.2-1.4-.9-1.6m3.9 1c-.7-.2-1.4.2-1.6.9-.2.7.2 1.4.9 1.6.7.2 1.4-.2 1.6-.9.2-.7-.2-1.4-.9-1.6m3.8 1.1c-.7-.2-1.4.2-1.6.9-.2.7.2 1.4.9 1.6.7.2 1.4-.2 1.6-.9.2-.7-.2-1.5-.9-1.6m3.9 1c-.7-.2-1.4.2-1.6.9-.2.7.2 1.4.9 1.6.7.2 1.4-.2 1.6-.9.2-.7-.2-1.4-.9-1.6m3.8 1.1c-.7-.2-1.4.2-1.6.9-.2.7.2 1.4.9 1.6.7.2 1.4-.2 1.6-.9.2-.8-.2-1.5-.9-1.6m3.9 1c-.7-.1-1.3.2-1.5.9s.2 1.3.9 1.5c.7.2 1.3-.2 1.5-.9s-.2-1.3-.9-1.5m3.9 1.1c-.6-.2-1.3.2-1.5.8-.2.6.2 1.3.8 1.5.6.2 1.3-.2 1.5-.8.2-.7-.2-1.3-.8-1.5m3.8 1.1c-.6-.2-1.2.2-1.4.8-.2.6.2 1.2.8 1.4.6.2 1.2-.2 1.4-.8.2-.6-.2-1.2-.8-1.4m3.8 1.1c-.6-.2-1.2.2-1.3.8-.2.6.2 1.2.8 1.3.6.2 1.2-.2 1.3-.8.2-.6-.2-1.2-.8-1.3m3.9 1.1c-.5-.1-1.1.2-1.2.7-.1.5.2 1.1.7 1.2.5.1 1.1-.2 1.2-.7.1-.5-.2-1-.7-1.2m3.8 1.1c-.5-.1-1 .2-1.1.6-.1.5.2 1 .6 1.1.5.1 1-.2 1.1-.6.2-.4-.1-.9-.6-1.1m3.9 1.2c-.4-.1-.9.1-1 .6-.1.4.1.9.6 1 .4.1.9-.1 1-.6 0-.5-.2-.9-.6-1m3.8 1.1c-.4-.1-.7.1-.8.5s.1.7.5.8c.4.1.7-.1.8-.5.1-.3-.1-.7-.5-.8m3.8 1.2c-.3-.1-.6.1-.7.4-.1.3.1.6.4.7.3.1.6-.1.7-.4.1-.3-.1-.6-.4-.7m3.9 1.2c-.2-.1-.4.1-.5.3-.1.2.1.4.3.5.2.1.4-.1.5-.3 0-.3-.1-.5-.3-.5m3.8 1.1c-.1 0-.3 0-.3.2 0 .1 0 .3.2.3.1 0 .3 0 .3-.2 0-.1-.1-.2-.2-.3m3.8 1.2c-.1 0-.1 0-.1.1s0 .1.1.1.1 0 .1-.1c0 0 0-.1-.1-.1M36-40.5c-.1.3.1.6.4.7.3.1.6-.1.7-.4.1-.2 0-.4-.1-.5h-.7c-.2 0-.3.1-.3.2m4.6.5c-.4-.1-.7.1-.8.5-.1.4.1.7.5.8s.7-.1.8-.5c0-.3-.2-.7-.5-.8m3.9.9c-.4-.1-.9.1-1 .6-.1.4.1.9.6 1 .4.1.9-.1 1-.6 0-.4-.2-.8-.6-1m3.8 1c-.5-.1-1 .2-1.1.6s.2 1 .6 1.1c.5.1 1-.2 1.1-.6.2-.5-.1-1-.6-1.1m3.9.9c-.5-.1-1.1.2-1.2.7-.1.5.2 1.1.7 1.2.5.1 1.1-.2 1.2-.7.2-.5-.1-1.1-.7-1.2m3.9.9c-.6-.2-1.2.2-1.4.8-.2.6.2 1.2.8 1.4.6.2 1.2-.2 1.4-.8s-.2-1.2-.8-1.4m3.9 1c-.6-.2-1.3.2-1.5.8-.2.6.2 1.3.8 1.5.6.2 1.3-.2 1.5-.8.2-.7-.1-1.3-.8-1.5m3.9 1c-.7-.2-1.4.2-1.5.9-.2.7.2 1.4.9 1.5.7.2 1.4-.2 1.5-.9.2-.7-.2-1.4-.9-1.5m3.9.9c-.7-.2-1.4.2-1.6.9-.2.7.2 1.4.9 1.6.7.2 1.4-.2 1.6-.9.2-.6-.2-1.4-.9-1.6m3.9 1c-.7-.2-1.5.2-1.7 1-.2.7.2 1.5 1 1.7.7.2 1.5-.2 1.7-1 .1-.7-.3-1.5-1-1.7m3.8 1c-.7-.2-1.5.2-1.7 1-.2.7.2 1.5 1 1.7.7.2 1.5-.2 1.7-1 .2-.7-.2-1.5-1-1.7m3.9 1.1c-.8-.2-1.5.2-1.7 1-.2.8.2 1.5 1 1.7.8.2 1.5-.2 1.7-1 .2-.8-.2-1.5-1-1.7m3.9 1c-.8-.2-1.5.2-1.8 1-.2.8.2 1.5 1 1.8.8.2 1.5-.2 1.8-1 .2-.8-.3-1.6-1-1.8m3.8 1c-.8-.2-1.5.2-1.8 1-.2.8.2 1.5 1 1.8.8.2 1.5-.2 1.8-1 .2-.8-.2-1.6-1-1.8m3.9 1.1c-.8-.2-1.5.2-1.7 1-.2.8.2 1.5 1 1.7.8.2 1.5-.2 1.7-1 .2-.8-.3-1.5-1-1.7m3.8 1c-.7-.2-1.5.2-1.7 1-.2.7.2 1.5 1 1.7.7.2 1.5-.2 1.7-1 .2-.7-.2-1.5-1-1.7m3.9 1.1c-.7-.2-1.5.2-1.7 1-.2.7.2 1.5 1 1.7.7.2 1.5-.2 1.7-1 .1-.8-.3-1.5-1-1.7m3.8 1.1c-.7-.2-1.4.2-1.6.9-.2.7.2 1.4.9 1.6.7.2 1.4-.2 1.6-.9.3-.7-.2-1.4-.9-1.6m3.9 1c-.7-.2-1.4.2-1.5.9-.2.7.2 1.4.9 1.5.7.2 1.4-.2 1.5-.9.2-.6-.2-1.3-.9-1.5m3.8 1.2c-.6-.2-1.3.2-1.5.8-.2.6.2 1.3.8 1.5.6.2 1.3-.2 1.5-.8.3-.7-.1-1.4-.8-1.5m3.9 1.1c-.6-.2-1.2.2-1.4.8-.2.6.2 1.2.8 1.4.6.2 1.2-.2 1.4-.8.1-.7-.2-1.3-.8-1.4m3.8 1.1c-.5-.1-1.1.2-1.2.7-.1.5.2 1.1.7 1.2s1.1-.2 1.2-.7c.2-.5-.1-1.1-.7-1.2m3.9 1.1c-.5-.1-1 .2-1.1.6-.1.5.2 1 .6 1.1.5.1 1-.2 1.1-.6.1-.5-.2-.9-.6-1.1m3.8 1.2c-.4-.1-.9.1-1 .6-.1.4.1.9.6 1 .4.1.9-.1 1-.6.1-.5-.2-.9-.6-1m3.8 1.1c-.4-.1-.7.1-.8.5-.1.4.1.7.5.8.4.1.7-.1.8-.5.1-.3-.1-.7-.5-.8m3.9 1.2c-.3-.1-.6.1-.6.4-.1.3.1.6.4.6.3.1.6-.1.6-.4 0-.2-.2-.5-.4-.6m3.8 1.2c-.2-.1-.4.1-.5.3-.1.2.1.4.3.5.2.1.4-.1.5-.3 0-.3-.1-.5-.3-.5m3.8 1.2c-.1 0-.2 0-.2.1s0 .2.1.2.2 0 .2-.1c.1-.1 0-.2-.1-.2m3.8 1.2c0 .1 0 0 0 0 .1 0 0 0 0 0M23.9-39.8c-.1 0-.2 0-.2.1s0 .2.1.2.2 0 .2-.1c.1 0 0-.1-.1-.2m3.9.9c-.2 0-.4.1-.4.2 0 .2.1.4.2.4.2 0 .4-.1.4-.2.1-.2 0-.3-.2-.4m4 .9c-.3-.1-.5.1-.6.3-.1.3.1.5.3.6.3.1.5-.1.6-.3.1-.3-.1-.5-.3-.6m3.9.9c-.3-.1-.7.1-.8.4-.1.3.1.7.4.8.3.1.7-.1.8-.4.1-.4-.1-.7-.4-.8m3.9.9c-.4-.1-.8.1-1 .5s.1.8.5 1c.4.1.8-.1 1-.5.1-.5-.1-.9-.5-1m3.9.9c-.5-.1-1 .2-1.1.6-.1.5.2 1 .6 1.1.5.1 1-.2 1.1-.6.1-.5-.2-1-.6-1.1m3.8.9c-.5-.1-1.1.2-1.2.7-.1.5.2 1.1.7 1.2.5.1 1.1-.2 1.2-.7.2-.5-.1-1-.7-1.2m3.9 1c-.6-.2-1.2.2-1.4.8-.2.6.2 1.2.8 1.4.6.2 1.2-.2 1.4-.8.2-.7-.2-1.3-.8-1.4m3.9.9c-.6-.2-1.3.2-1.5.9-.2.6.2 1.3.9 1.5.6.2 1.3-.2 1.5-.9.1-.7-.2-1.3-.9-1.5m3.9 1c-.7-.2-1.4.2-1.6.9-.2.7.2 1.4.9 1.6.7.2 1.4-.2 1.6-.9.2-.7-.2-1.4-.9-1.6m3.9.9c-.7-.2-1.5.2-1.7 1s.2 1.5 1 1.7 1.5-.2 1.7-1c.1-.7-.3-1.5-1-1.7m3.9 1c-.8-.2-1.5.2-1.7 1-.2.8.2 1.5 1 1.7.8.2 1.5-.2 1.7-1 .2-.7-.3-1.5-1-1.7m3.8 1c-.8-.2-1.6.3-1.8 1s.3 1.6 1 1.8c.8.2 1.6-.3 1.8-1 .3-.8-.2-1.6-1-1.8m3.9 1c-.8-.2-1.6.3-1.8 1.1-.2.8.3 1.6 1.1 1.8.8.2 1.6-.3 1.8-1.1.2-.8-.3-1.6-1.1-1.8m3.9 1c-.8-.2-1.7.3-1.9 1.1-.2.8.3 1.7 1.1 1.9.8.2 1.7-.3 1.9-1.1.2-.8-.3-1.7-1.1-1.9m3.9 1c-.8-.2-1.7.3-1.9 1.1-.2.8.3 1.7 1.1 1.9.8.2 1.7-.3 1.9-1.1.2-.8-.3-1.6-1.1-1.9m3.8 1.1c-.8-.2-1.7.3-1.9 1.1-.2.8.3 1.7 1.1 1.9.8.2 1.7-.3 1.9-1.1.2-.9-.3-1.7-1.1-1.9m3.9 1c-.8-.2-1.6.3-1.9 1.1-.2.8.3 1.6 1.1 1.9.8.2 1.6-.3 1.9-1.1.2-.8-.3-1.7-1.1-1.9m3.8 1.1c-.8-.2-1.6.3-1.8 1.1-.2.8.3 1.6 1.1 1.8.8.2 1.6-.3 1.8-1.1.2-.8-.3-1.6-1.1-1.8m3.9 1.1c-.8-.2-1.6.3-1.8 1-.2.8.3 1.6 1 1.8.8.2 1.6-.3 1.8-1 .2-.8-.2-1.6-1-1.8m3.8 1c-.8-.2-1.5.2-1.7 1-.2.8.2 1.5 1 1.7.8.2 1.5-.2 1.7-1 .2-.7-.2-1.5-1-1.7m3.9 1.1c-.7-.2-1.5.2-1.7 1-.2.7.2 1.5 1 1.7.7.2 1.5-.2 1.7-1 .1-.7-.3-1.5-1-1.7m3.8 1.1c-.7-.2-1.4.2-1.6.9-.2.7.2 1.4.9 1.6.7.2 1.4-.2 1.6-.9.2-.7-.2-1.4-.9-1.6m3.9 1.1c-.6-.2-1.3.2-1.5.9-.2.6.2 1.3.9 1.5.6.2 1.3-.2 1.5-.9s-.3-1.3-.9-1.5m3.8 1.1c-.6-.2-1.2.2-1.4.8-.2.6.2 1.2.8 1.4.6.2 1.2-.2 1.4-.8.2-.6-.2-1.2-.8-1.4m3.9 1.2c-.5-.1-1.1.2-1.2.7-.1.5.2 1.1.7 1.2.5.1 1.1-.2 1.2-.7.1-.5-.2-1.1-.7-1.2m3.8 1.1c-.5-.1-1 .2-1.1.6-.1.5.2 1 .6 1.1.5.1 1-.2 1.1-.6.2-.4-.1-.9-.6-1.1m3.8 1.2c-.4-.1-.8.1-.9.5-.1.4.1.8.5.9.4.1.8-.1.9-.5.2-.4-.1-.8-.5-.9m3.8 1.2c-.3-.1-.7.1-.8.4-.1.3.1.7.4.8.3.1.7-.1.8-.4.2-.4 0-.7-.4-.8m3.9 1.2c-.2-.1-.5.1-.6.3-.1.2.1.5.3.6.2.1.5-.1.6-.3.1-.3-.1-.6-.3-.6m3.8 1.1c-.2 0-.3.1-.4.2 0 .2.1.3.2.4.2 0 .3-.1.4-.2 0-.1 0-.3-.2-.4m3.8 1.2c-.1 0-.2 0-.2.1s0 .2.1.2.2 0 .2-.1 0-.1-.1-.2M18.9-36.8c0 .1 0 .1 0 0 .1.1.1.1.1 0h-.1c.1 0 0 0 0 0m4 .8c-.1 0-.3 0-.3.2 0 .1 0 .3.2.3.1 0 .3 0 .3-.2 0-.1 0-.2-.2-.3m3.9.9c-.2-.1-.4.1-.5.3-.1.2.1.4.3.5.2.1.4-.1.5-.3.1-.2 0-.4-.3-.5m3.9.9c-.3-.1-.6.1-.7.4-.1.3.1.6.4.7.3.1.6-.1.7-.4.1-.3 0-.6-.4-.7m3.9.9c-.4-.1-.8.1-.9.5-.1.4.1.8.5.9.4.1.8-.1.9-.5.2-.4-.1-.8-.5-.9m3.9.9c-.5-.1-.9.2-1.1.6-.1.5.2.9.6 1.1.5.1.9-.2 1.1-.6.2-.5-.1-1-.6-1.1m3.9.9c-.5-.1-1.1.2-1.2.7-.1.5.2 1.1.7 1.2.5.1 1.1-.2 1.2-.7.2-.5-.1-1.1-.7-1.2m3.9.9c-.6-.2-1.2.2-1.4.8-.2.6.2 1.2.8 1.4.6.2 1.2-.2 1.4-.8.2-.6-.2-1.2-.8-1.4m3.9.9c-.6-.2-1.3.2-1.5.9-.2.6.2 1.3.9 1.5.6.2 1.3-.2 1.5-.9.1-.6-.2-1.3-.9-1.5m3.9 1c-.7-.2-1.4.2-1.6.9-.2.7.2 1.4.9 1.6.7.2 1.4-.2 1.6-.9.2-.7-.2-1.4-.9-1.6m3.9.9c-.7-.2-1.5.2-1.7 1-.2.7.2 1.5 1 1.7.7.2 1.5-.2 1.7-1 .2-.7-.3-1.5-1-1.7m3.9 1c-.8-.2-1.6.3-1.8 1-.2.8.3 1.6 1 1.8.8.2 1.6-.3 1.8-1 .2-.8-.2-1.6-1-1.8m3.9 1c-.8-.2-1.6.3-1.9 1.1-.2.8.3 1.6 1.1 1.9.8.2 1.6-.3 1.9-1.1.1-.9-.3-1.7-1.1-1.9m3.8 1c-.8-.2-1.7.3-1.9 1.1-.2.8.3 1.7 1.1 1.9.8.2 1.7-.3 1.9-1.1.3-.9-.2-1.7-1.1-1.9m3.9 1c-.9-.2-1.7.3-2 1.1-.2.9.3 1.7 1.1 2 .9.2 1.7-.3 2-1.1.3-.9-.2-1.8-1.1-2m3.9 1c-.9-.2-1.8.3-2 1.2-.2.9.3 1.8 1.2 2 .9.2 1.8-.3 2-1.2.2-.9-.4-1.8-1.2-2m3.8 1c-.9-.2-1.8.3-2 1.2-.2.9.3 1.8 1.2 2 .9.2 1.8-.3 2-1.2.3-.9-.3-1.8-1.2-2m3.9 1c-.9-.2-1.8.3-2 1.2-.2.9.3 1.8 1.2 2 .9.2 1.8-.3 2-1.2.2-.8-.3-1.7-1.2-2m3.9 1.1c-.9-.2-1.8.3-2 1.2-.2.9.3 1.8 1.2 2 .9.2 1.8-.3 2-1.2.2-.9-.4-1.8-1.2-2m3.8 1c-.9-.2-1.7.3-2 1.1-.2.9.3 1.7 1.1 2 .9.2 1.7-.3 2-1.1.3-.9-.2-1.7-1.1-2m3.9 1.1c-.8-.2-1.7.3-1.9 1.1-.2.8.3 1.7 1.1 1.9.8.2 1.7-.3 1.9-1.1.2-.8-.3-1.7-1.1-1.9m3.8 1.1c-.8-.2-1.6.3-1.8 1.1-.2.8.3 1.6 1.1 1.8.8.2 1.6-.3 1.8-1.1.2-.8-.3-1.6-1.1-1.8m3.9 1.1c-.8-.2-1.6.3-1.8 1-.2.8.3 1.6 1 1.8.8.2 1.6-.3 1.8-1 .2-.8-.2-1.6-1-1.8m3.8 1.1c-.7-.2-1.5.2-1.7 1-.2.7.2 1.5 1 1.7.7.2 1.5-.2 1.7-1 .2-.8-.2-1.5-1-1.7m3.9 1.1c-.7-.2-1.4.2-1.6.9-.2.7.2 1.4.9 1.6.7.2 1.4-.2 1.6-.9.2-.7-.2-1.4-.9-1.6m3.8 1.1c-.6-.2-1.3.2-1.5.9-.2.6.2 1.3.9 1.5.6.2 1.3-.2 1.5-.9.1-.6-.2-1.3-.9-1.5m3.8 1.2c-.6-.2-1.2.2-1.4.8-.2.6.2 1.2.8 1.4.6.2 1.2-.2 1.4-.8.2-.7-.2-1.3-.8-1.4m3.9 1.1c-.5-.1-1.1.2-1.2.7-.1.5.2 1.1.7 1.2.5.1 1.1-.2 1.2-.7.1-.5-.2-1-.7-1.2m3.8 1.2c-.5-.1-.9.1-1 .6-.1.5.1.9.6 1 .5.1.9-.1 1-.6.1-.4-.1-.9-.6-1m3.8 1.1c-.4-.1-.8.1-.9.5s.1.8.5.9c.4.1.8-.1.9-.5.2-.4-.1-.8-.5-.9m3.9 1.2c-.3-.1-.6.1-.7.4-.1.3.1.6.4.7.3.1.6-.1.7-.4 0-.3-.1-.6-.4-.7m3.8 1.2c-.2-.1-.4.1-.5.3-.1.2.1.4.3.5.2.1.4-.1.5-.3 0-.2-.1-.4-.3-.5m3.8 1.2c-.1 0-.3 0-.3.2 0 .1 0 .3.2.3.1 0 .3 0 .3-.2 0-.1-.1-.3-.2-.3m3.7 1.3s.1 0 0 0c.1.1.1.1.1 0 .1 0 .1-.1-.1 0 .1-.1.1-.1 0 0M18-33.1c-.1 0-.2 0-.2.1s0 .2.1.2.2 0 .2-.1c0 0 0-.1-.1-.2m3.9.9c-.2 0-.4.1-.4.2 0 .2.1.4.2.4.2 0 .4-.1.4-.2.1-.2 0-.3-.2-.4m3.9.9c-.3-.1-.5.1-.6.4-.1.3.1.5.4.6.3.1.5-.1.6-.4 0-.3-.1-.5-.4-.6m3.9.9c-.4-.1-.7.1-.8.5-.1.4.1.7.5.8.4.1.7-.1.8-.5.1-.4-.1-.7-.5-.8m3.9.9c-.4-.1-.9.1-1 .6-.1.4.1.9.6 1 .4.1.9-.1 1-.6.1-.5-.1-.9-.6-1m3.9.9c-.5-.1-1 .2-1.2.7-.1.5.2 1 .7 1.2.5.1 1-.2 1.2-.7.1-.6-.2-1.1-.7-1.2m3.9.9c-.6-.2-1.2.2-1.3.8-.2.6.2 1.2.8 1.3.6.2 1.2-.2 1.3-.8.1-.6-.2-1.2-.8-1.3m3.9.9c-.6-.2-1.3.2-1.4.8-.2.6.2 1.3.8 1.5.6.2 1.3-.2 1.5-.8.1-.7-.2-1.3-.9-1.5m3.9.9c-.7-.2-1.4.2-1.6.9-.2.7.2 1.4.9 1.6.7.2 1.4-.2 1.6-.9.2-.7-.2-1.4-.9-1.6m3.9 1c-.7-.2-1.5.2-1.7 1s.2 1.5 1 1.7c.7.2 1.5-.2 1.7-1 .2-.8-.3-1.5-1-1.7m3.9.9c-.8-.2-1.6.3-1.8 1-.2.8.3 1.6 1 1.8.8.2 1.6-.3 1.8-1 .2-.8-.2-1.6-1-1.8m3.9 1c-.8-.2-1.7.3-1.9 1.1-.2.8.3 1.7 1.1 1.9.8.2 1.7-.3 1.9-1.1.2-.8-.3-1.7-1.1-1.9m3.8 1c-.9-.2-1.7.3-2 1.1-.2.9.3 1.7 1.1 2 .9.2 1.7-.3 2-1.1.3-.9-.2-1.8-1.1-2m3.9.9c-.9-.2-1.8.3-2 1.2-.2.9.3 1.8 1.2 2 .9.2 1.8-.3 2-1.2.2-.8-.3-1.7-1.2-2m3.9 1c-.9-.2-1.8.3-2.1 1.2-.2.9.3 1.8 1.2 2.1.9.2 1.8-.3 2.1-1.2.3-.9-.3-1.8-1.2-2.1m3.9 1c-.9-.2-1.9.3-2.1 1.2-.2.9.3 1.9 1.2 2.1.9.2 1.9-.3 2.1-1.2.3-.9-.3-1.8-1.2-2.1m3.8 1.1c-.9-.2-1.9.3-2.1 1.2-.2.9.3 1.9 1.2 2.1.9.2 1.9-.3 2.1-1.2.3-.9-.2-1.9-1.2-2.1m3.9 1c-.9-.2-1.9.3-2.1 1.2-.2.9.3 1.9 1.2 2.1.9.2 1.9-.3 2.1-1.2s-.3-1.9-1.2-2.1m3.9 1c-.9-.2-1.9.3-2.1 1.2-.2.9.3 1.9 1.2 2.1.9.2 1.9-.3 2.1-1.2.2-.9-.3-1.8-1.2-2.1m3.8 1.1c-.9-.2-1.8.3-2.1 1.2-.2.9.3 1.8 1.2 2.1.9.2 1.8-.3 2.1-1.2.3-.9-.3-1.9-1.2-2.1m3.9 1.1c-.9-.2-1.8.3-2 1.2-.2.9.3 1.8 1.2 2 .9.2 1.8-.3 2-1.2.2-.9-.3-1.8-1.2-2m3.8 1.1c-.9-.2-1.7.3-2 1.1-.2.9.3 1.7 1.1 2 .9.2 1.7-.3 2-1.1.3-.9-.2-1.8-1.1-2m3.9 1.1c-.8-.2-1.7.3-1.9 1.1-.2.8.3 1.7 1.1 1.9.8.2 1.7-.3 1.9-1.1.2-.9-.3-1.7-1.1-1.9m3.8 1.1c-.8-.2-1.6.3-1.8 1-.2.8.3 1.6 1 1.8.8.2 1.6-.3 1.8-1 .2-.8-.2-1.6-1-1.8m3.9 1.1c-.7-.2-1.5.2-1.7 1-.2.7.2 1.5 1 1.7.7.2 1.5-.2 1.7-1 .1-.8-.3-1.5-1-1.7m3.8 1.1c-.7-.2-1.4.2-1.6.9-.2.7.2 1.4.9 1.6.7.2 1.4-.2 1.6-.9.2-.7-.2-1.4-.9-1.6m3.8 1.1c-.6-.2-1.3.2-1.5.8-.2.6.2 1.3.8 1.5.6.2 1.3-.2 1.5-.8.2-.6-.1-1.3-.8-1.5m3.9 1.2c-.6-.1-1.1.2-1.3.7-.2.6.2 1.1.7 1.3.6.2 1.1-.2 1.3-.7.2-.6-.2-1.1-.7-1.3m3.8 1.2c-.5-.1-1 .2-1.1.7-.1.5.2 1 .7 1.1s1-.2 1.1-.7c.1-.5-.2-1-.7-1.1m3.8 1.1c-.4-.1-.9.1-1 .6s.1.9.6 1c.4.1.9-.1 1-.6.1-.4-.1-.9-.6-1m3.8 1.2c-.3-.1-.7.1-.8.5s.1.7.5.8c.3.1.7-.1.8-.5.1-.3-.1-.7-.5-.8m3.9 1.2c-.3-.1-.5.1-.6.3-.1.3.1.5.3.6.3.1.5-.1.6-.3.1-.3-.1-.5-.3-.6m3.8 1.2c-.2 0-.3.1-.4.2 0 .2.1.3.2.4.2 0 .3-.1.4-.2s-.1-.3-.2-.4m3.8 1.2c-.1 0-.1 0-.1.1s0 .1.1.1.1 0 .1-.1c0 0 0-.1-.1-.1M13-30.1s0 .1 0 0c.1.1.1.1 0 0 .1 0 .1 0 0 0 .1 0 0 0 0 0m4 .8c-.1 0-.2 0-.3.2 0 .1 0 .2.2.3.1 0 .2 0 .3-.2 0-.1-.1-.2-.2-.3m3.9.9c-.2-.1-.4.1-.5.3-.1.2.1.4.3.5.2.1.4-.1.5-.3 0-.2-.1-.4-.3-.5m3.9.9c-.3-.1-.6.1-.7.4-.1.3.1.6.4.7.3.1.6-.1.7-.4.1-.3-.1-.6-.4-.7m3.9.9c-.4-.1-.8.1-.9.5-.1.4.1.8.5.9.4.1.8-.1.9-.5.1-.4-.1-.8-.5-.9m3.9.8c-.5-.1-1 .2-1.1.6-.1.5.2 1 .6 1.1.5.1 1-.2 1.1-.6.2-.4-.1-.9-.6-1.1m3.9.9c-.5-.1-1.1.2-1.2.7-.1.5.2 1.1.7 1.2.5.1 1.1-.2 1.2-.7.2-.4-.1-1-.7-1.2m3.9 1c-.6-.2-1.2.2-1.4.8-.2.6.2 1.2.8 1.4.6.2 1.2-.2 1.4-.8.2-.6-.2-1.3-.8-1.4m3.9.9c-.7-.2-1.4.2-1.5.9-.2.7.2 1.4.9 1.5.7.2 1.4-.2 1.5-.9.2-.6-.2-1.3-.9-1.5m3.9.9c-.7-.2-1.5.2-1.7 1s.2 1.5 1 1.7 1.5-.2 1.7-1c.2-.7-.3-1.5-1-1.7m3.9 1c-.8-.2-1.6.3-1.8 1-.2.8.3 1.6 1 1.8.8.2 1.6-.3 1.8-1 .2-.8-.2-1.6-1-1.8m3.9.9c-.8-.2-1.7.3-1.9 1.1-.2.8.3 1.7 1.1 1.9.8.2 1.7-.3 1.9-1.1.2-.8-.3-1.7-1.1-1.9m3.9 1c-.9-.2-1.8.3-2 1.2-.2.9.3 1.8 1.2 2 .9.2 1.8-.3 2-1.2.1-.9-.4-1.8-1.2-2m3.8.9c-.9-.2-1.8.3-2.1 1.2-.2.9.3 1.8 1.2 2.1.9.2 1.8-.3 2.1-1.2.3-.9-.3-1.8-1.2-2.1m3.9 1c-.9-.2-1.9.3-2.1 1.2-.2.9.3 1.9 1.2 2.1.9.2 1.9-.3 2.1-1.2s-.3-1.8-1.2-2.1m3.9 1c-1-.3-1.9.3-2.2 1.3-.3 1 .3 1.9 1.3 2.2 1 .3 1.9-.3 2.2-1.3.2-1-.4-1.9-1.3-2.2m3.9 1c-1-.3-2 .3-2.2 1.3-.3 1 .3 2 1.3 2.2 1 .3 2-.3 2.2-1.3.2-.9-.4-1.9-1.3-2.2m3.8 1c-1-.3-2 .3-2.3 1.3-.3 1 .3 2 1.3 2.3 1 .3 2-.3 2.3-1.3.3-1-.3-2-1.3-2.3m3.9 1.1c-1-.3-2 .3-2.3 1.3-.3 1 .3 2 1.3 2.3 1 .3 2-.3 2.3-1.3.3-1.1-.3-2.1-1.3-2.3m3.9 1c-1-.3-2 .3-2.2 1.3-.3 1 .3 2 1.3 2.2 1 .3 2-.3 2.2-1.3.2-.9-.4-1.9-1.3-2.2m3.8 1.1c-1-.3-1.9.3-2.2 1.3-.3 1 .3 1.9 1.3 2.2 1 .3 1.9-.3 2.2-1.3.2-1-.3-2-1.3-2.2m3.9 1.1c-.9-.2-1.9.3-2.1 1.2-.2.9.3 1.9 1.2 2.1.9.2 1.9-.3 2.1-1.2s-.3-1.9-1.2-2.1m3.8 1.1c-.9-.2-1.8.3-2.1 1.2-.2.9.3 1.8 1.2 2.1.9.2 1.8-.3 2.1-1.2.2-1-.3-1.9-1.2-2.1m3.9 1.1c-.9-.2-1.7.3-2 1.1-.2.9.3 1.7 1.1 2 .9.2 1.7-.3 2-1.1.2-.9-.3-1.8-1.1-2m3.8 1.1c-.8-.2-1.7.3-1.9 1.1-.2.8.3 1.7 1.1 1.9.8.2 1.7-.3 1.9-1.1.2-.9-.3-1.7-1.1-1.9m3.8 1.1c-.8-.2-1.6.3-1.8 1-.2.8.3 1.6 1 1.8.8.2 1.6-.3 1.8-1 .3-.8-.2-1.6-1-1.8m3.9 1.1c-.7-.2-1.5.2-1.7 1-.2.7.2 1.5 1 1.7.7.2 1.5-.2 1.7-1 .1-.7-.3-1.5-1-1.7m3.8 1.1c-.7-.2-1.4.2-1.5.9-.2.7.2 1.4.9 1.5.7.2 1.4-.2 1.5-.9.2-.6-.2-1.3-.9-1.5m3.9 1.2c-.6-.2-1.2.2-1.4.8s.2 1.2.8 1.4c.6.2 1.2-.2 1.4-.8.1-.6-.2-1.3-.8-1.4m3.8 1.2c-.5-.1-1.1.2-1.2.7-.1.5.2 1.1.7 1.2.5.1 1.1-.2 1.2-.7.1-.5-.2-1.1-.7-1.2m3.8 1.1c-.5-.1-.9.2-1.1.6-.1.5.2.9.6 1.1.5.1.9-.1 1.1-.6.1-.5-.1-1-.6-1.1m3.8 1.2c-.4-.1-.8.1-.9.5-.1.4.1.8.5.9.4.1.8-.1.9-.5.1-.4-.1-.8-.5-.9m3.9 1.2c-.3-.1-.6.1-.7.4-.1.3.1.6.4.7.3.1.6-.1.7-.4 0-.3-.2-.6-.4-.7m3.8 1.2c-.2-.1-.4.1-.5.3-.1.2.1.4.3.5.2.1.4-.1.5-.3 0-.2-.1-.4-.3-.5m3.8 1.2c-.1 0-.2 0-.2.1s0 .2.1.2.2 0 .2-.1 0-.2-.1-.2m-265-62.2c-.1 0 0 .1 0 0 .1.1.1.1.1 0 0 0 0-.1-.1 0 0-.1 0-.1 0 0M16-25.4c-.1 0-.3 0-.3.2s0 .3.2.3c.1 0 .3 0 .3-.2 0-.1-.1-.3-.2-.3m3.9.8c-.2-.1-.5.1-.6.3-.1.2.1.5.3.6.2.1.5-.1.6-.3.1-.3-.1-.5-.3-.6m3.9.9c-.3-.1-.7.1-.8.4-.1.3.1.7.4.8.3.1.7-.1.8-.4.1-.4-.1-.7-.4-.8m3.9.9c-.4-.1-.9.1-1 .6-.1.4.1.9.6 1 .4.1.9-.1 1-.6.1-.5-.2-.9-.6-1m3.9.9c-.5-.1-1 .2-1.1.7s.2 1 .7 1.1c.5.1 1-.2 1.1-.7.1-.5-.2-1-.7-1.1m3.9.9c-.6-.2-1.2.2-1.3.8-.2.6.2 1.2.8 1.3.6.2 1.2-.2 1.3-.8.1-.6-.2-1.2-.8-1.3m3.9.9c-.6-.2-1.3.2-1.5.9-.2.6.2 1.3.9 1.5.6.2 1.3-.2 1.5-.9.1-.7-.3-1.4-.9-1.5m3.9.9c-.7-.2-1.4.2-1.6.9-.2.7.2 1.4.9 1.6.7.2 1.4-.2 1.6-.9.2-.7-.2-1.4-.9-1.6m3.9.9c-.8-.2-1.5.2-1.7 1-.2.8.2 1.5 1 1.7.8.2 1.5-.2 1.7-1 .2-.7-.3-1.5-1-1.7m3.9 1c-.8-.2-1.6.3-1.9 1.1-.2.8.3 1.6 1.1 1.9.8.2 1.6-.3 1.9-1.1.2-.9-.3-1.7-1.1-1.9m3.8.9c-.9-.2-1.7.3-2 1.1-.2.9.3 1.7 1.1 2 .9.2 1.7-.3 2-1.1.3-.9-.2-1.8-1.1-2m3.9 1c-.9-.2-1.8.3-2.1 1.2-.2.9.3 1.8 1.2 2.1.9.2 1.8-.3 2.1-1.2.3-1-.3-1.9-1.2-2.1m3.9.9c-.9-.3-1.9.3-2.2 1.3-.3.9.3 1.9 1.3 2.2.9.3 1.9-.3 2.2-1.3.2-.9-.3-1.9-1.3-2.2m3.9 1c-1-.3-2 .3-2.2 1.3-.3 1 .3 2 1.3 2.2 1 .3 2-.3 2.2-1.3.3-.9-.3-1.9-1.3-2.2m3.9 1c-1-.3-2.1.3-2.3 1.3-.3 1 .3 2.1 1.3 2.3 1 .3 2.1-.3 2.3-1.3.3-1-.3-2.1-1.3-2.3m3.9 1c-1-.3-2.1.3-2.4 1.4-.3 1 .3 2.1 1.4 2.4 1 .3 2.1-.3 2.4-1.4.2-1.1-.4-2.1-1.4-2.4" class="alt-bg-st1"/>
  <path d="M78.2-10.5c-1-.3-2.1.3-2.4 1.4-.3 1 .3 2.1 1.4 2.4 1 .3 2.1-.3 2.4-1.4.3-1.1-.3-2.1-1.4-2.4m3.9 1c-1-.3-2.1.3-2.4 1.4-.3 1 .3 2.1 1.4 2.4 1 .3 2.1-.3 2.4-1.4.2-1-.4-2.1-1.4-2.4m3.8 1.1c-1-.3-2.1.3-2.4 1.4-.3 1 .3 2.1 1.4 2.4 1.1.2 2.1-.4 2.4-1.5.3-1-.3-2-1.4-2.3m3.9 1.1c-1-.3-2 .3-2.3 1.3-.3 1 .3 2 1.3 2.3 1 .3 2-.3 2.3-1.3.3-1-.3-2.1-1.3-2.3m3.8 1c-1-.3-2 .3-2.2 1.3-.3 1 .3 2 1.3 2.2 1 .3 2-.3 2.2-1.3.3-.9-.3-1.9-1.3-2.2m3.9 1.1c-.9-.3-1.9.3-2.2 1.2-.2 1 .3 2 1.3 2.3.9.3 1.9-.3 2.2-1.2.2-1-.4-2-1.3-2.3m3.8 1.2c-.9-.2-1.8.3-2.1 1.2-.2.8.4 1.8 1.3 2 .9.2 1.8-.3 2.1-1.2.2-.9-.4-1.8-1.3-2m3.9 1.1c-.9-.2-1.7.3-2 1.1-.2.9.3 1.7 1.1 2s1.7-.3 2-1.1c.2-.9-.3-1.8-1.1-2m3.8 1.1c-.8-.2-1.6.3-1.8 1.1-.2.8.3 1.6 1.1 1.8.8.2 1.6-.3 1.8-1.1.2-.8-.3-1.6-1.1-1.8m3.9 1.1c-.8-.2-1.5.2-1.7 1-.2.8.2 1.5 1 1.7.8.2 1.5-.2 1.7-1 .2-.7-.3-1.5-1-1.7m3.8 1.2c-.7-.2-1.4.2-1.6.9-.2.7.2 1.4.9 1.6.7.2 1.4-.2 1.6-.9.2-.7-.2-1.4-.9-1.6m3.8 1.1c-.6-.2-1.3.2-1.5.8s.2 1.3.8 1.5c.6.2 1.3-.2 1.5-.8.2-.7-.1-1.3-.8-1.5m3.9 1.2c-.6-.1-1.1.2-1.3.7-.2.6.2 1.1.7 1.3.6.2 1.1-.2 1.3-.7.2-.6-.2-1.2-.7-1.3m3.8 1.1c-.5-.1-1 .2-1.1.7-.1.5.2 1 .7 1.1.5.1 1-.2 1.1-.7.1-.4-.2-.9-.7-1.1m3.8 1.2c-.4-.1-.8.1-1 .5-.1.4.1.8.5 1 .4.1.8-.1 1-.5.2-.5-.1-.9-.5-1m3.8 1.2c-.3-.1-.7.1-.8.4-.1.3.1.7.4.8.3.1.7-.1.8-.4.2-.4 0-.7-.4-.8m3.8 1.2c-.2-.1-.5.1-.5.3-.1.2.1.5.3.5.2.1.5-.1.5-.3.1-.2 0-.4-.3-.5m3.9 1.2c-.1 0-.3 0-.3.2 0 .1 0 .3.2.3.1 0 .3 0 .3-.2 0-.1-.1-.2-.2-.3m3.7 1.3c.1.1.1.1.1 0 0 0 0-.1-.1 0 .1-.1 0-.1 0 0M11-22.5c-.1 0-.1 0-.1.1s0 .1.1.1.1 0 .1-.1l-.1-.1m3.9.9c-.2 0-.3.1-.4.2 0 .2.1.3.2.4.2 0 .3-.1.4-.2.1-.2 0-.4-.2-.4m4 .8c-.3-.1-.5.1-.6.4-.1.3.1.5.4.6.3.1.5-.1.6-.4 0-.2-.2-.5-.4-.6m3.9.9c-.4-.1-.7.1-.8.5-.1.4.1.7.5.8s.7-.1.8-.5c0-.3-.2-.7-.5-.8m3.9.9c-.4-.1-.9.1-1 .6-.1.4.1.9.6 1 .4.1.9-.1 1-.6.1-.4-.2-.9-.6-1m3.9.9c-.5-.1-1.1.2-1.2.7-.1.5.2 1.1.7 1.2.5.1 1.1-.2 1.2-.7.1-.5-.2-1.1-.7-1.2m3.9.9c-.6-.2-1.2.2-1.4.8-.2.6.2 1.2.8 1.4s1.2-.2 1.4-.8c.1-.6-.2-1.3-.8-1.4m3.9.9c-.7-.2-1.4.2-1.5.9-.2.7.2 1.4.9 1.5.7.2 1.4-.2 1.5-.9.1-.6-.3-1.3-.9-1.5m3.9.9c-.7-.2-1.5.2-1.7 1s.2 1.5 1 1.7 1.5-.2 1.7-1c.1-.7-.3-1.5-1-1.7m3.9 1c-.8-.2-1.6.3-1.8 1-.2.8.3 1.6 1 1.8.8.2 1.6-.3 1.8-1 .2-.8-.3-1.6-1-1.8m3.8.9c-.8-.2-1.7.3-1.9 1.1-.2.8.3 1.7 1.1 1.9.8.2 1.7-.3 1.9-1.1.3-.8-.2-1.7-1.1-1.9m3.9.9c-.9-.2-1.8.3-2 1.2-.2.9.3 1.8 1.2 2 .9.2 1.8-.3 2-1.2.2-.8-.3-1.7-1.2-2m3.9 1c-.9-.2-1.9.3-2.1 1.2-.2.9.3 1.9 1.2 2.1.9.2 1.9-.3 2.1-1.2.3-.9-.2-1.9-1.2-2.1m3.9.9c-1-.3-2 .3-2.2 1.3-.3 1 .3 2 1.3 2.2 1 .3 2-.3 2.2-1.3.3-.9-.3-1.9-1.3-2.2m3.9 1c-1-.3-2.1.3-2.3 1.4-.3 1 .3 2.1 1.3 2.3 1 .3 2.1-.3 2.3-1.3.3-1.1-.3-2.1-1.3-2.4m3.9 1c-1.1-.3-2.2.3-2.5 1.4-.3 1.1.3 2.1 1.4 2.4 1.1.3 2.1-.3 2.4-1.4.4-1.1-.3-2.2-1.3-2.4" class="alt-bg-st1"/>
  <path d="M73.3-7.7c-1.1-.3-2.2.4-2.5 1.4-.3 1.1.4 2.2 1.4 2.5 1.1.3 2.2-.4 2.5-1.4.4-1.1-.3-2.3-1.4-2.5" class="alt-bg-st1"/>
  <path d="M77.2-6.8c-1.1-.2-2.2.4-2.5 1.5-.3 1.1.4 2.2 1.5 2.5 1.1.3 2.2-.4 2.5-1.5.3-1-.4-2.2-1.5-2.5" class="alt-bg-st1"/>
  <path d="M81.1-5.7c-1.1-.3-2.3.3-2.5 1.4-.3 1.1.3 2.3 1.4 2.6 1.1.3 2.2-.4 2.5-1.5.3-1.1-.3-2.2-1.4-2.5" class="alt-bg-st1"/>
  <path d="M84.9-4.6c-1.1-.3-2.2.4-2.5 1.4-.3 1.1.4 2.2 1.4 2.5 1.1.3 2.2-.4 2.5-1.4.4-1.1-.3-2.3-1.4-2.5m3.9 1c-1.1-.3-2.1.3-2.4 1.4-.3 1.1.3 2.1 1.4 2.4 1.1.3 2.1-.3 2.4-1.4.3-1-.4-2.1-1.4-2.4m3.8 1.1c-1-.3-2.1.3-2.3 1.4-.3 1 .3 2.1 1.4 2.3 1 .3 2.1-.3 2.3-1.3.3-1-.3-2.1-1.4-2.4m3.9 1.1c-1-.3-2 .3-2.2 1.3-.3 1 .3 2 1.3 2.2 1 .3 2-.3 2.2-1.3.2-.9-.3-1.9-1.3-2.2m3.8 1.2c-.9-.2-1.9.3-2.1 1.2-.2.9.3 1.9 1.2 2.1.9.2 1.9-.3 2.1-1.2.3-.9-.3-1.9-1.2-2.1m3.9 1.1c-.9-.2-1.8.3-2 1.2s.3 1.8 1.2 2c.9.2 1.8-.3 2-1.2.2-.9-.4-1.8-1.2-2M108 2c-.8-.2-1.7.3-1.9 1.1-.2.8.3 1.7 1.1 1.9.8.2 1.7-.3 1.9-1.1.2-.8-.3-1.7-1.1-1.9m3.8 1.1c-.8-.2-1.6.3-1.8 1-.2.8.3 1.6 1 1.8.8.2 1.6-.3 1.8-1 .3-.7-.2-1.5-1-1.8m3.9 1.2c-.7-.2-1.5.2-1.7 1s.2 1.5 1 1.7c.7.2 1.5-.2 1.7-1 .1-.8-.3-1.5-1-1.7m3.8 1.1c-.7-.2-1.3.2-1.5.9-.2.7.2 1.3.9 1.5.7.2 1.3-.2 1.5-.9.2-.6-.2-1.3-.9-1.5m3.8 1.2c-.6-.2-1.2.2-1.4.8-.2.6.2 1.2.8 1.4.6.2 1.2-.2 1.4-.8.2-.7-.2-1.3-.8-1.4m3.9 1.1c-.5-.1-1.1.2-1.2.7-.1.5.2 1.1.7 1.2.5.1 1.1-.2 1.2-.7.1-.5-.2-1-.7-1.2m3.8 1.2c-.4-.1-.9.1-1 .6-.1.4.1.9.6 1 .4.1.9-.1 1-.6.1-.4-.2-.8-.6-1m3.8 1.2c-.3-.1-.7.1-.8.5s.1.7.5.8c.3.1.7-.1.8-.5.1-.3-.1-.7-.5-.8m3.8 1.2c-.3-.1-.5.1-.6.3-.1.3.1.5.3.6.3.1.5-.1.6-.3.1-.2 0-.5-.3-.6m3.8 1.2c-.2 0-.3.1-.4.2 0 .2.1.3.2.4.2 0 .3 0 .4-.2.1-.2 0-.3-.2-.4m3.9 1.3c-.1 0-.1 0-.1.1s0 .1.1.1.1 0 .1-.1-.1-.1-.1-.1M10-18.6c-.1 0-.2 0-.2.1s0 .2.1.2.2 0 .2-.1 0-.2-.1-.2m3.9.8c-.2 0-.4.1-.4.2 0 .2.1.4.2.4.2 0 .4-.1.4-.2.1-.1 0-.3-.2-.4m3.9.9c-.3-.1-.6.1-.7.4-.1.3.1.6.4.7.3.1.6-.1.7-.4.1-.4-.1-.6-.4-.7m3.9.8c-.4-.1-.8.1-.9.5-.1.4.1.8.5.9.4.1.8-.1.9-.5.1-.4-.1-.8-.5-.9m3.9.9c-.5-.1-.9.2-1.1.6-.1.5.2.9.6 1.1.5.1.9-.2 1.1-.6.2-.5-.1-1-.6-1.1m3.9.9c-.5-.1-1.1.2-1.2.7-.1.5.2 1.1.7 1.2.5.1 1.1-.2 1.2-.7.2-.5-.1-1-.7-1.2m3.9.9c-.6-.2-1.2.2-1.4.8-.2.6.2 1.2.8 1.4.6.2 1.2-.2 1.4-.8.2-.6-.1-1.2-.8-1.4m3.9.9c-.7-.2-1.4.2-1.6.9-.2.7.2 1.4.9 1.6.7.2 1.4-.2 1.6-.9.2-.7-.2-1.4-.9-1.6m3.9.9c-.7-.2-1.5.2-1.7 1-.2.7.2 1.5 1 1.7.7.2 1.5-.2 1.7-1 .2-.7-.2-1.5-1-1.7m3.9 1c-.8-.2-1.6.3-1.8 1.1-.2.8.3 1.6 1.1 1.8.8.2 1.6-.3 1.8-1.1.2-.8-.3-1.6-1.1-1.8m3.9.9c-.9-.2-1.7.3-2 1.1-.2.9.3 1.7 1.1 2 .9.2 1.7-.3 2-1.1.3-.9-.2-1.8-1.1-2m3.9.9c-.9-.2-1.8.3-2.1 1.3-.2.9.3 1.8 1.2 2.1.9.2 1.8-.3 2.1-1.2.3-1-.3-1.9-1.2-2.2m3.9 1c-1-.3-1.9.3-2.2 1.3-.3 1 .3 1.9 1.3 2.2 1 .3 1.9-.3 2.2-1.3.2-1-.3-1.9-1.3-2.2m3.9.9c-1-.3-2.1.3-2.3 1.3-.3 1 .3 2.1 1.3 2.3 1 .3 2.1-.3 2.3-1.3.3-1-.3-2-1.3-2.3m3.9 1c-1.1-.3-2.1.3-2.4 1.4-.3 1.1.3 2.1 1.4 2.4 1.1.3 2.1-.3 2.4-1.4.3-1-.4-2.1-1.4-2.4" class="alt-bg-st1"/>
  <path d="M68.5-5c-1.1-.3-2.2.4-2.5 1.5-.3 1.1.4 2.2 1.5 2.5 1.1.3 2.2-.4 2.5-1.5.2-1-.4-2.2-1.5-2.5" class="alt-bg-st1"/>
  <path d="M72.3-4c-1.1-.3-2.3.4-2.6 1.5-.3 1.1.4 2.3 1.5 2.6s2.3-.4 2.6-1.5-.3-2.3-1.5-2.6" class="alt-bg-st1"/>
  <path d="M76.2-3c-1.2-.3-2.4.4-2.7 1.5-.3 1.2.4 2.4 1.5 2.7 1.2.3 2.4-.4 2.7-1.5.4-1.2-.3-2.4-1.5-2.7" class="alt-bg-st1"/>
  <path d="M80.1-2c-1.2-.3-2.3.4-2.6 1.5-.3 1.2.4 2.3 1.5 2.6 1.2.3 2.3-.4 2.6-1.5.3-1.1-.4-2.2-1.5-2.6" class="alt-bg-st1"/>
  <path d="M83.9-.9c-1.1-.3-2.3.4-2.6 1.5-.3 1.1.4 2.3 1.5 2.6 1.1.3 2.3-.4 2.6-1.5.3-1.1-.3-2.3-1.5-2.6" class="alt-bg-st1"/>
  <path d="M87.8.2c-1.1-.3-2.2.4-2.5 1.5-.3 1.1.4 2.2 1.5 2.5 1.1.3 2.2-.4 2.5-1.5.2-1.1-.4-2.2-1.5-2.5" class="alt-bg-st1"/>
  <path d="M91.6 1.3c-1-.3-2.1.3-2.4 1.4-.3 1 .3 2.1 1.4 2.4 1 .3 2.1-.3 2.4-1.4.3-1-.3-2.1-1.4-2.4m3.9 1.2c-1-.3-2 .3-2.3 1.3-.3 1 .3 2 1.3 2.3 1 .3 2-.3 2.3-1.3.3-1-.3-2.1-1.3-2.3m3.8 1.1c-1-.3-1.9.3-2.2 1.3-.3 1 .3 1.9 1.3 2.2 1 .3 1.9-.3 2.2-1.3.2-1-.4-2-1.3-2.2m3.8 1.1c-.9-.2-1.8.3-2.1 1.2-.2.9.3 1.8 1.2 2.1.9.2 1.8-.3 2.1-1.2.3-.9-.3-1.9-1.2-2.1m3.9 1.1c-.9-.2-1.7.3-2 1.1-.2.9.3 1.7 1.1 2 .9.2 1.7-.3 2-1.1.2-.9-.3-1.7-1.1-2m3.8 1.2c-.8-.2-1.6.2-1.8 1-.2.8.3 1.6 1.1 1.8.8.2 1.6-.3 1.8-1.1.2-.7-.3-1.5-1.1-1.7m3.8 1.1c-.7-.2-1.5.2-1.7 1-.2.7.2 1.5 1 1.7.7.2 1.5-.2 1.7-1 .2-.7-.2-1.5-1-1.7m3.9 1.1c-.7-.2-1.4.2-1.6.9-.2.7.2 1.4.9 1.6.7.2 1.4-.2 1.6-.9.2-.7-.2-1.4-.9-1.6m3.8 1.2c-.6-.2-1.2.2-1.4.8-.2.6.2 1.2.8 1.4.6.2 1.2-.2 1.4-.8.2-.6-.2-1.2-.8-1.4m3.8 1.2c-.5-.1-1.1.2-1.2.7-.1.5.2 1.1.7 1.2.5.1 1.1-.2 1.2-.7.2-.5-.1-1.1-.7-1.2m3.9 1.2c-.5-.1-.9.1-1 .6-.1.5.1.9.6 1 .5.1.9-.1 1-.6.1-.4-.2-.9-.6-1m3.8 1.2c-.4-.1-.7.1-.8.5-.1.4.1.7.5.8.4.1.7-.1.8-.5.1-.4-.1-.7-.5-.8m3.8 1.2c-.3-.1-.6.1-.6.4-.1.3.1.6.4.6.3.1.6-.1.6-.4 0-.3-.1-.6-.4-.6m3.8 1.2c-.2 0-.4.1-.4.2 0 .2.1.4.2.4.2 0 .4-.1.4-.2.1-.2 0-.4-.2-.4m3.8 1.2c-.1 0-.2 0-.2.1s0 .2.1.2.2 0 .2-.1c.1-.1 0-.2-.1-.2M9-14.8c-.1 0-.2 0-.2.1s0 .2.1.2.2 0 .2-.1 0-.2-.1-.2m3.9.9c-.2-.1-.4.1-.5.3-.1.2.1.4.3.5s.4-.1.5-.3c0-.3-.1-.5-.3-.5m3.9.8c-.3-.1-.6.1-.7.4-.1.3.1.6.4.7.3.1.6-.1.7-.4.1-.3-.1-.6-.4-.7m3.9.9c-.4-.1-.8.1-.9.5-.1.4.1.8.5.9.4.1.8-.1.9-.5.1-.4-.1-.8-.5-.9m3.9.9c-.5-.1-1 .2-1.1.6-.1.5.2 1 .6 1.1.5.1 1-.2 1.1-.6.2-.5-.1-1-.6-1.1m3.9.8c-.6-.1-1.1.2-1.3.7-.1.6.2 1.1.7 1.3.6.1 1.1-.2 1.3-.7s-.1-1.1-.7-1.3m3.9.9c-.6-.2-1.3.2-1.5.8-.2.6.2 1.3.8 1.5.6.2 1.3-.2 1.5-.8.2-.6-.1-1.3-.8-1.5m3.9 1c-.7-.2-1.4.2-1.6.9-.2.7.2 1.4.9 1.6s1.4-.2 1.6-.9c.2-.7-.2-1.4-.9-1.6m3.9.9c-.8-.2-1.5.2-1.7 1-.2.8.2 1.5 1 1.7.8.2 1.5-.2 1.7-1 .2-.7-.2-1.5-1-1.7m3.9.9c-.8-.2-1.7.3-1.9 1.1-.2.8.3 1.7 1.1 1.9.8.2 1.7-.3 1.9-1.1.2-.8-.3-1.7-1.1-1.9m3.9 1c-.9-.2-1.8.3-2 1.2-.2.9.3 1.8 1.2 2 .9.2 1.8-.3 2-1.2.2-.9-.3-1.8-1.2-2m3.9.9c-.9-.3-1.9.3-2.2 1.2-.2.9.3 1.9 1.2 2.1.9.2 1.9-.3 2.1-1.2.4-.9-.2-1.9-1.1-2.1m3.9.9c-1-.3-2 .3-2.2 1.3-.3 1 .3 2 1.3 2.2 1 .3 2-.3 2.2-1.3.2-.9-.4-1.9-1.3-2.2m3.9 1c-1-.3-2.1.3-2.4 1.4-.3 1 .3 2.1 1.4 2.4 1 .3 2.1-.3 2.4-1.4.2-1.1-.4-2.2-1.4-2.4" class="alt-bg-st1"/>
  <path d="M63.5-2.1c-1.1-.3-2.2.4-2.5 1.4-.3 1.1.4 2.2 1.4 2.5 1.1.3 2.2-.4 2.5-1.4.4-1.1-.3-2.2-1.4-2.5" class="alt-bg-st1"/>
  <path d="M67.4-1.2c-1.1-.3-2.3.4-2.6 1.5-.3 1.1.4 2.3 1.5 2.6 1.1.3 2.3-.4 2.6-1.5.3-1.1-.3-2.3-1.5-2.6" class="alt-bg-st1"/>
  <path d="M71.3-.2c-1.2-.3-2.4.4-2.7 1.6-.3 1.2.4 2.4 1.6 2.7 1.2.3 2.4-.4 2.7-1.6.3-1.2-.4-2.4-1.6-2.7" class="alt-bg-st1"/>
  <path d="M75.2.8c-1.2-.3-2.5.4-2.8 1.6-.3 1.2.4 2.5 1.6 2.8 1.2.3 2.5-.4 2.8-1.6.3-1.3-.4-2.5-1.6-2.8" class="alt-bg-st1"/>
  <path d="M79.1 1.8c-1.2-.3-2.5.4-2.8 1.6-.3 1.2.4 2.5 1.6 2.8 1.2.3 2.5-.4 2.8-1.6.3-1.2-.4-2.5-1.6-2.8" class="alt-bg-st1"/>
  <path d="M82.9 2.9c-1.2-.3-2.4.4-2.7 1.6-.3 1.2.4 2.4 1.6 2.7 1.2.3 2.4-.4 2.7-1.6.3-1.2-.4-2.4-1.6-2.7" class="alt-bg-st1"/>
  <path d="M86.8 4c-1.1-.3-2.3.4-2.6 1.5-.3 1.1.4 2.3 1.5 2.6 1.1.3 2.3-.4 2.6-1.5.3-1.1-.4-2.3-1.5-2.6" class="alt-bg-st1"/>
  <path d="M90.6 5.2c-1.1-.3-2.2.4-2.5 1.4-.3 1.1.4 2.2 1.4 2.5 1.1.3 2.2-.4 2.5-1.4.3-1.1-.3-2.3-1.4-2.5" class="alt-bg-st1"/>
  <path d="M94.4 6.3c-1-.3-2.1.3-2.4 1.4-.3 1 .3 2.1 1.4 2.4 1 .3 2.1-.3 2.3-1.4.4-1.1-.2-2.1-1.3-2.4m3.9 1.1c-1-.3-2 .3-2.2 1.3-.3 1 .3 2 1.3 2.2 1 .3 2-.3 2.2-1.3.2-.9-.4-1.9-1.3-2.2m3.8 1.1c-.9-.2-1.9.3-2.1 1.2-.2.9.3 1.9 1.2 2.1.9.2 1.9-.3 2.1-1.2.3-.9-.3-1.8-1.2-2.1m3.8 1.2c-.9-.2-1.8.3-2 1.2-.2.9.3 1.8 1.2 2 .9.2 1.8-.3 2-1.2.2-.9-.3-1.8-1.2-2m3.9 1.1c-.8-.2-1.6.3-1.9 1.1-.2.8.3 1.6 1.1 1.9.8.2 1.6-.3 1.9-1.1.2-.8-.3-1.7-1.1-1.9m3.8 1.2c-.7-.2-1.5.2-1.7 1-.2.7.2 1.5 1 1.7.7.2 1.5-.2 1.7-1 .2-.8-.2-1.5-1-1.7m3.9 1.1c-.7-.2-1.4.2-1.6.9-.2.7.2 1.4.9 1.6.7.2 1.4-.2 1.6-.9.1-.7-.3-1.4-.9-1.6m3.8 1.2c-.6-.2-1.3.2-1.4.8-.2.6.2 1.3.8 1.4.6.2 1.3-.2 1.4-.8.2-.6-.2-1.3-.8-1.4m3.8 1.1c-.5-.1-1.1.2-1.2.7-.1.5.2 1.1.7 1.2.5.1 1.1-.2 1.2-.7.2-.5-.1-1-.7-1.2m3.8 1.2c-.5-.1-1 .2-1.1.6-.1.5.2 1 .6 1.1.5.1 1-.2 1.1-.6.2-.5-.1-1-.6-1.1m3.9 1.2c-.4-.1-.8.1-.9.5-.1.4.1.8.5.9.4.1.8-.1.9-.5.1-.4-.2-.8-.5-.9m3.8 1.2c-.3-.1-.6.1-.7.4-.1.3.1.6.4.7.3.1.6-.1.7-.4 0-.3-.1-.6-.4-.7m3.8 1.2c-.2 0-.4.1-.4.2 0 .2.1.4.2.4.2 0 .4-.1.4-.2.1-.1 0-.3-.2-.4m3.8 1.2c-.1 0-.2 0-.2.1s0 .2.1.2.2 0 .2-.1c.1-.1 0-.2-.1-.2M7.9-10.9c-.1 0-.2 0-.2.1s0 .2.1.2.2 0 .2-.1c.1-.1 0-.2-.1-.2m4 .8c-.2-.1-.4.1-.5.3-.1.2.1.4.3.5.2.1.4-.1.5-.3 0-.2-.1-.4-.3-.5m3.9.9c-.3-.1-.6.1-.7.4-.1.3.1.6.4.7.3.1.6-.1.7-.4 0-.3-.1-.6-.4-.7m3.9.8c-.4-.1-.8.1-.9.5-.1.4.1.8.5.9.4.1.8-.1.9-.5.1-.4-.1-.8-.5-.9m3.9.9c-.5-.1-1 .2-1.1.6-.1.5.2 1 .6 1.1.5.1 1-.2 1.1-.6.2-.5-.1-1-.6-1.1m3.9.9c-.6-.2-1.1.2-1.3.7-.1.6.2 1.1.7 1.3.6.1 1.1-.2 1.3-.7.2-.6-.2-1.1-.7-1.3m3.9.9c-.6-.2-1.3.2-1.5.8s.2 1.3.8 1.5c.6.2 1.3-.2 1.5-.8.2-.7-.2-1.3-.8-1.5m3.9.9c-.7-.2-1.4.2-1.6.9-.2.7.2 1.4.9 1.6.7.2 1.4-.2 1.6-.9.2-.7-.2-1.4-.9-1.6m3.9.9c-.8-.2-1.5.2-1.8 1-.2.8.2 1.5 1 1.8.8.2 1.5-.2 1.8-1 .2-.8-.3-1.6-1-1.8m3.9 1c-.8-.2-1.7.3-1.9 1.1-.2.8.2 1.6 1.1 1.8.8.2 1.7-.3 1.9-1.1.2-.8-.3-1.6-1.1-1.8M47-2c-.9-.2-1.8.3-2 1.2s.3 1.8 1.2 2c.9.2 1.8-.3 2-1.2.2-.9-.4-1.8-1.2-2m3.8.9c-.9-.2-1.9.3-2.1 1.2-.2.9.3 1.9 1.2 2.1S51.8 1.9 52 1c.3-.9-.2-1.8-1.2-2.1m3.9 1c-1-.3-2 .3-2.3 1.3-.3 1 .3 2 1.3 2.3 1 .3 2-.3 2.3-1.3.3-1-.3-2.1-1.3-2.3m3.9.9c-1-.3-2.1.3-2.4 1.4-.3 1 .3 2.1 1.4 2.4 1 .3 2.1-.3 2.4-1.4.3-1-.3-2.1-1.4-2.4" class="alt-bg-st1"/>
  <path d="M62.5 1.7c-1.1-.3-2.2.4-2.5 1.5-.3 1.1.4 2.2 1.5 2.5 1.1.3 2.2-.3 2.5-1.4.3-1.1-.4-2.3-1.5-2.6" class="alt-bg-st1"/>
  <path d="M66.4 2.7c-1.2-.3-2.4.4-2.7 1.5-.3 1.2.4 2.4 1.5 2.7 1.2.3 2.4-.4 2.7-1.5.4-1.2-.3-2.4-1.5-2.7" class="alt-bg-st1"/>
  <path d="M70.3 3.6c-1.2-.3-2.5.4-2.8 1.6-.3 1.2.4 2.5 1.6 2.8 1.2.3 2.5-.4 2.8-1.6.4-1.2-.4-2.5-1.6-2.8" class="alt-bg-st1"/>
  <path d="M74.2 4.5c-1.3-.3-2.6.4-2.9 1.7-.3 1.3.4 2.6 1.7 2.9 1.3.3 2.6-.4 2.9-1.7.3-1.2-.4-2.5-1.7-2.9" class="alt-bg-st1"/>
  <path d="M78.1 5.6c-1.3-.3-2.6.4-2.9 1.7-.3 1.3.4 2.6 1.7 2.9 1.3.3 2.6-.4 2.9-1.7.3-1.3-.5-2.6-1.7-2.9" class="alt-bg-st1"/>
  <path d="M81.9 6.7c-1.2-.3-2.5.4-2.8 1.6-.3 1.2.4 2.5 1.6 2.8s2.5-.4 2.8-1.6c.3-1.2-.4-2.5-1.6-2.8" class="alt-bg-st1"/>
  <path d="M85.7 7.9c-1.1-.3-2.3.4-2.6 1.5-.3 1.1.4 2.3 1.5 2.6 1.1.3 2.3-.4 2.6-1.5.4-1.2-.3-2.3-1.5-2.6" class="alt-bg-st1"/>
  <path d="M89.6 9c-1.1-.3-2.2.4-2.5 1.5-.3 1.1.4 2.2 1.5 2.5 1.1.3 2.2-.4 2.5-1.5.2-1.1-.4-2.2-1.5-2.5" class="alt-bg-st1"/>
  <path d="M93.4 10.1c-1-.3-2.1.3-2.4 1.4s.3 2.1 1.4 2.4c1 .3 2.1-.3 2.4-1.4.3-1-.4-2.1-1.4-2.4m3.8 1.2c-1-.3-2 .3-2.3 1.3-.3 1 .3 2 1.3 2.3 1 .3 2-.3 2.3-1.3.3-1.1-.3-2.1-1.3-2.3m3.9 1.1c-.9-.2-1.9.3-2.1 1.2-.2.9.3 1.9 1.2 2.1.9.2 1.9-.3 2.1-1.2.3-.9-.3-1.9-1.2-2.1m3.8 1.1c-.9-.2-1.8.3-2 1.2-.2.9.3 1.8 1.2 2 .9.2 1.8-.3 2-1.2.2-.8-.3-1.7-1.2-2m3.9 1.2c-.8-.2-1.7.3-1.9 1.1-.2.8.3 1.7 1.1 1.9.8.2 1.7-.3 1.9-1.1.2-.9-.3-1.7-1.1-1.9m3.8 1.1c-.8-.2-1.5.2-1.7 1-.2.8.2 1.5 1 1.7.8.2 1.5-.2 1.7-1 .2-.7-.3-1.5-1-1.7m3.8 1.2c-.7-.2-1.4.2-1.6.9-.2.7.2 1.4.9 1.6.7.2 1.4-.2 1.6-.9.2-.7-.2-1.5-.9-1.6m3.9 1.1c-.6-.2-1.3.2-1.4.8-.2.6.2 1.3.8 1.4.6.2 1.3-.2 1.4-.8.2-.6-.2-1.2-.8-1.4m3.8 1.2c-.6-.1-1.1.2-1.3.7-.1.6.2 1.1.7 1.3.6.1 1.1-.2 1.3-.7.2-.6-.2-1.2-.7-1.3m3.8 1.1c-.5-.1-1 .2-1.1.6-.1.5.2 1 .6 1.1.5.1 1-.2 1.1-.6.2-.4-.1-.9-.6-1.1m3.8 1.3c-.4-.1-.8.1-.9.5-.1.4.1.8.5.9.4.1.8-.1.9-.5.1-.5-.1-.8-.5-.9m3.8 1.2c-.3-.1-.6.1-.7.4-.1.3.1.6.4.7.3.1.6-.1.7-.4.1-.4-.1-.7-.4-.7m3.9 1.2c-.2-.1-.4.1-.4.3-.1.2.1.4.3.4.2.1.4-.1.4-.3 0-.2-.1-.4-.3-.4m3.8 1.2c-.1 0-.2 0-.2.1s0 .2.1.2.2 0 .2-.1 0-.2-.1-.2M6.9-7.1c-.1 0-.2 0-.2.1s0 .2.1.2.2 0 .2-.1 0-.1-.1-.2m3.9.9c-.2-.1-.4.1-.5.3-.1.2.1.4.3.5.2.1.4-.1.5-.3.1-.3-.1-.5-.3-.5m3.9.8c-.3-.1-.6.1-.7.4-.1.3.1.6.4.7.3.1.6-.1.7-.4.1-.3-.1-.6-.4-.7m3.9.9c-.4-.1-.8.1-.9.5-.1.4.1.8.5.9.4.1.8-.1.9-.5.2-.4-.1-.8-.5-.9m3.9.9c-.5-.1-1 .2-1.1.6-.1.5.2 1 .6 1.1.5.1 1-.2 1.1-.6.2-.5-.1-1-.6-1.1m4 .9c-.6-.1-1.1.2-1.3.7-.1.6.2 1.1.7 1.3.6.1 1.1-.2 1.3-.7.1-.6-.2-1.2-.7-1.3m3.9.9c-.7-.2-1.3.2-1.5.8s.2 1.3.8 1.5c.6.2 1.3-.2 1.5-.8.2-.7-.2-1.4-.8-1.5m3.8.9c-.7-.2-1.4.2-1.6.9-.2.7.2 1.4.9 1.6.7.2 1.4-.2 1.6-.9.3-.7-.2-1.4-.9-1.6m3.9.9c-.8-.2-1.5.2-1.8 1-.2.8.2 1.5 1 1.8.8.2 1.5-.2 1.8-1 .3-.8-.2-1.6-1-1.8m3.9.9c-.8-.2-1.7.3-1.9 1.1-.2.8.3 1.7 1.1 1.9.8.2 1.7-.3 1.9-1.1.2-.8-.2-1.6-1.1-1.9m3.9 1c-.9-.2-1.8.3-2 1.2s.3 1.8 1.2 2 1.8-.3 2-1.2-.3-1.8-1.2-2m3.9.9c-.9-.2-1.9.3-2.1 1.2-.3 1 .3 1.9 1.2 2.2.9.2 1.9-.3 2.1-1.2.3-1-.2-2-1.2-2.2m3.9.9c-1-.3-2 .3-2.3 1.3-.3 1 .3 2 1.3 2.3 1 .3 2-.3 2.3-1.3.3-1-.3-2-1.3-2.3m3.9 1c-1-.3-2.1.3-2.4 1.4-.3 1 .3 2.1 1.4 2.4 1 .3 2.1-.3 2.4-1.4.3-1.1-.4-2.1-1.4-2.4m3.9.9c-1.1-.3-2.2.4-2.5 1.5-.3 1.1.4 2.2 1.5 2.5 1.1.3 2.2-.4 2.5-1.5.2-1.1-.4-2.2-1.5-2.5" class="alt-bg-st1"/>
  <path d="M65.4 6.5c-1.2-.3-2.3.4-2.6 1.5-.3 1.2.4 2.3 1.5 2.6 1.2.3 2.3-.4 2.6-1.5.3-1.1-.4-2.3-1.5-2.6" class="alt-bg-st1"/>
  <path d="M69.3 7.5c-1.2-.3-2.5.4-2.8 1.6-.3 1.2.4 2.5 1.6 2.8 1.2.3 2.5-.4 2.8-1.6.3-1.3-.4-2.5-1.6-2.8" class="alt-bg-st1"/>
  <path d="M73.2 8.4c-1.3-.3-2.6.4-2.9 1.7-.3 1.3.4 2.6 1.7 2.9 1.3.3 2.6-.4 2.9-1.7.3-1.3-.5-2.6-1.7-2.9" class="alt-bg-st1"/>
  <path d="M77 9.4c-1.3-.3-2.6.4-2.9 1.7-.3 1.3.4 2.6 1.7 2.9 1.3.3 2.6-.4 2.9-1.7.3-1.2-.4-2.5-1.7-2.9" class="alt-bg-st1"/>
  <path d="M80.9 10.6c-1.2-.3-2.4.4-2.8 1.6s.4 2.4 1.6 2.8c1.2.3 2.4-.4 2.8-1.6.3-1.3-.4-2.5-1.6-2.8" class="alt-bg-st1"/>
  <path d="M84.7 11.7c-1.1-.3-2.3.4-2.6 1.5-.3 1.1.4 2.3 1.5 2.6 1.1.3 2.3-.4 2.6-1.5.3-1.1-.4-2.3-1.5-2.6" class="alt-bg-st1"/>
  <path d="M88.5 12.9c-1.1-.3-2.2.4-2.5 1.4-.3 1.1.4 2.2 1.4 2.5 1.1.3 2.2-.4 2.5-1.4.4-1.1-.3-2.2-1.4-2.5m3.9 1.1c-1-.3-2.1.3-2.4 1.4s.3 2.1 1.4 2.4c1 .3 2.1-.3 2.4-1.4.2-1.1-.4-2.1-1.4-2.4m3.8 1.1c-1-.3-2 .3-2.3 1.3-.3 1 .3 2 1.3 2.3 1 .3 2-.3 2.3-1.3.3-1-.3-2-1.3-2.3m3.8 1.2c-.9-.2-1.9.3-2.1 1.2-.2.9.3 1.9 1.2 2.1.9.2 1.9-.3 2.1-1.2.3-.9-.2-1.9-1.2-2.1m3.9 1.1c-.9-.2-1.8.3-2 1.2-.2.9.3 1.8 1.2 2 .9.2 1.8-.3 2-1.2.2-.9-.4-1.8-1.2-2m3.8 1.1c-.8-.2-1.7.3-1.9 1.1-.2.8.3 1.7 1.1 1.9.8.2 1.7-.3 1.9-1.1.2-.8-.3-1.7-1.1-1.9m3.9 1.2c-.8-.2-1.5.2-1.7 1-.2.8.2 1.5 1 1.7.8.2 1.5-.2 1.7-1 .2-.8-.3-1.5-1-1.7m3.8 1.1c-.7-.2-1.4.2-1.6.9-.2.7.2 1.4.9 1.6.7.2 1.4-.2 1.6-.9.2-.7-.2-1.4-.9-1.6m3.8 1.2c-.6-.2-1.3.2-1.4.8-.2.6.2 1.3.8 1.4.6.2 1.3-.2 1.4-.8.2-.6-.2-1.3-.8-1.4m3.8 1.1c-.6-.1-1.1.2-1.3.7-.1.5.2 1.1.7 1.3.6.1 1.1-.2 1.3-.7.2-.5-.1-1.1-.7-1.3m3.9 1.2c-.5-.1-1 .2-1.1.6-.1.5.2 1 .6 1.1.5.1 1-.2 1.1-.6.1-.5-.1-1-.6-1.1m3.8 1.2c-.4-.1-.8.1-.9.5-.1.4.1.8.5.9s.8-.1.9-.5c.1-.4-.1-.8-.5-.9m3.8 1.2c-.3-.1-.6.1-.7.4-.1.3.1.6.4.7.3.1.6-.1.7-.4.1-.3-.1-.6-.4-.7m3.8 1.2c-.2-.1-.4.1-.4.3-.1.2.1.4.3.4.2.1.4-.1.4-.3 0-.1-.1-.3-.3-.4m3.8 1.2c-.1 0-.2 0-.2.1s0 .2.1.2.2 0 .2-.1c.1 0 0-.1-.1-.2M5.9-3.2c-.1 0-.2 0-.2.1s0 .2.1.2c.1.1.2 0 .2-.1s0-.2-.1-.2m3.9.8c-.2 0-.4.1-.5.3 0 .2.1.4.3.5.2.1.4-.1.5-.3s-.1-.4-.3-.5m3.9.9c-.3-.1-.6.1-.7.4-.1.3.1.6.4.7.3.1.6-.1.7-.4.1-.3-.1-.6-.4-.7m3.9.9c-.4-.1-.8.1-.9.5-.1.4.1.8.5.9.4.1.8-.1.9-.5.1-.4-.1-.8-.5-.9m3.9.8c-.5-.1-1 .2-1.1.6-.1.5.2 1 .6 1.1.5.1 1-.2 1.1-.6.2-.4-.1-.9-.6-1.1m3.9.9c-.6-.1-1.1.2-1.3.7-.1.6.2 1.2.8 1.4.5.1 1.1-.2 1.3-.8s-.2-1.1-.8-1.3m3.9.9c-.6-.2-1.3.2-1.4.8-.2.6.2 1.3.8 1.4.6.2 1.3-.2 1.4-.8.2-.5-.2-1.2-.8-1.4m3.9 1c-.7-.2-1.4.2-1.6.9-.2.7.2 1.4.9 1.6.7.2 1.4-.2 1.6-.9.2-.7-.2-1.5-.9-1.6m3.9.9c-.8-.2-1.5.2-1.7 1-.2.8.2 1.5 1 1.7.8.2 1.5-.2 1.7-1 .2-.7-.2-1.5-1-1.7m3.9.9c-.8-.2-1.6.3-1.9 1.1-.2.8.3 1.6 1.1 1.9.8.2 1.7-.3 1.9-1.1.2-.8-.3-1.7-1.1-1.9m3.9.9c-.9-.2-1.8.3-2 1.2-.2.9.3 1.8 1.2 2 .9.2 1.8-.3 2-1.2.2-.8-.3-1.7-1.2-2m3.9 1c-.9-.2-1.9.3-2.1 1.2-.3.9.3 1.9 1.2 2.1.9.2 1.9-.3 2.1-1.2.2-.9-.3-1.9-1.2-2.1m3.9.9c-1-.3-2 .3-2.2 1.3-.3 1 .3 2 1.3 2.2 1 .3 2-.3 2.2-1.3.2-.9-.4-1.9-1.3-2.2m3.9 1c-1-.3-2.1.3-2.4 1.4-.3 1 .3 2.1 1.4 2.4 1 .3 2.1-.3 2.4-1.4.2-1.1-.4-2.2-1.4-2.4" class="alt-bg-st1"/>
  <path d="M60.4 9.5c-1.1-.3-2.2.4-2.5 1.4-.3 1.1.4 2.2 1.4 2.5 1.1.3 2.2-.4 2.5-1.4.4-1.1-.3-2.2-1.4-2.5" class="alt-bg-st1"/>
  <path d="M64.3 10.4c-1.1-.3-2.3.4-2.6 1.5-.3 1.1.4 2.3 1.5 2.6 1.1.3 2.3-.4 2.6-1.5.3-1.1-.3-2.3-1.5-2.6" class="alt-bg-st1"/>
  <path d="M68.2 11.4c-1.2-.3-2.4.4-2.7 1.6-.3 1.2.4 2.4 1.6 2.7 1.2.3 2.4-.4 2.7-1.6.3-1.2-.4-2.4-1.6-2.7" class="alt-bg-st1"/>
  <path d="M72.1 12.4c-1.2-.3-2.5.4-2.8 1.6-.3 1.2.4 2.5 1.6 2.8 1.2.3 2.5-.4 2.8-1.6.3-1.3-.4-2.5-1.6-2.8" class="alt-bg-st1"/>
  <path d="M76 13.4c-1.2-.3-2.4.4-2.8 1.6s.4 2.4 1.6 2.8c1.2.3 2.4-.4 2.8-1.6.3-1.2-.4-2.5-1.6-2.8" class="alt-bg-st1"/>
  <path d="M79.8 14.5c-1.2-.3-2.4.4-2.7 1.6-.3 1.2.4 2.4 1.6 2.7 1.2.3 2.4-.4 2.7-1.6.3-1.2-.4-2.4-1.6-2.7" class="alt-bg-st1"/>
  <path d="M83.7 15.6c-1.1-.3-2.3.4-2.6 1.5-.3 1.1.4 2.3 1.5 2.6 1.1.3 2.3-.4 2.6-1.5.3-1.1-.4-2.3-1.5-2.6" class="alt-bg-st1"/>
  <path d="M87.5 16.7c-1.1-.3-2.2.4-2.5 1.4-.3 1.1.4 2.2 1.4 2.5 1.1.3 2.2-.3 2.5-1.4.3-1.1-.3-2.2-1.4-2.5m3.8 1.2c-1-.3-2.1.3-2.4 1.4-.3 1 .3 2.1 1.4 2.3 1 .3 2.1-.3 2.3-1.4.4-1-.2-2-1.3-2.3m3.9 1.1c-1-.3-2 .3-2.2 1.3-.3 1 .3 2 1.3 2.2 1 .3 2-.3 2.2-1.3.2-.9-.4-1.9-1.3-2.2m3.8 1.1c-.9-.2-1.9.3-2.1 1.2s.3 1.9 1.2 2.1c.9.2 1.9-.3 2.1-1.2.3-.9-.3-1.8-1.2-2.1m3.8 1.2c-.9-.2-1.8.3-2 1.1-.2.9.3 1.8 1.1 2 .9.2 1.8-.3 2-1.1.3-.9-.2-1.8-1.1-2m3.9 1.1c-.8-.2-1.6.3-1.9 1.1-.2.8.3 1.6 1.1 1.9.8.2 1.6-.3 1.9-1.1.2-.8-.3-1.7-1.1-1.9m3.8 1.2c-.7-.2-1.5.2-1.7 1-.2.7.2 1.5 1 1.7.7.2 1.5-.2 1.7-1 .2-.8-.2-1.5-1-1.7m3.8 1.1c-.7-.2-1.4.2-1.6.9-.2.7.2 1.4.9 1.6.7.2 1.4-.2 1.6-.9.2-.7-.2-1.4-.9-1.6m3.9 1.1c-.6-.2-1.3.2-1.4.8-.2.6.2 1.3.8 1.4.6.2 1.3-.2 1.4-.8.2-.5-.2-1.2-.8-1.4M122 27c-.5-.1-1.1.2-1.2.7-.1.5.2 1.1.7 1.2.5.1 1.1-.2 1.2-.7.2-.5-.1-1-.7-1.2m3.8 1.2c-.5-.1-.9.2-1.1.6-.1.5.2.9.6 1.1.5.1.9-.1 1.1-.6.2-.5-.1-1-.6-1.1m3.9 1.2c-.4-.1-.8.1-.9.5-.1.4.1.8.5.9.4.1.8-.1.9-.5.1-.4-.2-.8-.5-.9m3.8 1.2c-.3-.1-.6.1-.7.4s.1.6.4.7c.3.1.6-.1.7-.4 0-.3-.1-.6-.4-.7m3.8 1.2c-.2 0-.4.1-.4.2-.1.2.1.4.2.4.2 0 .4-.1.4-.2.1-.2 0-.3-.2-.4m3.8 1.2c-.1 0-.2 0-.2.1s0 .2.1.2.2 0 .2-.1 0-.2-.1-.2M4.8.7c-.1 0-.2 0-.2.1s0 .2.1.2.2 0 .2-.1c.1-.1 0-.2-.1-.2m3.9.8c-.2 0-.4.1-.4.2 0 .2.1.4.2.4.2.2.4 0 .5-.1 0-.2-.1-.4-.3-.5m4 .9c-.3-.1-.6.1-.7.4-.1.3.1.6.4.7.3 0 .6-.2.6-.5.1-.2-.1-.5-.3-.6m3.9.9c-.4-.1-.8.1-.9.5-.1.4.1.8.5.9.4.1.8-.1.9-.5.1-.4-.2-.8-.5-.9m3.9.8c-.5-.1-1 .2-1.1.7-.1.5.2.9.6 1.1.5.1.9-.1 1.1-.6.1-.6-.2-1-.6-1.2m3.9.9c-.5-.1-1.1.2-1.2.7-.2.6.1 1.1.6 1.3.5.1 1.1-.2 1.2-.7.2-.6-.1-1.1-.6-1.3m3.9.9c-.6-.2-1.2.2-1.4.8-.2.6.2 1.2.8 1.4.6.2 1.2-.2 1.4-.8.2-.6-.2-1.2-.8-1.4m3.9.9c-.7-.2-1.4.2-1.6.9-.2.7.2 1.4.9 1.6.7.2 1.4-.2 1.6-.9.2-.7-.3-1.4-.9-1.6m3.9 1c-.7-.2-1.5.2-1.7 1-.2.7.2 1.5 1 1.7.7.2 1.5-.2 1.7-1 .2-.8-.3-1.5-1-1.7m3.9.9c-.8-.2-1.6.3-1.8 1.1-.2.8.3 1.6 1.1 1.8.8.2 1.6-.3 1.8-1.1.1-.8-.3-1.6-1.1-1.8m3.8.9c-.9-.2-1.7.3-2 1.1-.2.9.3 1.7 1.1 2 .9.2 1.7-.3 2-1.1.3-.9-.2-1.7-1.1-2m3.9 1c-.9-.2-1.8.3-2.1 1.2-.2.9.3 1.8 1.2 2.1.9.2 1.8-.3 2.1-1.2.3-1-.3-1.9-1.2-2.1m3.9.9c-1-.3-1.9.3-2.2 1.3-.3 1 .3 1.9 1.3 2.2 1 .3 1.9-.3 2.2-1.3.3-.9-.3-1.9-1.3-2.2m3.9 1c-1-.3-2 .3-2.3 1.3-.3 1 .3 2 1.3 2.3 1 .3 2-.3 2.3-1.3.3-1-.3-2.1-1.3-2.3m3.9.9c-1.1-.3-2.1.3-2.4 1.4-.3 1.1.3 2.1 1.4 2.4 1.1.3 2.1-.3 2.4-1.4.3-1-.4-2.1-1.4-2.4m3.9 1c-1.1-.3-2.2.4-2.5 1.5-.3 1.1.4 2.2 1.5 2.5 1.1.3 2.2-.4 2.5-1.5.2-1.1-.4-2.2-1.5-2.5" class="alt-bg-st1"/>
  <path d="M67.2 15.3c-1.1-.3-2.3.4-2.6 1.5-.3 1.1.4 2.3 1.5 2.6 1.1.3 2.3-.4 2.6-1.5.3-1.1-.4-2.3-1.5-2.6" class="alt-bg-st1"/>
  <path d="M71 16.3c-1.1-.3-2.3.4-2.6 1.5-.3 1.1.4 2.3 1.5 2.6 1.1.3 2.3-.4 2.6-1.5.4-1.1-.3-2.2-1.5-2.6" class="alt-bg-st1"/>
  <path d="M74.9 17.4c-1.1-.3-2.3.4-2.6 1.5-.3 1.1.4 2.3 1.5 2.6 1.1.3 2.3-.4 2.6-1.5.3-1.1-.4-2.3-1.5-2.6" class="alt-bg-st1"/>
  <path d="M78.8 18.4c-1.1-.3-2.3.4-2.6 1.5-.3 1.1.4 2.3 1.5 2.6 1.1.3 2.3-.4 2.6-1.5.3-1.1-.4-2.3-1.5-2.6" class="alt-bg-st1"/>
  <path d="M82.6 19.6c-1.1-.3-2.2.4-2.5 1.4-.3 1.1.4 2.2 1.4 2.5 1.1.3 2.2-.4 2.5-1.4.3-1.1-.3-2.3-1.4-2.5" class="alt-bg-st1"/>
  <path d="M86.4 20.7c-1-.3-2.1.3-2.4 1.4-.3 1 .3 2.1 1.4 2.4 1 .3 2.1-.3 2.4-1.4.3-1.1-.3-2.2-1.4-2.4m3.9 1.1c-1-.3-2 .3-2.3 1.3-.3 1 .3 2 1.3 2.3s2-.3 2.3-1.3c.3-1-.3-2-1.3-2.3m3.8 1.1c-1-.3-1.9.3-2.2 1.3-.3 1 .3 1.9 1.3 2.2 1 .3 1.9-.3 2.2-1.3.2-1-.3-1.9-1.3-2.2M98 24c-.9-.2-1.8.3-2.1 1.2-.2.9.3 1.8 1.2 2.1.9.2 1.8-.3 2.1-1.2.2-.9-.3-1.8-1.2-2.1m3.8 1.2c-.9-.2-1.7.3-2 1.1-.2.9.3 1.7 1.1 2 .9.2 1.7-.3 2-1.1.3-.9-.2-1.8-1.1-2m3.8 1.1c-.8-.2-1.6.3-1.8 1.1-.2.8.3 1.6 1.1 1.8.8.2 1.6-.3 1.8-1.1.2-.8-.3-1.6-1.1-1.8m3.9 1.1c-.7-.2-1.5.2-1.7 1-.2.7.2 1.5 1 1.7.7.2 1.5-.2 1.7-1 .2-.7-.3-1.5-1-1.7m3.8 1.2c-.7-.2-1.4.2-1.6.9-.2.7.2 1.4.9 1.6.7.2 1.4-.2 1.6-.9.2-.7-.2-1.4-.9-1.6m3.8 1.1c-.6-.2-1.2.2-1.4.8-.2.6.2 1.2.8 1.4.6.2 1.2-.2 1.4-.8.2-.6-.2-1.2-.8-1.4m3.9 1.2c-.5-.1-1.1.2-1.2.7-.1.5.2 1.1.7 1.2.5.1 1.1-.2 1.2-.7.1-.5-.2-1.1-.7-1.2m3.8 1.2c-.5-.1-.9.1-1 .6-.1.5.1.9.6 1 .5.1.9-.1 1-.6.1-.4-.2-.9-.6-1m3.8 1.2c-.4-.1-.7.1-.8.5-.1.4.1.7.5.8.4.1.7-.1.8-.5.1-.3-.1-.7-.5-.8m3.8 1.2c-.3-.1-.6.1-.6.4-.1.3.1.6.4.6.3.1.6-.1.6-.4.1-.3-.1-.5-.4-.6m3.8 1.2c-.2 0-.3.1-.4.2 0 .2.1.3.2.4.2 0 .3-.1.4-.2.1-.2 0-.3-.2-.4m3.9 1.2c-.1 0-.2 0-.2.1s0 .2.1.2.2 0 .2-.1-.1-.2-.1-.2M3.8 4.6c-.1 0-.1 0-.1.1s0 .1.1.1.1 0 .1-.1c0 0 0-.1-.1-.1m3.9.8c-.2 0-.3.1-.4.2 0 .2.1.4.2.4.2 0 .3-.1.4-.2.1-.1 0-.3-.2-.4m3.9.9c-.3-.1-.5.1-.6.4-.1.3.1.5.4.6.3.1.5-.1.6-.4 0-.3-.1-.5-.4-.6m3.9.9c-.4-.1-.7.1-.8.5s.1.7.5.8c.3 0 .7-.2.8-.5.1-.4-.1-.7-.5-.8m3.9.8c-.4-.1-.9.1-1 .6s.1.9.6 1c.4.1.9-.1 1-.6.1-.4-.1-.8-.6-1m3.9.9c-.5-.1-1.1.2-1.2.7-.1.5.2 1.1.7 1.2.5.1 1.1-.2 1.2-.7.2-.5-.1-1-.7-1.2m3.9.9c-.6-.2-1.2.2-1.4.8-.2.6.2 1.2.8 1.4.6.2 1.2-.2 1.4-.8.2-.6-.2-1.2-.8-1.4m3.9.9c-.7-.2-1.3.2-1.5.9-.2.7.2 1.3.9 1.5.7.2 1.3-.2 1.5-.9.2-.6-.2-1.3-.9-1.5m3.9 1c-.7-.2-1.5.2-1.7 1s.2 1.5 1 1.7c.7.2 1.5-.2 1.7-1 .2-.8-.3-1.5-1-1.7m3.9.9c-.8-.2-1.6.3-1.8 1-.2.8.3 1.6 1 1.8.8.2 1.6-.3 1.8-1 .2-.8-.2-1.6-1-1.8m3.9.9c-.8-.2-1.7.3-1.9 1.1-.2.8.3 1.7 1.1 1.9.8.2 1.7-.3 1.9-1.1.2-.8-.3-1.6-1.1-1.9m3.9 1c-.9-.2-1.8.3-2 1.2s.3 1.8 1.2 2c.9.2 1.8-.3 2-1.2s-.3-1.8-1.2-2m3.9.9c-.9-.2-1.9.3-2.1 1.2-.2.9.3 1.9 1.2 2.1.9.2 1.9-.3 2.1-1.2.3-.9-.3-1.8-1.2-2.1m3.9 1c-1-.3-2 .3-2.2 1.3-.3 1 .3 2 1.3 2.2 1 .3 2-.3 2.2-1.3.2-1-.4-2-1.3-2.2m3.8.9c-1-.3-2.1.3-2.3 1.4-.3 1 .3 2.1 1.3 2.3 1 .3 2.1-.3 2.3-1.3.4-1-.2-2.1-1.3-2.4m3.9 1c-1-.3-2.1.3-2.4 1.4-.3 1 .3 2.1 1.4 2.4 1 .3 2.1-.3 2.4-1.4.3-1-.3-2.1-1.4-2.4" class="alt-bg-st1"/>
  <path d="M66.1 19.3c-1.1-.3-2.2.4-2.5 1.4-.3 1.1.4 2.2 1.4 2.5 1.1.3 2.2-.4 2.5-1.4.3-1.1-.3-2.2-1.4-2.5" class="alt-bg-st1"/>
  <path d="M70 20.3c-1.1-.3-2.2.4-2.5 1.5-.3 1.1.4 2.2 1.5 2.5 1.1.3 2.2-.4 2.5-1.5.2-1.1-.4-2.2-1.5-2.5" class="alt-bg-st1"/>
  <path d="M73.8 21.4c-1.1-.3-2.2.4-2.5 1.4-.3 1.1.4 2.2 1.4 2.5 1.1.3 2.2-.4 2.5-1.4.4-1.1-.3-2.3-1.4-2.5" class="alt-bg-st1"/>
  <path d="M77.7 22.4c-1.1-.3-2.2.4-2.5 1.4-.3 1.1.4 2.2 1.4 2.5 1.1.3 2.2-.3 2.5-1.4.3-1.1-.3-2.2-1.4-2.5" class="alt-bg-st1"/>
  <path d="M81.5 23.5c-1-.3-2.1.3-2.4 1.4-.3 1 .3 2.1 1.4 2.4 1 .3 2.1-.3 2.4-1.4.3-1-.3-2.1-1.4-2.4m3.9 1.1c-1-.3-2.1.3-2.3 1.3-.3 1 .3 2.1 1.3 2.3 1 .3 2.1-.3 2.3-1.3.3-1-.3-2-1.3-2.3m3.8 1.1c-1-.3-2 .3-2.2 1.3-.3 1 .3 2 1.3 2.2 1 .3 2-.3 2.2-1.3.3-.9-.3-1.9-1.3-2.2m3.9 1.1c-.9-.2-1.9.3-2.1 1.2-.2.9.3 1.9 1.2 2.1.9.2 1.9-.3 2.1-1.2.3-.9-.3-1.8-1.2-2.1m3.8 1.1c-.9-.2-1.8.3-2 1.2-.2.9.3 1.8 1.2 2 .9.2 1.8-.3 2-1.2.2-.8-.3-1.7-1.2-2m3.9 1.2c-.8-.2-1.7.3-1.9 1.1-.2.8.3 1.7 1.1 1.9.8.2 1.7-.3 1.9-1.1.2-.9-.3-1.7-1.1-1.9m3.8 1.1c-.8-.2-1.6.3-1.8 1-.2.8.3 1.6 1 1.8.8.2 1.6-.3 1.8-1 .2-.8-.2-1.6-1-1.8m3.8 1.1c-.7-.2-1.5.2-1.6.9-.2.7.2 1.5 1 1.6.7.2 1.5-.2 1.6-1 .2-.5-.3-1.3-1-1.5m3.9 1.2c-.7-.2-1.3.2-1.5.9-.2.7.2 1.3.9 1.5.7.2 1.3-.2 1.5-.9.1-.7-.3-1.3-.9-1.5m3.8 1.1c-.6-.2-1.2.2-1.4.8-.2.6.2 1.2.8 1.4.6.2 1.2-.2 1.4-.8.1-.6-.2-1.2-.8-1.4m3.8 1.2c-.5-.1-1.1.2-1.2.7-.1.5.2 1.1.7 1.2.5.1 1.1-.2 1.2-.7.2-.5-.2-1.1-.7-1.2m3.8 1.2c-.4-.1-.9.1-1 .6-.1.4.1.9.6 1s.9-.1 1-.6c.1-.5-.1-.9-.6-1m3.9 1.2c-.3-.1-.7.1-.8.5-.1.3.1.7.5.8.3.1.7-.1.8-.5 0-.4-.2-.7-.5-.8m3.8 1.2c-.2-.1-.5.1-.6.3-.1.2.1.5.3.6.2.1.5-.1.6-.3.1-.3-.1-.5-.3-.6m3.8 1.2c-.2 0-.3 0-.4.2 0 .2.1.3.2.4.2 0 .3-.1.4-.2 0-.2 0-.4-.2-.4m3.8 1.2c-.1 0-.1 0-.1.1s0 .1.1.1.1 0 .1-.1c0 0 0-.1-.1-.1M2.6 8.5c0 .1.1.1 0 0 .1.1.1.1.1 0h-.1c.1 0 .1 0 0 0m4.1.8c-.1 0-.3 0-.3.2 0 .1 0 .3.2.3.1 0 .3 0 .3-.2 0-.1-.1-.2-.2-.3m3.9.9c-.2-.1-.5.1-.5.3-.1.2.1.5.3.5.2.1.5-.1.5-.3 0-.2-.1-.4-.3-.5m3.9.9c-.3-.1-.7.1-.8.4-.1.3.1.7.4.8.3.1.7-.1.8-.4.1-.4-.1-.7-.4-.8m3.9.8c-.4-.1-.9.1-1 .6-.1.4.1.9.6 1 .4.1.9-.1 1-.6 0-.4-.2-.8-.6-1m3.9.9c-.5-.1-1 .2-1.1.7-.1.5.2 1 .7 1.1.5.1 1-.2 1.1-.7.1-.4-.2-.9-.7-1.1m3.9.9c-.6-.2-1.2.2-1.3.8-.2.6.2 1.2.8 1.3.6.2 1.2-.2 1.3-.8.1-.5-.2-1.1-.8-1.3m3.9 1c-.6-.2-1.3.2-1.5.8-.2.6.2 1.3.8 1.5.6.2 1.3-.2 1.5-.8.2-.7-.2-1.4-.8-1.5m3.9.9c-.7-.2-1.4.2-1.6.9-.2.7.2 1.4.9 1.6.7.2 1.4-.2 1.6-.9.2-.7-.2-1.4-.9-1.6m3.9.9c-.8-.2-1.5.2-1.7 1-.2.8.2 1.5 1 1.7.8.2 1.5-.2 1.7-1 .2-.7-.3-1.5-1-1.7m3.9 1c-.8-.2-1.6.3-1.8 1.1-.2.8.3 1.6 1.1 1.8.8.2 1.6-.3 1.8-1.1.1-.8-.3-1.6-1.1-1.8m3.8.9c-.9-.2-1.7.3-2 1.1-.2.9.3 1.7 1.1 2 .9.2 1.7-.3 2-1.1s-.2-1.8-1.1-2m3.9 1c-.9-.2-1.8.3-2.1 1.2-.2.9.3 1.8 1.2 2.1.9.2 1.8-.3 2.1-1.2.3-1-.3-1.9-1.2-2.1m3.9.9c-.9-.3-1.9.3-2.2 1.2-.3.9.3 1.9 1.2 2.2.9.3 1.9-.3 2.2-1.2.3-1-.3-1.9-1.2-2.2m3.9 1c-1-.3-2 .3-2.2 1.3-.3 1 .3 2 1.3 2.2 1 .3 2-.3 2.2-1.3.2-1-.3-2-1.3-2.2m3.9 1c-1-.3-2 .3-2.3 1.3-.3 1 .3 2 1.3 2.3 1 .3 2-.3 2.3-1.3.3-1-.3-2.1-1.3-2.3m3.8 1c-1-.3-2.1.3-2.4 1.4-.3 1 .3 2.1 1.4 2.3 1 .3 2.1-.3 2.3-1.4.4-1-.2-2.1-1.3-2.3m3.9 1c-1-.3-2.1.3-2.4 1.4-.3 1 .3 2.1 1.4 2.4 1 .3 2.1-.3 2.4-1.4.3-1.1-.4-2.1-1.4-2.4m3.9 1c-1-.3-2.1.3-2.4 1.4s.3 2.1 1.4 2.4c1 .3 2.1-.3 2.4-1.4.2-1-.4-2.1-1.4-2.4m3.8 1.1c-1-.3-2.1.3-2.4 1.4-.3 1 .3 2.1 1.4 2.4 1 .3 2.1-.3 2.3-1.4.4-1.1-.2-2.2-1.3-2.4m3.9 1c-1-.3-2 .3-2.3 1.3-.3 1 .3 2 1.3 2.3 1 .3 2-.3 2.3-1.3.3-1-.3-2-1.3-2.3m3.8 1.1c-1-.3-2 .3-2.2 1.3-.3 1 .3 2 1.3 2.2 1 .3 2-.3 2.2-1.3.3-.9-.3-1.9-1.3-2.2m3.9 1.1c-.9-.2-1.9.3-2.1 1.2-.2.9.3 1.9 1.2 2.1.9.3 1.9-.3 2.1-1.2.3-.9-.3-1.8-1.2-2.1m3.8 1.1c-.9-.2-1.8.3-2.1 1.2-.2.9.3 1.8 1.2 2 .9.2 1.8-.3 2.1-1.2.2-.8-.3-1.7-1.2-2m3.9 1.1c-.9-.2-1.7.3-2 1.1-.2.9.3 1.7 1.1 2 .9.2 1.7-.3 2-1.1.2-.8-.3-1.7-1.1-2m3.8 1.2c-.8-.2-1.6.3-1.8 1.1-.2.8.3 1.6 1.1 1.8.8.2 1.6-.3 1.8-1.1.2-.8-.3-1.6-1.1-1.8m3.8 1.1c-.7-.2-1.5.2-1.7 1-.2.7.2 1.5 1 1.7.7.2 1.5-.2 1.7-1 .2-.7-.2-1.5-1-1.7m3.9 1.1c-.7-.2-1.4.2-1.6.9-.2.7.2 1.4.9 1.6.7.2 1.4-.2 1.6-.9.2-.7-.2-1.4-.9-1.6m3.8 1.2c-.6-.2-1.3.2-1.5.8-.2.6.2 1.3.8 1.5.6.2 1.3-.2 1.5-.8.2-.7-.1-1.3-.8-1.5m3.8 1.1c-.6-.1-1.1.2-1.3.7-.2.6.2 1.1.7 1.3.6.2 1.1-.2 1.3-.7.2-.5-.1-1.1-.7-1.3m3.9 1.2c-.5-.1-1 .2-1.1.6-.1.5.2 1 .6 1.1.5.1 1-.2 1.1-.6.1-.5-.1-.9-.6-1.1m3.8 1.2c-.4-.1-.8.1-.9.5-.1.4.1.8.5.9.4.1.8-.1.9-.5.2-.4-.1-.8-.5-.9m3.8 1.2c-.3-.1-.6.1-.7.4-.1.3.1.6.4.7.3.1.6-.1.7-.4.1-.3-.1-.6-.4-.7m3.8 1.2c-.2-.1-.5.1-.5.3-.1.2.1.5.3.5.2.1.5-.1.5-.3.1-.2 0-.4-.3-.5m3.9 1.2c-.1 0-.3 0-.3.2 0 .1 0 .3.2.3.1 0 .3 0 .3-.2 0-.1-.1-.3-.2-.3m3.7 1.3c.1.1.1.1.1 0 0 0 0-.1-.1 0 0-.1 0-.1 0 0M1.7 12.4c-.1 0 0 .1 0 0 0 .1 0 .1 0 0m3.9.9c-.1 0-.2 0-.2.1s0 .2.1.2.2 0 .2-.1c.1-.1 0-.2-.1-.2m3.9.8c-.2-.1-.4.1-.5.3-.1.2.1.4.3.5.2.1.4-.1.5-.3 0-.2-.1-.4-.3-.5m3.9.9c-.3-.1-.6.1-.7.4-.1.3.1.6.4.7.3.1.6-.1.7-.4.1-.3-.1-.6-.4-.7m3.9.9c-.4-.1-.8.1-.9.5-.1.4.1.8.5.9.4.1.8-.1.9-.5.1-.4-.1-.8-.5-.9m3.9.8c-.5-.1-1 .2-1.1.6-.1.5.2 1 .6 1.1.5.1 1-.2 1.1-.6.2-.4-.1-.9-.6-1.1m3.9 1c-.5-.1-1.1.2-1.2.7-.1.5.2 1.1.7 1.2.5.1 1.1-.2 1.2-.7.2-.5-.1-1.1-.7-1.2m3.9.9c-.6-.2-1.2.2-1.4.8-.2.6.2 1.2.8 1.4.6.2 1.2-.2 1.4-.8.2-.6-.2-1.3-.8-1.4m3.9.9c-.7-.2-1.4.2-1.5.9-.2.7.2 1.4.9 1.5.7.2 1.4-.2 1.5-.9.2-.6-.2-1.3-.9-1.5m3.9.9c-.7-.2-1.5.2-1.7 1-.2.7.2 1.5 1 1.7.7.2 1.5-.2 1.7-1 .2-.7-.3-1.5-1-1.7m3.9 1c-.8-.2-1.6.3-1.8 1-.2.8.3 1.6 1 1.8.8.2 1.6-.3 1.8-1 .2-.8-.2-1.6-1-1.8m3.9.9c-.8-.2-1.7.3-1.9 1.1-.2.8.3 1.7 1.1 1.9.8.2 1.7-.3 1.9-1.1.2-.8-.3-1.7-1.1-1.9m3.9 1c-.9-.2-1.7.3-2 1.1-.2.9.3 1.7 1.1 2 .9.2 1.7-.3 2-1.1.2-.9-.3-1.8-1.1-2m3.9.9c-.9-.2-1.8.3-2.1 1.2-.2.9.3 1.8 1.2 2.1.9.2 1.8-.3 2.1-1.2.2-.9-.3-1.8-1.2-2.1m3.8 1c-.9-.2-1.9.3-2.1 1.2-.2.9.3 1.9 1.2 2.1.9.2 1.9-.3 2.1-1.2.3-.9-.2-1.8-1.2-2.1m3.9 1c-1-.3-1.9.3-2.2 1.3-.3 1 .3 1.9 1.3 2.2 1 .3 1.9-.3 2.2-1.3.2-.9-.3-1.9-1.3-2.2m3.9 1c-1-.3-2 .3-2.2 1.3-.3 1 .3 2 1.3 2.2 1 .3 2-.3 2.2-1.3.2-.9-.3-1.9-1.3-2.2m3.9 1c-1-.3-2 .3-2.3 1.3-.3 1 .3 2 1.3 2.3 1 .3 2-.3 2.3-1.3.2-1-.4-2-1.3-2.3m3.8 1.1c-1-.3-2 .3-2.3 1.3-.3 1 .3 2 1.3 2.3 1 .3 2-.3 2.3-1.3.3-1.1-.3-2.1-1.3-2.3m3.9 1c-1-.3-2 .3-2.2 1.3-.3 1 .3 2 1.3 2.2 1 .3 2-.3 2.2-1.3.2-.9-.4-1.9-1.3-2.2m3.8 1.1c-1-.3-1.9.3-2.2 1.3-.3 1 .3 1.9 1.3 2.2 1 .3 1.9-.3 2.2-1.3.2-1-.3-2-1.3-2.2m3.9 1.1c-.9-.2-1.9.3-2.1 1.2-.2.9.3 1.9 1.2 2.1.9.2 1.9-.3 2.1-1.2.3-.9-.3-1.9-1.2-2.1m3.8 1.1c-.9-.2-1.8.3-2.1 1.2-.2.9.3 1.8 1.2 2 .9.2 1.8-.3 2.1-1.2.3-.9-.3-1.8-1.2-2m3.9 1.1c-.9-.2-1.7.3-2 1.1-.2.9.3 1.7 1.1 2 .9.2 1.7-.3 2-1.1.2-.9-.3-1.8-1.1-2m3.8 1.1c-.8-.2-1.6.3-1.9 1.1-.2.8.3 1.6 1.1 1.9.8.2 1.6-.3 1.9-1.1.2-.9-.3-1.7-1.1-1.9m3.9 1.1c-.8-.2-1.6.2-1.8 1-.2.8.2 1.6 1 1.8.8.2 1.6-.2 1.8-1 .2-.8-.3-1.6-1-1.8m3.8 1.1c-.7-.2-1.5.2-1.6.9-.2.7.2 1.5 1 1.6.7.2 1.5-.2 1.6-.9.1-.6-.3-1.4-1-1.6m3.8 1.2c-.7-.2-1.3.2-1.5.9-.2.7.2 1.3.9 1.5.7.2 1.3-.2 1.5-.9.2-.7-.2-1.4-.9-1.5m3.9 1.1c-.6-.2-1.2.2-1.4.8-.2.6.2 1.2.8 1.4.6.2 1.2-.2 1.4-.8.1-.6-.2-1.2-.8-1.4m3.8 1.2c-.5-.1-1.1.2-1.2.7-.1.5.2 1.1.7 1.2.5.1 1.1-.2 1.2-.7.1-.5-.2-1.1-.7-1.2m3.8 1.1c-.5-.1-.9.1-1 .6-.1.5.1.9.6 1 .5.1.9-.1 1-.6.2-.4-.1-.8-.6-1m3.9 1.2c-.4-.1-.8.1-.9.5-.1.4.1.8.5.9.4.1.8-.1.9-.5.1-.4-.2-.8-.5-.9m3.8 1.2c-.3-.1-.6.1-.7.4-.1.3.1.6.4.7.3.1.6-.1.7-.4 0-.3-.1-.6-.4-.7m3.8 1.2c-.2-.1-.4.1-.5.3-.1.2.1.4.3.5.2.1.4-.1.5-.3 0-.2-.1-.4-.3-.5m3.8 1.2c-.1 0-.2 0-.2.1s0 .2.1.2.2 0 .2-.1c.1-.1 0-.2-.1-.2m-257-60.4c-.1 0-.2 0-.2.1s0 .2.1.2.2 0 .2-.1-.1-.2-.1-.2m137 48.3c-.2 0-.3.1-.4.2 0 .2.1.3.2.4.2 0 .3-.1.4-.2 0-.2-.1-.4-.2-.4m3.9.8c-.3-.1-.5.1-.6.4-.1.3.1.5.4.6.3.1.5-.1.6-.4 0-.2-.2-.5-.4-.6m3.9.9c-.3-.1-.7.1-.8.5-.1.3.1.7.5.8.3.1.7-.1.8-.5 0-.3-.2-.7-.5-.8m3.9.9c-.4-.1-.9.1-1 .6-.1.4.1.9.6 1 .4.1.9-.1 1-.6.1-.5-.2-.9-.6-1m3.9.9c-.5-.1-1 .2-1.2.7-.1.5.2 1 .7 1.2.5.1 1-.2 1.2-.7.1-.6-.2-1.1-.7-1.2m3.9.9c-.6-.2-1.2.2-1.3.8-.2.6.2 1.2.8 1.3.6.2 1.2-.2 1.3-.8.1-.6-.2-1.2-.8-1.3m3.9.9c-.6-.2-1.3.2-1.5.8-.2.6.2 1.3.8 1.5.6.2 1.3-.2 1.5-.8.2-.7-.2-1.3-.8-1.5m3.9 1c-.7-.2-1.4.2-1.6.9-.2.7.2 1.4.9 1.6.7.2 1.4-.2 1.6-.9.2-.7-.3-1.5-.9-1.6m3.9.9c-.7-.2-1.5.2-1.7 1-.2.7.2 1.5 1 1.7.7.2 1.5-.2 1.7-1 .1-.7-.3-1.5-1-1.7m3.8 1c-.8-.2-1.6.3-1.8 1-.2.8.3 1.6 1 1.8.8.2 1.6-.3 1.8-1 .3-.8-.2-1.6-1-1.8m3.9.9c-.8-.2-1.7.3-1.9 1.1-.2.8.3 1.7 1.1 1.9.8.2 1.7-.3 1.9-1.1.2-.8-.3-1.7-1.1-1.9m3.9 1c-.9-.2-1.7.3-2 1.1s.3 1.7 1.1 2c.9.2 1.7-.3 2-1.1.3-.9-.3-1.8-1.1-2m3.9 1c-.9-.2-1.8.3-2 1.2s.3 1.8 1.2 2c.9.2 1.8-.3 2-1.2.2-.9-.3-1.8-1.2-2m3.9 1c-.9-.2-1.8.3-2.1 1.2-.2.9.3 1.8 1.2 2.1.9.2 1.8-.3 2.1-1.2.2-1-.3-1.9-1.2-2.1m3.8 1c-.9-.2-1.9.3-2.1 1.2-.2.9.3 1.9 1.2 2.1.9.2 1.9-.3 2.1-1.2.3-.9-.3-1.9-1.2-2.1m3.9 1c-.9-.2-1.9.3-2.1 1.2-.2.9.3 1.9 1.2 2.1.9.2 1.9-.3 2.1-1.2.3-.9-.3-1.9-1.2-2.1m3.9 1c-.9-.2-1.9.3-2.1 1.2-.2.9.3 1.9 1.2 2.1.9.2 1.9-.3 2.1-1.2.2-.9-.3-1.8-1.2-2.1m3.8 1.1c-.9-.2-1.9.3-2.1 1.2-.2.9.3 1.9 1.2 2.1.9.2 1.9-.3 2.1-1.2s-.3-1.9-1.2-2.1m3.9 1c-.9-.2-1.8.3-2.1 1.2-.2.9.3 1.8 1.2 2.1.9.2 1.8-.3 2.1-1.2.2-.9-.3-1.8-1.2-2.1m3.8 1.1c-.9-.2-1.8.3-2 1.2-.2.9.3 1.8 1.2 2 .9.2 1.8-.3 2-1.2.2-.8-.3-1.7-1.2-2m3.9 1.1c-.9-.2-1.7.3-2 1.1-.2.9.3 1.7 1.1 2 .9.2 1.7-.3 2-1.1.2-.9-.3-1.8-1.1-2m3.8 1.1c-.8-.2-1.6.3-1.9 1.1-.2.8.3 1.6 1.1 1.9.8.2 1.6-.3 1.9-1.1.2-.8-.3-1.7-1.1-1.9m3.9 1.1c-.8-.2-1.6.3-1.8 1-.2.8.3 1.6 1 1.8.8.2 1.6-.3 1.8-1 .2-.8-.3-1.6-1-1.8m3.8 1.1c-.7-.2-1.5.2-1.7 1-.2.7.2 1.5 1 1.7.7.2 1.5-.2 1.7-1 .2-.7-.3-1.5-1-1.7m3.8 1.2c-.7-.2-1.4.2-1.6.9-.2.7.2 1.4.9 1.6.7.2 1.4-.2 1.6-.9.2-.8-.2-1.5-.9-1.6m3.9 1.1c-.6-.2-1.3.2-1.4.8-.2.6.2 1.3.8 1.4.6.2 1.3-.2 1.4-.8.2-.6-.2-1.2-.8-1.4m3.8 1.1c-.6-.2-1.1.2-1.3.7-.2.6.2 1.1.7 1.3.6.2 1.1-.2 1.3-.7.2-.5-.1-1.1-.7-1.3m3.8 1.2c-.5-.1-1 .2-1.1.7-.1.5.2 1 .7 1.1.5.1 1-.2 1.1-.7.1-.5-.2-1-.7-1.1m3.9 1.2c-.4-.1-.9.1-1 .6-.1.4.1.9.6 1 .4.1.9-.1 1-.6 0-.5-.2-.9-.6-1m3.8 1.2c-.3-.1-.7.1-.8.4-.1.3.1.7.4.8.3.1.7-.1.8-.4.1-.4-.1-.8-.4-.8m3.8 1.1c-.2-.1-.5.1-.6.3-.1.2.1.5.3.6.2.1.5-.1.6-.3.1-.2 0-.5-.3-.6m3.8 1.2c-.2 0-.3.1-.4.2s.1.3.2.4c.2 0 .3-.1.4-.2.1-.2 0-.3-.2-.4m3.9 1.2c-.1 0-.1 0-.1.1s0 .1.1.1.1 0 .1-.1c0 0-.1 0-.1-.1M3.4 21.2c.1.1.1.1.1 0 .1 0 0-.1-.1 0 .1-.1 0-.1 0 0m4 .8c-.1 0-.3 0-.3.2 0 .1 0 .3.2.3.1 0 .3 0 .3-.2 0-.1-.1-.3-.2-.3m3.9.9c-.2-.1-.4.1-.5.3-.1.2.1.4.3.5.2.1.4-.1.5-.3.1-.3-.1-.5-.3-.5m3.9.8c-.3-.1-.6.1-.7.4-.1.3.1.6.4.7.3.1.6-.1.7-.4.1-.3-.1-.6-.4-.7m3.9.9c-.4-.1-.8.1-.9.5-.1.4.1.8.5.9.4.1.8-.1.9-.5.1-.4-.1-.8-.5-.9m3.9.9c-.5-.1-.9.1-1 .6-.1.5.1.9.6 1 .5.1.9-.1 1-.6.1-.4-.1-.8-.6-1m3.9.9c-.5-.1-1.1.2-1.2.7-.1.5.2 1.1.7 1.2.5.1 1.1-.2 1.2-.7.2-.5-.2-1-.7-1.2m3.9 1c-.6-.2-1.2.2-1.4.8-.2.6.2 1.2.8 1.4.6.2 1.2-.2 1.4-.8.2-.7-.2-1.3-.8-1.4m3.9.9c-.6-.2-1.3.2-1.5.9-.2.6.2 1.3.9 1.5.6.2 1.3-.2 1.5-.9.1-.7-.2-1.3-.9-1.5m3.9 1c-.7-.2-1.4.2-1.6.9-.2.7.2 1.4.9 1.6.7.2 1.4-.2 1.6-.9.2-.8-.2-1.5-.9-1.6m3.9.9c-.7-.2-1.5.2-1.7 1s.2 1.5 1 1.7c.7.2 1.5-.2 1.7-1 .2-.7-.3-1.5-1-1.7m3.9 1c-.8-.2-1.6.3-1.8 1-.2.8.3 1.6 1 1.8.8.2 1.6-.3 1.8-1 .2-.8-.3-1.6-1-1.8m3.8.9c-.8-.2-1.6.3-1.8 1.1-.2.8.3 1.6 1.1 1.8.8.2 1.6-.3 1.8-1.1.2-.7-.3-1.5-1.1-1.8m3.9 1c-.8-.2-1.7.3-1.9 1.1-.2.8.3 1.7 1.1 1.9.8.2 1.7-.3 1.9-1.1.2-.8-.3-1.6-1.1-1.9m3.9 1c-.9-.2-1.7.3-2 1.1-.2.9.3 1.7 1.1 2 .9.2 1.7-.3 2-1.1.2-.9-.3-1.7-1.1-2m3.9 1c-.9-.2-1.8.3-2 1.2-.2.9.3 1.8 1.2 2 .9.2 1.8-.3 2-1.2.1-.8-.4-1.7-1.2-2m3.8 1.1c-.9-.2-1.8.3-2 1.2-.2.9.3 1.8 1.2 2 .9.2 1.8-.3 2-1.2.2-.9-.3-1.8-1.2-2m3.9 1c-.9-.2-1.8.3-2 1.2-.2.9.3 1.8 1.2 2 .9.2 1.8-.3 2-1.2.2-.9-.3-1.8-1.2-2m3.9 1c-.9-.2-1.8.3-2 1.1-.2.9.3 1.8 1.1 2 .9.2 1.8-.3 2-1.1.2-.8-.3-1.7-1.1-2m3.8 1.1c-.9-.2-1.7.3-2 1.1-.2.9.3 1.7 1.1 2s1.7-.3 2-1.1c.3-.9-.2-1.8-1.1-2m3.9 1.1c-.8-.2-1.7.3-1.9 1.1-.2.8.3 1.7 1.1 1.9.8.2 1.7-.3 1.9-1.1.2-.8-.3-1.7-1.1-1.9m3.8 1.1c-.8-.2-1.6.3-1.8 1.1-.2.8.3 1.6 1.1 1.8.8.2 1.6-.3 1.8-1.1.2-.8-.3-1.6-1.1-1.8m3.9 1.1c-.8-.2-1.6.2-1.8 1-.2.8.3 1.6 1 1.8.8.2 1.6-.2 1.8-1 .2-.8-.3-1.6-1-1.8m3.8 1.1c-.7-.2-1.5.2-1.7 1-.2.7.2 1.5 1 1.7.7.2 1.5-.2 1.7-1 .2-.8-.3-1.5-1-1.7m3.8 1.1c-.7-.2-1.4.2-1.6.9-.2.7.2 1.4.9 1.6.7.2 1.4-.2 1.6-.9.2-.7-.2-1.4-.9-1.6m3.9 1.1c-.6-.2-1.3.2-1.5.8s.2 1.3.8 1.5c.6.2 1.3-.2 1.5-.8.2-.7-.2-1.3-.8-1.5m3.8 1.1c-.6-.2-1.2.2-1.3.8-.2.6.2 1.2.8 1.3.6.2 1.2-.2 1.3-.8.2-.5-.2-1.1-.8-1.3m3.9 1.2c-.5-.1-1.1.2-1.2.7-.1.5.2 1.1.7 1.2.5.1 1.1-.2 1.2-.7.1-.5-.2-1.1-.7-1.2m3.8 1.1c-.4-.1-.9.1-1 .6-.1.5.1.9.6 1 .5.1.9-.1 1-.6.1-.4-.2-.8-.6-1m3.8 1.2c-.4-.1-.8.1-.9.5-.1.4.1.8.5.9.4.1.8-.1.9-.5.1-.4-.1-.8-.5-.9m3.8 1.2c-.3-.1-.6.1-.7.4-.1.3.1.6.4.7.3.1.6-.1.7-.4.1-.3-.1-.6-.4-.7m3.9 1.2c-.2-.1-.4.1-.5.3-.1.2.1.4.3.5s.4-.1.5-.3c0-.2-.1-.5-.3-.5m3.8 1.2c-.1 0-.2 0-.3.2 0 .1 0 .2.2.3.1 0 .2 0 .3-.2 0-.2-.1-.3-.2-.3m3.7 1.2s.1.1 0 0c.1.1.1.1 0 0 .1 0 .1 0 0 0 .1 0 .1 0 0 0M6.4 25.9c-.1 0-.2 0-.2.1s0 .2.1.2.2 0 .2-.1-.1-.1-.1-.2m3.9.9c-.2 0-.3.1-.4.2 0 .2.1.3.2.4.2 0 .3-.1.4-.2 0-.2-.1-.3-.2-.4m3.9.9c-.3-.1-.5.1-.6.3-.1.3.1.5.3.6.3.1.5-.1.6-.3.1-.3-.1-.5-.3-.6m3.9.9c-.3-.1-.7.1-.8.4-.1.3.1.7.4.8.3.1.7-.1.8-.4.1-.4-.1-.7-.4-.8m3.9.9c-.4-.1-.8.1-.9.5-.1.4.1.8.5.9.4.1.8-.1.9-.5.1-.4-.1-.8-.5-.9m3.9.9c-.5-.1-1 .2-1.1.6-.1.5.2 1 .6 1.1.5.1 1-.2 1.1-.6.1-.5-.2-1-.6-1.1m3.9.9c-.5-.1-1.1.2-1.2.7-.1.5.2 1.1.7 1.2.5.1 1.1-.2 1.2-.7.1-.5-.2-1-.7-1.2m3.8 1c-.6-.2-1.2.2-1.4.8s.2 1.2.8 1.4 1.2-.2 1.4-.8c.2-.7-.2-1.3-.8-1.4m3.9.9c-.6-.2-1.3.2-1.5.9-.2.6.2 1.3.9 1.5.6.2 1.3-.2 1.5-.9.2-.7-.2-1.3-.9-1.5m3.9 1c-.7-.2-1.4.2-1.6.9-.2.7.2 1.4.9 1.6.7.2 1.4-.2 1.6-.9.2-.8-.2-1.5-.9-1.6m3.9.9c-.7-.2-1.5.2-1.7 1-.2.7.2 1.5 1 1.7.7.2 1.5-.2 1.7-1 .2-.7-.3-1.5-1-1.7m3.9 1c-.8-.2-1.5.2-1.7 1-.2.8.2 1.5 1 1.7.8.2 1.5-.2 1.7-1 .2-.7-.3-1.5-1-1.7m3.9 1c-.8-.2-1.6.3-1.8 1-.2.8.3 1.6 1 1.8.8.2 1.6-.3 1.8-1 .2-.8-.3-1.6-1-1.8m3.8 1c-.8-.2-1.6.3-1.8 1.1-.2.8.3 1.6 1.1 1.8.8.2 1.6-.3 1.8-1.1s-.3-1.6-1.1-1.8m3.9 1c-.8-.2-1.6.3-1.9 1.1-.2.8.3 1.6 1.1 1.8.8.2 1.6-.3 1.9-1.1.2-.7-.3-1.6-1.1-1.8m3.9 1c-.8-.2-1.7.3-1.9 1.1-.2.8.3 1.7 1.1 1.9.8.2 1.7-.3 1.9-1.1.2-.8-.3-1.7-1.1-1.9m3.8 1.1c-.8-.2-1.7.3-1.9 1.1-.2.8.3 1.7 1.1 1.9.8.2 1.7-.3 1.9-1.1.2-.9-.3-1.7-1.1-1.9m3.9 1c-.8-.2-1.6.3-1.9 1.1-.2.8.3 1.6 1.1 1.9.8.2 1.6-.3 1.9-1.1.2-.8-.3-1.7-1.1-1.9m3.8 1.1c-.8-.2-1.6.3-1.8 1.1-.2.8.3 1.6 1.1 1.8.8.2 1.6-.3 1.8-1.1.2-.8-.3-1.6-1.1-1.8m3.9 1c-.8-.2-1.6.3-1.8 1-.2.8.3 1.6 1 1.8.8.2 1.6-.3 1.8-1 .2-.8-.2-1.6-1-1.8m3.9 1.1c-.7-.2-1.5.2-1.7 1-.2.7.2 1.5 1 1.7.7.2 1.5-.2 1.7-1 .1-.7-.3-1.5-1-1.7m3.8 1.1c-.7-.2-1.5.2-1.6.9-.2.7.2 1.5 1 1.6.7.2 1.5-.2 1.6-.9.1-.7-.3-1.4-1-1.6m3.8 1.1c-.7-.2-1.4.2-1.6.9-.2.7.2 1.4.9 1.6.7.2 1.4-.2 1.6-.9.2-.7-.2-1.4-.9-1.6m3.9 1.1c-.6-.2-1.3.2-1.5.8-.2.6.2 1.3.8 1.5.6.2 1.3-.2 1.5-.8.2-.6-.2-1.3-.8-1.5m3.8 1.1c-.6-.2-1.2.2-1.4.8-.2.6.2 1.2.8 1.4.6.2 1.2-.2 1.4-.8.2-.6-.2-1.2-.8-1.4m3.9 1.2c-.5-.1-1.1.2-1.2.7-.1.5.2 1.1.7 1.2.5.1 1.1-.2 1.2-.7.1-.5-.2-1.1-.7-1.2m3.8 1.1c-.5-.1-1 .2-1.1.6-.1.5.2 1 .6 1.1.5.1 1-.2 1.1-.6.2-.5-.1-.9-.6-1.1m3.8 1.2c-.4-.1-.8.1-.9.5-.1.4.1.8.5.9.4.1.8-.1.9-.5.2-.4-.1-.8-.5-.9m3.9 1.2c-.3-.1-.7.1-.8.4-.1.3.1.7.4.8.3.1.7-.1.8-.4.1-.4-.1-.8-.4-.8m3.8 1.1c-.2-.1-.5.1-.6.3-.1.2.1.5.3.6.2.1.5-.1.6-.3.1-.2-.1-.5-.3-.6m3.8 1.2c-.2 0-.3.1-.4.2 0 .2.1.3.2.4.2 0 .3-.1.4-.2.1-.2 0-.3-.2-.4m3.8 1.2c-.1 0-.2 0-.2.1s0 .2.1.2.2 0 .2-.1c.1-.1 0-.2-.1-.2M5.2 29.9c0 .1 0 .1 0 0l.1.1c.1-.1 0-.1-.1-.1.1 0 0 0 0 0m4 .9c-.1 0-.2 0-.3.2 0 .1 0 .2.2.3.1 0 .2 0 .3-.2 0-.2-.1-.3-.2-.3m3.9.9c-.2-.1-.4.1-.5.3-.1.2.1.4.3.5.2.1.4-.1.5-.3 0-.3-.1-.5-.3-.5m3.9.9c-.3-.1-.6.1-.6.4-.1.3.1.6.4.6.3.1.6-.1.6-.4 0-.3-.1-.6-.4-.6m3.9.9c-.4-.1-.7.1-.8.5-.1.4.1.7.5.8.4.1.7-.1.8-.5.1-.4-.1-.8-.5-.8m3.9.9c-.4-.1-.9.1-1 .6-.1.4.1.9.6 1 .4.1.9-.1 1-.6.1-.5-.2-.9-.6-1m3.9.9c-.5-.1-1 .2-1.1.6-.1.5.2 1 .6 1.1.5.1 1-.2 1.1-.6.2-.5-.1-1-.6-1.1m3.9.9c-.5-.1-1.1.2-1.2.7-.1.5.2 1.1.7 1.2.5.1 1.1-.2 1.2-.7.1-.5-.2-1-.7-1.2m3.9 1c-.6-.2-1.2.2-1.4.8-.2.6.2 1.2.8 1.4.6.2 1.2-.2 1.4-.8.1-.7-.2-1.3-.8-1.4m3.9.9c-.6-.2-1.3.2-1.5.8-.2.6.2 1.3.8 1.5.6.2 1.3-.2 1.5-.8.2-.7-.2-1.3-.8-1.5m3.8 1c-.7-.2-1.4.2-1.5.9-.2.7.2 1.4.9 1.5.7.2 1.4-.2 1.5-.9.2-.6-.2-1.3-.9-1.5m3.9 1c-.7-.2-1.4.2-1.6.9-.2.7.2 1.4.9 1.6.7.2 1.4-.2 1.6-.9.2-.7-.2-1.4-.9-1.6m3.9 1c-.7-.2-1.5.2-1.7 1-.2.7.2 1.5 1 1.7.7.2 1.5-.2 1.7-1 .1-.8-.3-1.5-1-1.7m3.9 1c-.7-.2-1.5.2-1.7 1-.2.7.2 1.5 1 1.7.7.2 1.5-.2 1.7-1 .1-.8-.3-1.5-1-1.7m3.8 1c-.7-.2-1.5.2-1.7 1-.2.7.2 1.5 1 1.7.7.2 1.5-.2 1.7-1 .2-.7-.2-1.5-1-1.7m3.9 1c-.8-.2-1.5.2-1.7 1-.2.8.2 1.5 1 1.7.8.2 1.5-.2 1.7-1 .2-.7-.2-1.5-1-1.7m3.9 1c-.8-.2-1.5.2-1.7 1-.2.8.2 1.5 1 1.7.8.2 1.5-.2 1.7-1 .2-.7-.3-1.5-1-1.7m3.8 1.1c-.7-.2-1.5.2-1.7 1-.2.7.2 1.5 1 1.7.7.2 1.5-.2 1.7-1 .2-.7-.2-1.5-1-1.7m3.9 1c-.7-.2-1.5.2-1.7 1-.2.7.2 1.5 1 1.7.7.2 1.5-.2 1.7-1 .2-.7-.3-1.5-1-1.7m3.8 1.1c-.7-.2-1.5.2-1.6 1-.2.7.2 1.5 1 1.6.7.2 1.5-.2 1.6-1 .2-.7-.2-1.4-1-1.6m3.9 1.1c-.7-.2-1.4.2-1.6.9-.2.7.2 1.4.9 1.6.7.2 1.4-.2 1.6-.9.2-.7-.2-1.4-.9-1.6m3.8 1.1c-.7-.2-1.3.2-1.5.9-.2.7.2 1.3.9 1.5.7.2 1.3-.2 1.5-.9.2-.7-.2-1.3-.9-1.5m3.9 1.1c-.6-.2-1.3.2-1.4.8-.2.6.2 1.3.8 1.4s1.3-.2 1.4-.8c.2-.6-.2-1.3-.8-1.4m3.8 1.1c-.6-.2-1.2.2-1.3.8-.2.6.2 1.2.8 1.3.6.2 1.2-.2 1.3-.8.2-.6-.2-1.2-.8-1.3m3.9 1.1c-.5-.1-1.1.2-1.2.7-.1.5.2 1.1.7 1.2.5.1 1.1-.2 1.2-.7.1-.5-.2-1-.7-1.2m3.8 1.1c-.5-.1-1 .2-1.1.6-.1.5.2 1 .6 1.1.5.1 1-.2 1.1-.6.2-.4-.1-.9-.6-1.1m3.8 1.2c-.4-.1-.8.1-1 .6-.1.4.1.8.6.9.4.1.8-.1.9-.5.2-.5 0-.9-.5-1m3.9 1.2c-.3-.1-.7.1-.8.5-.1.3.1.7.5.8.3.1.7-.1.8-.5 0-.4-.2-.7-.5-.8m4.2 1.8c.1-.3-.1-.6-.4-.6-.3-.1-.6.1-.6.4 0 .2 0 .4.1.5h.7c.1-.2.1-.3.2-.3M8.1 34.7c-.1 0-.1 0-.1.1s0 .1.1.1.1 0 .1-.1l-.1-.1m3.9.9c-.1 0-.3 0-.3.2 0 .1 0 .3.2.3.1 0 .3 0 .3-.2.1-.1 0-.2-.2-.3m3.9.9c-.2-.1-.4.1-.5.3-.1.2.1.4.3.5.2.1.4-.1.5-.3.1-.2-.1-.4-.3-.5m3.9.9c-.3-.1-.6.1-.7.4-.1.3.1.6.4.7.3.1.6-.1.7-.4.1-.3-.1-.6-.4-.7m3.9.9c-.4-.1-.7.1-.8.5-.1.4.1.7.5.8.4.1.7-.1.8-.5.1-.3-.1-.7-.5-.8m3.9 1c-.4-.1-.9.1-1 .6-.1.4.1.9.6 1 .4.1.9-.1 1-.6.1-.5-.1-.9-.6-1m3.9.9c-.5-.1-1 .2-1.1.6-.1.5.2 1 .6 1.1.5.1 1-.2 1.1-.6.2-.5-.1-1-.6-1.1m3.9.9c-.5-.1-1.1.2-1.2.7-.1.5.2 1.1.7 1.2.5.1 1.1-.2 1.2-.7.1-.5-.2-1-.7-1.2m3.9 1c-.6-.1-1.1.2-1.3.7-.2.6.2 1.1.7 1.3.6.2 1.1-.2 1.3-.7.2-.6-.1-1.1-.7-1.3m3.9 1c-.6-.2-1.2.2-1.4.8-.2.6.2 1.2.8 1.4.6.2 1.2-.2 1.4-.8.1-.7-.2-1.3-.8-1.4m3.9.9c-.6-.2-1.3.2-1.5.8-.2.6.2 1.3.8 1.5.6.2 1.3-.2 1.5-.8.2-.6-.2-1.3-.8-1.5m3.8 1c-.7-.2-1.3.2-1.5.9-.2.7.2 1.3.9 1.5.7.2 1.3-.2 1.5-.9.2-.6-.2-1.3-.9-1.5m3.9 1c-.7-.2-1.4.2-1.6.9-.2.7.2 1.4.9 1.6.7.2 1.4-.2 1.6-.9.2-.7-.2-1.4-.9-1.6m3.9 1.1c-.7-.2-1.4.2-1.6.9-.2.7.2 1.4.9 1.6.7.2 1.4-.2 1.6-.9.2-.8-.2-1.5-.9-1.6m3.8 1c-.7-.2-1.4.2-1.6.9-.2.7.2 1.4.9 1.6.7.2 1.4-.2 1.6-.9.2-.7-.2-1.4-.9-1.6m3.9 1c-.7-.2-1.4.2-1.6.9-.2.7.2 1.4.9 1.6.7.2 1.4-.2 1.6-.9.2-.7-.2-1.4-.9-1.6m3.9 1.1c-.7-.2-1.4.2-1.6.9-.2.7.2 1.4.9 1.6.7.2 1.4-.2 1.6-.9.2-.7-.3-1.5-.9-1.6m3.8 1c-.7-.2-1.4.2-1.6.9-.2.7.2 1.4.9 1.6.7.2 1.4-.2 1.6-.9.2-.7-.2-1.4-.9-1.6m3.9 1.1c-.7-.2-1.3.2-1.5.9-.2.7.2 1.3.9 1.5.7.2 1.3-.2 1.5-.9.1-.7-.3-1.3-.9-1.5m3.8 1.1c-.6-.2-1.3.2-1.5.8-.2.6.2 1.3.8 1.5.6.2 1.3-.2 1.5-.8.2-.7-.1-1.4-.8-1.5m3.9 1c-.6-.2-1.2.2-1.4.8-.2.6.2 1.2.8 1.4.6.2 1.2-.2 1.4-.8.1-.6-.2-1.2-.8-1.4m3.8 1.2c-.6-.2-1.1.2-1.3.7-.2.6.2 1.1.7 1.3.6.2 1.1-.2 1.3-.7.2-.6-.1-1.2-.7-1.3m3.9 1.1c-.5-.1-1.1.2-1.2.7-.1.5.2 1.1.7 1.2.5.1 1.1-.2 1.2-.7.1-.6-.2-1.1-.7-1.2m4.4 2.2c.1-.5-.2-1-.6-1.1-.5-.1-1 .2-1.1.6-.1.3 0 .6.2.9h1.2c.2-.1.3-.3.3-.4m3.2 0c-.3-.1-.7.1-.8.3h1.3c-.1-.1-.3-.2-.5-.3M11 39.6c-.1 0-.2 0-.2.1s0 .2.1.2.2 0 .2-.1 0-.2-.1-.2m3.9.9c-.2 0-.3 0-.4.2 0 .2.1.3.2.4.2 0 .3 0 .4-.2 0-.2-.1-.4-.2-.4m3.9.9c-.2-.1-.4.1-.5.3-.1.2.1.4.3.5.2.1.4-.1.5-.3 0-.2-.1-.4-.3-.5m3.9.9c-.3-.1-.6.1-.7.4-.1.3.1.6.4.7.3.1.6-.1.7-.4 0-.3-.1-.6-.4-.7m3.9.9c-.4-.1-.7.1-.8.5-.1.4.1.7.5.8.4.1.7-.1.8-.5 0-.3-.2-.7-.5-.8m3.9 1c-.4-.1-.8.1-.9.5-.1.4.1.8.5.9.4.1.8-.1.9-.5.1-.4-.1-.8-.5-.9m3.8.9c-.5-.1-.9.1-1 .6-.1.5.1.9.6 1 .5.1.9-.1 1-.6.2-.4-.1-.8-.6-1m3.9 1c-.5-.1-1 .2-1.1.7-.1.5.2 1 .7 1.1.5.1 1-.2 1.1-.7.1-.5-.2-1-.7-1.1m3.9 1c-.5-.1-1.1.2-1.2.7-.1.5.2 1.1.7 1.2.5.1 1.1-.2 1.2-.7.2-.5-.2-1.1-.7-1.2m3.9.9c-.6-.1-1.1.2-1.3.7-.2.6.2 1.1.7 1.3.6.2 1.1-.2 1.3-.7.2-.5-.2-1.1-.7-1.3m3.9 1c-.6-.2-1.2.2-1.4.8-.2.6.2 1.2.8 1.4.6.2 1.2-.2 1.4-.8.1-.6-.2-1.2-.8-1.4m3.8 1c-.6-.2-1.2.2-1.4.8-.2.6.2 1.2.8 1.4.6.2 1.2-.2 1.4-.8.2-.6-.2-1.2-.8-1.4m3.9 1c-.6-.2-1.3.2-1.4.8-.2.6.2 1.3.8 1.4.6.2 1.3-.2 1.4-.8.2-.6-.2-1.2-.8-1.4m3.9 1.1c-.6-.2-1.3.2-1.4.8-.2.6.2 1.3.8 1.4.6.2 1.3-.2 1.4-.8.2-.6-.2-1.3-.8-1.4m3.8 1c-.6-.2-1.3.2-1.4.8-.2.6.2 1.3.8 1.4.6.2 1.3-.2 1.4-.8.2-.6-.1-1.2-.8-1.4m3.9 1c-.6-.2-1.3.2-1.4.8-.2.6.2 1.3.8 1.4.6.2 1.3-.2 1.4-.8.2-.6-.2-1.2-.8-1.4m3.9 1.1c-.6-.2-1.2.2-1.4.8-.2.6.2 1.2.8 1.4.6.2 1.2-.2 1.4-.8.1-.6-.2-1.2-.8-1.4m3.8 1.1c-.6-.2-1.2.2-1.4.8-.2.6.2 1.2.8 1.4.6.2 1.2-.2 1.4-.8.2-.7-.2-1.3-.8-1.4m4.6 2.3c.1-.6-.2-1.1-.7-1.3-.6-.2-1.1.2-1.3.7-.1.5.1.9.5 1.2h1c.3-.1.4-.3.5-.6m3.1-.2c-.5-.1-1.1.2-1.2.7v.1h2c-.1-.3-.4-.7-.8-.8M-57 30.6c-.1 0-.2 0-.2.1s0 .2.1.2.2 0 .2-.1 0-.2-.1-.2m88.5 59.3c-.2 0-.3 0-.4.2 0 .2 0 .3.2.4.2 0 .3 0 .4-.2s0-.4-.2-.4m3.9.9c-.2-.1-.4.1-.5.3-.1.2.1.4.3.5.2.1.4-.1.5-.3 0-.2-.1-.4-.3-.5m3.9 1c-.3-.1-.6.1-.6.4-.1.3.1.6.4.6.3.1.6-.1.6-.4 0-.3-.1-.6-.4-.6m3.9.9c-.3-.1-.7.1-.8.4-.1.3.1.7.4.8s.7-.1.8-.4c.1-.4-.1-.7-.4-.8m3.9.9c-.4-.1-.8.1-.9.5-.1.4.1.8.5.9.4.1.8-.1.9-.5.1-.4-.1-.8-.5-.9m3.9 1c-.4-.1-.9.1-1 .6-.1.4.1.9.6 1 .4.1.9-.1 1-.6 0-.5-.2-.9-.6-1m3.8 1c-.5-.1-.9.2-1.1.6-.1.5.2.9.6 1.1.5.1.9-.2 1.1-.6.2-.5-.1-1-.6-1.1m3.9.9c-.5-.1-1 .2-1.1.7-.1.5.2 1 .7 1.1.5.1 1-.2 1.1-.7.1-.4-.2-.9-.7-1.1m3.9 1c-.5-.1-1.1.2-1.2.7-.1.5.2 1.1.7 1.2.5.1 1.1-.2 1.2-.7.1-.5-.2-1-.7-1.2m3.9 1c-.5-.1-1.1.2-1.2.7-.1.5.2 1.1.7 1.2.5.1 1.1-.2 1.2-.7.1-.5-.2-1-.7-1.2m3.8 1c-.5-.1-1.1.2-1.2.7-.1.5.2 1.1.7 1.2.5.1 1.1-.2 1.2-.7.2-.5-.1-1-.7-1.2m3.9 1.1c-.6-.1-1.1.2-1.3.7-.1.6.2 1.1.7 1.3.6.1 1.1-.2 1.3-.7.2-.6-.1-1.2-.7-1.3m3.9 1c-.6-.1-1.1.2-1.3.7-.1.6.2 1.1.7 1.3.6.1 1.1-.2 1.3-.7.1-.6-.2-1.2-.7-1.3m3.8 1c-.5-.1-1.1.2-1.2.7v.4h2c0-.4-.3-.9-.8-1.1m3.2 1.2h.8l-.1-.1c-.2-.1-.5 0-.7.1M-38.1 39.5c-.1 0-.2 0-.2.1s0 .2.1.2.2 0 .2-.1c.1-.1 0-.2-.1-.2m75.2 60.2c-.1 0-.3 0-.3.2 0 .1 0 .3.2.3.1 0 .3 0 .3-.2 0-.1 0-.2-.2-.3m3.9 1c-.2-.1-.4.1-.5.3-.1.2.1.4.3.5.2.1.4-.1.5-.3 0-.3-.1-.5-.3-.5m3.9.9c-.2-.1-.5.1-.6.3-.1.2.1.5.3.6.2.1.5-.1.6-.3.1-.3 0-.5-.3-.6m3.9 1c-.3-.1-.6.1-.7.4-.1.3.1.6.4.7.3.1.6-.1.7-.4.1-.4-.1-.7-.4-.7m3.9.9c-.3-.1-.7.1-.8.5-.1.3.1.7.5.8.3.1.7-.1.8-.5 0-.4-.2-.7-.5-.8m3.9 1c-.4-.1-.8.1-.9.5-.1.4.1.8.5.9.4.1.8-.1.9-.5s-.1-.8-.5-.9m3.8.9c-.4-.1-.8.1-1 .5-.1.4.1.8.5 1 .4.1.8-.1 1-.5.2-.4 0-.8-.5-1m3.9 1c-.4-.1-.9.1-1 .6-.1.4.1.9.6 1 .4.1.9-.1 1-.6.1-.4-.2-.8-.6-1m3.9 1c-.5-.1-.9.1-1 .6-.1.2 0 .4.1.6h1.5c0-.1.1-.1.1-.2 0-.4-.3-.8-.7-1m3.9 1c-.3-.1-.6 0-.8.2h1.2c-.2 0-.3-.1-.4-.2m-36-4.6c-.1 0-.1 0-.1.1s0 .1.1.1.1 0 .1-.1l-.1-.1m3.8.9c-.1 0-.2 0-.2.1s0 .2.1.2.2 0 .2-.1c.1-.1 0-.2-.1-.2m3.9.9c-.2 0-.3.1-.4.2 0 .2.1.3.2.4.2 0 .3-.1.4-.2.1-.2 0-.3-.2-.4m3.9 1c-.2-.1-.4.1-.5.3-.1.2.1.4.3.5.2.1.4-.1.5-.3 0-.3-.1-.5-.3-.5m3.9.9c-.3-.1-.5.1-.6.3-.1.3.1.5.3.6.3.1.5-.1.6-.3.1-.2 0-.5-.3-.6m3.9 1c-.2-.1-.4 0-.6.2h.8c0-.1-.1-.2-.2-.2" class="alt-bg-st1"/>
</svg>
