<svg xmlns="http://www.w3.org/2000/svg" id="Layer_1" viewBox="0 0 352 238" style="enable-background:new 0 0 352 238;" preserveAspectRatio="none">
  <style>
    .message-bubble-alt-three-st0{fill:#FFFFFF;}
  </style>
  <path d="M159 7.2c84.8 0 153.5 50.1 153.5 111.9 0 9-1.5 17.8-4.2 26.2l35.9 45.1-65-1.7C251.1 214.5 207.7 231 159 231 74.2 231 5.4 180.9 5.4 119.1S74.2 7.2 159 7.2" class="message-bubble-alt-three-st0"/>
  <path d="M49.2 200.8C19.4 179.1 3 150.1 3 119.1s16.4-60 46.2-81.7C78.5 16 117.5 4.2 159 4.2c41.4 0 80.5 11.8 109.8 33.2 29.8 21.7 46.2 50.7 46.2 81.7 0 8.6-1.3 17.2-3.9 25.5l39 48.9-70.1-1.8c-29.7 26.9-73.8 42.3-121 42.3-41.5 0-80.5-11.8-109.8-33.2m289.1-13.5L305.4 146l.6-1.8c2.7-8.2 4.1-16.7 4.1-25.1 0-60.1-67.8-109-151.1-109S7.9 59 7.9 119.1s67.8 109 151.1 109c46.5 0 89.8-15.2 118.7-41.7l.7-.6 59.9 1.5z"/>
</svg>
