<svg xmlns="http://www.w3.org/2000/svg" viewBox="0 0 206 87.9" style="enable-background:new 0 0 206 87.9;">
  <style>
    .message-text-alt-st0{fill:#EA4B7D;}
  </style>
  <path d="M6.9 16.6c2.1-.3 3.6-.5 4.5-.6.1-1 .2-2.1.3-3.3 0-1.4.1-2.1.6-2.2.5-.1 1-.2 1.4-.3 1 0 1.5.2 1.7.8 0 .1 0 .1.1.2 0 .3.1.5.1.7v1.9c-.1.7-.1 1.2-.2 1.3l-.6 4.2c-.5 2.9-.7 4.7-.6 5.4v.2l-.6 1.2c-.2.4-.5.6-1 .6h-.3c-.7-.1-1.3-.6-1.6-1.4.2-2.1.3-4.2.5-6.1-.3 0-.7.1-1.4.2-1.6.2-2.7.3-3.4.3-.1.7-.2 1.5-.3 2.4 0 1.4-.2 2.8-.7 4.2-.3.6-.7 1-1 1-.5 0-1.1-.1-1.6-.3-.6-.2-1.1-.6-1.3-1.2 0-.1 0-.1-.1-.2v-.9c.1-.6.5-3 1.3-7.3.9-4.5 1.6-6.9 1.9-7.4.1-.2.4-.3.7-.3.5 0 1 .3 1.7.8.6.5 1 .9 1.1 1.2 0 .3-.1.3-.3.4-.2 0-.4 1.5-.9 4.5zm24.9.4c0 .1.1.3.1.4 0 .3.1.5.1.8.1 1.5-.4 3.3-1.4 5.4-.4.8-1.3 1.5-2.7 2.1-1.1.4-2.3.7-3.6.7-1.4.1-2.5-.1-3.5-.6-1.2-.6-2-1.5-2.4-2.7-.1-.3-.1-.6-.2-.9-.1-.4-.1-.8-.1-1.2 0-.9.1-1.8.3-2.7.5-1.6 1.3-2.9 2.4-4 1.3-1.1 2.7-1.7 4.4-1.8 1.4-.1 2.8.3 4 1.2 1.4.8 2.2 1.9 2.6 3.3zm-9 6.3c.5.2 1.1.3 1.8.3 1.1 0 2.2-.9 3.3-2.5.8-1.3 1.2-2.4 1.2-3.4 0-.2 0-.3-.1-.5 0-.1 0-.2-.1-.3-.2-.6-.6-1-1.3-1.3-.6-.3-1.2-.4-1.9-.3-1.6.1-2.8.8-3.6 2.1-.6 1-.9 2-.8 3.1 0 .3 0 .6.1.9 0 .2.1.4.1.6.3.6.7 1 1.3 1.3zm18.5-5.5c-.2.3-.6 1.2-1.2 2.7-1 2.2-1.5 3.8-1.7 4.6-.1.4-.5.6-1.3.7-.9 0-1.6-.2-2-.8-.1-.2-.2-.4-.3-.7-.1-.2-.1-.5-.2-.8-.2-1-.3-2.5-.4-4.4V18c-.1-3.1.1-4.6.5-4.6 1.7.3 2.6.6 2.8 1.1v.2c-.1.3-.2 1.1-.2 2.5v1.7c.6-1 1.1-1.9 1.7-2.9 1-1.7 1.6-2.6 1.9-2.6h.2c.3 0 1-.3 2-.8l1.9 6.2c.4-.8.9-1.9 1.5-3.2 1.2-2.6 2-3.9 2.3-3.9h.1c1.3.5 2 1 2.1 1.4 0 .2-.7 2-2.1 5.4-1.2 3-1.8 4.7-1.8 5.2v.2c0 .5-1 1-3.1 1.5-1-3.6-1.9-6.1-2.7-7.6zm10.2 2.7c1 .3 1.6.9 1.9 1.7v.3c0 .2 0 .4-.1.6l-.2.5c-.3.4-.5.8-.8 1-.4.4-.9.6-1.4.6-.3 0-.6 0-.9-.2-.7-.4-1.1-.9-1.3-1.5 0-.1-.1-.2-.1-.2V23c0-.4.1-.7.3-1l.6-.8.1-.1c.4-.4.8-.6 1.3-.6h.6zm7.1-.3c1 .3 1.6.9 1.9 1.7v.3c0 .2 0 .4-.1.6l-.2.5c-.3.4-.5.8-.8 1-.4.4-.9.6-1.4.6-.3 0-.6 0-.9-.2-.7-.4-1.1-.9-1.3-1.5 0-.1-.1-.2-.1-.2v-.3c0-.4.1-.7.3-1l.6-.8.1-.1c.4-.4.8-.6 1.3-.6h.6zm7.1-.3c1 .3 1.6.9 1.9 1.7v.3c0 .2 0 .4-.1.6l-.2.5c-.3.4-.5.8-.8 1-.4.4-.9.6-1.4.6-.3 0-.6 0-.9-.2-.7-.4-1.1-.9-1.3-1.5 0-.1-.1-.2-.1-.2v-.3c0-.4.1-.7.3-1l.6-.8.1-.1c.4-.4.8-.6 1.3-.6h.6zm29.9 1.7l.1.1v.1c0 .2-.1.3-.3.5-.2.2-.5.3-.9.3-.9 0-1.7-.4-2.4-1.4-.2-.2-1-1.7-2.6-4.4-1.2-2-1.8-3-2-3-.2 0-.3.2-.4.4-.1.2-.1.5-.2.7-.1.2-.2 1.5-.5 4.1-.2 2.3-.3 3.6-.3 4.1v.2c0 .3-.3.4-.8.5-.6 0-1.2-.1-1.8-.4-.7-.4-1.1-.9-1.3-1.5v-.1c.3-2.3.5-4.6.8-6.9.7-4.7 1.4-7.1 2.2-7.2.1 0 .3-.1.6-.3.3-.3.5-.4.7-.4.3 0 .5.1.8.3.6.5 1.5 1.9 2.8 4.1 1.1 1.8 2 3.7 2.8 5.5.1-.6.3-2.4.7-5.1.5-3.6.9-5.4 1.2-5.5.1 0 .3 0 .5-.1.4 0 .8 0 1.4.1.9.2 1.4.5 1.6 1v.1c0 .5-.4 2.9-1.4 7.3-.9 4.1-1.3 6.4-1.3 6.9zm9-9.4c2.5-.4 4.3-.6 5.4-.6.8 0 1.2 0 1.3.1.1.1.3.4.8.8.4.4.7.7.7 1v.1c0 .2-.1.4-.4.6-.5.3-2 .5-4.7.8-1.8.2-3.1.3-4 .3h-.7c-.2 0-.5-.2-1.1-.7-.7-.5-1-1-1.1-1.3v-.2c0-.1 0-.2.1-.3.1 0 1.3-.2 3.7-.6zm19.4 4.5c.1-.6.2-1.9.5-4 .4-2.9.7-4.4 1-4.4h.4c.3 0 .7 0 1.1.1.8.2 1.2.4 1.3.8v.1c0 .4-.3 2.3-1.1 5.9-.7 3.2-1 5.1-1 5.5 0 0 0 .1.1.2 0 .1-.1.3-.3.4-.2.2-.4.2-.7.2-.7 0-1.4-.4-1.9-1.2-.1-.2-.8-1.4-2.1-3.5-.9-1.6-1.4-2.4-1.6-2.4-.1 0-.2.1-.3.3-.1.2-.1.4-.1.6 0 .1-.2 1.2-.4 3.3-.2 1.8-.3 2.9-.2 3.3v.1c0 .3-.2.4-.7.4-.5 0-1-.1-1.4-.3-.6-.3-.9-.7-1.1-1.3v-.1c.2-1.9.4-3.7.6-5.6.5-3.8 1.1-5.7 1.8-5.8.1 0 .2-.1.4-.2.2-.2.4-.2.6-.2.2 0 .5.1.7.3.5.4 1.2 1.5 2.2 3.3.8 1.4 1.5 2.8 2.2 4.2zm20.6-4.5c0 .1.1.3.1.4 0 .3.1.5.1.8.1 1.5-.4 3.3-1.4 5.4-.4.8-1.3 1.5-2.7 2.1-1.1.4-2.3.7-3.6.7-1.4.1-2.5-.1-3.5-.6-1.2-.6-2-1.5-2.4-2.7-.1-.3-.1-.6-.2-.9-.1-.4-.1-.8-.1-1.2 0-.9.1-1.8.3-2.7.5-1.6 1.3-2.9 2.4-4 1.3-1.1 2.7-1.7 4.4-1.8 1.4-.1 2.8.3 4 1.2 1.3.8 2.1 1.9 2.6 3.3zm-9 6.3c.5.2 1.1.3 1.8.3 1.1 0 2.2-.9 3.3-2.5.8-1.3 1.2-2.4 1.2-3.4 0-.2 0-.3-.1-.5 0-.1 0-.2-.1-.3-.2-.6-.6-1-1.3-1.3-.6-.3-1.2-.4-1.9-.3-1.6.1-2.8.8-3.6 2.1-.6 1-.9 2-.8 3.1 0 .3 0 .6.1.9 0 .2.1.4.1.6.2.6.6 1 1.3 1.3zm14.6-2.2c1 .3 1.6.9 1.9 1.7v.3c0 .2 0 .4-.1.6l-.2.5c-.3.4-.5.8-.8 1-.4.4-.9.6-1.4.6-.3 0-.6 0-.9-.2-.7-.4-1.1-.9-1.3-1.5 0-.1-.1-.2-.1-.2v-.3c0-.4.1-.7.3-1l.6-.8.1-.1c.4-.4.8-.6 1.3-.6h.6zm7.1-.3c1 .3 1.6.9 1.9 1.7v.3c0 .2 0 .4-.1.6l-.2.5c-.3.4-.5.8-.8 1-.4.4-.9.6-1.4.6-.3 0-.6 0-.9-.2-.7-.4-1.1-.9-1.3-1.5 0-.1-.1-.2-.1-.2v-.3c0-.4.1-.7.3-1l.6-.8.1-.1c.4-.4.8-.6 1.3-.6h.6zm12.8-1.3c.1-.6.2-1.9.5-4 .4-2.9.7-4.4 1-4.4h.4c.3 0 .7 0 1.1.1.8.2 1.2.4 1.3.8v.1c0 .4-.4 2.3-1.1 5.9-.7 3.2-1 5.1-1 5.5 0 0 0 .1.1.2 0 .1-.1.3-.3.4-.2.1-.4.2-.7.2-.7 0-1.4-.4-1.9-1.2-.1-.2-.8-1.4-2.1-3.5-.9-1.6-1.4-2.4-1.6-2.4-.1 0-.2.1-.3.3-.1.2-.1.4-.1.6 0 .1-.2 1.2-.4 3.3-.2 1.8-.3 2.9-.2 3.3v.1c0 .3-.2.4-.7.4-.5 0-1-.1-1.4-.3-.6-.3-.9-.7-1.1-1.3v-.1c.2-1.9.4-3.7.6-5.6.5-3.8 1.1-5.7 1.8-5.8.1 0 .2-.1.4-.2.2-.2.4-.2.6-.2.2 0 .5.1.7.3.5.4 1.2 1.5 2.2 3.3.8 1.4 1.5 2.8 2.2 4.2zm20.6-4.5c0 .1.1.3.1.4 0 .3.1.5.1.8.1 1.5-.4 3.3-1.4 5.4-.4.8-1.3 1.5-2.7 2.1-1.1.4-2.3.7-3.6.7-1.4.1-2.5-.1-3.5-.6-1.2-.6-2-1.5-2.4-2.7-.1-.3-.1-.6-.2-.9-.1-.4-.1-.8-.1-1.2 0-.9.1-1.8.3-2.7.5-1.6 1.3-2.9 2.4-4 1.3-1.1 2.7-1.7 4.4-1.8 1.4-.1 2.8.3 4 1.2 1.3.8 2.2 1.9 2.6 3.3zm-9 6.3c.5.2 1.1.3 1.8.3 1.1 0 2.2-.9 3.3-2.5.8-1.3 1.2-2.4 1.2-3.4 0-.2 0-.3-.1-.5 0-.1 0-.2-.1-.3-.2-.6-.6-1-1.3-1.3-.6-.3-1.2-.4-1.9-.3-1.6.1-2.8.8-3.6 2.1-.6 1-.9 2-.8 3.1 0 .3 0 .6.1.9 0 .2.1.4.1.6.2.6.6 1 1.3 1.3zm14.6-2.1c1 .3 1.6.9 1.9 1.7v.3c0 .2 0 .4-.1.6l-.2.5c-.3.4-.5.8-.8 1-.4.4-.9.6-1.4.6-.3 0-.6 0-.9-.2-.7-.4-1.1-.9-1.3-1.5 0-.1 0-.1-.1-.2v-.3c0-.4.1-.7.3-1l.6-.8.1-.1c.4-.4.8-.6 1.3-.6.1-.1.3-.1.6 0zm2.5-1.8l.1.1c0 .2-.3.3-1.1.3h-3.5c.4-.4.6-1 .6-2 .1-1.9.2-3 .3-3.4 0-.3.2-1.9.4-4.9.2-.5.8-.7 2-.8h3.7c.6 0 1 .2 1.2.7v.3c0 1-.8 2.7-2.4 5.1-.9 2.7-1.4 4.2-1.3 4.6zM30.3 33s-.2.1-.6.1c-.8 0-2.1.2-4 .5.1-.9.2-1.8.3-2.5.3-1.1.9-1.7 1.9-1.8.9-.1 2-.1 3.3-.2 1.4-.1 3-.1 5-.2.6.6 1 1.3 1.4 2.2.1.2.1.3.1.5v.5c0 .3-.1.5-.3.7-.4.2-1.4.3-2.7.4h-.4c-1.1 5.2-1.6 8.1-1.6 8.9h.1c.5 0 1.4-.2 2.8-.5l.1.3c.1.3.1.7.2.9v.4c0 1.1-.5 1.7-1.5 1.9-1.2.2-4 .6-8.6 1.2v-1.8c0-1.2.3-1.9.9-1.9h1.2c.4 0 .7-.1.8-.3.1-.2.4-1.4.9-3.7.3-2.4.6-4.2.7-5.6zm17.3 2.6l.1.1c-.5.5-.9 2-1.2 4.5-.1 1.4-.3 2.7-.4 4.1-.5.8-.9 1.2-1.4 1.2-.5 0-1-.3-1.5-1.1 0-.1-.1-.1-.1-.2V44c0-.1 0-.2-.1-.4 0-.8.1-2.1.4-4.1.5-2.8.9-4.2 1.2-4.2h-.1s-.1.1-.1.2h-.1s-.1 0-.1-.1c-.4 0-.7.1-1 .1-.8.1-1.2.3-1.4.4-.1.1-.2.1-.3.1-.4 0-.9-.7-1.3-2.2 0-.2-.1-.3-.1-.4l-.1-.3c1.5-.3 3-.6 4.3-.9 2.7-.5 4.6-.8 5.7-.9h.6c.4 0 .8.5 1.1 1.5.1.2.1.4.1.6v.3c0 .2 0 .3-.1.4-.1.1-1.4.4-3.8.7-.1.6-.2.8-.3.8zm22.1 2.2v.4c0 .2 0 .4.1.5 0 .1.1.2.1.3.2.7.6 1.3 1.2 1.8.4.3.9.5 1.6.4.7 0 1.3-.2 1.8-.6.4-.3.5-.6.5-.9v-.2s-.1-.2-.1-.3l2.4-1.2c.6.6.9 1.2 1.1 1.8 0 .1 0 .2.1.2v.3c0 .2 0 .3-.1.5-.3.9-1 1.7-2.2 2.3-1.1.6-2.3.9-3.5 1-.4 0-.8 0-1.2-.1-1-.2-1.9-.7-2.7-1.6-.7-.8-1.2-1.8-1.5-2.9-.2 0-.3-.3-.3-.5-.1-.3-.1-.6-.1-.9 0-.5 0-1 .2-1.5.5-1.7 1-2.9 1.4-3.7 1-1.7 2.4-2.6 4-2.7 1.3-.1 2.5.2 3.6.8 1 .5 1.6 1.1 1.9 1.9 0 .5-.2 1-.7 1.4-.4.4-.8.5-1.1.6-.1 0-.2 0-.4-.1-.8-1.4-1.7-2-2.7-2h-.3c-.5.1-1.2.7-1.8 1.9-.6 1-1.1 2.1-1.3 3.1zm13.6 6.1c-1.5-.1-2.3-.5-2.5-1.3V42c.2-1.4 1.5-3.7 3.7-6.8 2.2-3.1 3.7-4.7 4.5-4.8h.8c.4 0 .9.2 1.5.7.2.2.5.7.7 1.5.2.6.3 1.2.5 2 .2 1.1.4 2.5.6 4.1.1 1.3.2 2.2.3 2.9 0 .7 0 1.2-.2 1.2-.2.2-.6.3-1.1.3-.6 0-1-.1-1.3-.4-.1-.1-.1-.2-.2-.4v-.2c0-.2-.1-.4-.1-.7v-.3c-.4-.1-1-.1-1.6-.1-.9 0-1.8.2-2.7.5-.8.3-1.3.5-1.6.8l-1.3 1.6zm6.2-8.8c-.1 0-.2-.1-.3-.1-.5 0-1 .5-1.5 1.3-.3.5-.7 1.2-1 2l2.8-.3c.3-.2.5-.4.5-.4s-.1-.4-.2-1c-.1-.3-.1-.6-.1-.8 0-.2-.1-.4-.1-.5l-.1-.2zm14.7 2.4c.1-.6.2-1.9.5-4 .4-2.9.7-4.4 1-4.4h.4c.3 0 .7 0 1.1.1.8.2 1.2.4 1.3.8v.1c0 .4-.3 2.3-1.1 5.9-.7 3.2-1 5.1-1 5.5 0 0 0 .1.1.2 0 .1-.1.3-.3.4-.2.2-.4.2-.7.2-.7 0-1.4-.4-1.9-1.2-.1-.2-.8-1.4-2.1-3.5-.9-1.6-1.4-2.4-1.6-2.4-.1 0-.2.1-.3.3-.1.2-.1.4-.1.6 0 .1-.2 1.2-.4 3.3-.2 1.8-.3 2.9-.2 3.3v.1c0 .3-.2.4-.7.4-.5 0-1-.1-1.4-.3-.6-.3-.9-.7-1.1-1.3v-.1c.2-1.9.4-3.7.6-5.6.5-3.8 1.1-5.7 1.8-5.8.1 0 .2-.1.4-.2.2-.2.4-.2.6-.2.2 0 .5.1.7.3.5.4 1.2 1.5 2.2 3.3.8 1.4 1.5 2.8 2.2 4.2zm9.5-11.2c1 .3 1.6.9 1.8 1.7v.3c0 .2 0 .4-.1.6-.1.4-.3.9-.6 1.4-.3.7-.6 1.2-1.1 1.5-.2.1-.3.1-.5.1-.4 0-.8-.1-1.4-.4.4-.5.6-1 .6-1.2v-.1c-.1-.4-.6-.5-1.5-.5-.1-.2-.1-.3-.1-.4V29c0-.4.1-.8.3-1.1l.6-.8.1-.1c.4-.4.8-.6 1.3-.6.1-.2.3-.2.6-.1zm9.8 6.1l.1.1c-.5.5-.9 2-1.2 4.5-.1 1.4-.3 2.7-.4 4.1-.5.8-.9 1.2-1.4 1.2-.5 0-1-.3-1.5-1.1 0-.1-.1-.1-.1-.2v-.2c0-.1 0-.2-.1-.4 0-.8.1-2.1.4-4.1.5-2.8.9-4.2 1.2-4.2h-.1s-.1.1-.1.2h-.1s-.1 0-.1-.1c-.4 0-.7.1-1 .1-.8.1-1.2.3-1.4.4-.1.1-.2.1-.3.1-.4 0-.9-.7-1.3-2.2 0-.2-.1-.3-.1-.4l-.1-.3c1.5-.3 3-.6 4.3-.9 2.7-.5 4.6-.8 5.7-.9h.6c.4 0 .8.5 1.1 1.5.1.2.1.4.1.6v.3c0 .2 0 .3-.1.4-.1.1-1.4.4-3.8.7-.1.6-.2.8-.3.8zm25.8-5.2c1.6-.1 2.7 0 3.3.2.9.3 1.5.7 1.7 1.4v.4c0 .9-.5 1.9-1.5 3 .3.2.8.7 1.2 1.4.5.8 1 1.6 1.3 2.5 0 0 0 .1.1.2v.2c0 .9-.9 1.9-2.9 2.9-1.8.9-3.5 1.5-5.2 1.8-.2 0-.3.1-.5.1-.9 0-1.6-.2-2.3-.6-.7-.4-1.2-1-1.4-1.8 0-.1-.1-.2-.1-.3v-.4c.5-3.1.9-6.2 1.4-9 .4-1.3 2-1.9 4.9-2zm-1.1 11c.4 0 1.1-.3 2-.7.3-.2.7-.4 1-.8.3-.4.5-.7.5-1v-.2c-.1-.3-.3-.5-.8-.6-.2-.1-.5-.1-.8-.1-.9 0-2 .3-3.3.9-.1.6-.2 1-.2 1.4v.4c0 .1.1.2.1.2.4.4.9.6 1.5.5zm1.1-6.8c.9-.5 1.3-1.1 1.3-1.8v-.1c0-.2-.3-.2-.9-.2-.7 0-1.5.2-2.2.5l-.4 2.2c.9 0 1.6-.3 2.2-.6zM162 31h.1c.3 0 .7-.1 1.1-.2 1.2-.3 2-.4 2.5-.4.4 0 .7 0 .7.1l.6.6c.3.3.6.6.6.8v.1c0 .2-.1.4-.4.5-.3.1-1.4.6-3.2 1.2-1.6.6-2.4.8-2.5.8 0 0-.1.8-.4 2.3 2.4-1.2 4-1.9 5-1.9.2 0 .4 0 .6.1.3.2.6.5.9.9.3.4.5.7.6 1v.2c0 .2 0 .3-.2.4-.2.2-1.5.7-3.8 1.6-2.2.8-3.5 1.3-3.9 1.3h-.2c-1.6-.3-2.4-.8-2.6-1.4v-.3c0-1.3.2-3.3.6-6 .5-3.6 1-5.5 1.6-5.8.6-.2 1.6-.5 3-.8 1.6-.3 2.7-.5 3.5-.6.5 0 .9.1 1 .2.3.4.5.7.6 1.2v.4c0 .3-.1.5-.3.7-.2.2-1.2.4-3.1.7-1.6.3-2.4.4-2.4.4s0 .4-.1 1l.1.9zm11.6 4.4c1 .3 1.6.9 1.9 1.7v.3c0 .2 0 .4-.1.6l-.2.5c-.3.4-.5.8-.8 1-.4.4-.9.6-1.4.6-.3 0-.6 0-.9-.2-.7-.4-1.1-.9-1.3-1.5 0-.1 0-.1-.1-.2v-.3c0-.4.1-.7.3-1l.6-.8.1-.1c.4-.4.8-.6 1.3-.6.2-.1.4-.1.6 0zm2.5-1.8l.1.1c0 .2-.4.3-1.1.3h-3.5c.4-.4.6-1 .6-2 .1-1.9.2-3 .3-3.4 0-.3.2-1.9.4-4.9.2-.5.8-.7 2-.8h3.7c.6 0 1 .2 1.2.7v.3c0 1-.8 2.7-2.4 5.1-.8 2.7-1.3 4.2-1.3 4.6zM12.2 54.7s.1 0 .2.1c-.7.7-1.2 2.6-1.6 5.7-.2 1.7-.3 3.4-.5 5.1-.6 1-1.1 1.5-1.7 1.5-.6 0-1.2-.4-1.8-1.3 0-.1-.1-.1-.1-.2 0 0 0-.1-.1-.2 0-.1 0-.3-.1-.5 0-1 .1-2.7.5-5.1.6-3.4 1-5.2 1.4-5.2h-.1l-.1.1-.1-.1c-.1 0-.1 0-.1-.1-.5.1-.9.1-1.4.2-1 .2-1.6.3-1.7.5-.1.1-.2.1-.3.1-.5 0-1-.9-1.6-2.7V52c1.8-.4 3.6-.8 5.3-1.1 3.3-.7 5.7-1.1 7.1-1.1h.7c.5.1 1 .7 1.3 1.9.1.3.2.5.2.7v.4c0 .2 0 .4-.1.4-.2.1-1.7.4-4.7.9l-.6.6zM25 57.9c1.6-.2 2.8-.4 3.5-.4.1-.8.1-1.7.2-2.6 0-1.1.1-1.7.5-1.8.4-.1.8-.2 1.1-.2.8 0 1.3.2 1.5.7v.1c0 .2.1.4.1.6v1.6c0 .6-.1.9-.2 1-.2 1.1-.3 2.2-.5 3.3-.4 2.3-.5 3.8-.5 4.3v.1c-.2.3-.3.7-.5 1-.2.3-.5.5-.9.5h-.2c-.6-.1-1-.5-1.3-1.2.1-1.7.3-3.3.4-4.9-.2 0-.5.1-1 .1-1.3.1-2.2.2-2.7.3-.1.5-.2 1.1-.3 1.9 0 1.1-.2 2.3-.6 3.3-.3.5-.6.8-.8.8-.4 0-.9-.1-1.3-.2-.5-.2-.9-.5-1-1 0 0 0-.1-.1-.1v-.7c.1-.4.4-2.4 1-5.8.8-3.6 1.2-5.6 1.5-5.9.1-.2.3-.3.6-.3.4 0 .9.2 1.4.7.5.4.8.7.9 1 0 .2-.1.3-.3.3 0-.1-.2 1.1-.5 3.5zm13.8-1.6h.1c.3 0 .7-.1 1.1-.2 1.2-.3 2-.4 2.5-.4.4 0 .7 0 .7.1s.3.3.6.6c.4.3.6.6.6.8v.1c0 .2-.1.4-.4.5-.3.1-1.4.6-3.2 1.2-1.6.6-2.4.8-2.5.8 0 0-.1.8-.4 2.3 2.4-1.2 4-1.9 5-1.9.2 0 .4 0 .6.1.3.2.6.5.9.9.3.4.5.7.6 1v.2c0 .2 0 .3-.2.4-.2.2-1.5.7-3.8 1.6-2.2.8-3.5 1.3-3.9 1.3h-.2c-1.6-.3-2.4-.8-2.6-1.4V64c0-1.3.2-3.3.6-6 .5-3.6 1-5.5 1.6-5.8.6-.2 1.6-.5 3-.8 1.6-.3 2.7-.5 3.5-.6.5 0 .9.1 1 .2.3.4.5.7.6 1.2v.4c0 .3-.1.5-.3.7-.2.2-1.2.4-3.1.7-1.6.3-2.4.4-2.4.4s0 .4-.1 1l.1.9zm31.8-2.2v1c0 .7-.1 2.1-.3 4-.4 2.2-.8 3.5-1.1 3.9-.9 1.1-2.1 1.6-3.3 1.7-.9 0-1.9-.2-2.9-.6-.5-.3-1.1-.6-1.6-.8-.6-.3-1-.9-1.4-2-.1-.3-.1-.5-.2-.8-.1-.3-.1-.6-.1-.9v-1.2c.1-.6.5-.9 1.1-.9.4 0 .8.1 1.2.4.3.2.5.4.6.6v-.2.4c0 .2 0 .4.1.6.1.3.2.7.3 1.1.2.7.4 1.1.6 1.2.6.3 1.2.4 1.8.4.6 0 1-.2 1.3-.7.1-.1.3-1.1.5-3 0-1.2.1-2.3.2-3.4v-.2h-.5c-1 0-1.7-.3-1.8-1 0 0 0-.1-.1-.1v-.8c.2-1.1 1.4-1.8 3.7-2 .6 0 1-.1 1.3-.1.8 0 1.3 0 1.6.1.3.1.5.3.6.7l.1.4c0 .2.1.3.1.4v.2c0 .2-.1.5-.2.7-.3.4-.7.6-1.3.7-.1.2-.2.2-.3.2zm7.1 10.1c-1.5-.1-2.3-.5-2.5-1.3v-.6c.2-1.4 1.5-3.7 3.7-6.8 2.2-3.1 3.7-4.7 4.5-4.8h.8c.4 0 .9.2 1.5.7.2.2.5.7.7 1.5.2.6.3 1.2.5 2 .2 1.1.4 2.5.6 4.1.1 1.3.2 2.2.3 2.9 0 .7 0 1.2-.2 1.2-.2.2-.6.3-1.1.3-.6 0-1-.1-1.3-.4-.1-.1-.1-.2-.2-.4v-.2c0-.2-.1-.4-.1-.7v-.3c-.4-.1-1-.1-1.6-.1-.9 0-1.8.2-2.7.5-.8.3-1.3.5-1.6.8l-1.3 1.6zm6.2-8.9c-.1 0-.2-.1-.3-.1-.5 0-1 .5-1.5 1.3-.3.5-.7 1.2-1 2l2.8-.3c.3-.2.5-.4.5-.4s-.1-.4-.2-1c-.1-.3-.2-.6-.2-.8 0-.2-.1-.4-.1-.5v-.2c-.1 0-.1 0 0 0zm8.7 1.6v.4c0 .2 0 .4.1.5 0 .1.1.2.1.3.2.7.6 1.3 1.2 1.8.4.3.9.5 1.6.4.7 0 1.3-.2 1.8-.6.4-.3.5-.6.5-.9v-.2s-.1-.2-.1-.3l2.4-1.2c.6.6.9 1.2 1.1 1.8 0 .1 0 .2.1.2v.3c0 .2 0 .3-.1.5-.3.9-1 1.7-2.2 2.3-1.1.6-2.3.9-3.5 1-.4 0-.8 0-1.2-.1-1-.2-1.9-.7-2.7-1.6-.7-.8-1.2-1.8-1.5-2.9-.1-.3-.2-.5-.2-.8-.1-.3-.1-.6-.1-.9 0-.5 0-1 .2-1.5.5-1.7 1-2.9 1.4-3.7 1-1.7 2.4-2.6 4.1-2.7 1.3-.1 2.5.2 3.6.8 1 .5 1.6 1.1 1.9 1.9 0 .5-.2 1-.7 1.4-.4.4-.8.5-1.1.6-.1 0-.2 0-.4-.1-.8-1.4-1.7-2-2.7-2h-.3c-.5.1-1.2.7-1.8 1.9-.8 1.3-1.3 2.3-1.5 3.4zm18.3-1.2c.4.1 1.5.8 3.2 1.9 2 1.3 3.1 2.2 3.3 2.5v.2c0 .3-.2.6-.6 1-.5.4-.9.6-1.3.6-.2 0-.4-.1-.5-.3-.1-.2-2.4-1.5-6.8-4-.4 2.7-.8 4.3-1 4.9-.1.2-.3.4-.6.4-.5 0-1.1-.2-1.8-.7-.7-.5-1-.8-1.1-1v-.1c.2-.7.5-1.2.6-1.6-.2-.4-.4-.7-.5-1l-.1-.1v-.1c0-.2.1-.4.3-.7.3-.4.7-.7 1.1-.8.2-.1.5-1.4.8-3.8.1-1.1.3-2.4.4-4.1 0-.3.3-.4.8-.4s.9.1 1.5.3c.5.2.9.5 1 .8v.1c0 1.3-.1 2.1-.1 2.6l-.2.5c.1 0 .2 0 .4.1.2-.1 1.1-.7 2.6-1.8 1.9-1.4 2.9-2.1 3-2.2.1 0 .2-.1.3-.1.3 0 .7.1 1.3.4.5.3.9.5 1.1.8 0 0 .1.1.1.2 0 .6-2.3 2.4-6.9 5.4-.3 0-.3.1-.3.1zm15.6-7.9c.3-.1.6-.1 1-.1 1.1 0 2.2.1 3.2.4 1.4.4 2.4 1.1 3 2.1.1.1.1.2.2.3v.3c0 .7-.4 1.5-1.2 2.4-.9 1-2 2-3.4 2.9-1.5.9-2.8 1.5-4.1 1.6 0 .1-.1.6-.4 1.5-.4 1.3-.6 2-.7 2.2-.3.5-.7.8-1.2.8s-1-.2-1.6-.6c-.4-.4-.7-.7-.8-1.1v-.1c0-.1 0-.2.2-.3.6-.4 1.2-1.8 1.7-4.1.2-1.3.5-2.6.7-3.9v-.2c0-.1 0-.2-.1-.4 0-.1-.1-.2-.1-.4-.1-.3-.1-.5-.2-.7 0-.2 0-.3-.1-.4v-.1c0-.7 1.3-1.4 3.9-2.1zm4.4 2.8c-.2-.2-.9-.3-2-.3-1.3.1-2.1.3-2.4.8-.1.1-.2.7-.5 1.7-.2.9-.3 1.5-.3 1.7.3 0 .9-.2 1.6-.5.7-.3 1.2-.6 1.5-.9.4-.4.9-.8 1.3-1.3.6-.5.9-.9.8-1.2zm19.2 1.4c0 .1.1.3.1.4 0 .3.1.5.1.8.1 1.5-.4 3.3-1.4 5.4-.4.8-1.3 1.5-2.7 2.1-1.1.4-2.3.7-3.6.7-1.4.1-2.5-.1-3.5-.6-1.2-.6-2-1.5-2.4-2.7-.1-.3-.1-.6-.2-.9-.1-.4-.1-.8-.1-1.2 0-.9.1-1.8.3-2.7.5-1.6 1.3-2.9 2.4-4 1.3-1.1 2.7-1.7 4.4-1.8 1.4-.1 2.8.3 4 1.2 1.3.8 2.2 1.9 2.6 3.3zm-9 6.3c.5.2 1.1.3 1.8.3 1.1 0 2.2-.9 3.3-2.5.8-1.3 1.2-2.4 1.2-3.4 0-.2 0-.3-.1-.5 0-.1 0-.2-.1-.3-.2-.6-.6-1-1.3-1.3-.6-.3-1.2-.4-1.9-.3-1.6.1-2.8.8-3.6 2.1-.6 1-.9 2-.8 3.1 0 .3 0 .6.1.9 0 .2.1.4.1.6.2.6.6 1 1.3 1.3zm18.7-7.4l.1.1c-.5.5-.9 2-1.2 4.5-.1 1.4-.3 2.7-.4 4.1-.5.8-.9 1.2-1.4 1.2-.5 0-1-.3-1.5-1.1 0-.1-.1-.1-.1-.2v-.2c0-.1 0-.2-.1-.4 0-.8.1-2.1.4-4.1.5-2.8.9-4.2 1.2-4.2h-.1s-.1.1-.1.2h-.1s-.1 0-.1-.1c-.4 0-.7.1-1 .1-.8.1-1.2.3-1.4.4-.1.1-.2.1-.3.1-.4 0-.9-.7-1.3-2.2 0-.2-.1-.3-.1-.4l-.1-.3c1.5-.3 3-.6 4.3-.9 2.7-.5 4.6-.8 5.7-.9h.6c.4 0 .8.5 1.1 1.5.1.2.1.4.1.6v.3c0 .2 0 .3-.1.4-.1.1-1.4.4-3.8.7-.1.6-.2.7-.3.8zm23.1-1.7s-.2.1-.4.1c-.6 0-1.7.2-3.2.4.1-.8.2-1.5.3-2.1.2-.9.8-1.4 1.6-1.5.7-.1 1.6-.1 2.7-.2 1.1 0 2.4-.1 4-.1.5.5.9 1.1 1.1 1.8 0 .1.1.3.1.4v.4c0 .3-.1.5-.3.6-.4.2-1.2.4-2.3.4h-.3c-.9 4-1.3 6.3-1.3 7 .4 0 1.1-.1 2.3-.4l.1.3c.1.3.1.5.1.8v.3c0 .9-.5 1.4-1.3 1.5-1 .1-3.3.5-6.9 1l-.1-.4v-1.2c0-1 .3-1.5.8-1.6h.9c.3 0 .5-.1.6-.2.1-.1.3-1.1.7-3 .5-1.8.7-3.3.8-4.3zm20.6-1.7v.4c0 .3-.1.6-.3.9-.3.4-.7.6-1.2.6-.7 0-1.2-.3-1.5-1.1-.1-.2-.4-.4-.9-.5-.5-.2-1.1-.2-1.6-.2s-.9.1-1.2.4c-.5.3-1 .6-1.5 1-.5.3-.7.6-.7.9v.2c.1.2.7.3 1.7.3.2 0 1-.1 2.3-.2h.4c2.6-.1 4.2.9 4.9 3.2.1.2.1.4.2.7v.5c0 .9-.5 1.8-1.5 2.8-1.2 1.1-2.6 1.7-4.2 1.8-2.7.1-4.9-.6-6.4-2.1-.1 0-.1-.1-.2-.2v-.1c0-.3.2-.6.7-1 .5-.5.9-.7 1.3-.7.3 0 .5.1.6.3.3.7 1.8 1.1 4.3 1.1h.3c.7 0 1.2-.2 1.5-.6.2-.3.4-.9.3-1.6v-.6c-.1-.3-.5-.5-1.4-.6-.8-.1-1.7-.2-2.8-.1-.9 0-1.5.1-1.7.2-.1 0-.3.1-.5.1-.5 0-1.1-.1-1.7-.3-.7-.3-1.1-.6-1.2-1.1 0-.1-.1-.2-.1-.3-.1-.3-.1-.6-.1-.8 0-.5 0-1 .2-1.4.2-.6.5-1.1 1.1-1.6.4-.4.9-.7 1.3-1 .3-.3.9-.5 1.7-.8.9-.3 1.8-.4 2.8-.5 2.2-.1 3.8.4 4.7 1.6.2-.1.4.1.4.4zM25.2 72.3c.4 0 .8.1 1.2.3.4.2.6.5.7.7v.1c0 .1 0 .2-.1.3-.1.1-.4 1.2-.8 3.4-.3 1.8-.5 3.1-.4 4 0 .2 0 .5.1.6 0 .1 0 .2.1.3.1.4.4.5.9.5.7 0 1.6-.3 2.5-.7.8-.4 1.3-.7 1.2-.8v-.1c0-.4.3-1.7.9-4 .6-2.4 1.1-3.8 1.3-4.2.1-.2.4-.4.7-.4.4 0 .9.1 1.4.5.6.3.9.6.9.8v.1c0 .1-.1.3-.2.3-.5.2-.9 1.9-1.4 5.1-.3 2.2-.4 3.9-.4 5 0 .3 0 .5.1.7 0 .1 0 .1.1.2v.3c-.6.2-1.1.2-1.5.3-1 0-1.6-.2-1.9-.8 0-.1-.1-.1-.2-.1-.6 0-1.9.6-4 1.6-.2.1-.3.1-.5.1-.6 0-1.3-.3-2-.9-.7-.6-1.1-1.3-1.4-2 0-.1-.1-.2-.1-.3v-.3c0-.6.2-2.1.6-4.4.1-.7.4-2.4.9-5.1.3-.7.7-1.1 1.3-1.1zm19.4-1c.3-.1.6-.1 1-.1 1.1 0 2.2.1 3.2.4 1.4.4 2.4 1.1 3 2.1.1.1.1.2.2.3v.3c0 .7-.4 1.5-1.2 2.4-.9 1-2 2-3.4 2.9-1.5.9-2.8 1.5-4.1 1.6 0 .1-.1.6-.4 1.5-.4 1.2-.6 2-.7 2.2-.3.5-.7.8-1.2.8s-1-.2-1.6-.6c-.4-.4-.7-.7-.8-1.1v-.1c0-.1 0-.2.2-.3.6-.4 1.2-1.8 1.7-4.1.2-1.3.5-2.6.7-3.9v-.2c0-.1 0-.2-.1-.4 0-.1-.1-.2-.1-.4-.1-.3-.1-.5-.2-.7 0-.2 0-.3-.1-.4v-.1c0-.7 1.3-1.4 3.9-2.1zm4.4 2.8c-.2-.2-.9-.3-2-.3-1.3.1-2.1.3-2.4.8-.1.1-.2.7-.5 1.7-.2.9-.3 1.5-.3 1.7.3 0 .9-.2 1.6-.5.7-.3 1.2-.6 1.5-.9.4-.4.9-.8 1.3-1.3.6-.5.8-.9.8-1.2zm25 .4l.1.1c-.5.5-.9 2-1.2 4.5-.1 1.4-.3 2.7-.4 4.1-.5.8-.9 1.2-1.4 1.2-.5 0-1-.3-1.5-1.1 0-.1-.1-.1-.1-.2v-.2c0-.1 0-.2-.1-.4 0-.8.1-2.1.4-4.1.5-2.8.9-4.2 1.2-4.2h-.1s-.1.1-.1.2h-.1s-.1 0-.1-.1c-.4 0-.7.1-1 .1-.8.1-1.2.3-1.4.4-.1.1-.2.1-.3.1-.4 0-.9-.7-1.3-2.2 0-.2-.1-.3-.1-.4l-.1-.3c1.5-.3 3-.6 4.3-.9 2.7-.5 4.6-.8 5.7-.9h.6c.4 0 .8.5 1.1 1.5.1.2.1.4.1.6v.3c0 .2 0 .3-.1.4-.1.1-1.4.4-3.8.7-.1.7-.3.8-.3.8zm20.6-.1c0 .1.1.3.1.4 0 .3.1.5.1.8.1 1.5-.4 3.3-1.4 5.4-.4.8-1.3 1.5-2.7 2.1-1.1.4-2.3.7-3.6.7-1.4.1-2.5-.1-3.5-.6-1.2-.6-2-1.5-2.4-2.7-.1-.3-.1-.6-.2-.9-.1-.4-.1-.8-.1-1.2 0-.9.1-1.8.3-2.7.5-1.6 1.3-2.9 2.4-4 1.3-1.1 2.7-1.7 4.4-1.8 1.4-.1 2.8.3 4 1.2 1.3.8 2.2 1.9 2.6 3.3zm-9 6.3c.5.2 1.1.3 1.8.3 1.1 0 2.2-.9 3.3-2.5.8-1.3 1.2-2.4 1.2-3.4 0-.2 0-.3-.1-.5 0-.1 0-.2-.1-.3-.2-.6-.6-1-1.3-1.3-.6-.3-1.2-.4-1.9-.3-1.6.1-2.8.8-3.6 2.1-.6 1-.9 2-.8 3.1 0 .3 0 .6.1.9 0 .2.1.4.1.6.3.6.7 1 1.3 1.3zm30.9-6c-.2.3-.6 1.2-1.2 2.7-1 2.2-1.5 3.8-1.7 4.6-.1.4-.5.6-1.3.7-.9 0-1.6-.2-2-.8-.1-.2-.2-.4-.3-.7-.1-.2-.1-.5-.2-.8-.2-1-.3-2.5-.4-4.4v-1.1c-.1-3.1.1-4.6.5-4.6 1.7.3 2.6.6 2.8 1.1v.2c-.1.3-.2 1.1-.2 2.5v1.7c.6-1 1.1-1.9 1.7-2.9 1-1.7 1.6-2.6 1.9-2.6h.2c.3 0 1-.3 2-.8l1.9 6.2c.4-.8.9-1.9 1.5-3.2 1.2-2.6 2-3.9 2.3-3.9h.1c1.3.5 2 1 2.1 1.4 0 .2-.7 2-2.1 5.4-1.2 3-1.8 4.7-1.8 5.2v.2c0 .5-1 1-3.1 1.5-1-3.6-2-6.1-2.7-7.6zm16.9-1.4c1.6-.2 2.8-.4 3.5-.4.1-.8.1-1.7.2-2.6 0-1.1.1-1.7.5-1.8.4-.1.8-.2 1.1-.2.8 0 1.3.2 1.5.7v.1c0 .2.1.4.1.6v1.6c0 .6-.1.9-.2 1-.2 1.1-.3 2.2-.5 3.3-.4 2.3-.5 3.8-.5 4.3v.1c-.2.3-.3.7-.5 1-.2.3-.5.5-.9.5h-.2c-.6-.1-1-.5-1.3-1.2.1-1.7.3-3.3.4-4.9-.2 0-.5.1-1 .1-1.3.1-2.2.2-2.7.3-.1.5-.2 1.1-.3 1.9 0 1.1-.2 2.3-.6 3.3-.3.5-.6.8-.8.8-.4 0-.9-.1-1.3-.2-.5-.2-.9-.5-1-1 0 0 0-.1-.1-.1v-.7c.1-.4.4-2.4 1-5.8.8-3.6 1.2-5.6 1.5-5.9.1-.2.3-.3.6-.3.4 0 .9.2 1.4.7.5.4.8.7.9 1 0 .2-.1.3-.3.3.1-.1-.1 1.1-.5 3.5zm12.2 8c-1.5-.1-2.3-.5-2.5-1.3v-.6c.2-1.4 1.5-3.7 3.7-6.8 2.2-3.1 3.7-4.7 4.5-4.8h.8c.4 0 .9.2 1.5.7.2.2.5.7.7 1.5.2.6.3 1.2.5 2 .2 1.1.4 2.5.6 4.1.1 1.3.2 2.2.3 2.9 0 .7 0 1.2-.2 1.2-.2.2-.6.3-1.1.3-.6 0-1-.1-1.3-.4-.1-.1-.1-.2-.2-.4v-.2c0-.2-.1-.4-.1-.7v-.3c-.4-.1-1-.1-1.6-.1-.9 0-1.8.2-2.7.5-.8.3-1.3.5-1.6.8l-1.3 1.6zm6.2-8.9c-.1 0-.2-.1-.3-.1-.5 0-1 .5-1.5 1.3-.3.5-.7 1.2-1 2l2.8-.3c.3-.2.5-.4.5-.4s-.1-.4-.2-1c-.1-.3-.1-.6-.1-.8 0-.2-.1-.4-.1-.5l-.1-.2c-.1.1-.1.1 0 0zm13.1-1.7l.1.1c-.5.5-.9 2-1.2 4.5-.1 1.4-.3 2.7-.4 4.1-.5.8-.9 1.2-1.4 1.2-.5 0-1-.3-1.5-1.1 0-.1-.1-.1-.1-.2v-.2c0-.1 0-.2-.1-.4 0-.8.1-2.1.4-4.1.5-2.8.9-4.2 1.2-4.2h-.1s-.1.1-.1.2h-.1s-.1 0-.1-.1c-.4 0-.7.1-1 .1-.8.1-1.2.3-1.4.4-.1.1-.2.1-.3.1-.4 0-.9-.7-1.3-2.2 0-.2-.1-.3-.1-.4l-.1-.3c1.5-.3 3-.6 4.3-.9 2.7-.5 4.6-.8 5.7-.9h.6c.4 0 .8.5 1.1 1.5.1.2.1.4.1.6v.3c0 .2 0 .3-.1.4-.1.1-1.4.4-3.8.7-.1.6-.3.8-.3.8zm9.4.4c.6-.4 1.1-.8 1.6-1 .7-.7 1.4-1.1 1.9-1.3l3-.6c.7-.2 1.2-.4 1.4-.7.1-.1.1-.2.1-.4v-.3c-.1-.4-.5-.7-1.3-.9-.8-.3-1.6-.5-2.5-.4h-.5c-.1.1-.9.4-2.2.9-1 .5-1.7.8-1.9 1-.1 0-.2.1-.3.1-.3 0-.7-.2-1.2-.8-.5-.5-.8-.9-.9-1.2v-.1c0-.2.1-.3.3-.4.7-.4 1.5-.8 2.3-1.2 1.5-.7 3-1 4.5-1.1h.5c1.4 0 2.9.4 4.5 1.2 1.5.7 2.3 1.4 2.6 2.1.1.2.2.5.3.7 0 .1.1.3.1.4 0 .2 0 .3.1.5.1 1.5-.9 2.6-3 3.2-.1 0-1.2.3-3.4.7-1.6.3-2.6.7-2.9.9-.4.3-.7.9-1 1.8-1.4-.6-2.2-1.1-2.4-1.6v-.2c-.1-.4 0-.9.3-1.3zm3 4.1c1 .3 1.6.9 1.9 1.7v.3c0 .2 0 .4-.1.6l-.2.5c-.3.4-.5.8-.8 1-.4.4-.9.6-1.4.6-.3 0-.6 0-.9-.2-.7-.4-1.1-.9-1.3-1.5 0-.1-.1-.2-.1-.2v-.3c0-.4.1-.7.3-1l.6-.8.1-.1c.4-.4.8-.6 1.3-.6h.6z" class="message-text-alt-st0"/>
</svg>
