<svg xmlns="http://www.w3.org/2000/svg" viewBox="0 0 386 90">
    <style>
        .st0{fill:#0c4f75}.st1{fill:#fff}
    </style>
    <path d="M18 31.5h7.5v-2.2l-1.9-.3v-5h6.3v-2.8h-6.3v-5h5.9l.2 2.2h2.8v-5H18v2.2l1.9.4v13l-1.9.3v2.2zM40.4 13.4h-5.5v2.2l1.9.4v9.5c0 2 .7 3.6 2 4.7s3.1 1.7 5.2 1.7c2.2 0 3.9-.6 5.3-1.7 1.3-1.1 2-2.7 2-4.7V16l1.9-.4v-2.2h-7.5v2.2l1.9.4v9.5c0 1.2-.3 2.1-1 2.7-.6.5-1.5.8-2.6.8s-2-.3-2.6-.9c-.6-.6-1-1.5-1-2.7V16l1.9-.4v-2.2h-1.9zM67.2 20.7h-6.1v-4.6h5.8l.2 2.2h2.8v-5H55.6v2.2l1.9.4v13l-1.9.4v2.2h14.3v-5h-2.8l-.1 2.2h-5.8v-5.2h6.1v-2.8zM86.7 31.5v-5.1H84l-.2 2.3h-5.1V16l1.9-.4v-2.2h-7.5v2.2l1.9.4v13l-1.9.4v2.2h13.6zM91.2 16v13l-1.9.4v2.2h7.5v-2.2l-1.9-.4V16l1.9-.4v-2.2h-7.5v2.2l1.9.4zM116 13.4h-5.6v2.2l1.9.4v9.6h-.1L105 13.4h-5.5v2.2l1.9.4v13l-1.9.4v2.2h7.5v-2.2l-2-.4v-9.6h.1l7.3 12.2h3.6V16l1.9-.4v-2.2H116zM135.4 22.5h-6.2v2.6l2.6.2v3.1c-.3.2-.6.3-1.1.4-.5.1-1 .2-1.8.2-1.6 0-2.9-.6-3.7-1.7-.9-1.1-1.3-2.6-1.3-4.4v-.6c0-1.9.4-3.4 1.3-4.6.9-1.2 2.1-1.8 3.7-1.8.7 0 1.3.1 1.9.3.5.2 1 .4 1.3.7l.5 2.4h2.7v-3.7c-.8-.8-1.8-1.4-2.9-1.8-1.2-.5-2.5-.7-3.9-.7-2.4 0-4.4.9-5.9 2.6-1.5 1.7-2.3 3.9-2.3 6.6v.6c0 2.6.8 4.8 2.3 6.4 1.5 1.6 3.5 2.5 6 2.5 1.7 0 3.2-.2 4.3-.7 1.1-.5 2-1 2.6-1.6v-7zM148.4 13.4v15.2l-2.3.4v2.5h8.7V29l-2.3-.4V13.4l2.3-.4v-2.6h-8.7V13l2.3.4zM178 25.2v3.3l-2.2.4v2.5h8.7V29l-2.3-.4V13.4l2.3-.4v-2.6h-7.8L171.2 26h-.1l-5.4-15.6H158V13l2.2.4v15.2l-2.2.4v2.5h8.7V29l-2.3-.4v-3.3L164 16h.1l5.6 15.6h2.8l5.7-15.6h.1l-.3 9.2zM187.2 31.5h7.2V29l-1.5-.3.9-2.9h6.8l.9 2.9-1.5.3v2.5h7.2V29l-1.5-.2-6.4-18.4H195l-6.4 18.4-1.5.2v2.5zm10.1-16.2l2.5 7.4H195l2.3-7.4zM226.9 21.1h-7.3v3l3 .2v3.6c-.3.2-.7.4-1.2.5-.5.1-1.2.2-2.1.2-1.9 0-3.3-.6-4.3-1.9-1-1.3-1.5-3-1.5-5.1v-.8c0-2.2.5-4 1.5-5.4 1-1.4 2.5-2 4.3-2 .8 0 1.5.1 2.2.3.6.2 1.1.5 1.5.8l.6 2.8h3.1V13c-.9-.9-2-1.6-3.4-2.1s-2.9-.8-4.5-.8c-2.8 0-5.1 1-6.9 3-1.8 2-2.6 4.6-2.6 7.7v.7c0 3.1.9 5.5 2.7 7.5 1.8 1.9 4.1 2.9 7 2.9 2 0 3.7-.3 5-.8 1.3-.5 2.3-1.2 3-1.8v-8.2zM232.7 13.4v15.2l-2.3.4v2.5h8.7V29l-2.3-.4V13.4l2.3-.4v-2.6h-8.7V13l2.3.4zM261.6 10.4h-6.5V13l2.3.4v11.2h-.1l-8.5-14.2h-6.4V13l2.2.4v15.2l-2.2.4v2.5h8.7V29l-2.3-.4V17.3h.1l8.5 14.2h4.2V13.4l2.3-.4v-2.6h-2.3zM264.7 31.5h7.2V29l-1.5-.3.9-2.9h6.8l.9 2.9-1.5.3v2.5h7.2V29l-1.5-.2-6.4-18.4h-4.3l-6.4 18.4-1.5.2v2.5zm10-16.2l2.5 7.4h-4.8l2.3-7.4zM285.3 10.4V16h3.2l.2-2.4h3.9v14.9l-2.3.4v2.5h8.8V29l-2.3-.4V13.7h3.9l.2 2.4h3.2v-5.6h-18.8zM309.2 13.4v15.2l-2.2.4v2.5h8.7V29l-2.3-.4V13.4l2.3-.4v-2.6H307V13l2.2.4zM338.1 20.8c0-3.1-.9-5.6-2.7-7.7-1.8-2-4.1-3-7-3-2.9 0-5.2 1-6.9 3-1.7 2-2.6 4.6-2.6 7.7v.3c0 3.1.9 5.7 2.6 7.7 1.8 2 4.1 3 6.9 3 2.9 0 5.2-1 6.9-3 1.8-2 2.7-4.6 2.7-7.7v-.3zm-4.2.3c0 2.2-.4 4-1.3 5.4-.9 1.4-2.2 2-4 2-1.8 0-3.1-.7-4-2-.9-1.4-1.3-3.2-1.3-5.4v-.3c0-2.2.4-4 1.3-5.3.9-1.4 2.2-2 4-2 1.8 0 3.1.7 4 2 .9 1.4 1.4 3.1 1.4 5.3v.3zM360.6 10.4h-6.5V13l2.3.4v11.2h-.1l-8.5-14.2h-6.4V13l2.2.4v15.2l-2.2.4v2.5h8.7V29l-2.3-.4V17.3h.1l8.5 14.2h4.2V13.4l2.3-.4v-2.6h-2.3zM17.2 60.3h7.5v-2.2l-1.9-.4v-5h6.3V50h-6.3v-5h5.9l.2 2.2h2.8v-5H17.2v2.2l1.9.4v13l-1.9.4v2.1zM39.6 42.2H34v2.2l1.9.4v9.5c0 2 .7 3.6 2 4.7s3.1 1.7 5.2 1.7c2.2 0 3.9-.6 5.3-1.7 1.3-1.1 2-2.7 2-4.7v-9.5l1.9-.4v-2.2h-7.5v2.2l1.9.4v9.5c0 1.2-.3 2.1-1 2.7-.6.6-1.5.9-2.7.9-1.1 0-2-.3-2.6-.9-.6-.6-1-1.5-1-2.7v-9.5l1.9-.4v-2.2h-1.7zM71.3 42.2h-5.6v2.2l1.9.4v9.6h-.1l-7.3-12.2h-5.5v2.2l1.9.4v13l-1.9.4v2.2h7.5v-2.2l-1.9-.4v-9.6h.1l7.3 12.2h3.6V44.8l1.9-.4v-2.2h-1.9zM77.6 42.2h-1.9v2.2l1.9.4v13l-1.9.4v2.2h8.2c2.2 0 4-.7 5.5-2.1 1.4-1.4 2.2-3.2 2.2-5.5v-3c0-2.2-.7-4-2.2-5.5-1.4-1.4-3.3-2.1-5.5-2.1h-6.3zm6.1 2.8c1.3 0 2.3.4 3.1 1.3.7.9 1.1 2 1.1 3.4v3c0 1.4-.4 2.6-1.1 3.5-.7.9-1.8 1.3-3.1 1.3h-2.4V45h2.4zM96.5 44.8v13l-1.9.4v2.2h7.5v-2.2l-1.9-.4v-13l1.9-.4v-2.2h-7.5v2.2l1.9.4zM121.3 42.2h-5.6v2.2l1.9.4v9.6h-.1l-7.3-12.2h-5.5v2.2l1.9.4v13l-1.9.4v2.2h7.5v-2.2l-1.9-.4v-9.6h.1l7.3 12.2h3.6V44.8l1.9-.4v-2.2h-1.9zM140.7 51.4h-6.2V54l2.6.2v3.1c-.3.2-.6.3-1.1.4-.5.1-1 .2-1.8.2-1.6 0-2.9-.6-3.7-1.7-.9-1.1-1.3-2.6-1.3-4.4v-.6c0-1.9.4-3.4 1.3-4.6.9-1.2 2.1-1.8 3.7-1.8.7 0 1.3.1 1.9.3.5.2 1 .4 1.3.7l.5 2.4h2.7v-3.7c-.8-.8-1.8-1.4-2.9-1.8-1.2-.5-2.5-.7-3.9-.7-2.4 0-4.4.9-5.9 2.6-1.5 1.7-2.3 3.9-2.3 6.6v.6c0 2.6.8 4.8 2.3 6.4 1.5 1.6 3.5 2.5 6 2.5 1.7 0 3.2-.2 4.3-.7 1.1-.5 2-1 2.6-1.6v-7zM165 47.8h-7.1v-5.3h6.8l.2 2.5h3.2v-5.8h-16.6v2.6l2.2.4v15.2l-2.2.4v2.5h16.7v-5.8H165l-.2 2.5H158v-6h7.1v-3.2zM174.1 39.2h-2.2v2.6l2.2.4v15.2l-2.2.4v2.5h9.5c2.6 0 4.7-.8 6.4-2.5 1.7-1.6 2.5-3.8 2.5-6.3V48c0-2.6-.8-4.7-2.5-6.3-1.7-1.6-3.8-2.5-6.4-2.5h-7.3zm7 3.3c1.5 0 2.7.5 3.6 1.5.9 1 1.3 2.4 1.3 4v3.5c0 1.7-.4 3-1.3 4s-2 1.5-3.6 1.5h-2.8V42.5h2.8zM200 39.2h-6.4v2.6l2.2.4v11c0 2.4.8 4.2 2.3 5.5 1.6 1.3 3.6 1.9 6.1 1.9 2.5 0 4.6-.6 6.1-1.9 1.6-1.3 2.3-3.1 2.3-5.5v-11l2.3-.4v-2.6h-8.7v2.6l2.2.4v11c0 1.4-.4 2.4-1.1 3.1-.8.7-1.8 1-3.1 1s-2.3-.3-3.1-1c-.7-.7-1.1-1.7-1.1-3.1v-11l2.3-.4v-2.6H200zM235 42.2c-.9-1-1.9-1.8-3.3-2.4-1.3-.6-2.8-.9-4.4-.9-2.9 0-5.2 1-7 3-1.8 2-2.7 4.5-2.7 7.6v.7c0 3.1.9 5.6 2.7 7.6 1.8 2 4.1 2.9 7 2.9 1.6 0 3.1-.3 4.4-.9 1.3-.6 2.4-1.4 3.3-2.4v-4.2h-3.1l-.4 2.8c-.4.4-.9.7-1.6 1-.7.2-1.5.4-2.3.4-1.8 0-3.2-.7-4.2-2s-1.5-3.1-1.5-5.2v-.7c0-2.1.5-3.9 1.5-5.2 1-1.3 2.4-2 4.2-2 .9 0 1.6.1 2.2.4.6.2 1.2.6 1.6 1l.4 2.8h3.1v-4.3zM238.2 60.3h7.2v-2.5l-1.5-.3.9-2.9h6.8l.9 2.9-1.5.3v2.5h7.2v-2.5l-1.5-.2-6.4-18.4H246l-6.4 18.4-1.5.2v2.5zm10.1-16.2l2.5 7.4H246l2.3-7.4zM258.8 39.2v5.6h3.2l.2-2.4h3.9v14.9l-2.3.4v2.5h8.8v-2.5l-2.3-.4V42.5h3.9l.2 2.4h3.2v-5.6h-18.8zM282.8 42.2v15.2l-2.3.4v2.5h8.7v-2.5l-2.3-.4V42.2l2.3-.4v-2.6h-8.7v2.6l2.3.4zM311.6 49.6c0-3.1-.9-5.6-2.7-7.7-1.8-2-4.1-3-7-3-2.9 0-5.2 1-6.9 3-1.7 2-2.6 4.6-2.6 7.7v.3c0 3.1.9 5.7 2.6 7.7 1.8 2 4.1 3 6.9 3 2.9 0 5.2-1 6.9-3 1.8-2 2.7-4.6 2.7-7.7v-.3zm-4.2.3c0 2.2-.4 4-1.3 5.4-.9 1.4-2.2 2-4 2-1.8 0-3.1-.7-4-2-.9-1.4-1.3-3.2-1.3-5.4v-.3c0-2.2.4-4 1.3-5.3.9-1.4 2.2-2 4-2 1.8 0 3.1.7 4 2 .9 1.4 1.4 3.1 1.4 5.3v.3zM334.1 39.2h-6.5v2.6l2.3.4v11.2h-.1l-8.5-14.2h-6.4v2.6l2.2.4v15.2l-2.2.4v2.5h8.7v-2.5l-2.3-.4V46.1h.1l8.5 14.2h4.2V42.2l2.3-.4v-2.6h-2.3z" class="st0"/>
    <path d="M25.7 75h-3.3v1.4l1.4.1v1.6c-.1.1-.3.2-.6.2-.2.1-.6.1-.9.1-.9 0-1.5-.3-2-.9-.5-.6-.7-1.4-.7-2.3v-.3c0-1 .2-1.8.7-2.4.5-.6 1.1-.9 2-.9.4 0 .7 0 1 .1.3.1.5.2.7.4l.3 1.3h1.4v-1.9c-.4-.4-.9-.7-1.6-1-.6-.4-1.3-.5-2.1-.5-1.3 0-2.3.5-3.1 1.4-.8.9-1.2 2.1-1.2 3.5v.3c0 1.4.4 2.5 1.2 3.4.8.9 1.9 1.3 3.2 1.3.9 0 1.7-.1 2.3-.4.6-.2 1.1-.5 1.4-.8V75zM36.1 74.9c0-1.4-.4-2.6-1.2-3.5-.8-.9-1.9-1.4-3.2-1.4-1.3 0-2.3.5-3.1 1.4-.8.9-1.2 2.1-1.2 3.5v.1c0 1.4.4 2.6 1.2 3.5.8.9 1.8 1.4 3.1 1.4s2.4-.5 3.2-1.4c.8-.9 1.2-2.1 1.2-3.5v-.1zm-1.9.1c0 1-.2 1.8-.6 2.4-.4.6-1 .9-1.8.9s-1.4-.3-1.8-.9c-.4-.6-.6-1.4-.6-2.4v-.2c0-1 .2-1.8.6-2.4.4-.6 1-.9 1.8-.9s1.4.3 1.8.9c.4.6.6 1.4.6 2.4v.2zM41.4 70.2v2.6h1.5l.1-1.1h1.8v6.8l-1 .2v1.2h4v-1.2l-1-.2v-6.8h1.8l.1 1.1H50v-2.6h-8.6zM59.8 74.9c0-1.4-.4-2.6-1.2-3.5-.8-.9-1.9-1.4-3.2-1.4-1.3 0-2.3.5-3.1 1.4-.8.9-1.2 2.1-1.2 3.5v.1c0 1.4.4 2.6 1.2 3.5.8.9 1.8 1.4 3.1 1.4s2.4-.5 3.2-1.4c.8-.9 1.2-2.1 1.2-3.5v-.1zm-1.9.1c0 1-.2 1.8-.6 2.4-.4.6-1 .9-1.8.9s-1.4-.3-1.8-.9c-.4-.6-.6-1.4-.6-2.4v-.2c0-1 .2-1.8.6-2.4.4-.6 1-.9 1.8-.9s1.4.3 1.8.9c.4.6.6 1.4.6 2.4v.2zM65.3 79.8h3.9v-1.2l-1-.2v-2.7h1.1l1.8 2.8-.6.1v1.2h3.8v-1.2l-1-.2-2.6-3.8 2.4-3.2 1-.2V70h-3.8v1.2l.6.1-1.9 2.8h-.8v-2.6l1-.2v-1.2h-3.9v1.2l1 .2v6.9l-1 .2v1.2zM79.1 70.2h-3.6v1.2l.8.1 2.6 4.8v2.1l-1 .2v1.2h4v-1.2l-1-.2v-2l2.6-4.9.8-.1v-1.2h-3.6v1.2l.8.1-1.5 3.2-1.5-3.2.8-.1v-1.2zM92.7 79.8v-2.7h-1.5l-.1 1.2h-2.7v-6.8l1-.2v-1.2h-3.9v1.2l1 .2v6.9l-1 .2v1.2h7.2zM102.6 74.9c0-1.4-.4-2.6-1.2-3.5-.8-.9-1.9-1.4-3.2-1.4-1.3 0-2.3.5-3.1 1.4-.8.9-1.2 2.1-1.2 3.5v.1c0 1.4.4 2.6 1.2 3.5.8.9 1.8 1.4 3.1 1.4s2.4-.5 3.2-1.4c.8-.9 1.2-2.1 1.2-3.5v-.1zm-1.9.1c0 1-.2 1.8-.6 2.4-.4.6-1 .9-1.8.9s-1.4-.3-1.8-.9c-.4-.6-.6-1.4-.6-2.4v-.2c0-1 .2-1.8.6-2.4.4-.6 1-.9 1.8-.9s1.4.3 1.8.9c.4.6.6 1.4.6 2.4v.2zM103.8 70.2v2.6h1.5l.1-1.1h1.8v6.8l-1 .2v1.2h4v-1.2l-1-.2v-6.8h1.8l.1 1.1h1.5v-2.6h-8.8zM113.6 70.2v2.6h1.5l.1-1.1h1.8v6.8l-1 .2v1.2h4v-1.2l-1-.2v-6.8h1.8l.1 1.1h1.5v-2.6h-8.8zM129.7 74.1h-3.2v-2.4h3.1l.1 1.1h1.5v-2.6h-7.6v1.2l1 .2v6.9l-1 .2v1.2h7.6v-2.6h-1.5l-.1 1.1h-3.1v-2.7h3.2v-1.6zM133.8 70.2h-1v1.2l1 .2v6.9l-1 .2v1.2h4v-1.2l-1-.2V76h1.6c.5 0 .8.2 1.1.4s.4.6.4 1.1v.5c0 .5.1 1 .4 1.3.3.3.7.5 1.3.5h1v-1.2h-.2c-.2 0-.3-.1-.4-.2-.1-.1-.1-.3-.1-.5v-.5c0-.6-.1-1.1-.4-1.4-.2-.4-.7-.7-1.2-.8.5-.2.9-.5 1.1-.9.3-.4.4-.8.4-1.3 0-.9-.3-1.6-.9-2.1-.6-.5-1.5-.7-2.6-.7h-3.5zm1.9 1.4h1.4c.5 0 .9.1 1.2.4.3.3.4.6.4 1s-.1.8-.4 1c-.3.2-.7.3-1.2.3h-1.3v-2.7zM145.6 70.2H142v1.2l.8.1 2.6 4.8v2.1l-1 .2v1.2h4v-1.2l-1-.2v-2l2.6-4.9.8-.1v-1.2H147v1.2l.8.1-1.5 3.2-1.5-3.2.8-.1v-1.2zM152.8 78.1h-1.9v1.7h1.9v-1.7zM162.4 71.5c-.4-.4-.9-.8-1.5-1.1-.6-.3-1.3-.4-2-.4-1.3 0-2.4.4-3.2 1.3-.8.9-1.2 2-1.2 3.4v.3c0 1.4.4 2.5 1.2 3.4.8.9 1.9 1.3 3.2 1.3.7 0 1.4-.1 2-.4.6-.3 1.1-.6 1.5-1.1v-1.9H161l-.2 1.3c-.2.2-.4.3-.7.4-.3.1-.7.2-1 .2-.8 0-1.4-.3-1.9-.9-.4-.6-.7-1.4-.7-2.4v-.3c0-1 .2-1.8.7-2.4.4-.6 1.1-.9 1.9-.9.4 0 .7.1 1 .2.3.1.5.3.7.4l.2 1.3h1.4v-1.7zM172.7 74.9c0-1.4-.4-2.6-1.2-3.5-.8-.9-1.9-1.4-3.2-1.4-1.3 0-2.3.5-3.1 1.4-.8.9-1.2 2.1-1.2 3.5v.1c0 1.4.4 2.6 1.2 3.5.8.9 1.8 1.4 3.1 1.4s2.4-.5 3.2-1.4c.8-.9 1.2-2.1 1.2-3.5v-.1zm-1.9.1c0 1-.2 1.8-.6 2.4-.4.6-1 .9-1.8.9s-1.4-.3-1.8-.9c-.4-.6-.6-1.4-.6-2.4v-.2c0-1 .2-1.8.6-2.4.4-.6 1-.9 1.8-.9s1.4.3 1.8.9c.4.6.6 1.4.6 2.4v.2zM183.2 76.9v1.5l-1 .2v1.2h4v-1.2l-1-.2v-6.9l1-.2v-1.2h-3.5l-2.5 7.1-2.4-7.1h-3.5v1.2l1 .2v6.9l-1 .2v1.2h4v-1.2l-1-.2v-1.5l-.2-4.2 2.6 7.1h1.3l2.6-7.1-.4 4.2zM192 70.2h-1.4L187 80.6h1.4l3.6-10.4zM194.2 70.2h-1v1.2l1 .2v6.9l-1 .2v1.2h4v-1.2l-1-.2v-2.1h1.6c1.1 0 2-.3 2.6-.8.6-.6 1-1.3 1-2.2 0-.9-.3-1.7-1-2.2-.6-.6-1.5-.8-2.6-.8h-3.6zm1.9 1.4h1.6c.5 0 .9.2 1.2.5.3.3.4.7.4 1.1 0 .5-.1.8-.4 1.1-.3.3-.7.4-1.2.4h-1.6v-3.1zM211.3 74.9c0-1.4-.4-2.6-1.2-3.5-.8-.9-1.9-1.4-3.2-1.4-1.3 0-2.3.5-3.1 1.4-.8.9-1.2 2.1-1.2 3.5v.1c0 1.4.4 2.6 1.2 3.5.8.9 1.8 1.4 3.1 1.4s2.4-.5 3.2-1.4c.8-.9 1.2-2.1 1.2-3.5v-.1zm-1.9.1c0 1-.2 1.8-.6 2.4-.4.6-1 .9-1.8.9s-1.4-.3-1.8-.9c-.4-.6-.6-1.4-.6-2.4v-.2c0-1 .2-1.8.6-2.4.4-.6 1-.9 1.8-.9s1.4.3 1.8.9c.4.6.6 1.4.6 2.4v.2zM221.8 76.9v1.5l-1 .2v1.2h4v-1.2l-1-.2v-6.9l1-.2v-1.2h-3.5l-2.5 7.1-2.4-7.1h-3.5v1.2l1 .2v6.9l-1 .2v1.2h4v-1.2l-1-.2v-1.5l-.2-4.2 2.6 7.1h1.3l2.6-7.1-.4 4.2zM227.1 70.2h-1v1.2l1 .2v6.9l-1 .2v1.2h4v-1.2l-1-.2v-2.1h1.6c1.1 0 2-.3 2.6-.8.6-.6 1-1.3 1-2.2 0-.9-.3-1.7-1-2.2-.6-.6-1.5-.8-2.6-.8h-3.6zm2 1.4h1.6c.5 0 .9.2 1.2.5.3.3.4.7.4 1.1 0 .5-.1.8-.4 1.1-.3.3-.7.4-1.2.4h-1.6v-3.1zM239.4 70.2v2.6h1.5l.1-1.1h1.8v6.8l-1 .2v1.2h4v-1.2l-1-.2v-6.8h1.8l.1 1.1h1.5v-2.6h-8.8zM257.8 74.9c0-1.4-.4-2.6-1.2-3.5-.8-.9-1.9-1.4-3.2-1.4-1.3 0-2.3.5-3.1 1.4-.8.9-1.2 2.1-1.2 3.5v.1c0 1.4.4 2.6 1.2 3.5.8.9 1.8 1.4 3.1 1.4s2.4-.5 3.2-1.4c.8-.9 1.2-2.1 1.2-3.5v-.1zm-1.9.1c0 1-.2 1.8-.6 2.4-.4.6-1 .9-1.8.9s-1.4-.3-1.8-.9c-.4-.6-.6-1.4-.6-2.4v-.2c0-1 .2-1.8.6-2.4.4-.6 1-.9 1.8-.9s1.4.3 1.8.9c.4.6.6 1.4.6 2.4v.2zM274.4 79.8v-2.7H273l-.1 1.2h-2.7v-6.8l1-.2v-1.2h-3.9v1.2l1 .2v6.9l-1 .2v1.2h7.1zM282 74.1h-3.2v-2.4h3.1l.1 1.1h1.5v-2.6h-7.6v1.2l1 .2v6.9l-1 .2v1.2h7.6v-2.6H282l-.1 1.1h-3.1v-2.7h3.2v-1.6zM285 79.8h3.3v-1.2l-.7-.1.4-1.3h3.1l.4 1.3-.7.1v1.2h3.3v-1.2l-.7-.1-2.9-8.3h-2l-2.9 8.3-.7.1v1.2zm4.6-7.4l1.1 3.4h-2.2l1.1-3.4zM296.5 70.2h-1v1.2l1 .2v6.9l-1 .2v1.2h4v-1.2l-1-.2V76h1.6c.5 0 .8.2 1.1.4.2.3.4.6.4 1.1v.5c0 .5.1 1 .4 1.3.3.3.7.5 1.3.5h1v-1.2h-.2c-.2 0-.3-.1-.4-.2-.1-.1-.1-.3-.1-.5v-.5c0-.6-.1-1.1-.4-1.4-.2-.4-.7-.7-1.2-.8.5-.2.9-.5 1.1-.9.3-.4.4-.8.4-1.3 0-.9-.3-1.6-.9-2.1-.6-.5-1.5-.7-2.6-.7h-3.5zm1.9 1.4h1.4c.5 0 .9.1 1.2.4.3.3.4.6.4 1s-.1.8-.4 1c-.3.2-.7.3-1.2.3h-1.3v-2.7zM314.2 70.2h-2.9v1.2l1 .2v5.1l-3.9-6.5h-2.9v1.2l1 .2v6.9l-1 .2v1.2h4v-1.2l-1-.2v-5.1l3.9 6.5h1.9v-8.2l1-.2v-1.2h-1.1zM329.5 76.9v1.5l-1 .2v1.2h4v-1.2l-1-.2v-6.9l1-.2v-1.2H329l-2.5 7.1-2.4-7.1h-3.5v1.2l1 .2v6.9l-1 .2v1.2h4v-1.2l-1-.2v-1.5l-.2-4.2 2.6 7.1h1.3l2.6-7.1-.4 4.2zM342.6 74.9c0-1.4-.4-2.6-1.2-3.5-.8-.9-1.9-1.4-3.2-1.4-1.3 0-2.3.5-3.1 1.4-.8.9-1.2 2.1-1.2 3.5v.1c0 1.4.4 2.6 1.2 3.5.8.9 1.8 1.4 3.1 1.4s2.4-.5 3.2-1.4c.8-.9 1.2-2.1 1.2-3.5v-.1zm-1.9.1c0 1-.2 1.8-.6 2.4-.4.6-1 .9-1.8.9s-1.4-.3-1.8-.9c-.4-.6-.6-1.4-.6-2.4v-.2c0-1 .2-1.8.6-2.4.4-.6 1-.9 1.8-.9s1.4.3 1.8.9c.4.6.6 1.4.6 2.4v.2zM345.1 70.2h-1v1.2l1 .2v6.9l-1 .2v1.2h4v-1.2l-1-.2V76h1.6c.5 0 .8.2 1.1.4.2.3.4.6.4 1.1v.5c0 .5.1 1 .4 1.3.3.3.7.5 1.3.5h1v-1.2h-.2c-.2 0-.3-.1-.4-.2-.1-.1-.1-.3-.1-.5v-.5c0-.6-.1-1.1-.4-1.4-.2-.4-.7-.7-1.2-.8.5-.2.9-.5 1.1-.9.3-.4.4-.8.4-1.3 0-.9-.3-1.6-.9-2.1-.6-.5-1.5-.7-2.6-.7h-3.5zm1.9 1.4h1.4c.5 0 .9.1 1.2.4.3.3.4.6.4 1s-.1.8-.4 1c-.3.2-.7.3-1.2.3H347v-2.7zM360.2 74.1H357v-2.4h3.1l.1 1.1h1.5v-2.6H354v1.2l1 .2v6.9l-1 .2v1.2h7.6v-2.6h-1.5l-.1 1.1h-3v-2.7h3.2v-1.6zM365.7 78.1h-1.9v1.7h1.9v-1.7z" class="st1"/>
</svg>
