<svg xmlns="http://www.w3.org/2000/svg" viewBox="0 0 386 90">
    <style>
        .st0{fill:#0c4f75}
    </style>
    <path d="M27.2 37.4h6.6V35l-1.3-.2.9-2.7h6.3l.9 2.7-1.5.2v2.3h6.6V35l-1.4-.2-5.9-16.9h-4l-5.9 16.9-1.3.2v2.4zm9.2-15l2.3 6.9h-4.5l2.2-6.9zM63.1 37.4V32h-3l-.2 2.4h-5.5V20.6l2.1-.4v-2.4h-8.1v2.4l2.1.4v14l-2.1.4v2.3h14.7zM84.2 31.6v3.1l-2 .3v2.3h8.1V35l-2.1-.4v-14l2.1-.4v-2.4H83l-5 14.3h-.1l-5-14.3H65.7v2.4l2.1.4v14l-2 .4v2.3h8.1V35l-2.1-.4v-3.1l-.4-8.5h.1l5.2 14.4h2.6L84.5 23h.1l-.4 8.6zM110.8 27.5c0-2.8-.8-5.2-2.5-7.1-1.6-1.9-3.8-2.8-6.4-2.8-2.6 0-4.7.9-6.4 2.8-1.6 1.9-2.4 4.2-2.4 7.1v.3c0 2.9.8 5.2 2.4 7.1 1.6 1.9 3.7 2.8 6.4 2.8 2.6 0 4.8-.9 6.4-2.8 1.6-1.9 2.4-4.2 2.4-7.1v-.3zm-3.9.3c0 2-.4 3.7-1.2 5-.8 1.3-2.1 1.9-3.7 1.9s-2.9-.6-3.7-1.9c-.8-1.3-1.2-2.9-1.2-5v-.3c0-2 .4-3.7 1.2-4.9.8-1.2 2-1.9 3.7-1.9 1.6 0 2.9.6 3.7 1.9.8 1.3 1.3 2.9 1.3 4.9v.3zM128.5 20.1c-.8-.8-1.9-1.4-3.1-1.8-1.2-.5-2.6-.7-4.1-.7-2 0-3.7.5-5 1.5-1.3 1-2 2.3-2 3.9s.6 2.9 1.8 3.8c1.2.9 2.9 1.7 5.2 2.4 1.3.4 2.3.8 2.8 1.3s.8 1.1.8 1.8-.3 1.3-.8 1.8c-.6.4-1.4.7-2.4.7-.8 0-1.6-.1-2.3-.3-.7-.2-1.2-.5-1.6-.8l-.4-2.8h-3V35c.8.9 1.9 1.5 3.1 2 1.2.5 2.6.7 4.2.7 2.2 0 3.9-.5 5.2-1.4 1.3-1 2-2.3 2-3.9s-.6-2.9-1.7-3.9-2.7-1.8-4.9-2.4c-1.5-.5-2.6-.9-3.2-1.3-.6-.4-.9-1-.9-1.6 0-.7.3-1.3.9-1.7.6-.4 1.4-.7 2.5-.7.7 0 1.4.1 2.1.2.7.2 1.1.3 1.5.6l.5 2.7h2.9v-4.2zM131.4 17.9v5.2h3l.2-2.2h3.6v13.7l-2.1.4v2.3h8.1V35l-2.1-.4V20.9h3.6l.2 2.2h3v-5.2h-17.5zM164.2 26.3c-.3.3-.6.4-1.1.4-.5 0-.9-.2-1.2-.5-.3-.3-.5-.8-.5-1.5h-2.2c0 1.1.3 2 .9 2.6.6.6 1.4.9 2.4 1v1.5h1.2v-1.5c1-.1 1.7-.4 2.3-1 .6-.5.8-1.3.8-2.2 0-.9-.3-1.6-.8-2.2-.6-.5-1.4-1-2.6-1.4-.6-.2-1-.5-1.3-.7-.2-.3-.3-.6-.3-1s.1-.8.3-1c.2-.3.6-.4 1-.4s.8.2 1 .5c.3.3.4.8.4 1.4h2.2c0-1-.2-1.8-.8-2.4-.5-.6-1.2-1-2.1-1.1v-1.7h-1.2v1.7c-.9.1-1.7.4-2.3 1-.6.6-.8 1.3-.8 2.1 0 .9.3 1.7.8 2.2.6.5 1.4 1 2.6 1.4.6.2 1 .5 1.2.7.2.3.4.6.4 1 .1.5 0 .8-.3 1.1zM173.3 28.9h2.2c1 0 1.8.2 2.3.7.5.5.8 1.2.8 2.3 0 .9-.3 1.5-.8 2s-1.2.8-2.1.8c-.8 0-1.5-.2-2-.7-.5-.5-.8-1.1-.8-1.9H169v.1c0 1.8.6 3.1 1.9 4.1 1.3 1 2.9 1.4 4.7 1.4 2 0 3.7-.5 5-1.5 1.3-1 2-2.4 2-4.2 0-1.1-.3-2-.9-2.8-.6-.8-1.4-1.4-2.5-1.8.9-.4 1.7-1 2.2-1.8.5-.8.8-1.6.8-2.4 0-1.8-.6-3.2-1.8-4.1-1.2-1-2.8-1.4-4.8-1.4-1.8 0-3.3.5-4.6 1.5-1.2 1-1.8 2.3-1.8 3.8v.1h3.8c0-.7.3-1.3.8-1.7.5-.4 1.1-.6 1.9-.6.8 0 1.5.2 1.9.7.4.5.7 1.1.7 1.9 0 .9-.2 1.5-.7 2-.4.5-1.1.7-2.1.7h-2.2v2.8zM195.4 17.8h-2.1v2.4l2.1.4v14l-2.1.4v2.3h9.6c2.3 0 4-.5 5.2-1.4 1.2-1 1.9-2.4 1.9-4.2 0-1.1-.3-2-.9-2.9-.6-.8-1.5-1.4-2.6-1.6.9-.4 1.6-.9 2.1-1.6.5-.7.7-1.5.7-2.4 0-1.8-.6-3.1-1.9-4-1.3-.9-3.1-1.3-5.4-1.3h-6.6zm7.8 10.9c1 0 1.7.3 2.2.8.5.5.7 1.2.7 2.2 0 .9-.3 1.6-.8 2-.5.5-1.3.7-2.4.7h-3.6v-5.6h3.9zm-3.9-7.9h2.7c1.1 0 2 .2 2.5.6.6.4.9 1.1.9 2 0 .8-.3 1.4-.8 1.9-.6.4-1.4.6-2.4.6h-2.8v-5.1zM215 20.6v14l-2.1.4v2.3h8.1V35l-2.1-.4v-14l2.1-.4v-2.4h-8.1v2.4l2.1.4zM238.5 37.4v-5.5h-3l-.2 2.5h-5.5V20.6l2.1-.4v-2.4h-8.1v2.4l2.1.4v14l-2.1.4v2.3h14.7zM256 37.4v-5.5h-3l-.2 2.5h-5.5V20.6l2.1-.4v-2.4h-8.1v2.4l2.1.4v14l-2.1.4v2.3H256zM260.8 20.6v14l-2.1.4v2.3h8.1V35l-2.1-.4v-14l2.1-.4v-2.4h-8.1v2.4l2.1.4zM287.6 27.4c0-2.8-.8-5.2-2.5-7.1-1.6-1.9-3.8-2.8-6.4-2.8-2.6 0-4.8.9-6.4 2.8-1.6 1.9-2.4 4.2-2.4 7.1v.3c0 2.9.8 5.2 2.4 7.1 1.6 1.9 3.8 2.8 6.4 2.8 2.6 0 4.8-.9 6.4-2.8 1.6-1.9 2.5-4.2 2.5-7.1v-.3zm-3.9.3c0 2.1-.4 3.7-1.2 5-.8 1.3-2.1 1.9-3.7 1.9s-2.9-.6-3.7-1.9c-.8-1.3-1.2-2.9-1.2-5v-.3c0-2 .4-3.7 1.2-4.9.8-1.3 2-1.9 3.7-1.9 1.6 0 2.9.6 3.7 1.9.8 1.3 1.3 2.9 1.3 4.9v.3zM308.4 17.8h-6v2.4l2.1.4V31h-.1l-7.9-13.1h-6v2.4l2.1.4v14l-2.1.4v2.3h8.1V35l-2.1-.4V24.2h.1l7.9 13.1h3.9V20.6l2.1-.4v-2.4h-2.1zM321 17.9v5.2h3l.2-2.2h3.6v13.7l-2.1.4v2.3h8.1V35l-2.1-.4V20.9h3.6l.2 2.2h3v-5.2H321zM358.4 27.5c0-2.8-.8-5.2-2.5-7.1-1.6-1.9-3.8-2.8-6.4-2.8-2.6 0-4.7.9-6.4 2.8-1.6 1.9-2.4 4.2-2.4 7.1v.3c0 2.9.8 5.2 2.4 7.1 1.6 1.9 3.7 2.8 6.4 2.8 2.6 0 4.8-.9 6.4-2.8 1.6-1.9 2.4-4.2 2.4-7.1v-.3zm-3.9.3c0 2-.4 3.7-1.2 5-.8 1.3-2.1 1.9-3.7 1.9s-2.9-.6-3.7-1.9c-.8-1.3-1.2-2.9-1.2-5v-.3c0-2 .4-3.7 1.2-4.9.8-1.2 2-1.9 3.7-1.9 1.6 0 2.9.6 3.7 1.9.8 1.3 1.3 2.9 1.3 4.9v.3zM17.6 53.6c-.8-.8-1.9-1.4-3.1-1.8-1.2-.5-2.6-.7-4.1-.7-2 0-3.7.5-5 1.5-1.3 1-2 2.3-2 3.9s.6 2.9 1.8 3.8c1.2.9 2.9 1.7 5.2 2.4 1.3.4 2.3.8 2.8 1.3s.8 1.1.8 1.8-.3 1.3-.8 1.8c-.6.4-1.4.7-2.4.7-.8 0-1.6-.1-2.3-.3-.7-.2-1.2-.5-1.6-.8l-.4-2.8h-3v4.1c.8.9 1.9 1.5 3.1 2 1.2.5 2.6.7 4.2.7 2.2 0 3.9-.5 5.2-1.4 1.3-1 2-2.3 2-3.9s-.6-2.9-1.7-3.9-2.7-1.8-4.9-2.4c-1.5-.5-2.6-.9-3.2-1.3-.6-.4-.9-1-.9-1.6 0-.7.3-1.3.9-1.7.6-.4 1.4-.7 2.5-.7.7 0 1.4.1 2.1.2.7.2 1.1.3 1.5.6l.5 2.7h2.9v-4.2zM36.7 54.1c-.8-.9-1.8-1.6-3-2.2-1.2-.5-2.6-.8-4.1-.8-2.6 0-4.8.9-6.4 2.7s-2.5 4.1-2.5 7v.7c0 2.8.8 5.2 2.5 7 1.7 1.8 3.8 2.7 6.4 2.7 1.5 0 2.9-.3 4.1-.8 1.2-.5 2.2-1.3 3-2.2v-3.8h-2.9l-.4 2.6c-.3.4-.8.7-1.5.9-.6.2-1.3.3-2.1.3-1.7 0-2.9-.6-3.8-1.9-.9-1.2-1.4-2.8-1.4-4.8v-.7c0-2 .5-3.6 1.4-4.8.9-1.2 2.2-1.8 3.9-1.8.8 0 1.5.1 2.1.3.6.2 1.1.5 1.5.9l.4 2.6h2.9v-3.9zM41.9 54.1v14l-2.1.4v2.3h8.1v-2.3l-2.1-.4v-5.3h7.9v5.3l-2.1.4v2.3h8.1v-2.3l-2.1-.4v-14l2.1-.4v-2.4h-8.1v2.4l2.1.4v5.6h-7.9v-5.6l2.1-.4v-2.4h-8.1v2.4l2.1.4zM80.4 60.9c0-2.8-.8-5.2-2.5-7.1-1.6-1.9-3.8-2.8-6.4-2.8-2.6 0-4.7.9-6.4 2.8-1.6 1.9-2.4 4.2-2.4 7.1v.3c0 2.9.8 5.2 2.4 7.1 1.6 1.9 3.7 2.8 6.4 2.8 2.6 0 4.8-.9 6.4-2.8 1.6-1.9 2.4-4.2 2.4-7.1v-.3zm-3.9.3c0 2-.4 3.7-1.2 5-.8 1.3-2.1 1.9-3.7 1.9s-2.9-.6-3.7-1.9c-.8-1.3-1.2-2.9-1.2-5v-.3c0-2 .4-3.7 1.2-4.9.8-1.2 2-1.9 3.7-1.9 1.6 0 2.9.6 3.7 1.9.8 1.3 1.3 2.9 1.3 4.9v.3zM98 70.8v-5.4h-3l-.2 2.4h-5.5V54.1l2.1-.4v-2.4h-8.1v2.4l2.1.4v14l-2.1.4v2.3H98zM100.5 70.8h6.6v-2.3l-1.3-.2.9-2.7h6.3l.9 2.7-1.3.2v2.3h6.6v-2.3l-1.4-.2-5.9-16.9h-4L102 68.3l-1.4.2v2.3zm9.3-15l2.3 6.9h-4.5l2.2-6.9zM123.8 51.3h-2.1v2.4l2.1.4v14l-2.1.4v2.3h8.1v-2.3l-2.1-.4V63h3.2c.9 0 1.6.3 2.1.8s.8 1.3.8 2.2v1.1c0 1.1.3 2 .8 2.7.5.7 1.4 1 2.7 1h2v-2.4l-.5-.1c-.4 0-.7-.2-.8-.4-.2-.2-.3-.6-.3-1v-1c0-1.2-.3-2.1-.8-2.9-.5-.8-1.3-1.4-2.5-1.7 1-.4 1.8-1 2.3-1.8.5-.7.8-1.6.8-2.6 0-1.8-.6-3.2-1.9-4.2-1.3-1-3-1.5-5.2-1.5h-6.6zm3.9 3.1h2.8c1.1 0 1.8.3 2.4.8.5.5.8 1.2.8 2.1 0 .9-.3 1.5-.8 2s-1.4.7-2.4.7h-2.7v-5.6zM156.7 53.6c-.8-.8-1.9-1.4-3.1-1.8-1.2-.5-2.6-.7-4.1-.7-2 0-3.7.5-5 1.5-1.3 1-2 2.3-2 3.9s.6 2.9 1.8 3.8c1.2.9 2.9 1.7 5.2 2.4 1.3.4 2.3.8 2.8 1.3s.8 1.1.8 1.8-.3 1.3-.8 1.8c-.6.4-1.4.7-2.4.7-.8 0-1.6-.1-2.3-.3-.7-.2-1.2-.5-1.6-.8l-.4-2.8h-3v4.1c.8.9 1.9 1.5 3.1 2 1.2.5 2.6.7 4.2.7 2.2 0 3.9-.5 5.2-1.4 1.3-1 2-2.3 2-3.9s-.6-2.9-1.7-3.9-2.7-1.8-4.9-2.4c-1.5-.5-2.6-.9-3.2-1.3-.6-.4-.9-1-.9-1.6 0-.7.3-1.3.9-1.7.6-.4 1.4-.7 2.5-.7.7 0 1.4.1 2.1.2.7.2 1.1.3 1.5.6l.5 2.7h2.9v-4.2zM162 54.1v14l-2.1.4v2.3h8.1v-2.3l-2.1-.4v-5.3h7.9v5.3l-2.1.4v2.3h8.1v-2.3l-2.1-.4v-14l2.1-.4v-2.4h-8.1v2.4l2.1.4v5.6h-7.9v-5.6l2.1-.4v-2.4h-8.1v2.4l2.1.4zM184.8 54.1v14l-2.1.4v2.3h8.1v-2.3l-2.1-.4v-14l2.1-.4v-2.4h-8.1v2.4l2.1.4zM195.7 51.3h-2.1v2.4l2.1.4v14l-2.1.4v2.3h8.1v-2.3l-2.1-.4v-4.3h3.3c2.2 0 4-.6 5.3-1.7 1.3-1.1 1.9-2.6 1.9-4.5s-.6-3.4-1.9-4.5c-1.3-1.1-3-1.7-5.3-1.7h-7.2zm3.9 3.1h3.3c1.1 0 1.9.3 2.5.9.6.6.8 1.4.8 2.3 0 .9-.3 1.7-.8 2.3-.6.6-1.4.9-2.5.9h-3.3v-6.4zM227.4 53.6c-.8-.8-1.9-1.4-3.1-1.8-1.2-.5-2.6-.7-4.1-.7-2 0-3.7.5-5 1.5-1.3 1-2 2.3-2 3.9s.6 2.9 1.8 3.8c1.2.9 2.9 1.7 5.2 2.4 1.3.4 2.3.8 2.8 1.3s.8 1.1.8 1.8-.3 1.3-.8 1.8c-.6.4-1.4.7-2.4.7-.8 0-1.6-.1-2.3-.3-.7-.2-1.2-.5-1.6-.8l-.4-2.8h-3v4.1c.8.9 1.9 1.5 3.1 2 1.2.5 2.6.7 4.2.7 2.2 0 3.9-.5 5.2-1.4 1.3-1 2-2.3 2-3.9s-.6-2.9-1.7-3.9-2.7-1.8-4.9-2.4c-1.5-.5-2.6-.9-3.2-1.3-.6-.4-.9-1-.9-1.6 0-.7.3-1.3.9-1.7.6-.4 1.4-.7 2.5-.7.7 0 1.4.1 2.1.2.7.2 1.1.3 1.5.6l.5 2.7h2.9v-4.2zM240.3 69.6c1.1 1 2.7 1.5 4.6 1.5.9 0 1.8-.1 2.6-.4.8-.2 1.6-.6 2.3-1.1l1 1.2h4.3v-.1l-2.8-3.3c.6-.8 1.1-1.7 1.4-2.8.3-1 .5-2.2.5-3.4h-2.9c0 .7-.1 1.4-.3 2-.2.6-.4 1.2-.7 1.7l-3.7-4.3 1.2-.9c.8-.5 1.4-1.2 1.8-1.9.4-.7.7-1.5.7-2.4 0-1.2-.4-2.3-1.3-3.2-.9-.9-2-1.3-3.5-1.3-1.6 0-2.9.5-3.9 1.4-1 .9-1.4 2.2-1.4 3.7 0 .7.1 1.4.4 2.1.3.7.8 1.4 1.4 2.2-1.2.8-2.1 1.6-2.6 2.4-.6.8-.9 1.7-.9 2.7.1 1.8.6 3.1 1.8 4.2zm2.9-2.3c-.5-.5-.7-1.2-.7-2 0-.4.1-.8.2-1.2.2-.4.5-.8.9-1.2l.3-.2 4 4.7c-.4.2-.9.4-1.4.5-.5.1-.9.2-1.4.2-.8 0-1.4-.3-1.9-.8zm1-12.6c.3-.4.8-.6 1.3-.6s1 .2 1.3.5c.3.3.5.7.5 1.2 0 .4-.1.8-.3 1.1-.2.3-.5.7-1 1l-1.1.7c-.4-.5-.7-.9-.9-1.3-.2-.4-.3-.8-.3-1.2.1-.6.2-1.1.5-1.4zM281.4 61.2h-6.7v2.7l2.8.2v3.3c-.3.2-.7.3-1.1.5-.5.1-1.1.2-1.9.2-1.7 0-3.1-.6-4-1.8-.9-1.2-1.4-2.8-1.4-4.7v-.7c0-2 .5-3.7 1.4-4.9.9-1.3 2.3-1.9 4-1.9.8 0 1.4.1 2 .3.6.2 1.1.4 1.4.7l.5 2.6h2.9v-3.9c-.8-.8-1.9-1.5-3.1-2-1.3-.5-2.7-.7-4.2-.7-2.6 0-4.7.9-6.4 2.7-1.6 1.8-2.4 4.2-2.4 7.1v.7c0 2.8.8 5.1 2.5 6.9 1.6 1.8 3.8 2.6 6.4 2.6 1.9 0 3.4-.3 4.6-.8 1.2-.5 2.1-1.1 2.8-1.7v-7.4zM286.8 51.3h-2.1v2.4l2.1.4v14l-2.1.4v2.3h8.1v-2.3l-2.1-.4V63h3.2c.9 0 1.6.3 2.1.8s.8 1.3.8 2.2v1.1c0 1.1.3 2 .8 2.7.5.7 1.4 1 2.7 1h2v-2.4l-.5-.1c-.4 0-.7-.2-.8-.4-.2-.2-.3-.6-.3-1v-1c0-1.2-.3-2.1-.8-2.9-.5-.8-1.3-1.4-2.5-1.7 1-.4 1.8-1 2.3-1.8.5-.7.8-1.6.8-2.6 0-1.8-.6-3.2-1.9-4.2-1.3-1-3-1.5-5.2-1.5h-6.6zm3.9 3.1h2.8c1.1 0 1.8.3 2.4.8.5.5.8 1.2.8 2.1 0 .9-.3 1.5-.8 2s-1.4.7-2.4.7h-2.7v-5.6zM304.7 70.8h6.6v-2.3l-1.3-.2.9-2.7h6.3l.9 2.7-1.3.2v2.3h6.6v-2.3l-1.4-.2-6-17h-4l-5.9 16.9-1.4.2v2.4zm9.2-15l2.3 6.9h-4.5l2.2-6.9zM343.7 51.3h-6v2.4l2.1.4v10.3h-.1l-7.9-13.1h-5.9v2.4l2.1.4v14l-2.1.4v2.3h8.1v-2.3l-2.1-.4V57.7h.1l7.9 13.1h3.9V54.1l2.1-.4v-2.4h-2.2zM348.2 51.3v5.2h3l.2-2.2h3.6V68l-2.1.4v2.3h8.1v-2.3l-2.1-.4V54.4h3.6l.2 2.2h3v-5.2h-17.5zM382.7 53.6c-.8-.8-1.9-1.4-3.1-1.8-1.2-.5-2.6-.7-4.1-.7-2 0-3.7.5-5 1.5-1.3 1-2 2.3-2 3.9s.6 2.9 1.8 3.8c1.2.9 2.9 1.7 5.2 2.4 1.3.4 2.3.8 2.8 1.3s.8 1.1.8 1.8-.3 1.3-.8 1.8c-.6.4-1.4.7-2.4.7-.8 0-1.6-.1-2.3-.3-.7-.2-1.2-.5-1.6-.8l-.4-2.8h-3v4.1c.8.9 1.9 1.5 3.1 2 1.2.5 2.6.7 4.2.7 2.2 0 3.9-.5 5.2-1.4 1.3-1 2-2.3 2-3.9s-.6-2.9-1.7-3.9-2.7-1.8-4.9-2.4c-1.5-.5-2.6-.9-3.2-1.3-.6-.4-.9-1-.9-1.6 0-.7.3-1.3.9-1.7.6-.4 1.4-.7 2.5-.7.7 0 1.4.1 2.1.2.7.2 1.1.3 1.5.6l.5 2.7h2.9v-4.2z" class="st0"/>
</svg>
