<svg xmlns="http://www.w3.org/2000/svg" viewBox="0 0 152.9 147.8">
  <style>
    .messagetext-st0{fill:#EA4D7D;}
  </style>
  <path d="M7.1 9.4c2.1-.4 3.7-.7 4.6-.8 0-1.1 0-2.2.1-3.4-.1-1.4 0-2.2.4-2.3.5-.2 1-.3 1.4-.3 1-.1 1.6.2 1.8.8 0 .1.1.1.1.2.1.3.1.5.1.8 0 .2.1.4.1.7 0 .4.1.9.1 1.4 0 .8-.1 1.2-.1 1.3-.1 1.4-.3 2.9-.4 4.3-.3 3-.4 4.9-.3 5.6v.2c-.2.4-.4.9-.5 1.2-.2.4-.5.6-1 .7h-.3c-.8 0-1.3-.5-1.7-1.4 0-2.2.1-4.3.1-6.3-.3.1-.7.1-1.4.2-1.6.3-2.8.5-3.5.5-.1.7-.1 1.5-.2 2.5.1 1.5-.1 2.9-.5 4.3-.3.7-.6 1-1 1.1-.6.1-1.1 0-1.6-.2-.7-.2-1.1-.6-1.4-1.2 0-.1 0-.1-.1-.2 0-.1-.1-.2-.1-.3v-.6c.1-.6.4-3.1.9-7.5.9-4.7 1.4-7.3 1.7-7.8.1-.2.4-.4.7-.4.5 0 1.1.2 1.8.7.7.6 1.1 1 1.2 1.2 0 .2-.1.3-.3.3-.1.1-.3 1.6-.7 4.7zm25.7-1c0 .1.1.3.1.4.1.3.1.5.1.8.2 1.5-.2 3.4-1.1 5.6-.4.9-1.2 1.6-2.6 2.3-1.2.5-2.4.8-3.6 1-1.4.1-2.6 0-3.6-.4-1.3-.5-2.2-1.4-2.6-2.6l-.3-.9c-.1-.4-.2-.8-.2-1.3-.1-.9 0-1.9.2-2.8.4-1.7 1.1-3.1 2.3-4.3 1.2-1.2 2.7-1.9 4.4-2.1 1.4-.1 2.8.2 4.1 1 1.4.8 2.3 1.9 2.8 3.3zm-8.8 7c.6.2 1.2.3 1.9.2 1.2-.1 2.2-1 3.2-2.7.8-1.3 1.1-2.5 1-3.6 0-.2 0-.3-.1-.5 0-.1-.1-.2-.1-.3-.2-.6-.7-1-1.4-1.3-.6-.2-1.3-.2-2-.2-1.6.2-2.8 1-3.6 2.4-.6 1-.8 2.1-.7 3.2 0 .3.1.6.2.9.1.2.1.4.2.6.2.6.7 1 1.4 1.3zm18.6-6.7c-.1.4-.5 1.3-1.1 2.8-.9 2.3-1.3 3.9-1.4 4.9 0 .4-.5.7-1.3.8-.9.1-1.6-.1-2.1-.7-.1-.2-.2-.4-.3-.7-.1-.2-.2-.5-.2-.8-.3-1.1-.5-2.6-.7-4.5 0-.4-.1-.8-.1-1.2-.3-3.1-.2-4.7.2-4.8 1.8.2 2.8.5 2.9.9v.2c-.1.3-.1 1.1 0 2.6 0 .7.1 1.3.1 1.7.5-1 1-2 1.6-3.1.9-1.8 1.5-2.7 1.8-2.7h.2c.3 0 1-.3 2-.9l2.3 6.3c.4-.9.8-2 1.3-3.4C49 3.3 49.7 1.9 50 1.9h.1c1.4.5 2.1.9 2.3 1.3 0 .2-.6 2.1-1.8 5.7-1.1 3.2-1.6 5-1.6 5.4 0 0 0 .1.1.1v.1c0 .5-1 1-3.1 1.7-1.3-3.5-2.5-6-3.4-7.5zm10.7 2.2c1.1.3 1.7.8 2 1.6v1l-.2.5c-.2.5-.5.8-.8 1.1-.4.4-.9.6-1.4.7-.3 0-.7 0-1-.1-.7-.3-1.2-.8-1.4-1.5 0-.1-.1-.2-.1-.2 0-.1 0-.2-.1-.3 0-.4 0-.7.2-1l.6-.9.1-.1c.4-.4.8-.7 1.3-.7.3-.2.5-.2.8-.1zm7.3-.8c1.1.3 1.7.8 2 1.6v1l-.2.5c-.2.5-.5.8-.8 1.1-.4.4-.9.6-1.4.7-.3 0-.7 0-1-.1-.7-.3-1.2-.8-1.4-1.5 0-.1-.1-.2-.1-.2 0-.1 0-.2-.1-.3 0-.4 0-.7.2-1l.6-.9.1-.1c.4-.4.8-.7 1.3-.7.3-.1.5-.1.8-.1zM18.6 46l.1.1v.1c0 .2-.1.3-.3.5-.2.2-.5.3-.9.3-.9.1-1.7-.3-2.5-1.3-.2-.2-1.2-1.7-3-4.4-1.3-2-2.1-2.9-2.3-2.9-.2 0-.3.2-.4.5-.1.2-.1.5-.1.8 0 .2-.1 1.6-.2 4.2-.1 2.3-.1 3.7-.1 4.2v.2c0 .3-.2.5-.8.5-.6.1-1.2 0-1.8-.3-.7-.3-1.2-.8-1.4-1.5v-.1c.1-2.5.2-4.9.4-7.2.4-4.8 1-7.3 1.8-7.5.1 0 .3-.1.6-.3.3-.2.5-.3.8-.4.3 0 .5.1.8.3.7.5 1.7 1.8 3.1 4.1 1.2 1.8 2.3 3.6 3.2 5.5.1-.7.2-2.4.4-5.3.3-3.7.6-5.6 1-5.7.2 0 .3-.1.5-.1.4 0 .9 0 1.4.1 1 .1 1.5.4 1.7.9v.1c0 .5-.3 3-1 7.6-.7 4-1.1 6.4-1 7zm8.7-10.2c2.6-.5 4.4-.9 5.5-1 .8-.1 1.2-.1 1.3.1.1.1.4.4.9.7.5.4.7.7.8.9v.1c0 .2-.1.5-.4.6-.5.3-2.1.7-4.8 1.1-1.8.3-3.2.5-4 .6l-.5.1h-.3c-.2 0-.6-.2-1.2-.6-.7-.5-1.1-.9-1.2-1.3v-.2c0-.1 0-.2.1-.3.1 0 1.4-.3 3.8-.8zm20.2 3.4c0-.6.1-2 .3-4.1.2-3 .5-4.5.8-4.6.1 0 .3 0 .4-.1h1.1c.8.1 1.2.4 1.4.8v.1c0 .4-.2 2.4-.8 6.1-.5 3.4-.8 5.3-.7 5.7 0 0 .1.1.1.2s-.1.3-.2.4c-.2.2-.4.3-.7.3-.7.1-1.4-.3-2.1-1.1-.1-.2-.9-1.3-2.4-3.5-1-1.6-1.6-2.3-1.8-2.3-.1 0-.2.1-.3.3 0 .2-.1.4-.1.6 0 .1-.1 1.3-.2 3.4-.1 1.9-.1 3-.1 3.4v.1c0 .3-.2.4-.7.5-.5.1-1 0-1.5-.2-.6-.3-1-.7-1.2-1.2v-.1c.1-1.9.2-3.8.3-5.8.3-3.9.8-5.9 1.5-6.1.1 0 .2-.1.4-.3.2-.2.4-.3.6-.3.2 0 .5.1.7.2.5.4 1.4 1.5 2.5 3.3 1.1 1.5 1.9 2.9 2.7 4.3zm20.9-5.9c0 .1.1.3.1.4.1.3.1.5.1.8.2 1.5-.2 3.4-1.1 5.6-.4.9-1.2 1.6-2.7 2.3-1.2.5-2.4.8-3.6 1-1.4.1-2.6 0-3.6-.4-1.3-.5-2.2-1.4-2.6-2.6l-.3-.9c-.1-.4-.2-.8-.2-1.3-.1-.9 0-1.9.2-2.8.4-1.7 1.1-3.1 2.3-4.3 1.2-1.2 2.7-1.9 4.4-2.1 1.5-.1 2.9.2 4.2.9 1.3.9 2.3 2 2.8 3.4zm-8.9 7.1c.6.2 1.2.3 1.9.2 1.2-.1 2.2-1 3.2-2.7.8-1.3 1.1-2.5 1-3.6 0-.2 0-.3-.1-.5 0-.1-.1-.2-.1-.3-.2-.6-.7-1-1.4-1.3-.6-.2-1.3-.3-1.9-.2-1.6.2-2.8 1-3.6 2.4-.6 1-.8 2.1-.7 3.2 0 .3.1.6.2.9.1.2.1.4.2.6.2.6.6 1 1.3 1.3zm14.9-3.1c1.1.3 1.7.8 2 1.6v1l-.2.5c-.2.5-.5.8-.8 1.1-.4.4-.9.6-1.4.7-.3 0-.7 0-1-.1-.7-.3-1.2-.8-1.4-1.5 0-.1-.1-.2-.1-.2 0-.1 0-.2-.1-.3 0-.4 0-.7.2-1l.6-.9.1-.1c.4-.4.8-.7 1.3-.7.3-.2.6-.2.8-.1zm7.3-.8c1.1.3 1.7.8 2 1.6v1l-.2.5c-.2.5-.5.8-.8 1.1-.4.4-.9.6-1.4.7-.3 0-.7 0-1-.1-.7-.3-1.2-.8-1.4-1.5 0-.1-.1-.2-.1-.2 0-.1 0-.2-.1-.3 0-.4 0-.7.2-1l.6-.9.1-.1c.4-.4.8-.7 1.3-.7.3-.1.5-.1.8-.1zm13.1-2.1c0-.6.1-2 .3-4.1.2-3 .5-4.5.8-4.6.1 0 .3-.1.4-.1h1.1c.8.1 1.2.4 1.4.8v.1c0 .4-.2 2.4-.8 6.1-.5 3.4-.8 5.3-.7 5.7 0 0 .1.1.1.2s-.1.3-.2.4c-.2.2-.4.3-.7.3-.7.1-1.4-.3-2.1-1.1-.1-.2-.9-1.3-2.4-3.5-1-1.6-1.6-2.3-1.8-2.3-.1 0-.2.1-.3.3 0 .2-.1.4-.1.6 0 .1-.1 1.3-.2 3.4-.1 1.9-.1 3-.1 3.4v.1c0 .3-.2.4-.7.5-.5.1-1 0-1.5-.2-.6-.3-1-.7-1.2-1.2v-.1c.1-1.9.2-3.8.3-5.8.3-3.9.8-5.9 1.5-6.1.1 0 .2-.1.4-.3.2-.2.4-.3.6-.3.2 0 .5.1.7.2.5.4 1.4 1.5 2.5 3.3 1.1 1.5 1.9 2.9 2.7 4.3zm20.9-5.8c0 .1.1.3.1.4.1.3.1.5.1.8.2 1.5-.2 3.4-1.1 5.6-.4.9-1.2 1.6-2.7 2.3-1.2.5-2.4.8-3.6 1-1.4.1-2.6 0-3.6-.4-1.3-.5-2.2-1.4-2.6-2.6l-.3-.9c-.1-.4-.2-.8-.2-1.3-.1-.9 0-1.9.2-2.8.4-1.7 1.1-3.1 2.3-4.3 1.2-1.2 2.7-1.9 4.4-2.1 1.5-.1 2.9.2 4.2.9 1.3.9 2.3 2 2.8 3.4zm-8.9 7c.6.2 1.2.3 1.9.2 1.2-.1 2.2-1 3.2-2.7.8-1.3 1.1-2.5 1-3.6 0-.2 0-.3-.1-.5 0-.1-.1-.2-.1-.3-.2-.6-.7-1-1.4-1.3-.6-.2-1.3-.3-1.9-.2-1.6.2-2.8 1-3.6 2.4-.6 1-.8 2.1-.7 3.2 0 .3.1.6.2.9.1.2.1.4.2.6.2.6.6 1 1.3 1.3zm14.9-3.1c1.1.3 1.7.8 2 1.6v1l-.2.5c-.2.5-.5.8-.8 1.1-.4.4-.9.6-1.4.7-.3 0-.7 0-1-.1-.7-.3-1.2-.8-1.5-1.5 0-.1 0-.1-.1-.2 0-.1 0-.2-.1-.3 0-.4 0-.7.2-1l.6-.9.1-.1c.4-.4.8-.7 1.3-.7.4-.1.6-.1.9-.1zm2.4-1.9l.1.1c0 .2-.3.3-1.1.4-.5 0-1.1.1-1.9.1-.3 0-.8 0-1.6.1.3-.4.5-1.1.5-2.1 0-1.9.1-3.1.1-3.5 0-.3.1-2 .2-5 .1-.5.8-.8 2-.9.3 0 .9-.1 1.8-.1.5 0 1-.1 1.4-.1.2 0 .3 0 .5-.1h.1c.7-.1 1.1.1 1.3.6v.3c.1 1-.6 2.8-2.1 5.4-.9 2.8-1.3 4.4-1.3 4.8zM10.9 61.3s-.2.1-.6.1c-.7.1-1.9.3-3.5.6 0-.8.1-1.6.2-2.2.2-1 .7-1.6 1.6-1.7.8-.1 1.7-.2 2.9-.3 1.2-.1 2.7-.3 4.4-.4.5.5 1 1.1 1.3 1.9.1.1.1.3.1.4 0 .1 0 .2.1.3v.1c0 .3 0 .5-.2.6-.5.3-1.3.5-2.4.6h-.3c-.7 4.6-1 7.3-1 7.9h.1c.4 0 1.2-.2 2.4-.6l.1.3c.1.3.2.6.2.8v.4c0 1-.4 1.6-1.2 1.7l-7.5 1.5-.1-.4c0-.2 0-.3-.1-.5v-.8c0-1.1.2-1.7.7-1.8l1-.1c.3 0 .6-.1.7-.3.1-.2.3-1.3.6-3.3.3-2 .4-3.6.5-4.8zm15.4 1.4c-.3.6-.6 1.9-.8 4.1-.1 1.2-.1 2.4-.2 3.6-.4.7-.8 1.1-1.2 1.2-.5 0-.9-.2-1.3-.9l-.1-.1v-.1c0-.1 0-.2-.1-.4-.1-.7 0-1.9.2-3.6.3-2.5.5-3.7.8-3.8h-.1l-.1.1h-.2c-.2.1-.5.2-.8.2-.7.2-1.1.3-1.2.4-.1.1-.2.1-.2.1-.4 0-.8-.6-1.3-1.8 0-.2-.1-.3-.1-.3l-.1-.2c1.3-.4 2.6-.7 3.8-1 2.3-.6 4-1 5-1.1h.5c.4 0 .7.4 1.1 1.3.1.2.1.4.2.5 0 .1 0 .2.1.3 0 .2 0 .3-.1.3-.1.1-1.2.4-3.3.8-.4.2-.5.4-.5.4zm19.5.8v.3c0 .2 0 .3.1.5 0 .1.1.2.1.3.2.6.6 1.1 1.1 1.5.3.3.8.4 1.5.3.7-.1 1.2-.3 1.6-.6.3-.3.4-.5.4-.8v-.2s-.1-.1-.1-.3l2-1.1c.5.5.9 1 1.1 1.5 0 .1 0 .1.1.2v.8c-.2.8-.8 1.5-1.8 2.2-.9.6-2 .9-3 1.1h-1.1c-.9-.1-1.7-.5-2.4-1.3-.7-.7-1.2-1.5-1.5-2.5-.1-.2-.2-.5-.2-.7-.1-.3-.1-.5-.1-.8 0-.5 0-.9.1-1.3.4-1.5.7-2.6 1.1-3.3.8-1.6 2-2.4 3.4-2.6 1.1-.1 2.2 0 3.2.5.9.4 1.5.9 1.7 1.5 0 .4-.1.9-.6 1.3-.4.3-.7.5-1 .6-.1 0-.2 0-.3-.1-.7-1.2-1.6-1.7-2.5-1.6h-.2c-.5.1-1 .7-1.5 1.8-.7.9-1 1.9-1.2 2.8zm12.3 4.7c-1.3 0-2.1-.3-2.3-1v-.6c.1-1.2 1.1-3.3 2.9-6.2 1.8-2.9 3-4.4 3.8-4.4h.1c.1 0 .2 0 .2-.1.2 0 .3-.1.3-.1.3 0 .8.1 1.3.6.2.2.5.6.7 1.3.2.5.4 1.1.5 1.7.2 1 .5 2.2.7 3.6.2 1.1.3 1.9.4 2.5.1.7 0 1-.1 1.1-.2.2-.5.3-.9.3-.5.1-.9 0-1.2-.3-.1-.1-.1-.2-.2-.4V66c0-.2-.1-.4-.1-.6v-.3c-.4-.1-.9-.1-1.4 0-.8.1-1.6.3-2.4.6-.7.3-1.1.5-1.4.8l-.9 1.7zm5-8.1h-.3c-.4 0-.8.5-1.3 1.2-.2.4-.5 1.1-.8 1.9l2.4-.4c.3-.2.4-.4.4-.4s-.1-.3-.2-.9c-.1-.3-.1-.5-.2-.7-.1-.2-.1-.4-.1-.5l.1-.2zm13.1 1.4c0-.5.1-1.7.2-3.5.2-2.6.4-3.9.7-3.9.1 0 .2 0 .3-.1h1c.7.1 1.1.3 1.2.7v.1c0 .3-.2 2.1-.7 5.2-.5 2.9-.7 4.5-.6 4.9 0 0 0 .1.1.2 0 .1-.1.3-.2.4l-.6.3c-.6.1-1.2-.2-1.8-.9-.1-.1-.8-1.2-2-3-.9-1.3-1.4-2-1.5-2-.1 0-.2.1-.2.3 0 .2-.1.3-.1.5 0 .1-.1 1.1-.2 2.9-.1 1.6-.1 2.6 0 2.9v.1c0 .2-.2.4-.6.4-.4 0-.9 0-1.3-.2-.5-.2-.8-.6-1-1.1v-.1c.1-1.7.2-3.3.3-4.9.3-3.3.7-5.1 1.3-5.2.1 0 .2-.1.4-.2s.4-.2.5-.2c.2 0 .4 0 .6.2.5.3 1.2 1.3 2.1 2.8.7 1 1.5 2.2 2.1 3.4zM84 51.1c.9.2 1.5.7 1.7 1.4v.3c0 .2 0 .4-.1.6-.1.4-.2.8-.5 1.3-.2.6-.5 1.1-.9 1.4-.1.1-.3.1-.4.1-.3 0-.8-.1-1.2-.3.3-.5.5-.9.4-1.1v-.1c-.1-.3-.6-.4-1.3-.4-.1-.2-.1-.3-.1-.3 0-.1 0-.2-.1-.3 0-.3 0-.7.2-1l.5-.8.1-.1c.3-.4.7-.6 1.1-.6.1-.1.4-.1.6-.1zm9 4.9c-.3.6-.6 1.9-.8 4.1-.1 1.2-.1 2.4-.2 3.6-.4.7-.8 1.1-1.2 1.2-.5 0-.9-.2-1.3-.9l-.1-.1v-.1c0-.1 0-.2-.1-.4-.1-.7 0-1.9.2-3.6.3-2.5.5-3.7.8-3.8h-.1l-.1.1h-.2c-.3.1-.6.1-.9.2-.7.2-1.1.3-1.2.4-.1.1-.2.1-.2.1-.4 0-.8-.6-1.3-1.8 0-.2-.1-.3-.1-.3l-.1-.2c1.3-.4 2.6-.7 3.8-1 2.3-.6 4-1 5-1.1h.5c.4 0 .7.4 1.1 1.3.1.2.1.4.2.5 0 .1 0 .2.1.3 0 .2 0 .3-.1.3-.1.1-1.2.4-3.3.8-.3.2-.4.4-.4.4zm22.4-5.9c1.4-.1 2.3-.1 2.9 0 .8.2 1.3.6 1.5 1.1v.4c.1.8-.3 1.7-1.2 2.7.3.2.7.5 1.2 1.1.5.6.9 1.4 1.3 2.2 0 0 0 .1.1.1v.2c.1.8-.7 1.7-2.4 2.7-1.5.9-3 1.5-4.5 1.8-.1 0-.3.1-.5.1-.7.1-1.4-.1-2.1-.4-.6-.3-1.1-.9-1.3-1.5 0-.1-.1-.2-.1-.3 0-.1 0-.2-.1-.3.2-2.8.5-5.5.8-8 .5-1 1.9-1.7 4.4-1.9zm-.4 9.8c.4 0 .9-.3 1.7-.8.3-.2.6-.4.8-.8.3-.4.4-.7.4-.9v-.2c-.1-.2-.3-.4-.7-.5-.2-.1-.4-.1-.7 0-.8.1-1.7.4-2.8 1-.1.5-.1.9-.1 1.3v.4c0 .1.1.2.1.2.4.2.8.3 1.3.3zm.7-6.1c.8-.4 1.1-1 1.1-1.7 0-.1-.3-.2-.8-.1-.6.1-1.3.3-1.9.6l-.2 2c.6-.2 1.2-.5 1.8-.8zm11.1-1c.3 0 .7-.1 1.1-.2 1-.3 1.7-.5 2.2-.5.4 0 .6 0 .6.1.1.1.3.3.6.5.3.3.5.5.6.7v.1c0 .2-.1.3-.3.5-.3.1-1.2.6-2.8 1.2-1.4.6-2.1.9-2.2.9 0 0-.1.7-.2 2.1 2-1.2 3.4-1.9 4.3-2 .2 0 .4 0 .5.1.3.2.6.4.9.7.3.3.5.6.6.9v.2c0 .1 0 .3-.1.3-.2.2-1.3.7-3.2 1.6-1.9.9-3 1.3-3.4 1.3h-.1c-1.4-.2-2.2-.6-2.4-1.1V60c0-1.1 0-2.9.2-5.3.2-3.2.6-4.9 1.1-5.2.5-.2 1.4-.5 2.6-.8 1.4-.4 2.4-.6 3-.7.5 0 .8 0 .9.2.3.3.5.6.6 1v.4c0 .3 0 .5-.2.6-.2.2-1.1.4-2.7.8-1.4.3-2.1.5-2.1.5s0 .3-.1.9v.4zm10.5 3.2c.9.2 1.5.7 1.7 1.4v.9l-.2.4c-.2.4-.4.7-.7.9-.4.3-.8.5-1.2.6-.3 0-.6 0-.8-.1-.6-.3-1-.7-1.3-1.3 0-.1 0-.1-.1-.2v-.3c0-.3 0-.6.2-.9l.5-.8.1-.1c.3-.4.7-.6 1.1-.6.3.1.5.1.7.1zm2.1-1.6l.1.1c0 .2-.3.3-.9.4-.4 0-1 .1-1.6.1-.2 0-.7 0-1.4.1.3-.4.4-.9.4-1.8 0-1.7.1-2.7.1-3 0-.2.1-1.7.1-4.3.1-.4.7-.7 1.7-.8.2 0 .8-.1 1.6-.1.5 0 .8-.1 1.2-.1.2 0 .3 0 .4-.1h.1c.6-.1.9.1 1.1.5v.3c.1.9-.5 2.4-1.8 4.6-.8 2.4-1.1 3.7-1.1 4.1zM16.9 86h.1c-.5.6-.9 2.3-1.1 5.1-.1 1.5-.1 3-.2 4.5-.5.9-.9 1.4-1.4 1.4-.5.1-1.1-.3-1.6-1.1 0-.1-.1-.1-.1-.2 0 0 0-.1-.1-.1 0-.1-.1-.3-.1-.4-.1-.8 0-2.4.2-4.5.3-3.1.7-4.6 1-4.6h-.1s0 .1-.1.1l-.1-.1h-.1c-.4.1-.8.2-1.2.2-.9.2-1.4.4-1.5.5-.1.1-.2.1-.3.1-.5 0-1-.7-1.5-2.3-.1-.2-.1-.3-.1-.4l-.1-.2c1.6-.4 3.1-.9 4.6-1.3 2.9-.8 5-1.2 6.2-1.3h.6c.5 0 .9.5 1.3 1.6.1.2.2.5.2.6 0 .1.1.2.1.3 0 .2 0 .3-.1.4-.1.1-1.5.5-4.1 1l-.4.7zm11.4 2.1c1.4-.3 2.4-.5 3-.6v-2.3c-.1-1 0-1.5.3-1.6.4-.1.7-.2 1-.2.7-.1 1.1.1 1.3.6v.1c0 .2.1.4.1.5 0 .2 0 .3.1.5 0 .3 0 .6.1.9 0 .5 0 .8-.1.9l-.3 3c-.2 2.1-.3 3.4-.2 3.9v.1c-.1.3-.3.6-.4.9-.1.3-.4.5-.7.5h-.2c-.5 0-.9-.3-1.2-1 0-1.5.1-2.9.1-4.3-.2 0-.4.1-.9.2-1.1.2-1.9.3-2.3.4 0 .5-.1 1-.1 1.7.1 1-.1 2-.3 3-.2.5-.4.7-.7.8-.4 0-.8 0-1.1-.1-.5-.1-.8-.4-1-.8 0 0 0-.1-.1-.1v-.7c0-.4.2-2.1.6-5.2.5-3.2.8-5 1-5.3.1-.2.3-.3.5-.3.3 0 .8.1 1.3.5.5.3.7.6.8.8 0 .1-.1.2-.2.2 0-.2-.1.9-.4 3zm12.2-2.2c.3 0 .7-.1 1.1-.2 1-.3 1.7-.5 2.2-.5.4 0 .6 0 .6.1.1.1.3.3.6.5.3.3.5.5.6.7v.1c0 .2-.1.3-.3.5-.3.1-1.2.6-2.8 1.2-1.4.6-2.1.9-2.2.9 0 0-.1.7-.2 2.1 2-1.2 3.4-1.9 4.3-2 .2 0 .4 0 .5.1.3.2.6.4.9.7.3.3.5.6.6.9v.2c0 .1 0 .3-.1.3-.2.2-1.3.7-3.2 1.6-1.9.9-3 1.3-3.4 1.3h-.1c-1.4-.2-2.2-.6-2.4-1.1v-.2c0-1.1 0-2.9.2-5.3.2-3.2.6-4.9 1.1-5.2.5-.2 1.4-.5 2.6-.8 1.4-.4 2.4-.6 3-.7.5 0 .8 0 .9.2.3.3.5.6.6 1v.4c0 .3 0 .5-.2.6-.2.2-1.1.4-2.7.8-1.4.3-2.1.5-2.1.5s0 .3-.1.9v.4zm27.9-3.5v.6c0 .1 0 .2.1.3.1.6 0 1.8-.1 3.6-.3 2-.5 3.2-.8 3.5-.8 1-1.7 1.5-2.8 1.6-.8.1-1.7-.1-2.6-.4-.5-.2-1-.4-1.4-.7-.5-.2-.9-.8-1.3-1.7-.1-.2-.1-.5-.2-.7-.1-.3-.1-.5-.2-.8 0-.2 0-.3-.1-.4v-.6c.1-.5.4-.8.9-.9.3 0 .7 0 1.1.2.3.2.5.3.6.5v-.1.4c0 .1 0 .3.1.5l.3.9c.2.6.4 1 .6 1.1.5.2 1 .3 1.6.2.5-.1.9-.3 1.1-.6.1-.1.2-1 .3-2.6-.1-1-.1-2 0-3v-.1c-.1 0-.3 0-.4.1-.9.1-1.5-.2-1.7-.8 0 0 0-.1-.1-.1v-.7c.1-1 1.2-1.7 3.1-1.9.5-.1.9-.1 1.2-.1.7-.1 1.1-.1 1.4 0 .3.1.4.3.6.6l.1.3c0 .2.1.3.1.4v.2c0 .2 0 .4-.2.7-.2.4-.6.6-1.1.6-.1-.1-.1-.1-.2-.1zm6.7 8.5c-1.3 0-2.1-.3-2.3-1v-.6c.1-1.2 1.1-3.3 2.9-6.2 1.8-2.9 3-4.4 3.8-4.4h.1c.1 0 .2 0 .2-.1.2 0 .3-.1.3-.1.3 0 .8.1 1.3.6.2.2.5.6.7 1.3.2.5.4 1.1.5 1.7.2 1 .5 2.2.7 3.6.2 1.1.3 1.9.4 2.5.1.6 0 1-.1 1.1-.2.2-.5.3-.9.3-.5.1-.9 0-1.2-.3-.1-.1-.1-.2-.2-.4v-.2c0-.2-.1-.4-.1-.6v-.3c-.4-.1-.9-.1-1.4 0-.8.1-1.6.3-2.4.6-.7.3-1.1.5-1.4.8l-.9 1.7zm5-8.1h-.3c-.4 0-.8.5-1.3 1.2-.2.4-.5 1.1-.8 1.9l2.4-.4c.3-.2.4-.4.4-.4s-.1-.3-.2-.9c-.1-.3-.1-.5-.2-.7-.1-.2-.1-.4-.1-.5l.1-.2zm7.8 1v.3c0 .2 0 .3.1.5 0 .1.1.2.1.3.2.6.6 1.1 1.1 1.5.3.3.8.4 1.5.3.7-.1 1.2-.3 1.6-.6.3-.3.4-.5.4-.8v-.2s-.1-.1-.1-.3l2-1.1c.5.5.9 1 1.1 1.5 0 .1 0 .1.1.2v.8c-.2.8-.8 1.5-1.8 2.2-.9.6-2 .9-3 1.1h-1.1c-.9-.1-1.7-.5-2.4-1.3-.7-.7-1.2-1.5-1.5-2.5-.1-.2-.2-.5-.2-.7-.1-.3-.1-.5-.1-.8 0-.5 0-.9.1-1.3.4-1.5.7-2.6 1.1-3.3.8-1.6 2-2.4 3.4-2.6 1.1-.1 2.2 0 3.2.5.9.4 1.5.9 1.7 1.5 0 .4-.1.9-.6 1.3-.4.3-.7.5-1 .6-.1 0-.2 0-.3-.1-.7-1.2-1.6-1.7-2.5-1.6h-.2c-.5.1-1 .7-1.5 1.8-.7.9-1 1.8-1.2 2.8zm16-2c.4.1 1.4.6 3 1.5 1.9 1.1 2.9 1.7 3 2.1v.2c0 .3-.1.6-.5.9-.4.4-.8.6-1.1.6-.2 0-.4 0-.4-.2-.1-.2-2.2-1.2-6.2-3.1-.2 2.4-.5 3.8-.7 4.3-.1.2-.3.3-.5.4-.4 0-1-.1-1.6-.6-.6-.4-.9-.6-1-.8V87c.2-.6.3-1.1.5-1.4-.2-.3-.4-.6-.5-.8l-.1-.1v-.1c0-.2.1-.4.2-.6.2-.3.5-.6.9-.8.2-.1.4-1.2.5-3.4.1-1 .1-2.2.2-3.6 0-.2.2-.4.6-.4.4 0 .8 0 1.3.1.5.2.8.4.9.7V79l-.2.4c.1 0 .2 0 .3.1.2-.1 1-.7 2.2-1.7 1.6-1.3 2.5-2 2.5-2.1.1 0 .1-.1.2-.1.3 0 .7.1 1.1.2.5.2.8.4 1 .7l.1.1c.1.5-1.9 2.2-5.8 5.1.1 0 .1.1.1.1zm13.4-7.8c.2-.1.5-.1.9-.2 1-.1 1.9 0 2.8.2 1.2.3 2.1.9 2.7 1.7.1.1.1.2.2.3v.3c.1.6-.2 1.3-.9 2.2-.7 1-1.7 1.9-2.9 2.7-1.3.9-2.4 1.4-3.5 1.6 0 .1-.1.5-.3 1.3-.2 1.1-.4 1.8-.5 1.9-.2.5-.6.7-1.1.8-.4 0-.9-.1-1.4-.5-.4-.3-.7-.6-.8-.9v-.1c0-.1 0-.2.1-.3.5-.4.9-1.6 1.3-3.7.1-1.2.3-2.3.4-3.5v-.2c0-.1 0-.2-.1-.3 0-.1-.1-.2-.1-.3-.1-.2-.1-.5-.2-.6 0-.1-.1-.3-.1-.4v-.1c.2-.4 1.3-1.1 3.5-1.9zm4.1 2.3c-.2-.2-.8-.2-1.8-.1-1.1.1-1.8.4-2.1.8-.1.1-.2.6-.4 1.5-.1.8-.2 1.3-.2 1.5.3 0 .8-.2 1.4-.5.6-.3 1.1-.6 1.3-.8.4-.4.7-.8 1.1-1.2.5-.6.7-1 .7-1.2zm16.9.2c0 .1.1.2.1.4.1.2.1.5.1.7.1 1.3-.2 2.9-1 4.8-.3.8-1.1 1.4-2.3 2-1 .4-2 .7-3.1.8-1.2.1-2.2 0-3.1-.3-1.1-.4-1.9-1.2-2.2-2.3-.1-.2-.2-.5-.2-.8-.1-.4-.2-.7-.2-1.1-.1-.8 0-1.6.2-2.4.3-1.4 1-2.7 2-3.7 1-1.1 2.3-1.7 3.7-1.8 1.3-.1 2.5.1 3.6.8 1.2.8 2 1.7 2.4 2.9zm-7.6 6c.5.2 1 .2 1.6.2 1-.1 1.9-.9 2.8-2.3.7-1.2 1-2.2.9-3.1 0-.2 0-.3-.1-.4 0-.1 0-.2-.1-.3-.2-.5-.6-.9-1.2-1.1-.5-.2-1.1-.3-1.7-.2-1.4.1-2.4.8-3.1 2.1-.5.9-.7 1.8-.6 2.8 0 .2.1.5.1.8 0 .2.1.3.2.5.2.4.6.8 1.2 1zm16.2-7.5c-.3.6-.6 1.9-.8 4.1-.1 1.2-.1 2.4-.2 3.6-.4.7-.8 1.1-1.2 1.2-.5 0-.9-.2-1.3-.9l-.1-.1v-.1c0-.1 0-.2-.1-.4-.1-.7 0-1.9.2-3.6.3-2.5.5-3.7.8-3.8h-.1l-.1.1h-.2c-.3.1-.6.1-.9.2-.7.2-1.1.3-1.2.4-.1.1-.2.1-.2.1-.4 0-.8-.6-1.3-1.8 0-.2-.1-.3-.1-.3l-.1-.2c1.3-.4 2.6-.7 3.8-1 2.3-.6 4-1 5-1.1h.5c.4 0 .7.4 1.1 1.3.1.2.1.4.2.5 0 .1 0 .2.1.3 0 .2 0 .3-.1.3-.1.1-1.2.4-3.3.8-.3.2-.4.4-.4.4zM15.1 112.1s-.1.1-.4.1c-.6.1-1.5.2-2.8.5 0-.7.1-1.3.1-1.8.2-.8.6-1.3 1.3-1.4.6-.1 1.4-.2 2.4-.3 1-.1 2.1-.2 3.5-.3.5.4.8.9 1.1 1.5 0 .1.1.2.1.3v.4c0 .2 0 .4-.2.5-.4.2-1 .4-2 .5H18c-.5 3.6-.8 5.7-.8 6.2.3 0 1-.2 2-.5l.1.3c.1.2.1.5.2.7v.3c0 .8-.3 1.3-1 1.4-.8.2-2.8.6-6 1.2l-.1-.3v-1.1c0-.9.2-1.4.6-1.4l.8-.1c.3 0 .4-.1.5-.2.1-.1.2-1 .4-2.7.2-1.6.3-2.9.4-3.8zm18.1-2.5v.3c0 .3 0 .6-.2.8-.3.4-.6.6-1 .6-.6.1-1.1-.2-1.4-.9-.1-.2-.4-.3-.8-.4-.5-.1-.9-.2-1.4-.1-.5 0-.8.2-1 .4-.4.3-.8.6-1.3.9-.4.3-.6.6-.5.8v.1c.1.2.6.3 1.5.2.2 0 .8-.1 2-.3h.4c2.3-.2 3.8.6 4.5 2.5.1.2.1.4.2.6v.4c.1.8-.3 1.6-1.2 2.5-1 1-2.2 1.6-3.6 1.8-2.4.2-4.3-.3-5.8-1.5-.1 0-.1-.1-.2-.2v-.1c0-.2.1-.6.5-1s.8-.7 1.1-.7c.3 0 .5.1.6.3.3.6 1.6.9 3.9.8h.2c.6-.1 1-.3 1.3-.6.2-.3.3-.8.2-1.5 0-.1 0-.3-.1-.4v-.1c-.1-.2-.5-.4-1.2-.5-.7-.1-1.5 0-2.5.1-.8.1-1.3.2-1.4.2-.1.1-.2.1-.4.1-.5 0-1 0-1.5-.2-.6-.2-1-.5-1.1-.9 0-.1-.1-.2-.1-.3-.1-.2-.1-.5-.1-.7 0-.4 0-.9.1-1.2.1-.5.4-1 .9-1.5.4-.3.7-.7 1.1-1 .3-.3.8-.5 1.5-.8.8-.3 1.6-.5 2.4-.6 1.9-.2 3.3.2 4.2 1.2-.1.5.1.7.2.9zm15.7-4.1c.3 0 .7 0 1.1.2.3.2.6.4.6.6v.1c0 .1 0 .2-.1.2-.1.1-.3 1.1-.5 3.1-.2 1.6-.3 2.8-.2 3.6 0 .2.1.4.1.6 0 .1.1.2.1.2.1.3.4.4.8.4.6-.1 1.4-.3 2.2-.8.7-.4 1.1-.6 1.1-.8v-.1c0-.4.2-1.6.6-3.6.5-2.1.8-3.4.9-3.8.1-.2.3-.3.6-.4.4 0 .8.1 1.3.3.5.3.8.5.9.7 0 .1-.1.2-.2.3-.4.2-.7 1.7-.9 4.6-.2 2-.2 3.5-.1 4.4 0 .3.1.5.1.6 0 .1 0 .1.1.2l.1.3c-.5.2-.9.3-1.3.3-.9.1-1.5-.1-1.7-.6 0 0-.1-.1-.2 0-.5.1-1.7.6-3.4 1.6-.1.1-.3.1-.5.2-.5.1-1.1-.2-1.8-.7-.6-.5-1.1-1.1-1.3-1.7 0-.1-.1-.2-.1-.3v-.2c-.1-.5 0-1.8.3-3.9.1-.7.3-2.2.5-4.5 0-.7.3-1 .9-1.1zm17-1.8c.2-.1.5-.1.9-.2 1-.1 1.9 0 2.8.2 1.2.3 2.1.9 2.7 1.7.1.1.1.2.2.3v.3c.1.6-.2 1.3-.9 2.2-.7 1-1.7 1.9-2.9 2.7-1.3.9-2.4 1.4-3.5 1.6 0 .1-.1.5-.3 1.3-.2 1.1-.4 1.8-.5 1.9-.2.5-.6.7-1.1.8-.4 0-.9-.1-1.4-.5-.4-.3-.7-.6-.8-.9v-.1c0-.1 0-.2.1-.3.5-.4.9-1.6 1.3-3.7.1-1.2.3-2.3.4-3.5v-.2c0-.1 0-.2-.1-.3 0-.1-.1-.2-.1-.3-.1-.2-.1-.5-.2-.6 0-.1-.1-.3-.1-.4v-.1c.1-.5 1.2-1.2 3.5-1.9zm4 2.2c-.2-.2-.8-.2-1.8-.1-1.1.1-1.8.4-2.1.8-.1.1-.2.6-.4 1.5-.1.8-.2 1.3-.2 1.5.3 0 .8-.2 1.4-.5.6-.3 1.1-.6 1.3-.8.4-.4.7-.8 1.1-1.2.5-.6.8-1 .7-1.2zM92 105c-.3.6-.6 1.9-.8 4.1-.1 1.2-.1 2.4-.2 3.6-.4.7-.8 1.1-1.2 1.2-.5 0-.9-.2-1.3-.9l-.1-.1v-.1c0-.1 0-.2-.1-.4-.1-.7 0-1.9.2-3.6.3-2.5.5-3.7.8-3.8h-.1l-.1.1h-.2c-.3.1-.6.1-.9.2-.7.2-1.1.3-1.2.4-.1.1-.2.1-.2.1-.4 0-.8-.6-1.3-1.8 0-.2-.1-.3-.1-.3l-.1-.2c1.3-.4 2.6-.7 3.8-1 2.3-.6 4-1 5-1.1h.5c.4 0 .7.4 1.1 1.3.1.2.1.4.2.5 0 .1 0 .2.1.3 0 .2 0 .3-.1.4-.1.1-1.2.4-3.3.8-.3.1-.4.3-.4.3zm18.1-1.2c0 .1.1.2.1.4.1.2.1.5.1.7.1 1.3-.2 2.9-1 4.8-.3.8-1.1 1.4-2.3 2-1 .4-2 .7-3.1.8-1.2.1-2.2 0-3.1-.3-1.1-.4-1.9-1.2-2.2-2.3-.1-.2-.2-.5-.2-.8-.1-.4-.2-.7-.2-1.1-.1-.8 0-1.6.2-2.4.3-1.4 1-2.7 2-3.6 1-1.1 2.3-1.7 3.7-1.8 1.3-.1 2.5.1 3.6.8 1.2.7 2 1.6 2.4 2.8zm-7.6 6c.5.2 1 .2 1.6.2 1-.1 1.9-.9 2.8-2.3.7-1.2 1-2.2.9-3.1 0-.2 0-.3-.1-.4 0-.1 0-.2-.1-.3-.2-.5-.6-.9-1.2-1.1-.5-.2-1.1-.3-1.7-.2-1.4.1-2.4.8-3.1 2.1-.5.9-.7 1.8-.6 2.8 0 .2.1.5.1.8 0 .2.1.3.2.5.2.4.6.8 1.2 1zm-82.1 28.6c-.1.3-.4 1.1-.9 2.4-.7 2-1.1 3.4-1.2 4.2 0 .4-.4.6-1.1.7-.8.1-1.4-.1-1.8-.6-.1-.1-.2-.3-.3-.6-.1-.2-.1-.4-.2-.7-.2-.9-.4-2.2-.6-3.9 0-.3-.1-.7-.1-1-.2-2.7-.2-4.1.2-4.1 1.5.2 2.4.4 2.5.8v.1c-.1.2-.1 1 0 2.2 0 .6 0 1.1.1 1.5.4-.9.9-1.8 1.3-2.6.8-1.6 1.3-2.4 1.6-2.4h.2c.3 0 .8-.3 1.7-.8l2 5.4c.3-.8.7-1.7 1.1-2.9.9-2.3 1.5-3.5 1.8-3.6h.1c1.2.4 1.8.8 1.9 1.1 0 .2-.5 1.8-1.5 4.9-.9 2.7-1.4 4.3-1.3 4.7v.2c0 .4-.8.9-2.6 1.4-1.2-3-2.2-5.1-2.9-6.4zm14.8-2.1c1.4-.3 2.4-.5 3-.6v-2.3c-.1-1 0-1.5.3-1.6.4-.1.7-.2 1-.2.7-.1 1.1.1 1.3.6v.1c0 .2.1.4.1.5 0 .2 0 .3.1.5 0 .3 0 .6.1.9 0 .5 0 .8-.1.9l-.3 3c-.2 2.1-.3 3.4-.2 3.9v.1c-.1.3-.3.6-.4.9-.1.3-.4.5-.7.5h-.2c-.5 0-.9-.3-1.2-1 0-1.5.1-2.9.1-4.3-.2 0-.4.1-.9.2-1.1.2-1.9.3-2.3.4 0 .5-.1 1-.1 1.7.1 1-.1 2-.3 3-.2.5-.4.7-.7.8-.4 0-.8 0-1.1-.1-.5-.2-.8-.4-1-.8 0 0 0-.1-.1-.1v-.7c0-.4.2-2.1.6-5.2.5-3.2.8-5 1-5.3.1-.2.3-.3.5-.3.3 0 .8.1 1.3.5.5.3.7.6.8.8 0 .1-.1.2-.2.2 0-.1-.1.9-.4 3zm11.2 6.4c-1.3 0-2.1-.3-2.3-1v-.6c.1-1.2 1.1-3.3 2.9-6.2 1.8-2.9 3-4.4 3.8-4.4h.1c.1 0 .2 0 .2-.1.2 0 .3 0 .3-.1.3 0 .8.1 1.3.6.2.2.5.6.7 1.3.2.5.4 1.1.5 1.7.2 1 .5 2.2.7 3.6.2 1.1.3 1.9.4 2.5.1.7 0 1-.1 1.1-.2.2-.5.3-.9.3-.5.1-.9 0-1.2-.3-.1-.1-.1-.2-.2-.4v-.2c0-.2-.1-.4-.1-.6v-.3c-.4-.1-.9-.1-1.4 0-.8.1-1.6.3-2.4.6-.7.3-1.1.5-1.4.8l-.9 1.7zm5-8.1h-.3c-.4 0-.8.4-1.3 1.2-.2.4-.5 1.1-.8 1.9l2.4-.4c.3-.2.4-.4.4-.4s-.1-.3-.2-.9c-.1-.3-.1-.5-.2-.7-.1-.2-.1-.4-.1-.5l.1-.2zm11.5-2.2c-.3.6-.6 1.9-.8 4.1-.1 1.2-.1 2.4-.2 3.6-.4.7-.8 1.1-1.2 1.2-.5 0-.9-.2-1.3-.9l-.1-.1v-.1c0-.1-.1-.2-.1-.4-.1-.7 0-1.9.2-3.6.3-2.5.5-3.7.8-3.8h-.1l-.1.1h-.2c-.3.1-.6.1-.9.2-.7.2-1.1.3-1.2.4-.1.1-.2.1-.2.1-.4 0-.8-.6-1.3-1.8 0-.2-.1-.3-.1-.3l-.1-.2c1.3-.4 2.6-.7 3.8-1 2.3-.6 4-1 5-1.1h.5c.4 0 .7.4 1.1 1.3.1.2.1.4.2.5 0 .1 0 .2.1.3 0 .2 0 .3-.1.3-.1.1-1.2.4-3.3.8-.3.2-.4.4-.4.4zm8.3-.2c.5-.4.9-.7 1.4-1 .6-.7 1.1-1.1 1.6-1.2.9-.2 1.8-.4 2.6-.7.6-.2 1-.4 1.2-.7.1-.1.1-.2.1-.3v-.2c-.1-.4-.5-.6-1.2-.7-.7-.2-1.5-.3-2.2-.2-.2 0-.3 0-.5.1-.1.1-.8.4-1.9.9-.9.5-1.5.8-1.7 1-.1 0-.2.1-.2.1-.3 0-.6-.2-1.1-.6-.5-.4-.8-.8-.9-1v-.1c0-.2.1-.3.2-.3.6-.4 1.3-.8 1.9-1.2 1.3-.7 2.6-1.1 3.9-1.2h.5c1.3-.1 2.6.2 4 .8 1.3.6 2.1 1.1 2.4 1.7l.3.6c0 .1.1.2.1.4s.1.3.1.5c.1 1.3-.7 2.3-2.4 3-.1 0-1 .3-3 .8-1.4.4-2.2.7-2.5 1-.3.3-.5.8-.7 1.6-1.3-.5-2-.9-2.2-1.3v-.2c-.2-.7-.1-1.1.2-1.6zm2.8 3.6c.9.2 1.5.7 1.7 1.4v.9l-.2.4c-.2.4-.4.7-.7.9-.4.3-.8.5-1.2.6-.3 0-.6 0-.8-.1-.6-.3-1-.7-1.2-1.2 0-.1-.1-.1-.1-.2v-.3c0-.3 0-.6.2-.9l.5-.8.1-.1c.3-.4.7-.6 1.1-.6h.6z" class="messagetext-st0"/>
</svg>
