<svg xmlns="http://www.w3.org/2000/svg" xmlns:xlink="http://www.w3.org/1999/xlink" viewBox="0 0 250.8 214.9">
  <style>
    .messagebubble-st0{clip-path:url(#SVGID_2_);fill:#FFFFFF;} .messagebubble-st1{fill:#FFFFFF;}
  </style>
  <defs>
    <path id="SVGID_1_" d="M-14.246 24.57L242.01-19.37l35.22 205.398-256.257 43.94z"/>
  </defs>
  <clipPath id="SVGID_2_">
    <use xlink:href="#SVGID_1_" overflow="visible"/>
  </clipPath>
  <path d="M135.7 207.6c62.6-10.7 105.7-64.2 96.2-119.5-1.4-8.1-3.8-15.7-7.2-22.9l19.6-44.8-47.8 9.7c-24.7-19.5-59.3-28.8-95.2-22.6C38.8 18.2-4.3 71.7 5.2 127s67.9 91.4 130.5 80.6" class="messagebubble-st0"/>
  <path d="M24.9 48.5c18.4-22.9 45.4-38.3 76-43.6 34.9-6 69.7 2.2 95.8 22.5l51.5-10.5L227 65.5c3.2 7.1 5.4 14.6 6.8 22.3 4.7 27.7-2.9 55.7-21.6 78.9-18.4 22.9-45.4 38.3-76 43.6-30.6 5.2-61.2-.4-86.2-15.8C24.7 178.9 8.1 155 3.4 127.3s2.9-55.7 21.5-78.8"/>
  <path d="M196.5 32.9l-.6-.5c-25.4-20-59.7-28.1-94.1-22.2C40.3 20.7-2.2 73 7 126.7s66.8 88.8 128.3 78.3c61.5-10.5 104.1-62.8 94.9-116.5-1.3-7.6-3.6-15-6.9-21.9l-.7-1.5 18-41.1-44.1 8.9z" class="messagebubble-st1"/>
</svg>
