<svg style="fill: #004fa3;" xmlns="http://www.w3.org/2000/svg" viewBox="0 0 1596.5 91.5" >
  <path d="M20.5 87.1V22.6H3.8v-19h66v19H53v64.5H20.5zm59.3 0V3.5h32.6v28.3h8.3V3.5h32.6v83.6h-32.6V50.9h-8.3v36.2H79.8zm86.3 0V3.5h52.7v19h-20v9.1h20v19h-20V68h20v19h-52.7zM349.4 3.5v64.1c0 7.4-1.5 12.6-4.5 15.6s-8.4 4.4-16.2 4.4h-32.1c-7.3 0-12.4-1.5-15.4-4.5s-4.5-8.2-4.5-15.5V51.9h31.7v10.8c0 2.1.3 3.6 1 4.5.7.9 1.7 1.4 3.1 1.4 1.5 0 2.6-.5 3.2-1.4s1-2.4 1-4.6V3.5h32.7zm9.6 83.6l14.7-83.6h51.1l14.7 83.6h-33.8L403.9 69h-9.3l-1.9 18.1H359zm36.8-36.6h6.9l-3.4-28.4-3.5 28.4zM522.6 53v16.7c0 6.4-1.6 11-4.8 13.8-3.2 2.8-8.5 4.2-15.9 4.2h-34.1c-6.9 0-11.9-1.4-15.1-4.3-3.2-2.9-4.8-7.4-4.8-13.6V23c0-7.3 1.5-12.5 4.4-15.5 3-3 8.1-4.5 15.4-4.5h34.1c7.8 0 13.2 1.5 16.2 4.4 3 2.9 4.5 8.1 4.5 15.5v11h-33.1v-6.1c0-2.2-.3-3.7-1-4.6-.7-.9-1.7-1.4-3.2-1.4-1.4 0-2.5.5-3.1 1.4-.7 1-1 2.5-1 4.6v34.8c0 2.1.3 3.6 1 4.6.7 1 1.7 1.4 3.1 1.4s2.5-.5 3.2-1.5c.7-1 1-2.5 1-4.6V53h33.2zm12.5 34.1V3.5h32v33.8l10.5-33.8h33.2l-12.6 38.8 13.3 44.8h-32.9L567 48.9v38.2h-31.9zm84.7 0V3.5h53.4c7.4 0 12.7 1.4 15.9 4.2 3.2 2.8 4.8 7.4 4.8 13.8v23.1c0 7.5-1.5 12.7-4.5 15.7s-8.4 4.5-16.1 4.5h-20.8v22.3h-32.7zm37-64.7h-4.4v23.5h4.3c1.6 0 2.8-.5 3.5-1.4.7-.9 1.1-2.4 1.1-4.6V28.4c0-2.2-.3-3.7-1-4.7-.8-.9-1.9-1.3-3.5-1.3zm68.7 65.3c-7.3 0-12.4-1.5-15.4-4.5s-4.4-8.2-4.4-15.5V20.8c0-6.2 1.6-10.7 4.7-13.5 3.2-2.8 8.2-4.3 15.1-4.3h34.1c7.4 0 12.7 1.4 15.9 4.1 3.2 2.8 4.7 7.3 4.7 13.6v46.8c0 7.4-1.5 12.6-4.5 15.6s-8.4 4.4-16.1 4.4h-34.1zm13.2-59.8v34.8c0 2.1.3 3.6 1 4.5.7.9 1.7 1.4 3.1 1.4 1.5 0 2.6-.5 3.2-1.4.7-.9 1-2.4 1-4.6V27.9c0-2.1-.3-3.6-1-4.6-.7-1-1.8-1.5-3.2-1.5-1.4 0-2.5.5-3.1 1.4-.6 1-1 2.6-1 4.7zm67.6 59.2V22.6h-16.8v-19h66v19h-16.8v64.5h-32.4zm100.3-.1V3.4h32.6V87h-32.6zm65.2.6c-6.7 0-11.7-1.3-15.2-4s-5.2-6.6-5.2-11.7V56.7h33.4v5.9c0 2.1.3 3.6 1 4.5.6.9 1.7 1.4 3.1 1.4 1.4 0 2.5-.5 3.1-1.5.7-1 1-2.7 1-5 0-2.6-.3-4.4-.9-5.5-.6-1-2.2-2.1-4.6-3.1l-22.6-9.1c-5.2-2.1-8.7-4.4-10.6-6.8-1.8-2.4-2.8-5.8-2.8-10.1v-8.9c0-5.1 1.7-9 5.2-11.7 3.5-2.6 8.5-4 15.2-4h33.7c6.7 0 11.7 1.3 15.2 4 3.5 2.6 5.2 6.5 5.2 11.7v9.9h-33.1v-1.1c0-1.8-.4-3.2-1.1-4.2-.7-1-1.8-1.4-3.1-1.4-1.2 0-2.1.4-2.8 1.1-.7.7-1.1 1.7-1.1 3 0 1.2.3 2.2 1 2.9.7.8 2.3 1.7 4.9 2.7l26.3 11.1c3.3 1.4 5.7 3.5 7 6.1 1.3 2.6 2 6.5 2 11.8v9.2c0 6.1-1.7 10.6-5 13.5-3.3 2.9-8.4 4.3-15.4 4.3h-33.8zm153.8-30.2h-4.5V38.8h37.6V87H1142l-2.9-6.1c-1 2.4-2.8 4.1-5.5 5.1s-6.6 1.6-11.9 1.6H1104c-7.3 0-12.4-1.5-15.4-4.5s-4.4-8.2-4.4-15.5V20.7c0-6.2 1.6-10.7 4.7-13.5 3.2-2.8 8.2-4.3 15.1-4.3h34.1c7.4 0 12.7 1.4 15.9 4.1 3.2 2.8 4.7 7.3 4.7 13.6V29h-33.2l.1-1.4V27c0-.3.1-.4.1-.6 0-1.5-.4-2.7-1.2-3.6-.8-.9-1.8-1.3-3.1-1.3-1.4 0-2.5.5-3.1 1.4-.7 1-1 2.5-1 4.6v34.8c0 2.1.3 3.6 1 4.6.7.9 1.7 1.4 3.1 1.4 1.5 0 2.6-.4 3.2-1.4.7-.9 1-2.4 1-4.6v-4.9zm45.6 29.6V3.4h52.7v19h-20v9.1h20v19.1h-20v17.3h20v19h-52.7zm79.1 0V22.5h-16.8v-19h66v19h-16.8V87h-32.4zm73 0V22.5h-16.8v-19h66v19h-16.8V87h-32.4zm59.3 0V3.4h32.6V87h-32.6zm45.4 0V3.4h32.2l12.9 34.5V3.4h29.7V87H1472l-14.3-39.3V87H1428zm128.5-29.6h-4.5V38.8h37.6V87h-16.7l-2.9-6.1c-1 2.4-2.8 4.1-5.5 5.1s-6.6 1.6-11.9 1.6h-17.7c-7.3 0-12.4-1.5-15.4-4.5s-4.4-8.2-4.4-15.5V20.7c0-6.2 1.6-10.7 4.7-13.5 3.2-2.8 8.2-4.3 15.1-4.3h34.1c7.4 0 12.7 1.4 15.9 4.1 3.2 2.8 4.7 7.3 4.7 13.6V29h-33.2l.1-1.4c0-.1 0-.3.1-.6v-.6c0-1.5-.4-2.7-1.2-3.6-.8-.9-1.8-1.3-3.1-1.3-1.4 0-2.5.5-3.1 1.4-.7 1-1 2.5-1 4.6v34.8c0 2.1.3 3.6 1 4.6.7.9 1.7 1.4 3.1 1.4 1.5 0 2.6-.4 3.2-1.4.7-.9 1-2.4 1-4.6v-4.9z"/>
</svg>
