<svg xmlns="http://www.w3.org/2000/svg" xmlns:xlink="http://www.w3.org/1999/xlink" viewBox="0 0 120 100" style="enable-background:new 0 0 120 100;">
  <style>
    .bg-st0{fill:#44B7F6;} .bg-st1{clip-path:url(#SVGID_2_);fill:#DEF0FF;}
  </style>
  <path d="M-15 0h150v100H-15z" class="bg-st0"/>
  <defs>
    <path id="SVGID_1_" d="M-15 0h150v100H-15z"/>
  </defs>
  <clipPath id="SVGID_2_">
    <use xlink:href="#SVGID_1_" style="overflow:visible;"/>
  </clipPath>
  <path d="M112.8 0c-.1 0-.1 0 0 0-.1 0-.1 0 0 0M96.1.2c.2.1.5 0 .6-.2h-.9c.1.1.2.2.3.2m4.2 0c-.3-.1-.5.1-.6.4-.1.3.1.5.4.6.3.1.5-.1.6-.4 0-.2-.2-.5-.4-.6m3.8 1.1c-.2-.1-.4.1-.5.3-.1.2.1.4.3.5.2.1.4-.1.5-.3 0-.2-.1-.4-.3-.5m3.8 1.2c-.2 0-.3.1-.4.2 0 .2.1.3.2.4.2 0 .3-.1.4-.2.1-.2 0-.4-.2-.4m3.9 1.1c-.1 0-.2 0-.3.2 0 .1 0 .2.2.3.1 0 .2 0 .3-.2 0-.2-.1-.3-.2-.3m3.8 1.1c-.1 0-.1 0-.1.1s0 .1.1.1.1 0 .1-.1l-.1-.1M79.5.3c.3.1.7 0 .9-.3h-1.3c.1.1.3.2.4.3m3.9 1c.5.1.9-.1 1.1-.6.1-.2 0-.5-.1-.7h-1.5c0 .1-.1.1-.1.2-.1.5.1.9.6 1.1m4.3-.6c-.4-.1-.9.1-1 .6-.1.4.1.9.6 1 .4.1.9-.1 1-.6.1-.5-.1-.9-.6-1m3.9 1c-.4-.1-.9.1-1 .6-.1.4.1.9.6 1 .4.1.9-.1 1-.6 0-.4-.2-.8-.6-1m3.8 1.1c-.4-.1-.8.2-.9.6-.1.4.1.8.5.9.4.1.8-.1.9-.5.1-.5-.1-.9-.5-1m3.9 1.1c-.3-.1-.7.1-.8.5-.1.3.1.7.5.8.3.1.7-.1.8-.5 0-.3-.2-.7-.5-.8m3.8 1.1c-.3-.1-.6.1-.7.4-.1.3.1.6.4.7.3.1.6-.1.7-.4.1-.3-.1-.6-.4-.7m3.8 1.2c-.3-.1-.5.1-.6.3-.1.3.1.5.3.6.3.1.5-.1.6-.3.2-.3 0-.6-.3-.6m3.9 1.1c-.2-.1-.4.1-.5.3-.1.2.1.4.3.5.2.1.4-.1.5-.3 0-.2-.1-.4-.3-.5m3.8 1.2c-.1 0-.3 0-.3.2 0 .1 0 .3.2.3.1 0 .3 0 .3-.2s0-.3-.2-.3m3.8 1.1c-.1 0-.2 0-.2.1s0 .2.1.2.2 0 .2-.1c.1-.1 0-.2-.1-.2M9.2-9.6h-1c.1 0 .1.1.2.1.3.1.6 0 .8-.1M66.9 1.2c.5.1 1.1-.2 1.3-.8V0h-2c-.2.5.2 1 .7 1.2m4.4-1c-.6-.2-1.2.2-1.3.7-.2.6.2 1.1.7 1.3.6.2 1.2-.2 1.3-.7.2-.6-.2-1.2-.7-1.3m3.8 1c-.5-.1-1.1.2-1.2.8-.2.6.2 1.1.7 1.3.6.2 1.1-.2 1.3-.7.1-.7-.2-1.2-.8-1.4M79 2.3c-.6-.1-1.1.2-1.3.7-.1.6.2 1.1.7 1.3.6.1 1.1-.2 1.3-.7.2-.6-.1-1.2-.7-1.3m3.9 1c-.5-.1-1.1.2-1.2.7-.1.5.2 1.1.7 1.2.5.1 1.1-.2 1.2-.7.1-.5-.2-1-.7-1.2m3.8 1.1c-.5-.1-1.1.2-1.2.7-.1.5.2 1.1.7 1.2.5.1 1.1-.2 1.2-.7.2-.5-.2-1.1-.7-1.2m3.9 1.1c-.5-.1-1 .2-1.1.7-.1.5.2 1 .7 1.1.5.1 1-.2 1.1-.7.1-.5-.2-1-.7-1.1m3.8 1c-.5-.1-1 .2-1.1.6-.1.5.2 1 .6 1.1.5.1 1-.2 1.1-.6.2-.4-.1-.9-.6-1.1m3.9 1.2c-.4-.1-.9.1-1 .6-.1.4.1.9.6 1 .4.1.9-.1 1-.6.1-.5-.2-.9-.6-1m3.8 1.1c-.4-.1-.8.1-.9.5-.1.4.1.8.5.9.4.1.8-.1.9-.5.1-.4-.1-.8-.5-.9m3.8 1.1c-.3-.1-.7.1-.8.4-.1.3.1.7.4.8.3.1.7-.1.8-.4.2-.4 0-.7-.4-.8m3.9 1.1c-.3-.1-.6.1-.6.4-.1.3.1.6.4.6.3.1.6-.1.6-.4 0-.2-.1-.5-.4-.6m3.8 1.2c-.2-.1-.4.1-.5.3-.1.2.1.4.3.5.2.1.4-.1.5-.3 0-.2-.1-.4-.3-.5m3.9 1.1c-.2 0-.3.1-.4.2 0 .2.1.3.2.4.2 0 .3-.1.4-.2 0-.2-.1-.3-.2-.4m3.8 1.2c-.1 0-.2 0-.2.1s0 .2.1.2.2 0 .2-.1 0-.2-.1-.2M-20.5-12.7c.5.1 1.1-.2 1.2-.7V0h-2c.1.4.4.8.8.9m74-.3c-.2.6.2 1.2.8 1.3.6.2 1.2-.2 1.3-.8.1-.5-.1-1-.5-1.2H54c-.3.2-.4.5-.5.7m5.2.3c-.6-.2-1.2.2-1.4.8-.2.6.2 1.2.8 1.4.6.2 1.2-.2 1.4-.8.1-.7-.2-1.3-.8-1.4m3.8 1c-.6-.2-1.2.2-1.4.8-.2.6.2 1.2.8 1.4.6.2 1.2-.2 1.4-.8.2-.6-.1-1.3-.8-1.4m3.9 1c-.6-.2-1.3.2-1.5.8-.2.6.2 1.3.8 1.5.6.2 1.3-.2 1.5-.8.2-.7-.1-1.4-.8-1.5m3.9 1c-.6-.2-1.3.2-1.5.8-.2.7.2 1.3.9 1.5.6.2 1.3-.2 1.4-.8.2-.7-.2-1.3-.8-1.5m3.8 1c-.6-.2-1.3.2-1.5.8-.2.6.2 1.3.8 1.5.8.2 1.4-.2 1.6-.8.2-.6-.2-1.3-.9-1.5M78 6c-.6-.2-1.3.2-1.4.8-.2.6.2 1.3.8 1.4.6.2 1.3-.2 1.4-.8.2-.6-.2-1.2-.8-1.4m3.9 1c-.6-.2-1.2.2-1.4.8-.2.6.2 1.2.8 1.4.6.2 1.2-.2 1.4-.8.1-.6-.2-1.2-.8-1.4m3.8 1.1c-.6-.2-1.2.2-1.4.8-.2.6.2 1.2.8 1.4.6.2 1.2-.2 1.4-.8.2-.6-.2-1.2-.8-1.4m3.9 1.1c-.6-.2-1.2.2-1.3.8-.2.6.2 1.2.8 1.3.6.2 1.2-.2 1.3-.8.1-.6-.3-1.2-.8-1.3m3.8 1.1c-.5-.1-1.1.2-1.2.7-.1.5.2 1.1.7 1.2.5.1 1.1-.2 1.2-.7.2-.5-.1-1.1-.7-1.2m3.9 1.1c-.5-.1-1 .2-1.2.7-.1.5.2 1 .7 1.2.5.1 1-.2 1.2-.7.1-.6-.2-1.1-.7-1.2m3.8 1.1c-.5-.1-.9.1-1 .6-.1.5.1.9.6 1 .5.1.9-.1 1-.6.1-.4-.1-.9-.6-1m3.8 1.1c-.4-.1-.8.1-.9.5-.1.4.1.8.5.9.4.1.8-.1.9-.5.2-.3 0-.8-.5-.9m3.9 1.2c-.4-.1-.7.1-.8.5-.1.4.1.7.5.8.4.1.7-.1.8-.5.1-.4-.2-.7-.5-.8m3.8 1.1c-.3-.1-.6.1-.7.4-.1.3.1.6.4.7.3.1.6-.1.7-.4.1-.3-.1-.6-.4-.7m3.8 1.2c-.2-.1-.4.1-.5.3-.1.2.1.4.3.5.2.1.4-.1.5-.3.1-.2 0-.5-.3-.5m3.9 1.1c-.2 0-.3.1-.4.2 0 .2.1.3.2.4.2 0 .3-.1.4-.2 0-.2-.1-.3-.2-.4m3.8 1.2c-.1 0-.2 0-.2.1s0 .2.1.2.2 0 .2-.1 0-.2-.1-.2M34 .4c.4.1.7-.1.9-.4h-1.4c.1.2.2.3.5.4m3.1 0c-.1.5.2 1 .6 1.1.5.1 1-.2 1.1-.6.1-.3 0-.7-.3-.9h-1.2c0 .1-.1.2-.2.4m5.1.3c-.5-.1-1.1.2-1.2.7-.1.5.2 1.1.7 1.2.5.1 1.1-.2 1.2-.7.1-.5-.2-1-.7-1.2m3.8 1c-.6-.2-1.2.2-1.3.8-.2.6.2 1.2.8 1.3.6.2 1.2-.2 1.3-.8.1-.6-.2-1.2-.8-1.3m3.9.9c-.6-.2-1.2.2-1.4.8-.2.6.2 1.2.8 1.4.6.2 1.3-.1 1.4-.8.2-.6-.2-1.2-.8-1.4m3.9 1c-.6-.2-1.3.2-1.5.9-.2.6.2 1.3.9 1.5.6.2 1.3-.2 1.5-.9.1-.6-.3-1.3-.9-1.5m3.9 1c-.7-.2-1.4.2-1.5.9-.2.7.2 1.4.8 1.5s1.4-.2 1.5-.9c.2-.6-.2-1.3-.8-1.5m3.8 1c-.7-.2-1.4.2-1.6.9-.2.7.2 1.4.9 1.6.7.2 1.4-.2 1.6-.9.2-.7-.2-1.4-.9-1.6m3.9 1c-.7-.2-1.4.2-1.6.9-.2.7.2 1.5.9 1.6.7.2 1.4-.2 1.6-.9.2-.7-.2-1.4-.9-1.6m3.9 1.1c-.7-.2-1.4.2-1.6.9-.2.7.2 1.4.9 1.6.7.2 1.4-.2 1.6-.9.2-.7-.2-1.5-.9-1.6m3.8 1c-.7-.2-1.4.2-1.6.9-.2.7.2 1.4.9 1.6.7.2 1.4-.2 1.6-.9.3-.7-.2-1.4-.9-1.6m3.9 1c-.7-.2-1.4.2-1.6.9-.2.7.2 1.4.9 1.6.7.2 1.4-.2 1.6-.9.2-.7-.2-1.4-.9-1.6m3.9 1.1c-.7-.2-1.4.2-1.6.9-.2.7.2 1.4.9 1.6.7.2 1.4-.2 1.6-.9.1-.7-.3-1.4-.9-1.6m3.8 1.1c-.7-.2-1.3.2-1.5.9s.2 1.3.9 1.5c.7.2 1.3-.2 1.5-.9s-.2-1.4-.9-1.5m3.9 1c-.6-.2-1.3.2-1.5.8-.2.6.2 1.3.8 1.5.6.2 1.3-.2 1.5-.8.2-.6-.2-1.3-.8-1.5m3.8 1.1c-.6-.2-1.2.2-1.4.8-.2.6.2 1.2.8 1.4.6.2 1.2-.2 1.4-.8.2-.6-.2-1.2-.8-1.4m3.9 1.1c-.6-.2-1.2.2-1.3.8-.2.6.2 1.2.8 1.3.6.2 1.2-.2 1.3-.8.1-.5-.3-1.1-.8-1.3m3.8 1.1c-.5-.1-1.1.2-1.2.7-.1.5.2 1.1.7 1.2.5.1 1.1-.2 1.2-.7.1-.5-.2-1-.7-1.2m3.8 1.2c-.5-.1-1 .2-1.1.6-.1.5.2 1 .6 1.1.5.1 1-.2 1.1-.6.2-.5-.1-1-.6-1.1m3.9 1.1c-.4-.1-.9.1-1 .6-.1.4.1.9.6 1 .4.1.9-.1 1-.6.1-.5-.2-.9-.6-1m3.8 1.1c-.4-.1-.7.1-.8.5s.1.7.5.8c.4.1.7-.1.8-.5.1-.3-.1-.7-.5-.8m3.8 1.2c-.3-.1-.6.1-.7.4-.1.3.1.6.4.7.3.1.6-.1.7-.4.1-.3-.1-.6-.4-.7m3.9 1.2c-.2-.1-.4.1-.5.3-.1.2.1.4.3.5.2.1.4-.1.5-.3 0-.2-.1-.4-.3-.5m3.8 1.2c-.1 0-.3 0-.3.2 0 .1 0 .3.2.3.1 0 .3 0 .3-.2s-.1-.3-.2-.3m3.8 1.1c-.1 0-.1 0-.1.1s0 .1.1.1.1 0 .1-.1l-.1-.1M21 .2c-.1.3.1.6.4.7.3.1.6-.1.7-.4.1-.2 0-.4-.1-.5h-.7c-.2.1-.3.1-.3.2m4.6.6c-.4-.1-.7.1-.8.5-.1.4.1.7.5.8s.7-.1.8-.5c.1-.4-.2-.7-.5-.8m3.9.9c-.4-.1-.9.1-1 .6-.1.4.1.9.6 1 .4.1.9-.1 1-.6.1-.5-.2-.9-.6-1m3.9.9c-.5-.1-1 .2-1.1.6s.2 1 .6 1.1c.5.1 1-.2 1.1-.6.1-.5-.1-1-.6-1.1m3.9.9c-.5-.1-1.1.2-1.2.7-.1.5.2 1.1.7 1.2.5.1 1.1-.2 1.2-.7.1-.5-.2-1-.7-1.2m3.8 1c-.6-.2-1.2.2-1.4.8-.2.6.2 1.2.8 1.4.6.2 1.2-.2 1.4-.8s-.2-1.3-.8-1.4m3.9.9c-.6-.2-1.3.2-1.5.8-.2.6.2 1.3.8 1.5.6.2 1.3-.2 1.5-.8.3-.6-.1-1.3-.8-1.5m3.9 1c-.7-.2-1.4.2-1.5.9-.2.7.2 1.4.9 1.5.7.2 1.4-.2 1.5-.9.2-.6-.2-1.3-.9-1.5m3.9 1c-.7-.2-1.4.2-1.6.9-.2.7.2 1.4.9 1.6.7.2 1.4-.2 1.6-.9.2-.7-.2-1.4-.9-1.6m3.9 1c-.7-.2-1.5.2-1.7 1-.2.7.2 1.5 1 1.7.7.2 1.5-.2 1.7-1 .1-.8-.3-1.5-1-1.7m3.8 1c-.7-.2-1.5.2-1.7 1-.2.7.2 1.5 1 1.7.7.2 1.5-.2 1.7-1 .2-.8-.2-1.5-1-1.7m3.9 1c-.8-.2-1.5.2-1.7 1-.2.8.2 1.5 1 1.7.8.2 1.5-.2 1.7-1 .2-.7-.2-1.5-1-1.7m3.9 1c-.8-.2-1.5.2-1.8 1-.2.8.2 1.5 1 1.8.8.2 1.5-.2 1.8-1 .2-.8-.3-1.6-1-1.8m3.8 1c-.8-.2-1.5.2-1.8 1-.2.8.2 1.5 1 1.8.8.2 1.5-.2 1.8-1 .3-.8-.2-1.6-1-1.8m3.9 1.1c-.8-.2-1.5.2-1.7 1-.2.8.2 1.5 1 1.7.8.2 1.5-.2 1.7-1 .2-.7-.2-1.5-1-1.7m3.9 1c-.7-.2-1.5.2-1.7 1-.2.7.2 1.5 1 1.7.7.2 1.5-.2 1.7-1 .1-.7-.3-1.5-1-1.7m3.8 1.1c-.7-.2-1.5.2-1.7 1-.2.7.2 1.5 1 1.7.7.2 1.5-.2 1.7-1 .2-.7-.3-1.5-1-1.7m3.9 1.1c-.7-.2-1.4.2-1.6.9-.2.7.2 1.4.9 1.6.7.2 1.4-.2 1.6-.9.2-.7-.2-1.4-.9-1.6m3.8 1.1c-.7-.2-1.4.2-1.5.9-.2.7.2 1.4.9 1.5.7.2 1.4-.2 1.5-.9.2-.7-.2-1.3-.9-1.5m3.9 1.1c-.6-.2-1.3.2-1.5.8-.2.6.2 1.3.8 1.5.6.2 1.3-.2 1.5-.8.2-.7-.2-1.4-.8-1.5m3.8 1.1c-.6-.2-1.2.2-1.4.8-.2.6.2 1.2.8 1.4.6.2 1.2-.2 1.4-.8.1-.6-.2-1.3-.8-1.4m3.8 1.1c-.5-.1-1.1.2-1.2.7-.1.5.2 1.1.7 1.2s1.1-.2 1.2-.7c.2-.5-.1-1-.7-1.2m3.9 1.2c-.5-.1-1 .2-1.1.6-.1.5.2 1 .6 1.1.5.1 1-.2 1.1-.6.2-.5-.1-1-.6-1.1m3.8 1.1c-.4-.1-.9.1-1 .6-.1.4.1.9.6 1 .4.1.9-.1 1-.6.1-.5-.2-.9-.6-1m3.8 1.2c-.4-.1-.7.1-.8.5-.1.4.1.7.5.8.4.1.7-.1.8-.5.1-.4-.1-.7-.5-.8m3.9 1.1c-.3-.1-.6.1-.6.4-.1.3.1.6.4.6.3.1.6-.1.6-.4 0-.2-.2-.5-.4-.6m3.8 1.2c-.2-.1-.4.1-.5.3-.1.2.1.4.3.5.2.1.4-.1.5-.3 0-.2-.1-.4-.3-.5m3.8 1.2c-.1 0-.2 0-.2.1s0 .2.1.2.2 0 .2-.1c.1-.1 0-.2-.1-.2m3.8 1.2s0 .1 0 0c0 .1.1.1 0 0 .1 0 .1 0 0 0M9 1c-.1 0-.2 0-.2.1s0 .2.1.2.2 0 .2-.1S9.1 1 9 1m3.9.8c-.2 0-.4.1-.4.2 0 .2.1.4.2.4.2 0 .4-.1.4-.2s-.1-.3-.2-.4m3.9.9c-.3-.1-.5.1-.6.3-.1.3.1.5.3.6.3.1.5-.1.6-.3.1-.2-.1-.5-.3-.6m3.9.9c-.3-.1-.7.1-.8.4-.1.3.1.7.4.8.3.1.7-.1.8-.4.1-.3-.1-.7-.4-.8m3.9.9c-.4-.1-.8.1-1 .5s.1.8.5 1c.4.1.8-.1 1-.5.1-.4-.1-.9-.5-1m3.9.9c-.5-.1-1 .2-1.1.6-.1.5.2 1 .6 1.1.5.1 1-.2 1.1-.6.1-.4-.1-.9-.6-1.1m3.9 1c-.5-.1-1.1.2-1.2.7-.1.5.2 1.1.7 1.2.5.1 1.1-.2 1.2-.7.1-.5-.2-1.1-.7-1.2m3.9.9c-.6-.2-1.2.2-1.4.8-.2.6.2 1.2.8 1.4.6.2 1.2-.2 1.4-.8.1-.6-.2-1.3-.8-1.4m3.8.9c-.6-.2-1.3.2-1.5.9-.2.6.2 1.3.9 1.5.6.2 1.3-.2 1.5-.9.2-.6-.2-1.3-.9-1.5m3.9 1c-.7-.2-1.4.2-1.6.9-.2.7.2 1.4.9 1.6.7.2 1.4-.2 1.6-.9.2-.7-.2-1.4-.9-1.6m3.9 1c-.7-.2-1.5.2-1.7 1s.2 1.5 1 1.7 1.5-.2 1.7-1c.2-.8-.3-1.5-1-1.7m3.9.9c-.8-.2-1.5.2-1.7 1-.2.8.2 1.5 1 1.7.8.2 1.5-.2 1.7-1 .2-.7-.3-1.5-1-1.7m3.9 1c-.8-.2-1.6.3-1.8 1s.3 1.6 1 1.8c.8.2 1.6-.3 1.8-1 .2-.8-.3-1.6-1-1.8m3.8 1c-.8-.2-1.6.3-1.8 1.1-.2.8.3 1.6 1.1 1.8.8.2 1.6-.3 1.8-1.1.2-.7-.3-1.6-1.1-1.8m3.9 1c-.8-.2-1.7.3-1.9 1.1-.2.8.3 1.7 1.1 1.9.8.2 1.7-.3 1.9-1.1.2-.8-.3-1.6-1.1-1.9m3.9 1.1c-.8-.2-1.7.3-1.9 1.1-.2.8.3 1.7 1.1 1.9.8.2 1.7-.3 1.9-1.1.2-.9-.3-1.7-1.1-1.9m3.8 1c-.8-.2-1.7.3-1.9 1.1-.2.8.3 1.7 1.1 1.9.8.2 1.7-.3 1.9-1.1.2-.8-.2-1.7-1.1-1.9m3.9 1.1c-.8-.2-1.6.3-1.9 1.1-.2.8.3 1.6 1.1 1.9.8.2 1.6-.3 1.9-1.1.2-.9-.3-1.7-1.1-1.9m3.9 1c-.8-.2-1.6.3-1.8 1.1-.2.8.3 1.6 1.1 1.8.8.2 1.6-.3 1.8-1.1.1-.8-.3-1.6-1.1-1.8m3.8 1.1c-.8-.2-1.6.3-1.8 1-.2.8.3 1.6 1 1.8.8.2 1.6-.3 1.8-1 .2-.8-.2-1.6-1-1.8m3.9 1.1c-.8-.2-1.5.2-1.7 1-.2.8.2 1.5 1 1.7.8.2 1.5-.2 1.7-1 .2-.8-.3-1.5-1-1.7m3.8 1c-.7-.2-1.5.2-1.7 1-.2.7.2 1.5 1 1.7.7.2 1.5-.2 1.7-1 .2-.7-.3-1.5-1-1.7m3.9 1.1c-.7-.2-1.4.2-1.6.9-.2.7.2 1.4.9 1.6.7.2 1.4-.2 1.6-.9.1-.7-.3-1.4-.9-1.6m3.8 1.2c-.6-.2-1.3.2-1.5.9-.2.6.2 1.3.9 1.5.6.2 1.3-.2 1.5-.9s-.3-1.4-.9-1.5m3.8 1.1c-.6-.2-1.2.2-1.4.8-.2.6.2 1.2.8 1.4.6.2 1.2-.2 1.4-.8.2-.6-.2-1.3-.8-1.4m3.9 1.1c-.5-.1-1.1.2-1.2.7-.1.5.2 1.1.7 1.2.5.1 1.1-.2 1.2-.7.1-.5-.2-1-.7-1.2m3.8 1.2c-.5-.1-1 .2-1.1.6-.1.5.2 1 .6 1.1.5.1 1-.2 1.1-.6.2-.5-.1-1-.6-1.1m3.8 1.1c-.4-.1-.8.1-.9.5-.1.4.1.8.5.9.4.1.8-.1.9-.5.2-.3-.1-.8-.5-.9m3.9 1.2c-.3-.1-.7.1-.8.4-.1.3.1.7.4.8.3.1.7-.1.8-.4.1-.4-.1-.7-.4-.8m3.8 1.2c-.2-.1-.5.1-.6.3-.1.2.1.5.3.6.2.1.5-.1.6-.3.1-.3-.1-.6-.3-.6m3.8 1.2c-.2 0-.3.1-.4.2 0 .2.1.3.2.4.2 0 .3-.1.4-.2.1-.2 0-.4-.2-.4m3.8 1.2c-.1 0-.2 0-.2.1s0 .2.1.2.2 0 .2-.1c.1-.1 0-.2-.1-.2M3.9 3.9c0 .1.1.1 0 0 .1.1.2.1.2.1 0-.1 0-.1-.2-.1.1 0 .1 0 0 0m4 .9c-.1 0-.3 0-.3.2 0 .1 0 .3.2.3.1 0 .3 0 .3-.2.1-.2 0-.3-.2-.3m3.9.8c-.2-.1-.4.1-.5.3-.1.2.1.4.3.5.2.1.4-.1.5-.3.1-.2 0-.4-.3-.5m4 .9c-.3-.1-.6.1-.7.4-.1.3.1.6.4.7.3.1.6-.1.7-.4.1-.3-.1-.6-.4-.7m3.9.9c-.4-.1-.8.1-.9.5-.1.4.1.8.5.9.4.1.8-.1.9-.5.1-.4-.2-.8-.5-.9m3.9.9c-.5-.1-.9.2-1.1.6-.1.5.2.9.6 1.1.5.1.9-.2 1.1-.6.1-.5-.2-1-.6-1.1m3.9.9c-.5-.1-1.1.2-1.2.7-.1.5.2 1.1.7 1.2.5.1 1.1-.2 1.2-.7.1-.5-.2-1.1-.7-1.2m3.9.9c-.6-.2-1.2.2-1.4.8-.2.6.2 1.2.8 1.4.6.2 1.2-.2 1.4-.8.1-.6-.3-1.2-.8-1.4m3.8 1c-.6-.2-1.3.2-1.5.9-.2.6.2 1.3.9 1.5.6.2 1.3-.2 1.5-.9.2-.7-.2-1.4-.9-1.5m3.9.9c-.7-.2-1.4.2-1.6.9-.2.7.2 1.4.9 1.6.7.2 1.4-.2 1.6-.9.2-.7-.2-1.4-.9-1.6m3.9 1c-.7-.2-1.5.2-1.7 1-.2.7.2 1.5 1 1.7.7.2 1.5-.2 1.7-1 .2-.8-.2-1.5-1-1.7m3.9.9c-.8-.2-1.6.3-1.8 1-.2.8.3 1.6 1 1.8.8.2 1.6-.3 1.8-1 .2-.8-.2-1.6-1-1.8m3.9 1c-.8-.2-1.6.3-1.9 1.1-.2.8.3 1.6 1.1 1.9.8.2 1.6-.3 1.9-1.1.2-.8-.3-1.7-1.1-1.9m3.9 1c-.8-.2-1.7.3-1.9 1.1-.2.8.3 1.7 1.1 1.9.8.2 1.7-.3 1.9-1.1.2-.8-.3-1.7-1.1-1.9m3.8 1c-.9-.2-1.7.3-2 1.1-.2.9.3 1.7 1.1 2 .9.2 1.7-.3 2-1.1.3-.9-.2-1.8-1.1-2m3.9 1c-.9-.2-1.8.3-2 1.2-.2.9.3 1.8 1.2 2 .9.2 1.8-.3 2-1.2.2-.9-.3-1.8-1.2-2m3.9 1c-.9-.2-1.8.3-2 1.2-.2.9.3 1.8 1.2 2 .9.2 1.8-.3 2-1.2.2-.8-.4-1.7-1.2-2m3.8 1.1c-.9-.2-1.8.3-2 1.2-.2.9.3 1.8 1.2 2 .9.2 1.8-.3 2-1.2.2-.9-.3-1.8-1.2-2m3.9 1c-.9-.2-1.8.3-2 1.2-.2.9.3 1.8 1.2 2 .9.2 1.8-.3 2-1.2.2-.9-.3-1.8-1.2-2m3.8 1.1c-.9-.2-1.7.3-2 1.1-.2.9.3 1.7 1.1 2 .9.2 1.7-.3 2-1.1.3-.9-.2-1.8-1.1-2m3.9 1c-.8-.2-1.7.3-1.9 1.1-.2.8.3 1.7 1.1 1.9.8.2 1.7-.3 1.9-1.1.2-.8-.3-1.6-1.1-1.9m3.8 1.1c-.8-.2-1.6.3-1.8 1.1-.2.8.3 1.6 1.1 1.8.8.2 1.6-.3 1.8-1.1.2-.7-.2-1.6-1.1-1.8m3.9 1.1c-.8-.2-1.6.3-1.8 1-.2.8.3 1.6 1 1.8.8.2 1.6-.3 1.8-1 .2-.8-.2-1.6-1-1.8m3.8 1.1c-.7-.2-1.5.2-1.7 1-.2.7.2 1.5 1 1.7.7.2 1.5-.2 1.7-1 .2-.7-.2-1.5-1-1.7m3.9 1.1c-.7-.2-1.4.2-1.6.9-.2.7.2 1.4.9 1.6.7.2 1.4-.2 1.6-.9.2-.7-.2-1.4-.9-1.6m3.8 1.2c-.6-.2-1.3.2-1.5.9-.2.6.2 1.3.9 1.5.6.2 1.3-.2 1.5-.9.2-.7-.2-1.4-.9-1.5m3.9 1.1c-.6-.2-1.2.2-1.4.8-.2.6.2 1.2.8 1.4.6.2 1.2-.2 1.4-.8.1-.6-.2-1.3-.8-1.4m3.8 1.1c-.5-.1-1.1.2-1.2.7-.1.5.2 1.1.7 1.2.5.1 1.1-.2 1.2-.7.1-.5-.2-1-.7-1.2m3.8 1.2c-.5-.1-.9.1-1 .6s.1.9.6 1c.5.1.9-.1 1-.6.2-.4-.1-.9-.6-1m3.9 1.2c-.4-.1-.8.1-.9.5s.1.8.5.9c.4.1.8-.1.9-.5.1-.4-.2-.8-.5-.9m3.8 1.2c-.3-.1-.6.1-.7.4-.1.3.1.6.4.7.3.1.6-.1.7-.4 0-.4-.1-.7-.4-.7m3.8 1.2c-.2-.1-.4.1-.5.3-.1.2.1.4.3.5.2.1.4-.1.5-.3 0-.3-.1-.5-.3-.5m3.8 1.1c-.1 0-.3 0-.3.2 0 .1 0 .3.2.3.1 0 .3 0 .3-.2 0-.1-.1-.2-.2-.3m3.8 1.3c-.1 0 0 .1 0 0 .1.1.1.1.1 0 0 0 0-.1-.1 0 0-.1 0-.1 0 0M3 7.7c-.1 0-.2 0-.2.1s0 .2.1.2.2 0 .2-.1c.1-.1 0-.2-.1-.2m3.9.8c-.2 0-.4.1-.4.2 0 .2.1.4.2.4.2 0 .4-.1.4-.2.1-.1 0-.3-.2-.4m3.9.9c-.3-.1-.5.1-.6.4-.1.3.1.5.4.6.3.1.5-.1.6-.4.1-.2-.1-.5-.4-.6m3.9.9c-.4-.1-.7.1-.8.5-.1.4.1.7.5.8.4.1.7-.1.8-.5.1-.4-.1-.7-.5-.8m3.9.9c-.4-.1-.9.1-1 .6-.1.4.1.9.6 1 .4.1.9-.1 1-.6.1-.5-.1-.9-.6-1m3.9.9c-.5-.1-1 .2-1.2.7-.1.5.2 1 .7 1.2.5.1 1-.2 1.2-.7.1-.6-.2-1.1-.7-1.2m3.9.9c-.6-.2-1.2.2-1.3.8-.2.6.2 1.2.8 1.3.6.2 1.2-.2 1.3-.8.2-.6-.2-1.2-.8-1.3m3.9.9c-.6-.2-1.3.2-1.5.8-.2.6.2 1.3.8 1.5.6.2 1.3-.2 1.5-.8.3-.7-.1-1.3-.8-1.5m3.9 1c-.7-.2-1.4.2-1.6.9-.2.7.2 1.4.9 1.6.7.2 1.4-.2 1.6-.9.2-.8-.2-1.5-.9-1.6m3.9.9c-.7-.2-1.5.2-1.7 1s.2 1.5 1 1.7c.7.2 1.5-.2 1.7-1 .2-.7-.2-1.5-1-1.7m3.9 1c-.8-.2-1.6.3-1.8 1-.2.8.3 1.6 1 1.8.8.2 1.6-.3 1.8-1 .2-.8-.2-1.6-1-1.8m3.9.9c-.8-.2-1.7.3-1.9 1.1-.2.8.3 1.7 1.1 1.9.8.2 1.7-.3 1.9-1.1.2-.8-.3-1.7-1.1-1.9m3.9 1c-.9-.2-1.7.3-2 1.1-.2.9.3 1.7 1.1 2 .9.2 1.7-.3 2-1.1.2-.9-.3-1.8-1.1-2m3.8 1c-.9-.2-1.8.3-2 1.2-.2.9.3 1.8 1.2 2 .9.2 1.8-.3 2-1.2.3-.9-.3-1.8-1.2-2m3.9 1c-.9-.2-1.8.3-2.1 1.2-.2.9.3 1.8 1.2 2.1.9.2 1.8-.3 2.1-1.2.3-1-.3-1.9-1.2-2.1m3.9 1c-.9-.2-1.9.3-2.1 1.2-.2.9.3 1.9 1.2 2.1.9.2 1.9-.3 2.1-1.2.3-.9-.3-1.9-1.2-2.1m3.9 1c-.9-.2-1.9.3-2.1 1.2-.2.9.3 1.9 1.2 2.1.9.2 1.9-.3 2.1-1.2.2-.9-.3-1.9-1.2-2.1m3.8 1c-.9-.2-1.9.3-2.1 1.3-.2.9.3 1.9 1.2 2.1.9.2 1.9-.3 2.1-1.2s-.2-1.9-1.2-2.2m3.9 1.1c-.9-.2-1.9.3-2.1 1.2-.2.9.3 1.9 1.2 2.1.9.2 1.9-.3 2.1-1.2.2-.9-.3-1.9-1.2-2.1m3.8 1c-.9-.2-1.8.3-2.1 1.2-.2 1 .3 1.9 1.3 2.1.9.2 1.8-.3 2.1-1.2.2-.9-.4-1.8-1.3-2.1m3.9 1.1c-.9-.2-1.8.3-2 1.2-.2.9.3 1.8 1.2 2 .9.2 1.8-.3 2-1.2.2-.8-.3-1.7-1.2-2m3.8 1.1c-.9-.2-1.7.3-2 1.1-.2.9.3 1.7 1.1 2 .9.2 1.7-.3 2-1.1.3-.9-.2-1.8-1.1-2m3.9 1.1c-.8-.2-1.7.3-1.9 1.1-.2.8.3 1.7 1.1 1.9.8.2 1.7-.3 1.9-1.1.2-.8-.3-1.7-1.1-1.9m3.8 1.1c-.8-.2-1.6.3-1.8 1-.2.8.3 1.6 1 1.8.8.2 1.6-.3 1.8-1 .3-.8-.2-1.6-1-1.8m3.9 1.1c-.7-.2-1.5.2-1.7 1-.2.7.2 1.5 1 1.7.7.2 1.5-.2 1.7-1 .2-.7-.3-1.5-1-1.7m3.8 1.1c-.7-.2-1.4.2-1.6.9-.2.7.2 1.4.9 1.6.7.2 1.4-.2 1.6-.9.2-.7-.2-1.4-.9-1.6m3.8 1.2c-.6-.2-1.3.2-1.5.8-.2.6.2 1.3.8 1.5.6.2 1.3-.2 1.5-.8.3-.7-.1-1.4-.8-1.5m3.9 1.1c-.6-.1-1.1.2-1.3.7-.2.6.2 1.1.7 1.3.6.2 1.1-.2 1.3-.7.2-.5-.2-1.1-.7-1.3m3.8 1.2c-.5-.1-1 .2-1.1.7-.1.5.2 1 .7 1.1s1-.2 1.1-.7c.1-.5-.2-1-.7-1.1m3.8 1.2c-.4-.1-.9.1-1 .6s.1.9.6 1c.4.1.9-.1 1-.6.1-.5-.1-.9-.6-1m3.9 1.1c-.3-.1-.7.1-.8.5s.1.7.5.8c.3.1.7-.1.8-.5 0-.3-.2-.7-.5-.8m3.8 1.2c-.3-.1-.5.1-.6.3-.1.3.1.5.3.6.3.1.5-.1.6-.3.1-.2-.1-.5-.3-.6m3.8 1.2c-.2 0-.3.1-.4.2 0 .2.1.3.2.4.2 0 .3-.1.4-.2s0-.3-.2-.4m3.8 1.2c-.1 0-.1 0-.1.1s0 .1.1.1.1 0 .1-.1l-.1-.1M-2 10.6c0 .1.1.1 0 0 .1.1.1.1 0 0 .1 0 .1 0 0 0 .1 0 .1 0 0 0m4 .9c-.1 0-.2 0-.3.2 0 .1 0 .2.2.3.1 0 .2 0 .3-.2 0-.2-.1-.3-.2-.3m3.9.9c-.2-.1-.4.1-.5.3-.1.2.1.4.3.5.2.1.4-.1.5-.3 0-.3-.1-.5-.3-.5m3.9.8c-.3-.1-.6.1-.7.4-.1.3.1.6.4.7.3.1.6-.1.7-.4.1-.3-.1-.6-.4-.7m3.9.9c-.4-.1-.8.1-.9.5-.1.4.1.8.5.9.4.1.8-.1.9-.5.1-.4-.1-.8-.5-.9m3.9.9c-.5-.1-1 .2-1.1.6-.1.5.2 1 .6 1.1.5.1 1-.2 1.1-.6.2-.5-.1-1-.6-1.1m3.9.9c-.5-.1-1.1.2-1.2.7-.1.5.2 1.1.7 1.2.5.1 1.1-.2 1.2-.7.2-.5-.1-1.1-.7-1.2m3.9.9c-.6-.2-1.2.2-1.4.8-.2.6.2 1.2.8 1.4.6.2 1.2-.2 1.4-.8.2-.6-.2-1.2-.8-1.4m3.9.9c-.7-.2-1.4.2-1.5.9-.2.7.2 1.4.9 1.5.7.2 1.4-.2 1.5-.9.2-.6-.2-1.3-.9-1.5m3.9.9c-.7-.2-1.5.2-1.7 1s.2 1.5 1 1.7 1.5-.2 1.7-1c.2-.7-.3-1.5-1-1.7m3.9 1c-.8-.2-1.6.3-1.8 1-.2.8.3 1.6 1 1.8.8.2 1.6-.3 1.8-1 .2-.8-.2-1.6-1-1.8m3.9.9c-.8-.2-1.7.3-1.9 1.1-.2.8.3 1.7 1.1 1.9.8.2 1.7-.3 1.9-1.1.2-.8-.3-1.6-1.1-1.9m3.9 1c-.9-.2-1.8.3-2 1.2-.2.9.3 1.8 1.2 2 .9.2 1.8-.3 2-1.2.2-.9-.4-1.8-1.2-2m3.9 1c-.9-.2-1.8.3-2.1 1.2-.2.9.3 1.8 1.2 2.1.9.2 1.8-.3 2.1-1.2.2-1-.3-1.9-1.2-2.1m3.8.9c-.9-.2-1.9.3-2.1 1.2-.2.9.3 1.9 1.2 2.1.9.2 1.9-.3 2.1-1.2s-.2-1.8-1.2-2.1m3.9 1c-1-.3-1.9.3-2.2 1.3-.3 1 .3 1.9 1.3 2.2 1 .3 1.9-.3 2.2-1.3.2-.9-.3-1.9-1.3-2.2m3.9 1c-1-.3-2 .3-2.2 1.3-.3 1 .3 2 1.3 2.2 1 .3 2-.3 2.2-1.3.2-.9-.3-1.9-1.3-2.2m3.8 1.1c-1-.3-2 .3-2.3 1.3-.3 1 .3 2 1.3 2.3 1 .3 2-.3 2.3-1.3.3-1.1-.3-2.1-1.3-2.3m3.9 1c-1-.3-2 .3-2.3 1.3-.3 1 .3 2 1.3 2.3 1 .3 2-.3 2.3-1.3.3-1-.3-2-1.3-2.3m3.9 1c-1-.3-2 .3-2.2 1.3-.3 1 .3 2 1.3 2.2 1 .3 2-.3 2.2-1.3.2-.9-.4-1.9-1.3-2.2m3.8 1.1c-1-.3-1.9.3-2.2 1.3-.3 1 .3 1.9 1.3 2.2 1 .3 1.9-.3 2.2-1.3.3-.9-.3-1.9-1.3-2.2m3.9 1.1c-.9-.2-1.9.3-2.1 1.2-.2.9.3 1.9 1.2 2.1.9.2 1.9-.3 2.1-1.2s-.3-1.9-1.2-2.1m3.8 1.1c-.9-.2-1.8.3-2.1 1.2-.2.9.3 1.8 1.2 2.1.9.2 1.8-.3 2.1-1.2.3-.9-.3-1.9-1.2-2.1m3.9 1.1c-.9-.2-1.7.3-2 1.1-.2.9.3 1.7 1.1 2 .9.2 1.7-.3 2-1.1.2-.9-.3-1.8-1.1-2m3.8 1.1c-.8-.2-1.7.3-1.9 1.1-.2.8.3 1.7 1.1 1.9.8.2 1.7-.3 1.9-1.1.2-.8-.3-1.7-1.1-1.9m3.9 1.1c-.8-.2-1.6.3-1.8 1-.2.8.3 1.6 1 1.8.8.2 1.6-.3 1.8-1 .2-.8-.3-1.6-1-1.8m3.8 1.1c-.7-.2-1.5.2-1.7 1-.2.7.2 1.5 1 1.7.7.2 1.5-.2 1.7-1 .1-.7-.3-1.5-1-1.7m3.8 1.2c-.7-.2-1.4.2-1.5.9-.2.7.2 1.4.9 1.5.7.2 1.4-.2 1.5-.9.2-.7-.2-1.3-.9-1.5m3.9 1.1c-.6-.2-1.2.2-1.4.8s.2 1.2.8 1.4c.6.2 1.2-.2 1.4-.8.1-.6-.2-1.2-.8-1.4m3.8 1.2c-.5-.1-1.1.2-1.2.7-.1.5.2 1.1.7 1.2.5.1 1.1-.2 1.2-.7.1-.5-.2-1.1-.7-1.2m3.8 1.2c-.5-.1-.9.2-1.1.6-.1.5.2.9.6 1.1.5.1.9-.1 1.1-.6.2-.5-.1-1-.6-1.1M118 42c-.4-.1-.8.1-.9.5-.1.4.1.8.5.9.4.1.8-.1.9-.5.2-.4-.1-.8-.5-.9m3.9 1.2c-.3-.1-.6.1-.7.4-.1.3.1.6.4.7.3.1.6-.1.7-.4 0-.3-.1-.6-.4-.7m3.8 1.2c-.2-.1-.4.1-.5.3-.1.2.1.4.3.5.2.1.4-.1.5-.3 0-.2-.1-.4-.3-.5m3.8 1.2c-.1 0-.2 0-.2.1s0 .2.1.2.2 0 .2-.1c.1 0 0-.1-.1-.2m3.8 1.3c0-.1 0 0 0 0M-3 14.5s0 .1 0 0c.1.1.1.1.1 0H-3c0-.1 0 0 0 0m4 .8c-.1 0-.3 0-.3.2s0 .3.2.3c.1 0 .3 0 .3-.2 0-.1-.1-.3-.2-.3m3.9.9c-.2-.1-.5.1-.6.3 0 .2.1.5.4.5.2.1.5-.1.6-.3 0-.2-.2-.5-.4-.5m3.9.8c-.3-.1-.7.1-.8.4-.1.3.1.7.4.8.3.1.7-.1.8-.4.1-.3-.1-.7-.4-.8m3.9.9c-.4-.1-.9.1-1 .6-.1.4.1.9.6 1 .4.1.9-.1 1-.6.1-.5-.2-.9-.6-1m3.9.9c-.5-.1-1 .2-1.1.7s.2 1 .7 1.1c.5.1 1-.2 1.1-.7.1-.5-.2-1-.7-1.1m3.9.9c-.6-.2-1.2.2-1.3.8-.2.5.2 1.1.8 1.3.6.2 1.2-.2 1.3-.8.1-.6-.2-1.2-.8-1.3m3.9.9c-.6-.2-1.3.2-1.5.9-.2.6.2 1.3.9 1.5.6.2 1.3-.2 1.5-.9.1-.7-.2-1.3-.9-1.5m3.9.9c-.7-.2-1.4.2-1.6.9-.2.7.2 1.4.9 1.6.7.2 1.4-.2 1.6-.9.2-.7-.2-1.4-.9-1.6m3.9 1c-.8-.2-1.5.2-1.7 1-.2.8.2 1.5 1 1.7.8.2 1.5-.2 1.7-1 .2-.8-.3-1.5-1-1.7m3.9.9c-.8-.2-1.6.3-1.9 1.1-.2.8.3 1.6 1.1 1.9.8.2 1.6-.3 1.9-1.1.2-.9-.3-1.7-1.1-1.9m3.9.9c-.9-.2-1.7.3-2 1.1-.2.9.3 1.7 1.1 2 .9.2 1.7-.3 2-1.1.2-.8-.3-1.7-1.1-2m3.9 1c-.9-.2-1.8.3-2.1 1.2-.2.9.3 1.8 1.2 2.1.9.2 1.8-.3 2.1-1.2.2-.9-.3-1.9-1.2-2.1m3.8 1c-.9-.3-1.9.3-2.2 1.3-.3.9.3 1.9 1.3 2.2.9.3 1.9-.3 2.2-1.3.2-1-.3-2-1.3-2.2m3.9.9c-1-.3-2 .3-2.2 1.3-.3 1 .3 2 1.3 2.2 1 .3 2-.3 2.2-1.3.3-.9-.3-1.9-1.3-2.2m3.9 1c-1-.3-2.1.3-2.3 1.3-.3 1 .3 2.1 1.3 2.3 1 .3 2.1-.3 2.3-1.3.3-1-.3-2-1.3-2.3m3.9 1c-1-.3-2.1.3-2.4 1.4-.3 1 .3 2.1 1.4 2.4 1 .3 2.1-.3 2.4-1.4.2-1.1-.4-2.1-1.4-2.4" class="bg-st1"/>
  <path d="M63.2 30.2c-1-.3-2.1.3-2.4 1.4-.3 1 .3 2.1 1.4 2.4 1 .3 2.1-.3 2.4-1.4.3-1-.3-2.1-1.4-2.4m3.9 1.1c-1-.3-2.1.3-2.4 1.4-.3 1 .3 2.1 1.4 2.4 1 .3 2.1-.3 2.4-1.4.3-1.1-.4-2.2-1.4-2.4m3.9 1c-1-.3-2.1.3-2.4 1.4-.3 1 .3 2.1 1.4 2.4 1 .3 2.1-.3 2.4-1.4.2-1.1-.4-2.1-1.4-2.4m3.8 1.1c-1-.3-2 .3-2.3 1.3-.3 1 .3 2 1.3 2.3 1 .3 2-.3 2.3-1.3.3-1-.3-2-1.3-2.3m3.9 1.1c-1-.3-2 .3-2.2 1.3-.3 1 .3 2 1.3 2.2 1 .3 2-.3 2.2-1.3.2-1-.4-2-1.3-2.2m3.8 1.1c-.9-.3-1.9.3-2.2 1.2-.3.9.3 1.9 1.2 2.2.9.3 1.9-.3 2.2-1.2.3-1-.3-2-1.2-2.2m3.9 1.1c-.9-.2-1.8.3-2.1 1.2-.2.9.3 1.8 1.2 2.1.9.2 1.8-.3 2.1-1.2.2-1-.3-1.9-1.2-2.1m3.8 1.1c-.9-.2-1.7.3-2 1.1-.2.9.3 1.7 1.1 2s1.7-.3 2-1.1c.3-.9-.3-1.8-1.1-2m3.8 1.1c-.8-.2-1.6.3-1.8 1.1-.2.8.3 1.6 1.1 1.8.8.2 1.6-.3 1.8-1.1.2-.7-.3-1.6-1.1-1.8m3.9 1.2c-.8-.2-1.5.2-1.7 1-.2.8.2 1.5 1 1.7.8.2 1.5-.2 1.7-1 .2-.8-.3-1.5-1-1.7m3.8 1.1c-.7-.2-1.4.2-1.6.9-.2.7.2 1.4.9 1.6.7.2 1.4-.2 1.6-.9.2-.7-.2-1.4-.9-1.6m3.8 1.1c-.6-.2-1.3.2-1.5.8s.2 1.3.8 1.5c.6.2 1.3-.2 1.5-.8.3-.6-.1-1.3-.8-1.5m3.9 1.2c-.6-.1-1.1.2-1.3.7-.2.6.2 1.1.7 1.3.6.2 1.1-.2 1.3-.7.2-.6-.2-1.1-.7-1.3m3.8 1.2c-.5-.1-1 .2-1.1.7-.1.5.2 1 .7 1.1.5.1 1-.2 1.1-.7.1-.5-.2-1-.7-1.1m3.8 1.1c-.4-.1-.8.1-1 .5-.1.4.1.8.5 1 .4.1.8-.1 1-.5.2-.4-.1-.9-.5-1m3.9 1.2c-.3-.1-.7.1-.8.4-.1.3.1.7.4.8.3.1.7-.1.8-.4.1-.3-.1-.7-.4-.8m3.8 1.2c-.2-.1-.5.1-.5.3-.1.2.1.5.3.5.2.1.5-.1.5-.3 0-.2-.1-.4-.3-.5m3.8 1.2c-.1 0-.3 0-.3.2 0 .1 0 .3.2.3.1 0 .3 0 .3-.2 0-.1-.1-.2-.2-.3m3.7 1.3s0 .1 0 0c.1.1.1.1.1 0h-.1c.1 0 0 0 0 0M-4 18.3c-.1 0-.1 0-.1.1s0 .1.1.1.1 0 .1-.1c0 0 0-.1-.1-.1m4 .8c-.2 0-.3.1-.4.2 0 .2.1.3.2.4.2 0 .3-.1.4-.2 0-.2-.1-.3-.2-.4m3.9.9c-.3-.1-.5.1-.6.4-.1.3.1.5.4.6.3.1.5-.1.6-.4 0-.3-.2-.6-.4-.6m3.9.8c-.4-.1-.8.2-.8.5-.1.4.1.7.5.8s.7-.1.8-.5c.1-.3-.2-.7-.5-.8m3.9.9c-.4-.1-.9.1-1 .6-.1.4.1.9.6 1 .4.1.9-.1 1-.6.1-.4-.2-.9-.6-1m3.9.9c-.5-.1-1.1.2-1.2.7-.1.5.2 1.1.7 1.2.5.1 1.1-.2 1.2-.7.1-.5-.2-1.1-.7-1.2m3.9.9c-.6-.2-1.2.2-1.4.8-.2.6.2 1.2.8 1.4s1.2-.2 1.4-.8c.2-.6-.2-1.2-.8-1.4m3.9.9c-.7-.2-1.4.2-1.5.9-.2.7.2 1.4.9 1.5.7.2 1.4-.2 1.5-.9.1-.6-.2-1.3-.9-1.5m3.9.9c-.7-.2-1.5.2-1.7 1s.2 1.5 1 1.7 1.5-.2 1.7-1c.1-.7-.3-1.5-1-1.7m3.9 1c-.8-.2-1.6.3-1.8 1-.2.8.3 1.6 1 1.8.8.2 1.6-.3 1.8-1 .2-.8-.3-1.6-1-1.8m3.9.9c-.8-.2-1.7.3-1.9 1.1-.2.8.3 1.7 1.1 1.9.8.2 1.7-.3 1.9-1.1.2-.8-.3-1.7-1.1-1.9m3.8 1c-.9-.2-1.8.3-2 1.2-.2.9.3 1.8 1.2 2 .9.2 1.8-.3 2-1.2.3-.9-.3-1.8-1.2-2m3.9.9c-.9-.2-1.9.3-2.1 1.2-.2.9.3 1.9 1.2 2.1.9.2 1.9-.3 2.1-1.2.3-.9-.2-1.8-1.2-2.1m3.9 1c-1-.3-2 .3-2.2 1.3-.3 1 .3 2 1.3 2.2 1 .3 2-.3 2.2-1.3.3-1-.3-2-1.3-2.2m3.9.9c-1-.3-2.1.3-2.3 1.4-.3 1 .3 2.1 1.3 2.3 1 .3 2.1-.3 2.3-1.3.3-1.1-.3-2.1-1.3-2.4m3.9 1c-1.1-.3-2.1.3-2.4 1.4-.3 1.1.3 2.1 1.4 2.4 1.1.3 2.1-.3 2.4-1.4.3-1-.4-2.1-1.4-2.4" class="bg-st1"/>
  <path d="M58.4 33c-1.1-.3-2.2.4-2.5 1.4-.3 1.1.4 2.2 1.4 2.5 1.1.3 2.2-.4 2.5-1.4.3-1.1-.4-2.2-1.4-2.5" class="bg-st1"/>
  <path d="M62.2 34c-1.1-.3-2.2.4-2.5 1.5-.3 1.1.4 2.2 1.5 2.5 1.1.3 2.2-.4 2.5-1.5.3-1.1-.4-2.2-1.5-2.5" class="bg-st1"/>
  <path d="M66.1 35c-1.1-.3-2.2.4-2.5 1.5-.3 1.1.4 2.2 1.5 2.5 1.1.3 2.2-.4 2.5-1.5.3-1.1-.4-2.2-1.5-2.5" class="bg-st1"/>
  <path d="M69.9 36.1c-1.1-.3-2.2.4-2.5 1.4-.3 1.1.4 2.2 1.4 2.5 1.1.3 2.2-.4 2.5-1.4.4-1.1-.3-2.2-1.4-2.5m3.9 1.1c-1.1-.3-2.1.3-2.4 1.4-.3 1.1.3 2.1 1.4 2.4 1.1.3 2.1-.3 2.4-1.4.3-1.1-.3-2.2-1.4-2.4m3.8 1.1c-1-.3-2.1.3-2.3 1.4-.3 1 .3 2.1 1.4 2.3 1 .3 2.1-.3 2.3-1.3.3-1.1-.3-2.2-1.4-2.4m3.9 1.1c-1-.3-2 .3-2.2 1.3-.3 1 .3 2 1.3 2.2 1 .3 2-.3 2.2-1.3.2-1-.3-2-1.3-2.2m3.8 1.1c-.9-.2-1.9.3-2.1 1.2-.2.9.3 1.9 1.2 2.1.9.2 1.9-.3 2.1-1.2.3-.9-.2-1.9-1.2-2.1m3.9 1.1c-.9-.2-1.8.3-2 1.2s.3 1.8 1.2 2c.9.2 1.8-.3 2-1.2.2-.8-.3-1.7-1.2-2m3.8 1.1c-.8-.2-1.7.3-1.9 1.1-.2.8.3 1.7 1.1 1.9.8.2 1.7-.3 1.9-1.1.2-.8-.3-1.6-1.1-1.9m3.9 1.2c-.8-.2-1.6.3-1.8 1-.2.8.3 1.6 1 1.8.8.2 1.6-.3 1.8-1 .2-.8-.3-1.6-1-1.8m3.8 1.1c-.7-.2-1.5.2-1.7 1s.2 1.5 1 1.7c.7.2 1.5-.2 1.7-1 .1-.8-.3-1.5-1-1.7m3.8 1.1c-.7-.2-1.3.2-1.5.9-.2.7.2 1.3.9 1.5.7.2 1.3-.2 1.5-.9.2-.6-.2-1.3-.9-1.5m3.9 1.2c-.6-.2-1.2.2-1.4.8-.2.6.2 1.2.8 1.4.6.2 1.2-.2 1.4-.8.1-.6-.3-1.2-.8-1.4m3.8 1.2c-.5-.1-1.1.2-1.2.7-.1.5.2 1.1.7 1.2.5.1 1.1-.2 1.2-.7.1-.6-.2-1.1-.7-1.2m3.8 1.2c-.4-.1-.9.1-1 .6-.1.4.1.9.6 1 .4.1.9-.1 1-.6.1-.5-.2-.9-.6-1m3.8 1.2c-.3-.1-.7.1-.8.5s.1.7.5.8c.3.1.7-.1.8-.5.1-.4-.1-.7-.5-.8m3.8 1.1c-.3-.1-.5.1-.6.3-.1.3.1.5.3.6.3.1.5-.1.6-.3.2-.2 0-.5-.3-.6m3.9 1.3c-.2 0-.3.1-.4.2 0 .2.1.3.2.4.2 0 .3 0 .4-.2 0-.2-.1-.4-.2-.4m3.8 1.2c-.1 0-.1 0-.1.1s0 .1.1.1.1 0 .1-.1l-.1-.1M-5 22.1c-.1 0-.2 0-.2.1s0 .2.1.2.2 0 .2-.1 0-.2-.1-.2m3.9.9c-.2 0-.4.1-.4.2 0 .2.1.4.2.4.2 0 .4-.1.4-.2.1-.2 0-.4-.2-.4m3.9.8c-.3-.1-.6.1-.7.4-.1.3.1.6.4.7.3.1.6-.1.7-.4.1-.3-.1-.6-.4-.7m4 .9c-.4-.1-.8.1-.9.5-.1.3.1.7.5.8.4.1.8-.1.9-.5 0-.3-.2-.7-.5-.8m3.9.9c-.5-.1-.9.2-1.1.6-.1.5.2.9.6 1.1.5.1.9-.2 1.1-.6.1-.6-.2-1-.6-1.1m3.9.8c-.5-.1-1.1.2-1.2.7-.1.5.2 1.1.7 1.2.5.1 1.1-.2 1.2-.7.1-.5-.2-1-.7-1.2m3.9.9c-.6-.2-1.2.2-1.4.8-.2.6.2 1.2.8 1.4.6.2 1.2-.2 1.4-.8.1-.6-.2-1.2-.8-1.4m3.9.9c-.7-.2-1.4.2-1.6.9-.2.7.2 1.4.9 1.6.7.2 1.4-.2 1.6-.9.2-.7-.3-1.4-.9-1.6m3.9 1c-.7-.2-1.5.2-1.7 1-.2.7.2 1.5 1 1.7.7.2 1.5-.2 1.7-1 .1-.8-.3-1.5-1-1.7m3.8.9c-.8-.2-1.6.3-1.8 1.1-.2.8.3 1.6 1.1 1.8.8.2 1.6-.3 1.8-1.1.2-.8-.3-1.6-1.1-1.8m3.9.9c-.9-.2-1.7.3-2 1.1-.2.9.3 1.7 1.1 2 .9.2 1.7-.3 2-1.1.3-.8-.2-1.7-1.1-2m3.9 1c-.9-.2-1.8.3-2.1 1.2-.2.9.3 1.8 1.2 2.1.9.2 1.8-.3 2.1-1.2.3-.9-.3-1.9-1.2-2.1m3.9.9c-1-.3-1.9.3-2.2 1.3-.3 1 .3 1.9 1.3 2.2 1 .3 1.9-.3 2.2-1.3.2-.9-.3-1.9-1.3-2.2m3.9 1c-1-.3-2.1.3-2.3 1.3-.3 1 .3 2.1 1.3 2.3 1 .3 2.1-.3 2.3-1.3.3-1-.3-2.1-1.3-2.3m3.9.9c-1.1-.3-2.1.3-2.4 1.4-.3 1.1.3 2.1 1.4 2.4 1.1.3 2.1-.3 2.4-1.4.3-1-.4-2.1-1.4-2.4m3.9 1c-1.1-.3-2.2.4-2.5 1.5-.3 1.1.4 2.2 1.5 2.5 1.1.3 2.2-.4 2.5-1.5.2-1.1-.4-2.2-1.5-2.5" class="bg-st1"/>
  <path d="M57.4 36.7c-1.1-.3-2.3.4-2.6 1.5-.3 1.1.4 2.3 1.5 2.6s2.3-.4 2.6-1.5-.4-2.3-1.5-2.6" class="bg-st1"/>
  <path d="M61.2 37.7c-1.2-.3-2.4.4-2.7 1.5-.3 1.2.4 2.4 1.5 2.7 1.2.3 2.4-.4 2.7-1.5.4-1.2-.3-2.4-1.5-2.7" class="bg-st1"/>
  <path d="M65.1 38.8c-1.2-.3-2.3.4-2.6 1.5-.3 1.2.4 2.3 1.5 2.6 1.2.3 2.3-.4 2.6-1.5.3-1.1-.4-2.3-1.5-2.6" class="bg-st1"/>
  <path d="M68.9 39.9c-1.1-.3-2.3.4-2.6 1.5-.3 1.1.4 2.3 1.5 2.6 1.1.3 2.3-.4 2.6-1.5.3-1.2-.3-2.3-1.5-2.6" class="bg-st1"/>
  <path d="M72.8 41c-1.1-.3-2.2.4-2.5 1.5-.3 1.1.4 2.2 1.5 2.5 1.1.3 2.2-.4 2.5-1.5.2-1.1-.4-2.3-1.5-2.5" class="bg-st1"/>
  <path d="M76.6 42.1c-1-.3-2.1.3-2.4 1.4-.3 1 .3 2.1 1.4 2.4 1 .3 2.1-.3 2.4-1.4.3-1.1-.3-2.1-1.4-2.4m3.9 1.1c-1-.3-2 .3-2.3 1.3-.3 1 .3 2 1.3 2.3 1 .3 2-.3 2.3-1.3.3-1-.3-2-1.3-2.3m3.8 1.1c-1-.3-1.9.3-2.2 1.3-.3 1 .3 1.9 1.3 2.2 1 .3 1.9-.3 2.2-1.3.2-1-.3-1.9-1.3-2.2m3.9 1.1c-.9-.2-1.8.3-2.1 1.2-.2.9.3 1.8 1.2 2.1.9.2 1.8-.3 2.1-1.2.2-.9-.3-1.8-1.2-2.1m3.8 1.2c-.9-.2-1.7.3-2 1.1-.2.9.3 1.7 1.1 2 .9.2 1.7-.3 2-1.1.2-.9-.3-1.8-1.1-2m3.8 1.1c-.8-.2-1.6.3-1.8 1.1-.2.8.3 1.6 1.1 1.8.8.2 1.6-.3 1.8-1.1.2-.8-.3-1.6-1.1-1.8m3.9 1.1c-.7-.2-1.5.2-1.7 1-.2.7.2 1.5 1 1.7.7.2 1.5-.2 1.7-1 .1-.7-.3-1.5-1-1.7m3.8 1.2c-.7-.2-1.4.2-1.6.9-.2.7.2 1.4.9 1.6.7.2 1.4-.2 1.6-.9.2-.7-.2-1.4-.9-1.6m3.8 1.1c-.6-.2-1.2.2-1.4.8-.2.6.2 1.2.8 1.4.6.2 1.2-.2 1.4-.8.2-.6-.2-1.2-.8-1.4m3.9 1.2c-.5-.1-1.1.2-1.2.7-.1.5.2 1.1.7 1.2.5.1 1.1-.2 1.2-.7.1-.5-.2-1-.7-1.2m3.8 1.2c-.5-.1-.9.1-1 .6-.1.5.1.9.6 1 .5.1.9-.1 1-.6.1-.4-.2-.9-.6-1m3.8 1.2c-.4-.1-.7.1-.8.5-.1.4.1.7.5.8.4.1.7-.1.8-.5.1-.3-.1-.7-.5-.8m3.8 1.2c-.3-.1-.6.1-.6.4-.1.3.1.6.4.6.3.1.6-.1.6-.4.1-.3-.1-.5-.4-.6m3.8 1.2c-.2 0-.4.1-.4.2 0 .2.1.4.2.4.2 0 .4-.1.4-.2.1-.2 0-.4-.2-.4m3.9 1.2c-.1 0-.2 0-.2.1s0 .2.1.2.2 0 .2-.1-.1-.2-.1-.2M-6 25.9c-.1 0-.2 0-.2.1s0 .2.1.2.2 0 .2-.1c0 0 0-.1-.1-.2m3.9.9c-.2-.1-.4.1-.5.3-.1.2.1.4.3.5s.4-.1.5-.3c0-.3-.1-.5-.3-.5m3.9.8c-.3-.1-.6.1-.7.4-.1.3.1.6.4.7.3.1.6-.1.7-.4.1-.3-.1-.6-.4-.7m3.9.9c-.4-.1-.8.1-.9.5-.1.4.1.8.5.9.4.1.8-.1.9-.5.1-.4-.1-.8-.5-.9m3.9.9c-.5-.1-1 .2-1.1.6-.1.5.2 1 .6 1.1.5.1 1-.2 1.1-.6.2-.5-.1-1-.6-1.1m3.9.9c-.6-.1-1.1.2-1.3.7-.1.6.2 1.1.7 1.3.6.1 1.1-.2 1.3-.7s-.1-1.2-.7-1.3m3.9.9c-.6-.2-1.2.2-1.4.8-.2.6.2 1.3.8 1.5.6.2 1.3-.2 1.5-.8.1-.7-.2-1.4-.9-1.5m3.9.9c-.7-.2-1.4.2-1.6.9-.2.7.2 1.4.9 1.6s1.4-.2 1.6-.9c.2-.7-.2-1.4-.9-1.6m3.9.9c-.8-.2-1.5.2-1.7 1-.2.8.2 1.5 1 1.7.8.2 1.5-.2 1.7-1 .2-.7-.2-1.5-1-1.7m3.9.9c-.8-.2-1.7.3-1.9 1.1-.2.8.3 1.7 1.1 1.9.8.2 1.7-.3 1.9-1.1.2-.8-.3-1.6-1.1-1.9m3.9 1c-.9-.2-1.8.3-2 1.2-.2.9.3 1.8 1.2 2 .9.2 1.8-.3 2-1.2.2-.9-.3-1.8-1.2-2m3.9.9c-.9-.2-1.9.3-2.1 1.2-.2.9.3 1.9 1.2 2.1.9.2 1.9-.3 2.1-1.2.3-.9-.3-1.8-1.2-2.1m3.9 1c-1-.3-2 .3-2.2 1.3-.3 1 .3 2 1.3 2.2 1 .3 2-.3 2.2-1.3.2-1-.3-2-1.3-2.2m3.9.9c-1-.3-2.1.3-2.4 1.4-.3 1 .3 2.1 1.4 2.4 1 .3 2.1-.3 2.4-1.4.2-1.1-.4-2.1-1.4-2.4" class="bg-st1"/>
  <path d="M48.6 38.6c-1.1-.3-2.2.4-2.5 1.4-.3 1.1.4 2.2 1.4 2.5 1.1.3 2.2-.4 2.5-1.4.3-1.1-.4-2.2-1.4-2.5" class="bg-st1"/>
  <path d="M52.5 39.6c-1.1-.3-2.3.4-2.6 1.5-.3 1.1.4 2.3 1.5 2.6 1.1.3 2.3-.4 2.6-1.5.3-1.2-.4-2.3-1.5-2.6" class="bg-st1"/>
  <path d="M56.3 40.5c-1.2-.3-2.4.4-2.7 1.6-.3 1.2.4 2.4 1.6 2.7 1.2.3 2.4-.4 2.7-1.6.3-1.1-.4-2.4-1.6-2.7" class="bg-st1"/>
  <path d="M60.2 41.5c-1.2-.3-2.5.4-2.8 1.6-.3 1.2.4 2.5 1.6 2.8 1.2.3 2.5-.4 2.8-1.6.4-1.2-.4-2.5-1.6-2.8" class="bg-st1"/>
  <path d="M64.1 42.5c-1.2-.3-2.5.4-2.8 1.6-.3 1.2.4 2.5 1.6 2.8 1.2.3 2.5-.4 2.8-1.6.3-1.2-.4-2.4-1.6-2.8" class="bg-st1"/>
  <path d="M67.9 43.6c-1.2-.3-2.4.4-2.7 1.6-.3 1.2.4 2.4 1.6 2.7 1.2.3 2.4-.4 2.7-1.6.3-1.1-.4-2.4-1.6-2.7" class="bg-st1"/>
  <path d="M71.8 44.8c-1.1-.3-2.3.4-2.6 1.5-.3 1.1.4 2.3 1.5 2.6 1.1.3 2.3-.4 2.6-1.5.3-1.2-.4-2.3-1.5-2.6" class="bg-st1"/>
  <path d="M75.6 45.9c-1.1-.3-2.2.4-2.5 1.4-.3 1.1.4 2.2 1.4 2.5 1.1.3 2.2-.4 2.5-1.4.3-1.1-.3-2.2-1.4-2.5" class="bg-st1"/>
  <path d="M79.4 47c-1-.3-2.1.3-2.4 1.4-.3 1 .3 2.1 1.4 2.4 1 .3 2.1-.3 2.3-1.4.4-1.1-.2-2.1-1.3-2.4m3.9 1.1c-1-.3-2 .3-2.2 1.3-.3 1 .3 2 1.3 2.2 1 .3 2-.3 2.2-1.3.2-.9-.3-1.9-1.3-2.2m3.8 1.2c-.9-.2-1.9.3-2.1 1.2-.2.9.3 1.9 1.2 2.1.9.2 1.9-.3 2.1-1.2.3-.9-.3-1.9-1.2-2.1m3.9 1.1c-.9-.2-1.8.3-2 1.2-.2.9.3 1.8 1.2 2 .9.2 1.8-.3 2-1.2.2-.9-.4-1.8-1.2-2m3.8 1.1c-.8-.2-1.6.3-1.9 1.1-.2.8.3 1.6 1.1 1.9.8.2 1.6-.3 1.9-1.1.2-.8-.3-1.6-1.1-1.9m3.8 1.2c-.7-.2-1.5.2-1.7 1-.2.7.2 1.5 1 1.7.7.2 1.5-.2 1.7-1 .2-.7-.2-1.5-1-1.7m3.9 1.1c-.7-.2-1.4.2-1.6.9-.2.7.2 1.4.9 1.6.7.2 1.4-.2 1.6-.9.2-.7-.2-1.4-.9-1.6m3.8 1.2c-.6-.2-1.3.2-1.4.8-.2.6.2 1.3.8 1.4.6.2 1.3-.2 1.4-.8.2-.6-.2-1.2-.8-1.4m3.8 1.2c-.5-.1-1.1.2-1.2.7-.1.5.2 1.1.7 1.2.5.1 1.1-.2 1.2-.7.2-.5-.1-1.1-.7-1.2m3.9 1.1c-.5-.1-1 .2-1.1.6-.1.5.2 1 .6 1.1.5.1 1-.2 1.1-.6.1-.5-.2-1-.6-1.1m3.8 1.2c-.4-.1-.8.1-.9.5-.1.4.1.8.5.9.4.1.8-.1.9-.5.1-.4-.1-.8-.5-.9m3.8 1.2c-.3-.1-.6.1-.7.4-.1.3.1.6.4.7.3.1.6-.1.7-.4 0-.3-.1-.6-.4-.7m3.8 1.3c-.2 0-.4.1-.4.2 0 .2.1.4.2.4.2 0 .4-.1.4-.2.1-.2 0-.4-.2-.4m3.8 1.1c-.1 0-.2 0-.2.1s0 .2.1.2.2 0 .2-.1c.1 0 0-.1-.1-.2M-7 29.8c-.1 0-.2 0-.2.1s0 .2.1.2.2 0 .2-.1 0-.2-.1-.2m3.9.8c-.2-.1-.4.1-.5.3-.1.2.1.4.3.5.2.1.4-.1.5-.3 0-.2-.1-.4-.3-.5m3.9.9c-.3-.1-.6.1-.7.4-.1.3.1.6.4.7.3.1.6-.1.7-.4.1-.3-.1-.6-.4-.7m3.9.9c-.4-.1-.8.1-.9.5-.1.4.1.8.5.9.4.1.8-.1.9-.5.1-.4-.1-.8-.5-.9m3.9.8c-.5-.1-1 .2-1.1.6-.1.5.2 1 .6 1.1.5.1 1-.2 1.1-.6.2-.4-.1-.9-.6-1.1m3.9.9c-.6-.2-1.1.2-1.3.7-.1.6.2 1.1.7 1.3.6.1 1.1-.2 1.3-.7.2-.5-.1-1.1-.7-1.3m3.9.9c-.6-.2-1.3.2-1.5.8s.2 1.3.8 1.5c.6.2 1.3-.2 1.5-.8.2-.6-.2-1.3-.8-1.5m3.9 1c-.7-.2-1.4.2-1.6.9-.2.7.2 1.4.9 1.6.7.2 1.4-.2 1.6-.9.2-.7-.2-1.5-.9-1.6m3.9.9c-.8-.2-1.5.2-1.8 1-.2.8.2 1.5 1 1.8.8.2 1.5-.2 1.8-1 .2-.8-.2-1.6-1-1.8m3.9.9c-.8-.2-1.7.3-1.9 1.1-.2.8.3 1.7 1.1 1.9.8.2 1.7-.3 1.9-1.1.2-.8-.3-1.7-1.1-1.9m3.9.9c-.9-.2-1.8.3-2 1.2s.3 1.8 1.2 2c.9.2 1.8-.3 2-1.2.2-.8-.3-1.7-1.2-2m3.9 1c-.9-.2-1.9.3-2.1 1.2-.3.9.2 1.9 1.2 2.1s1.9-.3 2.1-1.2c.3-.9-.3-1.9-1.2-2.1m3.9.9c-1-.3-2 .3-2.3 1.3-.3 1 .3 2 1.3 2.3 1 .3 2-.3 2.3-1.3.2-1-.4-2-1.3-2.3m3.8.9c-1-.3-2.1.3-2.4 1.4-.3 1 .3 2.1 1.4 2.4 1 .3 2.1-.3 2.4-1.4.3-1-.3-2.1-1.4-2.4m3.9 1c-1.1-.3-2.2.4-2.5 1.5-.3 1.1.4 2.2 1.5 2.5 1.1.3 2.2-.4 2.5-1.5.3-1.1-.4-2.2-1.5-2.5" class="bg-st1"/>
  <path d="M51.4 43.4c-1.2-.3-2.4.4-2.7 1.5-.3 1.2.4 2.4 1.5 2.7 1.2.3 2.4-.4 2.7-1.5.4-1.2-.3-2.4-1.5-2.7" class="bg-st1"/>
  <path d="M55.3 44.3c-1.2-.3-2.5.4-2.8 1.6-.3 1.2.4 2.5 1.6 2.8 1.2.3 2.5-.4 2.8-1.6.4-1.2-.4-2.5-1.6-2.8" class="bg-st1"/>
  <path d="M59.2 45.3c-1.3-.3-2.6.4-2.9 1.7-.3 1.3.4 2.6 1.7 2.9 1.3.3 2.6-.4 2.9-1.7.3-1.3-.4-2.6-1.7-2.9" class="bg-st1"/>
  <path d="M63.1 46.3c-1.3-.3-2.6.4-2.9 1.7-.3 1.3.4 2.6 1.7 2.9 1.3.3 2.6-.4 2.9-1.7.3-1.3-.5-2.6-1.7-2.9" class="bg-st1"/>
  <path d="M66.9 47.4c-1.2-.3-2.5.4-2.8 1.6-.3 1.2.4 2.5 1.6 2.8s2.5-.4 2.8-1.6c.3-1.2-.4-2.4-1.6-2.8" class="bg-st1"/>
  <path d="M70.7 48.6c-1.1-.3-2.3.4-2.6 1.5-.3 1.1.4 2.3 1.5 2.6 1.1.3 2.3-.4 2.6-1.5.4-1.1-.3-2.3-1.5-2.6" class="bg-st1"/>
  <path d="M74.6 49.7c-1.1-.3-2.2.4-2.5 1.5-.3 1.1.4 2.2 1.5 2.5 1.1.3 2.2-.4 2.5-1.5.2-1.1-.4-2.2-1.5-2.5" class="bg-st1"/>
  <path d="M78.4 50.9c-1-.3-2.1.3-2.4 1.4s.3 2.1 1.4 2.4c1 .3 2.1-.3 2.4-1.4.3-1.1-.3-2.2-1.4-2.4m3.9 1.1c-1-.3-2 .3-2.3 1.3-.3 1 .3 2 1.3 2.3 1 .3 2-.3 2.3-1.3.2-1-.4-2-1.3-2.3m3.8 1.1c-.9-.2-1.9.3-2.1 1.2-.2.9.3 1.9 1.2 2.1.9.2 1.9-.3 2.1-1.2.3-.9-.3-1.8-1.2-2.1m3.8 1.2c-.9-.2-1.8.3-2 1.2-.2.9.3 1.8 1.2 2 .9.2 1.8-.3 2-1.2.2-.9-.3-1.8-1.2-2m3.9 1.1c-.8-.2-1.7.3-1.9 1.1-.2.8.3 1.7 1.1 1.9.8.2 1.7-.3 1.9-1.1.2-.8-.3-1.7-1.1-1.9m3.8 1.1c-.8-.2-1.5.2-1.7 1-.2.8.2 1.5 1 1.7.8.2 1.5-.2 1.7-1 .2-.7-.2-1.5-1-1.7m3.8 1.2c-.7-.2-1.4.2-1.6.9-.2.7.2 1.4.9 1.6.7.2 1.4-.2 1.6-.9.2-.7-.2-1.4-.9-1.6m3.9 1.1c-.6-.2-1.3.2-1.4.8-.2.6.2 1.3.8 1.4.6.2 1.3-.2 1.4-.8.2-.5-.2-1.2-.8-1.4m3.8 1.2c-.6-.1-1.1.2-1.3.7-.1.6.2 1.1.7 1.3.6.1 1.1-.2 1.3-.7.2-.6-.2-1.1-.7-1.3m3.8 1.2c-.5-.1-1 .2-1.1.6-.1.5.2 1 .6 1.1.5.1 1-.2 1.1-.6.2-.5-.1-1-.6-1.1m3.8 1.2c-.4-.1-.8.1-.9.5-.1.4.1.8.5.9.4.1.8-.1.9-.5.2-.4-.1-.8-.5-.9m3.9 1.2c-.3-.1-.6.1-.7.4-.1.3.1.6.4.7.3.1.6-.1.7-.4 0-.3-.2-.6-.4-.7m3.8 1.2c-.2-.1-.4.1-.4.3-.1.2.1.4.3.4.2.1.4-.1.4-.3 0-.2-.1-.4-.3-.4m3.8 1.2c-.1 0-.2 0-.2.1s0 .2.1.2.2 0 .2-.1 0-.2-.1-.2M-8.1 33.7c-.1 0-.2 0-.2.1s0 .2.1.2.2 0 .2-.1 0-.2-.1-.2m3.9.8c-.2-.1-.4.1-.5.3-.1.2.1.4.3.5.2.1.4-.1.5-.3.1-.2-.1-.4-.3-.5m3.9.9c-.3-.1-.6.1-.7.4-.1.3.1.6.4.7.3.1.6-.1.7-.4.1-.3-.1-.6-.4-.7m4 .8c-.4-.1-.8.1-.9.5-.1.4.1.8.5.9.4.1.8-.1.9-.5.1-.4-.2-.8-.5-.9m3.9.9c-.5-.1-1 .2-1.1.6-.1.5.2 1 .6 1.1.5.1 1-.2 1.1-.6.1-.5-.1-1-.6-1.1m3.9.9c-.6-.1-1.1.2-1.3.7-.1.6.2 1.1.7 1.3.6.1 1.1-.2 1.3-.7.2-.6-.2-1.2-.7-1.3m3.9.9c-.6-.2-1.3.2-1.5.8s.2 1.3.8 1.5c.6.2 1.3-.2 1.5-.8.2-.7-.2-1.3-.8-1.5m3.9.9c-.7-.2-1.4.2-1.6.9-.2.7.2 1.4.9 1.6.7.2 1.4-.2 1.6-.9.2-.7-.2-1.4-.9-1.6m3.9.9c-.8-.2-1.5.2-1.8 1-.2.8.2 1.5 1 1.8.8.2 1.5-.2 1.8-1 .2-.8-.3-1.6-1-1.8m3.8 1c-.8-.2-1.7.3-1.9 1.1-.2.8.3 1.7 1.1 1.9.8.2 1.7-.3 1.9-1.1.3-.9-.2-1.7-1.1-1.9m3.9.9c-.9-.2-1.8.3-2 1.2s.3 1.8 1.2 2 1.8-.3 2-1.2-.3-1.8-1.2-2m3.9.9c-.9-.2-1.9.3-2.1 1.2-.2.9.3 1.9 1.2 2.1.9.2 1.9-.3 2.1-1.2.3-.9-.2-1.8-1.2-2.1m3.9 1c-1-.3-2 .3-2.3 1.3-.3 1 .3 2 1.3 2.3 1 .3 2-.3 2.3-1.3.3-1.1-.3-2.1-1.3-2.3m3.9.9c-1-.3-2.1.3-2.4 1.4-.3 1 .3 2.1 1.4 2.4 1 .3 2.1-.3 2.4-1.4.3-1-.3-2.1-1.4-2.4" class="bg-st1"/>
  <path d="M46.5 46.3c-1.1-.3-2.2.4-2.5 1.5-.3 1.1.4 2.2 1.5 2.5 1.1.3 2.2-.4 2.5-1.5.3-1-.4-2.2-1.5-2.5" class="bg-st1"/>
  <path d="M50.4 47.3c-1.2-.3-2.3.4-2.6 1.5-.3 1.2.4 2.3 1.5 2.6 1.2.3 2.3-.4 2.6-1.5.3-1.1-.4-2.3-1.5-2.6" class="bg-st1"/>
  <path d="M54.3 48.2c-1.2-.3-2.5.4-2.8 1.6-.3 1.2.4 2.5 1.6 2.8 1.2.3 2.5-.4 2.8-1.6.3-1.2-.4-2.5-1.6-2.8" class="bg-st1"/>
  <path d="M58.2 49.1c-1.3-.3-2.6.4-2.9 1.7-.3 1.3.4 2.6 1.7 2.9 1.3.3 2.6-.4 2.9-1.7.3-1.2-.5-2.5-1.7-2.9" class="bg-st1"/>
  <path d="M62 50.2c-1.3-.3-2.6.4-2.9 1.7-.3 1.3.4 2.6 1.7 2.9 1.3.3 2.6-.4 2.9-1.7.3-1.3-.4-2.6-1.7-2.9" class="bg-st1"/>
  <path d="M65.9 51.3c-1.2-.3-2.4.4-2.8 1.6s.4 2.4 1.6 2.8c1.2.3 2.4-.4 2.8-1.6.3-1.2-.4-2.5-1.6-2.8" class="bg-st1"/>
  <path d="M69.7 52.5c-1.1-.3-2.3.4-2.6 1.5-.3 1.1.4 2.3 1.5 2.6 1.1.3 2.3-.4 2.6-1.5.3-1.2-.3-2.3-1.5-2.6" class="bg-st1"/>
  <path d="M73.5 53.6c-1.1-.3-2.2.4-2.5 1.4-.3 1.1.4 2.2 1.4 2.5 1.1.3 2.2-.4 2.5-1.4.4-1.1-.3-2.2-1.4-2.5m3.9 1.1c-1-.3-2.1.3-2.4 1.4s.3 2.1 1.4 2.4c1 .3 2.1-.3 2.4-1.4.2-1-.4-2.1-1.4-2.4m3.8 1.2c-1-.3-2 .3-2.3 1.3-.3 1 .3 2 1.3 2.3 1 .3 2-.3 2.3-1.3.3-1.1-.3-2.1-1.3-2.3m3.9 1.1c-.9-.2-1.9.3-2.1 1.2-.2.9.3 1.9 1.2 2.1.9.2 1.9-.3 2.1-1.2.2-.9-.3-1.9-1.2-2.1m3.8 1.1c-.9-.2-1.8.3-2 1.2-.2.9.3 1.8 1.2 2 .9.2 1.8-.3 2-1.2.2-.8-.3-1.7-1.2-2m3.8 1.2c-.8-.2-1.7.3-1.9 1.1-.2.8.3 1.7 1.1 1.9.8.2 1.7-.3 1.9-1.1.2-.9-.3-1.7-1.1-1.9m3.9 1.1c-.8-.2-1.5.2-1.7 1-.2.8.2 1.5 1 1.7.8.2 1.5-.2 1.7-1 .2-.7-.3-1.5-1-1.7m3.8 1.2c-.7-.2-1.4.2-1.6.9-.2.7.2 1.4.9 1.6.7.2 1.4-.2 1.6-.9.2-.8-.2-1.5-.9-1.6m3.8 1.1c-.6-.2-1.3.2-1.4.8-.2.6.2 1.3.8 1.4.6.2 1.3-.2 1.4-.8.2-.6-.1-1.2-.8-1.4m3.9 1.2c-.6-.1-1.1.2-1.3.7-.1.6.2 1.1.7 1.3.6.1 1.1-.2 1.3-.7.1-.6-.2-1.2-.7-1.3m3.8 1.1c-.5-.1-1 .2-1.1.6-.1.5.2 1 .6 1.1.5.1 1-.2 1.1-.6.2-.4-.1-.9-.6-1.1m3.8 1.2c-.4-.1-.8.1-.9.5-.1.4.1.8.5.9s.8-.1.9-.5c.1-.4-.1-.8-.5-.9m3.8 1.3c-.3-.1-.6.1-.7.4-.1.3.1.6.4.7.3.1.6-.1.7-.4.1-.4-.1-.7-.4-.7m3.8 1.2c-.2-.1-.4.1-.4.3-.1.2.1.4.3.4.2.1.4-.1.4-.3.1-.2-.1-.4-.3-.4m3.9 1.2c-.1 0-.2 0-.2.1s0 .2.1.2.2 0 .2-.1 0-.2-.1-.2M-9.1 37.5c-.1 0-.2 0-.2.1s0 .2.1.2.2 0 .2-.1c0 0 0-.1-.1-.2m3.9.9c-.2-.1-.4.1-.5.3-.1.2.1.4.3.5.2.1.4-.1.5-.3s-.1-.5-.3-.5m3.9.8c-.3-.1-.6.1-.7.4-.1.3.1.6.4.7.3.1.6-.1.7-.4.1-.3-.1-.6-.4-.7m3.9.9c-.4-.1-.8.1-.9.5-.1.4.1.8.5.9.4.1.8-.1.9-.5.1-.4-.1-.8-.5-.9m3.9.9c-.5-.1-1 .2-1.1.6-.1.5.2 1 .6 1.1.5.1 1-.2 1.1-.6.2-.5-.1-1-.6-1.1m3.9.9c-.6-.1-1.1.2-1.3.7-.1.6.2 1.1.7 1.3.6.1 1.1-.2 1.3-.7s-.1-1.2-.7-1.3m3.9.9c-.6-.2-1.3.2-1.4.8-.2.6.2 1.3.8 1.4.6.2 1.3-.2 1.4-.8.2-.6-.1-1.3-.8-1.4m3.9.9c-.7-.2-1.4.2-1.6.9-.2.7.2 1.4.9 1.6.7.2 1.4-.2 1.6-.9.2-.7-.2-1.4-.9-1.6m3.9.9c-.8-.2-1.5.2-1.7 1-.2.8.2 1.5 1 1.7.8.2 1.5-.2 1.7-1 .2-.7-.2-1.5-1-1.7m3.9.9c-.8-.2-1.6.3-1.9 1.1-.2.8.3 1.6 1.1 1.9.8.2 1.6-.3 1.9-1.1.2-.8-.3-1.6-1.1-1.9m3.9 1c-.9-.2-1.8.3-2 1.2-.2.9.3 1.8 1.2 2 .9.2 1.8-.3 2-1.2.2-.9-.3-1.8-1.2-2m3.9.9c-.9-.2-1.9.3-2.1 1.2-.2.9.3 1.9 1.2 2.1.9.2 1.9-.3 2.1-1.2.3-.9-.3-1.8-1.2-2.1m3.9 1c-1-.3-2 .3-2.2 1.3-.3 1 .3 2 1.3 2.2 1 .3 2-.3 2.2-1.3.2-1-.3-2-1.3-2.2m3.9.9c-1-.3-2.1.3-2.4 1.4-.3 1 .3 2.1 1.4 2.4 1 .3 2.1-.3 2.4-1.4.2-1.1-.4-2.1-1.4-2.4" class="bg-st1"/>
  <path d="M45.5 50.2c-1.1-.3-2.2.4-2.5 1.4-.3 1.1.4 2.2 1.4 2.5 1.1.3 2.2-.4 2.5-1.4.3-1.1-.4-2.2-1.4-2.5" class="bg-st1"/>
  <path d="M49.3 51.2c-1.1-.3-2.3.4-2.6 1.5-.3 1.1.4 2.3 1.5 2.6 1.1.3 2.3-.4 2.6-1.5.3-1.2-.3-2.3-1.5-2.6" class="bg-st1"/>
  <path d="M53.2 52.1c-1.2-.3-2.4.4-2.7 1.6-.3 1.2.4 2.4 1.6 2.7 1.2.3 2.4-.4 2.7-1.6.3-1.2-.4-2.4-1.6-2.7" class="bg-st1"/>
  <path d="M57.1 53.1c-1.2-.3-2.5.4-2.8 1.6-.3 1.2.4 2.5 1.6 2.8 1.2.3 2.5-.4 2.8-1.6.3-1.2-.4-2.5-1.6-2.8" class="bg-st1"/>
  <path d="M61 54.1c-1.2-.3-2.4.4-2.8 1.6s.4 2.4 1.6 2.8c1.2.3 2.4-.4 2.8-1.6.3-1.2-.4-2.4-1.6-2.8" class="bg-st1"/>
  <path d="M64.8 55.2c-1.2-.3-2.4.4-2.7 1.6-.3 1.2.4 2.4 1.6 2.7 1.2.3 2.4-.4 2.7-1.6.3-1.1-.4-2.4-1.6-2.7" class="bg-st1"/>
  <path d="M68.7 56.3c-1.1-.3-2.3.4-2.6 1.5-.3 1.1.4 2.3 1.5 2.6 1.1.3 2.3-.4 2.6-1.5.3-1.1-.4-2.3-1.5-2.6" class="bg-st1"/>
  <path d="M72.5 57.5c-1.1-.3-2.2.4-2.5 1.4-.3 1.1.4 2.2 1.4 2.5 1.1.3 2.2-.3 2.5-1.4.3-1.1-.3-2.2-1.4-2.5" class="bg-st1"/>
  <path d="M76.3 58.6c-1-.3-2.1.3-2.4 1.4-.3 1 .3 2.1 1.4 2.3 1 .3 2.1-.3 2.3-1.4.4-1-.2-2-1.3-2.3m3.9 1.1c-1-.3-2 .3-2.2 1.3-.3 1 .3 2 1.3 2.2 1 .3 2-.3 2.2-1.3.2-.9-.3-1.9-1.3-2.2m3.8 1.2c-.9-.2-1.9.3-2.1 1.2s.3 1.9 1.2 2.1c.9.2 1.9-.3 2.1-1.2.3-.9-.3-1.9-1.2-2.1m3.9 1.1c-.9-.2-1.8.3-2 1.1-.2.9.3 1.8 1.1 2 .9.2 1.8-.3 2-1.1.2-.9-.3-1.8-1.1-2m3.8 1.1c-.8-.2-1.6.3-1.9 1.1-.2.8.3 1.6 1.1 1.9.8.2 1.6-.3 1.9-1.1.2-.8-.3-1.7-1.1-1.9m3.8 1.2c-.7-.2-1.5.2-1.7 1-.2.7.2 1.5 1 1.7.7.2 1.5-.2 1.7-1 .2-.8-.2-1.5-1-1.7m3.9 1.1c-.7-.2-1.4.2-1.6.9-.2.7.2 1.4.9 1.6.7.2 1.4-.2 1.6-.9.2-.7-.2-1.4-.9-1.6m3.8 1.2c-.6-.2-1.3.2-1.4.8-.2.6.2 1.3.8 1.4.6.2 1.3-.2 1.4-.8.2-.6-.2-1.3-.8-1.4m3.8 1.2c-.5-.1-1.1.2-1.2.7-.1.5.2 1.1.7 1.2.5.1 1.1-.2 1.2-.7.2-.5-.1-1.1-.7-1.2m3.8 1.1c-.5-.1-.9.2-1.1.6-.1.5.2.9.6 1.1.5.1.9-.2 1.1-.6.2-.5-.1-.9-.6-1.1m3.9 1.2c-.4-.1-.8.1-.9.5-.1.4.1.8.5.9.4.1.8-.1.9-.5.1-.4-.1-.8-.5-.9m3.8 1.2c-.3-.1-.6.1-.7.4-.1.3.1.6.4.7.3.1.6-.1.7-.4 0-.3-.1-.6-.4-.7m3.8 1.2c-.2 0-.4.1-.4.2-.1.2.1.4.2.4.2 0 .4-.1.4-.2.1-.1 0-.3-.2-.4m3.8 1.3c-.1 0-.2 0-.2.1s0 .2.1.2.2 0 .2-.1c.1-.1 0-.2-.1-.2M-10.2 41.4c-.1 0-.2 0-.2.1s0 .2.1.2.2 0 .2-.1c.1-.1 0-.2-.1-.2m4 .9c-.2 0-.4.1-.4.2 0 .2.1.4.2.4.2 0 .4-.1.4-.2.1-.2-.1-.4-.2-.4m3.9.8c-.3-.1-.6.1-.7.4-.1.3.1.6.4.7.3.1.6-.1.7-.4 0-.3-.1-.6-.4-.7m3.9.9c-.4-.1-.8.1-.9.5-.1.4.1.8.5.9.4.1.8-.1.9-.5.1-.4-.1-.8-.5-.9m3.9.9c-.5-.2-1 .1-1.1.6-.1.5.2.9.6 1.1.5.1.9-.1 1.1-.6.1-.5-.2-1-.6-1.1m3.9.9c-.5-.1-1.1.2-1.2.7-.2.5.1 1.1.7 1.2.5.1 1.1-.2 1.2-.7.1-.5-.2-1.1-.7-1.2m3.9.9c-.6-.2-1.2.2-1.4.8-.2.6.2 1.2.8 1.4.6.2 1.2-.2 1.4-.8.2-.6-.2-1.3-.8-1.4m3.9.9c-.7-.2-1.4.2-1.6.9-.2.7.2 1.4.9 1.6.7.2 1.4-.2 1.6-.9.2-.7-.2-1.4-.9-1.6m3.9.9c-.7-.2-1.5.2-1.7 1-.2.7.2 1.5 1 1.7.7.2 1.5-.2 1.7-1 .2-.7-.3-1.5-1-1.7m3.9.9c-.8-.2-1.6.3-1.8 1.1-.2.8.3 1.6 1.1 1.8.8.2 1.6-.3 1.8-1.1.2-.7-.3-1.6-1.1-1.8m3.9 1c-.9-.2-1.7.3-2 1.1-.2.9.3 1.7 1.1 2 .9.2 1.7-.3 2-1.1.2-.9-.3-1.8-1.1-2m3.9.9c-.9-.2-1.8.3-2.1 1.2-.2.9.3 1.8 1.2 2.1.9.2 1.8-.3 2.1-1.2.2-.9-.3-1.9-1.2-2.1m3.8.9c-1-.3-1.9.3-2.2 1.3-.3 1 .3 1.9 1.3 2.2 1 .3 1.9-.3 2.2-1.3.3-.9-.3-1.9-1.3-2.2m3.9 1c-1-.3-2 .3-2.3 1.3-.3 1 .3 2 1.3 2.3 1 .3 2-.3 2.3-1.3.3-1-.3-2-1.3-2.3m3.9.9c-1.1-.3-2.1.3-2.4 1.4-.3 1.1.3 2.1 1.4 2.4 1.1.3 2.1-.3 2.4-1.4.3-1-.3-2.1-1.4-2.4m3.9 1c-1.1-.3-2.2.4-2.5 1.5-.3 1.1.4 2.2 1.5 2.5 1.1.3 2.2-.4 2.5-1.5.2-1.1-.4-2.2-1.5-2.5" class="bg-st1"/>
  <path d="M52.2 56.1c-1.1-.3-2.3.4-2.6 1.5-.3 1.1.4 2.3 1.5 2.6 1.1.3 2.3-.4 2.6-1.5.3-1.2-.4-2.3-1.5-2.6" class="bg-st1"/>
  <path d="M56 57.1c-1.1-.3-2.3.4-2.6 1.5-.3 1.1.4 2.3 1.5 2.6 1.1.3 2.3-.4 2.6-1.5.4-1.1-.3-2.3-1.5-2.6" class="bg-st1"/>
  <path d="M59.9 58.1c-1.1-.3-2.3.4-2.6 1.5-.3 1.1.4 2.3 1.5 2.6 1.1.3 2.3-.4 2.6-1.5.3-1.1-.3-2.3-1.5-2.6" class="bg-st1"/>
  <path d="M63.8 59.2c-1.1-.3-2.3.4-2.6 1.5-.3 1.1.4 2.3 1.5 2.6 1.1.3 2.3-.4 2.6-1.5.3-1.2-.4-2.3-1.5-2.6" class="bg-st1"/>
  <path d="M67.6 60.3c-1.1-.3-2.2.4-2.5 1.4-.3 1.1.4 2.2 1.4 2.5 1.1.3 2.2-.4 2.5-1.4.3-1.1-.3-2.2-1.4-2.5m3.9 1.1c-1-.3-2.1.3-2.4 1.4-.3 1 .3 2.1 1.4 2.4 1 .3 2.1-.3 2.4-1.4.2-1-.4-2.1-1.4-2.4m3.8 1.1c-1-.3-2 .3-2.3 1.3-.3 1 .3 2 1.3 2.3 1 .3 2-.3 2.3-1.3.3-1-.3-2-1.3-2.3m3.8 1.1c-1-.3-1.9.3-2.2 1.3-.3 1 .3 1.9 1.3 2.2 1 .3 1.9-.3 2.2-1.3.3-.9-.3-1.9-1.3-2.2m3.9 1.2c-.9-.2-1.8.3-2.1 1.2-.2.9.3 1.8 1.2 2.1.9.2 1.8-.3 2.1-1.2.2-1-.3-1.9-1.2-2.1m3.8 1.1c-.9-.2-1.7.3-2 1.1-.2.9.3 1.7 1.1 2 .9.2 1.7-.3 2-1.1.3-.9-.2-1.8-1.1-2m3.9 1.1c-.8-.2-1.6.3-1.8 1.1-.2.8.3 1.6 1.1 1.8.8.2 1.6-.3 1.8-1.1.1-.7-.3-1.6-1.1-1.8m3.8 1.2c-.7-.2-1.5.2-1.7 1-.2.7.2 1.5 1 1.7.7.2 1.5-.2 1.7-1 .2-.8-.3-1.5-1-1.7m3.8 1.1c-.7-.2-1.4.2-1.6.9-.2.7.2 1.4.9 1.6.7.2 1.4-.2 1.6-.9.2-.7-.2-1.4-.9-1.6m3.9 1.2c-.6-.2-1.2.2-1.4.8-.2.6.2 1.2.8 1.4.6.2 1.2-.2 1.4-.8.1-.6-.2-1.3-.8-1.4m3.8 1.1c-.5-.1-1.1.2-1.2.7-.1.5.2 1.1.7 1.2.5.1 1.1-.2 1.2-.7.1-.5-.2-1-.7-1.2m3.8 1.2c-.5-.1-.9.1-1 .6-.1.5.1.9.6 1 .5.1.9-.1 1-.6.1-.4-.1-.9-.6-1m3.8 1.2c-.4-.1-.7.1-.8.5-.1.4.1.7.5.8.4.1.7-.1.8-.5.1-.3-.1-.7-.5-.8m3.8 1.2c-.3-.1-.6.1-.6.4-.1.3.1.6.4.6.3.1.6-.1.6-.4.1-.2-.1-.5-.4-.6m3.9 1.2c-.2 0-.3.1-.4.2 0 .2.1.3.2.4.2 0 .3-.1.4-.2 0-.1-.1-.3-.2-.4m3.8 1.2c-.1 0-.2 0-.2.1s0 .2.1.2.2 0 .2-.1 0-.1-.1-.2M-11.2 45.3c-.1 0-.1 0-.1.1s0 .1.1.1.1 0 .1-.1c0 0 0-.1-.1-.1m3.9.9c-.2 0-.3.1-.4.2 0 .2.1.3.2.4.2 0 .3-.1.4-.2.1-.2 0-.4-.2-.4m3.9.8c-.3-.1-.5.1-.6.4-.1.3.1.5.4.6.3.1.5-.1.6-.4.1-.2-.1-.5-.4-.6m3.9.9c-.4-.1-.7.1-.8.5s.1.7.5.8c.4.1.7-.1.8-.5.1-.3-.1-.7-.5-.8m3.9.9c-.4-.1-.9.1-1 .6s.1.9.6 1c.4.1.9-.1 1-.6.1-.5-.1-.9-.6-1m3.9.9c-.5-.1-1.1.2-1.2.7-.1.5.2 1.1.7 1.2.5.1 1.1-.2 1.2-.7.2-.6-.1-1.1-.7-1.2m3.9.9c-.6-.2-1.2.2-1.4.8-.2.6.2 1.2.8 1.4.6.2 1.2-.2 1.4-.8.2-.7-.2-1.3-.8-1.4m3.9.9c-.7-.2-1.3.2-1.5.9-.2.7.2 1.3.9 1.5.7.2 1.3-.2 1.5-.9.2-.7-.2-1.3-.9-1.5m3.9.9c-.7-.2-1.5.2-1.7 1s.2 1.5 1 1.7c.7.2 1.5-.2 1.7-1 .2-.8-.2-1.5-1-1.7m3.9.9c-.8-.2-1.6.3-1.8 1-.2.8.3 1.6 1 1.8.8.2 1.6-.3 1.8-1 .3-.8-.2-1.6-1-1.8m3.9 1c-.8-.2-1.7.3-1.9 1.1-.2.8.3 1.7 1.1 1.9.8.2 1.7-.3 1.9-1.1.2-.9-.3-1.7-1.1-1.9m3.9.9c-.9-.2-1.8.3-2 1.2s.3 1.8 1.2 2c.9.2 1.8-.3 2-1.2s-.3-1.7-1.2-2m3.9 1c-.9-.2-1.9.3-2.1 1.2-.2.9.3 1.9 1.2 2.1.9.2 1.9-.3 2.1-1.2.3-.9-.3-1.9-1.2-2.1m3.9.9c-1-.3-2 .3-2.2 1.3-.3 1 .3 2 1.3 2.2 1 .3 2-.3 2.2-1.3.2-.9-.3-1.9-1.3-2.2m3.9 1c-1-.3-2.1.3-2.3 1.4-.3 1 .3 2.1 1.3 2.3 1 .3 2.1-.3 2.3-1.3.3-1.1-.3-2.2-1.3-2.4m3.8 1c-1-.3-2.1.3-2.4 1.4-.3 1 .3 2.1 1.4 2.4 1 .3 2.1-.3 2.4-1.4.3-1.1-.3-2.2-1.4-2.4" class="bg-st1"/>
  <path d="M51.1 60c-1.1-.3-2.2.4-2.5 1.4-.3 1.1.4 2.2 1.4 2.5 1.1.3 2.2-.4 2.5-1.4.3-1.1-.3-2.2-1.4-2.5" class="bg-st1"/>
  <path d="M55 61c-1.1-.3-2.2.4-2.5 1.5-.3 1.1.4 2.2 1.5 2.5s2.2-.4 2.5-1.5c.2-1-.4-2.2-1.5-2.5" class="bg-st1"/>
  <path d="M58.9 62.1c-1.1-.3-2.2.4-2.5 1.4-.3 1.1.4 2.2 1.4 2.5 1.1.3 2.2-.4 2.5-1.4.3-1.1-.4-2.2-1.4-2.5" class="bg-st1"/>
  <path d="M62.7 63.1c-1.1-.3-2.2.4-2.5 1.4-.3 1.1.4 2.2 1.4 2.5 1.1.3 2.2-.4 2.5-1.4.3-1.1-.3-2.2-1.4-2.5m3.9 1.1c-1-.3-2.1.3-2.4 1.4-.3 1 .3 2.1 1.4 2.4 1 .3 2.1-.3 2.4-1.4.2-1-.4-2.1-1.4-2.4m3.8 1.1c-1-.3-2.1.3-2.3 1.3-.3 1 .3 2.1 1.3 2.3 1 .3 2.1-.3 2.3-1.3.3-1-.3-2-1.3-2.3m3.8 1.1c-1-.3-2 .3-2.2 1.3-.3 1 .3 2 1.3 2.2 1 .3 2-.3 2.2-1.3.3-.9-.3-1.9-1.3-2.2m3.9 1.1c-.9-.2-1.9.3-2.1 1.2-.2.9.3 1.9 1.2 2.1.9.2 1.9-.3 2.1-1.2.3-.9-.3-1.8-1.2-2.1m3.8 1.2c-.9-.2-1.8.3-2 1.2-.2.9.3 1.8 1.2 2 .9.2 1.8-.3 2-1.2.2-.9-.3-1.8-1.2-2m3.9 1.1c-.8-.2-1.7.3-1.9 1.1-.2.8.3 1.7 1.1 1.9.8.2 1.7-.3 1.9-1.1.2-.8-.3-1.7-1.1-1.9m3.8 1.1c-.8-.2-1.6.3-1.8 1-.2.8.3 1.6 1 1.8.8.2 1.6-.3 1.8-1 .2-.8-.2-1.6-1-1.8m3.8 1.2c-.7-.2-1.5.2-1.6 1-.2.7.2 1.5 1 1.6.7.2 1.5-.2 1.6-.9.2-.8-.2-1.5-1-1.7m3.9 1.1c-.7-.2-1.3.2-1.5.9-.2.7.2 1.3.9 1.5.7.2 1.3-.2 1.5-.9.1-.6-.3-1.3-.9-1.5m3.8 1.2c-.6-.2-1.2.2-1.4.8-.2.6.2 1.2.8 1.4.6.2 1.2-.2 1.4-.8.2-.7-.2-1.3-.8-1.4m3.8 1.1c-.5-.1-1.1.2-1.2.7-.1.5.2 1.1.7 1.2.5.1 1.1-.2 1.2-.7.2-.5-.1-1-.7-1.2m3.9 1.2c-.4-.1-.9.1-1 .6-.1.4.1.9.6 1 .4.1.9-.1 1-.6.1-.4-.2-.9-.6-1m3.8 1.2c-.3-.1-.7.1-.8.5-.1.3.1.7.5.8.3.1.7-.1.8-.5 0-.3-.2-.7-.5-.8m3.8 1.2c-.2-.1-.5.1-.6.3-.1.2.1.5.3.6.2.1.5-.1.6-.3.1-.3 0-.5-.3-.6m3.8 1.2c-.2 0-.3.1-.4.2 0 .2.1.3.2.4.2 0 .3-.1.4-.2.1-.2 0-.3-.2-.4m3.8 1.2c-.1 0-.1 0-.1.1s0 .1.1.1.1 0 .1-.1l-.1-.1M-12.3 49.3s0 .1 0 0c.1.1.1.1.2 0-.1 0-.1-.1-.2 0 0-.1 0-.1 0 0m4 .8c-.1 0-.3 0-.3.2 0 .1 0 .3.2.3.1 0 .3 0 .3-.2 0-.1-.1-.3-.2-.3m3.9.8c-.3 0-.5.1-.6.4-.1.2.1.5.3.5.2.1.5-.1.5-.3.1-.3 0-.5-.2-.6m3.9.9c-.3-.1-.7.1-.8.4-.1.3.1.7.4.8.3.1.7-.1.8-.4.1-.4-.1-.7-.4-.8m3.9.9c-.4-.1-.9.1-1 .6-.1.4.1.9.6 1 .4.1.9-.1 1-.6.1-.5-.2-.9-.6-1m3.9.9c-.5-.1-1 .2-1.1.7-.1.5.2 1 .7 1.1.5.1 1-.2 1.1-.7.1-.5-.2-1-.7-1.1m3.9.9c-.6-.2-1.2.2-1.3.8-.2.6.2 1.2.8 1.3.6.2 1.2-.2 1.3-.8.1-.6-.2-1.2-.8-1.3m3.9.9c-.6-.2-1.3.2-1.5.8-.2.6.2 1.3.8 1.5.6.2 1.3-.2 1.5-.8.2-.7-.2-1.3-.8-1.5m3.9.9c-.7-.2-1.4.2-1.6.9-.2.7.2 1.4.9 1.6.7.2 1.4-.2 1.6-.9.2-.7-.2-1.4-.9-1.6m3.9.9c-.8-.2-1.5.2-1.7 1-.2.8.2 1.5 1 1.7.8.2 1.5-.2 1.7-1 .2-.7-.3-1.5-1-1.7m3.9 1c-.8-.2-1.6.3-1.8 1.1-.2.8.3 1.6 1.1 1.8.8.2 1.6-.3 1.8-1.1.1-.8-.3-1.6-1.1-1.8m3.9.9c-.9-.2-1.7.3-2 1.1-.2.9.3 1.7 1.1 2 .9.2 1.7-.3 2-1.1s-.3-1.7-1.1-2m3.8 1c-.9-.2-1.8.3-2.1 1.2-.2.9.3 1.8 1.2 2.1.9.2 1.8-.3 2.1-1.2.3-1-.3-1.9-1.2-2.1m3.9.9c-.9-.3-1.9.3-2.2 1.2-.3.9.3 1.9 1.2 2.2.9.3 1.9-.3 2.2-1.2.3-.9-.2-1.9-1.2-2.2m3.9 1c-1-.3-2 .3-2.2 1.3-.3 1 .3 2 1.3 2.2 1 .3 2-.3 2.2-1.3.3-.9-.3-1.9-1.3-2.2m3.9 1c-1-.3-2 .3-2.3 1.3-.3 1 .3 2 1.3 2.3 1 .3 2-.3 2.3-1.3.3-1-.3-2-1.3-2.3m3.9 1c-1-.3-2.1.3-2.4 1.4-.3 1 .3 2.1 1.4 2.3 1 .3 2.1-.3 2.3-1.4.3-1-.3-2-1.3-2.3m3.8 1c-1-.3-2.1.3-2.4 1.4-.3 1 .3 2.1 1.4 2.4 1 .3 2.1-.3 2.4-1.4.3-1.1-.3-2.1-1.4-2.4m3.9 1c-1-.3-2.1.3-2.4 1.4s.3 2.1 1.4 2.4c1 .3 2.1-.3 2.4-1.4.2-1-.4-2.1-1.4-2.4m3.8 1.1c-1-.3-2.1.3-2.4 1.4-.3 1 .3 2.1 1.4 2.3 1 .3 2.1-.3 2.3-1.4.4-1-.2-2-1.3-2.3m3.9 1.1c-1-.3-2 .3-2.3 1.3-.3 1 .3 2 1.3 2.3s2-.3 2.3-1.3c.3-1-.3-2.1-1.3-2.3m3.9 1.1c-1-.3-2 .3-2.2 1.3-.3 1 .3 2 1.3 2.2 1 .3 2-.3 2.2-1.3.2-1-.4-2-1.3-2.2m3.8 1.1c-.9-.2-1.9.3-2.1 1.2-.2.9.3 1.9 1.2 2.1.9.3 1.9-.3 2.1-1.2.3-.9-.3-1.9-1.2-2.1m3.8 1.1c-.9-.2-1.8.3-2.1 1.2-.2.9.3 1.8 1.2 2.1.9.2 1.8-.3 2.1-1.2.3-1-.3-1.9-1.2-2.1m3.9 1.1c-.9-.2-1.7.3-2 1.1-.2.9.3 1.7 1.1 2 .9.2 1.7-.3 2-1.1.2-.9-.3-1.8-1.1-2m3.8 1.1c-.8-.2-1.6.3-1.8 1.1-.2.8.3 1.6 1.1 1.8.8.2 1.6-.3 1.8-1.1.2-.8-.3-1.6-1.1-1.8m3.9 1.1c-.7-.2-1.5.2-1.7 1-.2.7.2 1.5 1 1.7.7.2 1.5-.2 1.7-1 .1-.7-.3-1.5-1-1.7m3.8 1.2c-.7-.2-1.4.2-1.6.9s.2 1.4.9 1.6c.7.2 1.4-.2 1.6-.9.2-.7-.2-1.4-.9-1.6m3.8 1.1c-.6-.2-1.3.2-1.5.8-.2.6.2 1.3.8 1.5.6.2 1.3-.2 1.5-.8.2-.7-.1-1.3-.8-1.5m3.9 1.2c-.6-.1-1.1.2-1.3.7-.2.6.2 1.1.7 1.3.6.2 1.1-.2 1.3-.7.2-.6-.2-1.2-.7-1.3m3.8 1.2c-.5-.1-1 .2-1.1.6-.1.5.2 1 .6 1.1.5.1 1-.2 1.1-.6.2-.5-.1-1-.6-1.1m3.8 1.1c-.4-.1-.8.1-.9.5-.1.4.1.8.5.9s.8-.1.9-.5c.2-.3-.1-.8-.5-.9m3.8 1.2c-.3-.1-.6.1-.7.4-.1.3.1.6.4.7.3.1.6-.1.7-.4.1-.3 0-.6-.4-.7m3.9 1.2c-.2-.1-.5.1-.5.3s.1.5.3.5c.2.1.5-.1.5-.3 0-.2-.1-.4-.3-.5m3.8 1.2c-.1 0-.3 0-.3.2 0 .1 0 .3.2.3.1 0 .3 0 .3-.2 0-.1-.1-.2-.2-.3m3.7 1.3s0 .1 0 0c.1.1.1.1.1 0 0 0 0-.1-.1 0 .1-.1 0-.1 0 0M-13.3 53.2s0-.1 0 0c0-.1 0-.1 0 0m3.9.8c-.1 0-.2 0-.2.1s0 .2.1.2.2 0 .2-.1c.1-.1 0-.2-.1-.2m3.9.9c-.2-.1-.4.1-.5.3-.1.2.1.4.3.5.2.1.4-.1.5-.3.1-.3-.1-.5-.3-.5m3.9.8c-.3-.1-.6.1-.7.4-.1.3.1.6.4.7.3.1.6-.1.7-.4.1-.3-.1-.6-.4-.7m3.9.9c-.4-.1-.8.1-.9.5 0 .4.2.8.6.9.4.1.8-.1.9-.5.1-.4-.2-.8-.6-.9m4 .9c-.5-.1-1 .2-1.1.6-.1.5.2 1 .6 1.1.5.1 1-.2 1.1-.6.1-.5-.2-1-.6-1.1m3.8.9c-.5-.1-1.1.2-1.2.7-.1.5.2 1.1.7 1.2.5.1 1.1-.2 1.2-.7.2-.5-.1-1.1-.7-1.2m3.9.9c-.6-.2-1.2.2-1.4.8-.2.6.2 1.2.8 1.4.6.2 1.2-.2 1.4-.8.2-.6-.1-1.2-.8-1.4m3.9.9c-.7-.2-1.4.2-1.5.9-.2.7.2 1.4.9 1.5.7.2 1.4-.2 1.5-.9.2-.6-.2-1.3-.9-1.5m3.9 1c-.7-.2-1.5.2-1.7 1-.2.7.2 1.5 1 1.7.7.2 1.5-.2 1.7-1 .2-.8-.2-1.5-1-1.7m3.9.9c-.8-.2-1.6.3-1.8 1-.2.8.3 1.6 1 1.8.8.2 1.6-.3 1.8-1 .3-.8-.2-1.6-1-1.8m3.9 1c-.8-.2-1.7.3-1.9 1.1-.2.8.3 1.6 1.1 1.8.8.2 1.7-.3 1.9-1.1.2-.8-.3-1.6-1.1-1.8m3.9.9c-.9-.2-1.7.3-2 1.1-.2.9.3 1.7 1.1 2 .9.2 1.7-.3 2-1.1.3-.9-.3-1.8-1.1-2m3.9 1c-.9-.2-1.8.3-2.1 1.2-.2.9.3 1.8 1.2 2.1.9.2 1.8-.3 2.1-1.2.2-1-.3-1.9-1.2-2.1m3.8 1c-.9-.2-1.9.3-2.1 1.2-.2.9.3 1.9 1.2 2.1.9.2 1.9-.3 2.1-1.2.3-.9-.2-1.9-1.2-2.1m3.9 1c-1-.3-1.9.3-2.2 1.3-.3 1 .3 1.9 1.3 2.2 1 .3 1.9-.3 2.2-1.3.2-1-.3-2-1.3-2.2m3.9.9c-1-.3-2 .3-2.2 1.3-.3 1 .3 2 1.3 2.2 1 .3 2-.3 2.2-1.3.3-.9-.3-1.9-1.3-2.2m3.9 1.1c-1-.3-2 .3-2.3 1.3-.3 1 .3 2 1.3 2.3 1 .3 2-.3 2.3-1.3.2-1.1-.4-2.1-1.3-2.3m3.8 1c-1-.3-2 .3-2.3 1.3-.3 1 .3 2 1.3 2.3 1 .3 2-.3 2.3-1.3.3-1-.3-2-1.3-2.3m3.9 1.1c-1-.3-2 .3-2.2 1.3-.3 1 .3 2 1.3 2.2 1 .3 2-.3 2.2-1.3.2-1-.3-2-1.3-2.2m3.8 1c-1-.3-1.9.3-2.2 1.3-.3 1 .3 1.9 1.3 2.2 1 .3 1.9-.3 2.2-1.3.3-.9-.3-1.9-1.3-2.2m3.9 1.1c-.9-.2-1.9.3-2.1 1.2-.2.9.3 1.9 1.2 2.1.9.2 1.9-.3 2.1-1.2.3-.9-.3-1.9-1.2-2.1m3.8 1.1c-.9-.2-1.8.3-2.1 1.2-.2.9.3 1.8 1.2 2.1.9.2 1.8-.3 2.1-1.2.3-.9-.3-1.9-1.2-2.1m3.9 1.1c-.9-.2-1.7.3-2 1.1-.2.9.3 1.7 1.1 2 .9.2 1.7-.3 2-1.1.2-.9-.3-1.8-1.1-2m3.8 1.1c-.8-.2-1.6.3-1.9 1.1-.2.8.3 1.6 1.1 1.9.8.2 1.6-.3 1.9-1.1.2-.8-.3-1.7-1.1-1.9m3.9 1.1c-.8-.2-1.6.2-1.8 1-.2.8.2 1.6 1 1.8.8.2 1.6-.2 1.8-1 .2-.8-.3-1.6-1-1.8m3.8 1.2c-.7-.2-1.5.2-1.6.9-.2.7.2 1.5 1 1.6.7.2 1.5-.2 1.6-.9.2-.7-.3-1.5-1-1.6m3.9 1.1c-.7-.2-1.3.2-1.5.9-.2.7.2 1.3.9 1.5.7.2 1.3-.2 1.5-.9.1-.7-.3-1.3-.9-1.5m3.8 1.1c-.6-.2-1.2.2-1.4.8-.2.6.2 1.2.8 1.4.6.2 1.2-.2 1.4-.8.1-.6-.2-1.2-.8-1.4m3.8 1.2c-.5-.1-1.1.2-1.2.7-.1.5.2 1.1.7 1.2.5.1 1.1-.2 1.2-.7.2-.5-.2-1.1-.7-1.2m3.8 1.2c-.5-.1-.9.1-1 .6-.1.5.1.9.6 1 .5.1.9-.1 1-.6.2-.4-.1-.9-.6-1m3.9 1.1c-.4-.1-.8.1-.9.5-.1.4.1.8.5.9.4.1.8-.1.9-.5.1-.4-.1-.8-.5-.9m3.8 1.2c-.3-.1-.6.1-.7.4-.1.3.1.6.4.7.3.1.6-.1.7-.4.1-.3-.1-.6-.4-.7m3.8 1.2c-.2-.1-.4.1-.5.3-.1.2.1.4.3.5.2.1.4-.1.5-.3 0-.2-.1-.4-.3-.5m3.8 1.2c-.1 0-.2 0-.2.1s0 .2.1.2.2 0 .2-.1c.1 0 0-.1-.1-.2m3.8 1.3s.1 0 0 0c.1 0 .1 0 0 0M-10.4 57.9c-.1 0-.2 0-.2.1s0 .2.1.2.2 0 .2-.1-.1-.2-.1-.2m3.9.9c-.2 0-.3.1-.4.2 0 .2.1.3.2.4.2 0 .3-.1.4-.2 0-.2-.1-.4-.2-.4m3.9.8c-.3-.1-.5.1-.6.4-.1.3.1.5.4.6.3.1.5-.1.6-.4 0-.2-.1-.5-.4-.6m3.9.9c-.3-.1-.7.1-.8.5-.1.3.1.7.5.8.3.1.7-.1.8-.5 0-.3-.2-.7-.5-.8m3.9.9c-.4-.1-.9.1-1 .6-.1.4.1.9.6 1 .4.1.9-.1 1-.6.1-.4-.2-.9-.6-1m3.9.9c-.5-.1-1 .2-1.2.7-.1.5.2 1 .7 1.2.5.1 1-.2 1.2-.7.1-.5-.2-1-.7-1.2m3.9.9c-.6-.2-1.2.2-1.3.8-.2.6.2 1.2.8 1.3.6.2 1.2-.2 1.3-.8.1-.5-.2-1.1-.8-1.3m3.9 1c-.6-.2-1.3.2-1.5.8-.2.6.2 1.3.8 1.5.6.2 1.3-.2 1.5-.8.2-.7-.2-1.4-.8-1.5m3.9.9c-.7-.2-1.4.2-1.6.9-.2.7.2 1.4.9 1.6.7.2 1.4-.2 1.6-.9.2-.7-.2-1.4-.9-1.6m3.9.9c-.7-.2-1.5.2-1.7 1-.2.7.2 1.5 1 1.7.7.2 1.5-.2 1.7-1 .1-.7-.3-1.5-1-1.7m3.8 1c-.8-.2-1.6.3-1.8 1-.2.8.3 1.6 1 1.8.8.2 1.6-.3 1.8-1 .3-.8-.2-1.6-1-1.8m3.9 1c-.8-.2-1.7.3-1.9 1.1-.2.8.3 1.7 1.1 1.9.8.2 1.7-.3 1.9-1.1.2-.9-.3-1.7-1.1-1.9m3.9.9c-.9-.2-1.7.3-2 1.1s.3 1.7 1.1 2c.9.2 1.7-.3 2-1.1.3-.9-.2-1.7-1.1-2m3.9 1c-.9-.2-1.8.3-2 1.2s.3 1.8 1.2 2c.9.2 1.8-.3 2-1.2.2-.8-.3-1.8-1.2-2m3.9 1c-.9-.2-1.8.3-2.1 1.2-.2.9.3 1.8 1.2 2.1.9.2 1.8-.3 2.1-1.2s-.3-1.9-1.2-2.1m3.8 1c-.9-.2-1.9.3-2.1 1.2-.2.9.3 1.9 1.2 2.1.9.2 1.9-.3 2.1-1.2.3-.9-.2-1.8-1.2-2.1m3.9 1c-.9-.2-1.9.3-2.1 1.2-.2.9.3 1.9 1.2 2.1.9.2 1.9-.3 2.1-1.2.3-.9-.3-1.8-1.2-2.1m3.9 1.1c-.9-.2-1.9.3-2.1 1.2-.2.9.3 1.9 1.2 2.1.9.2 1.9-.3 2.1-1.2.2-.9-.3-1.9-1.2-2.1m3.8 1c-.9-.2-1.9.3-2.1 1.2-.2.9.3 1.9 1.2 2.1.9.2 1.9-.3 2.1-1.2.3-.9-.3-1.8-1.2-2.1m3.9 1.1c-.9-.2-1.8.3-2.1 1.2-.2.9.3 1.8 1.2 2.1.9.2 1.8-.3 2.1-1.2.2-1-.3-1.9-1.2-2.1m3.8 1.1c-.9-.2-1.8.3-2 1.2-.2.9.3 1.8 1.2 2 .9.2 1.8-.3 2-1.2.2-.9-.3-1.8-1.2-2m3.9 1c-.9-.2-1.7.3-2 1.1-.2.9.3 1.7 1.1 2 .9.2 1.7-.3 2-1.1.2-.9-.3-1.7-1.1-2m3.8 1.1c-.8-.2-1.6.3-1.9 1.1-.2.8.3 1.6 1.1 1.9.8.2 1.6-.3 1.9-1.1.2-.8-.3-1.6-1.1-1.9m3.9 1.1c-.8-.2-1.6.3-1.8 1-.2.8.3 1.6 1 1.8.8.2 1.6-.3 1.8-1 .2-.7-.2-1.5-1-1.8m3.8 1.2c-.7-.2-1.5.2-1.7 1-.2.7.2 1.5 1 1.7.7.2 1.5-.2 1.7-1 .2-.8-.2-1.5-1-1.7m3.9 1.1c-.7-.2-1.4.2-1.6.9-.2.7.2 1.4.9 1.6.7.2 1.4-.2 1.6-.9.1-.7-.3-1.4-.9-1.6m3.8 1.1c-.6-.2-1.3.2-1.4.8s.2 1.3.8 1.4c.6.2 1.3-.2 1.4-.8.2-.6-.2-1.2-.8-1.4m3.8 1.2c-.6-.1-1.1.2-1.3.7-.2.6.2 1.1.7 1.3.6.2 1.1-.2 1.3-.7.2-.6-.1-1.2-.7-1.3m3.9 1.1c-.5-.1-1 .2-1.1.7-.1.5.2 1 .7 1.1.5.1 1-.2 1.1-.7 0-.4-.2-.9-.7-1.1m3.8 1.2c-.4-.1-.9.1-1 .6-.1.4.1.9.6 1 .4.1.9-.1 1-.6.1-.5-.2-.9-.6-1m3.8 1.2c-.3-.1-.7.1-.8.4-.1.3.1.7.4.8.3.1.7-.1.8-.4.2-.4 0-.7-.4-.8m3.8 1.2c-.2-.1-.5.1-.6.3-.1.2.1.5.3.6.2.1.5-.1.6-.3.1-.3 0-.6-.3-.6m3.9 1.2c-.2 0-.3.1-.4.2 0 .2.1.3.2.4.2 0 .3-.1.4-.2 0-.2-.1-.4-.2-.4m3.8 1.2c-.1 0-.1 0-.1.1s0 .1.1.1.1 0 .1-.1l-.1-.1M-11.6 61.9s0 .1 0 0c.1.1.1.1.1 0h-.1c.1-.1 0 0 0 0m4 .8c-.1 0-.3 0-.3.2 0 .1 0 .3.2.3.1 0 .3 0 .3-.2 0-.1-.1-.2-.2-.3m3.9.9c-.2-.1-.4.1-.5.3-.1.2.1.4.3.5.2.1.4-.1.5-.3.1-.2 0-.4-.3-.5m3.9.9c-.3-.1-.6.1-.7.4-.1.3.1.6.4.7.3.1.6-.1.7-.4.1-.3-.1-.6-.4-.7m3.9.9c-.4-.1-.8.1-.9.5-.1.4.1.8.5.9.4.1.8-.1.9-.5.2-.4-.1-.8-.5-.9m3.9.9c-.5-.1-.9.1-1 .6-.1.5.1.9.6 1 .5.1.9-.1 1-.6.2-.4-.1-.9-.6-1m3.9.9c-.5-.1-1.1.2-1.2.7-.1.5.2 1.1.7 1.2.5.1 1.1-.2 1.2-.7.2-.5-.1-1.1-.7-1.2m3.9.9c-.6-.2-1.2.2-1.4.8-.2.6.2 1.2.8 1.4.6.2 1.2-.2 1.4-.8.2-.6-.2-1.2-.8-1.4m3.9.9c-.6-.2-1.3.2-1.5.9-.2.6.2 1.3.9 1.5.6.2 1.3-.2 1.5-.9.2-.6-.2-1.3-.9-1.5m3.9 1c-.7-.2-1.4.2-1.6.9-.2.7.2 1.4.9 1.6.7.2 1.4-.2 1.6-.9.2-.7-.2-1.4-.9-1.6m3.9.9c-.7-.2-1.5.2-1.7 1s.2 1.5 1 1.7c.7.2 1.5-.2 1.7-1 .2-.7-.3-1.5-1-1.7m3.9 1c-.8-.2-1.6.3-1.8 1-.2.8.3 1.6 1 1.8.8.2 1.6-.3 1.8-1 .2-.8-.2-1.6-1-1.8m3.9 1c-.8-.2-1.6.3-1.8 1.1-.2.8.3 1.6 1.1 1.8.8.2 1.6-.3 1.8-1.1.1-.8-.3-1.6-1.1-1.8m3.8 1c-.8-.2-1.7.3-1.9 1.1-.2.8.3 1.7 1.1 1.9s1.7-.3 1.9-1.1c.3-.9-.2-1.7-1.1-1.9m3.9 1c-.9-.2-1.7.3-2 1.1-.2.9.3 1.7 1.1 2 .9.2 1.7-.3 2-1.1.3-.9-.2-1.8-1.1-2m3.9 1c-.9-.2-1.8.3-2 1.2-.2.9.3 1.8 1.2 2 .9.2 1.8-.3 2-1.2.2-.9-.4-1.8-1.2-2m3.8 1c-.9-.2-1.8.3-2 1.2-.2.9.3 1.8 1.2 2 .9.2 1.8-.3 2-1.2.2-.9-.3-1.8-1.2-2m3.9 1c-.9-.2-1.8.3-2 1.2-.2.9.3 1.8 1.2 2 .9.2 1.8-.3 2-1.2.2-.8-.3-1.7-1.2-2m3.9 1.1c-.9-.2-1.8.3-2 1.1-.2.9.3 1.8 1.1 2 .9.2 1.8-.3 2-1.1.2-.9-.3-1.8-1.1-2m3.8 1c-.9-.2-1.7.3-2 1.1-.2.9.3 1.7 1.1 2s1.7-.3 2-1.1c.3-.9-.2-1.7-1.1-2m3.9 1.1c-.8-.2-1.7.3-1.9 1.1-.2.8.3 1.7 1.1 1.9.8.2 1.7-.3 1.9-1.1.2-.8-.3-1.7-1.1-1.9m3.8 1.1c-.8-.2-1.6.3-1.8 1.1-.2.8.3 1.6 1.1 1.8.8.2 1.6-.3 1.8-1.1.2-.8-.3-1.6-1.1-1.8m3.9 1.1c-.8-.2-1.6.2-1.8 1-.2.8.3 1.6 1 1.8.8.2 1.6-.2 1.8-1 .2-.8-.3-1.6-1-1.8m3.8 1.1c-.7-.2-1.5.2-1.7 1-.2.7.2 1.5 1 1.7.7.2 1.5-.2 1.7-1 .2-.8-.2-1.5-1-1.7m3.9 1.1c-.7-.2-1.4.2-1.6.9-.2.7.2 1.4.9 1.6.7.2 1.4-.2 1.6-.9.2-.7-.2-1.4-.9-1.6m3.8 1.1c-.6-.2-1.3.2-1.5.8s.2 1.3.8 1.5c.6.2 1.3-.2 1.5-.8.2-.6-.2-1.3-.8-1.5m3.8 1.2c-.6-.2-1.2.2-1.3.8-.2.6.2 1.2.8 1.3.6.2 1.2-.2 1.3-.8.2-.6-.2-1.2-.8-1.3m3.9 1.1c-.5-.1-1.1.2-1.2.7-.1.5.2 1.1.7 1.2.5.1 1.1-.2 1.2-.7.1-.5-.2-1.1-.7-1.2m3.8 1.2c-.4-.1-.9.1-1 .6-.1.5.1.9.6 1 .5.1.9-.1 1-.6.1-.4-.1-.9-.6-1m3.8 1.1c-.4-.1-.8.1-.9.5-.1.4.1.8.5.9.4.1.8-.1.9-.5.1-.4-.1-.8-.5-.9m3.9 1.2c-.3-.1-.6.1-.7.4-.1.3.1.6.4.7.3.1.6-.1.7-.4 0-.3-.1-.6-.4-.7m3.8 1.2c-.2-.1-.4.1-.5.3-.1.2.1.4.3.5s.4-.1.5-.3c0-.2-.1-.4-.3-.5m3.8 1.2c-.1 0-.2 0-.3.2 0 .1 0 .2.2.3.1 0 .2 0 .3-.2 0-.1-.1-.3-.2-.3M116 96c0 .1 0 .1 0 0 0 .1 0 .1 0 0 .1 0 0 0 0 0M-8.6 66.7c-.1 0-.2 0-.2.1s0 .2.1.2.2 0 .2-.1 0-.2-.1-.2m3.9.9c-.2 0-.3.1-.4.2 0 .2.1.3.2.4.2 0 .3-.1.4-.2 0-.2-.1-.4-.2-.4m3.9.8c-.3-.1-.5.1-.6.3-.1.3.1.5.3.6.3.1.5-.1.6-.3.1-.2-.1-.5-.3-.6m3.9.9c-.3-.1-.7.1-.8.4-.1.3.1.7.4.8.3.1.7-.1.8-.4.1-.3-.1-.7-.4-.8m3.9.9c-.4-.1-.8.1-.9.5-.1.4.1.8.5.9.4.1.8-.1.9-.5.1-.4-.1-.8-.5-.9m3.9.9c-.5-.1-1 .2-1.1.6-.1.5.2 1 .6 1.1.5.1 1-.2 1.1-.6.1-.5-.1-.9-.6-1.1m3.9 1c-.5-.1-1.1.2-1.2.7-.1.5.2 1.1.7 1.2.5.1 1.1-.2 1.2-.7.1-.5-.2-1.1-.7-1.2m3.9.9c-.6-.2-1.2.2-1.4.8s.2 1.2.8 1.4 1.2-.2 1.4-.8c.1-.6-.2-1.3-.8-1.4m3.9.9c-.6-.2-1.3.2-1.5.9-.2.6.2 1.3.9 1.5.6.2 1.3-.2 1.5-.9.1-.6-.3-1.3-.9-1.5m3.8 1c-.7-.2-1.4.2-1.6.9-.2.7.2 1.4.9 1.6.7.2 1.4-.2 1.6-.9.2-.7-.2-1.4-.9-1.6m3.9 1c-.7-.2-1.5.2-1.7 1-.2.7.2 1.5 1 1.7.7.2 1.5-.2 1.7-1 .2-.8-.3-1.5-1-1.7m3.9.9c-.8-.2-1.5.2-1.7 1-.2.8.2 1.5 1 1.7.8.2 1.5-.2 1.7-1 .2-.7-.3-1.5-1-1.7m3.9 1c-.8-.2-1.6.3-1.8 1-.2.8.3 1.6 1 1.8.8.2 1.6-.3 1.8-1 .2-.8-.3-1.6-1-1.8m3.8 1c-.8-.2-1.6.3-1.8 1.1-.2.8.3 1.6 1.1 1.8.8.2 1.6-.3 1.8-1.1.2-.7-.3-1.6-1.1-1.8m3.9 1c-.8-.2-1.6.3-1.9 1.1-.2.8.3 1.6 1.1 1.9.8.2 1.6-.3 1.9-1.1.2-.8-.3-1.6-1.1-1.9m3.9 1.1c-.8-.2-1.7.3-1.9 1.1-.2.8.3 1.7 1.1 1.9.8.2 1.7-.3 1.9-1.1.2-.9-.3-1.7-1.1-1.9m3.8 1c-.8-.2-1.7.3-1.9 1.1-.2.8.3 1.7 1.1 1.9.8.2 1.7-.3 1.9-1.1.2-.8-.2-1.7-1.1-1.9m3.9 1c-.8-.2-1.6.3-1.9 1.1-.2.8.3 1.6 1.1 1.9.8.2 1.6-.3 1.9-1.1.2-.8-.3-1.6-1.1-1.9m3.9 1.1c-.8-.2-1.6.3-1.8 1.1-.2.8.3 1.6 1.1 1.8.8.2 1.6-.3 1.8-1.1.1-.8-.3-1.6-1.1-1.8m3.8 1.1c-.8-.2-1.6.3-1.8 1-.2.8.3 1.6 1 1.8.8.2 1.6-.3 1.8-1 .3-.8-.2-1.6-1-1.8m3.9 1.1c-.7-.2-1.5.2-1.7 1-.2.7.2 1.5 1 1.7.7.2 1.5-.2 1.7-1 .2-.8-.3-1.5-1-1.7m3.8 1c-.7-.2-1.5.2-1.6.9-.2.7.2 1.5 1 1.6.7.2 1.5-.2 1.6-.9.2-.6-.3-1.4-1-1.6m3.9 1.1c-.7-.2-1.4.2-1.6.9-.2.7.2 1.4.9 1.6.7.2 1.4-.2 1.6-.9.1-.7-.3-1.4-.9-1.6m3.8 1.2c-.6-.2-1.3.2-1.5.8-.2.6.2 1.3.8 1.5.6.2 1.3-.2 1.5-.8.2-.7-.2-1.4-.8-1.5m3.8 1.1c-.6-.2-1.2.2-1.4.8-.2.6.2 1.2.8 1.4.6.2 1.2-.2 1.4-.8.2-.7-.2-1.3-.8-1.4m3.9 1.1c-.5-.1-1.1.2-1.2.7-.1.5.2 1.1.7 1.2.5.1 1.1-.2 1.2-.7.1-.5-.2-1-.7-1.2m3.8 1.2c-.5-.1-1 .2-1.1.6-.1.5.2 1 .6 1.1.5.1 1-.2 1.1-.6.2-.5-.1-1-.6-1.1m3.8 1.1c-.4-.1-.8.1-.9.5-.1.4.1.8.5.9.4.1.8-.1.9-.5.2-.4-.1-.8-.5-.9m3.9 1.2c-.3-.1-.7.1-.8.4-.1.3.1.7.4.8.3.1.7-.1.8-.4.1-.4-.1-.7-.4-.8m3.8 1.2c-.2-.1-.5.1-.6.3-.1.2.1.5.3.6.2.1.5-.1.6-.3.1-.3-.1-.6-.3-.6m3.8 1.2c-.2 0-.3.1-.4.2 0 .2.1.3.2.4.2 0 .3-.1.4-.2.1-.2 0-.4-.2-.4m3.8 1.1c-.1 0-.2 0-.2.1s0 .2.1.2.2 0 .2-.1c.1-.1 0-.1-.1-.2m-120.9-28c.1.1.1.1.1 0 .1 0 0-.1-.1 0 .1-.1 0-.1 0 0m4 .8c-.1 0-.2 0-.3.2 0 .1 0 .2.2.3.1 0 .2 0 .3-.2 0-.1-.1-.3-.2-.3m3.9.9c-.2-.1-.4.1-.5.3-.1.2.1.4.3.5.2.1.4-.1.5-.3 0-.2-.1-.5-.3-.5m3.9.9c-.3-.1-.6.1-.6.4-.1.3.1.6.4.6.3.1.6-.1.6-.4.1-.3-.1-.5-.4-.6m3.9.9c-.4-.1-.7.1-.8.5-.1.3.1.7.5.8.4.1.7-.1.8-.5.1-.4-.1-.7-.5-.8m3.9.9c-.4-.1-.9.1-1 .6-.1.4.1.9.6 1 .4.1.9-.1 1-.6.1-.5-.2-.9-.6-1m3.9.9c-.5-.1-1 .2-1.1.6-.1.5.2 1 .6 1.1.5.1 1-.2 1.1-.6.2-.5-.1-1-.6-1.1m3.9 1c-.5-.1-1.1.2-1.2.7-.1.5.2 1.1.7 1.2.5.1 1.1-.2 1.2-.7.2-.6-.2-1.1-.7-1.2m3.9.9c-.6-.2-1.2.2-1.4.8-.2.6.2 1.2.8 1.4.6.2 1.2-.2 1.4-.8.1-.6-.2-1.3-.8-1.4m3.9.9c-.6-.2-1.3.2-1.5.8-.2.6.2 1.3.8 1.5s1.3-.2 1.5-.8c.2-.6-.2-1.3-.8-1.5m3.9 1c-.7-.2-1.4.2-1.5.9-.2.7.2 1.4.9 1.5.7.2 1.4-.2 1.5-.9s-.3-1.3-.9-1.5m3.8 1c-.7-.2-1.4.2-1.6.9-.2.7.2 1.4.9 1.6.7.2 1.4-.2 1.6-.9.2-.7-.2-1.4-.9-1.6m3.9 1c-.7-.2-1.5.2-1.7 1-.2.7.2 1.5 1 1.7.7.2 1.5-.2 1.7-1 .2-.8-.3-1.5-1-1.7m3.9 1c-.7-.2-1.5.2-1.7 1-.2.7.2 1.5 1 1.7.7.2 1.5-.2 1.7-1 .2-.7-.3-1.5-1-1.7m3.9 1c-.7-.2-1.5.2-1.7 1-.2.7.2 1.5 1 1.7.7.2 1.5-.2 1.7-1 .1-.7-.3-1.5-1-1.7m3.8 1c-.8-.2-1.5.2-1.7 1-.2.8.2 1.5 1 1.7.8.2 1.5-.2 1.7-1 .2-.7-.2-1.5-1-1.7m3.9 1.1c-.8-.2-1.5.2-1.7 1-.2.8.2 1.5 1 1.7.8.2 1.5-.2 1.7-1 .2-.8-.3-1.5-1-1.7m3.8 1c-.7-.2-1.5.2-1.7 1-.2.7.2 1.5 1 1.7.7.2 1.5-.2 1.7-1 .2-.7-.2-1.5-1-1.7m3.9 1.1c-.7-.2-1.5.2-1.7 1-.2.7.2 1.5 1 1.7.7.2 1.5-.2 1.7-1 .2-.8-.3-1.5-1-1.7m3.9 1c-.7-.2-1.5.2-1.6 1-.2.7.2 1.5 1 1.6.7.2 1.5-.2 1.6-1 .1-.6-.3-1.4-1-1.6m3.8 1.1c-.7-.2-1.4.2-1.6.9-.2.7.2 1.4.9 1.6.7.2 1.4-.2 1.6-.9.2-.7-.2-1.4-.9-1.6m3.9 1.1c-.7-.2-1.3.2-1.5.9-.2.7.2 1.3.9 1.5.7.2 1.3-.2 1.5-.9.1-.6-.3-1.3-.9-1.5m3.8 1.1c-.6-.2-1.3.2-1.4.8-.2.6.2 1.3.8 1.4s1.3-.2 1.4-.8c.2-.6-.2-1.2-.8-1.4m3.8 1.1c-.6-.2-1.2.2-1.3.8-.2.6.2 1.2.8 1.3.6.2 1.2-.2 1.3-.8.2-.5-.2-1.1-.8-1.3m3.9 1.1c-.5-.1-1.1.2-1.2.7-.1.5.2 1.1.7 1.2.5.1 1.1-.2 1.2-.7.1-.5-.2-1-.7-1.2m3.8 1.2c-.5-.1-1 .2-1.1.6-.1.5.2 1 .6 1.1.5.1 1-.2 1.1-.6.2-.5-.1-1-.6-1.1m3.9 1.1c-.4-.1-.8.1-1 .5-.1.4.1.8.6 1 .4.1.8-.1.9-.5s-.1-.9-.5-1m3.8 1.2c-.3-.1-.7.1-.8.5-.1.3.1.7.5.8.3.1.7-.1.8-.5 0-.4-.2-.7-.5-.8m4.2 1.8c.1-.3-.1-.6-.4-.6-.3-.1-.6.1-.6.4 0 .2 0 .4.1.5h.7c.1-.2.2-.2.2-.3M-6.8 75.5c-.1 0-.1 0-.1.1s0 .1.1.1.1 0 .1-.1c-.1 0-.1-.1-.1-.1m3.9.9c-.1 0-.3 0-.3.2s0 .3.2.3c.1 0 .3 0 .3-.2s-.1-.3-.2-.3m3.9.9c-.2-.1-.4.1-.5.3-.1.2 0 .4.3.4.2.1.4 0 .4-.2.1-.3 0-.5-.2-.5m3.9.9c-.3-.1-.6.1-.7.4-.1.3.1.6.4.7.3.1.6-.1.7-.4 0-.4-.2-.7-.4-.7m3.9.9c-.4-.1-.8.1-.9.4-.1.4.1.7.5.8.4.1.7-.1.8-.5.1-.3-.1-.6-.4-.7m3.8.9c-.4-.1-.9.1-1 .6-.1.4.1.9.6 1 .4.1.9-.1 1-.6.1-.5-.1-.9-.6-1m3.9.9c-.5-.1-1 .2-1.1.6-.1.5.2 1 .6 1.1.5.1 1-.2 1.1-.6.2-.5-.1-.9-.6-1.1m3.9 1c-.5-.1-1.1.2-1.2.7-.1.5.2 1.1.7 1.2.5.1 1.1-.2 1.2-.7.2-.5-.1-1.1-.7-1.2m3.9.9c-.6-.2-1.1.2-1.3.7-.2.6.2 1.1.7 1.3.6.2 1.1-.2 1.3-.7.2-.5-.1-1.1-.7-1.3m3.9 1c-.6-.2-1.2.2-1.4.8-.2.6.2 1.2.8 1.4.6.2 1.2-.2 1.4-.8.2-.6-.2-1.2-.8-1.4m3.9 1c-.6-.2-1.3.2-1.5.8-.2.6.2 1.3.8 1.5.6.2 1.3-.2 1.5-.8.2-.7-.2-1.4-.8-1.5m3.8 1c-.7-.2-1.3.2-1.5.9-.2.7.2 1.3.9 1.5.7.2 1.3-.2 1.5-.9.2-.7-.2-1.4-.9-1.5m3.9 1c-.7-.2-1.4.2-1.6.9-.2.7.2 1.4.9 1.6.7.2 1.4-.2 1.6-.9.2-.8-.2-1.5-.9-1.6m3.9 1c-.7-.2-1.4.2-1.6.9-.2.7.2 1.4.9 1.6.7.2 1.4-.2 1.6-.9.2-.7-.2-1.4-.9-1.6m3.9 1c-.7-.2-1.4.2-1.6.9-.2.7.2 1.4.9 1.6.7.2 1.4-.2 1.6-.9.2-.7-.3-1.4-.9-1.6m3.8 1c-.7-.2-1.4.2-1.6.9-.2.7.2 1.4.9 1.6.7.2 1.4-.2 1.6-.9.2-.7-.2-1.4-.9-1.6m3.9 1.1c-.7-.2-1.4.2-1.6.9-.2.7.2 1.4.9 1.6.7.2 1.4-.2 1.6-.9.2-.7-.2-1.4-.9-1.6m3.8 1c-.7-.2-1.4.2-1.6.9-.2.7.2 1.4.9 1.6.7.2 1.4-.2 1.6-.9.2-.7-.2-1.4-.9-1.6M63 93c-.7-.2-1.3.2-1.5.9-.2.7.2 1.3.9 1.5.7.2 1.3-.2 1.5-.9.1-.6-.3-1.3-.9-1.5m3.8 1.1c-.6-.2-1.3.2-1.5.8-.2.6.2 1.3.8 1.5.6.2 1.3-.2 1.5-.8.3-.7-.1-1.3-.8-1.5m3.9 1.1c-.6-.2-1.2.2-1.4.8-.2.6.2 1.2.8 1.4.6.2 1.2-.2 1.4-.8.2-.6-.2-1.3-.8-1.4m3.8 1.1c-.6-.2-1.1.2-1.3.7-.2.6.2 1.1.7 1.3.6.2 1.1-.2 1.3-.7.2-.6-.1-1.2-.7-1.3m3.9 1.1c-.5-.1-1.1.2-1.2.7-.1.5.2 1.1.7 1.2.5.1 1.1-.2 1.2-.7.1-.5-.2-1.1-.7-1.2m4.5 2.2c.1-.5-.2-1-.6-1.1-.5-.1-1 .2-1.1.6-.1.3 0 .6.2.9h1.2c.1-.1.2-.2.3-.4m3.2.1c-.3-.1-.7.1-.8.3h1.3c-.2-.2-.3-.3-.5-.3M-4 80.3c-.1 0-.2 0-.2.1s0 .2.1.2.2 0 .2-.1 0-.1-.1-.2m3.9.9c-.2 0-.3.1-.4.2 0 .2.1.3.2.4.2 0 .3-.1.4-.2 0-.2-.1-.3-.2-.4m3.9 1c-.2-.1-.4.1-.5.3-.1.2.1.4.3.5.2 0 .4-.1.5-.3 0-.3-.1-.5-.3-.5m3.9.9c-.3-.1-.6.1-.7.3-.1.3.1.6.4.7.3.1.6-.1.7-.4 0-.3-.1-.6-.4-.6m3.9.9c-.4-.1-.7.1-.8.5-.1.4.1.7.5.8.4.1.7-.1.8-.5 0-.4-.2-.7-.5-.8m3.9.9c-.4-.1-.8.1-.9.5-.1.4.1.8.5.9.4.1.8-.1.9-.5.1-.4-.1-.8-.5-.9m3.9 1c-.5-.1-.9.1-1 .6-.1.5.1.9.6 1 .5.1.9-.1 1-.6.1-.4-.2-.9-.6-1m3.8.9c-.5-.1-1 .2-1.1.7s.2 1 .7 1.1c.5.1 1-.2 1.1-.7.1-.4-.2-.9-.7-1.1m3.9 1c-.5-.1-1.1.2-1.2.7-.1.5.2 1.1.7 1.2.5.1 1.1-.2 1.2-.7.2-.5-.1-1.1-.7-1.2m3.9 1c-.6-.2-1.1.2-1.3.7-.2.6.2 1.1.7 1.3.6.2 1.1-.2 1.3-.7.2-.6-.1-1.2-.7-1.3m3.9 1c-.6-.2-1.2.2-1.4.8-.2.6.2 1.2.8 1.4.6.2 1.2-.2 1.4-.8.1-.7-.2-1.3-.8-1.4m3.9 1c-.6-.2-1.2.2-1.4.8-.2.6.2 1.2.8 1.4.6.2 1.2-.2 1.4-.8.1-.7-.2-1.3-.8-1.4m3.8 1c-.6-.2-1.3.2-1.4.8-.2.6.2 1.3.8 1.4.6.2 1.3-.2 1.4-.8.2-.6-.2-1.3-.8-1.4m3.9 1c-.6-.2-1.3.2-1.4.8-.2.6.2 1.3.8 1.4.6.2 1.3-.2 1.4-.8.2-.6-.2-1.2-.8-1.4m3.9 1c-.6-.2-1.3.2-1.4.8-.2.6.2 1.3.8 1.4.6.2 1.3-.2 1.4-.8.2-.6-.2-1.2-.8-1.4m3.8 1.1c-.6-.2-1.3.2-1.4.8-.2.6.2 1.3.8 1.4.6.2 1.3-.2 1.4-.8.2-.6-.2-1.3-.8-1.4m3.9 1c-.6-.2-1.2.2-1.4.8-.2.6.2 1.2.8 1.4.6.2 1.2-.2 1.4-.8.1-.6-.2-1.2-.8-1.4m3.8 1.1c-.6-.2-1.2.2-1.4.8-.2.6.2 1.2.8 1.4.6.2 1.2-.2 1.4-.8.2-.6-.2-1.2-.8-1.4m4.6 2.4c.1-.6-.2-1.1-.7-1.3-.6-.2-1.1.2-1.3.7-.1.5.1.9.5 1.2h1c.3-.1.4-.4.5-.6m3.1-.2c-.5-.1-1.1.2-1.2.7v.1h2c-.1-.4-.4-.7-.8-.8M-5.1 84.3s0 .1 0 0c0 .1 0 .1 0 0m3.9.9c-.1 0-.2 0-.2.1s0 .2.1.2.2 0 .2-.1 0-.1-.1-.2m3.9.9c-.2 0-.3 0-.4.2 0 .2 0 .3.2.4.2 0 .3-.1.4-.2s0-.3-.2-.4m3.9 1c-.2-.1-.4.1-.5.3-.1.2.1.4.3.5.2.1.4-.1.5-.3 0-.3-.1-.5-.3-.5m3.9.9c-.3-.1-.6.1-.6.4-.1.3.1.6.4.6.3.1.6-.1.6-.4 0-.3-.1-.5-.4-.6m3.9.9c-.3-.1-.7.1-.8.4-.1.3.1.7.4.8.3.1.7-.1.8-.4.1-.4-.1-.7-.4-.8m3.9 1c-.4-.1-.8.1-.9.5-.1.4.1.8.5.9.4.1.8-.1.9-.5.1-.4-.1-.8-.5-.9m3.9.9c-.4-.1-.9.1-1 .6-.1.4.1.9.6 1s.9-.1 1-.6c.1-.4-.2-.9-.6-1m3.9 1c-.5-.1-.9.2-1.1.6-.1.5.2.9.6 1.1.5.1.9-.2 1.1-.6.1-.5-.2-1-.6-1.1m3.8 1c-.5-.1-1 .2-1.1.7-.1.5.2 1 .7 1.1.5.1 1-.2 1.1-.7.1-.5-.2-1-.7-1.1m3.9.9c-.5-.1-1.1.2-1.2.7-.1.5.2 1.1.7 1.2.5.1 1.1-.2 1.2-.7.1-.5-.2-1-.7-1.2m3.9 1.1c-.5-.1-1.1.2-1.2.7-.1.5.2 1.1.7 1.2.5.1 1.1-.2 1.2-.7.1-.6-.2-1.1-.7-1.2m3.8 1c-.5-.1-1.1.2-1.2.7-.1.5.2 1.1.7 1.2.5.1 1.1-.2 1.2-.7.2-.5-.1-1.1-.7-1.2m3.9 1c-.6-.1-1.1.2-1.3.7-.1.6.2 1.1.7 1.3.6.1 1.1-.2 1.3-.7.2-.6-.1-1.2-.7-1.3m3.9 1c-.6-.1-1.1.2-1.3.7-.1.6.2 1.1.7 1.3.6.1 1.1-.2 1.3-.7.2-.6-.2-1.1-.7-1.3m3.8 1.1c-.5-.1-1.1.2-1.2.7v.4h2c0-.5-.3-1-.8-1.1m3.2 1.1h.8l-.1-.1c-.2 0-.5 0-.7.1M-2.3 89.2s0 .1 0 0c.1.1.1.1 0 0 .1 0 .1 0 0 0m3.9.9c-.1 0-.2 0-.2.1s0 .2.1.2.2 0 .2-.1c.1-.1 0-.1-.1-.2m3.9 1c-.1 0-.3 0-.3.2 0 .1 0 .3.2.3.1 0 .3 0 .3-.2.1-.2 0-.3-.2-.3m3.9.9c-.2-.1-.4 0-.4.3-.1.2.1.4.3.5.2.1.4-.1.5-.3 0-.3-.2-.5-.4-.5m3.9.9c-.2-.1-.5.1-.6.3-.1.2.1.5.3.6.2.1.5-.1.6-.3.1-.2 0-.5-.3-.6m3.9 1c-.3-.1-.6.1-.7.4-.1.3.1.6.4.7.3.1.6-.1.7-.4.1-.3-.1-.6-.4-.7m3.9.9c-.3-.1-.7.1-.8.5-.1.3.1.7.5.8.3.1.7-.1.8-.5 0-.3-.2-.7-.5-.8m3.9 1c-.4-.1-.8.1-.9.5-.1.4.1.8.5.9.4.1.8-.1.9-.5.1-.4-.1-.8-.5-.9m3.9 1c-.4-.1-.8.1-1 .6-.1.4.1.8.5.9.4.1.8-.1 1-.5.1-.5-.1-.9-.5-1m3.8 1c-.4-.1-.9.1-1 .6-.1.4.1.9.6 1 .4.1.9-.1 1-.6.1-.5-.1-.9-.6-1m3.9 1c-.5-.1-.9.1-1 .6-.1.2 0 .4.1.6h1.5c0-.1.1-.1.1-.2 0-.4-.2-.9-.7-1m3.9 1c-.3-.1-.6 0-.8.2h1.2c-.1-.1-.3-.2-.4-.2m-36-4.7c-.1 0-.1 0-.1.1s0 .1.1.1.1 0 .1-.1l-.1-.1m3.9.9c-.1 0-.2 0-.2.1s0 .2.1.2.2 0 .2-.1c0 0 0-.2-.1-.2m3.8 1c-.2 0-.3.1-.4.2 0 .2.1.3.2.4.2 0 .3-.1.4-.2.1-.2 0-.4-.2-.4m3.9.9c-.2-.1-.4.1-.5.3-.1.2.1.4.3.5.2.1.4-.1.5-.3.1-.2-.1-.4-.3-.5m3.9.9c-.3-.1-.5.1-.6.3-.1.3.1.5.3.6.3.1.5-.1.6-.3.1-.2 0-.5-.3-.6m3.9 1c-.2-.1-.4 0-.6.2h.8c0-.1-.1-.1-.2-.2" class="bg-st1"/>
</svg>
