<svg xmlns="http://www.w3.org/2000/svg" viewBox="0 0 560 450" style="enable-background:new 0 0 560 450;">
	<defs>
		<filter xmlns="http://www.w3.org/2000/svg" id="starshadow" x="0" y="0" width="200%" height="200%">
			<feOffset result="offOut" in="SourceAlpha" dx="10" dy="10"/>
			<feGaussianBlur result="blurOut" in="offOut" stdDeviation="5"/>
			<feComponentTransfer xmlns="http://www.w3.org/2000/svg" result="aout" in="blurOut">
			<feFuncA type="linear" slope="0.5"/>
			</feComponentTransfer>
			<feBlend in="SourceGraphic" in2="aout" mode="normal"/>
		</filter>
		<style>
			.jacked-star-st1{fill:#FFCE07; filter:url(#starshadow);} .jacked-star-st2{fill:#FFFFFF;}
		</style>
	</defs>
  <path d="M59.5 86s53 61.3 98.4 58.1c65-4.5 78.2-131.4 78.2-131.4s26.1 111.6 75 115.2c46.8 3.4 90.3-68.5 90.3-68.5s5.4 132.4 54.3 151.6c41.5 16.2 88.2-23.5 88.2-23.5s-54.6 37.7-50.6 67.3c3.1 22.6 54.8 37.3 54.8 37.3s-73.3 2.3-116.3 49.3c-22.2 24.2-21 85-21 85s-94.7-82.5-149-84c-55-1.5-108 95-108 95s-12.1-62.4-41-93c-52-55-101-50-101-50s54.9-18.3 56.7-42.9c1.8-25.5-47.6-74-47.6-74s47.6 51.5 79.9 32.1C129.3 192.4 59.5 86 59.5 86z" class="jacked-star-st1"/>
  <path d="M71.1 100.9s44.8 47.9 89.3 44.8c63.7-4.4 76.2-125.4 76.2-125.4s26 106 73.9 109.5c45.9 3.3 88.7-62.9 88.7-62.9s6.9 127.2 54.9 146c40.7 15.9 69.1-10.6 69.1-10.6s-36.3 25.4-32.3 54.5c3 22.1 49.7 34 49.7 34S471 293 428.8 339c-21.7 23.8-19.2 83.9-19.2 83.9s-94.2-81.4-147.4-82.9c-53.9-1.5-107.5 91.9-107.5 91.9s-10.2-60-38.5-89.9c-51-53.9-96.1-49.1-96.1-49.1s50.9-17.9 52.6-42c1.8-25-34.1-55.9-34.1-55.9s34.2 33.9 65.8 14.8c27.9-16.8-33.3-108.9-33.3-108.9z" class="jacked-star-st2"/>
</svg>
