<svg xmlns="http://www.w3.org/2000/svg" viewBox="0 0 528 64" style="enable-background:new 0 0 528 64;">
  <style>
    .letsplay-st0{fill:#FFFFFF;}
  </style>
  <path d="M13 53.6h21l-1 8.6H1.6L8.7 4.5H19l-6 49.1zM97 4.5l-1 8.3H72.8l-2 16.4H89l-1 7.9H69.8l-2.1 16.8H91l-1 8.3H56.3l7.1-57.7H97zm62.7 0l-1.1 8.5h-15.8l-6.1 49.2h-10.3l6-49.2h-15.8l1-8.5h42.1zm29-3.2c1.1 2.3 1.6 4.6 1.6 6.9 0 3-.8 5.8-2.4 8.5-1.6 2.7-3.9 5.2-6.9 7.5l-2.7-1.8c-.4-.3-.6-.6-.6-1.1 0-.3.1-.6.2-.8s.4-.5.8-.9c.3-.4.7-.8 1.1-1.4.4-.6.8-1.2 1.1-2 .3-.7.6-1.6.9-2.4.2-.9.4-1.8.4-2.8 0-.8-.1-1.6-.3-2.4-.2-.8-.5-1.7-.9-2.5-.1-.2-.1-.5-.1-.6 0-.4.1-.8.4-1.1.3-.3.7-.6 1.2-.8l6.2-2.3zm54.6 13.5c-.4.5-.7.9-1.1 1.2-.4.3-.8.4-1.4.4s-1.1-.2-1.6-.6c-.6-.4-1.2-.9-2-1.4s-1.7-1-2.7-1.4c-1.1-.4-2.3-.6-3.8-.6s-2.8.2-3.9.6c-1.1.4-2.1 1-2.8 1.8-.8.7-1.3 1.6-1.7 2.6-.4 1-.6 2.1-.6 3.3 0 1.2.3 2.2.9 3.1.6.8 1.4 1.5 2.5 2.1 1 .6 2.2 1.2 3.5 1.6 1.3.5 2.6 1 4 1.5 1.3.5 2.7 1.1 4 1.8 1.3.7 2.5 1.5 3.5 2.6 1 1 1.8 2.2 2.5 3.6.6 1.4.9 3.1.9 5.2 0 2.8-.5 5.5-1.5 8s-2.4 4.7-4.2 6.6c-1.8 1.9-4 3.4-6.6 4.5s-5.5 1.7-8.8 1.7c-1.7 0-3.3-.2-4.9-.5-1.6-.4-3.1-.9-4.6-1.5-1.4-.7-2.8-1.5-4-2.4-1.2-.9-2.3-2-3.2-3.1l3.7-4.9c.3-.4.7-.7 1.1-.9.5-.2.9-.4 1.4-.4.4 0 .8.1 1.3.4.4.3.9.6 1.4 1 .5.4 1 .8 1.6 1.3.6.5 1.2.9 2 1.3.7.4 1.6.7 2.5 1 .9.3 2 .4 3.2.4 3 0 5.4-.8 7.1-2.6 1.7-1.7 2.6-4.1 2.6-7.1 0-1.3-.3-2.4-.9-3.3-.6-.9-1.4-1.6-2.4-2.2-1-.6-2.2-1.1-3.4-1.5s-2.6-.9-3.9-1.4c-1.3-.5-2.7-1.1-3.9-1.7-1.3-.7-2.4-1.5-3.4-2.5s-1.8-2.3-2.4-3.8c-.6-1.5-.9-3.3-.9-5.5 0-2.5.5-4.9 1.4-7.1.9-2.3 2.2-4.3 3.9-6 1.7-1.7 3.8-3.1 6.2-4.2 2.4-1 5.2-1.6 8.2-1.6 1.6 0 3.1.2 4.5.5s2.8.8 4 1.4c1.2.6 2.4 1.3 3.4 2.1s2 1.7 2.7 2.7l-3.4 3.9zm66.9 26.9l-2.5 20.4h-10.3l7.1-57.7H322c3.3 0 6.1.4 8.4 1.2 2.4.8 4.3 1.9 5.8 3.3s2.6 3.1 3.4 5c.7 1.9 1.1 4 1.1 6.4 0 3.1-.5 5.9-1.5 8.6-1 2.6-2.4 4.9-4.4 6.8-1.9 1.9-4.4 3.4-7.3 4.5-2.9 1.1-6.3 1.6-10.2 1.6h-7.1zm3.6-29.3l-2.6 21.2h7.3c2 0 3.8-.3 5.3-.9 1.5-.6 2.7-1.5 3.7-2.6s1.7-2.4 2.2-3.9c.5-1.5.7-3.2.7-5 0-1.3-.2-2.5-.6-3.6-.4-1.1-.9-2-1.7-2.8-.8-.8-1.7-1.3-2.9-1.8s-2.5-.6-4.1-.6h-7.3zm57.5 41.2h21l-1 8.6H360l7-57.7h10.3l-6 49.1zm89.8 8.5h-8c-.9 0-1.6-.2-2.2-.6-.5-.4-.9-1-1-1.7l-2.4-12H426l-5.3 12c-.3.6-.8 1.2-1.4 1.6-.7.5-1.4.7-2.2.7H409l27.9-57.7h10.6l13.6 57.7zm-31.8-21.7h16.8l-3.9-19.7-.6-3c-.2-1.1-.4-2.3-.6-3.6-.5 1.3-1 2.6-1.5 3.7s-1 2.1-1.4 3l-8.8 19.6zm73.5-.7L500 62.1h-10.4l2.8-22.5-15-35.2h9.2c.9 0 1.6.2 2.1.7s.8 1 1.1 1.7l7.5 19.9c.4 1 .7 1.9.9 2.8l.6 2.7c.4-.9.9-1.8 1.4-2.7.5-.9 1-1.8 1.7-2.8l12.4-19.9c.4-.6.9-1.2 1.5-1.6.6-.5 1.3-.7 2.2-.7h8.6l-23.8 35.2z" class="letsplay-st0"/>
</svg>
