<svg xmlns="http://www.w3.org/2000/svg" viewBox="0 0 354 234.4" style="enable-background:new 0 0 354 234.4;">
  <style>
    .message-bubble-alt-st0{fill:#FFFFFF;}
  </style>
  <path d="M159.4 5.2c84.8 0 153.6 50.2 153.6 112 0 9-1.5 17.8-4.2 26.2l35.9 45.1-65-1.7c-28.1 25.8-71.5 42.3-120.2 42.3C74.6 229.1 5.9 179 5.9 117.2s68.7-112 153.5-112" class="message-bubble-alt-st0"/>
  <path d="M49.6 198.9c-29.8-21.7-46.2-50.7-46.2-81.7s16.4-60 46.2-81.7C79 14.1 118 2.3 159.4 2.3c41.4 0 80.5 11.8 109.8 33.2 29.8 21.7 46.2 50.7 46.2 81.7 0 8.6-1.3 17.2-3.9 25.5l39 48.9-70.1-1.8c-29.7 26.9-73.8 42.3-121 42.3-41.4 0-80.4-11.8-109.8-33.2m289.2-13.5l-32.9-41.3.6-1.8c2.7-8.2 4.1-16.7 4.1-25.1 0-60.1-67.8-109-151.1-109-83.4 0-151.2 48.9-151.2 109s67.8 109 151.1 109c46.5 0 89.8-15.2 118.7-41.7l.7-.6 60 1.5z"/>
</svg>
