<svg style="fill: #e12726;" xmlns="http://www.w3.org/2000/svg" viewBox="0 0 1046.9 519.3" >
  <path d="M27.6 96.9V32.4H10.8v-19h66v19H60v64.5H27.6zm59.2 0V13.3h32.6v28.3h8.3V13.3h32.6v83.6h-32.6V60.7h-8.3v36.2H86.8zm86.3 0V13.3h52.7v19h-20v9.1h20v19h-20v17.3h20v19h-52.7zm183.3-83.6v64.1c0 7.4-1.5 12.6-4.5 15.6s-8.4 4.4-16.2 4.4h-32.1c-7.3 0-12.4-1.5-15.4-4.5s-4.5-8.2-4.5-15.5V61.7h31.7v10.8c0 2.1.3 3.6 1 4.5.7.9 1.7 1.4 3.1 1.4 1.5 0 2.6-.5 3.2-1.4.7-.9 1-2.4 1-4.6V13.3h32.7zm9.7 83.6l14.7-83.6h51.1l14.7 83.6h-33.8L411 78.8h-9.3l-1.9 18.1h-33.7zm36.7-36.5h6.9L406.3 32l-3.5 28.4zm126.8 2.4v16.7c0 6.4-1.6 11-4.8 13.8-3.2 2.8-8.5 4.2-15.9 4.2h-34.1c-6.9 0-11.9-1.4-15.1-4.3-3.2-2.9-4.8-7.4-4.8-13.6V32.8c0-7.3 1.5-12.5 4.4-15.5 3-3 8.1-4.5 15.4-4.5H509c7.8 0 13.2 1.5 16.2 4.4 3 2.9 4.5 8.1 4.5 15.5v11h-33.1v-6.1c0-2.2-.3-3.7-1-4.6-.7-.9-1.7-1.4-3.2-1.4-1.4 0-2.5.5-3.1 1.4s-1 2.5-1 4.6v34.8c0 2.1.3 3.6 1 4.6.7 1 1.7 1.4 3.1 1.4s2.5-.5 3.2-1.5c.7-1 1-2.5 1-4.6v-9.7h33zm12.5 34.1V13.3h32v33.8l10.5-33.8h33.2l-12.6 38.8 13.3 44.8h-32.9L574 58.7v38.2h-31.9zm84.7 0V13.3h53.4c7.4 0 12.7 1.4 15.9 4.2 3.2 2.8 4.8 7.4 4.8 13.8v23.1c0 7.5-1.5 12.7-4.5 15.7s-8.4 4.5-16.1 4.5h-20.8v22.3h-32.7zm37-64.7h-4.4v23.5h4.3c1.6 0 2.8-.5 3.5-1.4.7-.9 1.1-2.4 1.1-4.6V38.3c0-2.2-.3-3.7-1-4.7-.8-1-1.9-1.4-3.5-1.4zm68.7 65.3c-7.3 0-12.4-1.5-15.4-4.5s-4.4-8.2-4.4-15.5V30.6c0-6.2 1.6-10.7 4.7-13.5 3.2-2.8 8.2-4.3 15.1-4.3h34.1c7.4 0 12.7 1.4 15.9 4.1 3.2 2.8 4.7 7.3 4.7 13.6v46.8c0 7.4-1.5 12.6-4.5 15.6s-8.4 4.4-16.1 4.4h-34.1zm13.3-59.8v34.8c0 2.1.3 3.6 1 4.5.7.9 1.7 1.4 3.1 1.4 1.5 0 2.6-.5 3.2-1.4.7-.9 1-2.4 1-4.6V37.7c0-2.1-.3-3.6-1-4.6-.7-1-1.8-1.5-3.2-1.5-1.4 0-2.5.5-3.1 1.4s-1 2.6-1 4.7zm67.6 59.2V32.4h-16.8v-19h66v19h-16.8v64.5h-32.4zm100.3-.1V13.2h32.6v83.6h-32.6zm65.1.6c-6.7 0-11.7-1.3-15.2-4s-5.2-6.6-5.2-11.7V66.5h33.4v5.9c0 2.1.3 3.6 1 4.5.6.9 1.7 1.4 3.1 1.4 1.4 0 2.5-.5 3.1-1.5.7-1 1-2.7 1-5 0-2.6-.3-4.4-.9-5.5-.6-1-2.2-2.1-4.6-3.1l-22.6-9.1c-5.2-2.1-8.7-4.4-10.6-6.8-1.8-2.4-2.8-5.8-2.8-10.1v-8.9c0-5.1 1.7-9 5.2-11.7 3.5-2.6 8.5-4 15.2-4h33.7c6.7 0 11.7 1.3 15.2 4 3.5 2.6 5.2 6.5 5.2 11.7v9.9h-33.1v-1.1c0-1.8-.4-3.2-1.1-4.2-.7-1-1.8-1.4-3.1-1.4-1.2 0-2.1.4-2.8 1.1-.7.7-1.1 1.7-1.1 3 0 1.2.3 2.2 1 2.9.7.8 2.3 1.7 4.9 2.7l26.3 11.1c3.3 1.4 5.7 3.5 7 6.1 1.3 2.6 2 6.5 2 11.8v9.2c0 6.1-1.6 10.6-4.9 13.5-3.3 2.9-8.4 4.3-15.4 4.3h-33.9zM45.4 507.5V120.2h245c35.2 0 60.4 7.2 75.6 21.5 15.1 14.4 22.7 37.8 22.7 70.4 0 25.9-4.9 45.7-14.6 59.4-9.7 13.7-25.8 23.3-48.3 28.9 22.4 5.3 38.4 16.2 48.2 32.8 9.8 16.6 14.7 41.5 14.7 74.5 0 36.6-7.3 62.4-22 77.3-14.7 14.9-40.1 22.4-76.3 22.4h-245zm151.1-299v54.7h16.8c7.9 0 13.5-2 16.9-6.1 3.3-4 5-11 5-21 0-10.4-1.6-17.6-4.9-21.7-3.3-4-8.9-6.1-17-6.1h-16.8zm0 210.3h16.8c8.2 0 13.9-2 17.1-5.9 3.2-4 4.8-11.2 4.8-21.8v-15.6c0-10.2-1.6-17.4-4.9-21.5-3.3-4.1-8.9-6.2-17-6.2h-16.8v71zm248.1 88.7V120.2h151.1v387.3H444.6zm400.2-136.9h-21v-86.2h174.4v223.1h-77.6l-13.5-28.2c-4.7 11-13.2 18.9-25.6 23.8-12.4 4.8-30.7 7.2-55 7.2h-82c-33.8 0-57.6-7-71.4-21.1s-20.6-38-20.6-71.8v-217c0-28.6 7.3-49.4 22-62.6 14.7-13.2 38-19.8 70-19.8h157.9c34.5 0 59 6.4 73.7 19.2s22 33.9 22 63.2v39.1H844.3l.5-6.3c0-.6.1-1.5.2-2.6.2-1.1.2-1.9.2-2.6 0-7-1.8-12.5-5.5-16.7-3.6-4.1-8.5-6.2-14.5-6.2-6.7 0-11.5 2.2-14.6 6.6-3 4.4-4.5 11.5-4.5 21.3v161.4c0 9.8 1.5 16.8 4.5 21.1 3 4.3 7.9 6.4 14.6 6.4 7 0 12-2.1 15-6.3 3-4.2 4.5-11.2 4.5-21.2v-23.8z"/>
</svg>
