<svg xmlns="http://www.w3.org/2000/svg" xmlns:xlink="http://www.w3.org/1999/xlink" viewBox="0 0 300 600">
  <style>
    .mega-300x600-bg-0{fill:#44b7f6;} .mega-300x600-bg-1{clip-path:url(#SVGID_2_);fill:#DEF0FF;}
  </style>
  <path d="M-50 0h400v600H-50z" class="mega-300x600-bg-0"/>
  <defs>
    <path id="SVGID_1_" d="M-50 0h400v600H-50z"/>
  </defs>
  <clipPath id="SVGID_2_">
    <use xlink:href="#SVGID_1_" style="overflow:visible;"/>
  </clipPath>
  <path d="M-50 89c.1 0 0 0 0 0m.8 66.5c.2-.9-.1-1.8-.8-2.4v3.5c.4-.2.7-.6.8-1.1m.1-16.5c-.3 1.1.3 2.2 1.4 2.4 1.1.3 2.2-.3 2.4-1.4.3-1.1-.3-2.2-1.4-2.4-1-.3-2.1.3-2.4 1.4m4.5-15.4c-.2.9.3 1.8 1.2 2 .9.2 1.8-.3 2-1.2.2-.9-.3-1.8-1.2-2-.9-.2-1.8.3-2 1.2m4.5-15.3c-.2.7.2 1.3.9 1.5.7.2 1.3-.2 1.5-.9.2-.7-.2-1.3-.9-1.5-.6-.2-1.3.2-1.5.9m4.5-15.4c-.1.5.2 1 .6 1.1.5.1 1-.2 1.1-.6.1-.5-.2-1-.6-1.1-.5-.1-1 .1-1.1.6m4.6-15.3c-.1.2.1.5.3.5.2.1.5-.1.5-.3.1-.2-.1-.5-.3-.5-.2-.1-.5 0-.5.3m-17.9 144.2c.4-1.3-.1-2.7-1.1-3.5v5.2c.5-.4.9-1 1.1-1.7m4-15.4c.5-1.8-.6-3.7-2.4-4.2-.9-.2-1.9-.1-2.6.4v5.9c.3.2.5.3.8.4 1.8.4 3.7-.7 4.2-2.5m-2.4-17.3c-.5 1.8.6 3.6 2.4 4.1 1.8.5 3.6-.6 4.1-2.4.5-1.8-.6-3.6-2.4-4.1-1.8-.4-3.7.7-4.1 2.4m4.3-15.4c-.4 1.7.5 3.4 2.2 3.9 1.7.5 3.4-.5 3.9-2.2.5-1.7-.5-3.4-2.2-3.9-1.8-.4-3.5.6-3.9 2.2m4.4-15.4c-.4 1.5.5 3.1 2 3.5 1.5.4 3.1-.5 3.5-2 .4-1.5-.5-3.1-2-3.5-1.5-.4-3.1.5-3.5 2m4.4-15.3c-.4 1.4.4 2.8 1.8 3.1 1.4.4 2.8-.4 3.2-1.8.4-1.4-.4-2.8-1.8-3.1-1.4-.4-2.8.4-3.2 1.8m4.4-15.4c-.3 1.2.4 2.5 1.6 2.8 1.2.3 2.5-.4 2.8-1.6.3-1.2-.4-2.5-1.6-2.8-1.2-.4-2.5.4-2.8 1.6m4.5-15.4c-.3 1 .3 2.1 1.4 2.4 1 .3 2.1-.3 2.4-1.4.3-1-.3-2.1-1.4-2.4-1.1-.2-2.1.4-2.4 1.4m4.5-15.3c-.2.8.3 1.6 1.1 1.8.8.2 1.6-.3 1.8-1.1.2-.8-.3-1.6-1.1-1.8-.7-.2-1.5.3-1.8 1.1m4.6-15.4c-.2.6.2 1.2.8 1.3.6.2 1.2-.2 1.3-.8.2-.6-.2-1.2-.8-1.3-.6-.1-1.1.3-1.3.8m4.6-15.3c-.1.3.1.6.4.7.3.1.6-.1.7-.4.1-.3-.1-.6-.4-.7-.3-.1-.6.1-.7.4m4.7-15.3c0 .1 0 0 0 0 .1 0 0 0 0 0M-50 284.8v4c.2-.3.4-.6.4-.9.3-1.1.1-2.2-.4-3.1m4.7-12.3c.6-2.2-.7-4.5-3-5.1-.6-.2-1.2-.2-1.7-.1v8.2c2.1.3 4.1-.9 4.7-3m-4-17.6c-.6 2.2.7 4.6 3 5.2 2.3.6 4.6-.7 5.2-3 .6-2.3-.7-4.6-3-5.2-2.3-.6-4.6.7-5.2 3m4.1-15.5c-.6 2.2.7 4.6 3 5.2 2.2.6 4.6-.7 5.2-3 .6-2.2-.7-4.6-3-5.2-2.2-.6-4.6.8-5.2 3M-41 224c-.6 2.2.7 4.5 2.9 5.1 2.2.6 4.5-.7 5.1-2.9.6-2.2-.7-4.5-2.9-5.1-2.2-.7-4.5.6-5.1 2.9m4.3-15.4c-.6 2.2.7 4.4 2.9 4.9 2.2.6 4.4-.7 4.9-2.9.6-2.2-.7-4.4-2.9-4.9-2.1-.6-4.3.7-4.9 2.9m4.2-15.5c-.6 2.1.7 4.3 2.8 4.8 2.1.6 4.3-.7 4.8-2.8.6-2.1-.7-4.3-2.8-4.8-2.1-.5-4.2.7-4.8 2.8m4.4-15.4c-.5 2 .6 4 2.6 4.6 2 .5 4-.6 4.6-2.6.5-2-.6-4-2.6-4.6-2.1-.5-4.1.6-4.6 2.6m4.3-15.4c-.5 1.9.6 3.8 2.5 4.3s3.8-.6 4.3-2.5-.6-3.8-2.5-4.3-3.8.6-4.3 2.5m4.4-15.4c-.5 1.7.6 3.5 2.3 4 1.7.5 3.5-.6 4-2.3.5-1.7-.6-3.5-2.3-4-1.7-.4-3.5.6-4 2.3m4.5-15.3c-.4 1.5.5 3.1 2 3.5 1.5.4 3.1-.5 3.5-2 .4-1.5-.5-3.1-2-3.5-1.5-.5-3.1.4-3.5 2m4.5-15.4c-.4 1.3.4 2.7 1.8 3 1.3.4 2.7-.4 3-1.8.4-1.3-.4-2.7-1.8-3-1.3-.3-2.6.5-3 1.8m4.6-15.3c-.3 1.1.4 2.2 1.4 2.5 1.1.3 2.2-.4 2.5-1.4.3-1.1-.4-2.2-1.4-2.5-1.1-.4-2.2.3-2.5 1.4m4.6-15.3c-.2.8.3 1.7 1.1 1.9.8.2 1.7-.3 1.9-1.1.2-.8-.3-1.7-1.1-1.9-.8-.3-1.7.2-1.9 1.1m4.5-15.4c-.2.6.2 1.2.8 1.4.6.2 1.2-.2 1.4-.8.2-.6-.2-1.2-.8-1.4-.6-.2-1.2.2-1.4.8M8 54.9c-.1.3.1.7.4.8.3.1.7-.1.8-.4.1-.3-.1-.7-.4-.8-.4-.1-.7 0-.8.4m4.7-15.3c.1 0 0-.1 0 0 0-.1 0-.1 0 0m-59.2 298.8c.6-2.2-.7-4.4-2.9-5-.2-.1-.4 0-.6 0v8c1.6-.2 3-1.3 3.5-3m-.9-12.3c2.3.6 4.7-.7 5.3-3 .6-2.3-.7-4.7-3-5.3-1.9-.5-3.9.4-4.8 2.1v4.3c.5.9 1.3 1.6 2.5 1.9m.8-20.8c-.6 2.4.8 4.9 3.2 5.5 2.4.6 4.9-.8 5.5-3.2.6-2.4-.8-4.9-3.2-5.5-2.3-.6-4.8.8-5.5 3.2m4.1-15.5c-.7 2.5.8 5 3.3 5.7 2.5.7 5-.8 5.7-3.3.7-2.5-.8-5-3.3-5.6-2.5-.7-5 .8-5.7 3.2m4-15.5c-.7 2.5.8 5.1 3.4 5.8 2.5.7 5.1-.8 5.8-3.4.7-2.5-.8-5.1-3.4-5.8-2.5-.6-5.1.9-5.8 3.4m4.1-15.4c-.7 2.6.8 5.2 3.4 5.9 2.6.7 5.2-.8 5.9-3.4.7-2.6-.8-5.2-3.4-5.9-2.6-.7-5.2.8-5.9 3.4m4.1-15.5c-.7 2.6.8 5.2 3.4 5.9 2.6.7 5.2-.8 5.9-3.4.7-2.6-.8-5.2-3.4-5.9-2.5-.7-5.2.9-5.9 3.4M-26 228c-.7 2.5.8 5.1 3.3 5.8 2.5.7 5.1-.8 5.8-3.3.7-2.5-.8-5.1-3.3-5.8-2.6-.7-5.2.8-5.8 3.3m4.2-15.5c-.7 2.5.8 5 3.3 5.6 2.5.7 5-.8 5.7-3.3.7-2.5-.8-5-3.3-5.7-2.5-.5-5.1 1-5.7 3.4m4.3-15.4c-.6 2.4.8 4.8 3.2 5.5 2.4.6 4.8-.8 5.5-3.2.6-2.4-.8-4.8-3.2-5.5-2.4-.6-4.9.8-5.5 3.2m4.3-15.4c-.6 2.3.7 4.7 3 5.3 2.3.6 4.7-.7 5.3-3 .6-2.3-.7-4.7-3-5.3-2.4-.6-4.7.7-5.3 3m4.4-15.4c-.6 2.2.7 4.4 2.9 4.9 2.2.6 4.4-.7 4.9-2.9.6-2.2-.7-4.4-2.9-4.9-2.1-.5-4.4.8-4.9 2.9m4.4-15.4c-.5 2 .7 4.1 2.7 4.6s4.1-.7 4.6-2.7-.7-4.1-2.7-4.6-4.1.7-4.6 2.7M0 135.6c-.5 1.8.6 3.7 2.4 4.2 1.8.5 3.7-.6 4.2-2.4.5-1.8-.6-3.7-2.4-4.2-1.8-.5-3.7.6-4.2 2.4m4.5-15.4c-.4 1.6.5 3.3 2.2 3.7 1.6.4 3.3-.5 3.7-2.2.4-1.6-.5-3.3-2.2-3.7-1.6-.4-3.3.6-3.7 2.2M9 104.9c-.4 1.4.5 2.9 1.9 3.3 1.4.4 2.9-.5 3.3-1.9.4-1.4-.5-2.9-1.9-3.3-1.4-.4-2.9.4-3.3 1.9m4.6-15.4c-.3 1.2.4 2.4 1.5 2.7 1.2.3 2.4-.4 2.7-1.5.3-1.2-.4-2.4-1.5-2.7-1.2-.3-2.3.4-2.7 1.5m4.7-15.3c-.2.9.3 1.8 1.2 2 .9.2 1.8-.3 2-1.2.2-.9-.3-1.8-1.2-2-.9-.2-1.8.3-2 1.2m4.6-15.3c-.2.6.2 1.2.8 1.4.6.2 1.2-.2 1.4-.8.2-.6-.2-1.2-.8-1.4-.6-.2-1.2.2-1.4.8m4.7-15.3c-.1.3.1.6.4.7.3.1.6-.1.7-.4.1-.3-.1-.6-.4-.7-.3-.1-.6.1-.7.4m-76.1 360.6c.4-1.4-.3-2.9-1.5-3.6v5.5c.7-.4 1.3-1.1 1.5-1.9m.1-12.8c1.9.5 3.9-.6 4.5-2.6.5-1.9-.6-3.9-2.6-4.5-1.3-.4-2.6.1-3.5 1v4.9c.4.6 1 1 1.6 1.2m1.3-20c-.6 2.1.7 4.3 2.8 4.9 2.1.6 4.3-.7 4.9-2.8.6-2.1-.7-4.3-2.8-4.9-2.2-.6-4.4.7-4.9 2.8m3.8-15.5c-.6 2.3.7 4.7 3 5.3 2.3.6 4.7-.8 5.3-3 .6-2.3-.7-4.7-3-5.3-2.3-.7-4.7.7-5.3 3m3.9-15.6c-.7 2.4.8 4.9 3.2 5.6 2.4.7 4.9-.8 5.6-3.2.7-2.4-.8-4.9-3.2-5.6-2.5-.6-5 .8-5.6 3.2m3.9-15.5c-.7 2.6.8 5.2 3.4 5.9 2.6.7 5.2-.8 5.9-3.4.7-2.6-.8-5.2-3.4-5.9-2.6-.7-5.2.8-5.9 3.4m3.9-15.5c-.7 2.7.9 5.4 3.5 6.1 2.7.7 5.4-.9 6.1-3.5s-.9-5.4-3.5-6.1c-2.6-.7-5.4.8-6.1 3.5m4-15.5c-.7 2.7.9 5.6 3.6 6.3 2.7.7 5.6-.9 6.3-3.6.7-2.7-.9-5.6-3.6-6.3-2.7-.8-5.5.9-6.3 3.6m4.1-15.4c-.7 2.8.9 5.6 3.7 6.4 2.8.7 5.6-.9 6.4-3.7.7-2.8-.9-5.6-3.7-6.4-2.8-.8-5.6.9-6.4 3.7m4.1-15.5c-.7 2.8.9 5.7 3.7 6.4 2.8.7 5.7-.9 6.4-3.7.7-2.8-.9-5.7-3.7-6.4-2.8-.8-5.6.9-6.4 3.7m4.2-15.5c-.7 2.8.9 5.7 3.7 6.4 2.8.7 5.7-.9 6.4-3.7.7-2.8-.9-5.7-3.7-6.4-2.8-.7-5.7.9-6.4 3.7M-11 232c-.7 2.8.9 5.6 3.7 6.4 2.8.7 5.6-.9 6.4-3.7.7-2.8-.9-5.6-3.7-6.4-2.9-.7-5.7.9-6.4 3.7m4.2-15.4c-.7 2.7.9 5.5 3.6 6.2 2.7.7 5.5-.9 6.2-3.6.7-2.7-.9-5.5-3.6-6.2-2.7-.8-5.5.8-6.2 3.6m4.2-15.5c-.7 2.6.9 5.4 3.5 6.1s5.4-.9 6.1-3.5c.7-2.7-.9-5.4-3.5-6.1s-5.3.9-6.1 3.5m4.3-15.4c-.7 2.6.8 5.2 3.4 5.9 2.6.7 5.2-.8 5.9-3.4.7-2.6-.8-5.2-3.4-5.9-2.5-.7-5.2.9-5.9 3.4m4.4-15.4c-.7 2.4.8 4.9 3.2 5.6 2.4.7 4.9-.8 5.6-3.2.7-2.4-.8-4.9-3.2-5.6-2.4-.7-4.9.8-5.6 3.2m4.4-15.4c-.6 2.3.7 4.7 3 5.3 2.3.6 4.7-.7 5.3-3 .6-2.3-.7-4.7-3-5.3-2.3-.6-4.7.7-5.3 3m4.5-15.3c-.6 2.1.7 4.3 2.8 4.8 2.1.6 4.3-.7 4.8-2.8.6-2.1-.7-4.3-2.8-4.8-2.1-.6-4.3.7-4.8 2.8m4.5-15.4c-.5 1.9.6 3.9 2.5 4.4 1.9.5 3.9-.6 4.4-2.5.5-1.9-.6-3.9-2.5-4.4-2-.5-3.9.6-4.4 2.5m4.5-15.3c-.4 1.7.5 3.4 2.2 3.9 1.7.4 3.4-.6 3.9-2.2.5-1.7-.5-3.4-2.2-3.9-1.7-.5-3.4.5-3.9 2.2m4.6-15.4c-.4 1.4.5 2.9 1.9 3.3s2.9-.5 3.3-1.9c.4-1.4-.5-2.9-1.9-3.3-1.4-.4-2.9.5-3.3 1.9m4.6-15.3c-.3 1.2.4 2.4 1.5 2.7 1.2.3 2.4-.4 2.7-1.5.3-1.2-.4-2.4-1.5-2.7-1.2-.3-2.3.3-2.7 1.5M38 62.9c-.2.8.3 1.7 1.1 1.9.8.2 1.7-.3 1.9-1.1.2-.8-.3-1.7-1.1-1.9-.8-.2-1.7.3-1.9 1.1m4.6-15.3c-.1.5.2 1.1.7 1.2.5.2 1.1-.2 1.2-.7.1-.5-.2-1.1-.7-1.2-.5-.2-1 .1-1.2.7m4.8-15.3c-.1.2.1.4.3.5.2.1.4-.1.5-.3.1-.2-.1-.4-.3-.5-.3 0-.5.1-.5.3m-96.5 423.6c1.1.3 2.3-.4 2.6-1.5.3-1.1-.4-2.3-1.5-2.6-.8-.2-1.5.1-2 .6v2.9c.3.3.6.5.9.6m2.1-18.2c-.4 1.4.5 2.9 1.9 3.3 1.4.4 2.9-.5 3.3-1.9s-.5-2.9-1.9-3.3c-1.4-.4-2.9.4-3.3 1.9m3.7-15.6c-.5 1.7.6 3.5 2.3 3.9 1.7.5 3.5-.6 3.9-2.3.5-1.7-.6-3.5-2.3-3.9s-3.5.6-3.9 2.3m3.7-15.6c-.5 1.9.6 3.9 2.6 4.5 1.9.5 3.9-.6 4.5-2.6.5-1.9-.6-3.9-2.6-4.5-2-.5-4 .7-4.5 2.6m3.7-15.5c-.6 2.2.7 4.4 2.9 5 2.2.6 4.4-.7 5-2.9.6-2.2-.7-4.4-2.9-5-2.2-.6-4.4.7-5 2.9m3.8-15.6c-.6 2.4.8 4.8 3.2 5.5 2.4.6 4.8-.8 5.5-3.2.6-2.4-.8-4.8-3.2-5.5s-4.9.8-5.5 3.2m3.8-15.5c-.7 2.6.8 5.2 3.4 5.9 2.6.7 5.2-.8 5.9-3.4.7-2.6-.8-5.2-3.4-5.9-2.6-.7-5.2.8-5.9 3.4m3.9-15.6c-.7 2.7.9 5.5 3.6 6.2 2.7.7 5.5-.9 6.2-3.6.7-2.7-.9-5.5-3.6-6.2-2.7-.7-5.5 1-6.2 3.6m3.9-15.5c-.8 2.8.9 5.7 3.7 6.5 2.8.8 5.7-.9 6.5-3.7.8-2.8-.9-5.7-3.7-6.5-2.9-.8-5.8.9-6.5 3.7m4-15.5c-.8 2.9.9 5.9 3.9 6.7 2.9.8 5.9-.9 6.7-3.9.8-2.9-.9-5.9-3.9-6.7-3-.7-6 1-6.7 3.9m4-15.5c-.8 3 1 6 4 6.8 3 .8 6-1 6.8-4 .8-3-1-6-4-6.8-3-.7-6 1.1-6.8 4m4-15.4c-.8 3 1 6.1 4 7 3 .8 6.1-1 7-4 .8-3-1-6.1-4-7-3.1-.9-6.2.9-7 4m4.1-15.5c-.8 3.1 1 6.2 4 7 3.1.8 6.2-1 7-4 .8-3.1-1-6.2-4-7-3-.9-6.2.9-7 4m4.2-15.5c-.8 3.1 1 6.2 4 7 3.1.8 6.2-1 7-4 .8-3.1-1-6.2-4.1-7-3-.8-6.1 1-6.9 4M3.9 236c-.8 3 1 6.1 4 7 3 .8 6.1-1 7-4 .8-3-1-6.1-4-7-3-.8-6.2 1-7 4m4.3-15.4c-.8 3 1 6.1 4 6.8 3 .8 6-1 6.8-4 .8-3-1-6-4-6.8-3-.8-6 1-6.8 4m4.3-15.4c-.8 2.9.9 5.9 3.8 6.6 2.9.8 5.9-.9 6.6-3.8.8-2.9-.9-5.9-3.8-6.6-2.9-.8-5.9.9-6.6 3.8m4.3-15.5c-.7 2.8.9 5.7 3.7 6.4 2.8.7 5.7-.9 6.4-3.7.7-2.8-.9-5.7-3.7-6.4-2.8-.7-5.7 1-6.4 3.7m4.3-15.4c-.7 2.7.9 5.5 3.6 6.2 2.7.7 5.5-.9 6.2-3.6.7-2.7-.9-5.5-3.6-6.2-2.7-.7-5.5.9-6.2 3.6m4.4-15.3c-.7 2.5.8 5.1 3.4 5.8 2.5.7 5.1-.8 5.8-3.4.7-2.5-.8-5.1-3.4-5.8-2.5-.7-5.1.8-5.8 3.4m4.5-15.4c-.6 2.4.8 4.8 3.1 5.4 2.4.6 4.8-.8 5.4-3.1.6-2.4-.8-4.8-3.1-5.4-2.4-.7-4.8.7-5.4 3.1m4.5-15.4c-.6 2.2.7 4.4 2.9 4.9 2.2.6 4.4-.7 4.9-2.9s-.7-4.4-2.9-4.9c-2.1-.5-4.3.8-4.9 2.9m4.5-15.3c-.5 1.9.6 3.9 2.6 4.5 1.9.5 3.9-.6 4.5-2.6.5-1.9-.6-3.9-2.6-4.5-2-.5-4 .6-4.5 2.6m4.6-15.3c-.4 1.7.5 3.4 2.2 3.9 1.7.4 3.4-.5 3.9-2.2.5-1.7-.5-3.4-2.2-3.9-1.7-.5-3.4.5-3.9 2.2m4.6-15.4c-.4 1.4.5 2.9 1.9 3.3 1.4.4 2.9-.5 3.3-1.9.4-1.4-.5-2.9-1.9-3.3-1.4-.3-2.9.5-3.3 1.9M53 66.9c-.3 1.1.4 2.2 1.4 2.5 1.1.3 2.2-.4 2.5-1.4.3-1.1-.4-2.2-1.4-2.5-1.1-.3-2.2.3-2.5 1.4m4.6-15.3c-.2.8.3 1.6 1.1 1.8.8.2 1.6-.3 1.8-1.1.2-.8-.3-1.6-1.1-1.8-.7-.2-1.6.3-1.8 1.1m4.8-15.3c-.1.4.1.9.6 1 .4.1.9-.1 1-.6.1-.4-.1-.9-.6-1-.4 0-.8.2-1 .6m4.9-15c.1 0 .2 0 .2-.1s0-.2-.1-.2-.2 0-.2.1c-.1 0 0 .1.1.2M-46.1 504.2c-.1.4.1.8.5.9.4.1.8-.1.9-.5.1-.4-.1-.8-.5-.9-.5-.1-.8.1-.9.5m3.5-15.6c-.2.7.2 1.4.9 1.6.7.2 1.4-.2 1.6-.9.2-.7-.2-1.4-.9-1.6-.7-.3-1.4.1-1.6.9m3.5-15.7c-.3 1 .3 2.1 1.4 2.4 1 .3 2.1-.3 2.4-1.4.3-1-.3-2.1-1.4-2.4-1-.2-2.1.4-2.4 1.4m3.6-15.6c-.4 1.3.4 2.7 1.8 3.1 1.3.4 2.7-.4 3.1-1.8.4-1.3-.4-2.7-1.8-3.1-1.3-.3-2.7.5-3.1 1.8m3.6-15.6c-.4 1.7.5 3.4 2.2 3.8s3.4-.5 3.8-2.2c.4-1.7-.5-3.4-2.2-3.8-1.7-.4-3.4.6-3.8 2.2m3.6-15.6c-.5 1.9.6 3.9 2.6 4.5 1.9.5 3.9-.6 4.5-2.6.5-1.9-.6-3.9-2.6-4.5-2-.5-4 .7-4.5 2.6m3.7-15.5c-.6 2.2.7 4.4 2.9 5 2.2.6 4.4-.7 5-2.9.6-2.2-.7-4.4-2.9-5-2.2-.6-4.4.7-5 2.9m3.7-15.6c-.6 2.4.8 4.9 3.2 5.5 2.4.6 4.9-.8 5.5-3.2.6-2.4-.8-4.9-3.2-5.5-2.3-.7-4.8.8-5.5 3.2m3.9-15.5c-.7 2.6.8 5.2 3.4 5.9 2.6.7 5.2-.8 5.9-3.4.7-2.6-.8-5.2-3.4-5.9-2.6-.8-5.2.8-5.9 3.4m3.8-15.6c-.7 2.7.9 5.6 3.6 6.3 2.7.7 5.6-.9 6.3-3.6.7-2.7-.9-5.6-3.6-6.3-2.7-.8-5.6.9-6.3 3.6m3.8-15.5c-.8 2.9.9 5.9 3.9 6.7s5.9-.9 6.7-3.9c.8-2.9-1-5.9-3.9-6.7-2.9-.8-5.9 1-6.7 3.9m4-15.5c-.8 3 1 6.1 4 7 3 .8 6.1-1 7-4 .8-3-1-6.1-4-7-3.1-.9-6.2.9-7 4m3.9-15.5c-.8 3.1 1 6.3 4.1 7.2s6.3-1 7.2-4.1c.8-3.1-1-6.3-4.1-7.2-3.1-.9-6.3.9-7.2 4.1m4-15.5c-.9 3.2 1 6.5 4.3 7.4 3.2.9 6.5-1.1 7.4-4.3.9-3.2-1-6.5-4.3-7.4-3.2-.9-6.5 1-7.4 4.3m4-15.5c-.9 3.3 1.1 6.6 4.3 7.5 3.3.9 6.6-1.1 7.5-4.3.9-3.3-1.1-6.6-4.3-7.5-3.2-.9-6.6 1-7.5 4.3m4.1-15.5c-.9 3.3 1.1 6.7 4.4 7.6 3.3.9 6.7-1.1 7.6-4.4.9-3.3-1.1-6.7-4.4-7.6-3.3-.8-6.7 1.1-7.6 4.4m4.2-15.4c-.9 3.3 1.1 6.7 4.4 7.6 3.3.9 6.7-1.1 7.6-4.4.9-3.3-1.1-6.7-4.4-7.6-3.4-.9-6.7 1.1-7.6 4.4M19 240c-.9 3.2 1.1 6.6 4.3 7.4 3.2.9 6.6-1.1 7.4-4.3.9-3.2-1.1-6.6-4.3-7.4-3.2-.8-6.5 1.1-7.4 4.3m4.2-15.4c-.9 3.2 1 6.5 4.3 7.4 3.2.9 6.5-1.1 7.4-4.3.9-3.2-1-6.5-4.3-7.4-3.2-.8-6.6 1.1-7.4 4.3m4.3-15.4c-.8 3.1 1 6.3 4.1 7.1 3.1.8 6.3-1 7.1-4.1.8-3.1-1-6.3-4.1-7.1-3-.9-6.2 1-7.1 4.1m4.3-15.4c-.8 3 1 6.1 4 6.9 3 .8 6.1-1 6.9-4 .8-3-1-6.1-4-6.9-3-.8-6.1 1-6.9 4m4.4-15.4c-.8 2.9.9 5.9 3.8 6.6 2.9.8 5.9-.9 6.6-3.8.8-2.9-.9-5.9-3.8-6.6-2.9-.8-5.8.9-6.6 3.8m4.4-15.4c-.7 2.7.9 5.6 3.6 6.3 2.7.7 5.6-.9 6.3-3.6.7-2.7-.9-5.6-3.6-6.3-2.8-.8-5.6.8-6.3 3.6m4.4-15.4c-.7 2.6.8 5.2 3.4 5.9 2.6.7 5.2-.8 5.9-3.4.7-2.6-.8-5.2-3.4-5.9s-5.2.8-5.9 3.4m4.5-15.3c-.6 2.4.8 4.8 3.2 5.5 2.4.6 4.8-.8 5.5-3.2.6-2.4-.8-4.8-3.2-5.5-2.4-.7-4.9.8-5.5 3.2m4.6-15.4c-.6 2.2.7 4.4 2.9 4.9 2.2.6 4.4-.7 4.9-2.9.6-2.2-.7-4.4-2.9-4.9-2.1-.5-4.3.8-4.9 2.9m4.5-15.3c-.5 1.9.6 3.9 2.5 4.4 1.9.5 3.9-.6 4.4-2.5.5-1.9-.6-3.9-2.5-4.4-1.9-.6-3.8.6-4.4 2.5m4.7-15.3c-.4 1.6.5 3.3 2.2 3.7 1.6.4 3.3-.5 3.8-2.2.4-1.6-.5-3.3-2.2-3.7-1.7-.4-3.4.5-3.8 2.2M68 70.9c-.4 1.3.4 2.7 1.8 3 1.3.4 2.7-.4 3-1.8.4-1.3-.4-2.7-1.8-3-1.3-.3-2.7.5-3 1.8m4.7-15.2c-.3 1 .3 2 1.3 2.3 1 .3 2-.3 2.3-1.3.3-1-.3-2-1.3-2.3-1-.3-2 .3-2.3 1.3m4.8-15.3c-.2.6.2 1.3.8 1.5.6.2 1.3-.2 1.5-.8.2-.6-.2-1.3-.8-1.5-.7-.2-1.3.1-1.5.8m4.7-15.3c-.1.3.1.6.4.7.3.1.6-.1.7-.4.1-.3-.1-.6-.4-.7-.3-.1-.6.1-.7.4M-34.2 524.2c.1 0 .3 0 .3-.2 0-.1 0-.3-.2-.3-.1 0-.3 0-.3.2 0 .1 0 .3.2.3m3.2-16c-.1.5.2 1.1.7 1.2.5.1 1.1-.2 1.3-.7.1-.5-.2-1.1-.7-1.2-.6-.1-1.1.2-1.3.7m3.5-15.6c-.2.9.3 1.8 1.2 2 .9.2 1.8-.3 2-1.2.2-.9-.3-1.8-1.2-2-.8-.2-1.7.3-2 1.2M-24 477c-.3 1.3.4 2.5 1.7 2.9 1.3.3 2.5-.4 2.9-1.7.3-1.3-.4-2.5-1.7-2.9-1.3-.3-2.6.4-2.9 1.7m3.6-15.6c-.4 1.5.5 3.1 2 3.5 1.5.4 3.1-.5 3.5-2 .4-1.5-.5-3.1-2-3.5-1.5-.5-3.1.4-3.5 2m3.6-15.6c-.5 1.8.6 3.7 2.4 4.2 1.8.5 3.7-.6 4.2-2.5.5-1.8-.6-3.7-2.4-4.2-1.8-.5-3.7.6-4.2 2.5m3.6-15.6c-.6 2.1.7 4.3 2.8 4.9 2.1.6 4.3-.7 4.9-2.8.6-2.1-.7-4.3-2.8-4.9-2.1-.6-4.3.6-4.9 2.8m3.7-15.6c-.6 2.4.8 4.8 3.2 5.5 2.4.6 4.8-.8 5.5-3.2.6-2.4-.8-4.8-3.2-5.5-2.4-.6-4.9.8-5.5 3.2m3.8-15.6c-.7 2.6.8 5.2 3.4 5.9 2.6.7 5.2-.8 5.9-3.4.7-2.6-.8-5.2-3.4-5.9-2.6-.7-5.2.9-5.9 3.4m3.8-15.5c-.7 2.8.9 5.6 3.7 6.4 2.8.7 5.6-.9 6.4-3.7.7-2.8-.9-5.6-3.7-6.4-2.8-.7-5.7.9-6.4 3.7M1.9 368c-.8 3 1 6 3.9 6.8 3 .8 6-1 6.8-3.9.8-3-1-6-3.9-6.8-3-.9-6 .9-6.8 3.9m3.9-15.6c-.8 3.1 1 6.3 4.1 7.1 3.1.8 6.3-1 7.1-4.1.8-3.1-1-6.3-4.1-7.1-3.1-.8-6.3 1-7.1 4.1m3.8-15.5c-.9 3.2 1.1 6.6 4.3 7.4 3.2.9 6.6-1.1 7.4-4.3.9-3.2-1.1-6.6-4.3-7.4-3.2-.9-6.5 1.1-7.4 4.3m4-15.5c-.9 3.4 1.1 6.8 4.5 7.7 3.4.9 6.8-1.1 7.7-4.5.9-3.4-1.1-6.8-4.5-7.7-3.4-.9-6.8 1.1-7.7 4.5m4-15.5c-.9 3.4 1.1 7 4.6 7.9 3.4.9 7-1.1 7.9-4.6.9-3.4-1.1-7-4.6-7.9-3.5-.9-7 1.2-7.9 4.6m4-15.5c-.9 3.5 1.1 7.1 4.6 8 3.5.9 7.1-1.1 8-4.6.9-3.5-1.1-7.1-4.6-8-3.5-.9-7 1.1-8 4.6m4.1-15.5c-.9 3.5 1.1 7.2 4.7 8.1 3.5.9 7.2-1.1 8.1-4.7.9-3.5-1.2-7.2-4.7-8.1-3.6-.9-7.2 1.2-8.1 4.7m4.1-15.4c-.9 3.5 1.2 7.1 4.7 8.1 3.5.9 7.2-1.1 8.1-4.7.9-3.5-1.1-7.2-4.7-8.1-3.5-.9-7.1 1.2-8.1 4.7m4.2-15.4c-.9 3.5 1.1 7.1 4.6 8 3.5.9 7.1-1.1 8-4.6.9-3.5-1.1-7.1-4.6-8-3.5-1-7 1.1-8 4.6m4.3-15.5c-.9 3.4 1.1 6.9 4.5 7.8 3.4.9 6.9-1.1 7.8-4.5.9-3.4-1.1-6.9-4.5-7.8-3.4-.9-6.9 1.1-7.8 4.5m4.3-15.4c-.9 3.3 1.1 6.8 4.4 7.7 3.3.9 6.8-1.1 7.7-4.4.9-3.3-1.1-6.8-4.4-7.7-3.4-.9-6.8 1.1-7.7 4.4m4.3-15.4c-.9 3.2 1 6.5 4.3 7.4 3.2.9 6.5-1.1 7.4-4.3.9-3.2-1-6.5-4.3-7.4-3.2-.8-6.5 1.1-7.4 4.3m4.4-15.4c-.8 3.1 1 6.3 4.1 7.1 3.1.8 6.3-1 7.1-4.1.8-3.1-1-6.3-4.1-7.1-3.1-.8-6.3 1-7.1 4.1m4.4-15.4c-.8 3 1 6 3.9 6.8 3 .8 6-1 6.8-3.9.8-3-1-6-3.9-6.8-3-.8-6 1-6.8 3.9m4.5-15.3c-.7 2.7.9 5.6 3.6 6.3 2.7.7 5.6-.9 6.3-3.6.7-2.7-.9-5.6-3.6-6.3-2.8-.8-5.6.8-6.3 3.6m4.4-15.4c-.7 2.6.8 5.2 3.4 5.9 2.6.7 5.2-.8 5.9-3.4.7-2.6-.8-5.2-3.4-5.9-2.5-.7-5.2.8-5.9 3.4m4.5-15.4c-.6 2.4.8 4.8 3.1 5.4 2.4.6 4.8-.8 5.4-3.1.6-2.4-.8-4.8-3.1-5.4-2.3-.6-4.7.8-5.4 3.1m4.7-15.3c-.6 2.1.7 4.3 2.8 4.8 2.1.6 4.3-.7 4.8-2.8.6-2.1-.7-4.3-2.8-4.8-2.1-.5-4.3.7-4.8 2.8m4.6-15.3c-.5 1.8.6 3.7 2.4 4.2s3.7-.6 4.2-2.4c.5-1.8-.6-3.7-2.4-4.2-1.8-.5-3.7.6-4.2 2.4M83.1 75c-.4 1.5.5 3.1 2 3.5s3.1-.5 3.5-2c.4-1.5-.5-3.1-2-3.5-1.5-.5-3.1.4-3.5 2m4.7-15.3c-.3 1.2.4 2.4 1.6 2.7 1.2.3 2.4-.4 2.7-1.6.3-1.2-.4-2.4-1.6-2.7-1.1-.3-2.3.4-2.7 1.6m4.8-15.3c-.2.8.3 1.7 1.1 1.9.8.2 1.7-.3 1.9-1.1.2-.8-.3-1.7-1.1-1.9-.8-.2-1.7.3-1.9 1.1m4.8-15.3c-.1.5.2 1 .7 1.1.5.1 1-.2 1.1-.7.1-.5-.2-1-.7-1.1-.5-.1-1 .2-1.1.7m4.9-14.9c.1 0 .3 0 .3-.2 0-.1 0-.3-.2-.3-.1 0-.3 0-.3.2 0 .1.1.2.2.3M-19.3 527.9c-.1.3.1.7.4.8s.7-.1.8-.4c.1-.3-.1-.7-.4-.8s-.7.1-.8.4m3.5-15.6c-.2.7.2 1.4.9 1.6.7.2 1.4-.2 1.6-.9.2-.7-.2-1.4-.9-1.6-.7-.2-1.4.2-1.6.9m3.5-15.6c-.3 1.1.3 2.2 1.4 2.4 1.1.3 2.2-.3 2.4-1.4.3-1.1-.3-2.2-1.4-2.4-1.1-.3-2.2.3-2.4 1.4m3.5-15.7c-.4 1.4.5 2.9 1.9 3.3 1.4.4 2.9-.5 3.3-1.9.4-1.4-.5-2.9-1.9-3.3-1.5-.3-3 .5-3.3 1.9m3.5-15.6c-.5 1.7.6 3.5 2.3 4 1.7.5 3.5-.6 4-2.3.5-1.7-.6-3.5-2.3-4-1.7-.4-3.5.6-4 2.3m3.7-15.6c-.5 2 .7 4.1 2.7 4.6s4.1-.7 4.6-2.7-.7-4.1-2.7-4.6-4.1.7-4.6 2.7M2 434.2c-.6 2.3.7 4.7 3 5.3 2.3.6 4.7-.7 5.3-3 .6-2.3-.7-4.7-3-5.3-2.3-.6-4.7.7-5.3 3m3.6-15.5c-.7 2.6.8 5.2 3.4 5.9 2.6.7 5.2-.8 5.9-3.4.7-2.6-.8-5.2-3.4-5.9-2.5-.7-5.2.8-5.9 3.4m3.8-15.6c-.7 2.7.9 5.6 3.6 6.3 2.7.7 5.6-.9 6.3-3.6.7-2.7-.9-5.6-3.6-6.3-2.7-.8-5.5.9-6.3 3.6m3.8-15.6c-.8 3 1 6 3.9 6.8s6-1 6.8-3.9c.8-3-1-6-3.9-6.8-3-.8-6 1-6.8 3.9M17 372c-.8 3.1 1 6.3 4.1 7.2 3.1.8 6.3-1 7.2-4.1.8-3.1-1-6.3-4.1-7.2-3.1-.9-6.3 1-7.2 4.1m3.9-15.5c-.9 3.3 1.1 6.7 4.4 7.6 3.3.9 6.7-1.1 7.6-4.4.9-3.3-1.1-6.7-4.4-7.6-3.4-.9-6.7 1.1-7.6 4.4m3.8-15.6c-.9 3.4 1.1 7 4.6 7.9 3.4.9 7-1.1 7.9-4.6.9-3.4-1.1-7-4.5-7.9-3.5-.8-7 1.2-8 4.6m4-15.5c-1 3.6 1.2 7.2 4.7 8.2 3.5.9 7.2-1.2 8.1-4.7 1-3.6-1.2-7.2-4.7-8.2-3.5-.9-7.2 1.2-8.1 4.7m3.9-15.5c-1 3.6 1.2 7.4 4.8 8.4 3.6 1 7.4-1.2 8.4-4.8 1-3.6-1.2-7.4-4.8-8.4-3.6-1-7.4 1.2-8.4 4.8m4-15.5c-1 3.7 1.2 7.5 4.9 8.5s7.5-1.2 8.5-4.9-1.2-7.5-4.9-8.5c-3.6-1-7.5 1.2-8.5 4.9m4.1-15.4c-1 3.7 1.2 7.6 5 8.6 3.7 1 7.6-1.2 8.6-5 1-3.7-1.2-7.6-5-8.6-3.7-1-7.6 1.2-8.6 5m4.2-15.5c-1 3.7 1.2 7.6 5 8.6 3.7 1 7.6-1.2 8.6-5 1-3.7-1.2-7.6-5-8.6s-7.6 1.3-8.6 5m4.2-15.4c-1 3.7 1.2 7.5 4.9 8.5s7.5-1.2 8.5-4.9-1.2-7.5-4.9-8.5-7.5 1.2-8.5 4.9m4.2-15.4c-1 3.6 1.2 7.4 4.8 8.4 3.6 1 7.4-1.2 8.4-4.8 1-3.6-1.2-7.4-4.8-8.4-3.7-1.1-7.4 1.1-8.4 4.8m4.4-15.4c-.9 3.5 1.1 7.2 4.7 8.1 3.5.9 7.2-1.1 8.1-4.7.9-3.5-1.2-7.2-4.7-8.1-3.6-1-7.2 1.1-8.1 4.7m4.3-15.4c-.9 3.4 1.1 6.9 4.5 7.8 3.4.9 6.9-1.1 7.8-4.5.9-3.4-1.1-6.9-4.5-7.8-3.4-1-6.9 1-7.8 4.5m4.4-15.4c-.9 3.3 1.1 6.6 4.3 7.5 3.3.9 6.6-1.1 7.5-4.3.9-3.3-1.1-6.6-4.3-7.5-3.2-.9-6.6 1-7.5 4.3m4.5-15.4c-.8 3.1 1 6.3 4.1 7.1 3.1.8 6.3-1 7.1-4.1.8-3.1-1-6.3-4.1-7.1-3.1-.8-6.3 1-7.1 4.1m4.4-15.4c-.8 3 1 6 3.9 6.8 3 .8 6-1 6.8-3.9.8-3-1-6-3.9-6.8-3-.8-6.1 1-6.8 3.9m4.5-15.3c-.7 2.7.9 5.6 3.6 6.3 2.7.7 5.6-.9 6.3-3.6.7-2.7-.9-5.6-3.6-6.3-2.8-.8-5.6.8-6.3 3.6m4.5-15.4c-.7 2.5.8 5.1 3.4 5.8 2.5.7 5.1-.8 5.8-3.4.7-2.5-.8-5.1-3.4-5.8-2.5-.6-5.1.9-5.8 3.4m4.7-15.3c-.6 2.2.7 4.6 3 5.2 2.2.6 4.6-.7 5.2-3 .6-2.3-.7-4.6-3-5.2-2.3-.6-4.6.7-5.2 3m4.6-15.3c-.5 2 .6 4 2.6 4.6 2 .5 4-.7 4.6-2.6s-.6-4-2.6-4.6c-2.1-.6-4.1.6-4.6 2.6M98.2 79c-.5 1.7.6 3.5 2.3 3.9s3.5-.6 3.9-2.3c.5-1.7-.6-3.5-2.3-3.9-1.7-.4-3.4.6-3.9 2.3m4.8-15.3c-.4 1.4.4 2.8 1.8 3.2s2.8-.4 3.2-1.8c.4-1.4-.4-2.8-1.8-3.2-1.5-.3-2.9.5-3.2 1.8m4.7-15.3c-.3 1 .3 2.1 1.4 2.4 1 .3 2.1-.3 2.4-1.4.3-1-.3-2.1-1.4-2.4-1.1-.2-2.1.4-2.4 1.4m4.9-15.2c-.2.6.2 1.3.8 1.5.6.2 1.3-.2 1.5-.8.2-.6-.2-1.3-.8-1.5s-1.4.1-1.5.8m4.8-15.3c-.1.3.1.5.3.6.3.1.5-.1.6-.3.1-.3-.1-.5-.3-.6-.3-.1-.5.1-.6.3M-7.4 547.8c.1 0 .1 0 .2-.1 0-.1 0-.1-.1-.2-.1 0-.1 0-.2.1 0 .1 0 .2.1.2m3.3-15.8c-.1.5.2 1 .6 1.1.5.1 1-.2 1.1-.6.1-.5-.2-1-.6-1.1-.5-.2-1 .1-1.1.6m3.5-15.6c-.2.8.3 1.7 1.1 1.9.8.2 1.7-.3 1.9-1.1.2-.8-.3-1.7-1.1-1.9-.8-.3-1.7.2-1.9 1.1m3.4-15.7c-.3 1.2.4 2.5 1.6 2.8 1.2.3 2.5-.4 2.8-1.6.3-1.2-.4-2.5-1.6-2.8-1.2-.3-2.5.4-2.8 1.6m3.6-15.6c-.4 1.5.5 3.1 2 3.5 1.5.4 3.1-.5 3.5-2 .4-1.5-.5-3.1-2-3.5-1.5-.4-3.1.5-3.5 2m3.5-15.6c-.5 1.9.6 3.8 2.5 4.3s3.8-.6 4.3-2.5-.6-3.8-2.5-4.3-3.8.6-4.3 2.5m3.6-15.6c-.6 2.2.7 4.4 2.9 5 2.2.6 4.4-.7 5-2.9.6-2.2-.7-4.4-2.9-5-2.2-.6-4.4.7-5 2.9m3.7-15.6c-.7 2.4.8 4.9 3.2 5.6 2.4.7 4.9-.8 5.6-3.2.7-2.4-.8-4.9-3.2-5.6s-5 .8-5.6 3.2m3.6-15.6c-.7 2.7.9 5.5 3.6 6.2 2.7.7 5.5-.9 6.2-3.6s-.9-5.5-3.6-6.2c-2.7-.7-5.4.9-6.2 3.6m3.8-15.5c-.8 2.9.9 5.9 3.9 6.7s5.9-.9 6.7-3.9c.8-2.9-1-5.9-3.9-6.7-2.9-.8-5.9.9-6.7 3.9m3.8-15.6c-.8 3.1 1 6.3 4.1 7.1 3.1.8 6.3-1 7.1-4.1.8-3.1-1-6.3-4.1-7.1-3.1-.8-6.3 1-7.1 4.1m3.8-15.5c-.9 3.3 1.1 6.7 4.4 7.6 3.3.9 6.7-1.1 7.6-4.4.9-3.3-1.1-6.7-4.4-7.5-3.4-1-6.7 1-7.6 4.3m3.8-15.6c-.9 3.5 1.1 7.1 4.6 8 3.5.9 7.1-1.1 8-4.6.9-3.5-1.1-7.1-4.6-8-3.5-.9-7.1 1.1-8 4.6m3.9-15.5c-1 3.6 1.2 7.3 4.8 8.3 3.6 1 7.3-1.2 8.3-4.8 1-3.6-1.2-7.3-4.8-8.3-3.6-1-7.4 1.2-8.3 4.8m3.9-15.5c-1 3.7 1.2 7.6 5 8.6 3.7 1 7.6-1.2 8.6-5 1-3.7-1.2-7.6-5-8.6s-7.6 1.2-8.6 5m4-15.5c-1 3.8 1.2 7.8 5.1 8.8 3.8 1 7.8-1.2 8.8-5.1 1-3.8-1.3-7.8-5.1-8.8-3.9-1-7.8 1.2-8.8 5.1m4-15.5c-1 3.9 1.3 7.9 5.2 9 3.9 1 7.9-1.3 9-5.2 1-3.9-1.3-7.9-5.2-9-4-1-8 1.3-9 5.2m4.1-15.5c-1.1 3.9 1.3 8 5.2 9 3.9 1.1 8-1.3 9-5.2 1-3.9-1.3-8-5.2-9-4-1-8 1.3-9 5.2m4.1-15.4c-1.1 3.9 1.3 8 5.2 9 3.9 1.1 8-1.3 9-5.2 1.1-3.9-1.3-8-5.2-9-3.9-1.1-8 1.2-9 5.2m4.2-15.5c-1 3.9 1.3 7.9 5.2 9 3.9 1 7.9-1.3 9-5.2 1-3.9-1.3-7.9-5.2-9-4-1-8 1.3-9 5.2m4.2-15.4c-1 3.8 1.2 7.8 5.1 8.8 3.8 1 7.8-1.2 8.8-5.1 1-3.8-1.3-7.8-5.1-8.8-3.8-1-7.7 1.3-8.8 5.1m4.4-15.4c-1 3.7 1.2 7.5 4.9 8.5s7.5-1.2 8.5-4.9-1.2-7.5-4.9-8.5-7.5 1.2-8.5 4.9m4.3-15.4c-1 3.6 1.2 7.3 4.8 8.3 3.6 1 7.3-1.2 8.3-4.8 1-3.6-1.2-7.3-4.8-8.3-3.6-.9-7.3 1.2-8.3 4.8m4.5-15.4c-.9 3.4 1.1 7 4.6 7.9 3.4.9 7-1.1 7.9-4.6.9-3.4-1.1-7-4.6-7.9-3.5-.8-7 1.2-7.9 4.6m4.4-15.3c-.9 3.3 1.1 6.6 4.3 7.5 3.3.9 6.6-1.1 7.5-4.3.9-3.3-1.1-6.6-4.3-7.5-3.3-1-6.6 1-7.5 4.3m4.5-15.4c-.8 3.1 1 6.3 4.1 7.1 3.1.8 6.3-1 7.1-4.1.8-3.1-1-6.3-4.1-7.1-3.1-.9-6.3 1-7.1 4.1m4.5-15.4c-.8 2.9.9 5.9 3.8 6.6 2.9.8 5.9-.9 6.6-3.8.8-2.9-.9-5.9-3.8-6.6-2.9-.8-5.9.9-6.6 3.8m4.5-15.3c-.7 2.7.9 5.4 3.5 6.1 2.7.7 5.4-.9 6.1-3.5.7-2.7-.9-5.4-3.5-6.1-2.6-.8-5.4.8-6.1 3.5m4.6-15.4c-.7 2.4.8 4.9 3.2 5.6s4.9-.8 5.6-3.2c.7-2.4-.8-4.9-3.2-5.6-2.5-.7-5 .8-5.6 3.2m4.7-15.3c-.6 2.1.7 4.3 2.8 4.9 2.1.6 4.3-.7 4.9-2.8.6-2.1-.7-4.3-2.8-4.9-2.2-.6-4.4.7-4.9 2.8m4.6-15.3c-.5 1.8.6 3.7 2.4 4.2 1.8.5 3.7-.6 4.2-2.4.5-1.8-.6-3.7-2.4-4.2-1.8-.5-3.7.6-4.2 2.4m4.7-15.3c-.4 1.5.5 3.1 2 3.5 1.5.4 3.1-.5 3.5-2 .4-1.5-.5-3.1-2-3.5-1.5-.5-3.1.5-3.5 2m4.8-15.3c-.3 1.2.4 2.4 1.5 2.7 1.2.3 2.4-.4 2.7-1.5.3-1.2-.4-2.4-1.5-2.7-1.2-.3-2.4.4-2.7 1.5m4.8-15.3c-.2.8.3 1.6 1.1 1.8.8.2 1.6-.3 1.8-1.1.2-.8-.3-1.6-1.1-1.8-.7-.1-1.6.3-1.8 1.1m4.9-15.2c-.1.4.1.8.5.9.4.1.8-.1.9-.5.1-.4-.1-.8-.5-.9-.4-.2-.8.1-.9.5m4.8-15.2c.1 0 .1 0 0 0 .1-.1.1-.1 0 0 0-.1 0-.1 0 0 0-.1 0 0 0 0M8 552.1c.2 0 .3-.1.4-.2 0-.2-.1-.3-.2-.4-.2 0-.3.1-.4.2-.1.2 0 .4.2.4m3.2-16c-.2.6.2 1.2.8 1.3.6.2 1.2-.2 1.3-.8.2-.6-.2-1.2-.8-1.3-.6-.1-1.2.2-1.3.8m3.4-15.7c-.3 1 .3 2 1.3 2.2 1 .3 2-.3 2.2-1.3.3-1-.3-2-1.3-2.2-.9-.2-1.9.4-2.2 1.3m3.5-15.6c-.4 1.3.4 2.7 1.8 3 1.3.4 2.7-.4 3-1.8.4-1.3-.4-2.7-1.8-3-1.3-.3-2.6.5-3 1.8m3.5-15.6c-.4 1.7.5 3.4 2.2 3.9 1.7.5 3.4-.5 3.9-2.2.5-1.7-.5-3.4-2.2-3.9-1.7-.5-3.5.5-3.9 2.2m3.6-15.6c-.5 2 .6 4 2.6 4.6s4-.6 4.6-2.6c.5-2-.6-4-2.6-4.6-2-.6-4.1.6-4.6 2.6m3.6-15.6c-.6 2.3.7 4.7 3 5.3 2.3.6 4.7-.8 5.3-3 .6-2.3-.8-4.7-3-5.3-2.4-.7-4.7.7-5.3 3m3.6-15.6c-.7 2.6.8 5.2 3.4 5.9 2.6.7 5.2-.8 5.9-3.4.7-2.6-.8-5.2-3.4-5.9-2.6-.7-5.2.8-5.9 3.4m3.7-15.6c-.8 2.8.9 5.7 3.7 6.5 2.8.8 5.7-.9 6.5-3.7.8-2.8-.9-5.7-3.7-6.5-2.9-.8-5.8.9-6.5 3.7m3.7-15.6c-.8 3 1 6.1 4 7 3 .8 6.1-1 7-4 .8-3-1-6.1-4-7-3-.8-6.1 1-7 4m3.8-15.5c-.9 3.2 1.1 6.6 4.3 7.4 3.2.9 6.6-1.1 7.4-4.3.9-3.2-1.1-6.6-4.3-7.4-3.2-.9-6.5 1-7.4 4.3m3.8-15.6c-.9 3.4 1.1 7 4.6 7.9 3.4.9 7-1.1 7.9-4.5.9-3.4-1.1-7-4.5-7.9-3.6-.9-7.1 1.1-8 4.5m3.8-15.5c-1 3.6 1.2 7.3 4.8 8.3 3.6 1 7.3-1.2 8.3-4.8 1-3.6-1.2-7.3-4.8-8.3-3.6-1-7.3 1.2-8.3 4.8m3.8-15.5c-1 3.8 1.2 7.7 5 8.7 3.8 1 7.7-1.2 8.7-5 1-3.8-1.2-7.7-5-8.7-3.8-1.1-7.7 1.2-8.7 5m3.9-15.6c-1 3.9 1.3 7.9 5.2 9 3.9 1 7.9-1.3 9-5.2 1-3.9-1.3-7.9-5.2-9-3.9-1-7.9 1.3-9 5.2m3.9-15.5c-1.1 4 1.3 8.2 5.4 9.3 4 1.1 8.2-1.3 9.3-5.4 1.1-4-1.3-8.2-5.4-9.3-4-1-8.2 1.4-9.3 5.4m4-15.5c-1.1 4.1 1.3 8.4 5.5 9.5 4.1 1.1 8.4-1.3 9.5-5.5 1.1-4.1-1.3-8.4-5.5-9.5-4.1-1-8.4 1.4-9.5 5.5m4.1-15.5c-1.1 4.2 1.4 8.4 5.5 9.6 4.2 1.1 8.4-1.4 9.6-5.5 1.1-4.2-1.4-8.5-5.5-9.6-4.2-1.1-8.5 1.4-9.6 5.5m4.1-15.4c-1.1 4.2 1.4 8.4 5.5 9.6 4.2 1.1 8.4-1.4 9.6-5.5 1.1-4.2-1.4-8.5-5.5-9.6-4.2-1.1-8.5 1.3-9.6 5.5m4.2-15.4c-1.1 4.1 1.3 8.4 5.5 9.5 4.1 1.1 8.4-1.3 9.5-5.5 1.1-4.1-1.3-8.4-5.5-9.5-4.1-1.1-8.4 1.3-9.5 5.5m4.4-15.5c-1.1 4 1.3 8.2 5.3 9.2 4 1.1 8.2-1.3 9.2-5.3 1.1-4-1.3-8.2-5.3-9.2-4-1.1-8.2 1.3-9.2 5.3m4.3-15.4c-1 3.9 1.3 7.9 5.2 9 3.9 1 7.9-1.3 9-5.2 1-3.9-1.3-7.9-5.2-9-3.9-1-7.9 1.3-9 5.2m4.4-15.3c-1 3.8 1.2 7.6 5 8.6s7.6-1.2 8.6-5-1.2-7.6-5-8.6c-3.7-1-7.6 1.2-8.6 5m4.4-15.4c-1 3.6 1.2 7.3 4.8 8.3 3.6 1 7.3-1.2 8.3-4.8 1-3.6-1.2-7.3-4.8-8.3-3.6-.9-7.3 1.2-8.3 4.8m4.5-15.4c-.9 3.4 1.1 6.9 4.5 7.8 3.4.9 6.9-1.1 7.8-4.5s-1.1-6.9-4.5-7.8c-3.4-.9-6.9 1.1-7.8 4.5m4.5-15.3c-.9 3.2 1 6.5 4.3 7.4 3.2.9 6.5-1 7.4-4.3.9-3.2-1.1-6.5-4.3-7.4-3.2-.9-6.5 1-7.4 4.3m4.5-15.4c-.8 3 1 6.1 4 6.9 3 .8 6.1-1 6.9-4 .8-3-1-6.1-4-6.9-3-.8-6.1 1-6.9 4m4.6-15.3c-.7 2.8.9 5.6 3.7 6.4 2.8.7 5.6-.9 6.4-3.7.7-2.8-.9-5.6-3.7-6.4-2.8-.8-5.7.9-6.4 3.7m4.5-15.4c-.7 2.6.8 5.2 3.4 5.9s5.2-.8 5.9-3.4c.7-2.6-.8-5.2-3.4-5.9-2.6-.7-5.2.9-5.9 3.4m4.7-15.3c-.6 2.2.7 4.6 3 5.2 2.2.6 4.6-.7 5.2-3 .6-2.3-.7-4.6-3-5.2-2.3-.6-4.6.8-5.2 3m4.7-15.3c-.5 2 .6 4 2.6 4.5s4-.6 4.5-2.6-.6-4-2.6-4.5-4 .6-4.5 2.6m4.6-15.3c-.4 1.7.5 3.4 2.2 3.8 1.7.4 3.4-.5 3.8-2.2.4-1.7-.5-3.4-2.2-3.8-1.6-.5-3.3.5-3.8 2.2m4.8-15.3c-.4 1.3.4 2.7 1.8 3 1.3.4 2.7-.4 3-1.8.4-1.3-.4-2.7-1.8-3-1.3-.3-2.7.5-3 1.8m4.9-15.3c-.2.9.3 1.8 1.2 2.1.9.2 1.8-.3 2.1-1.2.2-.9-.3-1.8-1.2-2.1-.9-.2-1.9.3-2.1 1.2m4.8-15.2c-.1.5.2 1.1.7 1.2.5.1 1.1-.2 1.2-.7.1-.5-.2-1.1-.7-1.3-.5-.1-1.1.2-1.2.8m5-15c.1 0 .3 0 .3-.2 0-.1 0-.3-.2-.3-.1 0-.3 0-.3.2 0 .1.1.3.2.3M23.1 555.8c-.1.3.1.5.3.6.3.1.5-.1.6-.3.1-.3-.1-.5-.3-.6-.3-.1-.6.1-.6.3m3.4-15.6c-.2.7.2 1.3.9 1.5.7.2 1.3-.2 1.5-.9.2-.7-.2-1.3-.9-1.5-.7-.2-1.3.2-1.5.9m3.4-15.7c-.3 1.1.3 2.2 1.4 2.4 1.1.3 2.2-.3 2.4-1.4.3-1.1-.3-2.2-1.4-2.4-1-.3-2.1.4-2.4 1.4m3.4-15.6c-.4 1.4.5 2.9 1.9 3.3 1.4.4 2.9-.5 3.3-1.9s-.5-2.9-1.9-3.3c-1.4-.4-2.9.4-3.3 1.9m3.6-15.6c-.5 1.8.6 3.6 2.4 4.1 1.8.5 3.6-.6 4.1-2.4.5-1.8-.6-3.6-2.4-4.1-1.8-.5-3.6.6-4.1 2.4m3.5-15.6c-.6 2.1.7 4.3 2.8 4.8 2.1.6 4.3-.7 4.8-2.8.6-2.1-.7-4.3-2.8-4.8-2.1-.6-4.2.6-4.8 2.8M44 462c-.6 2.4.8 4.9 3.2 5.5 2.4.6 4.9-.8 5.5-3.2.6-2.4-.8-4.9-3.2-5.5-2.4-.6-4.9.8-5.5 3.2m3.7-15.5c-.7 2.7.9 5.4 3.5 6.1 2.7.7 5.4-.9 6.1-3.5.7-2.7-.9-5.4-3.5-6.1-2.7-.8-5.4.8-6.1 3.5m3.7-15.6c-.8 2.9.9 5.9 3.9 6.7 2.9.8 5.9-.9 6.7-3.9s-1-5.9-3.9-6.7c-3-.7-5.9 1-6.7 3.9m3.7-15.6c-.8 3.1 1 6.3 4.1 7.2 3.1.8 6.3-1 7.2-4.1s-1-6.3-4.1-7.2c-3.1-.8-6.3 1-7.2 4.1m3.7-15.5c-.9 3.4 1.1 6.8 4.5 7.7 3.4.9 6.8-1.1 7.7-4.5.9-3.4-1.1-6.8-4.5-7.7-3.3-.9-6.8 1.1-7.7 4.5m3.8-15.6c-1 3.6 1.2 7.2 4.7 8.1 3.5 1 7.2-1.2 8.1-4.7 1-3.5-1.2-7.2-4.7-8.1-3.5-.9-7.1 1.2-8.1 4.7m3.8-15.5c-1 3.7 1.2 7.6 5 8.6 3.7 1 7.6-1.2 8.6-5 1-3.7-1.2-7.6-5-8.6-3.7-1-7.6 1.2-8.6 5m3.9-15.6c-1 3.9 1.3 7.9 5.2 9 3.9 1 7.9-1.3 9-5.2 1-3.9-1.3-7.9-5.2-9-4-1-8 1.3-9 5.2m3.8-15.5c-1.1 4.1 1.3 8.3 5.4 9.3 4.1 1.1 8.3-1.3 9.3-5.4 1.1-4.1-1.3-8.3-5.4-9.3-4-1.1-8.2 1.3-9.3 5.4m3.8-15.5c-1.1 4.2 1.4 8.6 5.6 9.7 4.2 1.1 8.6-1.4 9.7-5.6 1.1-4.2-1.4-8.6-5.6-9.7-4.2-1.2-8.5 1.3-9.7 5.6" class="mega-300x600-bg-1"/>
  <path d="M81.9 306.6c-1.2 4.3 1.4 8.7 5.7 9.9 4.3 1.2 8.7-1.4 9.9-5.7 1.2-4.3-1.4-8.7-5.7-9.9-4.3-1.2-8.7 1.4-9.9 5.7" class="mega-300x600-bg-1"/>
  <path d="M85.9 291.1c-1.2 4.4 1.4 8.9 5.8 10.1 4.4 1.2 8.9-1.4 10.1-5.8 1.2-4.4-1.4-8.9-5.8-10.1-4.4-1.2-8.9 1.4-10.1 5.8" class="mega-300x600-bg-1"/>
  <path d="M90 275.6c-1.2 4.4 1.4 8.9 5.8 10.1 4.4 1.2 8.9-1.4 10.1-5.8 1.2-4.4-1.4-8.9-5.8-10.1-4.3-1.2-8.9 1.4-10.1 5.8" class="mega-300x600-bg-1"/>
  <path d="M94.4 260.2c-1.2 4.3 1.4 8.7 5.7 9.9 4.3 1.2 8.7-1.4 9.9-5.7 1.2-4.3-1.4-8.7-5.7-9.9-4.4-1.2-8.8 1.4-9.9 5.7" class="mega-300x600-bg-1"/>
  <path d="M98.7 244.8c-1.1 4.2 1.4 8.5 5.6 9.7 4.2 1.1 8.5-1.4 9.7-5.6 1.1-4.2-1.4-8.5-5.6-9.7-4.3-1.1-8.6 1.4-9.7 5.6m4.4-15.4c-1.1 4.1 1.3 8.3 5.4 9.3 4.1 1.1 8.3-1.3 9.3-5.4 1.1-4.1-1.3-8.3-5.4-9.3-4.1-1.1-8.3 1.3-9.3 5.4m4.4-15.4c-1 3.9 1.3 7.9 5.2 9 3.9 1 7.9-1.3 9-5.2 1-3.9-1.3-7.9-5.2-9-3.9-1-8 1.3-9 5.2m4.5-15.3c-1 3.7 1.2 7.5 4.9 8.5s7.5-1.2 8.5-4.9-1.2-7.5-4.9-8.5c-3.7-1.1-7.5 1.1-8.5 4.9m4.5-15.4c-.9 3.5 1.1 7.2 4.7 8.1s7.2-1.1 8.1-4.7c.9-3.5-1.1-7.2-4.7-8.1-3.6-.9-7.2 1.2-8.1 4.7m4.5-15.4c-.9 3.3 1.1 6.7 4.4 7.6 3.3.9 6.7-1.1 7.6-4.4.9-3.3-1.1-6.7-4.4-7.6-3.3-.8-6.7 1.1-7.6 4.4m4.5-15.3c-.8 3.1 1 6.3 4.1 7.1 3.1.8 6.3-1 7.1-4.1.8-3.1-1-6.3-4.1-7.1-3.1-.8-6.3 1-7.1 4.1m4.5-15.4c-.8 2.9.9 5.9 3.8 6.6s5.9-.9 6.6-3.8c.8-2.9-.9-5.9-3.8-6.6-2.8-.8-5.8 1-6.6 3.8m4.6-15.3c-.7 2.7.9 5.4 3.5 6.1 2.7.7 5.4-.9 6.1-3.5.7-2.7-.9-5.4-3.5-6.1-2.7-.7-5.4.9-6.1 3.5m4.6-15.3c-.6 2.4.8 4.8 3.1 5.4 2.4.6 4.8-.8 5.4-3.1.6-2.4-.8-4.8-3.1-5.4-2.3-.7-4.7.7-5.4 3.1m4.7-15.3c-.6 2.1.7 4.2 2.8 4.8 2.1.6 4.2-.7 4.8-2.8.6-2.1-.7-4.2-2.8-4.8-2.1-.6-4.2.7-4.8 2.8m4.8-15.3c-.5 1.7.6 3.5 2.3 4 1.7.5 3.5-.6 4-2.3.5-1.7-.6-3.5-2.3-4-1.8-.5-3.6.6-4 2.3m4.8-15.3c-.4 1.4.4 2.8 1.8 3.2s2.8-.4 3.2-1.8c.4-1.4-.4-2.8-1.8-3.2-1.5-.4-2.9.4-3.2 1.8m4.7-15.3c-.3 1 .3 2.1 1.4 2.4 1 .3 2.1-.3 2.4-1.4.3-1-.3-2.1-1.4-2.4-1.1-.3-2.1.4-2.4 1.4m4.9-15.2c-.2.6.2 1.2.8 1.4.6.2 1.3-.2 1.4-.8.2-.6-.2-1.2-.8-1.4-.6-.2-1.2.1-1.4.8m4.8-15.3c-.1.2.1.5.3.5.2.1.5-.1.5-.3.1-.2-.1-.5-.3-.5-.2-.1-.4 0-.5.3m-129.5 545c-.1.3.1.7.4.8.3.1.7-.1.8-.4.1-.3-.1-.7-.4-.8s-.7.1-.8.4m3.4-15.6c-.2.7.2 1.5 1 1.7.7.2 1.5-.2 1.7-1 .2-.7-.2-1.5-1-1.7-.7-.2-1.5.2-1.7 1m3.4-15.7c-.3 1.1.4 2.3 1.5 2.6 1.1.3 2.3-.4 2.6-1.5.3-1.1-.4-2.3-1.5-2.6-1.1-.3-2.3.4-2.6 1.5m3.5-15.6c-.4 1.5.5 3 2 3.4 1.5.4 3-.5 3.4-2 .4-1.5-.5-3-2-3.4-1.5-.4-3 .5-3.4 2m3.5-15.6c-.5 1.8.6 3.7 2.4 4.2 1.8.5 3.7-.6 4.2-2.4.5-1.8-.6-3.7-2.4-4.2-1.8-.6-3.7.5-4.2 2.4m3.5-15.6c-.6 2.2.7 4.4 2.9 5 2.2.6 4.4-.7 5-2.9.6-2.2-.7-4.4-2.9-5-2.1-.6-4.4.7-5 2.9m3.7-15.6c-.7 2.5.8 5 3.3 5.7 2.5.7 5-.8 5.7-3.3.7-2.5-.8-5-3.3-5.7-2.5-.7-5.1.8-5.7 3.3m3.6-15.6c-.7 2.7.9 5.6 3.6 6.3 2.7.7 5.6-.9 6.3-3.6.7-2.7-.9-5.6-3.6-6.3-2.8-.8-5.6.8-6.3 3.6m3.7-15.6c-.8 3 1 6 4 6.8 3 .8 6-1 6.8-4 .8-3-1-6-4-6.8-2.9-.8-6 1-6.8 4m3.7-15.6c-.9 3.2 1 6.5 4.3 7.4 3.2.9 6.5-1 7.4-4.3.9-3.2-1-6.5-4.3-7.4-3.2-.8-6.5 1.1-7.4 4.3m3.8-15.5c-.9 3.4 1.1 7 4.6 7.9 3.4.9 7-1.1 7.9-4.5.9-3.4-1.1-7-4.6-7.9s-7 1-7.9 4.5m3.7-15.6c-1 3.6 1.2 7.4 4.8 8.4 3.6 1 7.4-1.2 8.4-4.8 1-3.6-1.2-7.4-4.8-8.4-3.7-1-7.4 1.2-8.4 4.8m3.8-15.5c-1 3.8 1.2 7.8 5.1 8.8 3.8 1 7.8-1.3 8.8-5.1 1-3.8-1.3-7.8-5.1-8.8-3.8-1.1-7.8 1.2-8.8 5.1m3.8-15.6c-1.1 4 1.3 8.2 5.4 9.3 4 1.1 8.2-1.3 9.3-5.4s-1.3-8.2-5.4-9.3c-4.1-1.1-8.3 1.4-9.3 5.4m3.8-15.5c-1.1 4.2 1.4 8.6 5.6 9.7 4.2 1.1 8.6-1.4 9.7-5.6 1.1-4.2-1.4-8.6-5.6-9.7-4.3-1.2-8.6 1.3-9.7 5.6" class="mega-300x600-bg-1"/>
  <path d="M93.1 326.1c-1.2 4.4 1.4 8.9 5.8 10.1 4.4 1.2 8.9-1.4 10.1-5.8 1.2-4.4-1.4-8.9-5.8-10.1-4.4-1.2-8.9 1.4-10.1 5.8" class="mega-300x600-bg-1"/>
  <path d="M97 310.6c-1.2 4.5 1.5 9.2 6 10.4 4.5 1.2 9.2-1.5 10.4-6s-1.5-9.2-6-10.4-9.2 1.4-10.4 6" class="mega-300x600-bg-1"/>
  <path d="M100.9 295.1c-1.2 4.6 1.5 9.4 6.2 10.7 4.6 1.2 9.4-1.5 10.6-6.2 1.2-4.6-1.5-9.4-6.2-10.6-4.6-1.3-9.3 1.5-10.6 6.1" class="mega-300x600-bg-1"/>
  <path d="M105.1 279.6c-1.2 4.6 1.5 9.4 6.1 10.6 4.6 1.2 9.4-1.5 10.6-6.1 1.2-4.6-1.5-9.4-6.1-10.6-4.6-1.2-9.3 1.5-10.6 6.1" class="mega-300x600-bg-1"/>
  <path d="M109.4 264.2c-1.2 4.5 1.5 9.2 6 10.4 4.5 1.2 9.2-1.5 10.4-6 1.2-4.5-1.5-9.2-6-10.4-4.5-1.2-9.2 1.5-10.4 6" class="mega-300x600-bg-1"/>
  <path d="M113.8 248.9c-1.2 4.4 1.4 8.9 5.8 10.1 4.4 1.2 8.9-1.4 10-5.8 1.2-4.4-1.4-8.9-5.8-10.1-4.3-1.2-8.8 1.4-10 5.8" class="mega-300x600-bg-1"/>
  <path d="M118.3 233.5c-1.1 4.2 1.4 8.5 5.6 9.6 4.2 1.1 8.5-1.4 9.6-5.6 1.1-4.2-1.4-8.5-5.6-9.6-4.2-1.1-8.5 1.4-9.6 5.6m4.4-15.4c-1.1 4 1.3 8.2 5.3 9.2 4 1.1 8.2-1.3 9.2-5.3 1.1-4-1.3-8.2-5.3-9.2-3.9-1.1-8.1 1.3-9.2 5.3m4.6-15.3c-1 3.8 1.2 7.7 5.1 8.7 3.8 1 7.7-1.2 8.7-5.1 1-3.8-1.2-7.7-5.1-8.8-3.8-.9-7.7 1.3-8.7 5.2m4.4-15.4c-1 3.6 1.2 7.3 4.8 8.3 3.6 1 7.3-1.2 8.3-4.8 1-3.6-1.2-7.3-4.8-8.3-3.6-1-7.3 1.2-8.3 4.8m4.6-15.4c-.9 3.4 1.1 6.9 4.5 7.8 3.4.9 6.9-1.1 7.8-4.5.9-3.4-1.1-6.9-4.5-7.8-3.4-.9-6.9 1.1-7.8 4.5m4.5-15.3c-.9 3.2 1 6.5 4.2 7.3 3.2.9 6.5-1 7.3-4.2.9-3.2-1-6.5-4.2-7.3-3.2-.9-6.5 1-7.3 4.2m4.6-15.4c-.8 3 1 6 3.9 6.8 3 .8 6-1 6.8-3.9.8-3-1-6-3.9-6.8-3-.8-6.1 1-6.8 3.9m4.5-15.3c-.7 2.7.9 5.5 3.6 6.2 2.7.7 5.5-.9 6.2-3.6.7-2.7-.9-5.5-3.6-6.2-2.7-.7-5.5.9-6.2 3.6m4.7-15.3c-.7 2.4.8 4.9 3.2 5.6 2.4.7 4.9-.8 5.6-3.2.7-2.4-.8-4.9-3.2-5.6-2.5-.7-5 .8-5.6 3.2m4.7-15.3c-.6 2.1.7 4.3 2.8 4.9 2.1.6 4.3-.7 4.9-2.8.6-2.1-.7-4.3-2.8-4.9-2.2-.6-4.4.7-4.9 2.8m4.7-15.3c-.5 1.8.6 3.7 2.4 4.2 1.8.5 3.7-.6 4.2-2.4.5-1.8-.6-3.7-2.4-4.2-1.9-.5-3.8.6-4.2 2.4m4.7-15.3c-.4 1.5.5 3 1.9 3.4 1.5.4 3-.5 3.4-1.9.4-1.5-.5-3-1.9-3.4-1.5-.4-3 .4-3.4 1.9m4.9-15.3c-.3 1.1.4 2.2 1.4 2.5 1.1.3 2.2-.4 2.5-1.4.3-1.1-.4-2.2-1.4-2.5-1.1-.3-2.2.3-2.5 1.4m4.8-15.3c-.2.7.2 1.4.9 1.6.7.2 1.4-.2 1.6-.9.2-.7-.2-1.4-.9-1.6-.7-.2-1.4.2-1.6.9m4.9-15.2c-.1.3.1.6.4.7.3.1.6-.1.7-.4.1-.3-.1-.6-.4-.7-.3-.1-.7.1-.7.4M53.8 564c-.1.4.1.8.5.9.4.1.8-.1.9-.5.1-.4-.1-.8-.5-.9-.4-.1-.8.2-.9.5m3.3-15.6c-.2.8.3 1.6 1.1 1.8.8.2 1.6-.3 1.8-1.1s-.3-1.6-1.1-1.8c-.7-.2-1.5.3-1.8 1.1m3.5-15.7c-.3 1.2.4 2.4 1.6 2.7 1.2.3 2.4-.4 2.7-1.6.3-1.2-.4-2.4-1.6-2.7-1.2-.2-2.4.5-2.7 1.6m3.5-15.6c-.4 1.5.5 3.1 2 3.5s3.1-.5 3.5-2c.4-1.5-.5-3.1-2-3.5-1.5-.4-3.1.5-3.5 2m3.4-15.6c-.5 1.9.6 3.9 2.5 4.4 1.9.5 3.9-.6 4.4-2.5.5-1.9-.6-3.9-2.5-4.4-1.9-.6-3.9.6-4.4 2.5m3.6-15.6c-.6 2.2.7 4.5 3 5.1 2.2.6 4.5-.7 5.1-2.9.6-2.2-.7-4.5-2.9-5.1-2.3-.7-4.6.6-5.2 2.9m3.6-15.6c-.7 2.5.8 5.1 3.4 5.8 2.5.7 5.1-.8 5.8-3.4.7-2.5-.8-5.1-3.4-5.8-2.5-.7-5.1.8-5.8 3.4m3.7-15.6c-.7 2.8.9 5.6 3.7 6.4 2.8.7 5.6-.9 6.4-3.7s-.9-5.6-3.7-6.4c-2.8-.7-5.7.9-6.4 3.7m3.7-15.6c-.8 3 1 6.1 4 7 3 .8 6.1-1 7-4 .8-3-1-6.1-4-7-3.1-.8-6.2 1-7 4m3.7-15.6c-.9 3.3 1.1 6.6 4.3 7.5 3.3.9 6.6-1.1 7.5-4.3.9-3.3-1.1-6.6-4.3-7.5-3.3-.9-6.6 1.1-7.5 4.3m3.7-15.5c-.9 3.5 1.1 7.1 4.6 8 3.5.9 7.1-1.1 8-4.6.9-3.5-1.1-7.1-4.6-8-3.5-1-7 1.1-8 4.6m3.7-15.6c-1 3.7 1.2 7.5 4.9 8.5s7.5-1.2 8.5-4.9-1.2-7.5-4.9-8.5c-3.6-1-7.5 1.2-8.5 4.9m3.8-15.5c-1 3.9 1.3 7.9 5.2 9 3.9 1 7.9-1.3 9-5.2 1-3.9-1.3-7.9-5.2-9-3.9-1.1-7.9 1.3-9 5.2m3.8-15.6c-1.1 4.1 1.3 8.3 5.5 9.5 4.1 1.1 8.4-1.3 9.5-5.5 1.1-4.1-1.3-8.4-5.5-9.5-4.2-1.1-8.4 1.4-9.5 5.5m3.8-15.5c-1.2 4.3 1.4 8.7 5.7 9.9 4.3 1.2 8.7-1.4 9.9-5.7 1.2-4.3-1.4-8.7-5.7-9.9-4.3-1.2-8.8 1.3-9.9 5.7" class="mega-300x600-bg-1"/>
  <path d="M108.3 330.2c-1.2 4.5 1.5 9.2 6 10.4 4.5 1.2 9.2-1.5 10.4-6 1.2-4.5-1.5-9.2-6-10.4-4.5-1.3-9.2 1.4-10.4 6" class="mega-300x600-bg-1"/>
  <path d="M112.1 314.6c-1.3 4.7 1.5 9.6 6.3 10.9 4.7 1.3 9.6-1.5 10.9-6.3 1.3-4.7-1.5-9.6-6.3-10.9-4.8-1.2-9.6 1.6-10.9 6.3" class="mega-300x600-bg-1"/>
  <path d="M116 299.1c-1.3 4.9 1.6 9.9 6.5 11.2 4.9 1.3 9.9-1.6 11.2-6.5 1.3-4.9-1.6-9.9-6.5-11.2-4.9-1.3-9.9 1.6-11.2 6.5" class="mega-300x600-bg-1"/>
  <path d="M120.1 283.7c-1.3 4.9 1.6 9.9 6.5 11.2 4.9 1.3 9.9-1.6 11.2-6.5 1.3-4.9-1.6-9.9-6.5-11.2-4.9-1.3-9.9 1.6-11.2 6.5" class="mega-300x600-bg-1"/>
  <path d="M124.5 268.3c-1.3 4.7 1.5 9.6 6.3 10.9 4.7 1.3 9.6-1.5 10.9-6.3 1.3-4.7-1.5-9.6-6.3-10.9-4.8-1.3-9.6 1.5-10.9 6.3" class="mega-300x600-bg-1"/>
  <path d="M129 252.9c-1.2 4.5 1.5 9.2 6 10.4 4.5 1.2 9.2-1.5 10.4-6 1.2-4.5-1.5-9.2-6-10.4-4.5-1.2-9.2 1.5-10.4 6" class="mega-300x600-bg-1"/>
  <path d="M133.5 237.6c-1.2 4.3 1.4 8.7 5.7 9.9 4.3 1.2 8.7-1.4 9.9-5.7 1.2-4.3-1.4-8.7-5.7-9.9-4.3-1.2-8.7 1.4-9.9 5.7m4.6-15.4c-1.1 4.1 1.3 8.3 5.4 9.4 4.1 1.1 8.3-1.3 9.4-5.4 1.1-4.1-1.3-8.3-5.4-9.4-4.1-1.1-8.3 1.3-9.4 5.4m4.4-15.4c-1 3.9 1.3 7.9 5.2 9 3.9 1 7.9-1.3 9-5.2 1-3.9-1.3-7.9-5.2-9-3.9-1-7.9 1.3-9 5.2m4.6-15.3c-1 3.7 1.2 7.4 4.9 8.4s7.4-1.2 8.4-4.9-1.2-7.4-4.9-8.4c-3.6-.9-7.4 1.2-8.4 4.9m4.5-15.4c-.9 3.5 1.1 7.1 4.6 8 3.5.9 7.1-1.1 8-4.6.9-3.5-1.1-7.1-4.6-8-3.5-.9-7.1 1.2-8 4.6m4.6-15.3c-.9 3.2 1.1 6.6 4.3 7.4 3.2.9 6.6-1.1 7.4-4.3.9-3.2-1.1-6.6-4.3-7.4-3.2-.9-6.6 1.1-7.4 4.3m4.6-15.3c-.8 3 1 6 4 6.8 3 .8 6-1 6.8-4 .8-3-1-6-4-6.8-3-.8-6 1-6.8 4m4.5-15.4c-.7 2.7.9 5.6 3.6 6.3 2.7.7 5.6-.9 6.3-3.6.7-2.7-.9-5.6-3.6-6.3-2.7-.7-5.5.9-6.3 3.6m4.6-15.3c-.7 2.5.8 5 3.3 5.7 2.5.7 5-.8 5.7-3.3.7-2.5-.8-5-3.3-5.7-2.4-.7-5 .8-5.7 3.3m4.7-15.3c-.6 2.2.7 4.4 2.9 5 2.2.6 4.4-.7 5-2.9.6-2.2-.7-4.4-2.9-5-2.1-.6-4.4.7-5 2.9m4.7-15.3c-.5 1.9.6 3.8 2.5 4.3s3.8-.6 4.3-2.5-.6-3.8-2.5-4.3-3.8.6-4.3 2.5m4.8-15.3c-.4 1.5.5 3.1 2 3.5 1.5.4 3.1-.5 3.5-2 .4-1.5-.5-3.1-2-3.5-1.5-.5-3.1.5-3.5 2m4.8-15.3c-.3 1.1.4 2.3 1.5 2.6 1.1.3 2.3-.4 2.6-1.5.3-1.1-.4-2.3-1.5-2.6-1.1-.3-2.3.4-2.6 1.5m4.9-15.2c-.2.7.2 1.5 1 1.7.7.2 1.5-.2 1.7-1 .2-.7-.2-1.5-1-1.7-.8-.2-1.5.2-1.7 1m4.8-15.3c-.1.4.1.8.5.9.4.1.8-.1.9-.5.1-.4-.1-.8-.5-.9-.4-.1-.8.1-.9.5M69.2 568.2c-.1.4.1.8.5.9.4.1.8-.1.9-.5.1-.4-.1-.8-.5-.9-.4-.2-.8.1-.9.5m3.3-15.7c-.2.8.3 1.7 1.1 1.9.8.2 1.7-.3 1.9-1.1.2-.8-.3-1.7-1.1-1.9-.8-.2-1.6.3-1.9 1.1m3.5-15.6c-.3 1.2.4 2.4 1.6 2.7 1.2.3 2.4-.4 2.7-1.6.3-1.2-.4-2.4-1.6-2.7-1.1-.3-2.3.4-2.7 1.6m3.5-15.7c-.4 1.6.5 3.2 2.1 3.6 1.6.4 3.2-.5 3.6-2.1.4-1.6-.5-3.2-2.1-3.6-1.6-.4-3.2.6-3.6 2.1m3.4-15.6c-.5 1.9.6 3.9 2.6 4.5 1.9.5 3.9-.6 4.5-2.6.5-1.9-.6-3.9-2.6-4.5-1.9-.5-3.9.7-4.5 2.6m3.6-15.6c-.6 2.2.7 4.6 3 5.2 2.2.6 4.6-.7 5.2-3 .6-2.2-.7-4.6-3-5.2-2.3-.6-4.6.7-5.2 3m3.6-15.6c-.7 2.6.8 5.2 3.4 5.9s5.2-.8 5.9-3.4c.7-2.6-.8-5.2-3.4-5.9-2.6-.7-5.2.8-5.9 3.4m3.7-15.6c-.7 2.8.9 5.7 3.7 6.4 2.8.7 5.7-.9 6.4-3.7.7-2.8-.9-5.7-3.7-6.4-2.8-.7-5.6.9-6.4 3.7m3.7-15.6c-.8 3.1 1 6.2 4 7 3.1.8 6.2-1 7-4 .8-3.1-1-6.2-4-7-3.1-.8-6.2 1-7 4m3.7-15.5c-.9 3.3 1.1 6.7 4.4 7.6 3.3.9 6.7-1.1 7.6-4.4.9-3.3-1.1-6.7-4.4-7.6-3.3-.9-6.7 1.1-7.6 4.4m3.7-15.6c-.9 3.5 1.1 7.2 4.7 8.1 3.5.9 7.2-1.2 8.1-4.7.9-3.5-1.2-7.2-4.7-8.1-3.5-.9-7.2 1.2-8.1 4.7m3.8-15.6c-1 3.7 1.2 7.6 5 8.6 3.7 1 7.6-1.2 8.6-5 1-3.7-1.2-7.6-5-8.6-3.8-.9-7.6 1.3-8.6 5m3.7-15.5c-1.1 3.9 1.3 8 5.2 9 3.9 1.1 8-1.3 9-5.2 1.1-3.9-1.3-8-5.2-9-3.9-1.1-7.9 1.3-9 5.2m3.8-15.6c-1.1 4.2 1.4 8.4 5.5 9.6 4.2 1.1 8.4-1.4 9.6-5.5 1.1-4.2-1.4-8.4-5.5-9.6-4.2-1.1-8.5 1.3-9.6 5.5" class="mega-300x600-bg-1"/>
  <path d="M119.9 349.8c-1.2 4.4 1.4 8.9 5.8 10.1 4.4 1.2 8.9-1.4 10.1-5.8 1.2-4.4-1.4-8.9-5.8-10.1-4.4-1.2-9 1.4-10.1 5.8" class="mega-300x600-bg-1"/>
  <path d="M123.6 334.3c-1.2 4.6 1.5 9.4 6.2 10.6 4.6 1.2 9.4-1.5 10.6-6.1 1.2-4.6-1.5-9.4-6.2-10.7-4.6-1.2-9.4 1.5-10.6 6.2" class="mega-300x600-bg-1"/>
  <path d="M127.3 318.7c-1.3 4.9 1.6 9.9 6.5 11.2 4.9 1.3 9.9-1.6 11.2-6.5 1.3-4.9-1.6-9.9-6.5-11.2-4.9-1.3-9.9 1.6-11.2 6.5" class="mega-300x600-bg-1"/>
  <path d="M131 303.1c-1.4 5.1 1.7 10.3 6.7 11.7 5.1 1.4 10.3-1.7 11.7-6.7 1.4-5.1-1.7-10.3-6.7-11.7-5.1-1.4-10.3 1.7-11.7 6.7" class="mega-300x600-bg-1"/>
  <path d="M135.2 287.7c-1.4 5.1 1.7 10.3 6.7 11.6 5.1 1.4 10.3-1.7 11.6-6.7 1.4-5.1-1.7-10.3-6.7-11.6-5-1.4-10.2 1.6-11.6 6.7" class="mega-300x600-bg-1"/>
  <path d="M139.7 272.4c-1.3 4.9 1.6 9.8 6.4 11.1 4.9 1.3 9.8-1.6 11.1-6.4s-1.6-9.8-6.4-11.1c-4.8-1.4-9.8 1.5-11.1 6.4" class="mega-300x600-bg-1"/>
  <path d="M144.3 257c-1.2 4.6 1.5 9.3 6.1 10.5 4.6 1.2 9.3-1.5 10.5-6.1 1.2-4.6-1.5-9.3-6.1-10.5-4.5-1.2-9.2 1.5-10.5 6.1" class="mega-300x600-bg-1"/>
  <path d="M148.9 241.7c-1.2 4.4 1.4 8.9 5.8 10.1 4.4 1.2 8.9-1.4 10-5.8 1.2-4.4-1.4-8.9-5.8-10.1-4.4-1.2-8.9 1.4-10 5.8m4.5-15.4c-1.1 4.1 1.3 8.4 5.5 9.5s8.4-1.4 9.5-5.5c1.1-4.1-1.3-8.4-5.5-9.5-4.1-1.1-8.4 1.4-9.5 5.5M158 211c-1.1 3.9 1.3 8 5.2 9 3.9 1.1 8-1.3 9-5.2 1-3.9-1.3-8-5.2-9-4-1.1-8 1.2-9 5.2m4.5-15.4c-1 3.7 1.2 7.5 4.9 8.5s7.5-1.2 8.5-4.9-1.2-7.5-4.9-8.5-7.5 1.2-8.5 4.9m4.5-15.3c-.9 3.5 1.1 7.1 4.6 8 3.5.9 7.1-1.1 8-4.6.9-3.5-1.1-7.1-4.6-8-3.4-1-7 1.1-8 4.6m4.6-15.4c-.9 3.3 1.1 6.6 4.3 7.5 3.3.9 6.6-1.1 7.5-4.3.9-3.3-1.1-6.6-4.3-7.5-3.3-.9-6.7 1.1-7.5 4.3m4.5-15.3c-.8 3 1 6.1 4 7 3 .8 6.1-1 7-4 .8-3-1-6.1-4-7-3-.8-6.2 1-7 4m4.6-15.3c-.7 2.8.9 5.6 3.7 6.4 2.8.7 5.6-.9 6.4-3.7.7-2.8-.9-5.6-3.7-6.4-2.8-.8-5.6.9-6.4 3.7m4.7-15.4c-.7 2.5.8 5.1 3.3 5.8 2.5.7 5.1-.8 5.8-3.3.7-2.5-.8-5.1-3.3-5.8-2.6-.7-5.2.8-5.8 3.3m4.7-15.3c-.6 2.2.7 4.5 2.9 5.1 2.2.6 4.5-.7 5.1-2.9.6-2.2-.7-4.5-2.9-5.1-2.3-.6-4.6.7-5.1 2.9m4.6-15.3c-.5 1.9.6 3.9 2.5 4.4 1.9.5 3.9-.6 4.4-2.5.5-1.9-.6-3.9-2.5-4.4-1.9-.6-3.9.6-4.4 2.5m4.8-15.3c-.4 1.5.5 3.1 2 3.5 1.5.4 3.1-.5 3.5-2 .4-1.5-.5-3.1-2-3.5-1.5-.4-3.1.5-3.5 2m4.8-15.2c-.3 1.2.4 2.4 1.5 2.7 1.2.3 2.4-.4 2.7-1.5.3-1.2-.4-2.4-1.5-2.7-1.2-.4-2.3.3-2.7 1.5m4.9-15.3c-.2.8.3 1.6 1 1.8.8.2 1.6-.3 1.8-1 .2-.8-.3-1.6-1-1.8-.8-.3-1.6.2-1.8 1m4.8-15.3c-.1.4.1.8.5.9.4.1.8-.1.9-.5.1-.4-.1-.8-.5-.9-.4-.1-.8.1-.9.5M84.6 572.3c-.1.4.1.8.5.9.4.1.8-.1.9-.5.1-.4-.1-.8-.5-.9-.3-.1-.8.1-.9.5m3.4-15.7c-.2.8.3 1.7 1.1 1.9.8.2 1.7-.3 1.9-1.1.2-.8-.3-1.7-1.1-1.9-.8-.2-1.7.3-1.9 1.1m3.5-15.6c-.3 1.2.4 2.4 1.6 2.7 1.2.3 2.4-.4 2.7-1.6.3-1.2-.4-2.4-1.6-2.7-1.2-.3-2.4.4-2.7 1.6m3.4-15.6c-.4 1.6.5 3.2 2.1 3.6 1.6.4 3.2-.5 3.6-2.1.4-1.6-.5-3.2-2.1-3.6-1.5-.4-3.1.5-3.6 2.1m3.5-15.7c-.5 1.9.6 3.9 2.6 4.5 1.9.5 3.9-.6 4.5-2.6.5-1.9-.6-3.9-2.6-4.5-2-.5-4 .7-4.5 2.6m3.6-15.6c-.6 2.2.7 4.6 3 5.2 2.2.6 4.6-.7 5.2-3 .6-2.2-.7-4.6-3-5.2-2.3-.6-4.6.8-5.2 3m3.6-15.6c-.7 2.6.8 5.2 3.4 5.9s5.2-.8 5.9-3.4c.7-2.6-.8-5.2-3.4-5.9-2.6-.6-5.3.9-5.9 3.4m3.7-15.5c-.7 2.8.9 5.7 3.7 6.4 2.8.7 5.7-.9 6.4-3.7.7-2.8-.9-5.7-3.7-6.4-2.8-.8-5.7.9-6.4 3.7m3.6-15.6c-.8 3.1 1 6.2 4 7 3.1.8 6.2-1 7-4 .8-3.1-1-6.2-4-7-3-.9-6.1.9-7 4m3.7-15.6c-.9 3.3 1.1 6.7 4.4 7.6 3.3.9 6.7-1.1 7.6-4.4.9-3.3-1.1-6.7-4.4-7.6-3.3-.8-6.7 1.1-7.6 4.4m3.8-15.6c-.9 3.5 1.1 7.2 4.7 8.1 3.5.9 7.2-1.1 8.1-4.7.9-3.5-1.1-7.2-4.7-8.1-3.6-.9-7.2 1.2-8.1 4.7m3.7-15.5c-1 3.7 1.2 7.6 5 8.6 3.7 1 7.6-1.2 8.6-5 1-3.7-1.2-7.6-5-8.6-3.7-1-7.6 1.2-8.6 5m3.8-15.6c-1.1 3.9 1.3 8 5.2 9 3.9 1.1 8-1.3 9-5.2 1.1-3.9-1.3-8-5.2-9-3.9-1-7.9 1.3-9 5.2m3.7-15.5c-1.1 4.2 1.4 8.4 5.5 9.6 4.2 1.1 8.4-1.4 9.6-5.5 1.1-4.2-1.4-8.4-5.5-9.6-4.2-1.2-8.5 1.3-9.6 5.5" class="mega-300x600-bg-1"/>
  <path d="M135.3 354c-1.2 4.4 1.4 8.9 5.8 10.1 4.4 1.2 8.9-1.4 10.1-5.8 1.2-4.4-1.4-8.9-5.8-10.1-4.4-1.2-8.9 1.4-10.1 5.8" class="mega-300x600-bg-1"/>
  <path d="M139.1 338.4c-1.2 4.6 1.5 9.4 6.1 10.6 4.6 1.2 9.4-1.5 10.6-6.1 1.2-4.6-1.5-9.4-6.1-10.6-4.6-1.2-9.4 1.5-10.6 6.1" class="mega-300x600-bg-1"/>
  <path d="M142.7 322.8c-1.3 4.9 1.6 9.9 6.5 11.2 4.9 1.3 9.9-1.6 11.2-6.5 1.3-4.9-1.6-9.9-6.5-11.2-4.8-1.2-9.9 1.7-11.2 6.5" class="mega-300x600-bg-1"/>
  <path d="M146.5 307.3c-1.4 5.1 1.7 10.3 6.7 11.6 5.1 1.4 10.3-1.7 11.6-6.7 1.4-5.1-1.7-10.3-6.7-11.6-5-1.4-10.2 1.6-11.6 6.7" class="mega-300x600-bg-1"/>
  <path d="M150.7 291.9c-1.3 5 1.6 10.2 6.7 11.6 5 1.3 10.2-1.6 11.6-6.7 1.4-5-1.6-10.2-6.7-11.6-5.1-1.4-10.2 1.6-11.6 6.7" class="mega-300x600-bg-1"/>
  <path d="M155.2 276.5c-1.3 4.8 1.6 9.8 6.4 11.1s9.8-1.6 11.1-6.4c1.3-4.8-1.6-9.8-6.4-11.1-4.8-1.3-9.8 1.6-11.1 6.4" class="mega-300x600-bg-1"/>
  <path d="M159.8 261.2c-1.2 4.6 1.5 9.3 6.1 10.5 4.6 1.2 9.3-1.5 10.5-6.1 1.2-4.6-1.5-9.3-6.1-10.5-4.6-1.3-9.3 1.5-10.5 6.1" class="mega-300x600-bg-1"/>
  <path d="M164.4 245.8c-1.2 4.4 1.4 8.8 5.8 10 4.4 1.2 8.8-1.4 10-5.8 1.2-4.4-1.4-8.8-5.8-10-4.4-1.1-8.9 1.5-10 5.8m4.5-15.3c-1.1 4.1 1.4 8.4 5.5 9.5s8.4-1.3 9.5-5.5c1.1-4.1-1.3-8.4-5.5-9.5-4.1-1.1-8.4 1.3-9.5 5.5m4.5-15.4c-1.1 3.9 1.3 8 5.2 9 3.9 1.1 8-1.3 9-5.2 1-3.9-1.3-8-5.2-9-3.9-1-7.9 1.3-9 5.2m4.5-15.3c-1 3.7 1.2 7.5 4.9 8.5s7.5-1.2 8.5-4.9-1.2-7.5-4.9-8.5c-3.7-1.1-7.5 1.1-8.5 4.9m4.6-15.4c-.9 3.5 1.1 7.1 4.6 8 3.5.9 7.1-1.1 8-4.6.9-3.5-1.1-7.1-4.6-8-3.5-.9-7.1 1.1-8 4.6m4.5-15.3c-.9 3.3 1.1 6.6 4.3 7.5 3.3.9 6.6-1.1 7.5-4.3.9-3.3-1.1-6.6-4.3-7.5-3.2-.9-6.6 1-7.5 4.3m4.6-15.4c-.8 3 1 6.1 4 7 3 .8 6.1-1 7-4 .8-3-1-6.1-4-7-3.1-.8-6.2 1-7 4m4.6-15.3c-.7 2.8.9 5.6 3.7 6.4 2.8.7 5.6-.9 6.4-3.7.7-2.8-.9-5.6-3.7-6.4-2.8-.7-5.7.9-6.4 3.7m4.6-15.3c-.7 2.5.8 5.1 3.3 5.8 2.5.7 5.1-.8 5.8-3.3.7-2.5-.8-5.1-3.3-5.8-2.5-.7-5.1.8-5.8 3.3m4.7-15.3c-.6 2.2.7 4.5 2.9 5.1 2.2.6 4.5-.7 5.1-2.9.6-2.2-.7-4.5-2.9-5.1-2.2-.6-4.5.7-5.1 2.9m4.7-15.4c-.5 1.9.6 3.9 2.5 4.4 1.9.5 3.9-.6 4.4-2.5.5-1.9-.6-3.9-2.5-4.4-2-.5-3.9.6-4.4 2.5m4.8-15.2c-.4 1.5.5 3.1 2 3.5 1.5.4 3.1-.5 3.5-2s-.5-3.1-2-3.5c-1.5-.5-3.1.4-3.5 2m4.8-15.3c-.3 1.2.4 2.4 1.5 2.7 1.2.3 2.4-.4 2.7-1.5.3-1.2-.4-2.4-1.5-2.7-1.2-.3-2.4.3-2.7 1.5m4.8-15.3c-.2.8.3 1.6 1 1.8.8.2 1.6-.3 1.8-1 .2-.8-.3-1.6-1-1.8-.8-.2-1.6.2-1.8 1m4.9-15.2c-.1.4.1.8.5.9.4.1.8-.1.9-.5.1-.4-.1-.8-.5-.9-.4-.1-.8.1-.9.5M100.1 576.5c-.1.4.1.8.5.9.4.1.8-.1.9-.5.1-.4-.1-.8-.5-.9-.4-.1-.8.1-.9.5m3.4-15.7c-.2.8.3 1.6 1.1 1.8.8.2 1.6-.3 1.8-1.1.2-.8-.3-1.6-1.1-1.8s-1.6.3-1.8 1.1m3.5-15.6c-.3 1.2.4 2.4 1.5 2.7 1.2.3 2.4-.4 2.7-1.5.3-1.2-.4-2.4-1.5-2.7-1.2-.4-2.4.3-2.7 1.5m3.4-15.7c-.4 1.5.5 3.1 2 3.5 1.5.4 3.1-.5 3.5-2 .4-1.5-.5-3.1-2-3.5-1.5-.4-3 .5-3.5 2m3.5-15.6c-.5 1.9.6 3.9 2.5 4.4 1.9.5 3.9-.6 4.4-2.5.5-1.9-.6-3.9-2.5-4.4-1.9-.6-3.9.6-4.4 2.5m3.6-15.6c-.6 2.2.7 4.5 3 5.1 2.2.6 4.5-.7 5.1-2.9.6-2.2-.7-4.5-2.9-5.1s-4.6.7-5.2 2.9m3.6-15.6c-.7 2.5.8 5.1 3.3 5.8 2.5.7 5.1-.8 5.8-3.3.7-2.5-.8-5.1-3.3-5.8-2.5-.7-5.1.8-5.8 3.3m3.7-15.6c-.7 2.8.9 5.6 3.7 6.4 2.8.7 5.6-.9 6.4-3.7.7-2.8-.9-5.6-3.7-6.4-2.8-.7-5.7.9-6.4 3.7m3.6-15.6c-.8 3 1 6.1 4 7 3 .8 6.1-1 7-4 .8-3-1-6.1-4-7-3-.8-6.2 1-7 4m3.8-15.5c-.9 3.2 1.1 6.6 4.3 7.4 3.2.9 6.6-1.1 7.4-4.3.9-3.2-1.1-6.6-4.3-7.4-3.2-.9-6.5 1-7.4 4.3m3.7-15.6c-.9 3.5 1.1 7.1 4.6 8 3.5.9 7.1-1.1 8-4.6.9-3.5-1.1-7.1-4.6-8-3.5-.9-7.1 1.1-8 4.6m3.7-15.6c-1 3.7 1.2 7.5 4.9 8.5s7.5-1.2 8.5-4.9-1.2-7.5-4.9-8.5c-3.7-.9-7.5 1.2-8.5 4.9m3.8-15.5c-1 3.9 1.3 7.9 5.2 9 3.9 1 7.9-1.3 9-5.2 1-3.9-1.3-7.9-5.2-9-3.9-1-8 1.3-9 5.2m3.8-15.6c-1.1 4.1 1.3 8.4 5.5 9.5 4.1 1.1 8.4-1.3 9.5-5.5 1.1-4.1-1.3-8.4-5.5-9.5-4.2-1-8.4 1.4-9.5 5.5m3.7-15.5c-1.2 4.3 1.4 8.7 5.7 9.9 4.3 1.2 8.7-1.4 9.9-5.7 1.2-4.3-1.4-8.7-5.7-9.9-4.3-1.2-8.7 1.4-9.9 5.7" class="mega-300x600-bg-1"/>
  <path d="M154.7 342.6c-1.2 4.5 1.5 9.2 6 10.4 4.5 1.2 9.2-1.5 10.4-6 1.2-4.5-1.5-9.2-6-10.4-4.5-1.2-9.2 1.5-10.4 6" class="mega-300x600-bg-1"/>
  <path d="M158.4 327.1c-1.3 4.7 1.5 9.6 6.3 10.9 4.7 1.3 9.6-1.5 10.9-6.3 1.3-4.7-1.5-9.6-6.3-10.9-4.7-1.3-9.6 1.5-10.9 6.3" class="mega-300x600-bg-1"/>
  <path d="M162.4 311.5c-1.3 4.9 1.6 9.8 6.4 11.1 4.9 1.3 9.8-1.6 11.1-6.4 1.3-4.9-1.6-9.8-6.4-11.1-4.8-1.3-9.8 1.6-11.1 6.4" class="mega-300x600-bg-1"/>
  <path d="M166.6 296.1c-1.3 4.8 1.6 9.8 6.4 11.1s9.8-1.6 11.1-6.4c1.3-4.8-1.6-9.8-6.4-11.1-4.9-1.3-9.9 1.6-11.1 6.4" class="mega-300x600-bg-1"/>
  <path d="M170.9 280.7c-1.3 4.7 1.5 9.6 6.2 10.8 4.7 1.3 9.5-1.5 10.8-6.2 1.3-4.7-1.5-9.6-6.2-10.8-4.7-1.3-9.5 1.5-10.8 6.2" class="mega-300x600-bg-1"/>
  <path d="M175.4 265.3c-1.2 4.5 1.5 9.2 6 10.4 4.5 1.2 9.2-1.5 10.4-6 1.2-4.5-1.5-9.2-6-10.4-4.6-1.2-9.2 1.5-10.4 6" class="mega-300x600-bg-1"/>
  <path d="M179.9 250c-1.2 4.3 1.4 8.7 5.7 9.9 4.3 1.2 8.7-1.4 9.9-5.7 1.2-4.3-1.4-8.7-5.7-9.9-4.3-1.2-8.7 1.4-9.9 5.7m4.5-15.4c-1.1 4.1 1.3 8.3 5.4 9.4 4.1 1.1 8.3-1.3 9.4-5.4 1.1-4.1-1.3-8.3-5.4-9.4-4.1-1.1-8.3 1.3-9.4 5.4m4.6-15.3c-1 3.9 1.3 7.9 5.1 8.9 3.9 1 7.9-1.3 8.9-5.2 1-3.9-1.3-7.9-5.1-8.9-3.9-1-7.9 1.3-8.9 5.2m4.5-15.4c-1 3.7 1.2 7.4 4.9 8.4s7.4-1.2 8.4-4.9-1.2-7.4-4.9-8.4c-3.7-.9-7.4 1.3-8.4 4.9m4.5-15.3c-.9 3.5 1.1 7 4.6 7.9 3.5.9 7-1.1 7.9-4.6.9-3.5-1.1-7-4.6-7.9-3.4-.9-7 1.1-7.9 4.6m4.5-15.4c-.9 3.2 1.1 6.6 4.3 7.4 3.2.9 6.6-1.1 7.4-4.3.9-3.2-1.1-6.6-4.3-7.4-3.2-.9-6.5 1.1-7.4 4.3m4.6-15.3c-.8 3 1 6 4 6.8 3 .8 6-1 6.8-4 .8-3-1-6-4-6.8-2.9-.8-6 1-6.8 4m4.6-15.4c-.7 2.7.9 5.6 3.6 6.3 2.7.7 5.6-.9 6.3-3.6.7-2.7-.9-5.6-3.6-6.3-2.7-.7-5.6.9-6.3 3.6m4.6-15.3c-.7 2.5.8 5 3.3 5.7 2.5.7 5-.8 5.7-3.3.7-2.5-.8-5-3.3-5.7-2.5-.6-5 .8-5.7 3.3m4.7-15.3c-.6 2.2.7 4.4 2.9 5 2.2.6 4.4-.7 5-2.9.6-2.2-.7-4.4-2.9-5-2.2-.6-4.4.7-5 2.9m4.7-15.3c-.5 1.8.6 3.7 2.4 4.2 1.8.5 3.7-.6 4.2-2.5.5-1.8-.6-3.7-2.4-4.2-1.8-.4-3.7.7-4.2 2.5m4.7-15.3c-.4 1.5.5 3.1 2 3.5 1.5.4 3.1-.5 3.5-2 .4-1.5-.5-3.1-2-3.5-1.5-.4-3.1.5-3.5 2m4.9-15.3c-.3 1.1.4 2.3 1.5 2.6 1.1.3 2.3-.4 2.6-1.5.3-1.1-.4-2.3-1.5-2.6-1.1-.3-2.3.4-2.6 1.5m4.9-15.2c-.2.7.2 1.5 1 1.7.7.2 1.5-.2 1.7-1 .2-.7-.2-1.5-1-1.7-.8-.2-1.5.2-1.7 1m4.8-15.3c-.1.3.1.7.4.8.3.1.7-.1.8-.4.1-.3-.1-.7-.4-.8-.3-.1-.7.1-.8.4M115.7 580.6c-.1.3.1.7.4.8.3.1.7-.1.8-.4.1-.3-.1-.7-.4-.8-.4-.1-.7.1-.8.4m3.4-15.6c-.2.7.2 1.5 1 1.7.7.2 1.5-.2 1.7-1 .2-.7-.2-1.5-1-1.7-.8-.2-1.5.2-1.7 1m3.4-15.7c-.3 1.1.4 2.3 1.5 2.6 1.1.3 2.3-.4 2.6-1.5.3-1.1-.4-2.3-1.5-2.6-1.1-.3-2.3.4-2.6 1.5m3.5-15.6c-.4 1.5.5 3 2 3.4 1.5.4 3-.5 3.4-2 .4-1.5-.5-3-2-3.4-1.5-.4-3 .5-3.4 2m3.5-15.6c-.5 1.8.6 3.7 2.4 4.2 1.8.5 3.7-.6 4.2-2.4.5-1.8-.6-3.7-2.4-4.2-1.8-.6-3.7.5-4.2 2.4m3.6-15.6c-.6 2.2.7 4.4 2.9 4.9 2.2.6 4.4-.7 4.9-2.9.6-2.2-.7-4.4-2.9-4.9-2.1-.6-4.4.7-4.9 2.9m3.5-15.7c-.7 2.5.8 5 3.3 5.7 2.5.7 5-.8 5.7-3.3.7-2.5-.8-5-3.3-5.7-2.5-.6-5 .9-5.7 3.3m3.7-15.5c-.7 2.7.9 5.5 3.6 6.2 2.7.7 5.5-.9 6.2-3.6.7-2.7-.9-5.5-3.6-6.2-2.7-.8-5.5.8-6.2 3.6m3.7-15.6c-.8 3 1 6 4 6.8 3 .8 6-1 6.8-4 .8-3-1-6-4-6.8-3-.8-6 1-6.8 4m3.7-15.6c-.9 3.2 1.1 6.5 4.3 7.4 3.2.9 6.5-1 7.4-4.3.9-3.2-1.1-6.5-4.3-7.4-3.2-.8-6.6 1.1-7.4 4.3m3.8-15.5c-.9 3.4 1.1 6.9 4.5 7.8 3.4.9 6.9-1.1 7.8-4.5.9-3.4-1.1-6.9-4.5-7.8-3.4-1-6.9 1.1-7.8 4.5m3.7-15.6c-1 3.6 1.2 7.4 4.8 8.4 3.6 1 7.4-1.2 8.4-4.8 1-3.6-1.2-7.4-4.8-8.4-3.7-1-7.4 1.1-8.4 4.8m3.8-15.6c-1 3.8 1.2 7.8 5.1 8.8 3.8 1 7.8-1.3 8.8-5.1 1-3.8-1.3-7.8-5.1-8.8-3.8-1-7.8 1.3-8.8 5.1m3.8-15.5c-1.1 4 1.3 8.2 5.3 9.2 4 1.1 8.2-1.3 9.2-5.3 1.1-4-1.3-8.2-5.3-9.2-4-1.1-8.1 1.3-9.2 5.3m3.8-15.5c-1.1 4.2 1.4 8.5 5.6 9.7 4.2 1.1 8.5-1.4 9.7-5.6 1.1-4.2-1.4-8.5-5.6-9.7-4.3-1.2-8.6 1.3-9.7 5.6" class="mega-300x600-bg-1"/>
  <path d="M170.4 346.8c-1.2 4.4 1.4 8.9 5.8 10.1 4.4 1.2 8.9-1.4 10.1-5.8 1.2-4.4-1.4-8.9-5.8-10.1-4.4-1.2-8.9 1.4-10.1 5.8" class="mega-300x600-bg-1"/>
  <path d="M174.3 331.3c-1.2 4.5 1.5 9.2 6 10.4 4.5 1.2 9.2-1.5 10.4-6 1.2-4.5-1.5-9.2-6-10.4-4.6-1.2-9.2 1.5-10.4 6" class="mega-300x600-bg-1"/>
  <path d="M178.3 315.8c-1.2 4.6 1.5 9.3 6.1 10.5 4.6 1.2 9.3-1.5 10.5-6.1 1.2-4.6-1.5-9.3-6.1-10.5-4.6-1.2-9.3 1.5-10.5 6.1" class="mega-300x600-bg-1"/>
  <path d="M182.4 300.3c-1.2 4.6 1.5 9.3 6.1 10.5 4.6 1.2 9.3-1.5 10.5-6.1 1.2-4.6-1.5-9.3-6.1-10.5-4.5-1.2-9.2 1.6-10.5 6.1" class="mega-300x600-bg-1"/>
  <path d="M186.7 284.9c-1.2 4.5 1.5 9.2 6 10.4 4.5 1.2 9.2-1.5 10.4-6 1.2-4.5-1.5-9.2-6-10.4-4.5-1.2-9.2 1.5-10.4 6" class="mega-300x600-bg-1"/>
  <path d="M191.1 269.5c-1.2 4.4 1.4 8.8 5.8 10 4.4 1.2 8.8-1.4 10-5.8 1.2-4.4-1.4-8.8-5.8-10-4.3-1.1-8.8 1.5-10 5.8" class="mega-300x600-bg-1"/>
  <path d="M195.6 254.2c-1.1 4.2 1.4 8.5 5.6 9.6 4.2 1.1 8.5-1.4 9.6-5.6 1.1-4.2-1.4-8.5-5.6-9.6-4.2-1.1-8.5 1.4-9.6 5.6m4.5-15.4c-1.1 4 1.3 8.1 5.3 9.2 4 1.1 8.1-1.3 9.2-5.3s-1.3-8.1-5.3-9.2c-4.1-1.1-8.2 1.3-9.2 5.3m4.4-15.4c-1 3.8 1.2 7.7 5.1 8.7 3.8 1 7.7-1.2 8.7-5.1 1-3.8-1.2-7.7-5-8.8-3.8-.8-7.7 1.4-8.8 5.2m4.5-15.3c-1 3.6 1.2 7.3 4.8 8.3 3.6 1 7.3-1.2 8.3-4.8 1-3.6-1.2-7.3-4.8-8.3-3.6-1-7.3 1.2-8.3 4.8m4.5-15.4c-.9 3.4 1.1 6.9 4.5 7.8 3.4.9 6.9-1.1 7.8-4.5.9-3.4-1.1-6.9-4.5-7.8-3.3-.9-6.8 1.1-7.8 4.5m4.6-15.3c-.9 3.2 1 6.5 4.2 7.3 3.2.9 6.5-1 7.3-4.2.9-3.2-1-6.5-4.2-7.3-3.2-.9-6.5 1-7.3 4.2m4.5-15.4c-.8 3 1 6 3.9 6.8 3 .8 6-1 6.8-3.9.8-3-1-6-3.9-6.8-2.9-.8-6 1-6.8 3.9m4.6-15.3c-.7 2.7.9 5.5 3.6 6.2 2.7.7 5.5-.9 6.2-3.6.7-2.7-.9-5.5-3.6-6.2-2.7-.7-5.5.9-6.2 3.6m4.7-15.3c-.7 2.4.8 4.9 3.2 5.6 2.4.7 4.9-.8 5.6-3.2.7-2.4-.8-4.9-3.2-5.6-2.5-.7-5 .7-5.6 3.2m4.6-15.3c-.6 2.1.7 4.3 2.8 4.9 2.1.6 4.3-.7 4.9-2.8.6-2.1-.7-4.3-2.8-4.9-2.1-.6-4.3.6-4.9 2.8m4.8-15.3c-.5 1.8.6 3.6 2.4 4.1 1.8.5 3.6-.6 4.1-2.4.5-1.8-.6-3.7-2.4-4.1-1.8-.5-3.6.6-4.1 2.4m4.7-15.3c-.4 1.5.5 3 1.9 3.4 1.5.4 3-.5 3.4-1.9.4-1.5-.5-3-1.9-3.4-1.5-.5-3 .4-3.4 1.9m4.8-15.3c-.3 1.1.4 2.2 1.4 2.5 1.1.3 2.2-.4 2.5-1.4.3-1.1-.4-2.2-1.4-2.5-1-.3-2.2.3-2.5 1.4m5-15.2c-.2.7.2 1.3.9 1.5.7.2 1.3-.2 1.5-.9.2-.7-.2-1.3-.9-1.5-.7-.2-1.4.2-1.5.9m4.7-15.3c-.1.3.1.6.4.7.3.1.6-.1.7-.4.1-.3-.1-.6-.4-.7-.3-.1-.6.1-.7.4M131.3 584.8c-.1.3.1.5.3.6.3.1.5-.1.6-.3.1-.3-.1-.5-.3-.6-.3-.1-.6 0-.6.3m3.4-15.7c-.2.6.2 1.3.8 1.5.6.2 1.3-.2 1.5-.8.2-.6-.2-1.3-.8-1.5-.7-.2-1.3.2-1.5.8m3.4-15.6c-.3 1.1.3 2.2 1.4 2.4 1.1.3 2.2-.3 2.4-1.4.3-1.1-.3-2.2-1.4-2.4-1-.3-2.1.3-2.4 1.4m3.5-15.6c-.4 1.4.5 2.9 1.9 3.3s2.9-.5 3.3-1.9c.4-1.4-.5-2.9-1.9-3.3-1.5-.4-2.9.4-3.3 1.9m3.5-15.7c-.5 1.8.6 3.6 2.4 4.1 1.8.5 3.6-.6 4.1-2.4.5-1.8-.6-3.6-2.4-4.1-1.8-.4-3.7.7-4.1 2.4m3.5-15.6c-.6 2.1.7 4.3 2.8 4.8 2.1.6 4.3-.7 4.8-2.8.6-2.1-.7-4.3-2.8-4.8-2.1-.5-4.2.7-4.8 2.8m3.6-15.6c-.6 2.4.8 4.8 3.2 5.5 2.4.6 4.8-.8 5.5-3.2.6-2.4-.8-4.8-3.2-5.5-2.4-.6-4.8.8-5.5 3.2m3.7-15.6c-.7 2.7.9 5.4 3.5 6.1 2.7.7 5.4-.9 6.1-3.5.7-2.7-.9-5.4-3.5-6.1-2.7-.7-5.4.9-6.1 3.5m3.7-15.5c-.8 2.9.9 5.9 3.8 6.6s5.9-.9 6.6-3.8c.8-2.9-.9-5.9-3.8-6.6-2.9-.8-5.8.9-6.6 3.8m3.8-15.6c-.8 3.1 1 6.3 4.1 7.1 3.1.8 6.3-1 7.1-4.1.8-3.1-1-6.3-4.1-7.1-3.1-.8-6.3 1-7.1 4.1m3.7-15.6c-.9 3.3 1.1 6.8 4.4 7.7 3.3.9 6.8-1.1 7.7-4.4.9-3.3-1.1-6.8-4.4-7.7-3.4-.9-6.8 1.1-7.7 4.4m3.8-15.5c-.9 3.5 1.1 7.2 4.7 8.1s7.2-1.2 8.1-4.7c.9-3.5-1.2-7.2-4.7-8.1s-7.2 1.2-8.1 4.7m3.8-15.6c-1 3.7 1.2 7.5 4.9 8.5s7.5-1.2 8.5-4.9-1.2-7.5-4.9-8.5-7.6 1.2-8.5 4.9m3.7-15.5c-1 3.9 1.3 7.9 5.2 9 3.9 1 7.9-1.3 9-5.2 1-3.9-1.3-7.9-5.2-9-3.9-1-7.9 1.3-9 5.2m3.9-15.5c-1.1 4.1 1.3 8.3 5.4 9.3 4.1 1.1 8.3-1.3 9.3-5.4 1.1-4.1-1.3-8.3-5.4-9.3-4-1.1-8.2 1.3-9.3 5.4m3.9-15.6c-1.1 4.2 1.4 8.5 5.6 9.6 4.2 1.1 8.5-1.4 9.6-5.6 1.1-4.2-1.4-8.5-5.6-9.6-4.2-1-8.5 1.5-9.6 5.6" class="mega-300x600-bg-1"/>
  <path d="M190.1 335.5c-1.2 4.3 1.4 8.7 5.7 9.9 4.3 1.2 8.7-1.4 9.9-5.7 1.2-4.3-1.4-8.7-5.7-9.9-4.3-1.1-8.7 1.4-9.9 5.7" class="mega-300x600-bg-1"/>
  <path d="M194.1 320c-1.2 4.4 1.4 8.9 5.8 10.1 4.4 1.2 8.9-1.4 10.1-5.8 1.2-4.4-1.4-8.9-5.8-10.1-4.4-1.1-8.9 1.5-10.1 5.8" class="mega-300x600-bg-1"/>
  <path d="M198.3 304.6c-1.2 4.4 1.4 8.8 5.8 10 4.4 1.2 8.8-1.4 10-5.8 1.2-4.4-1.4-8.8-5.8-10-4.3-1.1-8.8 1.4-10 5.8" class="mega-300x600-bg-1"/>
  <path d="M202.5 289.2c-1.2 4.3 1.4 8.7 5.7 9.9 4.3 1.2 8.7-1.4 9.9-5.7 1.2-4.3-1.4-8.7-5.7-9.9-4.3-1.2-8.7 1.4-9.9 5.7m4.4-15.4c-1.1 4.2 1.4 8.5 5.6 9.6 4.2 1.1 8.5-1.4 9.6-5.6 1.1-4.2-1.4-8.5-5.6-9.6-4.2-1.1-8.5 1.4-9.6 5.6m4.4-15.4c-1.1 4 1.3 8.2 5.4 9.3 4 1.1 8.2-1.3 9.3-5.4 1.1-4-1.3-8.2-5.4-9.3-4.1-1.1-8.2 1.3-9.3 5.4m4.4-15.4c-1 3.9 1.3 7.9 5.1 8.9 3.9 1 7.9-1.3 8.9-5.2 1-3.9-1.3-7.9-5.1-8.9s-7.8 1.3-8.9 5.2m4.5-15.4c-1 3.7 1.2 7.5 4.9 8.5s7.5-1.2 8.5-4.9-1.2-7.5-4.9-8.5-7.5 1.2-8.5 4.9m4.4-15.3c-.9 3.5 1.1 7.1 4.7 8.1 3.5.9 7.2-1.1 8.1-4.7.9-3.5-1.1-7.2-4.7-8.1-3.5-1-7.1 1.1-8.1 4.7m4.6-15.4c-.9 3.3 1.1 6.7 4.4 7.6 3.3.9 6.7-1.1 7.6-4.4.9-3.3-1.1-6.7-4.4-7.6-3.3-.9-6.7 1.1-7.6 4.4m4.5-15.3c-.8 3.1 1 6.3 4.1 7.1 3.1.8 6.3-1 7.1-4.1.8-3.1-1-6.3-4.1-7.1-3.1-.9-6.3 1-7.1 4.1m4.6-15.4c-.8 2.9.9 5.8 3.8 6.6 2.9.8 5.8-.9 6.6-3.8.8-2.9-.9-5.8-3.8-6.6-2.9-.7-5.9 1-6.6 3.8m4.5-15.3c-.7 2.6.9 5.3 3.5 6 2.6.7 5.3-.9 6-3.5.7-2.6-.9-5.3-3.5-6-2.6-.7-5.3.9-6 3.5m4.6-15.4c-.6 2.4.8 4.8 3.1 5.4 2.4.6 4.8-.8 5.4-3.1.6-2.4-.8-4.8-3.1-5.4-2.3-.6-4.7.8-5.4 3.1m4.7-15.3c-.6 2.1.7 4.2 2.8 4.8 2.1.6 4.2-.7 4.8-2.8.6-2.1-.7-4.2-2.8-4.8-2.1-.5-4.3.7-4.8 2.8m4.8-15.3c-.5 1.7.6 3.5 2.3 4 1.7.5 3.5-.6 4-2.3.5-1.7-.6-3.5-2.3-4-1.8-.4-3.6.6-4 2.3m4.7-15.2c-.4 1.4.4 2.8 1.8 3.1 1.4.4 2.8-.4 3.1-1.8.4-1.4-.4-2.8-1.8-3.1-1.3-.4-2.7.4-3.1 1.8m4.9-15.3c-.3 1 .3 2 1.3 2.3 1 .3 2-.3 2.3-1.3.3-1-.3-2-1.3-2.3-1-.3-2.1.3-2.3 1.3m4.8-15.3c-.2.6.2 1.2.8 1.4.6.2 1.3-.2 1.4-.8.2-.6-.2-1.2-.8-1.4-.6-.2-1.2.2-1.4.8m4.9-15.2c-.1.2.1.4.3.5.2.1.4-.1.5-.3.1-.2-.1-.4-.3-.5-.3-.1-.5 0-.5.3M147.1 589.3c.2 0 .3-.1.4-.2 0-.2-.1-.3-.2-.4-.2 0-.3.1-.4.2-.1.2 0 .4.2.4m3.2-16c-.2.6.2 1.2.8 1.3.6.2 1.2-.2 1.3-.8.2-.6-.2-1.2-.8-1.3-.6-.1-1.1.3-1.3.8m3.5-15.6c-.2.9.3 1.9 1.2 2.1.9.2 1.9-.3 2.1-1.2.2-.9-.3-1.9-1.2-2.1-.9-.3-1.9.3-2.1 1.2m3.4-15.7c-.4 1.3.4 2.7 1.8 3 1.3.4 2.7-.4 3-1.8.4-1.3-.4-2.7-1.8-3-1.3-.3-2.6.5-3 1.8m3.5-15.6c-.4 1.7.5 3.4 2.2 3.9 1.7.5 3.4-.5 3.9-2.2.5-1.7-.5-3.4-2.2-3.9-1.7-.5-3.5.5-3.9 2.2m3.6-15.6c-.5 2 .6 4 2.6 4.6 2 .5 4-.6 4.6-2.6.5-2-.6-4-2.6-4.6-2-.6-4.1.6-4.6 2.6m3.6-15.6c-.6 2.3.7 4.7 3 5.3 2.3.6 4.7-.7 5.3-3 .6-2.3-.7-4.7-3-5.3-2.4-.7-4.7.7-5.3 3m3.6-15.6c-.7 2.6.8 5.2 3.4 5.9 2.6.7 5.2-.8 5.9-3.4.7-2.6-.8-5.2-3.4-5.9-2.6-.7-5.2.9-5.9 3.4m3.7-15.5c-.7 2.8.9 5.7 3.7 6.4 2.8.7 5.7-.9 6.4-3.7s-.9-5.7-3.7-6.4c-2.7-.8-5.6.9-6.4 3.7m3.8-15.6c-.8 3 1 6.1 4 6.9 3 .8 6.1-1 6.9-4s-1-6.1-4-6.9c-3-.8-6.1 1-6.9 4m3.7-15.6c-.9 3.2 1.1 6.5 4.3 7.4 3.2.9 6.5-1 7.4-4.3.9-3.2-1.1-6.5-4.3-7.4-3.2-.8-6.5 1.1-7.4 4.3m3.8-15.5c-.9 3.4 1.1 6.9 4.5 7.8 3.4.9 6.9-1.1 7.8-4.5.9-3.4-1.1-6.9-4.5-7.8-3.4-.9-6.9 1.1-7.8 4.5m3.8-15.6c-1 3.6 1.2 7.3 4.8 8.3 3.6 1 7.3-1.2 8.3-4.8 1-3.6-1.2-7.3-4.8-8.3-3.6-.9-7.3 1.2-8.3 4.8m3.9-15.5c-1 3.8 1.2 7.6 5 8.6s7.6-1.2 8.6-5-1.2-7.6-5-8.6-7.6 1.2-8.6 5m3.8-15.5c-1 3.9 1.3 7.9 5.2 9 3.9 1 7.9-1.3 9-5.2 1-3.9-1.3-7.9-5.2-9-3.9-1-7.9 1.3-9 5.2m4-15.5c-1.1 4 1.3 8.2 5.3 9.2 4 1.1 8.2-1.3 9.2-5.3 1.1-4-1.3-8.2-5.3-9.2-4-1.2-8.2 1.2-9.2 5.3m4-15.5c-1.1 4.1 1.3 8.3 5.4 9.4 4.1 1.1 8.3-1.3 9.4-5.4 1.1-4.1-1.3-8.3-5.4-9.4-4.1-1.2-8.3 1.3-9.4 5.4m4-15.5c-1.1 4.1 1.3 8.4 5.5 9.5 4.1 1.1 8.4-1.4 9.5-5.5 1.1-4.1-1.4-8.4-5.5-9.5-4.1-1.1-8.4 1.4-9.5 5.5m4.2-15.5c-1.1 4.1 1.4 8.4 5.5 9.5s8.4-1.3 9.5-5.5c1.1-4.1-1.4-8.4-5.5-9.5-4.2-1.1-8.4 1.4-9.5 5.5m4.2-15.4c-1.1 4.1 1.3 8.3 5.4 9.4 4.1 1.1 8.3-1.3 9.4-5.4 1.1-4.1-1.3-8.3-5.4-9.4-4.1-1.1-8.3 1.3-9.4 5.4m4.3-15.4c-1.1 4 1.3 8.1 5.3 9.2 4 1.1 8.1-1.3 9.2-5.3 1.1-4-1.3-8.1-5.3-9.2-4-1.1-8.1 1.3-9.2 5.3m4.3-15.4c-1 3.9 1.3 7.9 5.1 8.9 3.9 1 7.9-1.3 8.9-5.2 1-3.9-1.3-7.9-5.1-8.9s-7.8 1.3-8.9 5.2m4.4-15.4c-1 3.7 1.2 7.6 5 8.6 3.7 1 7.6-1.2 8.6-5 1-3.7-1.2-7.6-5-8.6-3.7-.9-7.6 1.3-8.6 5m4.5-15.4c-1 3.6 1.2 7.2 4.7 8.2 3.6 1 7.2-1.2 8.2-4.7 1-3.6-1.2-7.2-4.7-8.2-3.6-1-7.3 1.2-8.2 4.7m4.4-15.3c-.9 3.4 1.1 6.9 4.5 7.8 3.4.9 6.9-1.1 7.8-4.5.9-3.4-1.1-6.9-4.5-7.8-3.4-1-6.9 1-7.8 4.5m4.5-15.4c-.9 3.2 1.1 6.5 4.3 7.4 3.2.9 6.5-1 7.4-4.3.9-3.2-1.1-6.5-4.3-7.4-3.2-.8-6.5 1.1-7.4 4.3m4.6-15.3c-.8 3 1 6 4 6.8 3 .8 6-1 6.8-4 .8-3-1-6-4-6.8-3-.8-6 1-6.8 4m4.5-15.4c-.7 2.8.9 5.6 3.7 6.4s5.6-.9 6.4-3.7c.7-2.8-.9-5.6-3.7-6.4-2.8-.7-5.7.9-6.4 3.7m4.6-15.3c-.7 2.5.8 5.1 3.4 5.8 2.5.7 5.1-.8 5.8-3.4.7-2.5-.8-5.1-3.4-5.8-2.6-.7-5.2.8-5.8 3.4m4.6-15.4c-.6 2.2.7 4.6 3 5.2 2.3.6 4.6-.7 5.2-3 .6-2.2-.7-4.6-3-5.2-2.3-.5-4.6.8-5.2 3m4.7-15.3c-.5 1.9.6 3.9 2.6 4.5 1.9.5 3.9-.6 4.5-2.6.5-1.9-.6-3.9-2.6-4.5-2-.5-4 .7-4.5 2.6m4.7-15.3c-.4 1.6.5 3.3 2.2 3.7 1.6.4 3.3-.5 3.7-2.2s-.5-3.3-2.2-3.7c-1.6-.4-3.3.6-3.7 2.2m4.8-15.3c-.3 1.3.4 2.6 1.7 2.9 1.3.3 2.6-.4 2.9-1.7.3-1.3-.4-2.6-1.7-2.9-1.3-.3-2.6.5-2.9 1.7m4.8-15.2c-.2.9.3 1.8 1.2 2.1s1.8-.3 2.1-1.2c.2-.9-.3-1.8-1.2-2.1-.9-.3-1.9.3-2.1 1.2m4.8-15.3c-.1.5.2 1.1.7 1.2.5.2 1.1-.2 1.2-.7.1-.5-.2-1.1-.7-1.3-.5-.1-1.1.2-1.2.8m5-14.9c.1 0 .3 0 .3-.2 0-.1 0-.3-.2-.3-.1 0-.3 0-.3.2 0 .1.1.2.2.3M162.6 593.3c.1 0 .1 0 .2-.1 0-.1 0-.1-.1-.2-.1 0-.1 0-.2.1 0 .1 0 .2.1.2m3.4-15.8c-.1.4.1.9.6 1 .4.1.9-.1 1-.6.1-.4-.1-.9-.6-1-.4-.1-.9.2-1 .6m3.4-15.6c-.2.8.3 1.7 1.1 1.9.8.2 1.7-.3 1.9-1.1.2-.8-.3-1.7-1.1-1.9-.8-.2-1.7.2-1.9 1.1m3.5-15.7c-.3 1.2.4 2.4 1.6 2.7 1.2.3 2.4-.4 2.7-1.6.3-1.2-.4-2.4-1.6-2.7-1.1-.2-2.4.5-2.7 1.6m3.5-15.6c-.4 1.5.5 3.1 2 3.5 1.5.4 3.1-.5 3.5-2 .4-1.5-.5-3.1-2-3.5-1.5-.4-3.1.5-3.5 2m3.5-15.6c-.5 1.9.6 3.8 2.5 4.3s3.8-.6 4.3-2.5-.6-3.8-2.5-4.3c-1.8-.5-3.8.6-4.3 2.5m3.7-15.6c-.6 2.2.7 4.4 2.9 4.9 2.2.6 4.4-.7 4.9-2.9.6-2.2-.7-4.4-2.9-4.9-2.1-.5-4.4.8-4.9 2.9m3.6-15.6c-.7 2.4.8 4.9 3.2 5.6 2.4.7 4.9-.8 5.6-3.2.7-2.4-.8-4.9-3.2-5.6-2.4-.7-5 .8-5.6 3.2m3.7-15.6c-.7 2.7.9 5.5 3.6 6.2 2.7.7 5.5-.9 6.2-3.6.7-2.7-.9-5.5-3.6-6.2-2.7-.7-5.5.9-6.2 3.6m3.8-15.5c-.8 2.9.9 5.9 3.8 6.6 2.9.8 5.9-.9 6.6-3.8.8-2.9-.9-5.9-3.8-6.6-2.9-.8-5.9.9-6.6 3.8m3.7-15.6c-.8 3.1 1 6.3 4.1 7.1 3.1.8 6.3-1 7.1-4.1.8-3.1-1-6.3-4.1-7.1-3.1-.8-6.3 1-7.1 4.1m3.8-15.5c-.9 3.3 1.1 6.6 4.3 7.5 3.3.9 6.6-1.1 7.5-4.3.9-3.3-1.1-6.6-4.3-7.5-3.2-.9-6.6 1-7.5 4.3m3.9-15.5c-.9 3.4 1.1 7 4.6 7.9 3.4.9 7-1.1 7.9-4.6.9-3.4-1.1-7-4.5-7.9-3.6-.9-7.1 1.1-8 4.6m3.8-15.6c-1 3.6 1.2 7.3 4.8 8.3 3.6 1 7.3-1.2 8.3-4.8 1-3.6-1.2-7.3-4.8-8.3-3.6-.9-7.3 1.2-8.3 4.8m3.9-15.5c-1 3.7 1.2 7.5 4.9 8.5s7.5-1.2 8.5-4.9-1.2-7.5-4.9-8.5c-3.6-1-7.5 1.2-8.5 4.9m4-15.5c-1 3.8 1.2 7.7 5.1 8.7 3.8 1 7.7-1.2 8.7-5.1 1-3.8-1.2-7.7-5.1-8.7-3.8-1-7.7 1.3-8.7 5.1m4-15.5c-1 3.9 1.3 7.9 5.2 9 3.9 1 7.9-1.3 9-5.2 1-3.9-1.3-7.9-5.2-9-4-1-8 1.3-9 5.2m4.1-15.5c-1.1 3.9 1.3 8 5.2 9 3.9 1.1 8-1.3 9-5.2 1-3.9-1.3-8-5.2-9-3.9-1-8 1.3-9 5.2m4.1-15.4c-1.1 3.9 1.3 8 5.2 9 3.9 1.1 8-1.3 9-5.2 1-3.9-1.3-8-5.2-9-3.9-1.1-7.9 1.3-9 5.2m4.2-15.5c-1 3.9 1.3 7.9 5.1 8.9 3.9 1 7.9-1.3 8.9-5.1 1-3.9-1.3-7.9-5.1-8.9s-7.8 1.3-8.9 5.1m4.3-15.4c-1 3.8 1.2 7.7 5.1 8.7 3.8 1 7.7-1.2 8.7-5.1 1-3.8-1.2-7.7-5-8.7-3.9-.9-7.8 1.3-8.8 5.1m4.3-15.4c-1 3.7 1.2 7.5 4.9 8.5s7.5-1.2 8.5-4.9-1.2-7.5-4.9-8.5-7.5 1.2-8.5 4.9m4.4-15.4c-1 3.6 1.2 7.2 4.7 8.2 3.6 1 7.2-1.2 8.2-4.7 1-3.6-1.2-7.2-4.7-8.2-3.6-1-7.2 1.2-8.2 4.7m4.4-15.3c-.9 3.4 1.1 6.9 4.5 7.8 3.4.9 6.9-1.1 7.8-4.5.9-3.4-1.1-6.9-4.5-7.8-3.3-1-6.9 1-7.8 4.5m4.5-15.4c-.9 3.2 1.1 6.6 4.3 7.4 3.2.9 6.6-1.1 7.4-4.3.9-3.2-1.1-6.6-4.3-7.4-3.2-.9-6.6 1-7.4 4.3m4.4-15.4c-.8 3.1 1 6.2 4.1 7.1 3.1.8 6.2-1 7.1-4.1.8-3.1-1-6.2-4.1-7.1-3.1-.8-6.3 1-7.1 4.1m4.5-15.4c-.8 2.9.9 5.8 3.8 6.6 2.9.8 5.8-.9 6.6-3.8.8-2.9-.9-5.8-3.8-6.6-2.9-.7-5.8 1-6.6 3.8m4.6-15.3c-.7 2.6.9 5.4 3.5 6.1 2.6.7 5.4-.9 6.1-3.5.7-2.7-.9-5.4-3.5-6.1-2.7-.7-5.4.8-6.1 3.5m4.5-15.3c-.6 2.4.8 4.9 3.2 5.5 2.4.6 4.9-.8 5.5-3.2.6-2.4-.8-4.9-3.2-5.5-2.4-.7-4.8.7-5.5 3.2m4.7-15.4c-.6 2.1.7 4.3 2.8 4.9 2.1.6 4.3-.7 4.9-2.8.6-2.1-.7-4.3-2.8-4.9-2.2-.6-4.4.7-4.9 2.8m4.7-15.3c-.5 1.8.6 3.7 2.4 4.2 1.8.5 3.7-.6 4.2-2.4.5-1.8-.6-3.7-2.4-4.2-1.9-.5-3.7.6-4.2 2.4m4.6-15.3c-.4 1.5.5 3.1 2 3.5 1.5.4 3.1-.5 3.5-2 .4-1.5-.5-3.1-2-3.5-1.5-.4-3.1.5-3.5 2m4.8-15.3c-.3 1.2.4 2.4 1.5 2.7 1.2.3 2.4-.4 2.7-1.5.3-1.2-.4-2.4-1.5-2.7-1.2-.3-2.3.4-2.7 1.5m4.8-15.2c-.2.8.3 1.6 1.1 1.8.8.2 1.6-.3 1.8-1.1.2-.8-.3-1.6-1.1-1.8-.7-.2-1.6.3-1.8 1.1m4.9-15.3c-.1.4.1.8.5.9.4.1.8-.1.9-.5.1-.4-.1-.8-.5-.9-.4-.1-.8.1-.9.5m4.8-15.2c.1 0 .1 0 0 0 .1-.1.1-.1 0 0 0-.1 0-.1 0 0 0-.1 0 0 0 0M181.7 581.7c-.1.3.1.6.4.7.3.1.6-.1.7-.4.1-.3-.1-.6-.4-.7-.3-.1-.6.1-.7.4m3.5-15.6c-.2.7.2 1.3.9 1.5.7.2 1.3-.2 1.5-.9.2-.7-.2-1.3-.9-1.5-.7-.2-1.3.2-1.5.9m3.4-15.7c-.3 1.1.3 2.2 1.4 2.4 1.1.3 2.2-.3 2.4-1.4.3-1.1-.3-2.2-1.4-2.4-1-.3-2.1.4-2.4 1.4m3.6-15.6c-.4 1.4.4 2.8 1.8 3.2 1.4.4 2.8-.4 3.2-1.8.4-1.4-.4-2.8-1.8-3.2-1.5-.4-2.9.5-3.2 1.8m3.5-15.6c-.5 1.7.6 3.5 2.3 4 1.7.5 3.5-.6 4-2.3.5-1.7-.6-3.5-2.3-4-1.8-.4-3.6.6-4 2.3m3.6-15.6c-.5 2 .7 4.1 2.7 4.6s4.1-.7 4.6-2.7-.7-4.1-2.7-4.6-4.1.7-4.6 2.7m3.6-15.6c-.6 2.3.7 4.7 3 5.3 2.3.6 4.7-.8 5.3-3 .6-2.3-.7-4.7-3-5.3-2.3-.6-4.7.7-5.3 3m3.7-15.5c-.7 2.5.8 5.1 3.4 5.8 2.5.7 5.1-.8 5.8-3.4.7-2.5-.8-5.1-3.4-5.8-2.5-.7-5.1.8-5.8 3.4m3.8-15.6c-.7 2.7.9 5.6 3.6 6.3 2.7.7 5.6-.9 6.3-3.6.7-2.7-.9-5.6-3.6-6.3-2.8-.8-5.6.8-6.3 3.6m3.7-15.6c-.8 3 1 6 3.9 6.8 3 .8 6-1 6.8-3.9.8-3-1-6-3.9-6.8-2.9-.8-6 1-6.8 3.9m3.9-15.5c-.8 3.1 1 6.3 4.1 7.1 3.1.8 6.3-1 7.1-4.1.8-3.1-1-6.3-4.1-7.1-3.1-.8-6.3 1-7.1 4.1m3.8-15.5c-.9 3.3 1.1 6.6 4.3 7.5 3.3.9 6.6-1.1 7.5-4.3.9-3.3-1.1-6.6-4.3-7.5-3.2-.9-6.6 1-7.5 4.3m3.9-15.6c-.9 3.4 1.1 6.9 4.5 7.8 3.4.9 6.9-1.1 7.8-4.5.9-3.4-1.1-6.9-4.5-7.8-3.4-.9-6.9 1.1-7.8 4.5m3.9-15.5c-.9 3.5 1.1 7.2 4.7 8.1s7.2-1.1 8.1-4.7c.9-3.5-1.1-7.2-4.7-8.1-3.5-.9-7.1 1.2-8.1 4.7m4-15.5c-1 3.6 1.2 7.3 4.8 8.3 3.6 1 7.3-1.2 8.3-4.8 1-3.6-1.2-7.3-4.8-8.3-3.6-.9-7.3 1.2-8.3 4.8m4.1-15.4c-1 3.7 1.2 7.4 4.9 8.4s7.4-1.2 8.4-4.9-1.2-7.4-4.9-8.4-7.5 1.2-8.4 4.9m4-15.5c-1 3.7 1.2 7.5 4.9 8.5s7.5-1.2 8.5-4.9-1.2-7.5-4.9-8.5-7.5 1.2-8.5 4.9m4.1-15.5c-1 3.7 1.2 7.5 4.9 8.5s7.5-1.2 8.5-4.9-1.2-7.5-4.9-8.5c-3.6-1-7.5 1.2-8.5 4.9m4.3-15.4c-1 3.7 1.2 7.4 4.9 8.4s7.4-1.2 8.4-4.9-1.2-7.4-4.9-8.4-7.4 1.2-8.4 4.9m4.2-15.4c-1 3.6 1.2 7.3 4.8 8.3 3.6 1 7.3-1.2 8.3-4.8 1-3.6-1.2-7.3-4.8-8.3-3.6-1-7.3 1.1-8.3 4.8m4.3-15.5c-.9 3.5 1.1 7.2 4.7 8.1 3.5.9 7.2-1.1 8.1-4.7.9-3.5-1.2-7.2-4.7-8.1-3.5-.9-7.2 1.2-8.1 4.7m4.4-15.4c-.9 3.4 1.1 6.9 4.5 7.8 3.4.9 6.9-1.1 7.8-4.5.9-3.4-1.1-6.9-4.5-7.8-3.4-.9-6.9 1.1-7.8 4.5m4.4-15.3c-.9 3.2 1.1 6.6 4.3 7.4 3.2.9 6.6-1.1 7.4-4.3.9-3.2-1.1-6.6-4.3-7.4-3.2-.9-6.5 1-7.4 4.3m4.4-15.4c-.8 3.1 1 6.3 4.1 7.1 3.1.8 6.3-1 7.1-4.1.8-3.1-1-6.3-4.1-7.1-3.1-.9-6.3 1-7.1 4.1m4.4-15.4c-.8 2.9 1 6 3.9 6.7 2.9.8 6-1 6.7-3.9.8-2.9-1-6-3.9-6.7-2.9-.8-5.9 1-6.7 3.9m4.5-15.3c-.7 2.7.9 5.5 3.6 6.2 2.7.7 5.5-.9 6.3-3.6.7-2.7-.9-5.5-3.6-6.2-2.7-.8-5.5.8-6.3 3.6m4.6-15.4c-.7 2.5.8 5.1 3.3 5.8s5.1-.8 5.8-3.3c.7-2.5-.8-5.1-3.3-5.8-2.6-.7-5.2.8-5.8 3.3m4.6-15.3c-.6 2.2.7 4.6 3 5.2 2.3.6 4.6-.7 5.2-3 .6-2.2-.7-4.6-3-5.2-2.3-.6-4.6.7-5.2 3m4.6-15.3c-.5 2 .6 4 2.6 4.5s4-.6 4.5-2.6-.6-4-2.6-4.5c-1.9-.6-3.9.6-4.5 2.6m4.7-15.4c-.4 1.7.5 3.4 2.2 3.9 1.7.4 3.4-.5 3.9-2.2.5-1.7-.5-3.4-2.2-3.9-1.7-.4-3.5.6-3.9 2.2m4.7-15.3c-.4 1.3.4 2.7 1.8 3.1 1.4.4 2.7-.4 3.1-1.8.4-1.4-.4-2.7-1.8-3.1-1.3-.3-2.7.5-3.1 1.8m4.8-15.2c-.3 1 .3 2 1.3 2.3 1 .3 2-.3 2.3-1.3.3-1-.3-2-1.3-2.3-1-.3-2 .3-2.3 1.3m4.8-15.3c-.2.6.2 1.3.8 1.5s1.3-.2 1.5-.8c.2-.6-.2-1.3-.8-1.5-.7-.2-1.3.1-1.5.8m4.8-15.3c-.1.3.1.5.3.6.3.1.5-.1.6-.3.1-.3-.1-.5-.3-.6-.3-.1-.5 0-.6.3M197.6 586.3c.1 0 .3 0 .3-.2 0-.1 0-.3-.2-.3-.1 0-.3 0-.3.2 0 .1.1.2.2.3m3.3-16c-.1.5.2 1 .7 1.1.5.1 1-.2 1.1-.7.1-.5-.2-1-.7-1.1-.4-.1-.9.2-1.1.7m3.5-15.6c-.2.9.3 1.8 1.2 2 .9.2 1.8-.3 2-1.2.2-.9-.3-1.8-1.2-2-.9-.2-1.8.3-2 1.2m3.5-15.7c-.3 1.2.4 2.5 1.6 2.8 1.2.3 2.5-.4 2.8-1.6.3-1.2-.4-2.5-1.6-2.8-1.2-.3-2.5.4-2.8 1.6m3.6-15.6c-.4 1.5.5 3.1 2 3.5 1.5.4 3.1-.5 3.5-2 .4-1.5-.5-3.1-2-3.5-1.5-.4-3.1.5-3.5 2m3.6-15.6c-.5 1.8.6 3.7 2.4 4.2 1.8.5 3.7-.6 4.2-2.4.5-1.8-.6-3.7-2.4-4.2-1.9-.5-3.7.6-4.2 2.4m3.6-15.5c-.6 2.1.7 4.3 2.8 4.8 2.1.6 4.3-.7 4.8-2.8.6-2.1-.7-4.3-2.8-4.8-2.1-.6-4.2.6-4.8 2.8m3.7-15.6c-.6 2.4.8 4.8 3.1 5.4 2.4.6 4.8-.8 5.4-3.1.6-2.4-.8-4.8-3.1-5.4-2.4-.7-4.8.7-5.4 3.1m3.7-15.6c-.7 2.6.8 5.2 3.4 5.9 2.6.7 5.2-.8 5.9-3.4.7-2.6-.8-5.2-3.4-5.9-2.5-.7-5.2.8-5.9 3.4m3.9-15.5c-.7 2.7.9 5.6 3.6 6.3 2.7.7 5.6-.9 6.3-3.6.7-2.7-.9-5.6-3.6-6.3-2.8-.8-5.6.8-6.3 3.6m3.7-15.6c-.8 3 1 6 3.9 6.8 3 .8 6-1 6.8-3.9.8-3-1-6-3.9-6.8-3-.8-6 1-6.8 3.9m3.9-15.5c-.8 3.1 1 6.3 4.1 7.1 3.1.8 6.3-1 7.1-4.1.8-3.1-1-6.3-4.1-7.1-3.1-.8-6.3 1-7.1 4.1m3.9-15.5c-.9 3.2 1 6.5 4.3 7.4 3.2.9 6.5-1.1 7.4-4.3.9-3.2-1-6.5-4.3-7.4-3.2-.9-6.5 1.1-7.4 4.3m4-15.5c-.9 3.3 1.1 6.7 4.4 7.6 3.3.9 6.7-1.1 7.6-4.4.9-3.3-1.1-6.7-4.4-7.6-3.3-.9-6.7 1.1-7.6 4.4m3.9-15.5c-.9 3.4 1.1 6.9 4.5 7.8 3.4.9 6.9-1.1 7.8-4.5.9-3.4-1.1-6.9-4.5-7.8-3.3-1-6.8 1.1-7.8 4.5m4.1-15.5c-.9 3.5 1.1 7.1 4.6 8 3.5.9 7.1-1.1 8-4.6.9-3.5-1.1-7.1-4.6-8-3.5-1-7.1 1.1-8 4.6m4.1-15.5c-.9 3.5 1.1 7.1 4.6 8s7.1-1.1 8-4.6c.9-3.5-1.1-7.1-4.6-8-3.5-.9-7.1 1.1-8 4.6m4.1-15.4c-.9 3.5 1.1 7.1 4.6 8 3.5.9 7.1-1.1 8-4.6.9-3.5-1.1-7.1-4.6-8-3.5-1-7 1.1-8 4.6m4.2-15.5c-.9 3.5 1.1 7 4.6 7.9 3.5.9 7-1.1 7.9-4.6.9-3.5-1.1-7-4.6-7.9-3.4-.9-7 1.2-7.9 4.6m4.2-15.4c-.9 3.4 1.1 6.9 4.5 7.8 3.4.9 6.9-1.1 7.8-4.5s-1.1-6.9-4.5-7.8c-3.3-.9-6.9 1.1-7.8 4.5m4.3-15.4c-.9 3.3 1.1 6.7 4.4 7.6 3.3.9 6.7-1.1 7.6-4.4.9-3.3-1.1-6.7-4.4-7.6-3.3-.9-6.7 1.1-7.6 4.4m4.4-15.4c-.9 3.2 1 6.5 4.3 7.4 3.2.9 6.5-1.1 7.4-4.3.9-3.2-1.1-6.5-4.3-7.4-3.3-.9-6.6 1.1-7.4 4.3m4.3-15.4c-.8 3.1 1 6.2 4.1 7.1 3.1.8 6.2-1 7.1-4.1.8-3.1-1-6.2-4.1-7.1-3.1-.8-6.2 1-7.1 4.1m4.4-15.4c-.8 2.9 1 6 3.9 6.7 2.9.8 6-1 6.7-3.9.8-2.9-1-5.9-3.9-6.7-2.9-.8-5.9 1-6.7 3.9m4.5-15.4c-.7 2.7.9 5.6 3.6 6.3 2.7.7 5.6-.9 6.3-3.6.7-2.7-.9-5.6-3.6-6.3-2.7-.7-5.5.9-6.3 3.6m4.5-15.3c-.7 2.6.8 5.2 3.4 5.9s5.2-.8 5.9-3.4c.7-2.6-.8-5.2-3.4-5.9-2.6-.7-5.2.8-5.9 3.4M301 183c-.6 2.3.8 4.8 3.1 5.4 2.3.6 4.8-.8 5.4-3.1.6-2.3-.8-4.7-3.1-5.4-2.3-.6-4.7.8-5.4 3.1m4.6-15.3c-.6 2.1.7 4.3 2.8 4.8 2.1.6 4.3-.7 4.8-2.8.6-2.1-.7-4.3-2.8-4.8-2.1-.6-4.2.7-4.8 2.8m4.7-15.3c-.5 1.8.6 3.6 2.4 4.1 1.8.5 3.6-.6 4.1-2.4.5-1.8-.6-3.7-2.4-4.1-1.8-.5-3.6.6-4.1 2.4m4.7-15.3c-.4 1.5.5 3 2 3.4 1.5.4 3-.5 3.4-2 .4-1.5-.5-3-2-3.4-1.5-.4-3 .5-3.4 2m4.7-15.3c-.3 1.2.4 2.4 1.6 2.7 1.2.3 2.4-.4 2.7-1.6.3-1.2-.4-2.4-1.6-2.7-1.2-.3-2.4.4-2.7 1.6m4.8-15.3c-.2.8.3 1.7 1.1 1.9.8.2 1.7-.3 1.9-1.1s-.3-1.7-1.1-1.9c-.9-.2-1.7.2-1.9 1.1m4.7-15.3c-.1.5.2 1 .6 1.1.5.1 1-.2 1.1-.6.1-.5-.2-1-.6-1.1-.5-.2-.9.1-1.1.6m5-15.1c.1 0 .2 0 .2-.1s0-.2-.1-.2-.2 0-.2.1c-.1.1 0 .2.1.2M216.7 574.5c-.1.3.1.7.4.8.3.1.7-.1.8-.4.1-.3-.1-.7-.4-.8-.4-.1-.7.1-.8.4m3.5-15.6c-.2.7.2 1.3.9 1.5.7.2 1.3-.2 1.5-.9.2-.7-.2-1.3-.9-1.5-.6-.1-1.3.2-1.5.9m3.5-15.6c-.3 1 .3 2.1 1.4 2.4 1 .3 2.1-.3 2.4-1.4.3-1-.3-2.1-1.4-2.4-1.1-.3-2.1.3-2.4 1.4m3.6-15.6c-.4 1.3.4 2.7 1.8 3 1.3.4 2.7-.4 3-1.8.4-1.3-.4-2.7-1.8-3-1.3-.3-2.6.5-3 1.8m3.6-15.6c-.4 1.6.5 3.3 2.2 3.7 1.6.4 3.3-.5 3.7-2.2.4-1.6-.5-3.3-2.2-3.8-1.6-.3-3.3.6-3.7 2.3m3.6-15.6c-.5 1.9.6 3.9 2.5 4.4 1.9.5 3.9-.6 4.4-2.5.5-1.9-.6-3.9-2.5-4.4-1.9-.6-3.9.6-4.4 2.5m3.7-15.6c-.6 2.2.7 4.4 2.9 4.9 2.2.6 4.4-.7 4.9-2.9.6-2.2-.7-4.4-2.9-4.9-2.1-.5-4.3.8-4.9 2.9m3.7-15.6c-.6 2.4.8 4.8 3.2 5.5 2.4.6 4.8-.8 5.5-3.2s-.8-4.8-3.2-5.5c-2.4-.6-4.8.8-5.5 3.2m3.8-15.5c-.7 2.6.8 5.2 3.4 5.9 2.6.7 5.2-.8 5.9-3.4.7-2.6-.8-5.2-3.4-5.9-2.5-.7-5.2.8-5.9 3.4m3.9-15.5c-.7 2.7.9 5.6 3.6 6.3 2.7.7 5.6-.9 6.3-3.6.7-2.7-.9-5.6-3.6-6.3-2.8-.8-5.6.8-6.3 3.6m3.8-15.6c-.8 2.9.9 5.9 3.8 6.6 2.9.8 5.9-.9 6.6-3.8.8-2.9-.9-5.9-3.8-6.6-2.8-.8-5.8.9-6.6 3.8m4-15.5c-.8 3 1 6.1 4 6.9 3 .8 6.1-1 6.9-4 .8-3-1-6.1-4-6.9-3-.8-6.1 1-6.9 4m3.9-15.5c-.8 3.1 1 6.3 4.1 7.1 3.1.8 6.3-1 7.1-4.1.8-3.1-1-6.3-4.1-7.1-3.1-.8-6.2 1-7.1 4.1m4-15.5c-.9 3.2 1 6.5 4.2 7.3 3.2.9 6.5-1 7.3-4.2.9-3.2-1-6.5-4.2-7.3-3.2-.9-6.5 1-7.3 4.2m4-15.5c-.9 3.2 1.1 6.6 4.3 7.4 3.2.9 6.6-1.1 7.4-4.3.9-3.2-1.1-6.6-4.3-7.4-3.2-.8-6.5 1.1-7.4 4.3m4.1-15.4c-.9 3.3 1.1 6.6 4.3 7.5 3.3.9 6.6-1.1 7.5-4.3.9-3.3-1.1-6.6-4.3-7.5-3.2-.9-6.6 1-7.5 4.3m4.2-15.5c-.9 3.3 1.1 6.6 4.3 7.5 3.3.9 6.6-1.1 7.5-4.3.9-3.3-1.1-6.6-4.3-7.5-3.3-.9-6.7 1-7.5 4.3m4.2-15.4c-.9 3.2 1.1 6.6 4.3 7.4 3.2.9 6.6-1.1 7.4-4.3.9-3.2-1.1-6.6-4.3-7.4-3.2-.9-6.6 1-7.4 4.3m4.2-15.5c-.9 3.2 1 6.5 4.2 7.3 3.2.9 6.5-1 7.3-4.2.9-3.2-1-6.5-4.2-7.3-3.2-.9-6.5 1-7.3 4.2m4.3-15.4c-.8 3.1 1 6.3 4.1 7.1 3.1.8 6.3-1 7.1-4.1.8-3.1-1-6.3-4.1-7.1-3.1-.8-6.3 1-7.1 4.1m4.3-15.4c-.8 3 1 6 4 6.8 3 .8 6.1-1 6.8-4 .8-3-1-6-4-6.8-2.9-.7-6 1-6.8 4m4.4-15.4c-.8 2.9.9 5.8 3.8 6.6 2.9.8 5.8-.9 6.6-3.8.8-2.9-.9-5.8-3.8-6.6-2.9-.7-5.8 1-6.6 3.8m4.4-15.4c-.7 2.7.9 5.5 3.6 6.2 2.7.7 5.5-.9 6.3-3.6.7-2.7-.9-5.5-3.6-6.2-2.8-.7-5.6.9-6.3 3.6m4.4-15.3c-.7 2.6.8 5.2 3.4 5.9 2.6.7 5.2-.8 5.9-3.4.7-2.6-.8-5.2-3.4-5.9-2.6-.7-5.2.8-5.9 3.4m4.5-15.4c-.6 2.4.8 4.8 3.1 5.4 2.4.6 4.8-.8 5.4-3.1.6-2.4-.8-4.8-3.1-5.4-2.3-.7-4.8.7-5.4 3.1m4.6-15.3c-.6 2.1.7 4.3 2.8 4.9 2.1.6 4.3-.7 4.9-2.8.6-2.1-.7-4.3-2.8-4.9-2.2-.6-4.4.6-4.9 2.8m4.5-15.4c-.5 1.9.6 3.8 2.5 4.3s3.8-.6 4.3-2.5-.6-3.8-2.5-4.3c-1.8-.5-3.8.6-4.3 2.5m4.7-15.3c-.4 1.6.5 3.2 2.1 3.6 1.6.4 3.2-.5 3.6-2.1.4-1.6-.5-3.2-2.1-3.6-1.5-.4-3.2.5-3.6 2.1m4.6-15.3c-.4 1.3.4 2.7 1.8 3 1.3.4 2.7-.4 3-1.8.4-1.3-.4-2.7-1.8-3-1.2-.3-2.6.5-3 1.8m4.8-15.3c-.3 1 .3 2 1.3 2.2 1 .3 2-.3 2.2-1.3.3-1-.3-2-1.3-2.2-.9-.2-1.9.3-2.2 1.3m4.8-15.3c-.2.6.2 1.3.8 1.5.6.2 1.3-.2 1.5-.8.2-.6-.2-1.3-.8-1.5-.7-.2-1.4.2-1.5.8m4.7-15.3c-.1.3.1.6.4.7.3.1.6-.1.7-.4.1-.3-.1-.6-.4-.7-.3-.1-.6.1-.7.4M232.7 579.1c.1 0 .3 0 .3-.2 0-.1 0-.3-.2-.3-.1 0-.3 0-.3.2-.1.1 0 .2.2.3m3.3-16c-.1.5.2 1 .6 1.1.5.1 1-.2 1.1-.6.1-.5-.2-1-.6-1.1-.5-.1-.9.2-1.1.6m3.6-15.6c-.2.8.3 1.6 1.1 1.8.8.2 1.6-.3 1.8-1.1.2-.8-.3-1.6-1.1-1.8s-1.6.3-1.8 1.1m3.6-15.6c-.3 1.1.4 2.2 1.4 2.5 1.1.3 2.2-.4 2.5-1.4.3-1.1-.4-2.2-1.4-2.5-1.1-.3-2.2.3-2.5 1.4m3.5-15.6c-.4 1.4.5 2.9 1.9 3.3 1.4.4 2.9-.5 3.3-1.9.4-1.4-.5-2.9-1.9-3.3-1.4-.3-2.9.5-3.3 1.9m3.7-15.6c-.4 1.7.6 3.4 2.2 3.9 1.7.5 3.4-.5 3.9-2.2.5-1.7-.5-3.4-2.2-3.9-1.7-.4-3.5.6-3.9 2.2m3.7-15.5c-.5 1.9.6 3.9 2.6 4.5 1.9.5 3.9-.6 4.5-2.6.5-1.9-.6-3.9-2.6-4.5-2-.5-4 .6-4.5 2.6m3.7-15.6c-.6 2.2.7 4.4 2.9 4.9 2.2.6 4.4-.7 4.9-2.9.6-2.2-.7-4.4-2.9-4.9-2.1-.5-4.3.7-4.9 2.9m3.8-15.6c-.6 2.4.8 4.8 3.1 5.4 2.4.6 4.8-.8 5.4-3.1.6-2.4-.8-4.8-3.1-5.4-2.4-.6-4.8.8-5.4 3.1m3.8-15.5c-.7 2.5.8 5.1 3.4 5.8 2.5.7 5.1-.8 5.8-3.4.7-2.5-.8-5.1-3.4-5.8-2.5-.6-5.1.9-5.8 3.4m3.9-15.5c-.7 2.7.9 5.4 3.5 6.1 2.7.7 5.4-.9 6.1-3.5s-.9-5.4-3.5-6.1-5.4.8-6.1 3.5m3.9-15.5c-.7 2.8.9 5.6 3.7 6.4 2.8.7 5.6-.9 6.4-3.7.7-2.8-.9-5.6-3.7-6.4-2.8-.7-5.6.9-6.4 3.7m4-15.5c-.8 2.9.9 5.9 3.8 6.6 2.9.8 5.9-.9 6.6-3.8.8-2.9-.9-5.9-3.8-6.6-2.9-.8-5.9.9-6.6 3.8m4-15.5c-.8 3 1 6 3.9 6.8 3 .8 6-1 6.8-3.9.8-3-1-6-3.9-6.8-3-.8-6 .9-6.8 3.9m4.1-15.5c-.8 3 1 6 4 6.8 3 .8 6-1 6.8-4 .8-3-1-6-4-6.8-3-.8-6 1-6.8 4m4-15.5c-.8 3 1 6.1 4 7 3 .8 6.1-1 7-4 .8-3-1-6.1-4-7-3.1-.8-6.2 1-7 4m4.2-15.4c-.8 3 1 6.1 4 7 3 .8 6.1-1 7-4 .8-3-1-6.1-4-7-3.1-.9-6.2.9-7 4m4.2-15.5c-.8 3 1 6 4 6.8 3 .8 6-1 6.8-4 .8-3-1-6-4-6.8-3-.7-6 1-6.8 4m4.2-15.4c-.8 3 1 6 3.9 6.8 3 .8 6-1 6.8-3.9.8-3-1-6-3.9-6.8-3-.8-6 .9-6.8 3.9m4.3-15.4c-.8 2.9.9 5.8 3.8 6.6 2.9.8 5.8-.9 6.6-3.8.8-2.9-.9-5.8-3.8-6.6-2.9-.8-5.9.9-6.6 3.8m4.3-15.4c-.7 2.8.9 5.6 3.7 6.4 2.8.7 5.6-.9 6.4-3.7.7-2.8-.9-5.6-3.7-6.4-2.8-.7-5.7.9-6.4 3.7m4.3-15.4c-.7 2.7.9 5.4 3.5 6.1 2.7.7 5.4-.9 6.1-3.5.7-2.7-.9-5.4-3.5-6.1-2.6-.8-5.4.8-6.1 3.5m4.4-15.4c-.7 2.5.8 5.1 3.3 5.8 2.5.7 5.1-.8 5.8-3.3s-.8-5.1-3.3-5.8c-2.5-.7-5.1.8-5.8 3.3m4.5-15.4c-.6 2.3.8 4.7 3.1 5.4 2.3.6 4.8-.8 5.4-3.1.6-2.3-.8-4.8-3.1-5.4-2.4-.6-4.8.8-5.4 3.1m4.5-15.3c-.6 2.1.7 4.3 2.8 4.9 2.1.6 4.3-.7 4.9-2.8.6-2.1-.7-4.3-2.8-4.9-2.2-.6-4.3.6-4.9 2.8m4.5-15.4c-.5 1.9.6 3.9 2.5 4.4 1.9.5 3.9-.6 4.4-2.5.5-1.9-.6-3.9-2.5-4.4-1.9-.6-3.9.6-4.4 2.5m4.6-15.3c-.4 1.7.5 3.4 2.2 3.8 1.7.4 3.4-.5 3.8-2.2.4-1.7-.5-3.4-2.2-3.8s-3.3.5-3.8 2.2m4.7-15.3c-.4 1.4.4 2.8 1.8 3.2 1.4.4 2.8-.4 3.2-1.8.4-1.4-.4-2.8-1.8-3.2-1.5-.4-2.9.4-3.2 1.8m7.1-16.8c-1.1-.3-2.2.4-2.5 1.4-.3 1.1.4 2.2 1.4 2.5.7.2 1.4 0 1.9-.5v-2.9c-.1-.2-.4-.4-.8-.5m-97.2 423.3c-.1.2.1.5.3.5.2.1.5-.1.5-.3.1-.2-.1-.5-.3-.5-.2-.1-.4.1-.5.3m3.5-15.6c-.2.6.2 1.2.8 1.3.6.2 1.2-.2 1.3-.8.2-.6-.2-1.2-.8-1.3-.5-.1-1.1.2-1.3.8m3.7-15.6c-.2.8.3 1.7 1.1 1.9.8.2 1.7-.3 1.9-1.1.2-.8-.3-1.7-1.1-1.9-.8-.2-1.7.3-1.9 1.1m3.5-15.6c-.3 1.2.4 2.4 1.5 2.7 1.2.3 2.4-.4 2.7-1.5.3-1.2-.4-2.4-1.5-2.7-1.1-.4-2.3.3-2.7 1.5m3.7-15.6c-.4 1.4.5 2.9 1.9 3.3 1.4.4 2.9-.5 3.3-1.9.4-1.4-.5-2.9-1.9-3.3-1.5-.4-2.9.4-3.3 1.9m3.7-15.6c-.4 1.7.5 3.4 2.2 3.9 1.7.5 3.4-.5 3.9-2.2.5-1.7-.5-3.4-2.2-3.9-1.7-.5-3.5.5-3.9 2.2m3.7-15.6c-.5 1.9.6 3.9 2.5 4.4 1.9.5 3.9-.6 4.4-2.5.5-1.9-.6-3.9-2.5-4.4-1.9-.5-3.9.6-4.4 2.5m3.8-15.5c-.6 2.1.7 4.3 2.8 4.8 2.1.6 4.3-.7 4.8-2.8.6-2.1-.7-4.3-2.8-4.8-2.1-.6-4.3.7-4.8 2.8m3.9-15.5c-.6 2.2.7 4.6 3 5.2 2.2.6 4.6-.7 5.2-3 .6-2.2-.7-4.6-3-5.2-2.3-.6-4.6.7-5.2 3m3.8-15.6c-.7 2.4.8 4.9 3.2 5.6 2.4.7 4.9-.8 5.6-3.2.7-2.4-.8-4.9-3.2-5.6-2.5-.7-5 .8-5.6 3.2m3.9-15.5c-.7 2.6.8 5.2 3.4 5.9 2.6.7 5.2-.8 5.9-3.4.7-2.6-.8-5.2-3.4-5.9-2.6-.7-5.2.9-5.9 3.4m3.9-15.5c-.7 2.7.9 5.4 3.5 6.1 2.7.7 5.4-.9 6.1-3.5.7-2.7-.9-5.4-3.5-6.1-2.6-.7-5.3.9-6.1 3.5m4.1-15.5c-.7 2.7.9 5.5 3.6 6.2 2.7.7 5.5-.9 6.2-3.6.7-2.7-.9-5.5-3.6-6.2-2.7-.7-5.5.9-6.2 3.6m4.1-15.4c-.7 2.7.9 5.6 3.6 6.3 2.7.7 5.6-.9 6.3-3.6.7-2.7-.9-5.6-3.6-6.3-2.8-.8-5.6.8-6.3 3.6m4-15.5c-.7 2.8.9 5.6 3.7 6.4s5.6-.9 6.4-3.7c.7-2.8-.9-5.6-3.7-6.4-2.8-.7-5.6.9-6.4 3.7m4.2-15.5c-.7 2.8.9 5.6 3.7 6.4 2.8.7 5.6-.9 6.4-3.7.7-2.8-.9-5.6-3.7-6.4-2.8-.7-5.7 1-6.4 3.7m4.2-15.4c-.7 2.7.9 5.6 3.6 6.3 2.7.7 5.6-.9 6.3-3.6.7-2.7-.9-5.6-3.6-6.3-2.8-.8-5.6.8-6.3 3.6m4.1-15.5c-.7 2.7.9 5.5 3.6 6.2 2.7.7 5.5-.9 6.2-3.6.7-2.7-.9-5.5-3.6-6.2-2.6-.7-5.4.9-6.2 3.6m4.4-15.4c-.7 2.6.9 5.3 3.5 6 2.6.7 5.3-.9 6-3.5.7-2.6-.9-5.3-3.5-6-2.6-.7-5.3.9-6 3.5m4.3-15.4c-.7 2.5.8 5.1 3.4 5.8 2.5.7 5.1-.8 5.8-3.4.7-2.5-.8-5.1-3.4-5.8-2.6-.6-5.2.9-5.8 3.4m4.3-15.4c-.6 2.4.8 4.9 3.2 5.5 2.4.6 4.9-.8 5.5-3.2.6-2.4-.8-4.9-3.2-5.5-2.4-.6-4.8.8-5.5 3.2m4.5-15.4c-.6 2.2.7 4.6 3 5.2 2.3.6 4.6-.7 5.2-3 .6-2.3-.7-4.6-3-5.2-2.3-.5-4.6.8-5.2 3m4.3-15.3c-.6 2.1.7 4.3 2.8 4.8 2.1.6 4.3-.7 4.8-2.8.6-2.1-.7-4.3-2.8-4.8-2-.6-4.2.7-4.8 2.8m8.9-17.9c-1.9-.5-3.8.6-4.3 2.5s.6 3.8 2.5 4.3c1.3.3 2.6-.1 3.4-1v-4.9c-.4-.4-.9-.7-1.6-.9m.2-12.8c-.4 1.3.2 2.7 1.4 3.4V194c-.6.4-1.2 1-1.4 1.8M271.4 556c-.1.3.1.6.4.7.3.1.6-.1.7-.4.1-.3-.1-.6-.4-.7-.3-.1-.6.1-.7.4m3.6-15.6c-.2.6.2 1.2.8 1.4.6.2 1.2-.2 1.4-.8.2-.6-.2-1.2-.8-1.4-.7-.1-1.3.2-1.4.8m3.6-15.5c-.2.9.3 1.8 1.2 2 .9.2 1.8-.3 2-1.2.2-.9-.3-1.8-1.2-2-.8-.2-1.7.3-2 1.2m3.6-15.6c-.3 1.2.4 2.4 1.5 2.7 1.2.3 2.4-.4 2.7-1.5.3-1.2-.4-2.4-1.5-2.7-1.2-.4-2.3.3-2.7 1.5m3.7-15.6c-.4 1.4.5 2.9 1.9 3.3 1.4.4 2.9-.5 3.3-1.9.4-1.4-.5-2.9-1.9-3.3-1.5-.4-2.9.5-3.3 1.9m3.8-15.6c-.4 1.6.5 3.3 2.2 3.7 1.6.4 3.3-.5 3.8-2.2.4-1.6-.5-3.3-2.2-3.8-1.7-.3-3.4.7-3.8 2.3m3.8-15.5c-.5 1.8.6 3.7 2.4 4.2 1.8.5 3.7-.6 4.2-2.4.5-1.8-.6-3.7-2.4-4.2-1.9-.5-3.8.5-4.2 2.4m3.8-15.6c-.5 2 .6 4 2.6 4.6s4-.6 4.6-2.6c.5-2-.6-4-2.6-4.6-2-.5-4.1.6-4.6 2.6m3.9-15.5c-.6 2.1.7 4.3 2.8 4.9 2.1.6 4.3-.7 4.9-2.8.6-2.1-.7-4.3-2.8-4.9-2.2-.6-4.4.7-4.9 2.8m3.9-15.5c-.6 2.2.7 4.6 3 5.2 2.2.6 4.6-.7 5.2-3 .6-2.2-.7-4.6-3-5.2-2.3-.6-4.6.8-5.2 3m3.9-15.5c-.6 2.4.8 4.8 3.1 5.4 2.4.6 4.8-.8 5.4-3.1.6-2.4-.8-4.8-3.1-5.4-2.3-.7-4.7.7-5.4 3.1m4-15.5c-.7 2.4.8 4.9 3.2 5.6 2.4.7 4.9-.8 5.6-3.2.7-2.4-.8-4.9-3.2-5.6-2.4-.7-4.9.8-5.6 3.2m4.1-15.5c-.7 2.5.8 5 3.3 5.7s5-.8 5.7-3.3c.7-2.5-.8-5-3.3-5.7-2.5-.6-5.1.8-5.7 3.3m4.1-15.5c-.7 2.5.8 5.1 3.3 5.8 2.5.7 5.1-.8 5.8-3.3.7-2.5-.8-5.1-3.3-5.8-2.6-.7-5.2.8-5.8 3.3m4.1-15.4c-.7 2.5.8 5.1 3.3 5.8 2.5.7 5.1-.8 5.8-3.3.7-2.5-.8-5.1-3.3-5.8-2.5-.7-5.1.8-5.8 3.3m4.2-15.5c-.7 2.5.8 5 3.3 5.7 2.5.7 5-.8 5.7-3.3.7-2.5-.8-5-3.3-5.7-2.5-.6-5 .9-5.7 3.3m4.2-15.4c-.7 2.4.8 4.9 3.2 5.6 2.4.7 4.9-.8 5.6-3.2.7-2.4-.8-4.9-3.2-5.6-2.4-.7-4.9.8-5.6 3.2m4.3-15.4c-.6 2.4.8 4.8 3.1 5.4 2.4.6 4.8-.8 5.4-3.1.6-2.4-.8-4.8-3.1-5.4-2.4-.7-4.8.7-5.4 3.1m9.5-18.4c-2.2-.6-4.6.7-5.2 3-.6 2.3.7 4.6 3 5.2 1.9.5 3.8-.4 4.7-2v-4.2c-.5-1-1.4-1.7-2.5-2m-.8-12.4c-.6 2.1.7 4.3 2.8 4.9h.5v-7.8c-1.5.2-2.9 1.3-3.3 2.9m-59.3 298.9c0-.1 0-.1 0 0 0-.1-.1-.1 0 0-.1-.1 0 0 0 0m3.5-15.7c-.1.3.1.7.4.8.3.1.7-.1.8-.4.1-.3-.1-.7-.4-.8s-.7.1-.8.4m3.6-15.6c-.2.6.2 1.2.8 1.4.6.2 1.2-.2 1.4-.8.2-.6-.2-1.2-.8-1.4s-1.2.2-1.4.8m3.8-15.5c-.2.8.3 1.7 1.1 1.9.8.2 1.7-.3 1.9-1.1.2-.8-.3-1.7-1.1-1.9-.8-.3-1.7.2-1.9 1.1M302 498c-.3 1.1.4 2.2 1.4 2.5 1.1.3 2.2-.4 2.5-1.4.3-1.1-.4-2.2-1.4-2.5-1.1-.4-2.2.3-2.5 1.4m3.7-15.6c-.4 1.3.4 2.7 1.8 3 1.3.4 2.7-.4 3-1.8.4-1.3-.4-2.7-1.8-3-1.3-.3-2.7.5-3 1.8m3.7-15.6c-.4 1.5.5 3.1 2 3.5 1.5.4 3.1-.5 3.5-2 .4-1.5-.5-3.1-2-3.5-1.5-.4-3.1.5-3.5 2m3.9-15.5c-.5 1.7.6 3.5 2.3 3.9 1.7.5 3.5-.6 3.9-2.3s-.6-3.5-2.3-3.9c-1.7-.4-3.5.6-3.9 2.3m3.8-15.5c-.5 1.8.6 3.7 2.4 4.2 1.8.5 3.7-.6 4.2-2.4.5-1.8-.6-3.7-2.4-4.2-1.8-.6-3.7.5-4.2 2.4m4-15.5c-.5 2 .6 4 2.6 4.5s4-.6 4.5-2.6-.6-4-2.6-4.5c-2-.6-4 .6-4.5 2.6m3.9-15.5c-.6 2.1.7 4.2 2.8 4.8 2.1.6 4.2-.7 4.8-2.8.6-2.1-.7-4.2-2.8-4.8-2.1-.6-4.3.7-4.8 2.8m4-15.5c-.6 2.1.7 4.3 2.8 4.9 2.1.6 4.3-.7 4.9-2.8.6-2.1-.7-4.3-2.8-4.9-2.1-.6-4.3.6-4.9 2.8m4.1-15.5c-.6 2.2.7 4.4 2.9 5 2.2.6 4.4-.7 5-2.9.6-2.2-.7-4.4-2.9-5-2.2-.6-4.4.7-5 2.9m4.1-15.5c-.6 2.2.7 4.5 2.9 5.1 2.2.6 4.5-.7 5.1-2.9.6-2.2-.7-4.5-2.9-5.1-2.3-.6-4.5.7-5.1 2.9m4.1-15.4c-.6 2.2.7 4.5 2.9 5.1 2.2.6 4.5-.7 5.1-2.9.6-2.2-.7-4.5-2.9-5.1-2.2-.6-4.5.7-5.1 2.9m4.2-15.5c-.6 2.2.7 4.4 2.9 5 .5.1 1.1.2 1.6.1v-8c-2-.3-4 .9-4.5 2.9m4.5-12.7v-3.2c-.1.2-.2.3-.3.5-.2.9-.1 1.9.3 2.7m-43 234.4s0-.1 0 0c0-.1 0-.1 0 0 0-.1-.1-.1 0 0-.1-.1-.1-.1 0 0m3.6-15.7c-.1.3.1.6.4.7.3.1.6-.1.7-.4.1-.3-.1-.6-.4-.7-.3-.1-.7.1-.7.4m3.7-15.6c-.1.5.2 1.1.7 1.2.5.1 1.1-.2 1.2-.7.1-.5-.2-1.1-.7-1.3-.5 0-1.1.3-1.2.8m3.6-15.5c-.2.8.3 1.6 1.1 1.8.8.2 1.6-.3 1.8-1.1.2-.8-.3-1.6-1.1-1.8-.7-.2-1.6.2-1.8 1.1m3.8-15.6c-.3 1 .3 2 1.3 2.3 1 .3 2-.3 2.3-1.3.3-1-.3-2-1.3-2.3-1-.3-2 .3-2.3 1.3m3.8-15.5c-.3 1.2.4 2.4 1.6 2.7 1.2.3 2.4-.4 2.7-1.6.3-1.2-.4-2.4-1.6-2.7-1.1-.3-2.4.4-2.7 1.6m3.8-15.6c-.4 1.4.4 2.8 1.8 3.2 1.4.4 2.8-.4 3.2-1.8.4-1.4-.4-2.8-1.8-3.2-1.4-.4-2.8.4-3.2 1.8m3.9-15.5c-.4 1.5.5 3.1 2 3.5 1.5.4 3.1-.5 3.5-2 .4-1.5-.5-3.1-2-3.5-1.6-.5-3.1.4-3.5 2m3.9-15.5c-.4 1.7.5 3.4 2.2 3.8 1.7.4 3.4-.5 3.8-2.2.4-1.7-.5-3.4-2.2-3.8-1.7-.5-3.4.5-3.8 2.2m4-15.5c-.5 1.7.6 3.5 2.3 4 1.7.5 3.5-.6 4-2.3.5-1.7-.6-3.5-2.3-4-1.8-.5-3.6.5-4 2.3m4-15.5c-.5 1.8.6 3.7 2.4 4.2.9.2 1.8.1 2.5-.3v-5.9c-.2-.1-.5-.3-.8-.4-1.8-.5-3.7.5-4.1 2.4m4-15.5c-.3 1.3.1 2.5.9 3.4v-4.9c-.4.4-.8.9-.9 1.5m-18.8 144c-.1.2.1.4.3.5.2.1.4-.1.5-.3.1-.2-.1-.4-.3-.5-.2 0-.4.1-.5.3m3.8-15.5c-.1.4.1.9.6 1 .4.1.9-.1 1-.6.1-.4-.1-.9-.6-1-.5-.1-.9.1-1 .6m3.7-15.6c-.2.6.2 1.3.8 1.5.6.2 1.3-.2 1.5-.8.2-.6-.2-1.3-.8-1.5-.6-.2-1.3.2-1.5.8m3.8-15.5c-.2.8.3 1.7 1.1 1.9.8.2 1.7-.3 1.9-1.1.2-.8-.3-1.7-1.1-1.9-.8-.3-1.7.2-1.9 1.1m3.8-15.6c-.3 1 .3 2.1 1.4 2.4 1 .3 2.1-.3 2.4-1.4.3-1-.3-2.1-1.4-2.4-1.1-.3-2.1.4-2.4 1.4m3.9-15.5c-.2.8.1 1.7.7 2.2v-3.3c-.3.3-.6.7-.7 1.1" class="mega-300x600-bg-1"/>
</svg>
