<svg class="gamblers-svg" xmlns="http://www.w3.org/2000/svg" viewBox="0 0 804.87 648.79">
  <defs>
<!--     <filter id="shadow">
      <feDropShadow dx="4" dy="8" stdDeviation="4"/>
    </filter> -->
    <style>

<!--       .gamblers-1, .gamblers-2, .gamblers-3, .gamblers-4 {
        filter:url(#shadow);
      } -->

      .gamblers-1 {
        fill: #fcee1e;
      }

      .gamblers-2 {
        fill: #231f20;
      }

      .gamblers-3 {
        fill: #fff;
      }

      .gamblers-4 {
        fill: #fcd304;
      }
    </style>
  </defs>
  <title>gamblers</title>
  <polyline class="gamblers-1" points="783.41 329.64 416.88 329.64 600.14 11.9 783.41 329.64"/>
  <path class="gamblers-2" d="M428.27,350.64A11.9,11.9,0,0,1,418,332.79L601.22,15.06a11.9,11.9,0,0,1,20.62,0L805.1,332.79l-10.3,6v0l10.3-6a11.9,11.9,0,0,1-10.3,17.85H428.27m20.59-23.8H774.19l-162.66-282Z" transform="translate(-11.39 -9.1)"/>
  <rect class="gamblers-1" x="7.14" y="358.5" width="788.51" height="139.89"/>
  <path class="gamblers-2" d="M11.39,360.46H814.18V514.64H11.39ZM807,507.49v0ZM25.67,500.36H799.88V374.74H25.67Z" transform="translate(-11.39 -9.1)"/>
  <rect class="gamblers-2" x="7.14" y="360.31" width="158.06" height="134.45"/>
  <path class="gamblers-3" d="M49.59,445.59a7.73,7.73,0,0,1,0-15.46h73.79a7.73,7.73,0,0,1,0,15.46H49.59" transform="translate(-11.39 -9.1)"/>
  <path class="gamblers-3" d="M81.66,476.55a7.73,7.73,0,0,1,1.73-10.8l38.13-27.58-40-30.2h0a7.73,7.73,0,1,1,9.31-12.35l48.39,36.5a7.73,7.73,0,0,1-.13,12.44L92.45,478.29a7.72,7.72,0,0,1-10.79-1.73" transform="translate(-11.39 -9.1)"/>
  <polyline class="gamblers-2" points="311.2 107.1 321.45 107.1 321.45 143.01 332.36 143.01 332.36 151.67 311.2 151.67 311.2 107.1"/>
  <path class="gamblers-2" d="M357.9,161.31c-11.24,0-14.82-11.91-14.82-22.95s4.63-22.69,15.41-22.69C370.6,115.67,373,129,373,137.5c0,16.86-6.08,23.81-15,23.81h-.06m.27-8.86c2.78,0,4.1-5.29,4.1-14.42,0-7.67-1.06-13.49-4.17-13.49s-4.5,5.82-4.43,13.69c-.13,8.93,1.46,14.22,4.43,14.22Z" transform="translate(-11.39 -9.1)"/>
  <polyline class="gamblers-2" points="369.46 116.62 361.73 116.62 361.73 107.1 387.52 107.1 387.52 116.62 379.71 116.62 379.71 151.67 369.46 151.67 369.46 116.62"/>
  <polyline class="gamblers-2" points="397.25 116.62 389.51 116.62 389.51 107.1 415.3 107.1 415.3 116.62 407.5 116.62 407.5 151.67 397.25 151.67 397.25 116.62"/>
  <polyline class="gamblers-2" points="437.13 132.76 427.4 132.76 427.4 142.81 438.31 142.81 438.31 151.67 417.16 151.67 417.16 107.1 437.59 107.1 437.59 115.96 427.4 115.96 427.4 124.3 437.13 124.3 437.13 132.76"/>
  <path class="gamblers-2" d="M452.48,116.86a62.49,62.49,0,0,1,10.38-.86c4.9,0,9.59.6,12.7,3.37,2.9,2.58,3.71,5.56,3.71,9.53a11.87,11.87,0,0,1-6.75,11V140c2.9,1.32,4.36,4,5.15,8.33s2.12,10.71,3,12.43H469.94a56.64,56.64,0,0,1-2.18-10.51c-.66-5.29-1.86-6.55-4.1-6.55h-1v17.06H452.48V116.86m10.18,19H464c3.3,0,5-2.85,5-6.08s-1.26-5.69-4.43-5.82a5,5,0,0,0-1.85.27Z" transform="translate(-11.39 -9.1)"/>
  <path class="gamblers-2" d="M487.66,161.26V145l-9.79-28.31h10.91l2.65,10.39c.73,2.77,1.39,6,1.92,9.19h.14c.39-3.11.92-6.28,1.58-9.39l2.12-10.19h10.58l-9.86,27.91v16.67H487.66" transform="translate(-11.39 -9.1)"/>
  <path class="gamblers-2" d="M376.92,79.56h4.23V92h.12c.52-1.12,1-2.27,1.48-3.39l4.23-9h4.67l-6.27,11.62,6.43,15.29h-4.67l-4.63-12-1.36,2.4v9.58h-4.23V79.56" transform="translate(-11.39 -9.1)"/>
  <polyline class="gamblers-2" points="393.52 85.11 387.13 85.11 387.13 93.66 394.4 93.66 394.4 97.37 382.86 97.37 382.86 70.46 393.92 70.46 393.92 74.17 387.13 74.17 387.13 81.56 393.52 81.56 393.52 85.11"/>
  <path class="gamblers-2" d="M409.26,106.47V79.56h4l4.51,11.5c.92,2.43,2.28,5.91,3.11,8.51h.08c-.2-3.44-.43-7.59-.43-12.42V79.56h3.75v26.91h-4L415.73,95a88.55,88.55,0,0,1-2.91-8.54h-.08c.16,3.12.32,6.91.32,12.49v7.51h-3.79" transform="translate(-11.39 -9.1)"/>
  <polyline class="gamblers-2" points="420.55 74.38 415.72 74.38 415.72 70.46 429.69 70.46 429.69 74.38 424.82 74.38 424.82 97.37 420.55 97.37 420.55 74.38"/>
  <path class="gamblers-2" d="M448.11,79.56V97.29c0,4.36,1.35,5.75,3.07,5.75s3.07-1.35,3.07-5.75V79.56h4.27v17c0,7-2.72,10.22-7.39,10.22-4.91,0-7.3-3.32-7.3-10V79.56h4.27" transform="translate(-11.39 -9.1)"/>
  <path class="gamblers-2" d="M474.73,106a9.44,9.44,0,0,1-4,.68c-6.15,0-9.66-5-9.66-13.33,0-10.34,5.47-14.05,10.25-14.05a7.56,7.56,0,0,1,3.52.68l-.8,3.59a5.59,5.59,0,0,0-2.55-.52c-2.92,0-5.91,2.68-5.91,10s2.71,9.82,5.95,9.82a7,7,0,0,0,2.63-.48l.52,3.59" transform="translate(-11.39 -9.1)"/>
  <path class="gamblers-2" d="M477.72,79.56H482V92h.12c.52-1.12,1-2.27,1.48-3.39l4.23-9h4.67l-6.27,11.62,6.43,15.29h-4.67l-4.63-12L482,96.89v9.58h-4.23V79.56" transform="translate(-11.39 -9.1)"/>
  <path class="gamblers-2" d="M499,106.47V95.69L493.1,79.56h4.55l2.08,6.55c.56,1.8,1.16,3.87,1.68,5.91h.07c.4-2,1-4,1.56-6L505,79.56h4.43l-6.1,16v10.94H499" transform="translate(-11.39 -9.1)"/>
  <polyline class="gamblers-2" points="200.07 414.42 199.87 414.42 188.56 419.92 186.02 407.59 201.7 399.85 215.66 399.85 215.66 466.07 200.07 466.07 200.07 414.42"/>
  <rect class="gamblers-2" x="230.53" y="431.74" width="19.35" height="11.1"/>
  <path class="gamblers-2" d="M288,408.14c9.37,0,18.23,5.81,18.23,16.6,0,3.77-1.22,9.88-8.56,14.26v.2c6.11,3,10.08,9.17,10.08,16.91,0,13.14-9.88,19.86-21.09,19.86-11.51,0-20.58-6.52-20.58-18.54a19.57,19.57,0,0,1,9.58-17v-.2A16.65,16.65,0,0,1,267.79,426c0-11.1,9.07-17.83,20.07-17.83h.1m-.81,57.45c4,0,5.4-4.48,5.4-8.86a11.84,11.84,0,0,0-6.83-10.9c-2.55,1.83-4.48,5.3-4.48,10.08,0,5,1.83,9.68,5.8,9.68Zm.2-47.17c-3.67,0-4.89,3.87-4.89,7.24a9.36,9.36,0,0,0,5.8,8.76c2.24-.91,3.67-4.89,3.67-8.25,0-3.67-1-7.74-4.48-7.74Z" transform="translate(-11.39 -9.1)"/>
  <path class="gamblers-2" d="M332.27,476c-16.2,0-20.48-18.44-20.48-33.52,0-17.62,5.81-34.33,20.78-34.33,17.42,0,20,20.07,20,33.51,0,23.64-9.07,34.33-20.17,34.33h-.1m.31-13.45c3.16,0,4.17-5.6,4.17-20.47,0-13.66-.81-20.48-4.17-20.48s-5.09,5.4-5,20.48c-.2,15.27,1.33,20.47,4.89,20.47Z" transform="translate(-11.39 -9.1)"/>
  <path class="gamblers-2" d="M377.49,476c-16.2,0-20.48-18.44-20.48-33.52,0-17.62,5.81-34.33,20.78-34.33,17.42,0,20,20.07,20,33.51,0,23.64-9.07,34.33-20.17,34.33h-.1m.31-13.45c3.16,0,4.18-5.6,4.18-20.47,0-13.66-.82-20.48-4.18-20.48s-5.09,5.4-5,20.48c-.2,15.27,1.32,20.47,4.89,20.47Z" transform="translate(-11.39 -9.1)"/>
  <rect class="gamblers-2" x="391.67" y="431.74" width="19.36" height="11.1"/>
  <path class="gamblers-2" d="M471.2,473.34a52.16,52.16,0,0,1-15.08,2.45c-8.65,0-14.77-2.45-19.25-6.82-6.32-6-9.37-16.4-9.17-27.91.41-24.24,14.87-35.15,30.56-35.15A28.83,28.83,0,0,1,470.08,408l-2.55,13.55a17.7,17.7,0,0,0-7.85-1.53c-9.27,0-15.58,6-15.58,22.41,0,14.47,5.7,20.07,11,20.07a4.78,4.78,0,0,0,1.73-.2v-14h-5V435.54H471.2v37.79" transform="translate(-11.39 -9.1)"/>
  <path class="gamblers-2" d="M493,461.62l-2.34,13.55H475.37l14.57-68.66h19.15l12.53,68.66H506.34l-2.24-13.55H493m9.88-12.12-1.73-13c-.51-3.87-1.42-11.31-2-15.59h-.2c-.72,4.28-1.74,11.92-2.34,15.59l-2,13Z" transform="translate(-11.39 -9.1)"/>
  <path class="gamblers-2" d="M570.82,453.58c-.3-5.5-.71-13.75-.61-21H570c-1.12,7.23-3,15.79-3.87,20l-4.89,21.19H549.84l-4.69-21.19c-.91-4.18-2.65-12.74-3.57-20h-.2c-.31,7.23-.82,15.48-1.12,21l-1.12,21.6H525.79l5.3-68.66h16.5l4.38,22c1.73,8.56,3.47,16.5,4.59,24.25h.2c.92-7.54,2.44-15.79,4.08-24.25l4.38-22h16.4l4.28,68.66h-14l-1.12-21.6" transform="translate(-11.39 -9.1)"/>
  <path class="gamblers-2" d="M595.16,407.53A87.81,87.81,0,0,1,612,406.21c6.42,0,13.15.61,18.34,4.89,4,3.26,5.5,8,5.5,12.84a16,16,0,0,1-9.68,14.87v.41A16.13,16.13,0,0,1,638,455.11c0,5.7-1.83,10.08-5.1,13.44-4.17,4.48-11.4,7.23-24.45,7.23a97.42,97.42,0,0,1-13.34-.82V407.53m15.69,26.79h2.54c4.18,0,7-3.67,7-8.55,0-4.48-2.14-7.95-6.32-7.95a9.66,9.66,0,0,0-3.26.41Zm0,29.24a10.41,10.41,0,0,0,2.54.2c4.28,0,8.36-2.75,8.36-8.86,0-5.8-3.87-9-8.25-9h-2.65Z" transform="translate(-11.39 -9.1)"/>
  <polyline class="gamblers-2" points="635.92 397.41 651.71 397.41 651.71 452.73 668.52 452.73 668.52 466.07 635.92 466.07 635.92 397.41"/>
  <polyline class="gamblers-2" points="706.92 436.93 691.95 436.93 691.95 452.42 708.75 452.42 708.75 466.07 676.15 466.07 676.15 397.41 707.63 397.41 707.63 411.06 691.95 411.06 691.95 423.89 706.92 423.89 706.92 436.93"/>
  <path class="gamblers-2" d="M729.51,407.53a95.76,95.76,0,0,1,16-1.32c7.54,0,14.77.92,19.56,5.2,4.48,4,5.71,8.55,5.71,14.67A18.29,18.29,0,0,1,760.38,443v.2c4.48,2,6.72,6.11,7.94,12.83s3.26,16.5,4.59,19.15h-16.5c-.82-1.84-2.45-9-3.37-16.2-1-8.15-2.85-10.08-6.32-10.08H745.2v26.28H729.51V407.53m15.69,29.24h2c5.09,0,7.64-4.38,7.64-9.37s-1.93-8.76-6.83-9a7.69,7.69,0,0,0-2.85.41Z" transform="translate(-11.39 -9.1)"/>
  <polyline class="gamblers-2" points="763.94 402.12 761.16 402.12 761.16 400.48 768.47 400.48 768.47 402.12 765.68 402.12 765.68 416.51 763.94 416.51 763.94 402.12"/>
  <path class="gamblers-2" d="M790.73,418.71c-.11-2.12-.23-4.47-.16-6.28h-.09c-.34,1.78-.75,3.71-1.22,5.57l-1.85,7.52h-1.13l-1.77-7.21c-.52-2-.95-4-1.27-5.87h-.07c0,1.88-.09,4.11-.18,6.4l-.3,6.78h-1.56l.91-16h1.9l1.77,7.33c.52,2.12.9,3.68,1.22,5.52H787c.29-1.84.63-3.35,1.13-5.52l1.72-7.33h1.95l.88,16H791l-.31-6.9" transform="translate(-11.39 -9.1)"/>
  <path class="gamblers-2" d="M39.88,207.44a99.91,99.91,0,0,1,18.46-1.7c8.7,0,17,1.18,22.58,6.66,5.17,5.1,6.59,11,6.59,18.81,0,8.62-3.88,17.51-12,21.69v.26c5.17,2.61,7.76,7.84,9.17,16.46s3.76,21.16,5.29,24.56H70.93c-.94-2.35-2.82-11.49-3.88-20.77-1.18-10.45-3.29-12.93-7.29-12.93H58v33.7H39.88V207.44M58,244.93h2.35c5.88,0,8.82-5.62,8.82-12s-2.23-11.23-7.88-11.49a8.08,8.08,0,0,0-3.29.52Z" transform="translate(-11.39 -9.1)"/>
  <path class="gamblers-2" d="M112.31,270.4c.24,5.88,4.7,9.41,11.64,9.41a35.84,35.84,0,0,0,11.64-2.09l2.23,14.37A50,50,0,0,1,120.66,295c-16.58,0-25.87-11.1-25.87-31.35,0-21.95,11.06-34.75,24.69-34.75,12.7,0,21,9.67,21,31.22a60.24,60.24,0,0,1-.59,10.32H112.31m11.88-14c0-6.27-.94-13.06-5.65-13.06s-6.23,7.58-6.23,13.06Z" transform="translate(-11.39 -9.1)"/>
  <path class="gamblers-2" d="M148.76,276.67a22.29,22.29,0,0,0,10.94,3.39c3.41,0,5.29-1.3,5.29-4.18s-1.76-4.18-6.47-7.05c-10.23-6.14-11.76-13.32-11.76-18.55,0-12,7.64-21.42,20.34-21.42a27.06,27.06,0,0,1,12.35,2.87l-2.82,14.63a16.43,16.43,0,0,0-8.23-2.48c-3.53,0-5.06,2-5.06,4.31s1.29,3.53,6.59,6.79c9.29,5.62,11.52,12.67,11.52,19.2,0,13.32-8.7,20.77-21.75,20.77-5.06,0-11.17-1.44-13.88-3.66l2.94-14.63" transform="translate(-11.39 -9.1)"/>
  <path class="gamblers-2" d="M188.62,250.42c0-6.79-.23-13.72-.47-20.51h15.64l.94,7.18H205c2.11-4.57,6.35-8.23,12.11-8.23,13.76,0,18.34,16.85,18.34,33.18,0,22.47-9.05,33.18-19.17,33.18-4.35,0-7.64-3-9.29-5.75h-.23v29.78H188.62V250.42m18.11,20.38a13.59,13.59,0,0,0,.94,5.49c.94,1.7,2.12,2.48,3.53,2.48,4.47,0,6.23-7.71,6.23-16.59,0-11.76-2.59-16.33-6-16.33a4.2,4.2,0,0,0-3.88,2.87,10.56,10.56,0,0,0-.82,4.44Z" transform="translate(-11.39 -9.1)"/>
  <path class="gamblers-2" d="M265.4,295.22c-15.29,0-23.52-12.8-23.52-32.92,0-22.86,11.52-33.44,23.64-33.44,15.05,0,23.17,13.58,23.17,32.92,0,27.56-14.58,33.44-23.17,33.44h-.12m.35-15.15c3.76,0,4.94-9,4.94-18.16,0-8.49-1.18-17.9-5.17-17.9-4.59,0-5.64,9.4-5.64,17.9,0,11.1,1.53,18.16,5.76,18.16Z" transform="translate(-11.39 -9.1)"/>
  <path class="gamblers-2" d="M296.79,250.42c0-6.79-.24-14-.47-20.51H312l.94,7.32h.23a16.88,16.88,0,0,1,14.35-8.36c12.23,0,16,11.1,16,25v40.36H325.25V254.47c0-4.44-1.06-8.62-4.7-8.62-2,0-3.53,1.31-4.59,3.79a17.64,17.64,0,0,0-.94,6v38.53H296.79V250.42" transform="translate(-11.39 -9.1)"/>
  <path class="gamblers-2" d="M353.35,276.67a22.3,22.3,0,0,0,10.94,3.39c3.41,0,5.29-1.3,5.29-4.18s-1.76-4.18-6.47-7.05c-10.23-6.14-11.76-13.32-11.76-18.55,0-12,7.64-21.42,20.34-21.42A27.06,27.06,0,0,1,384,231.74l-2.82,14.63a16.44,16.44,0,0,0-8.23-2.48c-3.53,0-5.06,2-5.06,4.31s1.29,3.53,6.59,6.79c9.29,5.62,11.52,12.67,11.52,19.2,0,13.32-8.7,20.77-21.76,20.77-5.06,0-11.17-1.44-13.88-3.66l2.94-14.63" transform="translate(-11.39 -9.1)"/>
  <path class="gamblers-2" d="M401.91,223.24c-4.82,0-8.82-4.31-8.7-10.45-.12-6.53,4.12-10.58,8.94-10.58s8.94,4.05,8.94,10.58c.11,6.14-4,10.45-9.06,10.45h-.12m-8.7,6.66h18.23v64.27H393.21Z" transform="translate(-11.39 -9.1)"/>
  <path class="gamblers-2" d="M421.31,203.78h18.11V236h.24c2.7-3.92,6.11-7.18,12-7.18,12.11,0,16.58,15.28,16.58,31,0,22.21-7.76,35.4-19.4,35.4-4.23,0-7.76-1.44-11.29-8.23h-.23l-.94,7.18H420.84c.24-6.53.47-13.71.47-20.51V203.78m18.11,67.27a12.4,12.4,0,0,0,.71,4.18c.94,2.48,2.35,3.53,3.88,3.53,4.23,0,6.23-5.49,6.23-17.24,0-10.32-2.12-15.67-6.23-15.67-1.65,0-3.06,1.44-3.88,3.53a13.37,13.37,0,0,0-.71,3.79Z" transform="translate(-11.39 -9.1)"/>
  <rect class="gamblers-2" x="464.95" y="194.68" width="18.23" height="90.39"/>
  <path class="gamblers-2" d="M519.26,229.91l4.82,32c.47,3.27.94,6.4,1.29,9.67h.24c.35-3.14.59-6.27.94-9.4l3.88-32.27h17.75l-12.81,53.17c-2.47,10.32-6.23,21.42-12.23,29-5.29,6.66-11.76,9.67-14.35,10.32l-5.17-17.5a22.39,22.39,0,0,0,7.41-4.18,17.2,17.2,0,0,0,4.71-6.26,5.71,5.71,0,0,0,.82-2.62,8.33,8.33,0,0,0-.47-2.35l-16.46-59.57h19.64" transform="translate(-11.39 -9.1)"/>
  <path class="gamblers-2" d="M52.39,321.55H12.51V184.94l22.07-4.36a126.84,126.84,0,0,1,23.76-2.22,78,78,0,0,1,19.2,2.11,48.79,48.79,0,0,1,22.58,12.42,47.93,47.93,0,0,1,12.07,19.45,60.64,60.64,0,0,1,2.68,18.86,54.56,54.56,0,0,1-5.48,24,74.73,74.73,0,0,1,2.31,10c.57,3.52,1.32,7.8,2.07,11.54.59,3,1.28,6,1.58,7.07l17,37.67H52.39" transform="translate(-11.39 -9.1)"/>
  <path class="gamblers-2" d="M99.28,318.11a48.57,48.57,0,0,1-18.51-13.77c-9.9-12.12-13-26.62-13-40.73,0-11.66,2.17-22.7,7-32.63a52.85,52.85,0,0,1,22.8-24,48,48,0,0,1,22.28-5.45,47,47,0,0,1,20.57,4.58,45,45,0,0,1,16.94,14.34c8.49,12.09,10.82,25.51,10.91,39.67a85.27,85.27,0,0,1-1,15.18l-2.13,11.83,3.47,22.29-20.19,8.11c-9.08,3.47-17.54,4.7-27.36,4.84a55.4,55.4,0,0,1-21.72-4.23" transform="translate(-11.39 -9.1)"/>
  <path class="gamblers-2" d="M160,322.33a59.82,59.82,0,0,1-14.58-1.85c-4.88-1.42-9.74-2.65-16.66-8L116.09,302l6.89-34.3a47.26,47.26,0,0,1-3.25-17.45,49.7,49.7,0,0,1,12.52-33.62c8.58-9.7,22.11-15.36,35.2-15.18A54.63,54.63,0,0,1,192,207.23l18.62,9.27-6.79,35.18a48.52,48.52,0,0,1,5.34,22.51c.19,12.47-4.67,26.31-14.75,35.46-9.91,9.17-22.62,12.68-34.11,12.68H160" transform="translate(-11.39 -9.1)"/>
  <path class="gamblers-2" d="M161.59,346.63V250.41c0-6.16-.22-12.78-.45-19.57l-1-28.32h48.16a38.7,38.7,0,0,1,9.1-1,39.14,39.14,0,0,1,9.39,1h1.34l0,.34a40.59,40.59,0,0,1,14.68,7.25,47.15,47.15,0,0,1,13.77,17.8C262,240,263,251.29,263.14,262c0,11.17-1.62,21.37-5.45,30.77s-10.2,18.14-19.8,23.88a38.85,38.85,0,0,1-3.44,1.85v28.08H161.59" transform="translate(-11.39 -9.1)"/>
  <path class="gamblers-2" d="M243.14,317.21a47.78,47.78,0,0,1-17.25-15.29C217.49,289.56,215.06,276,215,262.31c0-15.92,4-30.74,13.26-42.38,9.09-11.67,23.7-18.62,37.75-18.43a47.21,47.21,0,0,1,39.94,21.3c8.07,12.24,10.52,25.56,10.6,39,0,13.88-2.75,26.31-8.91,36.68a49,49,0,0,1-24.62,21,47.85,47.85,0,0,1-17,3.15h-.12v0h-.16a49.1,49.1,0,0,1-22.56-5.39" transform="translate(-11.39 -9.1)"/>
  <path class="gamblers-2" d="M298.35,321.55H269.89V250.42c0-6.17-.22-13.07-.45-19.52l-1-28.36h50.06a42.68,42.68,0,0,1,9.48-1,42,42,0,0,1,21.85,5.92A41.25,41.25,0,0,1,364.54,223c6,11.4,6.62,21.45,6.78,30.82v67.73h-73" transform="translate(-11.39 -9.1)"/>
  <path class="gamblers-2" d="M364.75,322.33a59.75,59.75,0,0,1-14.58-1.84c-4.89-1.42-9.74-2.65-16.67-8L320.8,302l6.89-34.3a47.15,47.15,0,0,1-3.25-17.45A49.68,49.68,0,0,1,337,216.67c8.58-9.7,22.11-15.36,35.2-15.18a54.77,54.77,0,0,1,24.54,5.74l18.62,9.27-6.79,35.17a48.5,48.5,0,0,1,5.34,22.53c.2,12.46-4.66,26.31-14.75,35.46-9.91,9.17-22.6,12.68-34.09,12.68h-.29" transform="translate(-11.39 -9.1)"/>
  <path class="gamblers-2" d="M393.68,321.55V294.18h0v27.37H366.3V213.06s0,0,0-.24,0-.18,0-.29c0-.3,0-.59,0-.89v-9.1h1.24a37.38,37.38,0,0,1,8.67-16.09,35.82,35.82,0,0,1,53.22.48,37.54,37.54,0,0,1,8.21,15.61h1.63v119h-45.6m22.85-119,.26-.22Z" transform="translate(-11.39 -9.1)"/>
  <path class="gamblers-2" d="M440.09,321.55H392.93l1-28.35c.23-6.46.45-13.36.45-19.53V176.41h72.85v28a37.43,37.43,0,0,1,9.54,5.57,45.53,45.53,0,0,1,13.07,17.1c5.07,11.5,6.1,22.23,6.21,32.7,0,10.72-1.33,20.66-4.65,30.12s-8.92,18.81-19,25.62a40.83,40.83,0,0,1-11.54,5.38l-.08.61H458.6a40.22,40.22,0,0,1-9.31,1h-.65a38,38,0,0,1-8.55-1.05" transform="translate(-11.39 -9.1)"/>
  <rect class="gamblers-2" x="438.04" y="167.31" width="72.97" height="145.13"/>
  <path class="gamblers-2" d="M470.13,286.57,486,281.76l-21.9-79.23H583.41l-21,86.9c-3.08,12.13-7,26.14-17.42,39.66a61,61,0,0,1-14.86,13.45A49,49,0,0,1,516,348.93l-25.5,6.44-20.32-68.8" transform="translate(-11.39 -9.1)"/>
  <path class="gamblers-2" d="M93.85,132.72a85.5,85.5,0,0,1,17.4-1.7c10,0,17.64,1.31,23.29,6.92,5.06,4.83,7.17,12.41,7.17,19.73,0,10.19-2.94,17.5-7.53,22.6-5.17,5.49-13.4,7.84-19.52,7.84H112v31.35H93.85V132.72M112,171.78a11.56,11.56,0,0,0,2.12.13c7.29,0,9.64-6,9.64-12.41,0-7.05-2.59-12.28-8.47-12.28a8.34,8.34,0,0,0-3.29.65Z" transform="translate(-11.39 -9.1)"/>
  <rect class="gamblers-2" x="136.78" y="119.96" width="18.23" height="90.4"/>
  <path class="gamblers-2" d="M218.84,204.7a96.69,96.69,0,0,0,.94,14.76H203.56l-.94-6.14h-.24a15.56,15.56,0,0,1-13.29,7.18c-9.17,0-15.87-8.49-15.87-20,0-17.24,14.11-24,27.16-24.17v-1.18c0-3.53-2.94-6.27-7.64-6.27a21.88,21.88,0,0,0-12.7,3.92l-3.17-13.45a40.49,40.49,0,0,1,19.87-5.23c20.11,0,22.11,15.94,22.11,28.35V204.7M201,189c-5.29.13-10.7,2.48-10.7,9.27,0,5.49,2.94,7.58,4.94,7.58a5.62,5.62,0,0,0,5.41-3.79,8.12,8.12,0,0,0,.35-2.61Z" transform="translate(-11.39 -9.1)"/>
  <path class="gamblers-2" d="M242.36,155.19l4.82,32c.47,3.27.94,6.4,1.29,9.67h.24c.35-3.14.59-6.27.94-9.41l3.88-32.27h17.76l-12.82,53.17c-2.47,10.32-6.23,21.42-12.23,29-5.29,6.66-11.76,9.67-14.35,10.32l-5.17-17.51a22.44,22.44,0,0,0,7.41-4.18,17.17,17.17,0,0,0,4.7-6.27,5.64,5.64,0,0,0,.82-2.61,8.3,8.3,0,0,0-.47-2.35l-16.46-59.57h19.64" transform="translate(-11.39 -9.1)"/>
  <path class="gamblers-2" d="M66.48,246.83V110.76L87.91,106a112.32,112.32,0,0,1,23.34-2.35,78.66,78.66,0,0,1,20.31,2.28,49,49,0,0,1,34.37,32.13,61,61,0,0,1,3.15,19.61c.16,15.32-4.93,30.41-14.55,40.91l-.19.21-.24.26a50.37,50.37,0,0,1-14.77,10.71v37.07H66.48" transform="translate(-11.39 -9.1)"/>
  <rect class="gamblers-2" x="109.4" y="92.58" width="72.97" height="145.14"/>
  <path class="gamblers-2" d="M156.25,231.82a50.17,50.17,0,0,1-10.42-31.31,51.86,51.86,0,0,1,5.29-23.24q.6-1.22,1.27-2.39l-6.8-28.82,17.31-10.26a64.25,64.25,0,0,1,13.76-6,68.27,68.27,0,0,1,20.07-3A51.37,51.37,0,0,1,222,132.94a44.49,44.49,0,0,1,17.33,17.63c6.87,13.24,6.64,24.26,6.84,31.92V204.7a71.25,71.25,0,0,0,.6,10.47l5,31.66H198.64a43.41,43.41,0,0,1-9.56,1h-.46a42,42,0,0,1-32.36-16.05" transform="translate(-11.39 -9.1)"/>
  <path class="gamblers-2" d="M192.73,211.85,208.62,207l-21.9-79.22H306l-21,86.91c-3.08,12.13-7,26.13-17.42,39.66a61,61,0,0,1-14.86,13.44,49,49,0,0,1-14.22,6.39l-25.49,6.44-20.33-68.8" transform="translate(-11.39 -9.1)"/>
  <path class="gamblers-4" d="M39.88,207.44a99.91,99.91,0,0,1,18.46-1.7c8.7,0,17,1.18,22.58,6.66,5.17,5.1,6.59,11,6.59,18.81,0,8.62-3.88,17.51-12,21.69v.26c5.17,2.61,7.76,7.84,9.17,16.46s3.76,21.16,5.29,24.56H70.93c-.94-2.35-2.82-11.49-3.88-20.77-1.18-10.45-3.29-12.93-7.29-12.93H58v33.7H39.88V207.44M58,244.93h2.35c5.88,0,8.82-5.62,8.82-12s-2.23-11.23-7.88-11.49a8.08,8.08,0,0,0-3.29.52Z" transform="translate(-11.39 -9.1)"/>
  <path class="gamblers-4" d="M112.31,270.4c.24,5.88,4.7,9.41,11.64,9.41a35.84,35.84,0,0,0,11.64-2.09l2.23,14.37A50,50,0,0,1,120.66,295c-16.58,0-25.87-11.1-25.87-31.35,0-21.95,11.06-34.75,24.69-34.75,12.7,0,21,9.67,21,31.22a60.24,60.24,0,0,1-.59,10.32H112.31m11.88-14c0-6.27-.94-13.06-5.65-13.06s-6.23,7.58-6.23,13.06Z" transform="translate(-11.39 -9.1)"/>
  <path class="gamblers-4" d="M148.76,276.67a22.29,22.29,0,0,0,10.94,3.39c3.41,0,5.29-1.3,5.29-4.18s-1.76-4.18-6.47-7.05c-10.23-6.14-11.76-13.32-11.76-18.55,0-12,7.64-21.42,20.34-21.42a27.06,27.06,0,0,1,12.35,2.87l-2.82,14.63a16.43,16.43,0,0,0-8.23-2.48c-3.53,0-5.06,2-5.06,4.31s1.29,3.53,6.59,6.79c9.29,5.62,11.52,12.67,11.52,19.2,0,13.32-8.7,20.77-21.75,20.77-5.06,0-11.17-1.44-13.88-3.66l2.94-14.63" transform="translate(-11.39 -9.1)"/>
  <path class="gamblers-4" d="M188.62,250.42c0-6.79-.23-13.72-.47-20.51h15.64l.94,7.18H205c2.11-4.57,6.35-8.23,12.11-8.23,13.76,0,18.34,16.85,18.34,33.18,0,22.47-9.05,33.18-19.17,33.18-4.35,0-7.64-3-9.29-5.75h-.23v29.78H188.62V250.42m18.11,20.38a13.59,13.59,0,0,0,.94,5.49c.94,1.7,2.12,2.48,3.53,2.48,4.47,0,6.23-7.71,6.23-16.59,0-11.76-2.59-16.33-6-16.33a4.2,4.2,0,0,0-3.88,2.87,10.56,10.56,0,0,0-.82,4.44Z" transform="translate(-11.39 -9.1)"/>
  <path class="gamblers-4" d="M265.4,295.22c-15.29,0-23.52-12.8-23.52-32.92,0-22.86,11.52-33.44,23.64-33.44,15.05,0,23.17,13.58,23.17,32.92,0,27.56-14.58,33.44-23.17,33.44h-.12m.35-15.15c3.76,0,4.94-9,4.94-18.16,0-8.49-1.18-17.9-5.17-17.9-4.59,0-5.64,9.4-5.64,17.9,0,11.1,1.53,18.16,5.76,18.16Z" transform="translate(-11.39 -9.1)"/>
  <path class="gamblers-4" d="M296.79,250.42c0-6.79-.24-14-.47-20.51H312l.94,7.32h.23a16.88,16.88,0,0,1,14.35-8.36c12.23,0,16,11.1,16,25v40.36H325.25V254.47c0-4.44-1.06-8.62-4.7-8.62-2,0-3.53,1.31-4.59,3.79a17.64,17.64,0,0,0-.94,6v38.53H296.79V250.42" transform="translate(-11.39 -9.1)"/>
  <path class="gamblers-4" d="M353.35,276.67a22.3,22.3,0,0,0,10.94,3.39c3.41,0,5.29-1.3,5.29-4.18s-1.76-4.18-6.47-7.05c-10.23-6.14-11.76-13.32-11.76-18.55,0-12,7.64-21.42,20.34-21.42A27.06,27.06,0,0,1,384,231.74l-2.82,14.63a16.44,16.44,0,0,0-8.23-2.48c-3.53,0-5.06,2-5.06,4.31s1.29,3.53,6.59,6.79c9.29,5.62,11.52,12.67,11.52,19.2,0,13.32-8.7,20.77-21.76,20.77-5.06,0-11.17-1.44-13.88-3.66l2.94-14.63" transform="translate(-11.39 -9.1)"/>
  <path class="gamblers-4" d="M401.91,223.24c-4.82,0-8.82-4.31-8.7-10.45-.12-6.53,4.12-10.58,8.94-10.58s8.94,4.05,8.94,10.58c.11,6.14-4,10.45-9.06,10.45h-.12m-8.7,6.66h18.23v64.27H393.21Z" transform="translate(-11.39 -9.1)"/>
  <path class="gamblers-4" d="M421.31,203.78h18.11V236h.24c2.7-3.92,6.11-7.18,12-7.18,12.11,0,16.58,15.28,16.58,31,0,22.21-7.76,35.4-19.4,35.4-4.23,0-7.76-1.44-11.29-8.23h-.23l-.94,7.18H420.84c.24-6.53.47-13.71.47-20.51V203.78m18.11,67.27a12.4,12.4,0,0,0,.71,4.18c.94,2.48,2.35,3.53,3.88,3.53,4.23,0,6.23-5.49,6.23-17.24,0-10.32-2.12-15.67-6.23-15.67-1.65,0-3.06,1.44-3.88,3.53a13.37,13.37,0,0,0-.71,3.79Z" transform="translate(-11.39 -9.1)"/>
  <rect class="gamblers-4" x="464.95" y="194.68" width="18.23" height="90.39"/>
  <path class="gamblers-4" d="M519.26,229.91l4.82,32c.47,3.27.94,6.4,1.29,9.67h.24c.35-3.14.59-6.27.94-9.4l3.88-32.27h17.75l-12.81,53.17c-2.47,10.32-6.23,21.42-12.23,29-5.29,6.66-11.76,9.67-14.35,10.32l-5.17-17.5a22.39,22.39,0,0,0,7.41-4.18,17.2,17.2,0,0,0,4.71-6.26,5.71,5.71,0,0,0,.82-2.62,8.33,8.33,0,0,0-.47-2.35l-16.46-59.57h19.64" transform="translate(-11.39 -9.1)"/>
  <path class="gamblers-4" d="M93.85,132.72a85.5,85.5,0,0,1,17.4-1.7c10,0,17.64,1.31,23.29,6.92,5.06,4.83,7.17,12.41,7.17,19.73,0,10.19-2.94,17.5-7.53,22.6-5.17,5.49-13.4,7.84-19.52,7.84H112v31.35H93.85V132.72M112,171.78a11.56,11.56,0,0,0,2.12.13c7.29,0,9.64-6,9.64-12.41,0-7.05-2.59-12.28-8.47-12.28a8.34,8.34,0,0,0-3.29.65Z" transform="translate(-11.39 -9.1)"/>
  <rect class="gamblers-4" x="136.78" y="119.96" width="18.23" height="90.4"/>
  <path class="gamblers-4" d="M218.84,204.7a96.69,96.69,0,0,0,.94,14.76H203.56l-.94-6.14h-.24a15.56,15.56,0,0,1-13.29,7.18c-9.17,0-15.87-8.49-15.87-20,0-17.24,14.11-24,27.16-24.17v-1.18c0-3.53-2.94-6.27-7.64-6.27a21.88,21.88,0,0,0-12.7,3.92l-3.17-13.45a40.49,40.49,0,0,1,19.87-5.23c20.11,0,22.11,15.94,22.11,28.35V204.7M201,189c-5.29.13-10.7,2.48-10.7,9.27,0,5.49,2.94,7.58,4.94,7.58a5.62,5.62,0,0,0,5.41-3.79,8.12,8.12,0,0,0,.35-2.61Z" transform="translate(-11.39 -9.1)"/>
  <path class="gamblers-4" d="M242.36,155.19l4.82,32c.47,3.27.94,6.4,1.29,9.67h.24c.35-3.14.59-6.27.94-9.41l3.88-32.27h17.76l-12.82,53.17c-2.47,10.32-6.23,21.42-12.23,29-5.29,6.66-11.76,9.67-14.35,10.32l-5.17-17.51a22.44,22.44,0,0,0,7.41-4.18,17.17,17.17,0,0,0,4.7-6.27,5.64,5.64,0,0,0,.82-2.61,8.3,8.3,0,0,0-.47-2.35l-16.46-59.57h19.64" transform="translate(-11.39 -9.1)"/>
  <path class="gamblers-1" d="M508.27,216.66V190.54H463.56v27.74a25.7,25.7,0,0,0-10.42-2.65V190.53H410.65a21.22,21.22,0,0,0-8-1.57,21.74,21.74,0,0,0-16,7,24.22,24.22,0,0,0-6.19,16.52c0,.07,0,.14,0,.2,0,.23,0,.33,0,.33a26.5,26.5,0,0,0,.23,3.44,40.41,40.41,0,0,0-8.49-.88,33.11,33.11,0,0,0-23.44,9.25,25.78,25.78,0,0,0-6.24-5.38A27.78,27.78,0,0,0,328,215.62a28.67,28.67,0,0,0-7.77,1H283.05l.13,3.55a33.25,33.25,0,0,0-13-4.39q.6-2.22,1.13-4.38l16.76-69.5H206.39a42.65,42.65,0,0,0-9.66-1,54.68,54.68,0,0,0-17.09,2.82v-27.9H134.91v6.37a36.77,36.77,0,0,0-7-2.61,65,65,0,0,0-16.68-1.8,98.48,98.48,0,0,0-20.28,2L80.6,122.09v74.34a39,39,0,0,0-6.52-2.26,64.16,64.16,0,0,0-15.73-1.68,112.4,112.4,0,0,0-21,1.95l-10.68,2.11V307.42h83.83l-.25-.55a40.74,40.74,0,0,0,10.19,1.34H121a62.78,62.78,0,0,0,21.58-3.65,37,37,0,0,0,6.37,2.25,45.76,45.76,0,0,0,11.09,1.4h.15a39.36,39.36,0,0,0,15.53-3.07v27.37h44.6V308.23a29.61,29.61,0,0,0,19.19-11.69,34,34,0,0,0,25.67,11.93h.8a33.7,33.7,0,0,0,18-5.29v4.24H356.5a45.77,45.77,0,0,0,8.25.78h.15a39.36,39.36,0,0,0,15.53-3.07v2.29h61.48a24.82,24.82,0,0,0,7,1h.35a27.41,27.41,0,0,0,14.26-4v3H491l9.14,30.93,12.34-3.12a35.27,35.27,0,0,0,10.06-4.59A47,47,0,0,0,534,320.31c8.13-10.45,12-23,14.74-34.15l16.75-69.5H508.27m-304.9-18.87-1.59.5h0Zm-74,.89a41.91,41.91,0,0,0,5.57-2.52v23a32.1,32.1,0,0,0-9.71-3.16V200Q127.26,199.43,129.34,198.68Z" transform="translate(-11.39 -9.1)"/>
  <path class="gamblers-2" d="M39.88,207.44a99.91,99.91,0,0,1,18.46-1.7c8.7,0,17,1.18,22.58,6.66,5.17,5.1,6.59,11,6.59,18.81,0,8.62-3.88,17.51-12,21.69v.26c5.17,2.61,7.76,7.84,9.17,16.46s3.76,21.16,5.29,24.56H70.93c-.94-2.35-2.82-11.49-3.88-20.77-1.18-10.45-3.29-12.93-7.29-12.93H58v33.7H39.88V207.44M58,244.93h2.35c5.88,0,8.82-5.62,8.82-12s-2.23-11.23-7.88-11.49a8.08,8.08,0,0,0-3.29.52Z" transform="translate(-11.39 -9.1)"/>
  <path class="gamblers-2" d="M112.31,270.4c.24,5.88,4.7,9.41,11.64,9.41a35.84,35.84,0,0,0,11.64-2.09l2.23,14.37A50,50,0,0,1,120.66,295c-16.58,0-25.87-11.1-25.87-31.35,0-21.95,11.06-34.75,24.69-34.75,12.7,0,21,9.67,21,31.22a60.24,60.24,0,0,1-.59,10.32H112.31m11.88-14c0-6.27-.94-13.06-5.65-13.06s-6.23,7.58-6.23,13.06Z" transform="translate(-11.39 -9.1)"/>
  <path class="gamblers-2" d="M148.76,276.67a22.29,22.29,0,0,0,10.94,3.39c3.41,0,5.29-1.3,5.29-4.18s-1.76-4.18-6.47-7.05c-10.23-6.14-11.76-13.32-11.76-18.55,0-12,7.64-21.42,20.34-21.42a27.06,27.06,0,0,1,12.35,2.87l-2.82,14.63a16.43,16.43,0,0,0-8.23-2.48c-3.53,0-5.06,2-5.06,4.31s1.29,3.53,6.59,6.79c9.29,5.62,11.52,12.67,11.52,19.2,0,13.32-8.7,20.77-21.75,20.77-5.06,0-11.17-1.44-13.88-3.66l2.94-14.63" transform="translate(-11.39 -9.1)"/>
  <path class="gamblers-2" d="M188.62,250.42c0-6.79-.23-13.72-.47-20.51h15.64l.94,7.18H205c2.11-4.57,6.35-8.23,12.11-8.23,13.76,0,18.34,16.85,18.34,33.18,0,22.47-9.05,33.18-19.17,33.18-4.35,0-7.64-3-9.29-5.75h-.23v29.78H188.62V250.42m18.11,20.38a13.59,13.59,0,0,0,.94,5.49c.94,1.7,2.12,2.48,3.53,2.48,4.47,0,6.23-7.71,6.23-16.59,0-11.76-2.59-16.33-6-16.33a4.2,4.2,0,0,0-3.88,2.87,10.56,10.56,0,0,0-.82,4.44Z" transform="translate(-11.39 -9.1)"/>
  <path class="gamblers-2" d="M265.4,295.22c-15.29,0-23.52-12.8-23.52-32.92,0-22.86,11.52-33.44,23.64-33.44,15.05,0,23.17,13.58,23.17,32.92,0,27.56-14.58,33.44-23.17,33.44h-.12m.35-15.15c3.76,0,4.94-9,4.94-18.16,0-8.49-1.18-17.9-5.17-17.9-4.59,0-5.64,9.4-5.64,17.9,0,11.1,1.53,18.16,5.76,18.16Z" transform="translate(-11.39 -9.1)"/>
  <path class="gamblers-2" d="M296.79,250.42c0-6.79-.24-14-.47-20.51H312l.94,7.32h.23a16.88,16.88,0,0,1,14.35-8.36c12.23,0,16,11.1,16,25v40.36H325.25V254.47c0-4.44-1.06-8.62-4.7-8.62-2,0-3.53,1.31-4.59,3.79a17.64,17.64,0,0,0-.94,6v38.53H296.79V250.42" transform="translate(-11.39 -9.1)"/>
  <path class="gamblers-2" d="M353.35,276.67a22.3,22.3,0,0,0,10.94,3.39c3.41,0,5.29-1.3,5.29-4.18s-1.76-4.18-6.47-7.05c-10.23-6.14-11.76-13.32-11.76-18.55,0-12,7.64-21.42,20.34-21.42A27.06,27.06,0,0,1,384,231.74l-2.82,14.63a16.44,16.44,0,0,0-8.23-2.48c-3.53,0-5.06,2-5.06,4.31s1.29,3.53,6.59,6.79c9.29,5.62,11.52,12.67,11.52,19.2,0,13.32-8.7,20.77-21.76,20.77-5.06,0-11.17-1.44-13.88-3.66l2.94-14.63" transform="translate(-11.39 -9.1)"/>
  <path class="gamblers-2" d="M401.91,223.24c-4.82,0-8.82-4.31-8.7-10.45-.12-6.53,4.12-10.58,8.94-10.58s8.94,4.05,8.94,10.58c.11,6.14-4,10.45-9.06,10.45h-.12m-8.7,6.66h18.23v64.27H393.21Z" transform="translate(-11.39 -9.1)"/>
  <path class="gamblers-2" d="M421.31,203.78h18.11V236h.24c2.7-3.92,6.11-7.18,12-7.18,12.11,0,16.58,15.28,16.58,31,0,22.21-7.76,35.4-19.4,35.4-4.23,0-7.76-1.44-11.29-8.23h-.23l-.94,7.18H420.84c.24-6.53.47-13.71.47-20.51V203.78m18.11,67.27a12.4,12.4,0,0,0,.71,4.18c.94,2.48,2.35,3.53,3.88,3.53,4.23,0,6.23-5.49,6.23-17.24,0-10.32-2.12-15.67-6.23-15.67-1.65,0-3.06,1.44-3.88,3.53a13.37,13.37,0,0,0-.71,3.79Z" transform="translate(-11.39 -9.1)"/>
  <rect class="gamblers-2" x="464.95" y="194.68" width="18.23" height="90.39"/>
  <path class="gamblers-2" d="M519.26,229.91l4.82,32c.47,3.27.94,6.4,1.29,9.67h.24c.35-3.14.59-6.27.94-9.4l3.88-32.27h17.75l-12.81,53.17c-2.47,10.32-6.23,21.42-12.23,29-5.29,6.66-11.76,9.67-14.35,10.32l-5.17-17.5a22.39,22.39,0,0,0,7.41-4.18,17.2,17.2,0,0,0,4.71-6.26,5.71,5.71,0,0,0,.82-2.62,8.33,8.33,0,0,0-.47-2.35l-16.46-59.57h19.64" transform="translate(-11.39 -9.1)"/>
  <path class="gamblers-2" d="M93.85,132.72a85.73,85.73,0,0,1,17.4-1.7c10,0,17.64,1.31,23.29,6.92,5.06,4.83,7.17,12.41,7.17,19.73,0,10.19-2.94,17.5-7.53,22.6-5.17,5.49-13.4,7.84-19.52,7.84H112v31.35H93.85V132.72M112,171.78a11.49,11.49,0,0,0,2.12.13c7.29,0,9.64-6,9.64-12.41,0-7.05-2.59-12.28-8.47-12.28a8.33,8.33,0,0,0-3.29.65Z" transform="translate(-11.39 -9.1)"/>
  <rect class="gamblers-2" x="136.79" y="119.96" width="18.23" height="90.4"/>
  <path class="gamblers-2" d="M218.85,204.7a96.81,96.81,0,0,0,.94,14.76H203.56l-.94-6.14h-.23a15.57,15.57,0,0,1-13.29,7.18c-9.17,0-15.87-8.49-15.87-20,0-17.24,14.11-24,27.16-24.17v-1.18c0-3.53-2.94-6.27-7.64-6.27a21.88,21.88,0,0,0-12.7,3.92l-3.18-13.46a40.5,40.5,0,0,1,19.87-5.23c20.11,0,22.11,15.94,22.11,28.35V204.7M201,189c-5.29.13-10.7,2.48-10.7,9.27,0,5.49,2.94,7.58,4.94,7.58a5.62,5.62,0,0,0,5.41-3.79,8.11,8.11,0,0,0,.35-2.61Z" transform="translate(-11.39 -9.1)"/>
  <path class="gamblers-2" d="M242.36,155.19l4.82,32c.47,3.26.94,6.4,1.29,9.67h.23c.35-3.13.59-6.27.94-9.4l3.88-32.27h17.76l-12.82,53.17c-2.47,10.32-6.23,21.42-12.23,29-5.29,6.66-11.76,9.67-14.35,10.32l-5.17-17.5a22.45,22.45,0,0,0,7.41-4.18,17.16,17.16,0,0,0,4.7-6.27,5.63,5.63,0,0,0,.82-2.61,8.36,8.36,0,0,0-.47-2.35l-16.46-59.57h19.64" transform="translate(-11.39 -9.1)"/>
  <path class="gamblers-2" d="M634.66,285.45c0,14.37-10.37,26-23.12,26s-23.12-11.67-23.12-26,10.37-26,23.12-26,23.12,11.68,23.12,26m-32.42-50.9c-2.92-13.77-13-67.36-13-100.29,0-20.66,8-32.33,22.33-32.33,14.09,0,22.06,11.37,22.06,32.33,0,24.85-10.1,89.52-13.29,102.09-2.39,9.58-3.72,10.78-8.77,10.78C605.95,247.13,604.62,245.63,602.23,234.55Z" transform="translate(-11.39 -9.1)"/>
  <path class="gamblers-2" d="M547.08,184a3,3,0,0,0-3.12-3.12,2.55,2.55,0,0,0-2.88,2.69,1.82,1.82,0,0,0,1.49,1.95l3.6,1a3.82,3.82,0,0,1,2.86,4.11c0,3.63-2.77,4.64-4.93,4.64a4.52,4.52,0,0,1-3.81-1.48A5.32,5.32,0,0,1,539,189.9h1.6a3.24,3.24,0,0,0,3.47,3.59c1.23,0,3.3-.38,3.3-2.59,0-1.6-.62-2.12-2.68-2.71l-2.58-.73a3.44,3.44,0,0,1-2.68-3.61c0-2.39,1.28-4.75,4.33-4.75,4.4,0,4.84,3.21,4.91,4.9h-1.59" transform="translate(-11.39 -9.1)"/>
  <g>
    <path class="gamblers-2" d="M561.55,194.86v-9.07c0-.45,0-2.39,0-3.83h0L558,194.86h-1.68L552.78,182h0c0,1.41,0,3.36,0,3.81v9.07h-1.65V179.51h2.44l3.6,13h0l3.58-13h2.42v15.35h-1.65" transform="translate(-11.39 -9.1)"/>
    <path class="gamblers-2" d="M814.84,623.73l-.57-11.7-.05-1.19v-69.5h-12V520.92l-36.95,6.3-16.79,2.86-26.32,4.49v6.14a67,67,0,0,0-8.51-.59,81,81,0,0,0-29.81,5.31,48.63,48.63,0,0,0-8.29-3.25V523.71H613.91a81.21,81.21,0,0,0-14-1.27c-22.9,0-41.94,8.74-54.28,23.45a47.16,47.16,0,0,0-20.59-4.76c-1.33,0-2.64.1-4,.2h-12V520.92l-37,6.3-16.79,2.86-26.32,4.49v6.76H375.35c-.6-.12-1.2-.24-1.81-.35V523.64H260v17.64c-.94-.05-1.86-.15-2.81-.15a47.34,47.34,0,0,0-8.89.87v-18.3h-112v16.63c-.74-.05-1.49-.07-2.23-.1l.48-5.08-24.4-7.68c-7.49-2.35-17.56-5.05-29.13-5.05-41,0-69.58,28-69.58,68,0,21.75,8.77,40.51,24.69,52.82,12.18,9.42,28.16,14.61,45,14.61a97.88,97.88,0,0,0,24.68-3.07c1.28.45,2.58.86,3.92,1.22l0,.66h2.7a56.59,56.59,0,0,0,11.66,1.2,51.86,51.86,0,0,0,11.19-1.2H248.29V638.42a46.67,46.67,0,0,0,28-3.18V656.7h76.57a67.82,67.82,0,0,0,12.58,1.2,85.88,85.88,0,0,0,14.38-1.2h87.07a65.33,65.33,0,0,0,12.51,1.2,89.64,89.64,0,0,0,12.94-1l30.8-3.82-.67-13.89c.86,0,1.71.13,2.57.13a47.14,47.14,0,0,0,20.73-4.84,62.09,62.09,0,0,0,9.24,8.83c12.18,9.42,28.16,14.61,45,14.61a98.8,98.8,0,0,0,15.56-1.2h79a56.56,56.56,0,0,0,11.66,1.2,51.84,51.84,0,0,0,11.19-1.2H760a65.28,65.28,0,0,0,12.5,1.2,89.79,89.79,0,0,0,13-1l1.65-.22,29.14-3.61-1.42-29.33M785.18,641l-1.86.25a75.35,75.35,0,0,1-10.8.87,43.72,43.72,0,0,1-15.59-2.58l.25,1.38H715.69a35.69,35.69,0,0,1-9.4,1.2,41.26,41.26,0,0,1-10.94-1.43v.23H614.28a82.15,82.15,0,0,1-14.27,1.2c-20.14,0-41.46-9.74-50-30.69a32,32,0,0,1-25,12.09,31.52,31.52,0,0,1-19.5-6.81l1.09,22.49L492.07,641l-1.86.25a75.41,75.41,0,0,1-10.8.87,48.17,48.17,0,0,1-10.93-1.2h-90a69.05,69.05,0,0,1-13,1.2,47.33,47.33,0,0,1-24-6.26v5.06H292.13v-56h-3a34.1,34.1,0,0,1,.45,5.29c0,18.37-14.54,33.31-32.42,33.31a31.89,31.89,0,0,1-24.7-11.87v29.27h-99a35.68,35.68,0,0,1-9.4,1.2,38.5,38.5,0,0,1-17.27-3.85l-2.12.55-.35.09a85.11,85.11,0,0,1-23.25,3.21c-25.94,0-53.86-16.15-53.86-51.62,0-31.23,21.61-52.21,53.77-52.21a62.2,62.2,0,0,1,6.88.39,92.42,92.42,0,0,1,17.5,3.93l12.2,3.84-1,11A71.21,71.21,0,0,1,131.45,556a45.06,45.06,0,0,1,20.62,4.59v-21h80.4v29.26A31.66,31.66,0,0,1,275.81,563V539.46h81.92v16.82a50.58,50.58,0,0,1,5.46-.32,46.06,46.06,0,0,1,10.45,1.2h71.28v-9.23l13.15-2.24,16.8-2.86,18.48-3.15v17.49h12v6.79a31.59,31.59,0,0,1,19.77-7,32.08,32.08,0,0,1,25,12.11c7.6-19,25.77-30.81,49.85-30.81a66.69,66.69,0,0,1,12.57,1.27h47.28V556h.88a34.35,34.35,0,0,1,21.74,7.26l5.36-2.29a64.83,64.83,0,0,1,26-5A48.83,48.83,0,0,1,728,558v-.84H738v-9.23l13.15-2.24,16.8-2.86,18.48-3.15v17.49h12v44.23h-.48l1.84,37.78Z" transform="translate(-11.39 -9.1)"/>
  </g>
  <path class="gamblers-1" d="M131.83,601.66c-5.79,0-10.34,1.9-10.34,6.9,0,3.6,3,5.7,7,5.7,6.45,0,10.53-6.2,10.53-12.3-2.18-.1-4.65-.3-7.21-.3" transform="translate(-11.39 -9.1)"/>
  <path class="gamblers-1" d="M372.76,594.06c0-6-2.66-10.9-9.49-10.9-6.17,0-9.11,4.9-9.49,10.9h19" transform="translate(-11.39 -9.1)"/>
  <path class="gamblers-1" d="M721.28,602c-2.19-.1-4.65-.3-7.21-.3-5.79,0-10.34,1.9-10.34,6.9,0,3.6,3,5.7,7,5.7,6.45,0,10.54-6.2,10.54-12.3" transform="translate(-11.39 -9.1)"/>
  <path class="gamblers-1" d="M798.39,585.57V557.15h-12V539.66L768,542.82l-16.8,2.86L738,547.92v9.23H728s-9.08-1.2-14.27-1.2a64.83,64.83,0,0,0-26,5l-5.36,2.29A34.35,34.35,0,0,0,660.64,556h-.88V539.53H612.49a66.69,66.69,0,0,0-12.57-1.27c-24.08,0-42.25,11.78-49.85,30.81a32.08,32.08,0,0,0-25-12.11,31.59,31.59,0,0,0-19.77,7v-6.79h-12V539.66l-18.48,3.15-16.8,2.86-13.15,2.24v9.23H373.63a46.06,46.06,0,0,0-10.45-1.2,50.58,50.58,0,0,0-5.46.32V539.46H275.81V563a31.66,31.66,0,0,0-43.33,5.76V539.53h-80.4v21A45.06,45.06,0,0,0,131.45,556a71.21,71.21,0,0,0-14.93,1.51l1-11-12.2-3.84a92.42,92.42,0,0,0-17.5-3.93,62.2,62.2,0,0,0-6.88-.39c-32.16,0-53.77,21-53.77,52.21,0,35.46,27.92,51.62,53.86,51.62a85.11,85.11,0,0,0,23.25-3.21l.35-.09,2.12-.55a38.5,38.5,0,0,0,17.27,3.85,35.68,35.68,0,0,0,9.4-1.2h99V611.61a31.89,31.89,0,0,0,24.7,11.87c34.44,0,34.44-38.6,34.44-38.6h.5v56h49.28v-5.06a47.33,47.33,0,0,0,24,6.26,69.05,69.05,0,0,0,13-1.2h90a48.17,48.17,0,0,0,10.93,1.2,75.41,75.41,0,0,0,10.8-.87l1.86-.25,14.57-1.8-1.09-22.49a31.52,31.52,0,0,0,19.5,6.81,32,32,0,0,0,25-12.09c8.53,20.94,29.86,30.69,50,30.69a82.15,82.15,0,0,0,14.27-1.2h81.06v-.23a41.26,41.26,0,0,0,10.94,1.43,35.69,35.69,0,0,0,9.4-1.2h41.49l-.25-1.38a43.72,43.72,0,0,0,15.59,2.58,75.35,75.35,0,0,0,10.8-.87l1.86-.25,14.57-1.8L799,624.5l-.65-38.93M199.58,555.34h17.08v69.72H199.58Zm-59.3,69.72c-.09-2.8-.38-5.5-.38-8.2h-.19c-3.89,6.5-8.63,9.4-15.65,9.4-9.77,0-18.5-5.1-18.5-16.4,0-15.9,16.41-17.8,25.52-17.8a47.69,47.69,0,0,1,8,.7c-.1-7.1-5.12-9-11.29-9a30.84,30.84,0,0,0-15.75,3.9l-.28-12.2a48.85,48.85,0,0,1,19.73-3.7c12.62,0,23.53,5.7,23.53,21.6v19.4a67.09,67.09,0,0,0,.95,12.3Zm-59.3-71c6.74,0,13.28,1.6,19.64,3.6l-1.42,15.1a33.32,33.32,0,0,0-17.27-4.9c-12.53,0-20.68,9.6-20.68,22.6,0,13.7,9.2,22,22.11,22a44.53,44.53,0,0,0,16.51-3.6l.85,14.6a70,70,0,0,1-19.64,2.8c-17.65,0-38-9.4-38-35.8C43,566.17,59.15,554.07,81,554.07Zm86.92,1.27H185v69.72H167.89Zm585.65,51.42V585.57h-9.78V573h10.06v-11.7l16.79-2.86V573h12v12.6h-12v19.2c0,6.3,1.43,9.5,6.83,9.5a31.58,31.58,0,0,0,5.22-.7l.57,11.7a77.72,77.72,0,0,1-10.73,1C757.24,626.26,753.54,619.16,753.54,606.76Zm-31.41,10.1h-.19c-3.89,6.5-8.63,9.4-15.66,9.4-9.77,0-18.5-5.1-18.5-16.4,0-15.9,16.41-17.8,25.53-17.8a47.71,47.71,0,0,1,8,.7c-.1-7.1-5.12-9-11.29-9a30.83,30.83,0,0,0-15.75,3.9l-.29-12.2a48.86,48.86,0,0,1,19.73-3.7c12.62,0,23.53,5.7,23.53,21.6v19.4a66.83,66.83,0,0,0,1,12.3H722.51C722.42,622.26,722.13,619.56,722.13,616.86ZM562,590.47c0-24.3,16.13-36.4,38-36.4,6.74,0,13.29,1.6,19.64,3.6l-1.43,15.1a33.32,33.32,0,0,0-17.26-4.9c-12.53,0-20.69,9.6-20.69,22.6,0,13.7,9.2,22,22.11,22a44.51,44.51,0,0,0,16.5-3.6l.86,14.6a70,70,0,0,1-19.64,2.8C582.37,626.26,562,616.86,562,590.47Zm82,12.6v22H626.87V555.34h17.08v25.33h.19c3.7-5.4,9.1-8.9,16.51-8.9,13.47,0,18.88,10,18.88,20.8v32.5H662.45v-25.2c0-9.8-3.22-13.1-7.88-13.1C647.55,586.77,643.95,591.87,643.95,603.06Zm-118.89,4.6c-9.11,0-16.51-7.9-16.51-17.5s7.4-17.4,16.51-17.4,16.6,7.8,16.6,17.4S534.16,607.66,525.05,607.66ZM336.71,599c0-17.2,11.1-27.2,26.47-27.2,18.31,0,25,13.7,25,29.2v3.3H354c.95,7.2,6.17,10,14.51,10a30.66,30.66,0,0,0,15.09-4V623a47.2,47.2,0,0,1-18.12,3.3C349.14,626.26,336.71,616.16,336.71,599Zm-11.12-29.9v56H307.94v-56H291.62v-13.8h50.29v13.8ZM420,608.86l-8.16,16.2H392.59l16.8-26.5L393.92,573h20.21l7.31,15.6,7.68-15.6h18.69l-15.47,25.4,16.51,26.7H428.27Zm40.42-2.1V585.57h-9.77V573h10.05v-11.7l16.8-2.86V573h12v12.6h-12v19.2c0,6.3,1.42,9.5,6.83,9.5a31.57,31.57,0,0,0,5.22-.7l.56,11.7a77.47,77.47,0,0,1-10.72,1C464.14,626.26,460.44,619.16,460.44,606.76Zm-203.26.9c-9.11,0-16.51-7.9-16.51-17.5s7.4-17.4,16.51-17.4,16.6,7.8,16.6,17.4S266.29,607.66,257.18,607.66Z" transform="translate(-11.39 -9.1)"/>
  <path class="gamblers-2" d="M81.07,626.26a70,70,0,0,0,19.64-2.8l-.85-14.6a44.53,44.53,0,0,1-16.51,3.6c-12.91,0-22.11-8.3-22.11-22,0-13,8.16-22.6,20.68-22.6a33.32,33.32,0,0,1,17.27,4.9l1.42-15.1c-6.36-2-12.9-3.6-19.64-3.6-21.82,0-38,12.1-38,36.4,0,26.4,20.4,35.8,38,35.8" transform="translate(-11.39 -9.1)"/>
  <path class="gamblers-2" d="M155,593.37c0-15.9-10.91-21.6-23.53-21.6a48.85,48.85,0,0,0-19.73,3.7l.28,12.2a30.84,30.84,0,0,1,15.75-3.9c6.17,0,11.2,1.9,11.29,9a47.69,47.69,0,0,0-8-.7c-9.11,0-25.52,1.9-25.52,17.8,0,11.3,8.73,16.4,18.5,16.4,7,0,11.77-2.9,15.65-9.4h.19c0,2.7.29,5.4.38,8.2h15.66a67.09,67.09,0,0,1-.95-12.3v-19.4m-26.47,20.9c-4,0-7-2.1-7-5.7,0-5,4.55-6.9,10.34-6.9,2.56,0,5,.2,7.21.3C139,608.06,135,614.26,128.51,614.26Z" transform="translate(-11.39 -9.1)"/>
  <rect class="gamblers-2" x="156.5" y="546.24" width="17.08" height="69.72"/>
  <rect class="gamblers-2" x="188.19" y="546.24" width="17.08" height="69.72"/>
  <path class="gamblers-2" d="M273.78,590.17c0-9.6-7.5-17.4-16.6-17.4s-16.51,7.8-16.51,17.4,7.4,17.5,16.51,17.5,16.6-7.9,16.6-17.5" transform="translate(-11.39 -9.1)"/>
  <polyline class="gamblers-2" points="330.52 546.16 280.23 546.16 280.23 559.96 296.55 559.96 296.55 615.96 314.2 615.96 314.2 559.96 330.52 559.96 330.52 546.16"/>
  <path class="gamblers-2" d="M365.46,626.26a47.2,47.2,0,0,0,18.12-3.3v-12.7a30.66,30.66,0,0,1-15.09,4c-8.35,0-13.57-2.8-14.51-10h34.16V601c0-15.5-6.64-29.2-25-29.2-15.37,0-26.47,10-26.47,27.2s12.43,27.3,28.75,27.3m-2.18-43.09c6.83,0,9.49,4.9,9.49,10.9h-19C354.17,588.07,357.11,583.17,363.27,583.17Z" transform="translate(-11.39 -9.1)"/>
  <polyline class="gamblers-2" points="437.47 615.96 420.96 589.26 436.43 563.86 417.74 563.86 410.05 579.46 402.74 563.86 382.54 563.86 398 589.46 381.2 615.96 400.47 615.96 408.63 599.76 416.88 615.96 437.47 615.96"/>
  <path class="gamblers-2" d="M490.13,625.26l-.56-11.7a31.57,31.57,0,0,1-5.22.7c-5.41,0-6.83-3.2-6.83-9.5v-19.2h12V573h-12V558.4l-16.8,2.86V573H450.67v12.6h9.77v21.19c0,12.4,3.7,19.5,19,19.5a77.47,77.47,0,0,0,10.72-1" transform="translate(-11.39 -9.1)"/>
  <path class="gamblers-2" d="M525.05,572.77c-9.11,0-16.51,7.8-16.51,17.4s7.4,17.5,16.51,17.5,16.6-7.9,16.6-17.5-7.5-17.4-16.6-17.4" transform="translate(-11.39 -9.1)"/>
  <path class="gamblers-2" d="M600,626.26a70,70,0,0,0,19.64-2.8l-.86-14.6a44.51,44.51,0,0,1-16.5,3.6c-12.91,0-22.11-8.3-22.11-22,0-13,8.16-22.6,20.69-22.6a33.32,33.32,0,0,1,17.26,4.9l1.43-15.1c-6.36-2-12.9-3.6-19.64-3.6-21.82,0-38,12.1-38,36.4,0,26.4,20.4,35.8,38,35.8" transform="translate(-11.39 -9.1)"/>
  <path class="gamblers-2" d="M662.45,599.87v25.2h17.08v-32.5c0-10.8-5.41-20.8-18.88-20.8-7.4,0-12.81,3.5-16.51,8.9h-.19V555.34H626.87v69.72h17.08v-22c0-11.2,3.6-16.3,10.62-16.3,4.65,0,7.88,3.3,7.88,13.1" transform="translate(-11.39 -9.1)"/>
  <path class="gamblers-2" d="M738.17,625.06a66.83,66.83,0,0,1-1-12.3v-19.4c0-15.9-10.91-21.6-23.53-21.6a48.86,48.86,0,0,0-19.73,3.7l.29,12.2a30.83,30.83,0,0,1,15.75-3.9c6.17,0,11.2,1.9,11.29,9a47.71,47.71,0,0,0-8-.7c-9.11,0-25.53,1.9-25.53,17.8,0,11.3,8.73,16.4,18.5,16.4,7,0,11.77-2.9,15.66-9.4h.19c0,2.7.29,5.4.38,8.2h15.66m-34.44-16.5c0-5,4.55-6.9,10.34-6.9,2.56,0,5,.2,7.21.3,0,6.1-4.08,12.3-10.54,12.3C706.76,614.26,703.73,612.16,703.73,608.57Z" transform="translate(-11.39 -9.1)"/>
  <path class="gamblers-2" d="M782.67,613.56a31.58,31.58,0,0,1-5.22.7c-5.4,0-6.83-3.2-6.83-9.5v-19.2h12V573h-12V558.4l-16.79,2.86V573H743.77v12.6h9.78v21.19c0,12.4,3.7,19.5,19,19.5a77.72,77.72,0,0,0,10.73-1l-.57-11.7" transform="translate(-11.39 -9.1)"/>
</svg>
