<svg style="fill: #e12726;" xmlns="http://www.w3.org/2000/svg" viewBox="0 0 696 296.51">
	<path d="M131.83 107.5v64.12q0 11.16-4.52 15.6t-16.18 4.45H79q-10.91 0-15.38-4.55t-4.47-15.5v-15.73h31.72v10.8a8.06 8.06 0 0 0 1 4.55 3.58 3.58 0 0 0 3.13 1.39 3.73 3.73 0 0 0 3.24-1.36 8 8 0 0 0 1-4.57v-59.2zM141.5 191.07l14.72-83.57h51.06L222 191.07h-33.76L186.38 173H177l-1.86 18.09zm36.74-36.54h6.88l-3.37-28.39zM305 157v16.68q0 9.6-4.8 13.79t-15.86 4.2h-34.02q-10.3 0-15.08-4.35t-4.77-13.64v-46.73q0-11 4.45-15.45t15.4-4.5h34.07q11.66 0 16.16 4.42t4.5 15.53v11h-33.12v-6.08a8.3 8.3 0 0 0-1-4.65 3.7 3.7 0 0 0-3.24-1.38 3.53 3.53 0 0 0-3.14 1.43 8.33 8.33 0 0 0-1 4.6v34.83a8.33 8.33 0 0 0 1 4.6 3.53 3.53 0 0 0 3.14 1.43 3.63 3.63 0 0 0 3.19-1.46 8 8 0 0 0 1-4.57V157zM317.52 191.07V107.5h32v33.77L360 107.5h33.22l-12.53 38.8L394 191.07h-32.85l-11.61-38.19v38.19zM402.22 191.07V107.5h53.42q11.05 0 15.86 4.22t4.8 13.77v23.07q0 11.21-4.55 15.71t-16.11 4.5h-20.8v22.31zm37-64.73h-4.42v23.47h4.32a4.11 4.11 0 0 0 3.47-1.36q1.06-1.36 1.06-4.62v-11.4a8.14 8.14 0 0 0-1-4.67 3.93 3.93 0 0 0-3.39-1.41zM507.92 191.67q-11 0-15.4-4.55t-4.45-15.5v-46.83q0-9.25 4.75-13.52t15.1-4.27H542q11.16 0 15.91 4.14t4.75 13.64v46.84q0 11.16-4.52 15.6T542 191.67zm13.26-59.8v34.83a8.06 8.06 0 0 0 1 4.55 3.58 3.58 0 0 0 3.14 1.38 3.73 3.73 0 0 0 3.24-1.36 8 8 0 0 0 1-4.57v-34.83a8 8 0 0 0-1-4.57 3.63 3.63 0 0 0-3.19-1.46 3.53 3.53 0 0 0-3.14 1.43 8.33 8.33 0 0 0-1.04 4.6zM588.8 191.07v-64.52H572v-19h66v19h-16.79v64.52z"/>
    <path d="M7.1 290.19v-83.57h32.61v83.57zM72.25 290.79q-10 0-15.2-4t-5.2-11.74v-15.11h33.36v5.88a8.25 8.25 0 0 0 1 4.52 3.43 3.43 0 0 0 3.07 1.41 3.47 3.47 0 0 0 3.14-1.5 9.48 9.48 0 0 0 1-5c0-2.61-.31-4.44-.93-5.48s-2.17-2.06-4.65-3.06l-22.61-9.15q-7.79-3.16-10.55-6.83t-2.76-10.05v-8.94q0-7.69 5.2-11.66t15.2-4h33.67q10 0 15.17 4t5.18 11.66v9.9H93.15v-1.06a6.89 6.89 0 0 0-1.08-4.2 3.69 3.69 0 0 0-3.14-1.38 3.79 3.79 0 0 0-2.84 1.1A4.06 4.06 0 0 0 85 229a4.33 4.33 0 0 0 1 3q1 1.13 4.9 2.74l26.33 11.11a13.49 13.49 0 0 1 7 6.05q2 3.9 2 11.79v9.25q0 9.19-4.95 13.54t-15.4 4.34zM226.11 260.64h-4.53V242h37.64v48.14h-16.73l-2.92-6.08a9.32 9.32 0 0 1-5.53 5.13q-4 1.56-11.86 1.56H204.5q-11 0-15.4-4.55t-4.45-15.51V223.9q0-9.25 4.75-13.52t15.1-4.27h34.07q11.15 0 15.9 4.14t4.75 13.64v8.44H226l.1-1.36a4 4 0 0 1 0-.55 4.06 4.06 0 0 0 .05-.55 5.22 5.22 0 0 0-1.18-3.59 4 4 0 0 0-3.14-1.33 3.53 3.53 0 0 0-3.14 1.43 8.33 8.33 0 0 0-1 4.6v34.82a8.08 8.08 0 0 0 1 4.55 3.59 3.59 0 0 0 3.14 1.38 3.72 3.72 0 0 0 3.24-1.35 8 8 0 0 0 1-4.57zM271.71 290.19v-83.57h52.66v19h-20v9.15h20v19.05h-20v17.28h20v19zM350.73 290.19v-64.53h-16.79v-19h66v19h-16.8v64.52zM423.82 290.19v-64.53H407v-19h66v19h-16.77v64.52zM483 290.19v-83.57h32.62v83.57zM528.43 290.19v-83.57h32.21l12.87 34.47v-34.47h29.75v83.57h-30.8l-14.27-39.3v39.3zM657 260.64h-4.52V242h37.64v48.14h-16.79l-2.92-6.08a9.31 9.31 0 0 1-5.53 5.13q-4 1.56-11.86 1.56h-17.67q-11 0-15.4-4.55t-4.45-15.51V223.9q0-9.25 4.75-13.52t15.11-4.27h34.07q11.16 0 15.91 4.14t4.75 13.64v8.44h-33.24L657 231a4.06 4.06 0 0 1 .05-.55 5 5 0 0 0 0-.55 5.22 5.22 0 0 0-1.18-3.59 4 4 0 0 0-3.15-1.33 3.53 3.53 0 0 0-3.14 1.43 8.33 8.33 0 0 0-1 4.6v34.82a8.07 8.07 0 0 0 1 4.55 3.59 3.59 0 0 0 3.14 1.38 3.72 3.72 0 0 0 3.24-1.35 8 8 0 0 0 1-4.57z"/>
    <path d="M257.86 92.33V27.81h-16.79v-19h66v19h-16.8v64.52zM317.08 92.33V8.76h32.62v28.29h8.3V8.76h32.61v83.57H358V56.1h-8.34v36.23zM403.43 92.33V8.76h52.66v19H436V37h20v19h-20v17.29h20v19z"/>
</svg>
