<svg style="fill: #004fa3" xmlns="http://www.w3.org/2000/svg" viewBox="0 0 871.58 189.51" >
  <path d="M27.72 90.09V25.56H10.94v-19h66v19h-16.8v64.53zm59.22 0V6.52h32.62v28.29h8.34V6.52h32.61v83.57H127.9V53.85h-8.34v36.24zm86.35 0V6.52H226v19h-20v9.15h20v19h-20V71h20v19zM356.56 6.52v64.12q0 11.16-4.52 15.6t-16.18 4.45h-32.12q-10.91 0-15.38-4.55t-4.47-15.5V54.91h31.71v10.8a8.06 8.06 0 0 0 1 4.55 3.58 3.58 0 0 0 3.14 1.38 3.73 3.73 0 0 0 3.26-1.35 8 8 0 0 0 1-4.57V6.52zm9.67 83.57L381 6.52h51l14.72 83.57H413L411.1 72h-9.35l-1.86 18.09zM403 53.55h6.88l-3.37-28.39zM529.77 56v16.7q0 9.6-4.8 13.79t-15.86 4.2H475q-10.3 0-15.08-4.35t-4.73-13.64V26q0-11 4.45-15.45T475 6h34.07q11.66 0 16.16 4.42T529.77 26v11h-33.12v-6.11a8.3 8.3 0 0 0-1-4.65 3.7 3.7 0 0 0-3.24-1.38 3.53 3.53 0 0 0-3.14 1.43 8.33 8.33 0 0 0-1 4.6v34.82a8.33 8.33 0 0 0 1 4.6 3.53 3.53 0 0 0 3.14 1.43 3.63 3.63 0 0 0 3.19-1.46 8 8 0 0 0 1-4.57V56zm12.48 34.09V6.52h32v33.76l10.5-33.77H618l-12.58 38.8 13.31 44.78h-32.86l-11.61-38.2v38.2zm84.7 0V6.52h53.42q11.05 0 15.86 4.22T701 24.5v23.07q0 11.21-4.55 15.71t-16.11 4.5h-20.8v22.31zm37-64.73h-4.42v23.47h4.32a4.11 4.11 0 0 0 3.47-1.36q1.06-1.36 1.06-4.62V31.44a8.14 8.14 0 0 0-1-4.67 3.93 3.93 0 0 0-3.38-1.41zm68.7 65.33q-11 0-15.4-4.55t-4.45-15.5V23.8q0-9.25 4.75-13.52T732.65 6h34.07q11.16 0 15.91 4.14t4.75 13.64v46.86q0 11.16-4.52 15.6t-16.13 4.45zm13.26-59.8v34.82a8.06 8.06 0 0 0 1 4.55 3.58 3.58 0 0 0 3.09 1.38 3.73 3.73 0 0 0 3.24-1.36 8 8 0 0 0 1-4.57V30.89a8 8 0 0 0-1-4.57 3.63 3.63 0 0 0-3.24-1.46 3.53 3.53 0 0 0-3.14 1.43 8.33 8.33 0 0 0-.95 4.6zm67.62 59.2V25.56h-16.78v-19h66v19h-16.81v64.53zm-718.18 93.1V99.62H128v83.57zm65.15.6q-10 0-15.2-4t-5.2-11.74v-15.11h33.37v5.88a8.25 8.25 0 0 0 1 4.52 3.43 3.43 0 0 0 3.07 1.41 3.47 3.47 0 0 0 3.14-1.5 9.48 9.48 0 0 0 1-5c0-2.61-.31-4.44-.93-5.48s-2.17-2.06-4.65-3.06l-22.61-9.15q-7.79-3.16-10.55-6.83t-2.76-10.05v-8.94q0-7.69 5.2-11.66t15.2-4h33.67q10 0 15.17 4t5.18 11.66v9.9h-33.2v-1.06a6.89 6.89 0 0 0-1.08-4.2 3.69 3.69 0 0 0-3.14-1.43 3.79 3.79 0 0 0-2.84 1.1 4.06 4.06 0 0 0-1.08 3 4.33 4.33 0 0 0 1 2.94q1 1.13 4.9 2.74l26.33 11.11a13.49 13.49 0 0 1 7 6.05q2 3.9 2 11.79v9.25q0 9.19-4.95 13.54t-15.4 4.34zm153.86-30.15h-4.53V135h37.64v48.14h-16.73l-2.92-6.08a9.32 9.32 0 0 1-5.53 5.13q-4 1.56-11.86 1.56h-17.68q-11 0-15.4-4.55t-4.45-15.51V116.9q0-9.25 4.75-13.52t15.1-4.27h34.07q11.15 0 15.9 4.14t4.75 13.64v8.44h-33.21l.1-1.36a4 4 0 0 1 0-.55 4.06 4.06 0 0 0 .05-.55 5.22 5.22 0 0 0-1.18-3.59 4 4 0 0 0-3.14-1.33 3.53 3.53 0 0 0-3.14 1.43 8.33 8.33 0 0 0-1 4.6v34.82a8.08 8.08 0 0 0 1 4.55 3.59 3.59 0 0 0 3.14 1.38 3.72 3.72 0 0 0 3.24-1.35 8 8 0 0 0 1-4.57zM360 183.19V99.62h52.66v19h-20v9.15h20v19.05h-20v17.28h20v19zm79 0v-64.53h-16.81v-19h66v19h-16.8v64.52zm73.07 0v-64.53h-16.79v-19h66v19h-16.8v64.52zm59.21 0V99.62h32.62v83.57zm45.4 0V99.62h32.21l12.87 34.47V99.62h29.75v83.57h-30.8l-14.27-39.3v39.3zm128.52-29.55h-4.52V135h37.64v48.14h-16.74l-2.92-6.08a9.31 9.31 0 0 1-5.53 5.13q-4 1.56-11.86 1.56H723.6q-11 0-15.4-4.55t-4.45-15.51V116.9q0-9.25 4.75-13.52t15.11-4.27h34.07q11.16 0 15.91 4.14t4.75 13.64v8.44H745.1l.1-1.36a4.06 4.06 0 0 1 .05-.55 5 5 0 0 0 0-.55 5.22 5.22 0 0 0-1.18-3.59A4 4 0 0 0 741 118a3.53 3.53 0 0 0-3.14 1.43 8.33 8.33 0 0 0-1 4.6v34.82a8.07 8.07 0 0 0 1 4.55 3.59 3.59 0 0 0 3.14 1.38 3.72 3.72 0 0 0 3.24-1.35 8 8 0 0 0 1-4.57z"/>
</svg>
