<svg xmlns="http://www.w3.org/2000/svg" viewBox="0 0 144 78.7">
    <style>
        .st0{fill:#0c4f75}.st1{fill:#fff}
    </style>
    <path d="M44.8 8.9h3.3v-1l-.8-.2V5.6H50V4.4h-2.8V2.2h2.6l.1.9h1.2V1h-6.3v1l.8.2v5.7l-.8.2v.8zM54.5 1h-2.3v1l.8.1v4.1c0 .9.3 1.6.9 2 .5.5 1.3.8 2.2.8.9 0 1.7-.2 2.3-.7.6-.5.9-1.2.9-2V2.1l.8-.2V1h-3.3v1l.8.2v4.1c0 .5-.1.9-.4 1.2-.3.3-.7.4-1.2.4s-.9-.1-1.1-.4c-.3-.3-.4-.6-.4-1.2V2.1l.8-.2V1h-.8zM66.2 4.2h-2.7v-2H66l.1.9h1.2V1h-6.1v1l.8.1v5.7l-.8.2v.9h6.2V6.7h-1.2l-.1.9h-2.5V5.4h2.7V4.2zM74.7 8.9V6.6h-1.2l-.1 1h-2.2V2.1l.8-.2V1h-3.2v1l.8.2v5.7l-.8.2V9h5.9zM76.7 2.1v5.7l-.8.2v.9h3.3v-1l-.8-.2V2.1l.8-.2V1h-3.3v1l.8.1zM87.4 1H85v1l.8.2v4.2L82.7 1H80.3v1l.8.2v5.7l-.8.2V9h3.3V7.9l-.8-.2V3.6L86 8.9h1.6V2.1l.8-.2V1h-1zM95.9 5h-2.7v1.1l1.1.1v1.3c-.1.1-.3.1-.5.2s-.5.1-.8.1c-.7 0-1.2-.2-1.6-.7-.4-.5-.6-1.1-.6-1.9v-.4c0-.8.2-1.5.6-2S92.3 2 93 2c.3 0 .6 0 .8.1l.6.3.2 1.1h1.2V2c-.3-.3-.8-.6-1.3-.8-.5-.2-1-.3-1.6-.3-1.1 0-1.9.4-2.6 1.1-.7.7-1 1.7-1 2.9v.3c0 1.1.3 2.1 1 2.8.7.6 1.5 1 2.6 1 .8 0 1.4-.1 1.9-.3.5-.2.9-.4 1.1-.7V5zM24.4 14.4V21l-1 .2v1.1h3.8v-1.1l-1-.2v-6.6l1-.2v-1.1h-3.8v1.1l1 .2zM37.2 19.6V21l-1 .2v1.1H40v-1.1l-1-.2v-6.6l1-.2v-1.1h-3.4l-2.4 6.8-2.3-6.8h-3.4v1.1l1 .2V21l-1 .2v1.1h3.8v-1.1l-1-.2v-1.4l-.2-4 2.4 6.8h1.2l2.5-6.8v4zM41.3 22.3h3.1v-1.1l-.6-.1.4-1.3h3l.4 1.3-.6.1v1.1h3v-1.1l-.7-.1-2.8-8h-1.9l-2.8 8-.7.1v1.1zm4.3-7.1l1.1 3.2h-2.1l1-3.2zM58.5 17.8h-3.2v1.3l1.3.1v1.6c-.1.1-.3.2-.5.2h-.9c-.8 0-1.5-.3-1.9-.8-.4-.6-.7-1.3-.7-2.2v-.3c0-1 .2-1.7.7-2.3.4-.6 1.1-.9 1.9-.9.4 0 .7 0 .9.1.3.1.5.2.7.3l.3 1.2h1.4v-1.8c-.4-.4-.9-.7-1.5-.9-.6-.2-1.3-.3-2-.3-1.2 0-2.2.4-3 1.3-.8.9-1.2 2-1.2 3.4v.2c0 1.3.4 2.4 1.2 3.2.8.8 1.8 1.2 3 1.2.9 0 1.6-.1 2.2-.4.6-.2 1-.5 1.3-.8v-3.4zM61 14.4V21l-1 .2v1.1h3.8v-1.1l-1-.2v-6.6l1-.2v-1.1H60v1.1l1 .2zM73.6 13.1h-2.8v1.1l1 .2v4.9L68 13.1h-2.8v1.1l1 .2V21l-1 .2v1.1H69v-1.1l-1-.2v-4.9l3.7 6.2h1.8v-7.9l1-.2v-1.1h-.9zM74.9 22.3H78v-1.1l-.6-.1.4-1.3h3l.4 1.3-.6.1v1.1h3.1v-1.1l-.7-.1-2.8-8h-1.9l-2.8 8-.7.1v1.1zm4.4-7.1l1.1 3.2h-2.1l1-3.2zM83.9 13.1v2.4h1.4l.1-1H87V21l-1 .2v1.1h3.8v-1.1l-1-.2v-6.5h1.7l.1 1H92v-2.4h-8.1zM94.3 14.4V21l-1 .2v1.1h3.8v-1.1l-1-.2v-6.6l1-.2v-1.1h-3.8v1.1l1 .2zM106.8 17.6c0-1.3-.4-2.4-1.2-3.3-.8-.9-1.8-1.3-3-1.3s-2.2.4-3 1.3c-.8.9-1.1 2-1.1 3.3v.1c0 1.3.4 2.5 1.1 3.3.8.9 1.8 1.3 3 1.3s2.2-.4 3-1.3c.8-.9 1.2-2 1.2-3.3v-.1zm-1.8.2c0 1-.2 1.7-.6 2.3-.4.6-1 .9-1.8.9s-1.3-.3-1.7-.9c-.4-.6-.6-1.4-.6-2.3v-.2c0-1 .2-1.7.6-2.3.4-.6 1-.9 1.7-.9.8 0 1.4.3 1.8.9.4.6.6 1.4.6 2.3v.2zM116.6 13.1h-2.8v1.1l1 .2v4.9l-3.7-6.2h-2.8v1.1l1 .2V21l-1 .2v1.1h3.8v-1.1l-1-.2v-4.9l3.7 6.2h1.8v-7.9l1-.2v-1.1h-1z" class="st0"/>
    <path d="M18.4 65.6h-1.6v.7l.7.1v.8c-.1 0-.2.1-.3.1h-.5c-.4 0-.8-.1-1-.4-.2-.3-.3-.7-.3-1.2v-.2c0-.5.1-.9.3-1.2.2-.3.6-.5 1-.5.2 0 .3 0 .5.1.1 0 .3.1.3.2l.1.6h.7v-1c-.2-.2-.5-.4-.8-.5-.3-.1-.6-.2-1-.2-.6 0-1.2.2-1.6.7-.4.4-.6 1-.6 1.7v.2c0 .7.2 1.2.6 1.7.4.4.9.6 1.6.6.5 0 .8-.1 1.1-.2s.5-.3.7-.4v-1.7zM23.6 65.5c0-.7-.2-1.3-.6-1.7-.4-.5-.9-.7-1.6-.7-.6 0-1.2.2-1.6.7-.4.5-.6 1-.6 1.7v.1c0 .7.2 1.3.6 1.7.4.5.9.7 1.6.7.6 0 1.2-.2 1.6-.7.4-.4.6-1 .6-1.8zm-1 .1c0 .5-.1.9-.3 1.2-.2.3-.5.5-.9.5s-.7-.2-.9-.5c-.2-.3-.3-.7-.3-1.2v-.1c0-.5.1-.9.3-1.2.2-.3.5-.5.9-.5s.7.2.9.5c.2.3.3.7.3 1.3zM26.2 63.2v1.3h.8V64h.9v3.4l-.5.1v.6h2v-.6l-.5-.1V64h.9v.5h.7v-1.3h-4.3zM35.4 65.5c0-.7-.2-1.3-.6-1.7-.4-.5-.9-.7-1.6-.7-.6 0-1.2.2-1.6.7-.4.5-.6 1-.6 1.7v.1c0 .7.2 1.3.6 1.7.4.5.9.7 1.6.7.6 0 1.2-.2 1.6-.7.4-.4.6-1 .6-1.8zm-1 .1c0 .5-.1.9-.3 1.2-.2.3-.5.5-.9.5s-.7-.2-.9-.5c-.2-.3-.3-.7-.3-1.2v-.1c0-.5.1-.9.3-1.2.2-.3.5-.5.9-.5s.7.2.9.5c.2.3.3.7.3 1.3zM38.1 67.9H40v-.6l-.5-.1v-1.3h.5l.9 1.4h-.3v.6h1.9v-.6l-.5-.1-1.3-1.9 1.2-1.6.5-.1V63h-1.9v.6h.3l-.9 1.3h-.4v-1.3l.5-.1v-.6h-1.9v.6l.5.1V67l-.5.1v.8zM44.9 63.2h-1.8v.6l.4.1 1.3 2.4v1.1l-.5.1v.6h2v-.6l-.5-.1v-1l1.3-2.4.4-.1v-.6h-1.8v.6l.4.1-.7 1.6-.7-1.6.4-.1v-.7zM51.7 67.9v-1.3H51v.6h-1.3v-3.4l.5-.1v-.6h-2v.6l.5.1v3.4l-.5.1v.6h3.5zM56.6 65.5c0-.7-.2-1.3-.6-1.7-.4-.5-.9-.7-1.6-.7-.6 0-1.2.2-1.6.7-.4.5-.6 1-.6 1.7v.1c0 .7.2 1.3.6 1.7.4.5.9.7 1.6.7.6 0 1.2-.2 1.6-.7.4-.4.6-1 .6-1.8zm-.9.1c0 .5-.1.9-.3 1.2-.2.3-.5.5-.9.5s-.7-.2-.9-.5c-.2-.3-.3-.7-.3-1.2v-.1c0-.5.1-.9.3-1.2.2-.3.5-.5.9-.5s.7.2.9.5c.2.3.3.7.3 1.3zM57.2 63.2v1.3h.7V64h.9v3.4l-.5.1v.6h2v-.6l-.5-.1V64h.9v.5h.7v-1.3h-4.2zM62.1 63.2v1.3h.7V64h.9v3.4l-.5.1v.6h2v-.6l-.5-.1V64h.9v.5h.7v-1.3h-4.2zM70 65.1h-1.6v-1.2h1.5v.6h.7v-1.3h-3.8v.6l.5.1v3.4l-.5.1v.6h3.8v-1.3H70v.6h-1.5v-1.4H70v-.8zM72.1 63.2h-.5v.6l.5.1v3.4l-.5.1v.6h2v-.6l-.6-.1V66h.8c.2 0 .4.1.5.2.1.1.2.3.2.5v.3c0 .3.1.5.2.7.1.2.3.3.7.3h.5v-.6h-.1c-.1 0-.2 0-.2-.1s-.1-.1-.1-.2v-.2c0-.3-.1-.5-.2-.7-.1-.2-.3-.3-.6-.4.2-.1.4-.3.6-.4.1-.2.2-.4.2-.6 0-.4-.2-.8-.5-1s-.7-.4-1.3-.4h-1.6zm.9.7h.7c.3 0 .5.1.6.2.1.1.2.3.2.5s-.1.4-.2.5c-.1.1-.3.2-.6.2H73v-1.4zM77.9 63.2h-1.8v.6l.4.1 1.3 2.4v1.1l-.5.1v.6h2v-.6l-.5-.1v-1l1.3-2.4.4-.1v-.6h-1.8v.6l.4.1-.7 1.6-.7-1.6.4-.1v-.7zM81.5 67.1h-1v.8h1v-.8zM86.2 63.8c-.2-.2-.4-.4-.7-.5-.3-.1-.6-.2-1-.2-.6 0-1.2.2-1.6.7-.4.4-.6 1-.6 1.7v.2c0 .7.2 1.3.6 1.7.4.4.9.7 1.6.7.4 0 .7-.1 1-.2.3-.1.5-.3.7-.5v-.9h-.7l-.1.5c-.1.1-.2.2-.4.2-.2.1-.3.1-.5.1-.4 0-.7-.2-.9-.5-.2-.3-.3-.7-.3-1.2v-.2c0-.5.1-.9.3-1.2.2-.3.5-.5 1-.5.2 0 .4 0 .5.1.1.1.3.1.4.2l.1.6h.7v-.8zM91.4 65.5c0-.7-.2-1.3-.6-1.7-.4-.5-.9-.7-1.6-.7-.6 0-1.2.2-1.6.7-.4.5-.6 1-.6 1.7v.1c0 .7.2 1.3.6 1.7.4.5.9.7 1.6.7.6 0 1.2-.2 1.6-.7.4-.4.6-1 .6-1.8zm-1 .1c0 .5-.1.9-.3 1.2-.2.3-.5.5-.9.5s-.7-.2-.9-.5c-.2-.3-.3-.7-.3-1.2v-.1c0-.5.1-.9.3-1.2.2-.3.5-.5.9-.5s.7.2.9.5c.2.3.3.7.3 1.3zM96.6 66.5v.7l-.5.1v.6h2v-.6l-.5-.1v-3.4l.5-.1v-.6h-1.8l-1.2 3.5-1.2-3.5h-1.7v.6l.5.1v3.4l-.5.1v.6h2v-.6l-.5-.1v-.7l-.1-2.1 1.3 3.5h.6l1.3-3.5-.2 2.1zM100.9 63.2h-.7l-1.7 5.2h.7l1.7-5.2zM102 63.2h-.5v.6l.5.1v3.4l-.5.1v.6h2v-.6l-.5-.1v-1.1h.8c.5 0 1-.1 1.3-.4.3-.3.5-.6.5-1.1 0-.5-.2-.8-.5-1.1-.3-.3-.7-.4-1.3-.4H102zm1 .7h.8c.3 0 .5.1.6.2.1.1.2.3.2.6 0 .2-.1.4-.2.6-.1.1-.3.2-.6.2h-.8v-1.6zM110.5 65.5c0-.7-.2-1.3-.6-1.7-.4-.5-.9-.7-1.6-.7-.6 0-1.2.2-1.6.7-.4.5-.6 1-.6 1.7v.1c0 .7.2 1.3.6 1.7.4.5.9.7 1.6.7.6 0 1.2-.2 1.6-.7.4-.4.6-1 .6-1.8zm-.9.1c0 .5-.1.9-.3 1.2-.2.3-.5.5-.9.5s-.7-.2-.9-.5c-.2-.3-.3-.7-.3-1.2v-.1c0-.5.1-.9.3-1.2.2-.3.5-.5.9-.5s.7.2.9.5c.2.3.3.7.3 1.3zM115.7 66.5v.7l-.5.1v.6h2v-.6l-.5-.1v-3.4l.5-.1v-.6h-1.8l-1.2 3.5-1.2-3.5h-1.7v.6l.5.1v3.4l-.5.1v.6h2v-.6l-.5-.1v-.7l-.1-2.1 1.3 3.5h.6l1.3-3.5-.2 2.1zM118.4 63.2h-.5v.6l.5.1v3.4l-.5.1v.6h2v-.6l-.5-.1v-1.1h.8c.5 0 1-.1 1.3-.4.3-.3.5-.6.5-1.1 0-.5-.2-.8-.5-1.1-.3-.3-.7-.4-1.3-.4h-1.8zm.9.7h.8c.3 0 .5.1.6.2.1.1.2.3.2.6 0 .2-.1.4-.2.6-.1.1-.3.2-.6.2h-.8v-1.6zM36.7 72.8V74h.7v-.5h.9v3.4l-.4.1v.6h2V77l-.5-.1v-3.4h.9v.5h.7v-1.3h-4.3zM45.9 75.1c0-.7-.2-1.3-.6-1.7-.4-.5-.9-.7-1.6-.7-.6 0-1.2.2-1.6.7-.4.5-.6 1-.6 1.7v.1c0 .7.2 1.3.6 1.7.4.5.9.7 1.6.7.6 0 1.2-.2 1.6-.7.4-.4.6-1 .6-1.8zm-1 .1c0 .5-.1.9-.3 1.2-.2.3-.5.5-.9.5s-.7-.2-.9-.5c-.2-.3-.3-.7-.3-1.2v-.1c0-.5.1-.9.3-1.2.2-.3.5-.5.9-.5s.7.2.9.5c.2.3.3.7.3 1.3zM54.1 77.5v-1.3h-.7v.6H52v-3.4l.5-.1v-.6h-2v.6l.5.1v3.4l-.5.2v.6h3.6zM57.9 74.7h-1.6v-1.2h1.5v.6h.7v-1.3h-3.8v.6l.5.1v3.4l-.4.1v.6h3.8v-1.3h-.7v.6h-1.5v-1.4H58v-.8zM59.4 77.5H61V77l-.3-.1.2-.7h1.5l.2.7-.3.1v.6h1.6V77h-.3l-1.4-4.1h-1L59.8 77h-.3v.5zm2.2-3.6l.6 1.7h-1.1l.5-1.7zM65 72.8h-.5v.6l.5.1v3.4l-.5.1v.6h2V77l-.5-.1v-1.3h.8c.2 0 .4.1.5.2.1.1.2.3.2.5v.3c0 .3.1.5.2.7.1.2.3.3.7.3h.5V77h-.1c-.1 0-.2 0-.2-.1s-.1-.1-.1-.2v-.2c0-.3-.1-.5-.2-.7-.1-.2-.3-.3-.6-.4.2-.1.4-.3.6-.4s.2-.4.2-.6c0-.4-.2-.8-.5-1-.3-.2-.7-.4-1.3-.4H65zm1 .7h.7c.3 0 .5.1.6.2.1.1.2.3.2.5s-.1.4-.2.5c-.1.1-.3.2-.6.2H66v-1.4zM73.8 72.8h-1.5v.6l.5.1V76l-1.9-3.2h-1.5v.6l.5.1v3.4l-.4.1v.6h2V77l-.5-.1v-2.5l1.9 3.2h1v-4.1l.5-.1v-.6h-.6zM81.4 76.1v.7l-.5.2v.6h2V77l-.5-.1v-3.4l.5-.1v-.6h-1.8l-1.2 3.5-1.2-3.5H77v.6l.5.1v3.4l-.6.1v.6h2V77l-.5-.1v-.7l-.1-2.2 1.3 3.5h.6l1.3-3.5-.1 2.1zM87.9 75.1c0-.7-.2-1.3-.6-1.7-.4-.5-.9-.7-1.6-.7-.6 0-1.2.2-1.6.7-.4.5-.6 1-.6 1.7v.1c0 .7.2 1.3.6 1.7.4.5.9.7 1.6.7.6 0 1.2-.2 1.6-.7.4-.4.6-1 .6-1.8zm-.9.1c0 .5-.1.9-.3 1.2s-.5.5-.9.5-.7-.2-.9-.5c-.2-.3-.3-.7-.3-1.2v-.1c0-.5.1-.9.3-1.2s.5-.5.9-.5.7.2.9.5c.2.3.3.7.3 1.3zM89.2 72.8h-.5v.6l.5.1v3.4l-.5.1v.6h2V77l-.5-.1v-1.3h.8c.2 0 .4.1.5.2.1.1.2.3.2.5v.3c0 .3.1.5.2.7.1.2.3.3.7.3h.5V77H93c-.1 0-.2 0-.2-.1s-.1-.1-.1-.2v-.2c0-.3-.1-.5-.2-.7-.1-.2-.3-.3-.6-.4.2-.1.4-.3.6-.4.1-.2.2-.4.2-.6 0-.4-.2-.8-.5-1-.3-.2-.7-.4-1.3-.4h-1.7zm.9.7h.7c.3 0 .5.1.6.2.1.1.2.3.2.5s-.1.4-.2.5c-.1.1-.3.2-.6.2h-.7v-1.4zM96.7 74.7H95v-1.2h1.5v.6h.7v-1.3h-3.8v.6l.5.1v3.4l-.3.1v.6h3.8v-1.3h-.7v.6H95v-1.4h1.6v-.8zM99.4 76.7h-1v.8h1v-.8z" class="st1"/>
    <path d="M43.1 39.4h3.3v-.9l-.8-.2v-2.2h2.8v-1.2h-2.8v-2.2H48l.1.9h1.2v-2.2H43v1l.8.2v5.7l-.8.2v.9zM52.8 31.5H50.4v1l.8.2v4.1c0 .9.3 1.6.9 2 .6.5 1.3.7 2.3.7.9 0 1.7-.2 2.3-.7.6-.5.9-1.2.9-2v-4.1l.8-.2v-1h-3.3v1l.8.2v4.1c0 .5-.1.9-.4 1.2-.3.3-.7.4-1.2.4s-.9-.1-1.1-.4c-.3-.3-.4-.6-.4-1.2v-4.1l.8-.2v-1h-.8zM66.6 31.5h-2.4v1l.8.2v4.2l-3.2-5.3H59.4v1l.8.2v5.7l-.8.2v.9h3.3v-.9l-.8-.2v-4.2l3.2 5.3h1.6v-6.8l.8-.2v-1h-.9zM69.3 31.5h-.8v1l.8.2v5.7l-.8.2v.9H72c1 0 1.8-.3 2.4-.9.6-.6.9-1.4.9-2.4v-1.3c0-1-.3-1.8-.9-2.4-.6-.6-1.4-.9-2.4-.9h-2.7zm2.7 1.2c.6 0 1 .2 1.3.6.3.4.5.9.5 1.5v1.3c0 .6-.2 1.1-.5 1.5-.3.4-.8.6-1.3.6h-1v-5.4h1zM77.5 32.6v5.7l-.8.2v.9H80v-.9l-.8-.2v-5.7l.8-.2v-1h-3.3v1l.8.2zM88.3 31.5h-2.4v1l.8.2v4.2l-3.2-5.3H81.1v1l.8.2v5.7l-.8.2v.9h3.3v-.9l-.8-.2v-4.2l3.2 5.3h1.6v-6.8l.8-.2v-1h-.9zM96.7 35.5H94v1.1l1.1.1V38c-.1.1-.3.1-.5.2s-.5.1-.8.1c-.7 0-1.2-.2-1.6-.7-.4-.5-.6-1.1-.6-1.9v-.3c0-.8.2-1.5.6-2 .4-.5.9-.8 1.6-.8.3 0 .6 0 .8.1l.6.3.2 1.1h1.2v-1.6c-.3-.3-.8-.6-1.3-.8-.5-.2-1.1-.3-1.7-.3-1.1 0-1.9.4-2.6 1.1-.7.7-1 1.7-1 2.9v.3c0 1.1.3 2.1 1 2.8.7.7 1.5 1.1 2.6 1.1.8 0 1.4-.1 1.9-.3.5-.2.9-.4 1.1-.7v-3.1zM35.8 47.4h-3.1v-2.3h2.9l.1 1.1h1.4v-2.5h-7.3v1.1l1 .2v6.6l-1 .2v1.1h7.3v-2.5h-1.4l-.1 1.1h-3v-2.6h3.1v-1.5zM39.7 43.7h-1v1.1l1 .2v6.6l-1 .2v1.1h4.1c1.1 0 2-.4 2.8-1.1.7-.7 1.1-1.6 1.1-2.8v-1.5c0-1.1-.4-2-1.1-2.8s-1.7-1.1-2.8-1.1h-3.1zm3.1 1.4c.7 0 1.2.2 1.6.7.4.4.6 1 .6 1.7V49c0 .7-.2 1.3-.6 1.7-.4.4-.9.7-1.6.7h-1.2v-6.3h1.2zM51 43.7h-2.8v1.1l1 .2v4.8c0 1 .3 1.8 1 2.4.7.6 1.6.8 2.7.8s2-.3 2.7-.8c.7-.6 1-1.4 1-2.4V45l1-.2v-1.1h-3.8v1.1l1 .2v4.8c0 .6-.2 1.1-.5 1.4-.3.3-.8.4-1.4.4-.6 0-1-.2-1.3-.5-.3-.3-.5-.8-.5-1.4V45l1-.2v-1.1H51zM66.2 45c-.4-.4-.8-.8-1.4-1-.6-.3-1.2-.4-1.9-.4-1.2 0-2.2.4-3 1.3-.8.9-1.2 2-1.2 3.3v.3c0 1.3.4 2.4 1.2 3.3.8.9 1.8 1.3 3 1.3.7 0 1.4-.1 1.9-.4.6-.3 1-.6 1.4-1v-1.8h-1.4l-.2 1.1c-.2.2-.4.3-.7.4-.3.1-.6.2-1 .2-.8 0-1.4-.3-1.8-.9-.4-.6-.6-1.3-.6-2.3v-.3c0-.9.2-1.7.6-2.3.4-.6 1-.9 1.8-.9.4 0 .7.1 1 .2.3.1.5.2.7.4l.2 1.2h1.4V45zM67.6 52.9h3.1v-1.1l-.6-.1.4-1.3h3l.4 1.3-.6.1v1.1h3.1v-1.1l-.7-.1-2.8-8H71l-2.8 8-.7.1v1.1zm4.3-7.1L73 49h-2.1l1-3.2zM76.5 43.7v2.4h1.4l.1-1h1.7v6.5l-1 .2v1.1h3.8v-1.1l-1-.2v-6.5h1.7l.1 1h1.4v-2.4h-8.2zM86.9 45v6.6l-1 .2v1.1h3.8v-1.1l-1-.2V45l1-.2v-1.1H86v1.1l.9.2zM99.5 48.2c0-1.3-.4-2.4-1.2-3.3-.8-.9-1.8-1.3-3-1.3s-2.2.4-3 1.3c-.8.9-1.1 2-1.1 3.3v.1c0 1.3.4 2.5 1.1 3.3.8.9 1.8 1.3 3 1.3s2.2-.4 3-1.3c.8-.9 1.2-2 1.2-3.3v-.1zm-1.8.1c0 1-.2 1.7-.6 2.3-.4.6-1 .9-1.8.9s-1.3-.3-1.7-.9c-.4-.6-.6-1.4-.6-2.3v-.2c0-1 .2-1.7.6-2.3.4-.6 1-.9 1.7-.9.8 0 1.4.3 1.8.9.4.6.6 1.4.6 2.3v.2zM109.3 43.7h-2.8v1.1l1 .2v4.9l-3.7-6.2H101v1.1l1 .2v6.6l-1 .2v1.1h3.8v-1.1l-1-.2v-4.9l3.7 6.2h1.8V45l1-.2v-1.1h-1z" class="st0"/>
</svg>
