<svg xmlns="http://www.w3.org/2000/svg" viewBox="0 0 144 78.7">
    <style>
        .st0{fill:#0c4f75}
    </style>
    <path d="M43.8 15.7h2.9v-1l-.6-.1.4-1.1h2.7l.4 1.1-.6.1v1h2.9v-1l-.6-.1-2.5-7.3h-1.7l-2.5 7.3-.6.1v1zm4-6.5l1 2.9h-1.9l.9-2.9zM59.2 15.7v-2.3H58l-.1 1.1h-2.4v-6l.9-.2v-1h-3.5v1l.9.2v6l-.9.2v1h6.3zM68.3 13.2v1.3l-.9.2v1h3.5v-1l-.9-.2v-6l.9-.2v-1h-3.1l-2.2 6.2-2.1-6.2h-3.1v1l.9.2v6l-.9.2v1h3.5v-1l-.9-.2v-1.3l-.2-3.7 2.2 6.2h1.1l2.2-6.2v3.7zM79.8 11.4c0-1.2-.4-2.2-1.1-3-.7-.8-1.6-1.2-2.8-1.2-1.1 0-2 .4-2.7 1.2-.7.8-1 1.8-1 3v.1c0 1.2.3 2.2 1 3 .7.8 1.6 1.2 2.7 1.2s2.1-.4 2.8-1.2c.7-.8 1.1-1.8 1.1-3v-.1zm-1.7.2c0 .9-.2 1.6-.5 2.1-.4.5-.9.8-1.6.8-.7 0-1.2-.3-1.6-.8s-.5-1.2-.5-2.1v-.1c0-.9.2-1.6.5-2.1s.9-.8 1.6-.8c.7 0 1.2.3 1.6.8.4.5.5 1.2.5 2.1v.1zM87.4 8.3c-.4-.4-.8-.6-1.4-.8-.5-.2-1.1-.3-1.8-.3-.9 0-1.6.2-2.2.7-.6.4-.9 1-.9 1.7s.3 1.2.8 1.6c.5.4 1.3.7 2.3 1 .6.2 1 .4 1.2.6.2.2.3.5.3.8 0 .3-.1.6-.4.8-.2.2-.6.3-1 .3s-.7 0-1-.1c-.3-.1-.5-.2-.7-.3l-.2-1.2h-1.3v1.7c.4.4.8.7 1.3.9.5.2 1.1.3 1.8.3.9 0 1.7-.2 2.2-.6.6-.4.9-1 .9-1.7s-.2-1.2-.7-1.7c-.5-.4-1.2-.8-2.1-1-.6-.2-1.1-.4-1.4-.6-.3-.2-.4-.4-.4-.7 0-.3.1-.6.4-.8.3-.2.6-.3 1.1-.3.3 0 .6 0 .9.1.3.1.5.1.6.2l.2 1.1h1.3V8.3zM88.7 7.3v2.2H90v-.9h1.5v5.9l-.9.2v1h3.5v-1l-.9-.2V8.6h1.5l.1.9h1.3V7.3h-7.4zM13.7 30.4c-.2.2-.5.3-.8.3-.4 0-.7-.1-.9-.3-.2-.2-.4-.6-.4-1.1H9.9c0 .9.2 1.5.7 1.9.5.4 1.1.7 1.8.8v1.1h.9V32c.7-.1 1.3-.3 1.7-.7.4-.4.6-.9.6-1.6 0-.7-.2-1.2-.6-1.6-.4-.4-1.1-.7-1.9-1.1-.5-.2-.8-.4-1-.6-.2-.2-.3-.4-.3-.7 0-.3.1-.6.2-.8.2-.2.4-.3.7-.3.3 0 .6.1.8.4.2.2.3.6.3 1.1h1.7c0-.7-.2-1.4-.6-1.8-.4-.5-.9-.8-1.6-.9v-1.3h-.9v1.3c-.7.1-1.3.3-1.7.7-.4.4-.6 1-.6 1.6 0 .7.2 1.2.6 1.6.4.4 1.1.7 1.9 1.1.4.2.7.4.9.6.2.2.3.5.3.8.1.2.1.4-.1.6zM20.7 31.5h1.8c.8 0 1.4.2 1.8.6.4.4.6 1 .6 1.8 0 .7-.2 1.2-.6 1.6-.4.4-1 .6-1.7.6s-1.2-.2-1.6-.6c-.4-.4-.6-.9-.6-1.5h-3v.1c0 1.4.5 2.5 1.5 3.2 1 .8 2.3 1.1 3.7 1.1 1.6 0 2.9-.4 4-1.2 1-.8 1.6-1.9 1.6-3.4 0-.8-.2-1.6-.7-2.2-.5-.6-1.1-1.1-2-1.4.7-.3 1.3-.8 1.8-1.4.4-.6.6-1.3.6-1.9 0-1.4-.5-2.5-1.4-3.3-1-.8-2.2-1.2-3.9-1.2-1.4 0-2.7.4-3.6 1.2-1 .8-1.4 1.8-1.4 3v.1h3c0-.6.2-1 .6-1.3.4-.3.9-.5 1.5-.5.7 0 1.2.2 1.5.6.4.4.5.9.5 1.5 0 .7-.2 1.2-.5 1.6-.4.4-.9.6-1.6.6h-1.8v2.3zM38.3 22.7h-1.7v1.9l1.7.3V36l-1.7.3v1.9h7.6c1.8 0 3.2-.4 4.2-1.1 1-.8 1.5-1.9 1.5-3.4 0-.9-.2-1.6-.7-2.3-.5-.7-1.2-1.1-2.1-1.3.7-.3 1.3-.7 1.7-1.3s.6-1.2.6-1.9c0-1.4-.5-2.5-1.5-3.2-1-.7-2.5-1.1-4.3-1.1h-5.3zm6.2 8.6c.8 0 1.4.2 1.8.6.4.4.6 1 .6 1.7s-.2 1.2-.7 1.6c-.4.4-1.1.5-1.9.5h-2.9v-4.5h3.1zm-3.1-6.2h2.1c.9 0 1.6.2 2 .5.5.3.7.9.7 1.6 0 .7-.2 1.2-.7 1.5s-1.1.5-1.9.5h-2.2v-4.1zM53.9 24.9V36l-1.7.3v1.9h6.4v-1.9L57 36V24.9l1.7-.3v-1.9h-6.4v1.9l1.6.3zM72.6 38.2v-4.3h-2.4l-.1 2h-4.4v-11l1.7-.3v-1.9h-6.5v1.9l1.7.3V36l-1.7.3v1.9h11.7zM86.5 38.2v-4.3h-2.4l-.1 2h-4.4v-11l1.7-.3v-1.9h-6.5v1.9l1.7.3V36l-1.7.3v1.9h11.7zM90.4 24.9V36l-1.7.3v1.9h6.4v-1.9l-1.6-.3V24.9l1.7-.3v-1.9h-6.4v1.9l1.6.3zM111.7 30.3c0-2.3-.7-4.1-2-5.6s-3-2.2-5.1-2.2c-2.1 0-3.8.7-5.1 2.2-1.3 1.5-1.9 3.4-1.9 5.6v.2c0 2.3.6 4.2 1.9 5.7 1.3 1.5 3 2.2 5.1 2.2 2.1 0 3.8-.7 5.1-2.2 1.3-1.5 2-3.4 2-5.7v-.2zm-3.1.3c0 1.6-.3 3-1 4s-1.7 1.5-3 1.5-2.3-.5-2.9-1.5c-.7-1-1-2.3-1-4v-.3c0-1.6.3-2.9 1-3.9.6-1 1.6-1.5 2.9-1.5 1.3 0 2.3.5 3 1.5.7 1 1 2.3 1 3.9v.3zM128.3 22.7h-4.8v1.9l1.7.3v8.3h-.1l-6.3-10.5H114v1.9l1.7.3V36l-1.7.3v1.9h6.4v-1.9l-1.7-.3v-8.3h.1l6.3 10.5h3.1V24.9l1.7-.3v-1.9h-1.6zM11.1 47v2.2h1.3l.1-.9H14v5.9l-.9.2v1h3.5v-1l-.9-.2v-5.9h1.5l.1.9h1.3V47h-7.5zM27.2 51.1c0-1.2-.4-2.2-1.1-3-.7-.8-1.6-1.2-2.8-1.2-1.1 0-2 .4-2.7 1.2-.7.8-1 1.8-1 3v.1c0 1.2.3 2.2 1 3 .7.8 1.6 1.2 2.7 1.2s2.1-.4 2.8-1.2c.7-.8 1.1-1.8 1.1-3v-.1zm-1.7.1c0 .9-.2 1.6-.5 2.1-.4.5-.9.8-1.6.8-.7 0-1.2-.3-1.6-.8-.4-.5-.5-1.2-.5-2.1v-.1c0-.9.2-1.6.5-2.1s.9-.8 1.6-.8c.7 0 1.2.3 1.6.8.4.5.5 1.2.5 2.1v.1zM38.3 47.9c-.4-.3-.8-.6-1.3-.8-.5-.2-1.1-.3-1.8-.3-.9 0-1.6.2-2.2.7-.6.4-.9 1-.9 1.7s.3 1.2.8 1.6c.5.4 1.3.7 2.3 1 .6.2 1 .4 1.2.6.2.2.3.5.3.8 0 .3-.1.6-.4.8-.2.2-.6.3-1 .3s-.7 0-1-.1c-.3-.1-.5-.2-.7-.3l-.2-1.2h-1.3v1.7c.4.4.8.7 1.3.9.5.2 1.1.3 1.8.3.9 0 1.7-.2 2.2-.6.6-.4.9-1 .9-1.7s-.2-1.2-.7-1.7c-.5-.4-1.2-.8-2.1-1-.6-.2-1.1-.4-1.4-.6-.3-.2-.4-.4-.4-.7 0-.3.1-.6.4-.8.3-.2.6-.3 1.1-.3.3 0 .6 0 .9.1s.5.1.6.2l.2 1.1h1.3v-1.7zM46.5 48.1c-.3-.4-.8-.7-1.3-.9-.5-.2-1.1-.4-1.8-.4-1.1 0-2.1.4-2.8 1.2-.7.8-1.1 1.8-1.1 3v.3c0 1.2.4 2.2 1.1 3 .7.8 1.6 1.2 2.8 1.2.6 0 1.2-.1 1.8-.3.5-.2 1-.5 1.3-.9v-1.7h-1.2l-.2 1.1c-.1.2-.4.3-.6.4-.3.1-.6.1-.9.1-.7 0-1.3-.3-1.7-.8-.4-.5-.6-1.2-.6-2.1V51c0-.9.2-1.5.6-2.1.4-.5 1-.8 1.7-.8.3 0 .6 0 .9.1.3.1.5.2.6.4l.2 1.1h1.2v-1.6zM48.8 48.1v6l-.9.2v1h3.5v-1l-.9-.2v-2.3h3.4v2.3l-.9.2v1h3.5v-1l-.9-.2v-6l.9-.2v-1H53v1l.9.2v2.4h-3.4v-2.4l.9-.2v-1h-3.5v1l.9.2zM65.3 51.1c0-1.2-.4-2.2-1.1-3-.7-.8-1.6-1.2-2.8-1.2-1.1 0-2 .4-2.7 1.2-.7.8-1 1.8-1 3v.1c0 1.2.3 2.2 1 3 .7.8 1.6 1.2 2.7 1.2s2.1-.4 2.8-1.2c.7-.8 1.1-1.8 1.1-3v-.1zm-1.7.1c0 .9-.2 1.6-.5 2.1-.4.5-.9.8-1.6.8-.7 0-1.2-.3-1.6-.8-.4-.5-.5-1.2-.5-2.1v-.1c0-.9.2-1.6.5-2.1s.9-.8 1.6-.8c.7 0 1.2.3 1.6.8.4.5.5 1.2.5 2.1v.1zM72.9 55.3V53h-1.3l-.1 1h-2.4v-5.9l.9-.2v-1h-3.5v1l.9.2v6l-.9.2v1h6.4zM74 55.3h2.9v-1l-.6-.1.4-1.1h2.7l.4 1.1-.6.1v1H82v-1l-.6-.1-2.6-7.2h-1.7l-2.5 7.3H74v1zm4-6.4l1 2.9h-2l1-2.9zM84 47h-.9v1l.9.2v6l-.9.2v1h3.5v-1l-.9-.2V52h1.4c.4 0 .7.1.9.4.2.2.3.6.3 1v.5c0 .5.1.8.3 1.1.2.3.6.4 1.2.4h.9v-1h-.2c-.2 0-.3-.1-.4-.2-.1-.2-.1-.3-.1-.5v-.4c0-.5-.1-.9-.3-1.3-.2-.3-.6-.6-1.1-.7.4-.2.8-.4 1-.8.2-.3.3-.7.3-1.1 0-.8-.3-1.4-.8-1.8-.5-.4-1.3-.7-2.2-.7H84zm1.7 1.3h1.2c.5 0 .8.1 1 .3.2.2.3.5.3.9s-.1.7-.4.9c-.2.2-.6.3-1.1.3h-1.2v-2.4zM98.2 47.9c-.4-.3-.8-.6-1.3-.8-.5-.2-1.1-.3-1.8-.3-.9 0-1.6.2-2.2.7-.6.4-.9 1-.9 1.7s.3 1.2.8 1.6c.5.4 1.3.7 2.3 1 .6.2 1 .4 1.2.6.2.2.3.5.3.8 0 .3-.1.6-.4.8-.2.2-.6.3-1 .3s-.7 0-1-.1c-.3-.1-.5-.2-.7-.3l-.2-1.2H92v1.7c.4.4.8.7 1.3.9.5.2 1.1.3 1.8.3.9 0 1.7-.2 2.2-.6.6-.4.9-1 .9-1.7s-.2-1.2-.7-1.7c-.5-.4-1.2-.8-2.1-1-.6-.2-1.1-.4-1.4-.6-.3-.2-.4-.4-.4-.7 0-.3.1-.6.4-.8.3-.2.6-.3 1.1-.3.3 0 .6 0 .9.1.3.1.5.1.6.2l.2 1.1h1.3v-1.7zM100.4 48.1v6l-.9.2v1h3.5v-1l-.9-.2v-2.3h3.4v2.3l-.9.2v1h3.5v-1l-.9-.2v-6l.9-.2v-1h-3.5v1l.9.2v2.4h-3.4v-2.4l.9-.1v-1h-3.5v1l.9.1zM110.2 48.1v6l-.9.2v1h3.5v-1l-.9-.2v-6l.9-.2v-1h-3.5v1l.9.2zM114.9 47h-.9v1l.9.2v6l-.9.2v1h3.5v-1l-.9-.2v-1.9h1.4c1 0 1.7-.2 2.3-.7.6-.5.8-1.1.8-1.9 0-.8-.3-1.4-.8-1.9-.6-.5-1.3-.7-2.3-.7h-3.1zm1.7 1.3h1.4c.5 0 .8.1 1.1.4.2.3.4.6.4 1s-.1.7-.4 1c-.2.3-.6.4-1.1.4h-1.4v-2.8zM128.6 47.9c-.4-.3-.8-.6-1.3-.8-.5-.2-1.1-.3-1.8-.3-.9 0-1.6.2-2.2.7-.6.4-.9 1-.9 1.7s.3 1.2.8 1.6c.5.4 1.3.7 2.3 1 .6.2 1 .4 1.2.6.2.2.3.5.3.8 0 .3-.1.6-.4.8-.2.2-.6.3-1 .3s-.7 0-1-.1c-.3-.1-.5-.2-.7-.3l-.2-1.2h-1.3v1.7c.4.4.8.7 1.3.9.5.2 1.1.3 1.8.3.9 0 1.7-.2 2.2-.6.6-.4.9-1 .9-1.7s-.2-1.2-.7-1.7c-.5-.4-1.2-.8-2.1-1-.6-.2-1.1-.4-1.4-.6-.3-.2-.4-.4-.4-.7 0-.3.1-.6.4-.8.3-.2.6-.3 1.1-.3.3 0 .6 0 .9.1s.5.1.6.2l.2 1.1h1.3v-1.7zM39.6 71.9c.5.4 1.2.7 2 .7.4 0 .8-.1 1.1-.2.3-.1.7-.3 1-.5l.4.5H46L44.8 71c.3-.3.5-.7.6-1.2.1-.4.2-.9.2-1.5h-1.3c0 .3 0 .6-.1.9-.1.3-.2.5-.3.7L42.3 68l.5-.4c.3-.2.6-.5.8-.8.2-.3.3-.7.3-1 0-.5-.2-1-.6-1.4-.4-.4-.9-.6-1.5-.6-.7 0-1.2.2-1.7.6-.4.4-.6.9-.6 1.6 0 .3.1.6.2.9.1.3.3.6.6 1-.5.4-.9.7-1.1 1-.2.3-.4.7-.4 1.2 0 .8.3 1.4.8 1.8zm1.2-1c-.2-.2-.3-.5-.3-.8 0-.2 0-.4.1-.5.1-.2.2-.4.4-.5l.1-.1 1.7 2c-.2.1-.4.2-.6.2-.2.1-.4.1-.6.1-.3 0-.6-.1-.8-.4zm.5-5.4c.1-.2.3-.3.6-.3.2 0 .4.1.5.2.1.1.2.3.2.5s0 .3-.1.5c-.1.1-.2.3-.4.4l-.5.3c-.2-.2-.3-.4-.4-.6-.1-.2-.1-.3-.1-.5 0-.1 0-.3.2-.5zM57.3 68.3h-2.9v1.2l1.2.1V71c-.1.1-.3.1-.5.2s-.5.1-.8.1c-.8 0-1.3-.3-1.7-.8-.4-.5-.6-1.2-.6-2v-.3c0-.9.2-1.6.6-2.1.4-.5 1-.8 1.7-.8.3 0 .6 0 .9.1.3.1.5.2.6.3l.2 1.1h1.2v-1.7c-.4-.4-.8-.6-1.4-.8-.5-.2-1.1-.3-1.8-.3-1.1 0-2 .4-2.7 1.2-.7.8-1 1.8-1 3.1v.3c0 1.2.4 2.2 1.1 3 .7.8 1.6 1.1 2.8 1.1.8 0 1.5-.1 2-.3.5-.2.9-.5 1.2-.7v-3.4zM59.6 64.1h-.9v1l.9.2v6l-.9.2v1h3.5v-1l-.9-.2v-2.2h1.4c.4 0 .7.1.9.4.2.2.3.6.3 1v.5c0 .5.1.8.3 1.1.2.3.6.4 1.2.4h.9v-1h-.2c-.2 0-.3-.1-.4-.2-.1-.1-.1-.2-.1-.4v-.4c0-.5-.1-.9-.3-1.3-.2-.3-.6-.6-1.1-.7.4-.2.8-.4 1-.8.2-.3.3-.7.3-1.1 0-.8-.3-1.4-.8-1.8-.5-.4-1.3-.7-2.2-.7h-2.9zm1.7 1.3h1.2c.5 0 .8.1 1 .3.2.2.3.5.3.9s-.1.7-.4.9c-.2.2-.6.3-1.1.3h-1.2v-2.4zM67.3 72.4h2.9v-1l-.6-.1.4-1.1h2.7l.4 1.1-.6.1v1h2.9v-1l-.6-.1-2.5-7.3h-1.7l-2.5 7.3-.6.1v1zm4-6.4l1 2.9h-1.9l.9-2.9zM84.1 64.1h-2.6v1l.9.2v4.4L79 64.1h-2.6v1l.9.2v6l-.9.2v1h3.5v-1l-.9-.2v-4.5l3.4 5.6h1.7v-7.2l.9-.2v-1h-.9zM86 64.1v2.2h1.3l.1-.9h1.5v5.9l-.9.1v1h3.5v-1l-.9-.2v-5.9h1.5l.1.9h1.3V64H86zM100.9 65c-.4-.3-.8-.6-1.3-.8-.6-.1-1.2-.2-1.8-.2-.9 0-1.6.2-2.2.7-.6.4-.9 1-.9 1.7s.3 1.2.8 1.6c.5.4 1.3.7 2.3 1 .6.2 1 .4 1.2.6.2.2.3.5.3.8 0 .3-.1.6-.4.8-.2.2-.6.3-1 .3s-.7 0-1-.1c-.3-.1-.5-.2-.7-.3l-.2-1.2h-1.3v1.7c.4.4.8.7 1.3.9.5.2 1.1.3 1.8.3.9 0 1.7-.2 2.2-.6.6-.4.9-1 .9-1.7s-.2-1.2-.7-1.7c-.5-.4-1.2-.8-2.1-1-.6-.2-1.1-.4-1.4-.6-.3-.2-.4-.4-.4-.7 0-.3.1-.6.4-.8.3-.2.6-.3 1.1-.3.3 0 .6 0 .9.1s.5.1.6.2l.2 1.1h1.3V65z" class="st0"/>
</svg>
