<svg xmlns="http://www.w3.org/2000/svg" viewBox="0 0 295.2 58.7" style="enable-background:new 0 0 295.2 58.7;">
  <style>
    .jackpotishere-st1{fill:#FF0000;}
  </style>
    <path d="M11.2 55.6c-2 0-3.7-.5-5.1-1.4C4.2 52.9 3.2 51 3 48.3v-.6c.2-.8.9-1.6 1.8-1.6l3.9-.4h.2c.5 0 .9.2 1.3.5s.7.8.7 1.3c.1.7.2.9.2.9s.2.1.5.1h.2c.1 0 .3 0 .4-.3.2-.2.2-.6.2-1.1l-1-9.6h-.6c-1-.1-1.7-.8-1.8-1.8l-.2-2.4c-.1-.5.1-1.1.4-1.5.3-.4.8-.7 1.3-.7l8.4-.8h.2c.5 0 .9.2 1.3.5s.7.8.7 1.3l.2 2.4c.1 1-.5 1.8-1.4 2.1l-.5.2 1 9.6c.3 2.5-.4 4.7-2 6.4-1.5 1.6-3.5 2.6-5.9 2.8h-1.3z" class="jackpotishere-st1"/>
    <path d="M19.2 32.1l.2 2.4-2.1.6 1.1 11.3c.2 2-.3 3.6-1.4 4.8-1.2 1.3-2.7 2-4.7 2.2-.4 0-.8.1-1.2.1-1.6 0-2.9-.4-4-1.1C5.8 51.5 5 50 4.9 48H5l3.9-.4c.1 1.1.4 1.8 1 2.2.5.4 1 .5 1.7.5h.4c.7-.1 1.4-.4 1.8-1.1.5-.6.6-1.5.5-2.5l-1.1-11.3H11l-.2-2.4 6.2-.6 2.2-.3m0-4h-.4l-2.2.2-6.2.7c-1.1.1-2 .6-2.7 1.4-.7.8-1 1.9-.9 2.9l.2 2.4c.2 1.5 1.2 2.8 2.5 3.3l.5 4.7c-.4-.1-.8-.2-1.2-.2h-.4l-3.9.4c-1.7.2-3.1 1.4-3.5 3.1v.1c-.1.4-.1.8-.1 1.2.3 4.1 2.3 6.3 4 7.4 1.8 1.2 3.9 1.8 6.2 1.8.5 0 1 0 1.6-.1 2.9-.3 5.4-1.5 7.2-3.5 1.9-2.1 2.8-4.9 2.5-7.9l-.8-8.2c1.2-.8 2-2.2 1.8-3.8l-.2-2.4c-.1-1.1-.6-2-1.4-2.7-.8-.5-1.7-.8-2.6-.8z"/>
    <path d="M22.9 54.2c-1 0-1.9-.8-2-1.8l-.2-2.4c-.1-1 .5-1.9 1.5-2.1l.2-.1 4.1-17c.2-.8.9-1.4 1.7-1.5l4.2-.4h.2c.8 0 1.5.4 1.8 1.2L41.8 46h.2c1 0 1.8.8 1.9 1.8l.2 2.4c.1 1.1-.7 2.1-1.8 2.2l-6.9.7h-.2c-.5 0-.9-.2-1.3-.5s-.7-.8-.7-1.3l-.2-2.4c0-.4 0-.7.2-1.1l-2.1.2c.2.3.4.6.4 1l.2 2.4c.1 1.1-.7 2.1-1.8 2.2l-6.9.7c0-.1 0-.1-.1-.1z" class="jackpotishere-st1"/>
    <path d="M32.6 30.8l7.9 17 1.5.1.2 2.4-6.9.7-.2-2.4 1.4-.4-1.2-2.7-6.6.7-.6 2.9 1.4.1.2 2.4-6.9.7-.2-2.4 1.4-.4 4.4-18.2 4.2-.5M29.4 43l4.6-.5-3-6.9h-.1L29.4 43m3.2-16.2h-.4l-4.2.4c-1.7.2-3.1 1.4-3.5 3l-3.8 16c-1.4.8-2.2 2.3-2 3.9l.2 2.4c.2 2.1 1.9 3.6 4 3.6h.4l6.9-.7c1.1-.1 2-.6 2.6-1.4.7.6 1.6.9 2.5.9h.4l6.9-.7c1.1-.1 2-.6 2.7-1.4.7-.8 1-1.9.9-2.9l-.2-2.4c-.2-1.6-1.3-2.9-2.8-3.4l-6.9-14.9c-.7-1.5-2.1-2.4-3.7-2.4z"/>
    <path d="M52.6 51.4c-2.7 0-5.1-.9-7.2-2.7-2.3-2-3.6-4.8-4-8.3l-.1-.7c-.3-3.4.4-6.4 2.2-8.9 1.9-2.5 4.5-4 7.8-4.3.5 0 1-.1 1.4-.1 1.3 0 2.6.2 3.8.6 1.6.5 3 1.3 4.1 2.4.4.3.6.8.6 1.3l.4 4c.1.5-.1 1.1-.4 1.5-.3.4-.8.7-1.3.7l-3 .3h-.2c-.9 0-1.7-.6-1.9-1.5l-.5-1.9c-.1-.1-.3-.1-.4-.1-.2-.1-.5-.1-.9-.1h-.6c-1.1.1-1.9.5-2.4 1.4-.6 1-.8 2.3-.6 3.9l.1.7c.2 1.6.6 2.9 1.4 3.7.6.6 1.2.9 2.1.9h.4c.6-.1 1.1-.2 1.5-.4.1-.1.2-.1.3-.2l.1-1.9c.1-1 .8-1.8 1.8-1.9l3-.3h.2c.5 0 .9.2 1.3.5s.7.8.7 1.3l.4 4c0 .5-.1 1-.4 1.3-.9 1.3-2.1 2.3-3.5 3.2-1.4.8-3.1 1.3-4.9 1.5-.4.1-.9.1-1.3.1z" class="jackpotishere-st1"/>
    <path d="M52.8 28.5c1.1 0 2.1.2 3.1.5 1.3.4 2.4 1.1 3.3 1.9l.4 4-3 .3-.6-2.6c-.4-.4-1-.6-1.6-.8-.4-.1-.9-.2-1.4-.2h-.8c-1.8.2-3 .9-3.9 2.3-.8 1.4-1.1 3.1-.9 5.1l.1.7c.2 2.1.8 3.7 1.9 4.9.9 1 2.1 1.6 3.6 1.6h.6c.8-.1 1.5-.3 2.2-.6.6-.3 1.1-.7 1.4-1.1l.1-2.7 3-.3.4 4c-.7 1-1.7 1.9-2.9 2.6-1.2.7-2.6 1.1-4.2 1.3-.4 0-.7.1-1.1.1-2.2 0-4.2-.7-5.8-2.2-1.9-1.7-3-4-3.3-7l-.1-.7c-.3-2.9.3-5.4 1.9-7.5s3.7-3.2 6.4-3.5c.4-.1.8-.1 1.2-.1m0-4c-.5 0-1.1 0-1.6.1-3.8.4-7 2.1-9.2 5.1-2.1 2.9-3 6.3-2.6 10.3l.1.7c.4 4 2 7.2 4.6 9.6 2.4 2.1 5.3 3.2 8.5 3.2.5 0 1 0 1.5-.1 2.1-.2 4-.8 5.7-1.8 1.7-1 3.1-2.2 4.2-3.8.5-.8.8-1.7.7-2.7l-.4-4c-.1-1.1-.6-2-1.4-2.7-.2-.2-.4-.3-.6-.4 1-.8 1.6-2.1 1.4-3.5l-.4-4c-.1-1-.5-1.9-1.3-2.5-1.3-1.2-2.9-2.2-4.8-2.8-1.4-.5-2.9-.7-4.4-.7zm.2 17.8c-.3 0-.4-.1-.6-.2-.5-.5-.8-1.4-.9-2.6l-.1-.7c-.1-1.2 0-2.1.4-2.7.1-.2.2-.3.8-.4l.2.6c.3 1.1 1 2 2 2.5-.8.7-1.4 1.7-1.4 2.9v.6H53z"/>
    <path d="M64.7 50c-1 0-1.9-.8-2-1.8l-.2-2.4c-.1-1 .5-1.8 1.4-2.1l.5-.2-1.1-11.2h-.5c-1-.1-1.7-.8-1.8-1.8l-.3-2.5c-.1-1.1.7-2.1 1.8-2.2l8.3-.8h.2c.4 0 .7.1 1 .3.3-.3.7-.5 1.2-.5l8-.8h.2c1 0 1.9.8 2 1.8l.2 2.4c.1 1-.5 1.9-1.5 2.1l-1.4.4-3.1 5.2 4.9 5.7 1.2.1c1 .1 1.8.8 1.9 1.8l.2 2.4c.1 1.1-.7 2.1-1.8 2.2l-8 .8h-.2c-.5 0-.9-.2-1.3-.5-.3.4-.8.7-1.4.7l-8.2.9h-.2zm8.2-7.3h.2l-.7-.9.1.8.4.1z" class="jackpotishere-st1"/>
    <path d="M81.3 25.9l.2 2.4-2.2.6-4.2 7.1 6.4 7.4 2.1.1.2 2.4-8 .8-.2-2.4 1.2-.3-4.5-5.5-2.3.4.6 5.6 2.1.2.2 2.4-8.2.9-.2-2.4 2.1-.6-1.5-14.5-2.2-.2-.2-2.4 8.3-.8.2 2.4-2 .6.5 5.4 1.8-.2 3.3-6h-1.2l-.2-2.4 7.9-1m0-4h-.4l-8 .8c-.4 0-.8.1-1.2.3-.3-.1-.5-.1-.8-.1h-.4l-8.3.8c-2.2.2-3.8 2.2-3.6 4.4l.2 2.4c.2 1.5 1.1 2.8 2.5 3.3l.8 8.3c-1.2.8-1.9 2.2-1.8 3.8l.2 2.4c.2 2.1 1.9 3.6 4 3.6h.4l8.3-.8c.5-.1 1-.2 1.4-.4.3.1.7.1 1 .1h.4l8-.8c2.2-.2 3.8-2.2 3.6-4.4l-.2-2.4c-.2-1.9-1.8-3.5-3.7-3.6h-.4l-3.4-4 2-3.3.6-.2c1.9-.5 3.1-2.3 2.9-4.3l-.2-2.4c-.1-2-1.8-3.5-3.9-3.5z"/>
    <path d="M87.1 47.7c-.5 0-.9-.2-1.3-.5s-.7-.8-.7-1.3l-.2-2.4c-.1-1 .5-1.8 1.4-2.1l.5-.2L85.7 30h-.6c-1-.1-1.7-.8-1.8-1.8l-.2-2.4c-.1-.5.1-1.1.4-1.5.3-.4.8-.7 1.3-.7l9.6-1c.5 0 1-.1 1.4-.1 2.2 0 4.1.6 5.6 1.7 1.9 1.4 3 3.4 3.3 5.9.3 2.5-.4 4.7-2.1 6.4-1.6 1.7-3.8 2.7-6.6 2.9l-1.4.1.1.8h.6c1 .1 1.7.8 1.8 1.8l.2 2.4c.1.5-.1 1.1-.4 1.5-.3.4-.8.7-1.3.7l-8.4.8c.1.2 0 .2-.1.2zm7-15.3l1.4-.1c.4 0 .9-.1 1.1-.4.1-.2.3-.5.2-1-.1-.6-.3-.9-.5-1-.1-.1-.2-.2-.8-.2h-.3l-1.4.1.3 2.6z" class="jackpotishere-st1"/>
    <path d="M95.9 24.5c1.8 0 3.3.4 4.4 1.3 1.5 1.1 2.3 2.5 2.5 4.5.2 1.9-.3 3.6-1.5 4.9-1.2 1.3-3 2.1-5.3 2.3l-3.4.3.5 4.5 2.2.2.2 2.4-8.4.8-.2-2.4 2.1-.6-1.5-14.5-2.2-.2-.2-2.4 2.2-.2 7.5-.8c.3-.1.8-.1 1.1-.1m-3.6 10.1l3.4-.3c1.1-.1 2-.5 2.5-1.2s.7-1.5.6-2.4c-.1-1-.5-1.7-1.1-2.3-.5-.5-1.2-.7-2.1-.7h-.5l-3.5.3.7 6.6m3.6-14.1c-.5 0-1.1 0-1.6.1l-7.5.8-2.2.2c-2.2.2-3.8 2.2-3.6 4.4l.2 2.4c.2 1.5 1.1 2.8 2.5 3.3l.8 8.3c-1.2.8-1.9 2.2-1.8 3.8l.2 2.4c.1 1.1.6 2 1.4 2.7.7.6 1.6.9 2.5.9h.4l8.4-.8c1.1-.1 2-.6 2.7-1.4.7-.8 1-1.9.9-2.9l.1-2.7c0-.4-.1-.8-.3-1.1 2.1-.6 3.9-1.6 5.3-3.1 2-2.2 2.9-4.9 2.6-8-.3-3.1-1.7-5.6-4.1-7.3-2-1.3-4.2-2-6.9-2z"/>
    <path d="M115.7 45.1c-2.8 0-5.2-1-7.2-2.8-2.2-2.1-3.5-4.9-3.9-8.3v-.3c-.3-3.4.4-6.4 2.1-8.9 1.8-2.6 4.4-4.1 7.8-4.4.4 0 .9-.1 1.3-.1 2.8 0 5.2 1 7.2 2.8 2.2 2.1 3.6 4.9 3.9 8.3v.3c.3 3.4-.4 6.5-2.2 9-1.8 2.6-4.5 4.1-7.8 4.4h-1.2zm-.1-17.7h-.4c-1.3.1-1.8.7-2 1.2-.5 1-.7 2.4-.5 4.1v.3c.2 1.7.6 3.1 1.4 4 .5.6 1 .9 1.8.9h.4c1.3-.1 1.8-.7 2.1-1.3.5-1 .7-2.4.6-4.1v-.3c-.2-1.7-.6-3-1.4-3.9-.6-.7-1.2-.9-2-.9z" class="jackpotishere-st1"/>
    <path d="M115.8 22.2c2.3 0 4.2.8 5.9 2.3 1.9 1.8 3 4.1 3.3 7.1v.3c.3 3-.3 5.5-1.8 7.6-1.5 2.1-3.6 3.3-6.4 3.6-.4 0-.7.1-1.1.1-2.3 0-4.2-.8-5.8-2.3-1.9-1.8-3-4.1-3.3-7.1v-.3c-.3-2.9.3-5.5 1.8-7.6 1.5-2.1 3.6-3.3 6.3-3.6.3-.1.7-.1 1.1-.1m0 17.7h.6c1.7-.2 2.9-1 3.7-2.3.7-1.4 1-3.1.8-5.3V32c-.2-2.1-.8-3.7-1.8-5-.9-1.1-2-1.6-3.4-1.6h-.6c-1.7.2-2.9.9-3.6 2.3-.7 1.4-1 3.1-.7 5.2v.3c.2 2.1.8 3.8 1.8 5 .7 1.2 1.8 1.7 3.2 1.7m0-21.7c-.5 0-1 0-1.5.1-3.9.4-7 2.2-9.2 5.3-2 2.9-2.9 6.4-2.5 10.3v.3c.4 3.9 1.9 7.2 4.5 9.6 2.4 2.2 5.3 3.4 8.6 3.4.5 0 1 0 1.5-.1 3.9-.4 7.1-2.2 9.2-5.2 2.1-2.9 2.9-6.4 2.5-10.3v-.3c-.4-3.9-1.9-7.2-4.5-9.6-2.4-2.4-5.3-3.5-8.6-3.5zm-.8 11.3s.1-.1.4-.1h.2c.2 0 .2 0 .4.1.5.6.8 1.6.9 2.8v.3c.1 1.3 0 2.3-.3 3 0 .1-.1.1-.1.1s-.2.1-.4.1h-.4l-.1-.1c-.5-.6-.8-1.6-.9-2.9v-.3c-.2-1.2-.1-2.3.3-3z"/>
    <path d="M133.8 43c-1 0-1.9-.8-2-1.8l-.2-2.4c-.1-1 .5-1.8 1.4-2.1l.5-.2-1-9.7c-.2.8-.9 1.4-1.7 1.5l-3.1.3h-.2c-.5 0-.9-.2-1.3-.5s-.7-.8-.7-1.3l-.5-5.4c-.1-1.1.7-2.1 1.8-2.2l18-1.8h.2c.5 0 .9.2 1.3.5s.7.8.7 1.3l.5 5.4c.1.5-.1 1.1-.4 1.5s-.8.7-1.3.7l-3.1.3h-.2c-.8 0-1.5-.5-1.8-1.2l1 9.7h.6c1 .1 1.7.8 1.8 1.8l.2 2.4c.1 1.1-.7 2.1-1.8 2.2l-8.5 1h-.2z" class="jackpotishere-st1"/>
    <path d="M145 19.5l.5 5.4-3.1.3-.4-2.2-3.7.4 1.4 14.2 2.2.2.2 2.4-8.4.8-.2-2.4 2.1-.6-1.4-14.2-3.7.4.1 2.3-3.1.3-.5-5.4 18-1.9m0-4h-.4l-18 1.8c-2.2.2-3.8 2.2-3.6 4.4l.5 5.4c.1 1.1.6 2 1.4 2.7.7.6 1.6.9 2.5.9h.4l3-.3.5 4.9c-1.2.8-2 2.2-1.8 3.8l.2 2.4c.2 2.1 1.9 3.6 4 3.6h.4l8.4-.8c2.2-.2 3.8-2.2 3.6-4.4l-.2-2.4c-.2-1.5-1.2-2.8-2.5-3.3l-.5-4.9 3-.3c1.1-.1 2-.6 2.7-1.4.7-.8 1-1.9.9-2.9l-.5-5.4c-.1-1.1-.6-2-1.4-2.7-.8-.8-1.7-1.1-2.6-1.1z"/>
    <path d="M159.3 40.4c-1 0-1.9-.8-2-1.8l-.2-2.4c-.1-1 .5-1.8 1.4-2.1l.5-.2-1.1-11.2h-.6c-1-.1-1.7-.8-1.8-1.8l-.2-2.4c-.1-.5.1-1.1.4-1.5s.8-.7 1.3-.7l8.4-.8h.2c1 0 1.9.8 2 1.8l.2 2.4c.1 1-.5 1.8-1.4 2.1l-.5.2 1.1 11.2h.6c1 .1 1.7.8 1.8 1.8l.2 2.4c.1 1.1-.7 2.1-1.8 2.2l-8.4.8h-.1z" class="jackpotishere-st1"/>
    <path d="M165.6 17.4l.2 2.4-2.1.6 1.5 14.5 2.2.2.2 2.4-8.4.8-.2-2.3 2.1-.6-1.5-14.5-2.2-.2-.2-2.4 8.4-.9m0-4h-.4l-8.4.8c-2.2.2-3.8 2.2-3.6 4.4l.2 2.4c.2 1.5 1.2 2.8 2.5 3.3l.8 8.3c-1.2.8-2 2.2-1.8 3.8l.2 2.4c.2 2.1 1.9 3.6 4 3.6h.4l8.4-.8c1.1-.1 2-.6 2.7-1.4.7-.8 1-1.9.9-2.9l-.2-2.4c-.2-1.5-1.2-2.8-2.5-3.3l-.8-8.3c1.2-.8 2-2.2 1.8-3.8l-.2-2.4c-.1-1.1-.6-2-1.4-2.7-.8-.7-1.7-1-2.6-1z"/>
    <path d="M177.7 38.8c-1.2 0-2.4-.2-3.6-.5-1.6-.5-3-1.2-4.2-2.2-.4-.3-.6-.8-.7-1.3l-.4-4.2c-.1-1.1.7-2.1 1.8-2.2l1.4-.1c-.3-.2-.6-.3-.9-.5-1.8-1.2-2.9-3-3.2-5.2-.2-2.3.6-4.3 2.3-5.9 1.6-1.5 3.7-2.4 6.2-2.6.6-.1 1.1-.1 1.7-.1 1.2 0 2.3.1 3.4.4 1.6.4 2.9 1 4.1 1.9.5.3.7.8.8 1.4l.4 4.1c.1.5-.1 1.1-.4 1.5-.3.4-.8.7-1.3.7l-1.4.1c.5.3 1 .5 1.4.8 1.7 1.2 2.7 3 3 5.3.2 2.4-.6 4.4-2.3 6-1.6 1.4-3.7 2.3-6.4 2.5-.7.1-1.2.1-1.7.1zm-1.3-7.3c.1 0 .3.1.4.1.3.1.7.1 1 .1h.7c.9-.1 1.2-.3 1.3-.4.1-.1.1-.1.1-.3 0-.3-.1-.3-.2-.3-.1-.1-.7-.4-2.3-.7-.6-.1-1.1-.2-1.6-.3l.6 1.8zm-.3-9.7c.3.2 1 .5 2.9.9.3.1.6.1.9.2l-.5-1.7h-.3c-.3 0-.6-.1-.9-.1h-.8c-.9.1-1.2.3-1.3.4-.1.1-.1.1-.1.2s0 .1.1.1z" class="jackpotishere-st1"/>
    <path d="M178.1 15.9c1 0 2 .1 2.9.4 1.3.3 2.5.9 3.4 1.6l.4 4.1-3 .3-.8-2.7c-.4-.2-.9-.3-1.6-.4-.4-.1-.8-.1-1.2-.1h-1c-1.1.1-1.9.4-2.5 1-.6.5-.8 1.2-.7 1.9.1.7.4 1.2 1.1 1.6.7.4 1.8.7 3.4 1.1 2.3.4 4.1 1 5.3 1.9 1.3.9 2 2.2 2.1 3.8.2 1.7-.4 3.2-1.6 4.3-1.3 1.1-3 1.8-5.3 2-.5 0-.9.1-1.4.1-1.1 0-2.1-.1-3-.4-1.3-.4-2.5-1-3.4-1.8l-.4-4.2 3.1-.3.7 2.8c.4.3 1 .5 1.7.7.5.1.9.1 1.4.1h.9c1.1-.1 1.9-.4 2.5-.9.5-.5.8-1.1.7-1.9-.1-.8-.4-1.4-1-1.8-.6-.4-1.6-.8-3-1-2.5-.5-4.4-1.1-5.7-1.9s-2.1-2.1-2.2-3.7c-.2-1.6.4-3 1.7-4.2 1.3-1.2 3-1.9 5.1-2.1.5-.2 1-.3 1.4-.3m0-4c-.6 0-1.2 0-1.8.1h-.1c-2.9.3-5.4 1.4-7.3 3.2-2.2 2-3.2 4.7-3 7.6.2 1.9.9 3.5 2 4.9-.8.8-1.2 2-1.1 3.2l.4 4.2c.1 1 .6 2 1.4 2.6 1.4 1.2 3.1 2.1 4.9 2.6 1.3.4 2.7.5 4.1.5.6 0 1.2 0 1.8-.1 3.1-.3 5.6-1.3 7.5-3 2.2-2 3.3-4.7 3-7.7-.2-2.1-1-3.8-2.2-5.3l.2-.2c.7-.8 1-1.9.9-2.9l-.4-4.1c-.1-1.1-.7-2.1-1.6-2.8-1.4-1-3-1.7-4.8-2.2-1.2-.4-2.5-.6-3.9-.6z"/>
    <path d="M199.1 36.4c-1 0-1.9-.8-2-1.8l-.2-2.4c-.1-1 .5-1.8 1.4-2.1l.5-.2-1.1-11.2h-.5c-1-.1-1.7-.8-1.8-1.8l-.2-2.4c-.1-.5.1-1.1.4-1.5s.8-.7 1.3-.7l8.4-.8h.2c.9 0 1.7.6 1.9 1.4.1-.9.8-1.7 1.8-1.8l8.4-.8h.2c1 0 1.9.8 2 1.8l.2 2.4c.1 1-.5 1.8-1.4 2.1l-.5.2 1.1 11.2h.6c1 .1 1.7.8 1.8 1.8l.2 2.4c.1 1.1-.7 2.1-1.8 2.2l-8.4.8h-.2c-.9 0-1.7-.6-1.9-1.4-.1.9-.8 1.7-1.8 1.8l-8.4.8h-.2zm8.3-7.2c.8.1 1.5.7 1.7 1.4.1-.8.6-1.5 1.4-1.8l.5-.2-.2-1.9-4.3.4.2 1.9.7.2zm-1.5-9.1l4.3-.4-.2-2.2h-.6c-.8-.1-1.5-.7-1.7-1.4-.1.8-.6 1.5-1.4 1.8l-.5.2.1 2z" class="jackpotishere-st1"/>
    <path d="M217.7 12.2l.2 2.4-2.1.6 1.5 14.5 2.2.2.2 2.4-8.4.8-.2-2.4 2.1-.6-.6-5.6-8.2.8.6 5.7 2.2.2.2 2.4-8.4.8-.2-2.4 2.1-.6-1.5-14.5-2.2-.2-.2-2.4 8.4-.8.2 2.4-2.1.6.6 5.8 8.2-.8-.6-5.8-2.2-.2-.2-2.4 2.2-.2 4-.4 2.2-.3m0-4h-.4l-2.2.2-4 .4-2.2.2c-.7.1-1.4.3-1.9.7-.5-.2-1.1-.3-1.6-.3h-.4l-8.4.8c-2.2.2-3.8 2.2-3.6 4.4l.2 2.4c.2 1.5 1.1 2.8 2.5 3.3l.8 8.3c-1.2.8-1.9 2.2-1.8 3.8l.2 2.4c.2 2.1 1.9 3.6 4 3.6h.4l8.4-.8c.7-.1 1.4-.3 1.9-.7.5.2 1 .3 1.6.3h.4l8.4-.8c2.2-.2 3.8-2.2 3.6-4.4l-.2-2.4c-.2-1.5-1.2-2.8-2.5-3.3l-.8-8.3c1.2-.8 2-2.2 1.8-3.8l-.2-2.4c-.2-2.1-2-3.6-4-3.6z"/>
    <path d="M223.2 34c-.5 0-.9-.2-1.3-.5s-.7-.8-.7-1.3l-.2-2.4c-.1-1 .5-1.8 1.4-2.1l.5-.2-1.1-11.2h-.5c-1-.1-1.7-.8-1.8-1.8l-.2-2.4c-.1-1.1.7-2.1 1.8-2.2l16-1.6h.2c.5 0 .9.2 1.3.5s.7.8.7 1.3l.6 5.5c.1 1.1-.7 2.1-1.8 2.2l-1 .1c.1.2.2.4.2.7l.3 3.1c.1.5-.1 1-.4 1.4l1.5-.2h.2c1 0 1.9.8 2 1.8l.6 5.5c.1.5-.1 1.1-.4 1.5-.3.4-.8.7-1.3.7l-16 1.6h-.6zm7.7-7.9l2.7-.3v-.6c0-.5.1-.9.4-1.3l-3.3.3.2 1.9zm-.9-8.9l2.8-.3c-.1-.2-.1-.3-.2-.5l-.1-.6-2.6.3.1 1.1z" class="jackpotishere-st1"/>
    <path d="M237.2 10.2l.6 5.5-3.1.3-.4-2.4-6.5.7.5 5.1 6.8-.7.3 3.1-6.8.7.6 5.8 6.5-.7-.1-2.4 3.1-.3.6 5.5-16 1.6-.2-2.4 2.1-.6-1.5-14.5-2.2-.2-.2-2.4 2.2-.2 13.7-1.5m0-4h-.4L223 7.6l-2.2.2c-2.2.2-3.8 2.2-3.6 4.4l.2 2.4c.2 1.5 1.1 2.8 2.5 3.3l.8 8.3c-1.2.8-1.9 2.2-1.8 3.8l.2 2.4c.1 1.1.6 2 1.4 2.7.7.6 1.6.9 2.5.9h.4l16-1.6c1.1-.1 2-.6 2.7-1.4s1-1.9.9-2.9l-.6-5.5c-.1-1.1-.6-2-1.4-2.7-.5-.4-1.2-.7-1.9-.8l-.1-1.5c.6-.2 1.2-.7 1.6-1.2.7-.8 1-1.9.9-2.9l-.6-5.5c-.1-1.1-.6-2-1.4-2.7-.5-.8-1.4-1.1-2.3-1.1z"/>
    <path d="M243.3 32c-.5 0-.9-.2-1.3-.5s-.7-.8-.7-1.3l-.2-2.4c-.1-1 .5-1.8 1.4-2.1l.5-.2-1.1-11.2h-.5c-1-.1-1.7-.8-1.8-1.8l-.2-2.4c-.1-.5.1-1.1.4-1.5s.8-.7 1.3-.7l9.1-.9c.5-.1 1-.1 1.5-.1 2.1 0 3.9.5 5.3 1.4 1.9 1.2 3 3.2 3.3 5.6.1 1.4-.1 2.8-.8 3.9-.1.2-.2.4-.4.5.3.2.5.5.7.8.8 1.1 1.4 2.4 1.5 4l.1.6c1 .1 1.7.8 1.8 1.8l.2 2.4c.1.5-.1 1.1-.4 1.5-.3.4-.8.7-1.3.7l-2.1.2h-.8c-2 0-3.1-.8-3.7-1.5-.9-1-1.4-2.3-1.6-3.8l-.1-1.2c0-.5-.2-.8-.3-.9-.1 0-.2-.2-.7-.2h-.2l-1.3.1.2 1.7h.6c1 .1 1.7.8 1.8 1.8l.2 2.4c.1.5-.1 1.1-.4 1.5-.3.4-.8.7-1.3.7l-8.4.8c-.2.3-.3.3-.3.3zm6.8-16.1l.8-.1c.9-.1 1.2-.3 1.2-.4.1-.1.1-.3.1-.6-.1-.5-.2-.7-.3-.7-.1-.1-.4-.2-.7-.2h-.4l-.9.1.2 1.9z" class="jackpotishere-st1"/>
    <path d="M251.6 8.8c1.7 0 3.1.4 4.2 1.1 1.4.9 2.2 2.3 2.4 4.2.1 1-.1 1.9-.6 2.7-.5.8-1.2 1.5-2.2 2.1 1.2.2 2.1.7 2.8 1.5.6.8 1 1.8 1.1 3l.1 1c0 .4.2.8.4 1 .2.2.5.3.9.3h.5l.2 2.4-2.1.2h-.6c-1 0-1.8-.3-2.3-.8-.6-.7-1-1.6-1.1-2.7l-.1-1.2c-.1-1-.4-1.7-1-2.2-.5-.4-1.2-.7-2-.7h-.3l-3.3.3.5 5.3 2.2.2.2 2.4-8.4.8-.2-2.4 2.1-.6-1.5-14.5-2.2-.2-.2-2.4 2.2-.2 6.9-.7c.6.1 1 .1 1.4.1m-3.3 9.3l2.8-.3c1.1-.1 2-.4 2.5-1 .5-.5.7-1.3.6-2.2-.1-.9-.4-1.6-1.1-2.1-.5-.4-1.2-.6-2-.6h-.6l-2.9.3.7 5.9m3.3-13.3c-.6 0-1.1 0-1.7.1l-6.9.7-2.2.2c-1.1.1-2 .6-2.7 1.4-.7.8-1 1.9-.9 2.9l.2 2.4c.2 1.5 1.1 2.8 2.5 3.3l.8 8.3c-1.2.8-1.9 2.2-1.8 3.8l.2 2.4c.2 2.1 1.9 3.6 4 3.6h.4l8.4-.8c1.1-.1 2-.6 2.7-1.4.1-.1.1-.2.2-.3.9.6 2.2 1 3.8 1 .3 0 .7 0 1-.1l2.1-.2c1.1-.1 2-.6 2.7-1.4s1-1.9.9-2.9l-.2-2.4c-.1-1.3-.9-2.4-2-3.1-.3-1.6-.8-3-1.7-4.2.6-1.4.9-2.8.7-4.4-.3-3.1-1.8-5.5-4.2-7.1-1.6-1.2-3.8-1.8-6.3-1.8z"/>
    <path d="M264.9 29.8c-.5 0-.9-.2-1.3-.5s-.7-.8-.7-1.3l-.2-2.4c-.1-1 .5-1.8 1.4-2.1l.5-.2-1.1-11.2h-.5c-1-.1-1.7-.8-1.8-1.8l-.2-2.4c-.1-1.1.7-2.1 1.8-2.2l16-1.6h.2c.5 0 .9.2 1.3.5s.7.8.7 1.3l.6 5.5c.1 1.1-.7 2.1-1.8 2.2l-1 .1c.1.2.2.4.2.7l.3 3.1c.1.5-.1 1-.4 1.4l1.5-.2h.2c.5 0 .9.2 1.3.5s.7.8.7 1.3l.6 5.5c.1 1.1-.7 2.1-1.8 2.2l-16 1.6h-.5zm7.7-7.9l2.7-.3V21c0-.5.1-.9.4-1.3l-3.3.3.2 1.9zm-.9-8.9l2.8-.3c-.1-.2-.1-.3-.2-.5l-.1-.6-2.6.3.1 1.1z" class="jackpotishere-st1"/>
    <path d="M278.8 6l.6 5.5-3.1.3-.4-2.4-6.5.7.5 5.1 6.8-.7.3 3.1-6.8.7.6 5.8 6.5-.7-.1-2.4 3.1-.3.6 5.5-16 1.6-.2-2.4 2.1-.6-1.5-14.5-2.2-.2-.2-2.4 2.2-.2L278.8 6m0-4h-.4l-13.8 1.4-2.2.2c-2.2.2-3.8 2.2-3.6 4.4l.2 2.4c.2 1.5 1.1 2.8 2.5 3.3l.8 8.3c-1.2.8-1.9 2.2-1.8 3.8l.2 2.4c.2 2.1 1.9 3.6 4 3.6h.4l16-1.6c2.2-.2 3.8-2.2 3.6-4.4l-.6-5.5c-.1-1.1-.6-2-1.4-2.7-.5-.4-1.2-.7-1.9-.8l-.1-1.5c.6-.2 1.2-.7 1.6-1.2.7-.8 1-1.9.9-2.9l-.6-5.5c-.1-1.1-.6-2-1.4-2.7-.6-.7-1.5-1-2.4-1z"/>
    <path d="M285.9 27.7c-.5 0-.9-.2-1.3-.5s-.7-.8-.7-1.3l-.4-3.6c-.1-.7.3-1.4.8-1.8-.1-.1-.3-.2-.4-.3-.4-.3-.7-.8-.7-1.3l-1.3-13.2c-.1-1.1.7-2.1 1.8-2.2l4.1-.4h.2c.5 0 .9.2 1.3.5s.7.8.7 1.3l1.3 13.2c.1.7-.3 1.4-.8 1.8.1.1.3.2.4.3.4.3.7.8.7 1.3l.4 3.6c.1 1.1-.7 2.1-1.8 2.2l-4.1.4h-.2z" class="jackpotishere-st1"/>
    <path d="M288 5.1l1.3 13.2-4.1.4-1.3-13.2 4.1-.4m1.6 16.6l.4 3.6-4.1.4-.4-3.6 4.1-.4M288 1.1h-.4l-4.1.4c-2.2.2-3.8 2.2-3.6 4.4l1.3 13.2c.1.6.3 1.2.6 1.7-.2.5-.3 1.1-.2 1.7l.4 3.6c.1 1.1.6 2 1.4 2.7.7.6 1.6.9 2.5.9h.4l4.1-.4c2.2-.2 3.8-2.2 3.6-4.4l-.4-3.6c-.1-.6-.3-1.2-.6-1.7.2-.5.3-1.1.2-1.7l-1.3-13.2c-.1-1.1-.6-2-1.4-2.7-.7-.6-1.6-.9-2.5-.9z"/>
</svg>
