<svg xmlns="http://www.w3.org/2000/svg" viewBox="0 0 626.5 196.1" >
  <style>
    .st1{fill:#fff}.st2{fill-rule:evenodd;clip-rule:evenodd}
  </style>
  <path d="M493.6 149.1H333.5v31.1h271.9v-31.1H493.6"/>
  <path d="M493.6 149.1v-8.9H333.5c-2.3 0-4.6.9-6.3 2.6-1.7 1.7-2.6 3.9-2.6 6.3v31.2c0 2.3.9 4.6 2.6 6.3 1.7 1.7 3.9 2.6 6.3 2.6h271.9c2.3 0 4.6-.9 6.3-2.6 1.7-1.7 2.6-3.9 2.6-6.3v-31.2c0-2.3-.9-4.6-2.6-6.3-1.7-1.7-3.9-2.6-6.3-2.6H493.6V158h103v13.4H342.4V158h151.2v-8.9M61.3 47.5c-25.7 0-46.4 20.8-46.4 46.4 0 25.6 20.8 46.4 46.4 46.4 25.7 0 46.5-20.8 46.5-46.4 0-25.6-20.8-46.4-46.5-46.4"/>
  <path d="M61.3 47.5v-8.9c-7.6 0-14.9 1.5-21.5 4.3-9.9 4.2-18.4 11.2-24.3 20-6 8.9-9.5 19.6-9.5 31 0 7.6 1.5 14.9 4.4 21.5 4.2 9.9 11.2 18.4 20 24.3 8.8 6 19.5 9.4 30.9 9.4 7.6 0 14.9-1.5 21.5-4.3 9.9-4.2 18.4-11.2 24.3-20 6-8.8 9.5-19.5 9.5-30.9 0-7.6-1.5-14.9-4.4-21.5-4.2-9.9-11.2-18.4-20-24.3-8.8-6-19.5-9.4-30.9-9.4v17.8c5.2 0 10.1 1.1 14.6 2.9C82.7 62.2 88.4 67 92.5 73c4.1 6 6.4 13.2 6.4 21 0 5.2-1.1 10.1-2.9 14.6-2.8 6.7-7.6 12.5-13.6 16.5s-13.2 6.4-21 6.4c-5.2 0-10.1-1.1-14.6-2.9-6.7-2.8-12.5-7.6-16.5-13.6-4.1-6-6.4-13.2-6.4-21 0-5.2 1.1-10.1 2.9-14.6 2.8-6.7 7.6-12.5 13.6-16.5s13.2-6.4 21-6.4v-9"/>
  <path d="M161.8 47.5c-25.7 0-46.4 20.8-46.4 46.4 0 25.6 20.8 46.4 46.4 46.4 25.7 0 46.4-20.8 46.4-46.4.1-25.6-20.7-46.4-46.4-46.4"/>
  <path d="M161.8 47.5v-8.9c-7.6 0-14.9 1.5-21.5 4.3-9.9 4.2-18.4 11.2-24.3 20-6 8.8-9.5 19.5-9.5 30.9 0 7.6 1.5 14.9 4.4 21.5 4.2 9.9 11.2 18.4 20 24.3 8.8 6 19.5 9.4 30.9 9.4 7.6 0 14.9-1.5 21.5-4.3 9.9-4.2 18.4-11.2 24.3-20 6-8.8 9.5-19.5 9.5-30.9 0-7.6-1.5-14.9-4.4-21.5-4.2-9.9-11.2-18.4-20-24.3-8.8-6-19.5-9.4-30.9-9.4v17.8c5.2 0 10.1 1.1 14.6 2.9 6.7 2.8 12.5 7.6 16.5 13.6 4.1 6 6.4 13.2 6.4 21 0 5.2-1.1 10.1-2.9 14.6-2.8 6.7-7.6 12.5-13.6 16.5s-13.2 6.4-21 6.4c-5.2 0-10.1-1.1-14.6-2.9-6.7-2.8-12.5-7.6-16.5-13.6-4.1-6-6.4-13.2-6.4-21 0-5.2 1.1-10.1 2.9-14.6 2.8-6.7 7.6-12.5 13.6-16.5s13.2-6.4 21-6.4v-8.9"/>
  <path d="M262.6 47.5c-25.7 0-46.4 20.8-46.4 46.4 0 25.6 20.8 46.4 46.4 46.4 25.7 0 46.4-20.8 46.4-46.4 0-25.6-20.8-46.4-46.4-46.4"/>
  <path d="M262.6 47.5v-8.9c-7.6 0-14.9 1.5-21.5 4.3-9.9 4.2-18.4 11.2-24.3 20-6 8.8-9.5 19.5-9.5 30.9 0 7.6 1.5 14.9 4.4 21.5 4.2 9.9 11.2 18.4 20 24.3 8.8 6 19.5 9.4 30.9 9.4 7.6 0 14.9-1.5 21.5-4.3 9.9-4.2 18.4-11.2 24.3-20 6-8.8 9.5-19.5 9.5-30.9 0-7.6-1.5-14.9-4.4-21.5-4.2-9.9-11.2-18.4-20-24.3-8.8-6-19.5-9.4-30.9-9.4v17.8c5.2 0 10.1 1.1 14.6 2.9 6.7 2.8 12.5 7.6 16.5 13.6 4.1 6 6.4 13.2 6.4 21 0 5.2-1 10.1-2.9 14.6-2.8 6.7-7.6 12.5-13.6 16.5s-13.2 6.4-21 6.4c-5.2 0-10.1-1.1-14.6-2.9-6.7-2.8-12.5-7.6-16.5-13.6-4.1-6-6.4-13.2-6.4-21 0-5.2 1.1-10.1 2.9-14.6 2.8-6.7 7.6-12.5 13.6-16.5s13.2-6.4 21-6.4v-8.9"/>
  <path d="M410 93.9c0-25.6-20.8-46.4-46.5-46.4s-46.4 20.8-46.4 46.4c0 25.6 20.8 46.4 46.4 46.4 25.7 0 46.5-20.8 46.5-46.4"/>
  <path d="M410 93.9h8.9c0-7.6-1.5-14.9-4.4-21.5-4.2-9.9-11.2-18.4-20-24.3-8.8-6-19.5-9.4-30.9-9.4-7.6 0-14.9 1.5-21.5 4.3-9.9 4.2-18.4 11.2-24.3 20-6 8.8-9.5 19.5-9.5 30.9 0 7.6 1.5 14.9 4.4 21.5 4.2 9.9 11.2 18.4 20 24.3 8.8 6 19.5 9.4 30.9 9.4 7.6 0 14.9-1.5 21.5-4.3 9.9-4.2 18.4-11.2 24.3-20 6-8.8 9.5-19.5 9.5-30.9h-17.8c0 5.2-1.1 10.1-2.9 14.6-2.8 6.7-7.6 12.5-13.6 16.5s-13.2 6.4-21 6.4c-5.2 0-10.1-1.1-14.6-2.9-6.7-2.8-12.5-7.6-16.5-13.6-4.1-6-6.4-13.2-6.4-21 0-5.2 1.1-10.1 2.9-14.6 2.8-6.7 7.6-12.5 13.6-16.5s13.2-6.4 21-6.4c5.2 0 10.1 1.1 14.6 2.9 6.7 2.8 12.5 7.6 16.5 13.6 4.1 6 6.4 13.2 6.4 21h8.9"/>
  <path d="M463.4 140.3c25.7 0 46.5-20.8 46.5-46.4 0-25.6-20.8-46.4-46.5-46.4S417 68.3 417 93.9c-.1 25.6 20.7 46.4 46.4 46.4"/>
  <path d="M463.4 140.3v8.9c7.6 0 14.9-1.5 21.5-4.3 9.9-4.2 18.4-11.2 24.3-20 6-8.8 9.5-19.5 9.5-30.9 0-7.6-1.5-14.9-4.4-21.5-4.2-9.9-11.2-18.4-20-24.3-8.8-6-19.5-9.4-30.9-9.4-7.6 0-14.9 1.5-21.5 4.3-9.9 4.2-18.4 11.2-24.3 20-6 8.8-9.5 19.5-9.5 30.9 0 7.6 1.5 14.9 4.4 21.5 4.2 9.9 11.2 18.4 20 24.3 8.8 6 19.5 9.4 30.9 9.4v-17.8c-5.2 0-10.1-1.1-14.6-2.9-6.7-2.8-12.5-7.6-16.5-13.6-4.1-6-6.4-13.2-6.4-21 0-5.2 1.1-10.1 2.9-14.6 2.8-6.7 7.6-12.5 13.6-16.5s13.2-6.4 21-6.4c5.2 0 10.1 1.1 14.6 2.9 6.7 2.8 12.5 7.6 16.5 13.6 4.1 6 6.4 13.2 6.4 21 0 5.2-1.1 10.1-2.9 14.6-2.8 6.7-7.6 12.5-13.6 16.5s-13.2 6.4-21 6.4v8.9"/>
  <path d="M562.5 140.3c25.7 0 46.5-20.8 46.5-46.4 0-25.6-20.8-46.4-46.5-46.4s-46.4 20.8-46.4 46.4c0 25.6 20.8 46.4 46.4 46.4"/>
  <path d="M562.5 140.3v8.9c7.6 0 14.9-1.5 21.5-4.3 9.9-4.2 18.4-11.2 24.3-20 6-8.8 9.5-19.5 9.5-30.9 0-7.6-1.5-14.9-4.4-21.5-4.2-9.9-11.2-18.4-20-24.3-8.8-6-19.5-9.4-30.9-9.4-7.6 0-14.9 1.5-21.5 4.3-9.9 4.2-18.4 11.2-24.3 20-6 8.8-9.5 19.5-9.5 30.9 0 7.6 1.5 14.9 4.4 21.5 4.2 9.9 11.2 18.4 20 24.3 8.8 6 19.5 9.4 30.9 9.4v-17.8c-5.2 0-10.1-1.1-14.6-2.9-6.7-2.8-12.5-7.6-16.5-13.6-4.1-6-6.4-13.2-6.4-21 0-5.2 1.1-10.1 2.9-14.6 2.8-6.7 7.6-12.5 13.6-16.5s13.2-6.4 21-6.4c5.2 0 10.1 1.1 14.6 2.9 6.7 2.8 12.5 7.6 16.5 13.6 4.1 6 6.4 13.2 6.4 21 0 5.2-1.1 10.1-2.9 14.6-2.8 6.7-7.6 12.5-13.6 16.5s-13.2 6.4-21 6.4v8.9M31 14.4v11.5l7.7-11.5h5.5l-5.9 8.7 7.3 15.7h-6.3l-4.9-10.6-3.4 5v5.6h-5.6V14.4H31z"/>
  <path d="M31 14.4v11.5l7.7-11.5h5.5l-5.9 8.7 7.3 15.7h-6.3l-4.9-10.6-3.4 5v5.6h-5.6V14.4H31z" fill="none" stroke="#000" stroke-width="14" stroke-linecap="round" stroke-linejoin="round" stroke-miterlimit="10"/>
  <path d="M66.3 19H54.6v5h9.2v4.6h-9.2V34h11.6v4.8H48.8V14.4h17.5V19z"/>
  <path d="M66.3 45.8H48.8c-3.9 0-7-3.1-7-7V14.4c0-3.9 3.1-7 7-7h17.5c3.9 0 7 3.1 7 7V19c0 2.1-1 4.1-2.5 5.4v4.2c1.5 1.3 2.5 3.2 2.5 5.4v4.8c0 3.9-3.2 7-7 7z"/>
  <path d="M89.6 14.4v24.4h-4.9l-9.6-16.5v.8c0 .4.1.8.1 1.1v14.6h-4.5V14.4H77l8.3 14.4c-.1-.7-.1-1.3-.1-1.6V14.4h4.4z"/>
  <path d="M89.6 45.8h-4.9c-1.8 0-3.5-.7-4.7-1.8-1.2 1.1-2.9 1.8-4.7 1.8h-4.5c-3.9 0-7-3.1-7-7V14.4c0-3.9 3.1-7 7-7H77c1.5 0 2.9.5 4.1 1.3 1.2-.8 2.6-1.3 4.1-1.3h4.4c3.9 0 7 3.1 7 7v24.4c0 3.9-3.1 7-7 7z"/>
  <path d="M111.2 14.4v4.8h-6.1v19.6h-5.8V19.2h-6.1v-4.8h18z"/>
  <path d="M105.2 45.8h-5.8c-3.9 0-7-3.1-7-7V26.2c-3.4-.4-6.1-3.4-6.1-6.9v-4.8c0-3.9 3.1-7 7-7h17.9c3.9 0 7 3.1 7 7v4.8c0 3.5-2.6 6.5-6.1 6.9v12.7c.1 3.8-3.1 6.9-6.9 6.9z"/>
  <path d="M135.5 14.4v15.2c0 2.5-.3 4.3-.8 5.5s-1.6 2.2-3.1 3c-1.5.8-3.4 1.2-5.8 1.2s-4.2-.3-5.6-1c-1.4-.7-2.4-1.7-3.1-3-.7-1.3-1-3.1-1-5.6V14.4h6.2v15.2c0 1.3.1 2.3.3 2.9.2.6.7 1.1 1.3 1.5.7.4 1.5.5 2.4.5 1.1 0 1.9-.2 2.6-.5.7-.4 1.1-.8 1.3-1.4s.3-1.6.3-3V14.4h5z"/>
  <path d="M125.8 46.2c-3.5 0-6.3-.6-8.7-1.8-2.7-1.3-4.8-3.3-6.2-5.9-1.3-2.3-1.9-5.3-1.9-8.9V14.4c0-3.9 3.1-7 7-7h6.2c1.6 0 3 .5 4.2 1.4 1.2-.9 2.6-1.4 4.2-1.4h4.9c3.9 0 7 3.1 7 7v15.2c0 3.6-.5 6.3-1.5 8.5-1.2 2.6-3.3 4.7-6.3 6.2-2.4 1.3-5.4 1.9-8.9 1.9z"/>
  <path d="M160.2 23.5l-6 .4c-.1-3.4-1.4-5.2-4-5.2-3 0-4.5 2.7-4.5 8 0 3.1.4 5.1 1.2 6.2s1.9 1.6 3.4 1.6c2.4 0 3.8-1.5 4.3-4.6l5.6.3c-.4 2.9-1.4 5.1-3.3 6.7-1.8 1.5-4 2.3-6.7 2.3-3.2 0-5.9-1.1-7.9-3.3-2-2.2-3-5.3-3-9.3 0-3.7 1-6.7 2.9-9.1 2-2.4 4.6-3.5 8-3.5 5.9 0 9.3 3.2 10 9.5z"/>
  <path d="M150.2 46.2c-5.2 0-9.7-2-13.1-5.6-3.2-3.5-4.8-8.2-4.8-14 0-5.4 1.5-9.9 4.6-13.5 3.3-4 7.9-6 13.4-6 9.4 0 15.7 5.9 16.9 15.7.2 1.5-.1 2.9-.8 4.2.7 1.3 1 2.8.8 4.2-.7 5.9-3.5 9.3-5.7 11.2-3.1 2.4-7 3.8-11.3 3.8z"/>
  <path d="M170.3 14.4v11.5l7.7-11.5h5.5l-5.9 8.7 7.3 15.7h-6.3l-4.9-10.6-3.4 5v5.6h-5.6V14.4h5.6z"/>
  <path d="M184.9 45.8h-6.3c-1.5 0-3-.5-4.2-1.4-1.2.9-2.6 1.4-4.2 1.4h-5.6c-3.9 0-7-3.1-7-7V14.4c0-3.9 3.1-7 7-7h5.6c1.4 0 2.7.4 3.8 1.1 1.1-.7 2.4-1.1 3.8-1.1h5.5c2.6 0 5 1.4 6.2 3.7s1.1 5.1-.4 7.2l-3.7 5.4 5.7 12.1c1 2.2.8 4.7-.4 6.7-1.2 2.1-3.4 3.3-5.8 3.3z"/>
  <path d="M205.8 14.4l-7.7 14.1v10.3h-5.7V28.5l-7.7-14.1h6.6l4.7 9.3 4.6-9.3h5.2z"/>
  <path d="M198.1 45.8h-5.7c-3.9 0-7-3.1-7-7v-8.5l-6.8-12.6c-1.2-2.2-1.1-4.8.1-6.9 1.3-2.1 3.5-3.4 6-3.4h6.6c1.7 0 3.4.6 4.6 1.8 1.3-1.1 2.9-1.8 4.6-1.8h5.1c2.5 0 4.8 1.3 6 3.4 1.3 2.1 1.3 4.8.1 6.9l-6.8 12.6v8.5c.2 3.9-2.9 7-6.8 7z"/>
  <path d="M210.5 24.4l2.5-4.9h-2.5v-5.1h5.2v4.5l-3.2 5.5h-2z"/>
  <path d="M212.5 31.4h-2c-2.4 0-4.7-1.3-6-3.3-1.1-1.8-1.3-4.1-.6-6.1-.3-.8-.4-1.6-.4-2.4v-5.1c0-3.9 3.1-7 7-7h5.2c3.9 0 7 3.1 7 7V19c0 1.2-.3 2.5-1 3.5l-3.2 5.5c-1.2 2-3.5 3.4-6 3.4z"/>
  <path d="M237.3 19.8l-4.9 1.6c-.7-1.9-2-2.9-4.2-2.9-2.3 0-3.4.7-3.4 2.2 0 .6.2 1.1.6 1.5.4.4 1.4.8 2.9 1.1 2.5.5 4.3 1 5.5 1.5 1.2.5 2.1 1.3 2.9 2.5.8 1.1 1.2 2.4 1.2 3.8 0 2.2-.8 4.1-2.5 5.7-1.7 1.6-4.2 2.4-7.6 2.4-2.5 0-4.6-.6-6.4-1.7-1.8-1.1-2.9-2.8-3.5-5.1l5.3-1.2c.6 2.3 2.3 3.4 5 3.4 1.3 0 2.3-.3 2.9-.8.6-.5 1-1.1 1-1.8s-.3-1.3-.9-1.7c-.6-.4-1.7-.8-3.4-1.1-3.1-.6-5.3-1.5-6.7-2.6s-2-2.7-2-4.9.8-4 2.4-5.5c1.6-1.5 3.7-2.2 6.4-2.2 5 0 8 1.9 9.4 5.8z"/>
  <path d="M227.9 46.2c-3.9 0-7.3-1-10.2-2.8-3.2-2.1-5.5-5.3-6.5-9.3-.5-1.8-.2-3.8.8-5.4.3-.6.8-1.1 1.2-1.5-.6-1.5-1-3.3-1-5.5 0-4.1 1.6-7.8 4.6-10.6 2-1.9 5.6-4.1 11.2-4.1 7.7 0 13.5 3.8 15.8 10.4.6 1.8.5 3.7-.3 5.4-.2.4-.4.7-.6 1.1 1.3 2.2 2 4.6 2 7.2 0 4.1-1.6 7.9-4.7 10.8-3 2.8-7.2 4.3-12.3 4.3z"/>
  <path class="st1" d="M333.7 149.2h160.1V180H333.7z"/>
  <path class="st1" d="M333.7 149.2v.7h159.4v29.5H334.3v-30.2h-.6v.7-.7h-.7v31.5h161.4v-32.1H333v.6h.7"/>
  <path class="st2" d="M340.5 152.6h12.8c2.8 0 4.9.7 6.3 2 1.4 1.3 2.1 3.2 2.1 5.7s-.8 4.5-2.3 5.9c-1.5 1.4-3.8 2.1-6.9 2.1h-4.2v9.3h-7.7v-25m7.7 10.7h1.9c1.5 0 2.5-.3 3.1-.8.6-.5.9-1.2.9-2s-.3-1.5-.8-2-1.5-.8-2.9-.8h-2.2v5.6zm19 1.1c0-4.1 1.1-7.2 3.4-9.5s5.4-3.4 9.5-3.4c4.2 0 7.4 1.1 9.6 3.3 2.2 2.2 3.4 5.4 3.4 9.4 0 2.9-.5 5.3-1.5 7.2-1 1.9-2.4 3.3-4.3 4.4-1.9 1-4.2 1.6-6.9 1.6-2.8 0-5.1-.4-7-1.3-1.8-.9-3.3-2.3-4.5-4.3-1.1-2-1.7-4.4-1.7-7.4m7.7.1c0 2.5.5 4.3 1.4 5.4.9 1.1 2.2 1.6 3.8 1.6 1.7 0 2.9-.5 3.8-1.6.9-1.1 1.4-3 1.4-5.8 0-2.4-.5-4.1-1.4-5.2-.9-1.1-2.2-1.6-3.9-1.6-1.6 0-2.8.5-3.7 1.7-.9 1.1-1.4 2.9-1.4 5.5zm22-12h7.3l2.7 13.9 3.8-13.9h7.3l3.9 13.9 2.6-13.9h7.3l-5.5 25h-7.6l-4.3-15.8-4.4 15.8h-7.6l-5.5-25m41.6 0h20.6v5.3h-12.9v4h12v5.1h-12v4.9h13.3v5.7h-21v-25m27.9 25v-25h12.9c2.4 0 4.2.2 5.5.6 1.3.4 2.3 1.2 3.1 2.3.8 1.1 1.2 2.5 1.2 4 0 1.4-.3 2.6-.9 3.6-.6 1-1.4 1.8-2.4 2.4-.7.4-1.6.7-2.7 1 .9.3 1.6.6 2 .9.3.2.7.6 1.2 1.3.5.7.9 1.2 1.1 1.6l3.7 7.2h-8.7l-4.1-7.6c-.5-1-1-1.6-1.4-1.9-.6-.4-1.2-.6-1.9-.6h-.7v10.1h-7.9m7.7-14.8h3.3c.3 0 1-.1 2-.3.5-.1.9-.4 1.3-.8.3-.4.5-.9.5-1.4 0-.8-.3-1.4-.8-1.9-.5-.4-1.5-.7-2.9-.7h-3.4v5.1z"/>
  <path class="st1" d="M493.7 149.2v.7h110.9v29.5H494.4v-30.2h-.7v.7-.7h-.6v31.5h112.8v-32.1H493.1v.6h.6"/>
  <path d="M503.6 155.1v9.5h4.1c2.3 0 4-.4 5.1-1.1 1.1-.8 1.6-1.9 1.6-3.5 0-1.7-.6-2.9-1.6-3.6-1.1-.8-2.9-1.2-5.3-1.2h-3.9m-2.8-2.5h6c1.7 0 3.1.1 4.2.2 1 .2 1.9.4 2.6.8 1.3.7 2.2 1.5 2.9 2.6.7 1.1 1 2.2 1 3.6 0 1.2-.3 2.4-.9 3.5-.6 1.1-1.5 1.9-2.5 2.5-.8.4-1.6.8-2.7 1-1.1.2-2.4.3-4 .3h-3.7v10.4h-2.8v-24.9zm35.9 24.4h-12.8v-24.8h2.8v22.4h10v2.4m9-.3h-2.9l11-24.8h3.4l11 24.8h-3l-3.4-7.8h-12.6l-3.5 7.8m15.1-10l-5.4-12.4-5.3 12.4h10.7zm22.9 1.7v9.1h-2.8v-9.2l-9.1-15.6h3.2l7.3 12.9 7.3-12.9h3.1l-9 15.7m19.7-11.7c0 .8-.2 1.5-.6 2.2-.4.7-.9 1.2-1.6 1.6-.7.4-1.4.6-2.2.6-.8 0-1.5-.2-2.2-.6-.7-.4-1.2-.9-1.6-1.6-.4-.7-.6-1.4-.6-2.2 0-.8.2-1.5.6-2.2.4-.7.9-1.2 1.6-1.6.7-.4 1.4-.6 2.2-.6.8 0 1.5.2 2.2.6.7.4 1.2.9 1.6 1.6.4.7.6 1.5.6 2.2m-.9 0c0-1-.3-1.8-1-2.5s-1.5-1-2.5-1-1.8.3-2.5 1-1 1.5-1 2.5.3 1.8 1 2.5 1.5 1 2.5 1 1.8-.3 2.5-1 1-1.5 1-2.5zm-5.4-2.3h2.1c.6 0 1 .1 1.3.4.3.2.4.6.4 1 0 .3-.1.6-.3.8-.2.2-.5.4-1 .5.2.1.3.1.4.2.1.1.2.3.4.5 0 0 .3.5.8 1.3h-1.4c-.4-.9-.7-1.4-.9-1.6-.1-.2-.3-.3-.5-.3h-.1v1.8h-1.2v-4.6zm1.1 2h.5c.3 0 .6-.1.7-.2.1-.1.2-.2.2-.4s-.1-.3-.2-.4c-.1-.1-.4-.2-.7-.2h-.5v1.2z" fill="#fff" fill-rule="evenodd" clip-rule="evenodd"/>
  <path class="st2" d="M615.1 53c0 .8-.2 1.5-.6 2.2-.4.7-.9 1.2-1.6 1.6-.7.4-1.4.6-2.2.6-.8 0-1.5-.2-2.2-.6-.7-.4-1.2-.9-1.6-1.6-.4-.7-.6-1.4-.6-2.2 0-.8.2-1.5.6-2.2.4-.7.9-1.2 1.6-1.6.7-.4 1.4-.6 2.2-.6.8 0 1.5.2 2.2.6.7.4 1.2.9 1.6 1.6.4.7.6 1.4.6 2.2m-.8 0c0-1-.3-1.8-1-2.5s-1.5-1-2.5-1-1.8.3-2.5 1-1 1.5-1 2.5.3 1.8 1 2.5 1.5 1 2.5 1 1.8-.3 2.5-1c.6-.7 1-1.6 1-2.5zm-5.5-2.3h2.1c.6 0 1 .1 1.3.4.3.2.4.6.4 1 0 .3-.1.6-.3.8-.2.2-.5.4-1 .5.2.1.3.1.4.2.1.1.2.3.4.5 0 0 .3.5.8 1.3h-1.4c-.4-.9-.7-1.4-.9-1.6-.1-.2-.3-.3-.5-.3h-.1v1.8h-1.2v-4.6zm1.2 1.9h.5c.3 0 .6-.1.7-.2.1-.1.2-.2.2-.4s-.1-.3-.2-.4c-.1-.1-.4-.2-.7-.2h-.5v1.2z"/>
  <path class="st1" d="M28.3 13.5v12.1l8.1-12.1h5.8L36 22.7l7.8 16.6H37l-5.2-11.2-3.6 5.3v5.9h-5.9V13.5h6zm36.9 4.9H52.9v5.3h9.7v4.9h-9.7v5.6h12.3v5.1H46.8V13.5h18.5v4.9zm24.3-4.9v25.9h-5.2l-10-17.5v.9c.1.4.1.8.1 1.1v15.5h-4.7V13.5h6.5L85 28.8c-.1-.8-.1-1.3-.1-1.7V13.5h4.6zm22.4 0v5.1h-6.4v20.7h-6.1V18.6H93v-5.1h18.9zm23.7 0v16.1c0 2.6-.3 4.5-.9 5.8-.6 1.3-1.7 2.3-3.3 3.1-1.6.8-3.6 1.2-6.1 1.2-2.5 0-4.5-.4-5.9-1.1-1.5-.7-2.6-1.8-3.3-3.1-.7-1.4-1.1-3.3-1.1-5.9V13.5h6.6v16.1c0 1.4.1 2.4.4 3.1.2.7.7 1.2 1.4 1.6.7.4 1.6.6 2.6.6 1.1 0 2.1-.2 2.8-.6.7-.4 1.2-.9 1.4-1.5s.4-1.7.4-3.1V13.5h5zm25.7 9.6l-6.3.4c-.1-3.6-1.5-5.5-4.3-5.5-3.2 0-4.7 2.8-4.7 8.4 0 3.2.4 5.4 1.3 6.6s2.1 1.7 3.6 1.7c2.5 0 4-1.6 4.6-4.9l5.9.4c-.4 3.1-1.5 5.4-3.5 7.1-1.9 1.6-4.3 2.4-7.1 2.4-3.4 0-6.2-1.2-8.3-3.5-2.1-2.4-3.2-5.6-3.2-9.8 0-3.9 1-7.1 3.1-9.6s4.9-3.7 8.5-3.7c6.1 0 9.6 3.3 10.4 10zm9.4-9.6v12.1l8.1-12.1h5.8l-6.2 9.2 7.8 16.6h-6.7l-5.2-11.2-3.6 5.3v5.9h-5.9V13.5h5.9zm37.2 0l-8.1 15v10.9h-6V28.5l-8.1-15h7l4.9 9.8 4.9-9.8h5.4zm2 10.6l2.6-5.2h-2.6v-5.4h5.5v4.7L212 24h-2.1zm26.7-4.9l-5.2 1.7c-.7-2-2.2-3.1-4.4-3.1-2.4 0-3.6.8-3.6 2.3 0 .6.2 1.1.7 1.6.4.4 1.5.8 3 1.1 2.6.5 4.6 1.1 5.8 1.6 1.2.5 2.3 1.4 3.1 2.6.8 1.2 1.3 2.6 1.3 4 0 2.3-.9 4.4-2.7 6.1s-4.5 2.6-8 2.6c-2.6 0-4.9-.6-6.8-1.8-1.9-1.2-3.1-3-3.7-5.4l5.6-1.3c.6 2.4 2.4 3.6 5.3 3.6 1.4 0 2.4-.3 3.1-.8.7-.5 1-1.2 1-1.9 0-.8-.3-1.3-.9-1.8-.6-.4-1.8-.8-3.6-1.2-3.3-.7-5.6-1.6-7-2.8s-2.1-2.9-2.1-5.2c0-2.3.8-4.2 2.5-5.8 1.7-1.6 3.9-2.4 6.8-2.4 5.1.2 8.3 2.2 9.8 6.3zm-175.3 123c-26.7 0-48.4-21.7-48.4-48.3 0-26.6 21.7-48.3 48.4-48.3s48.4 21.7 48.4 48.3c0 26.7-21.7 48.3-48.4 48.3"/>
  <path d="M61.3 47.5c25.7 0 46.5 20.8 46.5 46.4 0 25.6-20.8 46.4-46.5 46.4s-46.4-20.8-46.4-46.4c0-25.6 20.8-46.4 46.4-46.4m0-3.8C33.6 43.7 11 66.2 11 93.9c0 27.7 22.5 50.2 50.3 50.2s50.3-22.5 50.3-50.2c0-27.7-22.6-50.2-50.3-50.2z"/>
  <path class="st1" d="M161.8 142.2c-26.7 0-48.4-21.7-48.4-48.3 0-26.6 21.7-48.3 48.4-48.3s48.4 21.7 48.4 48.3c0 26.7-21.7 48.3-48.4 48.3"/>
  <path d="M161.8 47.5c25.7 0 46.4 20.8 46.4 46.4 0 25.6-20.8 46.4-46.4 46.4-25.7 0-46.4-20.8-46.4-46.4 0-25.6 20.8-46.4 46.4-46.4m0-3.8c-27.7 0-50.3 22.5-50.3 50.2 0 27.7 22.5 50.2 50.3 50.2 27.7 0 50.3-22.5 50.3-50.2 0-27.7-22.6-50.2-50.3-50.2"/>
  <path class="st1" d="M262.6 142.2c-26.7 0-48.4-21.7-48.4-48.3 0-26.6 21.7-48.3 48.4-48.3S311 67.3 311 93.9c-.1 26.7-21.8 48.3-48.4 48.3"/>
  <path d="M262.6 47.5c25.7 0 46.4 20.8 46.4 46.4 0 25.6-20.8 46.4-46.4 46.4-25.7 0-46.4-20.8-46.4-46.4-.1-25.6 20.7-46.4 46.4-46.4m0-3.8c-27.7 0-50.3 22.5-50.3 50.2 0 27.7 22.5 50.2 50.3 50.2s50.3-22.5 50.3-50.2c-.1-27.7-22.6-50.2-50.3-50.2"/>
  <path class="st1" d="M363.5 142.2c-26.7 0-48.4-21.7-48.4-48.3 0-26.6 21.7-48.3 48.4-48.3s48.4 21.7 48.4 48.3c0 26.7-21.7 48.3-48.4 48.3"/>
  <path d="M363.5 47.5c25.7 0 46.4 20.8 46.4 46.4 0 25.6-20.8 46.4-46.4 46.4s-46.4-20.8-46.4-46.4c0-25.6 20.8-46.4 46.4-46.4m0-3.8c-27.7 0-50.3 22.5-50.3 50.2 0 27.7 22.5 50.2 50.3 50.2s50.3-22.5 50.3-50.2c0-27.7-22.6-50.2-50.3-50.2"/>
  <path class="st1" d="M463.4 142.2c-26.7 0-48.4-21.7-48.4-48.3 0-26.6 21.7-48.3 48.4-48.3s48.4 21.7 48.4 48.3c-.1 26.7-21.7 48.3-48.4 48.3"/>
  <path d="M463.4 47.5c25.7 0 46.4 20.8 46.4 46.4 0 25.6-20.8 46.4-46.4 46.4S417 119.5 417 93.9c-.1-25.6 20.7-46.4 46.4-46.4m0-3.8c-27.7 0-50.3 22.5-50.3 50.2 0 27.7 22.5 50.2 50.3 50.2 27.7 0 50.3-22.5 50.3-50.2-.1-27.7-22.6-50.2-50.3-50.2z"/>
  <path d="M562.5 142.2c-26.7 0-48.4-21.7-48.4-48.3 0-26.6 21.7-48.3 48.4-48.3s48.4 21.7 48.4 48.3c0 26.7-21.7 48.3-48.4 48.3" fill="#e12726"/>
  <path d="M562.5 47.5c25.7 0 46.5 20.8 46.5 46.4 0 25.6-20.8 46.4-46.5 46.4s-46.4-20.8-46.4-46.4c0-25.6 20.8-46.4 46.4-46.4m0-3.8c-27.7 0-50.3 22.5-50.3 50.2 0 27.7 22.5 50.2 50.3 50.2 27.7 0 50.3-22.5 50.3-50.2 0-27.7-22.6-50.2-50.3-50.2zM63 76.6c-3.1 0-6 .3-6 .3L56.7 89l8.4.2h.2c1 0 5.2-.1 6.5-2.3 1.4-2.5 1.4-4.5 1.4-5.2-.1-.7-.4-3.3-4.2-4.5-1.7-.5-3.9-.6-6-.6m-5.7 42.6H42.1s-7.9-25.2 1-53.3l22.9-.8s11.7.6 17 6.9c4 4.6 5.8 8.3 5.3 13.9-.6 5.7-1.8 10-5.9 13.3-4.1 3.3-10.6 3.7-10.6 3.7l-14.7-.2s.2 9.7.2 16.5m104.1-41.8c-8.3 0-11.6 10.4-11.6 14.8 0 4.5.8 10.6 5.8 14.7 1.8 1.5 3.7 2 5.5 2 3.3 0 6.1-1.7 7-2.7 1.1-1.2 6.5-7.9 4.4-18.3-2.2-10.4-10.8-10.6-10.8-10.6-.1.1-.2.1-.3.1m-.2 44c-6.2 0-10.3-2.1-10.3-2.1s-17.5-6.5-17.6-23.6c-.2-17.2 11.7-30.1 27.8-30.1s26 12.4 27.6 20.6c0 0 .9 2.6.9 7.6 0 0 .8 15.3-13.3 23.4-5.7 3.2-10.9 4.2-15.1 4.2m107.2 1.3s-3.1-25.2-5.5-30.8c-2.4 5.6-5.5 30.8-5.5 30.8l-14-.1c-5.6-8.8-11-24.2-11.8-35.2-.8-11 1.9-17.7 1.9-17.7l11.8-.3s-1.1 23.6 2.8 33.6c0 0 5.7-29.4 7.9-33.4h13.6c2.2 4 7.9 33.4 7.9 33.4 3.9-10 2.8-33.6 2.8-33.6l11.8.3s2.7 6.7 1.9 17.7c-.8 11-6.2 26.4-11.8 35.2l-13.8.1m116.3-2.9h-38.9s-3.5-12-3.5-27.6c0-15.6 4.4-25.9 4.4-25.9l36 .3s1.9 4.1 3.3 11.4h-25.7l-.3 7.9h23.7s.4 6.9-.1 12.5l-23.6-.2v9.3l27.9-.2s-.9 7-3.2 12.5m72.1-42.7c-1 3.7-.7 11.1-.7 11.1l10.4.3s6.3-.2 6.4-5.6c.1-5.4-5.3-5.7-5.3-5.7l-10.8-.1m29.6 42.5l-14.3-.1s-.2-7.1.5-11c.6-3.9-2.2-7.9-6.1-7.9h-10.3s.4 11.9 1.2 18.8l-14.3.1s-3.9-10-3.9-26.7 5.3-27.4 5.3-27.4h24.4s11.7.2 16.6 8.5c4.9 8.3 1.3 16-.1 17-1.4 1-4.8 2.7-4.8 2.7s8.5 2.7 8 8.9-2.3 15.1-2 15.3l.9.3-1.1 1.5"/>
  <path class="st1" d="M537.1 92.4s3.2-3 3.2-8.7c0-5.9-5.6-7-5.6-7l-9.4-.1s-2.6 6.8-2.6 16.3 2.2 17 2.2 17l10.6-.1s5.8-2.3 5.6-8c-.2-5.6-1.7-7.9-4-9.4m-8.9-8.4l2.8-.1s2.2.5 2.1 2.8c0 2-1.7 3.3-2.6 3.4-1 .2-2.7.1-2.7.1s0-4.4.4-6.2zm3.1 18.6h-2.9c-.6-2.1-.6-6.6-.6-6.6l3-.1s3 .2 3 3.3c.1 3.2-2.5 3.4-2.5 3.4zm26.9-25.9l-8.3.2c-5.5 9.8-8.7 32.9-8.7 32.9l7.8.1.5-4.2 8.5.1 1 4 8.5-.1c-.6-3.1-9.3-33-9.3-33m-7.4 22.1l2.6-11.7 3.1 11.7h-5.7zm18.5 11.1s1.3-24.5-.2-33.2l8.4.2s1.9 12.6.7 24.5l10.7.1s-.6 6.3-1.6 8.4h-18m19.7.1s4.5-13.8-.2-33l6.1-.1s3.4 8.5 2 24.3l6 .1s.4 4.3-2 8.8L589 110"/>
</svg>
