<svg xmlns="http://www.w3.org/2000/svg" id="foryourbuck" viewBox="0 0 152 71.2" style="enable-background:new 0 0 152 71.2;">
  <style>
    .foryourbuck-alt-two-st0{fill:#FF0000;}
  </style>
  <g id="for">
    <path d="M6.8 44.3c-.4 0-.8-.1-1.1-.4-.4-.3-.6-.7-.7-1.2l-.3-2.1c-.1-.9.4-1.7 1.2-2l.4-.2-1.5-9.8h-.5c-.9 0-1.6-.7-1.7-1.5L2.3 25c-.1-.5 0-1 .3-1.3.3-.4.7-.6 1.2-.7L18 20.8h.3c.4 0 .8.1 1.1.4.4.3.6.7.7 1.2l.7 4.9c.2 1-.5 1.9-1.5 2.1l-1 .1c.2.3.4.6.4.9l.4 2.7c.2 1-.5 1.9-1.5 2.1l-4.4.7.2 1.6h.5c.9 0 1.6.7 1.7 1.5l.3 2.1c.2 1-.5 1.9-1.5 2.1L7 44.3h-.2zm5.4-14.8l2.7-.4c-.2-.2-.3-.5-.4-.8l-.1-.5-2.4.4.2 1.3z" class="foryourbuck-alt-two-st0"/>
    <path d="M18.2 22.6l.7 4.9-2.7.4-.5-2.1-5.8.9.7 4.9 6.2-1 .4 2.7-6.2 1 .7 4.9 2 .1.3 2.1-7.4 1.1-.3-2.1 1.8-.7-2-12.8-1.9-.1-.3-2.2 14.3-2m0-3.7h-.5L3.5 21.1c-2 .3-3.3 2.2-3 4.1l.3 2.2c.2 1.3 1.1 2.4 2.4 2.9l1.1 7.2c-1 .8-1.6 2.1-1.4 3.4l.3 2.1c.1.9.7 1.8 1.4 2.4.6.5 1.4.7 2.1.7h.5l7.4-1.1c2-.3 3.3-2.2 3-4.1l-.3-2.1c-.1-.6-.3-1.1-.7-1.6l1.2-.2c2-.3 3.3-2.2 3-4.1l-.3-2.1c1.4-.7 2.2-2.2 1.9-3.8l-.7-4.9c-.1-.9-.7-1.8-1.4-2.4-.6-.5-1.3-.8-2.1-.8z"/>
    <path d="M31.2 40.8c-2.3 0-4.3-.7-6-2.2-2.1-1.8-3.4-4.2-3.8-7.2v-.3c-.5-3 0-5.7 1.5-8 1.5-2.4 3.7-3.8 6.7-4.3.6-.1 1.1-.1 1.7-.1 2.3 0 4.3.7 6 2.2 2.1 1.8 3.4 4.2 3.9 7.2v.3c.5 3 0 5.8-1.5 8.1-1.5 2.4-3.8 3.8-6.7 4.3-.7-.1-1.3 0-1.8 0zM31 25.1h-.5c-1.1.2-1.5.7-1.7 1.2-.4.9-.5 2.2-.3 3.6v.3c.2 1.5.7 2.7 1.4 3.4.4.5.9.7 1.5.7h.5c1.1-.2 1.5-.7 1.8-1.2.4-.9.5-2.2.3-3.7v-.3c-.2-1.5-.7-2.6-1.4-3.4-.5-.4-1-.6-1.6-.6z" class="foryourbuck-alt-two-st0"/>
    <path d="M31.1 20.4c1.8 0 3.4.6 4.8 1.8 1.8 1.5 2.8 3.5 3.2 6.1v.3c.4 2.6 0 4.9-1.2 6.8s-3.1 3.1-5.5 3.4c-.5.1-.9.1-1.4.1-1.8 0-3.4-.6-4.8-1.8-1.7-1.5-2.8-3.5-3.2-6.1v-.3c-.4-2.6 0-4.9 1.2-6.8 1.2-1.9 3-3.1 5.4-3.5.6.1 1.1 0 1.5 0m.2 15.7c.3 0 .5 0 .8-.1 1.5-.2 2.6-1 3.1-2.2.6-1.3.7-2.8.4-4.7v-.3c-.3-1.8-.9-3.3-1.8-4.3-.8-.8-1.7-1.3-2.9-1.3-.3 0-.5 0-.8.1-1.5.2-2.5 1-3.1 2.2-.6 1.3-.7 2.8-.4 4.7v.3c.3 1.9.9 3.3 1.8 4.4.9.8 1.8 1.2 2.9 1.2m-.2-19.3c-.6 0-1.3.1-1.9.2-3.4.5-6.2 2.3-7.9 5.1-1.7 2.7-2.3 5.8-1.7 9.3v.3c.5 3.5 2 6.3 4.4 8.3 2.1 1.7 4.5 2.6 7.2 2.6.6 0 1.3-.1 1.9-.2 3.4-.5 6.2-2.3 8-5.1 1.7-2.7 2.3-5.8 1.8-9.3v-.3c-.5-3.5-2-6.3-4.5-8.3-2.1-1.7-4.6-2.6-7.3-2.6zM30.4 27s.1 0 .3-.1h.3l.1.1c.4.5.8 1.3.9 2.4v.3c.2 1.1.1 2-.2 2.6v.1s-.1.1-.3.1h-.3v-.1c-.4-.5-.8-1.3-.9-2.5v-.3c-.2-1.1-.2-2 .1-2.6z"/>
    <path d="M44 38.6c-.9 0-1.7-.6-1.8-1.5l-.3-2.1c-.1-.9.4-1.7 1.2-2l.4-.2L42 23h-.5c-.9 0-1.6-.7-1.7-1.5l-.3-2.2c-.2-1 .5-1.9 1.5-2.1l8-1.2c.7-.1 1.3-.2 1.9-.2 1.6 0 3 .4 4.2 1 1.8 1 2.9 2.7 3.2 4.9.2 1.3 0 2.5-.5 3.5-.1.2-.2.3-.3.5.2.2.5.4.7.6.8.9 1.3 2.1 1.5 3.5l.1.5c.9 0 1.6.7 1.7 1.5l.3 2.2c.1.5 0 1-.3 1.3-.3.4-.7.6-1.2.7l-1.8.4c-.4.1-.7.1-1.1.1-1.6 0-2.5-.6-3.1-1.1-.9-.8-1.4-2-1.6-3.3l-.2-1c0-.3-.1-.6-.3-.8 0 0-.2-.1-.5-.1h-.3l-.9.1.2 1.4h.5c.9 0 1.6.7 1.7 1.5l.3 2.1c.1.5 0 1-.3 1.3-.3.4-.7.6-1.2.7l-7.4 1.1c-.1.2-.2.2-.3.2zM49.5 24l.7-.1c.8-.1 1-.3 1-.4.1-.1.1-.3 0-.5-.1-.4-.2-.5-.3-.6s-.3-.1-.5-.1h-.5l-.7.1.3 1.6z" class="foryourbuck-alt-two-st0"/>
    <path d="M51 17.7c1.3 0 2.4.3 3.3.8 1.3.7 2.1 1.9 2.3 3.6.1.9 0 1.7-.4 2.4s-1 1.4-1.9 1.9c1.1.1 1.9.5 2.5 1.2s.9 1.5 1.1 2.6l.1.9c.1.4.2.7.4.9s.4.3.8.3h.5l.3 2.2-1.8.3c-.3 0-.5.1-.8.1-.8 0-1.4-.2-1.8-.6-.6-.6-.9-1.3-1.1-2.3l-.2-1c-.1-.9-.5-1.5-1-1.9-.4-.3-1-.5-1.6-.5h-.5l-2.9.4.7 4.7 2 .1.3 2.1-7.4 1.1-.3-2.1 1.8-.7-2-12.8-1.7-.2-.3-2.2 1.9-.3 6.1-.9c.5-.1 1.1-.1 1.6-.1M48 26l2.5-.4c1-.2 1.7-.5 2.1-1 .4-.5.6-1.1.5-1.9s-.5-1.4-1-1.8c-.4-.3-.9-.4-1.6-.4-.2 0-.5 0-.7.1l-2.5.4.7 5m3-12c-.7 0-1.5.1-2.2.2l-6.1 1-1.9.3c-.9.1-1.8.7-2.4 1.4-.6.8-.8 1.7-.7 2.7l.3 2.2c.2 1.3 1.1 2.4 2.4 2.9l1.1 7.2c-1 .8-1.6 2.1-1.4 3.4l.3 2.1c.1.9.7 1.8 1.4 2.4.6.5 1.4.7 2.1.7h.5l7.4-1.1c1.1-.2 2-.8 2.5-1.6.8.4 1.7.7 3 .7.4 0 .9 0 1.3-.1l1.8-.3c.9-.1 1.8-.7 2.4-1.4.6-.8.8-1.7.7-2.7l-.3-2.2c-.2-1.2-.9-2.1-1.9-2.7-.3-1.4-.9-2.6-1.7-3.6.5-1.2.6-2.6.4-3.9-.4-2.7-1.8-4.8-4.1-6.2-1.3-.9-3-1.4-4.9-1.4z"/>
  </g>
  <g id="your">
    <path d="M76.5 33.7c-.4 0-.8-.1-1.1-.4-.4-.3-.6-.7-.7-1.2l-.3-2.1c-.1-.9.4-1.7 1.2-2l.4-.2-.3-2-5.3-7.1h-.6c-.9 0-1.6-.7-1.8-1.5l-.3-2.2c-.2-1 .5-1.9 1.5-2.1l6.7-1h.3c.4 0 .8.1 1.1.4 0 0 .1 0 .1.1.3-.4.7-.7 1.3-.8l6.7-1h.3c.4 0 .8.1 1.1.4.4.3.6.7.7 1.2l.3 2.1c.1.9-.4 1.7-1.2 2l-.6.2-3 8.6.3 1.8h.5c.9 0 1.6.7 1.7 1.5l.3 2.1c.1.5 0 1-.3 1.3-.3.4-.7.6-1.2.7l-7.4 1.1c-.2.1-.3.1-.4.1zm1.6-16.1l.2-.6c-.1-.1-.2-.1-.3-.2-.1.1-.1.2-.2.3l.3.5z" class="foryourbuck-alt-two-st0"/>
    <path d="M85.6 12.3l.3 2.2-1.5.5-3.4 9.9.6 3.8 2 .1.3 2.1-7.4.9-.3-2.1L78 29l-.6-3.9-6.1-8.2h-1.5l-.3-2.2 6.7-1 .3 2.2-1.4.4 3.7 5.4h.1l1.9-6.3h-1.5l-.3-2.2 6.6-.9m0-3.7H85l-6.7 1c-.5.1-.9.2-1.3.5-.3-.1-.6-.1-.8-.1h-.6l-6.7 1c-.9.1-1.8.7-2.4 1.4-.6.8-.8 1.7-.7 2.7l.3 2.2c.3 1.7 1.6 2.9 3.3 3.1l4.5 6.1v.2c-1.1.8-1.6 2.1-1.4 3.5l.3 2.1c.3 1.8 1.8 3.1 3.6 3.1h.6l7.4-1.1c.9-.1 1.8-.7 2.4-1.4.6-.8.8-1.7.7-2.7l-.3-2.1c-.2-1.4-1.1-2.4-2.4-2.9v-.1l2.6-7.3c1.5-.6 2.5-2.2 2.2-3.9l-.3-2.2c-.4-1.8-2-3.1-3.7-3.1z"/>
    <path d="M97.7 30.6c-2.3 0-4.3-.7-6-2.2-2.1-1.8-3.4-4.2-3.8-7.2v-.3c-.5-3 0-5.7 1.5-8 1.5-2.4 3.7-3.8 6.7-4.3.6-.1 1.1-.1 1.7-.1 2.3 0 4.3.7 6 2.2 2.1 1.8 3.4 4.2 3.9 7.2v.3c.5 3 0 5.7-1.5 8.1-1.5 2.4-3.8 3.8-6.7 4.3-.7-.1-1.3 0-1.8 0zm-.2-15.7H97c-1.1.2-1.5.7-1.7 1.2-.4.9-.5 2.2-.3 3.6v.3c.2 1.5.7 2.7 1.4 3.4.4.5.9.7 1.5.7h.5c1.1-.2 1.5-.7 1.8-1.2.4-.9.5-2.2.3-3.7v-.3c-.2-1.5-.7-2.6-1.4-3.4-.5-.4-1-.6-1.6-.6z" class="foryourbuck-alt-two-st0"/>
    <path d="M97.7 10.2c1.8 0 3.4.6 4.8 1.8 1.8 1.5 2.8 3.5 3.2 6.1v.3c.4 2.6 0 4.9-1.2 6.8-1.2 1.9-3.1 3.1-5.5 3.4-.5.1-.9.1-1.4.1-1.8 0-3.4-.6-4.8-1.8-1.7-1.5-2.8-3.5-3.2-6.1v-.3c-.4-2.6 0-4.9 1.2-6.8s3-3.1 5.4-3.5c.6.1 1 0 1.5 0m.2 15.7c.3 0 .5 0 .8-.1 1.5-.2 2.6-1 3.1-2.2s.7-2.8.4-4.7v-.3c-.3-1.8-.9-3.3-1.8-4.3-.8-.8-1.7-1.3-2.9-1.3-.3 0-.5 0-.8.1-1.5.2-2.5 1-3.1 2.2-.6 1.3-.7 2.8-.4 4.7v.3c.3 1.9.9 3.3 1.8 4.4.8.8 1.7 1.2 2.9 1.2m-.2-19.3c-.6 0-1.3.1-1.9.2-3.4.5-6.2 2.3-7.9 5.1-1.7 2.7-2.3 5.8-1.7 9.3v.3c.5 3.5 2 6.3 4.4 8.3 2.1 1.7 4.5 2.6 7.2 2.6.6 0 1.3-.1 1.9-.2 3.4-.5 6.2-2.3 8-5.1 1.7-2.7 2.3-5.8 1.8-9.3v-.3c-.5-3.5-2-6.3-4.5-8.3-2.2-1.7-4.6-2.6-7.3-2.6zm-.8 10.2s.1 0 .3-.1h.3l.1.1c.4.5.8 1.3.9 2.4v.3c.2 1.1.1 2-.2 2.6v.1s-.1.1-.3.1h-.3v-.1c-.4-.5-.8-1.3-.9-2.5v-.3c-.2-1-.2-2 .1-2.6z"/>
    <path d="M117.6 27.5c-1.8 0-3.3-.4-4.7-1.2-1.9-1.2-3.1-3.1-3.5-5.6l-1.2-7.8h-.5c-.9 0-1.6-.7-1.7-1.5l-.3-2.1c-.2-1 .5-1.9 1.5-2.1l7.4-1.1h.3c.4 0 .8.1 1.1.4.2.1.4.3.5.5.1-.2.2-.5.3-.7.3-.4.7-.6 1.2-.7l7.4-1.1h.3c.4 0 .8.1 1.1.4.4.3.6.7.7 1.2l.3 2.1c.1.9-.4 1.7-1.2 2l-.4.2 1.2 7.8c.4 2.5-.2 4.7-1.7 6.4-1.4 1.6-3.5 2.6-6 3-.8-.1-1.5-.1-2.1-.1zm-1.1-7.9c.1.4.2 1 .6 1.3.2.2.5.2.9.2h.5c.7-.1 1.1-.3 1.4-.6s.2-.9.2-1.4l-1.2-7.8h-.5c-.6 0-1.2-.4-1.5-.9-.1.6-.6 1.1-1.2 1.3l-.4.2 1.2 7.7z" class="foryourbuck-alt-two-st0"/>
    <path d="M125.5 6.1l.3 2.2-1.8.7 1.4 9.3c.3 2-.1 3.6-1.3 4.9-1.1 1.3-2.8 2.1-4.9 2.4-.6.1-1.1.1-1.6.1-1.4 0-2.7-.3-3.8-1-1.5-.9-2.4-2.3-2.7-4.3l-1.4-9.3-1.9-.1-.3-2.2 1.9-.3L113 8l1.9-.3.3 2.2-1.8.7 1.4 9.3c.2 1.2.6 2 1.3 2.5.5.4 1.2.5 1.9.5.3 0 .5 0 .8-.1 1.1-.2 1.9-.6 2.5-1.3s.7-1.6.5-2.8l-1.4-9.3-1.9-.1-.3-2.2 7.3-1m0-3.6h-.5l-7.4 1.1c-.6.1-1.1.3-1.6.7-.4-.1-.8-.2-1.2-.2h-.6l-1.9.3-3.6.5-1.9.3c-.9.1-1.8.7-2.4 1.4-.6.8-.8 1.7-.7 2.7l.3 2.2c.2 1.3 1.1 2.4 2.4 2.9l1 6.5c.6 3.9 2.7 5.9 4.4 6.9 1.6 1 3.5 1.5 5.6 1.5.7 0 1.4-.1 2.2-.2 3-.5 5.4-1.7 7.1-3.6 1.3-1.5 2.7-4 2.1-7.9l-1-6.5c1.1-.8 1.6-2.1 1.4-3.5l-.3-2.2c-.1-.9-.7-1.8-1.4-2.4-.4-.2-1.2-.5-2-.5z"/>
    <path d="M131.9 25.2c-.9 0-1.7-.6-1.8-1.5l-.3-2.1c-.1-.9.4-1.7 1.2-2l.4-.2-1.5-9.8h-.5c-.9 0-1.6-.7-1.7-1.5l-.3-2.2c-.2-1 .5-1.9 1.5-2.1l8-1.2c.7-.1 1.3-.2 1.9-.2 1.6 0 3 .3 4.2 1 1.8 1 2.9 2.7 3.2 4.9.2 1.3 0 2.5-.5 3.5-.1.2-.2.3-.3.5.2.2.5.4.7.6.8.9 1.3 2.1 1.5 3.5l.1.5c.9 0 1.6.7 1.7 1.5l.3 2.2c.1.5 0 1-.3 1.3-.3.4-.7.6-1.2.7l-1.8.3c-.4.1-.7.1-1.1.1-1.6 0-2.5-.6-3.1-1.1-.9-.8-1.4-2-1.6-3.3l-.2-1c0-.3-.1-.6-.3-.8 0 0-.2-.1-.5-.1h-.3l-1.1.2.2 1.4h.5c.9 0 1.6.7 1.7 1.5l.3 2.1c.2 1-.5 1.9-1.5 2.1l-7.4 1.1c.1.1 0 .1-.1.1zm5.5-14.7l.7-.1c.8-.1 1-.3 1-.4.1-.1.1-.3 0-.5-.1-.4-.2-.5-.3-.6s-.4-.1-.5-.1h-.5l-.7.1.3 1.6z" class="foryourbuck-alt-two-st0"/>
    <path d="M138.9 4.2c1.3 0 2.4.3 3.3.8 1.3.7 2.1 1.9 2.3 3.6.1.9 0 1.7-.4 2.4s-1 1.4-1.9 1.9c1.1.1 1.9.5 2.5 1.2s.9 1.5 1.1 2.6l.1.9c.1.4.2.7.4.9s.4.3.8.3h.5l.3 2.2-1.8.3c-.3 0-.5.1-.8.1-.8 0-1.4-.2-1.8-.6-.6-.6-.9-1.3-1.1-2.3l-.2-1c-.1-.9-.5-1.5-1-1.9-.4-.3-1-.5-1.6-.5h-.5l-2.9.4.7 4.7 2 .1.3 2.1-7.4 1.1-.3-2.1 1.8-.7-2-12.8-1.9-.1-.3-2.2 1.9-.3 6.1-.9c.7-.1 1.2-.2 1.8-.2m-3.1 8.4l2.5-.4c1-.2 1.7-.5 2.1-1 .4-.5.6-1.1.5-1.9s-.5-1.4-1-1.8c-.4-.3-.9-.4-1.6-.4-.2 0-.5 0-.7.1l-2.5.4.7 5m3.1-12c-.7 0-1.5.1-2.2.2l-6.1.9-1.9.3c-.9.1-1.8.7-2.4 1.4-.6.8-.8 1.7-.7 2.7l.3 2.2c.2 1.3 1.1 2.4 2.4 2.9l1.1 7.2c-1 .8-1.6 2.1-1.4 3.4l.3 2.1c.1.9.7 1.8 1.4 2.4.6.5 1.4.7 2.1.7h.5l7.4-1.1c.9-.1 1.8-.7 2.4-1.4 0-.1.1-.1.1-.2.8.4 1.7.7 3 .7.4 0 .9 0 1.3-.1l1.8-.3c.9-.1 1.8-.7 2.4-1.4s.8-1.7.7-2.7l-.3-2.2c-.2-1.2-.9-2.1-1.9-2.7-.3-1.4-.9-2.6-1.7-3.6.5-1.2.6-2.6.4-3.9-.4-2.7-1.8-4.8-4.1-6.2-1.3-.9-3-1.3-4.9-1.3z"/>
  </g>
  <g id="buck">
    <path d="M10.3 68.9c-.9 0-1.7-.6-1.8-1.5l-.3-2.1c-.1-.9.4-1.7 1.2-2l.4-.2-1.5-9.8h-.5c-.9 0-1.6-.7-1.7-1.5l-.3-2.2c-.1-.5 0-1 .3-1.3.3-.4.7-.6 1.2-.7l7.9-1.2c.8-.1 1.5-.2 2.2-.2 1.5 0 2.8.3 3.9.8 1.8.9 3 2.5 3.3 4.7.2 1.2 0 2.3-.5 3.4 0 .1-.1.1-.1.2.3.2.5.4.7.6.9.9 1.5 2.1 1.7 3.5.4 2.8-.6 4.6-1.6 5.6-1.3 1.3-3.2 2.2-5.6 2.6l-8.7 1.3c0-.1-.1 0-.2 0zm6.6-7.5l1.5-.2c.6-.1.9-.2 1-.4.1-.1.1-.3 0-.5-.1-.5-.2-.7-.3-.8h-.7l-1.8.3.3 1.6zm-1.2-7.6l.8-.1c.8-.1 1-.3 1.1-.4 0 0 .1-.1 0-.3 0-.2-.1-.4-.1-.4s-.2-.1-.6-.1c-.2 0-.4 0-.7.1l-.7.1.2 1.1z" class="foryourbuck-alt-two-st0"/>
    <path d="M17.5 47.9c1.2 0 2.3.2 3.1.6 1.3.6 2.1 1.8 2.3 3.4.1.8 0 1.6-.3 2.3-.3.7-.9 1.3-1.7 1.8 1.1.1 2 .4 2.6 1.1s1 1.5 1.2 2.5c.3 1.7-.1 3.1-1.1 4.1s-2.5 1.7-4.6 2L10.3 67l-.3-2.1 1.8-.7-2-12.8-1.9-.1-.3-2.2 1.9-.3 6-.9h2m-3.3 8l2.6-.4c1-.1 1.7-.5 2.1-.9.5-.5.6-1.1.5-1.8-.1-.8-.5-1.4-1.1-1.7-.4-.2-.9-.3-1.4-.3-.3 0-.6 0-1 .1l-2.4.4.7 4.6m1.2 7.6l3.3-.5c.9-.1 1.6-.5 2.1-.9.4-.5.6-1.1.5-1.9-.1-.9-.4-1.5-.9-1.9-.4-.3-.8-.4-1.4-.4-.2 0-.4 0-.7.1l-3.6.5.7 5m2.1-19.2c-.8 0-1.6.1-2.5.2l-6 .9-1.9.3c-.9.1-1.8.7-2.4 1.4s-.8 1.7-.7 2.7l.3 2.2c.2 1.3 1.1 2.4 2.4 2.9l1.1 7.2c-1 .8-1.6 2.1-1.4 3.4l.3 2.1c.3 1.8 1.8 3.1 3.6 3.1h.6l8.7-1.3c2.9-.4 5.1-1.5 6.7-3.1 1.2-1.3 2.6-3.6 2-7.2-.3-1.7-.9-3.1-2-4.3.3-1.1.4-2.2.2-3.3-.4-2.8-2-4.9-4.3-6.1-1.4-.8-2.9-1.1-4.7-1.1z"/>
    <path d="M36.1 65.1c-1.8 0-3.3-.4-4.7-1.2-2-1.2-3.1-3.1-3.5-5.6l-1.2-7.8h-.5c-.9 0-1.6-.7-1.7-1.5l-.3-2.2c-.1-.5 0-1 .3-1.3.3-.4.7-.6 1.2-.7l7.4-1.1h.3c.4 0 .8.1 1.1.4.2.1.4.3.5.5.1-.2.2-.5.3-.7.3-.4.7-.6 1.2-.7l7.4-1.1h.3c.4 0 .8.1 1.1.4.4.3.6.7.7 1.2l.3 2.2c.1.9-.4 1.7-1.2 2l-.4.2 1.2 7.8c.4 2.5-.2 4.7-1.7 6.4-1.4 1.6-3.5 2.6-6 3-.9-.3-1.5-.2-2.1-.2zm-1.1-8c.1.4.2 1 .6 1.3.2.2.5.2.9.2h.5c.7-.1 1.1-.3 1.4-.6.3-.3.2-.9.2-1.4l-1.2-7.8h-.5c-.6 0-1.2-.4-1.5-.9-.1.6-.6 1.1-1.2 1.3l-.4.2 1.2 7.7z" class="foryourbuck-alt-two-st0"/>
    <path d="M44 43.7l.3 2.2-1.8.7 1.4 9.3c.3 2-.1 3.6-1.3 4.9s-2.8 2.1-4.9 2.4c-.6.1-1.1.1-1.6.1-1.4 0-2.7-.3-3.8-1-1.5-.9-2.4-2.3-2.7-4.3l-1.4-9.3-1.9-.1-.3-2.2 1.9-.3 3.6-.5 1.9-.3.3 2.2-1.8.7 1.4 9.3c.2 1.2.6 2 1.3 2.5.5.4 1.2.5 1.9.5.3 0 .5 0 .8-.1 1.1-.2 1.9-.6 2.5-1.3.6-.7.7-1.6.5-2.8L38.9 47l-1.9-.1-.3-2.2 7.3-1m0-3.6h-.5l-7.4 1.1c-.6.1-1.1.3-1.6.7-.4-.1-.8-.2-1.2-.2h-.6l-1.9.3-3.6.5-1.9.3c-.9.1-1.8.7-2.4 1.4-.6.8-.8 1.7-.7 2.7l.3 2.2c.2 1.3 1.1 2.4 2.4 2.9l1 6.5c.6 3.9 2.7 5.9 4.4 6.9 1.6 1 3.5 1.5 5.6 1.5.7 0 1.4-.1 2.2-.2 3-.5 5.4-1.7 7.1-3.6 1.3-1.5 2.7-4 2.1-7.9l-1-6.5c1.1-.8 1.6-2.1 1.4-3.5l-.1-2.1c-.1-.9-.7-1.8-1.4-2.4-.7-.4-1.4-.6-2.2-.6z"/>
    <path d="M56.5 62c-2.2 0-4.2-.7-5.9-2.1-2.1-1.7-3.5-4.1-3.9-7.2l-.1-.6c-.5-3 .1-5.7 1.6-8s3.8-3.7 6.7-4.2c.6-.1 1.2-.1 1.8-.1 1 0 1.9.1 2.8.4 1.4.4 2.7 1 3.7 1.9.3.3.6.7.6 1.1l.5 3.5c.1.5 0 1-.3 1.3-.3.4-.7.6-1.2.7l-2.7.4h-.3c-.8 0-1.5-.5-1.7-1.3l-.5-1.6c-.1 0-.2-.1-.3-.1-.2 0-.4-.1-.6-.1-.2 0-.5 0-.7.1-1 .2-1.6.5-2 1.3-.5.9-.6 2.1-.4 3.5l.1.6c.2 1.4.7 2.5 1.4 3.2.5.5 1 .7 1.7.7h.6c.5-.1.9-.2 1.3-.4.1-.1.2-.1.3-.2v-1.7c0-.9.7-1.7 1.5-1.8l2.7-.4h.3c.9 0 1.7.6 1.8 1.5l.5 3.5c.1.4 0 .9-.3 1.2-.7 1.2-1.7 2.2-3 3-1.2.8-2.7 1.3-4.3 1.6-.6.2-1.2.3-1.7.3z" class="foryourbuck-alt-two-st0"/>
    <path d="M56.6 41.6c.8 0 1.6.1 2.3.3 1.2.3 2.2.9 3.1 1.6l.5 3.5-2.7.4-.7-2.3c-.4-.3-.9-.5-1.5-.6-.3-.1-.6-.1-1-.1-.3 0-.6 0-1 .1-1.5.2-2.7 1-3.3 2.2-.7 1.3-.9 2.8-.6 4.6l.1.6c.3 1.8.9 3.2 1.9 4.2.8.8 1.8 1.2 3 1.2.3 0 .5 0 .8-.1.7-.1 1.3-.3 1.9-.6.6-.3 1-.6 1.2-1v-2.4l2.7-.4.5 3.5c-.6.9-1.4 1.7-2.4 2.4s-2.2 1.1-3.6 1.3c-.5.1-1 .1-1.4.1-1.8 0-3.4-.6-4.8-1.7-1.8-1.4-2.9-3.4-3.3-6l-.1-.6c-.4-2.6 0-4.8 1.3-6.7 1.3-1.9 3.1-3 5.5-3.4.6 0 1.1-.1 1.6-.1m0-3.6c-.7 0-1.4.1-2.1.2-3.4.5-6.1 2.2-8 5-1.8 2.7-2.4 5.8-1.9 9.3l.1.6c.5 3.5 2.1 6.3 4.6 8.3 2.1 1.7 4.4 2.5 7.1 2.5.6 0 1.3-.1 2-.2 1.9-.3 3.6-.9 5-1.8 1.5-1 2.7-2.1 3.6-3.5.5-.7.6-1.6.5-2.5l-.5-3.5c-.1-.9-.7-1.8-1.4-2.4-.2-.1-.3-.2-.5-.3l.4-.4c.6-.8.8-1.7.7-2.7l-.6-3.7c-.1-.9-.6-1.7-1.3-2.2-1.2-1-2.7-1.8-4.4-2.3-1-.3-2.1-.4-3.3-.4zm.2 15.7c-.2 0-.3 0-.4-.2-.4-.4-.7-1.2-.9-2.2l-.1-.6c-.2-1-.1-1.8.2-2.3.1-.1.1-.3.6-.3l.1.5c.3 1 1 1.7 1.8 2.1-.7.7-1.1 1.6-1.1 2.6v.5c0-.1-.1-.1-.2-.1z"/>
    <path d="M68.2 60c-.9 0-1.7-.6-1.8-1.5l-.3-2.1c-.1-.9.4-1.7 1.2-2l.4-.2-1.5-9.8h-.5c-.9 0-1.6-.7-1.7-1.5l-.3-2.2c-.2-1 .5-1.9 1.5-2.1l7.3-1.1h.3c.3 0 .6.1.8.2.3-.3.6-.4 1-.5l7-1.1h.3c.9 0 1.7.6 1.8 1.5l.3 2.2c.1.9-.4 1.7-1.2 2l-1.1.4-2.5 4.7 4.6 4.8h1.1c.9 0 1.6.7 1.8 1.5l.3 2.1c.1.5 0 1-.3 1.3-.3.4-.7.6-1.2.7l-7 1.1h-.3c-.4 0-.8-.1-1.1-.3-.3.4-.7.6-1.2.7l-7.3 1.1c-.2.1-.3.1-.4.1zm7.1-6.9l-.5-.6.1.5c0 .1.4.1.4.1z" class="foryourbuck-alt-two-st0"/>
    <path d="M82 37.9l.3 2.2-1.9.6-3.5 6.5 6 6.3h1.8l.3 2.1-7 1.1-.3-2.1 1.1-.3-4.2-4.6-2 .3.8 4.9 1.9.1.3 2.1-7.3 1.1-.3-2.1 1.8-.7-2-12.8-1.9-.1-.3-2.2 7.3-1.1.3 2.2-1.8.6.7 4.8 1.6-.2 2.7-5.5h-1.1l-.3-2.2 7-1m0-3.6h-.6l-7 1.1c-.4.1-.7.2-1 .3h-1.1L65 36.8c-2 .3-3.3 2.2-3 4.1l.3 2.2c.2 1.3 1.1 2.4 2.4 2.9l1.1 7.2c-1 .8-1.6 2.1-1.4 3.4l.3 2.1c.3 1.8 1.8 3.1 3.6 3.1h.6l7.3-1.1c.4-.1.9-.2 1.2-.4.2 0 .5.1.7.1h.6l7-1.1c2-.3 3.3-2.2 3-4.1l-.3-2.1c-.3-1.7-1.8-3-3.5-3.1h-.3l-3.1-3.3 1.6-2.9.5-.2c1.7-.6 2.7-2.2 2.4-4l-.3-2.2c-.4-1.8-2-3.1-3.7-3.1z"/>
  </g>
</svg>
