<svg style="fill: #e12726;" xmlns="http://www.w3.org/2000/svg" viewBox="0 0 860.3 192">
  <path d="M20.54 87.08V22.56H3.76v-19h66v19H53v64.52zm59.22 0V3.51h32.62V31.8h8.34V3.51h32.61v83.57h-32.61V50.85h-8.34v36.23zm86.36 0V3.51h52.66v19h-20v9.19h20v19h-20V68h20v19zM349.38 3.51v64.13q0 11.16-4.52 15.6t-16.18 4.45h-32.11q-10.91 0-15.38-4.55t-4.47-15.5V51.9h31.71v10.8a8.06 8.06 0 0 0 1 4.55 3.58 3.58 0 0 0 3.14 1.38 3.73 3.73 0 0 0 3.24-1.36 8 8 0 0 0 1-4.57V3.51zM359 87.08l14.77-83.57h51.06l14.72 83.57h-33.77L403.92 69h-9.35l-1.86 18.09zm36.74-36.54h6.88l-3.32-28.38zM522.59 53v16.7q0 9.6-4.8 13.79t-15.86 4.2h-34.06q-10.3 0-15.08-4.35T448 69.7V23q0-11 4.45-15.45T467.87 3h34.07q11.66 0 16.16 4.42T522.59 23v11h-33.12v-6.12a8.3 8.3 0 0 0-1-4.65 3.7 3.7 0 0 0-3.24-1.38 3.53 3.53 0 0 0-3.14 1.43 8.33 8.33 0 0 0-1 4.6v34.83a8.33 8.33 0 0 0 1 4.6 3.53 3.53 0 0 0 3.14 1.43 3.63 3.63 0 0 0 3.19-1.46 8 8 0 0 0 1-4.57V53zm12.48 34.08V3.51h32v33.77l10.5-33.77h33.22l-12.55 38.8 13.31 44.78h-32.86l-11.61-38.2v38.19zm84.7 0V3.51h53.42q11.05 0 15.86 4.22t4.8 13.77v23.07q0 11.21-4.55 15.71t-16.11 4.5h-20.8v22.3zm37-64.73h-4.42v23.47h4.32a4.11 4.11 0 0 0 3.47-1.36q1.06-1.36 1.06-4.62v-11.4a8.14 8.14 0 0 0-1-4.67 3.93 3.93 0 0 0-3.39-1.41zm68.7 65.34q-11 0-15.4-4.55t-4.45-15.5V20.8q0-9.25 4.75-13.52T725.47 3h34.07q11.16 0 15.91 4.14t4.75 13.66v46.84q0 11.16-4.52 15.6t-16.13 4.45zm13.26-59.8v34.82a8.06 8.06 0 0 0 1 4.55 3.58 3.58 0 0 0 3.14 1.38 3.73 3.73 0 0 0 3.24-1.36 8 8 0 0 0 1-4.57V27.88a8 8 0 0 0-1-4.57 3.63 3.63 0 0 0-3.19-1.46 3.53 3.53 0 0 0-3.14 1.43 8.33 8.33 0 0 0-1.04 4.6zm67.62 59.19V22.56h-16.78v-19h66v19h-16.81v64.52zM6.67 187.47V103.9h32.62v83.57zm65.15.6q-10 0-15.2-4t-5.2-11.74v-15.11h33.37v5.88a8.25 8.25 0 0 0 1 4.52 3.43 3.43 0 0 0 3.02 1.38 3.47 3.47 0 0 0 3.14-1.5 9.48 9.48 0 0 0 1-5c0-2.61-.31-4.44-.93-5.48S89.83 155 87.35 154l-22.61-9.15q-7.79-3.16-10.55-6.83T51.42 128v-9q0-7.69 5.2-11.66t15.2-4h33.67q10 0 15.17 4t5.18 11.66v9.9H92.73v-1.06a6.89 6.89 0 0 0-1.08-4.2 3.69 3.69 0 0 0-3.14-1.43 3.79 3.79 0 0 0-2.84 1.1 4.06 4.06 0 0 0-1.08 3 4.33 4.33 0 0 0 1 2.94q1 1.13 4.9 2.74l26.31 11.11a13.49 13.49 0 0 1 7 6.05q2 3.9 2 11.79v9.25q0 9.19-4.95 13.54t-15.4 4.34zm153.87-30.15h-4.53v-18.59h37.64v48.14h-16.73l-2.92-6.08a9.32 9.32 0 0 1-5.53 5.13q-4 1.56-11.86 1.56h-17.68q-11 0-15.4-4.55T184.23 168v-46.81q0-9.25 4.75-13.52t15.1-4.27h34.07q11.15 0 15.9 4.14t4.75 13.64v8.44h-33.21l.1-1.36a4 4 0 0 1 0-.55 4.06 4.06 0 0 0 .05-.55 5.22 5.22 0 0 0-1.18-3.59 4 4 0 0 0-3.14-1.33 3.53 3.53 0 0 0-3.14 1.43 8.33 8.33 0 0 0-1 4.6v34.83a8.08 8.08 0 0 0 1 4.55 3.59 3.59 0 0 0 3.14 1.38 3.72 3.72 0 0 0 3.24-1.35 8 8 0 0 0 1-4.57zm45.6 29.55V103.9h52.66v19h-20v9.15h20v19.05h-20v17.28h20v19zm79.01 0v-64.52h-16.78v-19h66v19h-16.8v64.52zm73.09 0v-64.52h-16.78v-19h66v19h-16.8v64.52zm59.21 0V103.9h32.62v83.57zm45.4 0V103.9h32.21l12.87 34.47V103.9h29.75v83.57H572l-14.27-39.3v39.3zm128.53-29.55H652v-18.59h37.64v48.14h-16.73l-2.91-6.08a9.31 9.31 0 0 1-5.53 5.13q-4 1.56-11.86 1.56h-17.69q-11 0-15.4-4.55T615.07 168v-46.81q0-9.25 4.75-13.52t15.11-4.27H669q11.16 0 15.91 4.14t4.75 13.64v8.44h-33.23l.1-1.36a4.06 4.06 0 0 1 .05-.55 5 5 0 0 0 0-.55 5.22 5.22 0 0 0-1.18-3.59 4 4 0 0 0-3.15-1.33 3.53 3.53 0 0 0-3.14 1.43 8.33 8.33 0 0 0-1 4.6v34.83a8.07 8.07 0 0 0 1 4.55 3.59 3.59 0 0 0 3.19 1.35 3.72 3.72 0 0 0 3.24-1.35 8 8 0 0 0 1-4.57z"/>
</svg>
