<svg xmlns="http://www.w3.org/2000/svg" id="Layer_1" width="345" height="161" viewBox="0 0 345 161">
  <style>
    .st0{fill:#FFFFFF;} .st1{fill:none;stroke:#FFFFFF;stroke-width:6.964;stroke-linecap:round;stroke-linejoin:round;} .st2{fill:none;stroke:#FFFFFF;stroke-width:6.964;stroke-linecap:round;stroke-linejoin:round;stroke-miterlimit:10;} .st3{fill:#231F20;} .st4{fill:#0B7ABF;} .st5{fill:#A0CF68;}
  </style>
  <path d="M9.5 78.7h12.2v43h13.1V132H9.5V78.7" class="st0"/>
  <path d="M9.5 78.7h12.2v43h13.1V132H9.5V78.7" class="st1"/>
  <path d="M52 122.1c3.3 0 4.9-6.3 4.9-17.2 0-9.2-1.3-16.1-5-16.1-3.6 0-5.4 7-5.3 16.4-.1 10.5 1.8 16.9 5.4 16.9m-.3 10.6c-13.4 0-17.7-14.2-17.7-27.4s5.5-27.1 18.4-27.1c14.5 0 17.3 16 17.3 26.1.1 20.1-7.2 28.4-18 28.4" class="st0"/>
  <path d="M52 122.1c3.3 0 4.9-6.3 4.9-17.2 0-9.2-1.3-16.1-5-16.1-3.6 0-5.4 7-5.3 16.4-.1 10.5 1.8 16.9 5.4 16.9zm-.3 10.6c-13.4 0-17.7-14.2-17.7-27.4s5.5-27.1 18.4-27.1c14.5 0 17.3 16 17.3 26.1.1 20.1-7.2 28.4-18 28.4" class="st1"/>
  <path d="M79.2 90.1h-9.3V78.7h30.9v11.4h-9.4V132H79.2V90.1" class="st0"/>
  <path d="M79.2 90.1h-9.3V78.7h30.9v11.4h-9.4V132H79.2V90.1" class="st1"/>
  <path d="M112.4 90.1h-9.2V78.7H134v11.4h-9.3V132h-12.3V90.1" class="st0"/>
  <path d="M112.4 90.1h-9.2V78.7H134v11.4h-9.3V132h-12.3V90.1" class="st1"/>
  <path d="M160.1 109.4h-11.6v12h13V132h-25.3V78.7h24.5v10.6h-12.2v10h11.6v10.1" class="st0"/>
  <path d="M160.1 109.4h-11.6v12h13V132h-25.3V78.7h24.5v10.6h-12.2v10h11.6v10.1" class="st1"/>
  <path d="M177 102.2h1.6c4 0 5.9-3.4 5.9-7.3s-1.5-6.8-5.3-7c-.8 0-1.7.1-2.2.3v14m-12.1-22.7c3.6-.6 8.1-1 12.4-1 5.9 0 11.5.7 15.2 4 3.5 3.1 4.4 6.6 4.4 11.4 0 5.2-2.6 10.6-8.1 13.1v.2c3.5 1.6 5.2 4.7 6.2 10 .9 5.3 2.5 12.8 3.6 14.9h-12.8c-.6-1.4-1.9-7-2.6-12.6-.8-6.3-2.2-7.8-4.9-7.8H177V132h-12.2V79.5" class="st0"/>
  <path d="M177 102.2h1.6c4 0 5.9-3.4 5.9-7.3s-1.5-6.8-5.3-7c-.8 0-1.7.1-2.2.3v14zm-12.1-22.7c3.6-.6 8.1-1 12.4-1 5.9 0 11.5.7 15.2 4 3.5 3.1 4.4 6.6 4.4 11.4 0 5.2-2.6 10.6-8.1 13.1v.2c3.5 1.6 5.2 4.7 6.2 10 .9 5.3 2.5 12.8 3.6 14.9h-12.8c-.6-1.4-1.9-7-2.6-12.6-.8-6.3-2.2-7.8-4.9-7.8H177V132h-12.2V79.5" class="st1"/>
  <path d="M206.9 132.6v-19.5l-11.7-33.9h13.1l3.2 12.4c.9 3.3 1.7 7.2 2.3 11h.2c.5-3.7 1.1-7.5 1.9-11.2l2.5-12.2H231l-11.8 33.4v19.9h-12.3" class="st0"/>
  <path d="M206.9 132.6v-19.5l-11.7-33.9h13.1l3.2 12.4c.9 3.3 1.7 7.2 2.3 11h.2c.5-3.7 1.1-7.5 1.9-11.2l2.5-12.2H231l-11.8 33.4v19.9h-12.3" class="st1"/>
  <path d="M80 43h5.1v14.9h.1c.6-1.3 1.1-2.7 1.8-4.1L92.1 43h5.6l-7.5 13.9 7.7 18.3h-5.6l-5.5-14.3-1.6 2.9v11.5H80V43" class="st0"/>
  <path d="M80 43h5.1v14.9h.1c.6-1.3 1.1-2.7 1.8-4.1L92.1 43h5.6l-7.5 13.9 7.7 18.3h-5.6l-5.5-14.3-1.6 2.9v11.5H80V43" class="st1"/>
  <path d="M113.5 60.6h-7.6v10.2h8.7v4.4h-13.8V43H114v4.5h-8.1v8.8h7.6v4.3" class="st0"/>
  <path d="M113.5 60.6h-7.6v10.2h8.7v4.4h-13.8V43H114v4.5h-8.1v8.8h7.6v4.3" class="st1"/>
  <path d="M118.7 75.2V43h4.7l5.4 13.8c1.1 2.9 2.7 7.1 3.7 10.2h.1c-.2-4.1-.5-9.1-.5-14.8V43h4.5v32.2h-4.7l-5.4-13.7c-1.1-3-2.6-6.8-3.5-10.2h-.1c.2 3.7.4 8.3.4 14.9v9h-4.6" class="st0"/>
  <path d="M118.7 75.2V43h4.7l5.4 13.8c1.1 2.9 2.7 7.1 3.7 10.2h.1c-.2-4.1-.5-9.1-.5-14.8V43h4.5v32.2h-4.7l-5.4-13.7c-1.1-3-2.6-6.8-3.5-10.2h-.1c.2 3.7.4 8.3.4 14.9v9h-4.6" class="st1"/>
  <path d="M145.8 47.7h-5.7V43h16.7v4.7h-5.9v27.5h-5.1V47.7" class="st0"/>
  <path d="M145.8 47.7h-5.7V43h16.7v4.7h-5.9v27.5h-5.1V47.7" class="st1"/>
  <path d="M165.2 43v21.2c0 5.2 1.6 6.9 3.7 6.9 2.2 0 3.7-1.6 3.7-6.9V43h5.1v20.3c0 8.3-3.2 12.2-8.8 12.2-5.9 0-8.7-4-8.7-12V43h5" class="st0"/>
  <path d="M165.2 43v21.2c0 5.2 1.6 6.9 3.7 6.9 2.2 0 3.7-1.6 3.7-6.9V43h5.1v20.3c0 8.3-3.2 12.2-8.8 12.2-5.9 0-8.7-4-8.7-12V43h5" class="st1"/>
  <path d="M197 74.7c-1 .5-2.6.8-4.7.8-7.4 0-11.6-6-11.6-15.9 0-12.4 6.5-16.8 12.3-16.8 2.1 0 3.5.4 4.2.8l-1 4.3c-.8-.3-1.5-.6-3.1-.6-3.5 0-7.1 3.2-7.1 12 0 8.6 3.2 11.7 7.1 11.7 1.2 0 2.4-.2 3.2-.6l.7 4.3" class="st0"/>
  <path d="M197 74.7c-1 .5-2.6.8-4.7.8-7.4 0-11.6-6-11.6-15.9 0-12.4 6.5-16.8 12.3-16.8 2.1 0 3.5.4 4.2.8l-1 4.3c-.8-.3-1.5-.6-3.1-.6-3.5 0-7.1 3.2-7.1 12 0 8.6 3.2 11.7 7.1 11.7 1.2 0 2.4-.2 3.2-.6l.7 4.3" class="st1"/>
  <path d="M200.6 43h5.1v14.9h.1c.6-1.3 1.1-2.7 1.8-4.1l5.1-10.8h5.6l-7.5 13.9 7.7 18.3h-5.6l-5.5-14.3-1.6 2.9v11.5h-5.1V43" class="st0"/>
  <path d="M200.6 43h5.1v14.9h.1c.6-1.3 1.1-2.7 1.8-4.1l5.1-10.8h5.6l-7.5 13.9 7.7 18.3h-5.6l-5.5-14.3-1.6 2.9v11.5h-5.1V43" class="st1"/>
  <path d="M226.1 75.2V62.3L219 43h5.4l2.5 7.8c.7 2.2 1.4 4.6 2 7.1h.1c.5-2.4 1.1-4.8 1.9-7.2l2.3-7.7h5.3l-7.3 19.1v13.1h-5.1" class="st0"/>
  <path d="M226.1 75.2V62.3L219 43h5.4l2.5 7.8c.7 2.2 1.4 4.6 2 7.1h.1c.5-2.4 1.1-4.8 1.9-7.2l2.3-7.7h5.3l-7.3 19.1v13.1h-5.1" class="st1"/>
  <path d="M258.3 117c2.2 4.3-2.7 11.3-11.1 15.7-8.4 4.4-17 4.6-19.3.3-2.2-4.3 2.7-11.3 11.1-15.7 8.4-4.5 17.1-4.6 19.3-.3" class="st0"/>
  <path d="M258.3 117c2.2 4.3-2.7 11.3-11.1 15.7-8.4 4.4-17 4.6-19.3.3-2.2-4.3 2.7-11.3 11.1-15.7 8.4-4.5 17.1-4.6 19.3-.3" class="st1"/>
  <path d="M262.5 44.3c-2.3-.1-4.1-2.6-4-5.7.1-3.1 2.1-5.5 4.4-5.4 2.3.1 4.1 2.6 4 5.7-.2 3.1-2.1 5.5-4.4 5.4m31.3-32s-3.6-10.9-13.9-8c0 0-10.4 2.8-19.9 15-3.2 4.1-6.3 9.2-8.9 15.5.8 1.6 1.7 3.6 1.7 3.6 4.4 9.7 9.6 9.3 9.6 9.3.8.2 1.9-.3 1.9-.3 3.9-1.2 13-18.8 13-18.8 1.4-2.7 4.9-8.8 4.9-8.8 3.2-4.4 5.6-2 5.6-2 2.4 1.9.3 5 .3 5-.6 1.2-16.5 21.9-16.5 21.9-5 6.1-5.3 12.1-5.3 12.1-.5 4.3 9.1 11.9 9.1 11.9 2.5 1.8 1.3 3.8 1.3 3.8-.2.8-.4 1.2-.6 2.2-1 4-.9 7.7-.9 7.7v.1c9.3-14.1 18.9-34.1 19.8-57.5.3-5.9.3-7.8-1.2-12.7m-22 62.1c.8-2.8-1.9-4.3-1.9-4.3l-5.3-4.3c-2.3-1.8-3.7 1.4-3.7 1.4l-3.8 8.5c-1 2.3 1.2 2.7 1.2 2.7 2.9 1 5.8 3.5 5.8 3.5 1.8 1.6 2.8 3.9 2.8 3.9 1.1 4-.6 4.9-.6 4.9-.8.6-2-.9-2-.9-1.6-1.9-10.6-8.7-10.6-8.7-4-2.3-2.4-4.2-2.4-4.2l5.5-11.6c2.8-5.6.9-11.9.9-11.9-1.2-3.5-6.4-10.8-8.5-13.7-4.5 13.6-6.8 32.2-3.9 57.7 0 0 .8 5.9 2.7 8.2 1.8 2 4.5 2.8 8.8-.9 0 0 7.6-6.9 16-18.8-.7-.2-1.1-.7-1.1-.7-3.4-3 .1-10.8.1-10.8" class="st0"/>
  <path d="M262.5 44.3c-2.3-.1-4.1-2.6-4-5.7.1-3.1 2.1-5.5 4.4-5.4 2.3.1 4.1 2.6 4 5.7-.2 3.1-2.1 5.5-4.4 5.4zm31.3-32s-3.6-10.9-13.9-8c0 0-10.4 2.8-19.9 15-3.2 4.1-6.3 9.2-8.9 15.5.8 1.6 1.7 3.6 1.7 3.6 4.4 9.7 9.6 9.3 9.6 9.3.8.2 1.9-.3 1.9-.3 3.9-1.2 13-18.8 13-18.8 1.4-2.7 4.9-8.8 4.9-8.8 3.2-4.4 5.6-2 5.6-2 2.4 1.9.3 5 .3 5-.6 1.2-16.5 21.9-16.5 21.9-5 6.1-5.3 12.1-5.3 12.1-.5 4.3 9.1 11.9 9.1 11.9 2.5 1.8 1.3 3.8 1.3 3.8-.2.8-.4 1.2-.6 2.2-1 4-.9 7.7-.9 7.7v.1c9.3-14.1 18.9-34.1 19.8-57.5.3-5.9.3-7.8-1.2-12.7zm-22 62.1c.8-2.8-1.9-4.3-1.9-4.3l-5.3-4.3c-2.3-1.8-3.7 1.4-3.7 1.4l-3.8 8.5c-1 2.3 1.2 2.7 1.2 2.7 2.9 1 5.8 3.5 5.8 3.5 1.8 1.6 2.8 3.9 2.8 3.9 1.1 4-.6 4.9-.6 4.9-.8.6-2-.9-2-.9-1.6-1.9-10.6-8.7-10.6-8.7-4-2.3-2.4-4.2-2.4-4.2l5.5-11.6c2.8-5.6.9-11.9.9-11.9-1.2-3.5-6.4-10.8-8.5-13.7-4.5 13.6-6.8 32.2-3.9 57.7 0 0 .8 5.9 2.7 8.2 1.8 2 4.5 2.8 8.8-.9 0 0 7.6-6.9 16-18.8-.7-.2-1.1-.7-1.1-.7-3.4-3 .1-10.8.1-10.8" class="st1"/>
  <path d="M301.9 26.1c-1.4-.7-1.9-2.3-1.1-3.8.8-1.5 2.3-1.9 3.8-1.2 1.4.8 1.9 2.3 1.1 3.8-.8 1.4-2.3 1.9-3.8 1.2" class="st0"/>
  <path d="M301.9 26.1c-1.4-.7-1.9-2.3-1.1-3.8.8-1.5 2.3-1.9 3.8-1.2 1.4.8 1.9 2.3 1.1 3.8-.8 1.4-2.3 1.9-3.8 1.2" class="st1"/>
  <path d="M316 37.3c-1.1-1.2-1-2.8.3-3.9 1.2-1.1 2.9-1 3.9.2 1.1 1.2 1 2.8-.3 3.9-1.1 1.1-2.7 1-3.9-.2" class="st0"/>
  <path d="M316 37.3c-1.1-1.2-1-2.8.3-3.9 1.2-1.1 2.9-1 3.9.2 1.1 1.2 1 2.8-.3 3.9-1.1 1.1-2.7 1-3.9-.2" class="st1"/>
  <path d="M325.5 52.7c-.6-1.5.1-3 1.6-3.6 1.5-.6 3 0 3.6 1.5.6 1.5 0 3-1.6 3.6-1.4.6-2.9 0-3.6-1.5" class="st0"/>
  <path d="M325.5 52.7c-.6-1.5.1-3 1.6-3.6 1.5-.6 3 0 3.6 1.5.6 1.5 0 3-1.6 3.6-1.4.6-2.9 0-3.6-1.5" class="st1"/>
  <path d="M329.2 70.4c-.1-1.6 1.1-2.8 2.7-2.8 1.7-.1 2.9 1.1 2.9 2.7.1 1.6-1 2.8-2.7 2.8-1.7 0-2.9-1.1-2.9-2.7" class="st0"/>
  <path d="M329.2 70.4c-.1-1.6 1.1-2.8 2.7-2.8 1.7-.1 2.9 1.1 2.9 2.7.1 1.6-1 2.8-2.7 2.8-1.7 0-2.9-1.1-2.9-2.7" class="st1"/>
  <path d="M326.5 88.3c.5-1.5 1.9-2.2 3.5-1.7 1.6.5 2.3 2 1.8 3.5-.5 1.5-1.9 2.2-3.5 1.7-1.5-.5-2.3-1.9-1.8-3.5" class="st0"/>
  <path d="M326.5 88.3c.5-1.5 1.9-2.2 3.5-1.7 1.6.5 2.3 2 1.8 3.5-.5 1.5-1.9 2.2-3.5 1.7-1.5-.5-2.3-1.9-1.8-3.5" class="st1"/>
  <path d="M318 104.2c1-1.3 2.6-1.4 3.9-.4 1.3 1 1.5 2.6.5 3.9-1 1.3-2.6 1.4-3.9.4-1.3-1-1.6-2.6-.5-3.9" class="st0"/>
  <path d="M318 104.2c1-1.3 2.6-1.4 3.9-.4 1.3 1 1.5 2.6.5 3.9-1 1.3-2.6 1.4-3.9.4-1.3-1-1.6-2.6-.5-3.9" class="st1"/>
  <path d="M304.5 116.2c1.4-.8 2.9-.5 3.8.9.9 1.4.5 3-.9 3.8-1.4.9-2.9.5-3.8-.9-.9-1.4-.6-3 .9-3.8" class="st0"/>
  <path d="M304.5 116.2c1.4-.8 2.9-.5 3.8.9.9 1.4.5 3-.9 3.8-1.4.9-2.9.5-3.8-.9-.9-1.4-.6-3 .9-3.8" class="st1"/>
  <path d="M287.6 122.8c1.6-.3 2.9.6 3.2 2.2.3 1.6-.5 3-2.1 3.3-1.6.3-2.9-.5-3.3-2.2-.2-1.5.6-2.9 2.2-3.3" class="st0"/>
  <path d="M287.6 122.8c1.6-.3 2.9.6 3.2 2.2.3 1.6-.5 3-2.1 3.3-1.6.3-2.9-.5-3.3-2.2-.2-1.5.6-2.9 2.2-3.3" class="st1"/>
  <path d="M269.6 123.3c1.6.2 2.5 1.5 2.3 3.2-.2 1.6-1.5 2.6-3.1 2.4-1.6-.2-2.5-1.5-2.3-3.2.2-1.6 1.4-2.6 3.1-2.4" class="st0"/>
  <path d="M269.6 123.3c1.6.2 2.5 1.5 2.3 3.2-.2 1.6-1.5 2.6-3.1 2.4-1.6-.2-2.5-1.5-2.3-3.2.2-1.6 1.4-2.6 3.1-2.4" class="st1"/>
  <path d="M274.4 91.8l-1.8 7.1 3.3 1.6-1.5-8.7" class="st0"/>
  <path d="M274.4 91.8l-1.8 7.1 3.3 1.6-1.5-8.7" class="st1"/>
  <path d="M278.2 90.3l4.6 6.4 2.1-2.4-6.7-4" class="st0"/>
  <path d="M278.2 90.3l4.6 6.4 2.1-2.4-6.7-4" class="st1"/>
  <path d="M280.1 85.2l5.6-3.7 1.6 3.5-7.2.2" class="st0"/>
  <path d="M280.1 85.2l5.6-3.7 1.6 3.5-7.2.2" class="st1"/>
  <path d="M279.2 149.4c0 1.4-17.7 2.5-39.6 2.5-21.9 0-39.6-1.1-39.6-2.5s17.7-2.5 39.6-2.5c21.9 0 39.6 1.1 39.6 2.5" class="st0"/>
  <path d="M279.2 149.4c0 1.4-17.7 2.5-39.6 2.5-21.9 0-39.6-1.1-39.6-2.5s17.7-2.5 39.6-2.5c21.9 0 39.6 1.1 39.6 2.5" class="st1"/>
  <path d="M255.3 132.9c.4 0 .8 0 .8-.5 0-.4-.4-.5-.7-.5h-.7v1h.6m-.6 1.8h-.5v-3.3h1.2c.8 0 1.2.3 1.2.9 0 .6-.4.8-.9.9l.9 1.4h-.6l-.9-1.4h-.6v1.5zm.6.7c1.3 0 2.3-1 2.3-2.4s-1-2.4-2.3-2.4c-1.3 0-2.3 1-2.3 2.4s1 2.4 2.3 2.4m-2.8-2.3c0-1.6 1.3-2.8 2.9-2.8 1.6 0 2.9 1.2 2.9 2.8 0 1.7-1.3 2.9-2.9 2.9-1.6-.1-2.9-1.3-2.9-2.9" class="st0"/>
  <path d="M255.3 132.9c.4 0 .8 0 .8-.5 0-.4-.4-.5-.7-.5h-.7v1h.6zm-.6 1.8h-.5v-3.3h1.2c.8 0 1.2.3 1.2.9 0 .6-.4.8-.9.9l.9 1.4h-.6l-.9-1.4h-.6v1.5zm.6.7c1.3 0 2.3-1 2.3-2.4s-1-2.4-2.3-2.4c-1.3 0-2.3 1-2.3 2.4s1 2.4 2.3 2.4zm-2.8-2.3c0-1.6 1.3-2.8 2.9-2.8 1.6 0 2.9 1.2 2.9 2.8 0 1.7-1.3 2.9-2.9 2.9-1.6-.1-2.9-1.3-2.9-2.9z" class="st1"/>
  <path d="M257.6 32.6h13.6v35.7h-13.6z" class="st0"/>
  <path d="M257.6 32.6h13.6v35.7h-13.6z" class="st2"/>
  <path d="M261.1 17.9s-11.8 11.9-16 38.9c-4.2 27 21.3-3.3 21.3-3.3l1.8-29.9-7.1-5.7" class="st0"/>
  <path d="M261.1 17.9s-11.8 11.9-16 38.9c-4.2 27 21.3-3.3 21.3-3.3l1.8-29.9-7.1-5.7z" class="st1"/>
  <path d="M9.5 78.7h12.2v43h13.1V132H9.5V78.7M52 122.1c3.3 0 4.9-6.3 4.9-17.2 0-9.2-1.3-16.1-5-16.1-3.6 0-5.4 7-5.3 16.4-.1 10.5 1.8 16.9 5.4 16.9m-.3 10.6c-13.4 0-17.7-14.2-17.7-27.4s5.5-27.1 18.4-27.1c14.5 0 17.3 16 17.3 26.1.1 20.1-7.2 28.4-18 28.4m27.5-42.6h-9.3V78.7h30.9v11.4h-9.4V132H79.2V90.1m33.2 0h-9.2V78.7H134v11.4h-9.3V132h-12.3V90.1m47.7 19.3h-11.6v12h13V132h-25.3V78.7h24.5v10.6h-12.2v10h11.6v10.1m16.9-7.2h1.6c4 0 5.9-3.4 5.9-7.3s-1.5-6.8-5.3-7c-.8 0-1.7.1-2.2.3v14m-12.1-22.7c3.6-.6 8.1-1 12.4-1 5.9 0 11.5.7 15.2 4 3.5 3.1 4.4 6.6 4.4 11.4 0 5.2-2.6 10.6-8.1 13.1v.2c3.5 1.6 5.2 4.7 6.2 10 .9 5.3 2.5 12.8 3.6 14.9h-12.8c-.6-1.4-1.9-7-2.6-12.6-.8-6.3-2.2-7.8-4.9-7.8H177V132h-12.2V79.5m42.1 53.1v-19.5l-11.7-33.9h13.1l3.2 12.4c.9 3.3 1.7 7.2 2.3 11h.2c.5-3.7 1.1-7.5 1.9-11.2l2.5-12.2H231l-11.8 33.4v19.9h-12.3M80 43h5.1v14.9h.1c.6-1.3 1.1-2.7 1.8-4.1L92.1 43h5.6l-7.5 13.9 7.7 18.3h-5.6l-5.5-14.3-1.6 2.9v11.5H80V43m33.5 17.6h-7.6v10.2h8.7v4.4h-13.8V43H114v4.5h-8.1v8.8h7.6v4.3m5.2 14.6V43h4.7l5.4 13.8c1.1 2.9 2.7 7.1 3.7 10.2h.1c-.2-4.1-.5-9.1-.5-14.8V43h4.5v32.2h-4.7l-5.4-13.7c-1.1-3-2.6-6.8-3.5-10.2h-.1c.2 3.7.4 8.3.4 14.9v9h-4.6m27.1-27.5h-5.7V43h16.7v4.7h-5.9v27.5h-5.1V47.7m19.4-4.7v21.2c0 5.2 1.6 6.9 3.7 6.9 2.2 0 3.7-1.6 3.7-6.9V43h5.1v20.3c0 8.3-3.2 12.2-8.8 12.2-5.9 0-8.7-4-8.7-12V43h5M197 74.7c-1 .5-2.6.8-4.7.8-7.4 0-11.6-6-11.6-15.9 0-12.4 6.5-16.8 12.3-16.8 2.1 0 3.5.4 4.2.8l-1 4.3c-.8-.3-1.5-.6-3.1-.6-3.5 0-7.1 3.2-7.1 12 0 8.6 3.2 11.7 7.1 11.7 1.2 0 2.4-.2 3.2-.6l.7 4.3m3.6-31.7h5.1v14.9h.1c.6-1.3 1.1-2.7 1.8-4.1l5.1-10.8h5.6l-7.5 13.9 7.7 18.3h-5.6l-5.5-14.3-1.6 2.9v11.5h-5.1V43m25.4 32.2V62.3L219 43h5.4l2.5 7.8c.7 2.2 1.4 4.6 2 7.1h.1c.5-2.4 1.1-4.8 1.9-7.2l2.3-7.7h5.3l-7.3 19.1v13.1h-5.1" class="st3"/>
  <path d="M258.3 117c2.2 4.3-2.7 11.3-11.1 15.7-8.4 4.4-17 4.6-19.3.3-2.2-4.3 2.7-11.3 11.1-15.7 8.4-4.5 17.1-4.6 19.3-.3m4.2-72.7c-2.3-.1-4.1-2.6-4-5.7.1-3.1 2.1-5.5 4.4-5.4 2.3.1 4.1 2.6 4 5.7-.2 3.1-2.1 5.5-4.4 5.4m31.3-32s-3.6-10.9-13.9-8c0 0-18.4 5-28.8 30.5.8 1.6 1.7 3.6 1.7 3.6 4.4 9.7 9.6 9.3 9.6 9.3.8.2 1.9-.3 1.9-.3 3.9-1.2 13-18.8 13-18.8 1.4-2.7 4.9-8.8 4.9-8.8 3.2-4.4 5.6-2 5.6-2 2.4 1.9.3 5 .3 5-.6 1.2-16.5 21.9-16.5 21.9-5 6.1-5.3 12.1-5.3 12.1-.5 4.3 9.1 11.9 9.1 11.9 2.5 1.8 1.3 3.8 1.3 3.8-.2.8-.4 1.2-.6 2.2-1 4-.9 7.7-.9 7.7v.1c9.3-14.1 18.9-34.1 19.8-57.5.3-5.9.3-7.8-1.2-12.7m-22 62.1c.8-2.8-1.9-4.3-1.9-4.3l-5.3-4.3c-2.3-1.8-3.7 1.4-3.7 1.4l-3.8 8.5c-1 2.3 1.2 2.7 1.2 2.7 2.9 1 5.8 3.5 5.8 3.5 1.8 1.6 2.8 3.9 2.8 3.9 1.1 4-.6 4.9-.6 4.9-.8.6-2-.9-2-.9-1.6-1.9-10.6-8.7-10.6-8.7-4-2.3-2.4-4.2-2.4-4.2l5.5-11.6c2.8-5.6.9-11.9.9-11.9-1.2-3.5-6.4-10.8-8.5-13.7-4.5 13.6-6.8 32.2-3.9 57.7 0 0 .8 5.9 2.7 8.2 1.8 2 4.5 2.8 8.8-.9 0 0 7.6-6.9 16-18.8-.7-.2-1.1-.7-1.1-.7-3.4-3 .1-10.8.1-10.8" class="st4"/>
  <path d="M301.9 26.1c-1.4-.7-1.9-2.3-1.1-3.8.8-1.5 2.3-1.9 3.8-1.2 1.4.8 1.9 2.3 1.1 3.8-.8 1.4-2.3 1.9-3.8 1.2M316 37.3c-1.1-1.2-1-2.8.3-3.9 1.2-1.1 2.9-1 3.9.2 1.1 1.2 1 2.8-.3 3.9-1.1 1.1-2.7 1-3.9-.2m9.5 15.4c-.6-1.5.1-3 1.6-3.6 1.5-.6 3 0 3.6 1.5.6 1.5 0 3-1.6 3.6-1.4.6-2.9 0-3.6-1.5m3.7 17.7c-.1-1.6 1.1-2.8 2.7-2.8 1.7-.1 2.9 1.1 2.9 2.7.1 1.6-1 2.8-2.7 2.8-1.7 0-2.9-1.1-2.9-2.7m-2.7 17.9c.5-1.5 1.9-2.2 3.5-1.7 1.6.5 2.3 2 1.8 3.5-.5 1.5-1.9 2.2-3.5 1.7-1.5-.5-2.3-1.9-1.8-3.5m-8.5 15.9c1-1.3 2.6-1.4 3.9-.4 1.3 1 1.5 2.6.5 3.9-1 1.3-2.6 1.4-3.9.4-1.3-1-1.6-2.6-.5-3.9m-13.5 12c1.4-.8 2.9-.5 3.8.9.9 1.4.5 3-.9 3.8-1.4.9-2.9.5-3.8-.9-.9-1.4-.6-3 .9-3.8m-16.9 6.6c1.6-.3 2.9.6 3.2 2.2.3 1.6-.5 3-2.1 3.3-1.6.3-2.9-.5-3.3-2.2-.2-1.5.6-2.9 2.2-3.3m-18 .5c1.6.2 2.5 1.5 2.3 3.2-.2 1.6-1.5 2.6-3.1 2.4-1.6-.2-2.5-1.5-2.3-3.2.2-1.6 1.4-2.6 3.1-2.4m4.8-31.5l-1.8 7.1 3.3 1.6-1.5-8.7m3.8-1.5l4.6 6.4 2.1-2.4-6.7-4m1.9-5.1l5.6-3.7 1.6 3.5-7.2.2m-.9 64.2c0 1.4-17.7 2.5-39.6 2.5-21.9 0-39.6-1.1-39.6-2.5s17.7-2.5 39.6-2.5c21.9 0 39.6 1.1 39.6 2.5" class="st5"/>
  <path d="M255.3 132.9c.4 0 .8 0 .8-.5 0-.4-.4-.5-.7-.5h-.7v1h.6m-.6 1.8h-.5v-3.3h1.2c.8 0 1.2.3 1.2.9 0 .6-.4.8-.9.9l.9 1.4h-.6l-.9-1.4h-.6v1.5zm.6.7c1.3 0 2.3-1 2.3-2.4s-1-2.4-2.3-2.4c-1.3 0-2.3 1-2.3 2.4s1 2.4 2.3 2.4m-2.8-2.3c0-1.6 1.3-2.8 2.9-2.8 1.6 0 2.9 1.2 2.9 2.8 0 1.7-1.3 2.9-2.9 2.9-1.6-.1-2.9-1.3-2.9-2.9" class="st3"/>
</svg>
