<svg style="fill: #004fa3;" xmlns="http://www.w3.org/2000/svg" viewBox="0 0 431.99 114.58" >
  <path d="M4.63 109.31V26.93h29.18v5.17A36.71 36.71 0 0 1 43 27.81a33.45 33.45 0 0 1 9.7-1.39 21.7 21.7 0 0 1 9.58 2 19.31 19.31 0 0 1 7.19 6.08 30.46 30.46 0 0 1 9.8-6.12 33 33 0 0 1 11.75-2q10.09 0 15.51 6.21t5.42 17.81v58.87H81.66V51.89a8.79 8.79 0 0 0-1-4.82 3.57 3.57 0 0 0-3.18-1.54A3.64 3.64 0 0 0 74.16 47a8.92 8.92 0 0 0-1 4.85v57.43H43.33V51.89a8.79 8.79 0 0 0-1-4.82 3.57 3.57 0 0 0-3.18-1.54A3.64 3.64 0 0 0 35.83 47a8.92 8.92 0 0 0-1 4.85v57.43zm116.3-88.18V4.49h30.45v16.64zm0 88.19V26.93h30.45v82.38zm40.07-.01V4.49h30.4v104.82zm40 0V4.49h30.45v104.83zm40-88.18V4.49h30.45v16.64zm0 88.19V26.93h30.45v82.39zm38.84-63.8q0-10.59 4.48-14.72T300 26.68h30q11.29 0 15.79 4.19t4.51 14.66v45.2q0 10.53-4.51 14.69T330 109.57h-30q-11.23 0-15.7-4.1t-4.48-14.75zm30.89 3.54v38.33a8.63 8.63 0 0 0 1 4.76 3.57 3.57 0 0 0 3.27 1.54 3.68 3.68 0 0 0 3.28-1.48 8.82 8.82 0 0 0 1-4.82V49.06a8.82 8.82 0 0 0-1-4.82 3.64 3.64 0 0 0-3.28-1.55 3.58 3.58 0 0 0-3.21 1.51 9 9 0 0 0-1.06 4.86zm47.78 60.26V26.94h29.56v5.16a38.39 38.39 0 0 1 9.11-4.28 32.55 32.55 0 0 1 9.61-1.39q10.34 0 15.76 6.15T428 50.45v58.87h-30.54V51.89a8.79 8.79 0 0 0-1-4.82 3.57 3.57 0 0 0-3.18-1.54A3.64 3.64 0 0 0 390 47a8.92 8.92 0 0 0-1 4.85v57.43z"/>
</svg>
