<svg style="fill: #004fa3" xmlns="http://www.w3.org/2000/svg" viewBox="0 0 482.6 197.16">
  <path d="M8 193.47V4.11h119.79q25.85 0 36.95 10.53t11.1 34.45q0 19-7.12 29T145.1 92.24q16.4 3.87 23.57 16.05t7.17 36.44q0 26.87-10.76 37.8t-37.29 10.93zm73.91-146.2V74h8.2q5.81 0 8.25-3t2.45-10.25q0-7.63-2.39-10.59t-8.31-3zm0 102.82h8.2q6 0 8.37-2.9t2.34-10.65v-7.63q0-7.52-2.39-10.53t-8.31-3h-8.2zm121.3 43.38V4.11h73.89v189.36zm195.66-66.95h-10.25V84.39h85.28v109.08H436l-6.6-13.78q-3.41 8.09-12.52 11.62T390 194.83h-40.09q-24.82 0-34.9-10.3t-10.08-35.13V43.28q0-20.94 10.76-30.63T349.91 3h77.2q25.28 0 36 9.39t10.79 30.89v19.13h-75.26l.23-3.08a9.67 9.67 0 0 1 .11-1.25 9.6 9.6 0 0 0 .11-1.25 11.84 11.84 0 0 0-2.68-8.14 9 9 0 0 0-7.11-3q-4.9 0-7.12 3.24T380 59.34v78.91q0 7.17 2.22 10.3t7.12 3.13q5.12 0 7.34-3.08t2.22-10.36z"/>
</svg>
