<svg xmlns="http://www.w3.org/2000/svg" viewBox="0 0 152.8 162.1">
  <style>
    .btg-logo-image {
      fill: #54924e;
    }
  </style>
  <path class="btg-logo-image" d="M.9 0v6h7.9v23.8h7.5V6h7.5V0zm44.8 0v11h-11V0h-7.5v29.8h7.5V17.2h11v12.6h7.5V0zm11.6 0v29.8h23.5v-6h-16v-6.9h13.5v-5.6H64.8V6h14.7V0zM8.7 58.3v7.2H14c2.5 0 5.7 0 5.7-3.5s-2.8-3.8-4.4-3.8H8.7zm0-11.6V53h5.7c1.6 0 4.4 0 4.4-3.1 0-2.8-2.5-3.1-4.1-3.1h-6zM1.5 41h11.6c3.1 0 6 0 7.8.6 3.8 1.3 5 4.1 5 6.9 0 1.6-.3 2.5-.6 2.8-1.3 3.1-4.1 3.8-6 4.1 1.9.3 4.1.6 6 2.5.9 1.3 1.6 2.8 1.6 4.4 0 2.2-1.3 5.7-5 7.2-2.2.9-4.7 1.3-8.2 1.3H1.1V41h.4zm53.7 0v16.6c0 2.8 0 5.7-1.9 8.5-3.1 5-9.7 5.3-11 5.3-2.2 0-5-.6-6.9-1.6-5.7-2.8-5.7-8.2-5.7-12.2V41h7.5v18.5c0 1.6 0 2.8.6 3.8.9 1.6 2.8 1.9 4.7 1.9 5 0 5-3.5 5-5.7V41h7.7zm4.6 0H67l6.6 11c2.5 4.1 3.1 5.7 4.4 8.2L77.7 41H85v29.8h-7.2l-5.7-9.4C69.3 57 69 56.1 66.8 52l.3 18.8h-7.2V41zm28.4 0h23v6h-7.6v23.8h-7.5V47h-7.9zm26.7 0h7.5v29.8h-7.5zm12.7 0h7.2l6.6 11c2.5 4.1 3.1 5.7 4.4 8.2l-.3-19.2h7.2v29.8h-7.2l-5.7-9.4c-2.8-4.4-3.1-5.3-5.3-9.4l.3 18.8h-7.2V41zM20.7 107.8c-1.2 1.2-3.5 3.2-8.2 3.2C5 111 0 104.6 0 96.7c0-9 5.8-14.9 13.7-14.9 7.3 0 10.8 4.7 12.3 6.4l-5.3 3.2c-.9-1.5-2.6-3.8-6.4-3.8-5.5-.3-7.3 4.1-7.3 8.8 0 3.2.9 5.5 2.3 7 1.2 1.2 2.9 2 5 2 1.2 0 2.6-.3 3.8-1.2 1.8-1.2 2-2.6 2.3-4.1h-6.1v-5.3h12v15.5h-5.5c-.1.1-.1-2.5-.1-2.5zm16.7-19.9v7.6h5.8c.9 0 4.1 0 4.1-3.8 0-3.5-2.6-3.5-4.1-3.8h-5.8zm-6.7-5.2h12.6c2.9 0 6.4 0 9 2.9 1.2 1.5 2.3 3.8 2.3 6.1 0 5.5-3.8 7-5.8 7.6l6.4 11.1h-7.9l-5.5-9.9h-4.4v9.9h-7V82.7h.3zm45.9 7c-1.2-1.2-2.9-2-5-2-4.1 0-7 3.8-7 8.8 0 6.7 3.8 9 7 9s6.7-2.3 7-8.2c.4-3-.5-5.9-2-7.6m-4.9 21.6c-8.8 0-13.7-6.7-13.7-14.9 0-7.6 4.7-14.6 13.7-14.6 1.8 0 3.5.3 5 .9 8.5 2.9 9 12.3 9 14 0 4.7-2.3 9-5.3 11.7-2.6 2.3-5.8 2.9-8.7 2.9m41.1-28.6v15.5c0 2.6 0 5.3-1.8 7.9-2.9 4.7-9 5-10.2 5-2 0-4.7-.6-6.4-1.5-5.3-2.6-5.3-7.6-5.3-11.4V82.7h7v17.2c0 1.5 0 2.6.6 3.5.9 1.5 2.6 1.8 4.4 1.8 4.7 0 4.7-3.2 4.7-5.3V82.7h7zm11.5 5.2v8.5h4.1c2.6 0 5.8 0 5.8-4.4 0-4.1-3.5-4.1-5.5-4.1h-4.4zm-7-5.2h11.1c4.7 0 8.5 0 11.1 3.5 1.2 1.5 1.5 3.8 1.5 5.8 0 1.5-.3 2.9-.9 4.4-2.3 5-7.6 5-11.4 5.3H124v9h-7v-28h.3zM5 124.2c0-.4 0-.7-.4-.9-.2-.2-.5-.4-.9-.4-.5 0-.7.2-.9.4-.2.4-.4.5-.4.9H5zm2 2.5c-.2.4-.4.7-.7.9-.5.5-1.4.9-2.5.9-2 0-3.2-1.2-3.2-3.4 0-1.6.7-3.6 3.4-3.6.4 0 1.4 0 2.3.9s.9 2.1.9 2.9H2.5c0 .9.4 1.6 1.4 1.6 1.1 0 1.4-.7 1.6-1.1l1.5.9zm1.2-4.8h2c.7 2.9.9 3.4 1.1 4.6.2-1.4.4-1.6.7-3l.4-1.6h2l-2.1 6.4h-2l-2.1-6.4zm12.3 2.3c0-.4 0-.7-.4-.9-.2-.2-.5-.4-.9-.4-.5 0-.7.2-.9.4-.2.4-.4.5-.4.9h2.6zm1.8 2.5c-.2.4-.4.7-.7.9-.5.5-1.4.9-2.5.9-2 0-3.2-1.2-3.2-3.4 0-1.6.7-3.6 3.4-3.6.4 0 1.4 0 2.3.9s.9 2.1.9 2.9h-4.6c0 .9.4 1.6 1.4 1.6 1.1 0 1.4-.7 1.6-1.1l1.4.9zm4.1-4.3c.4-.4.9-.7 1.8-.7v1.8h-.5c-.9.2-1.2.4-1.2 1.1v3.6h-2v-6.4h1.8v.7h.1zm9.3-.5l-2.3 7c-.2.4-.4.9-.5 1.2-.4.5-.9.5-1.4.5H30v-1.4h.7c.4 0 .7 0 .7-.5v-.5l-2-6.2h2l1.1 4.6 1.1-4.6c-.1-.1 2.1-.1 2.1-.1zm2.1-2h2v2H41v1.1h-1.2v2.9c0 .4 0 .7.5.7h.7v1.4c-.4 0-.7.2-1.1.2-.7 0-1.4 0-1.8-.7-.2-.4-.4-.9-.4-1.4v-3h-.9v-1.2h.9c.1-.2.1-2 .1-2zm7.2-.3v3c.4-.4.9-.9 1.8-.9.5 0 1.1.2 1.4.5.5.5.7 1.1.7 2v4.3h-2V124c-.2-.5-.7-.7-.9-.7-.4 0-.5.2-.7.4-.2.4-.2.9-.2 1.4v3.2h-2v-8.7H45zm6.6 2.3h2v6.4h-2v-6.4zm0-2.3h2v1.4h-2v-1.4zm6.5 2.8c.2-.2.4-.4.7-.5.4-.2.7-.2 1.2-.2.4 0 .9 0 1.1.2.7.4.9.9.9 2v4.5h-2v-4.5c-.2-.4-.5-.5-.9-.5-1.1 0-1.1.7-1.1 1.6v3.4h-2V122h2v.4zm8.1 2.5c0 .5 0 1.6 1.2 1.6.9 0 1.2-.7 1.2-1.6 0-.4 0-.9-.2-1.2-.2-.2-.5-.5-1.1-.5-.9-.1-1.1.8-1.1 1.7m2.3 2.5c-.4.2-.9.5-1.8.5-.5 0-1.1-.2-1.4-.4-.9-.5-1.2-1.6-1.2-2.7 0-1.2.5-3.2 2.7-3.2 1.1 0 1.4.4 1.8.7v-.5h1.8v6.2c0 .7 0 1.6-1.1 2.1-.7.4-1.6.5-2.1.5-1.2 0-2.1-.4-2.5-.7-.5-.5-.5-1.1-.5-1.4h2c0 .4 0 .7.5.9.2 0 .4.2.5.2 1.1 0 1.1-.7 1.1-1.2v-1.1h.2zm9.4-1.2c.5.5 1.1.9 1.8.9.5 0 1.1-.2 1.1-.7 0-.2-.2-.4-.2-.4-.4-.2-.7-.2-1.1-.2-.4 0-.5-.2-.9-.2-.4-.2-.7-.4-1.1-.5-.4-.4-.5-.7-.5-1.2 0-1.1.9-2.1 2.7-2.1 1.6 0 2.5.7 2.9.9l-1.2 1.1c-.5-.5-1.2-.7-1.6-.7-.7 0-.9.4-.9.5 0 .4.4.4 1.1.5 1.2.2 2.9.5 2.9 2.1 0 1.4-1.6 2.3-3 2.3-1.8 0-2.7-.9-3-1.2l1-1.1zm10.4-3.2c-.4 0-.7.2-.9.5-.4.4-.4.9-.4 1.4 0 .9.2 1.2.5 1.6.2.2.5.4.9.4.9 0 1.2-1.1 1.2-2 0-.9-.2-1.8-1.1-2 0 .1-.2.1-.2.1m-1.6-.6l.2-.2c.4-.4.9-.5 1.6-.5 1.6 0 2.9 1.2 2.9 3.4 0 1.2-.5 3.4-2.9 3.4-.7 0-1.1-.2-1.6-.5v2.7h-2v-8.6h1.6v.4h.2zm11 1.8c0-.4 0-.7-.4-.9-.2-.2-.5-.4-.9-.4-.5 0-.7.2-.9.4-.2.4-.4.5-.4.9h2.6zm2 2.5c-.2.4-.4.7-.7.9-.5.5-1.4.9-2.5.9-2 0-3.2-1.2-3.2-3.4 0-1.6.7-3.6 3.4-3.6.4 0 1.4 0 2.3.9s.9 2.1.9 2.9h-4.6c0 .9.4 1.6 1.4 1.6s1.4-.7 1.6-1.1l1.4.9zm4.5-1.1c-.4.2-.9.4-.9.7 0 .4.4.7.7.7.2 0 .5 0 .7-.2.7-.4.7-1.1.7-1.6l-1.2.4zm-2.4-1.9c0-.4.2-.9.7-1.4.5-.5 1.4-.5 2.1-.5.7 0 2.7.2 2.7 1.8v3.7c0 .7 0 .7.2 1.1h-1.8v-.5c-.5.4-1.1.7-2 .7-1.4 0-2.1-1.1-2.1-2 0-1.1.9-1.6 1.4-1.8.5-.2 1.8-.4 2.5-.5v-.4c0-.4 0-.7-.7-.7-.9 0-.9.5-1.1.7h-2v-.2zm8.2-4.1h2v4.4l2-2.1h2.3l-2.2 2.3 2.5 4.1h-2.1l-1.8-2.8-.7.9v1.9h-2zm8.8 6.6c.5.5 1.1.9 1.8.9.5 0 1.1-.2 1.1-.7 0-.2-.2-.4-.2-.4-.4-.2-.7-.2-1.1-.2-.4 0-.5-.2-.9-.2-.4-.2-.7-.4-1.1-.5-.4-.4-.5-.7-.5-1.2 0-1.1.9-2.1 2.7-2.1 1.6 0 2.5.7 2.9.9l-1.2 1.1c-.5-.5-1.2-.7-1.6-.7-.7 0-.9.4-.9.5 0 .4.4.4 1.1.5 1.2.2 2.9.5 2.9 2.1 0 1.4-1.6 2.3-3 2.3-1.8 0-2.7-.9-3-1.2l1-1.1zm6.7 0h2v2.1h-2z" />
  <path class="btg-logo-image" d="M150.9 82.1H146v45.5c0 3.7-1.5 6.5-3.9 9s-5.7 3.9-9.3 3.9h-7.9l-7.1 12.5-17-12.5h-99v6.1h96.7l21.1 15.5 8.8-15.5h4.2c10.8 0 19.4-8.2 19.4-19.1V82.1h-1.1z" />
</svg>