<svg xmlns="http://www.w3.org/2000/svg" viewBox="0 0 299 227">
    <style>
        .st0{fill:#0c4f75}.st1{fill:#fff}
    </style>
    <path d="M77.4 26.5h9.4v-2.7l-2.4-.5V17h7.9v-3.5h-7.9V7.3h7.4L92 10h3.5V3.8H77.4v2.7l2.4.5v16.3l-2.4.5v2.7zM105.4 3.8h-6.9v2.7l2.4.5v11.8c0 2.5.8 4.5 2.5 5.9 1.7 1.4 3.9 2.1 6.6 2.1 2.7 0 4.9-.7 6.6-2.1 1.7-1.4 2.5-3.3 2.5-5.9V7l2.4-.5V3.8h-9.4v2.7l2.4.5v11.8c0 1.5-.4 2.6-1.2 3.4-.8.7-1.9 1.1-3.3 1.1s-2.5-.4-3.3-1.1c-.8-.7-1.2-1.9-1.2-3.4V7l2.4-.5V3.8h-2.5zM139.1 13h-7.7V7.3h7.3l.2 2.7h3.5V3.8h-17.9v2.7l2.4.5v16.3l-2.4.5v2.7h17.9v-6.2h-3.5l-.2 2.7h-7.3v-6.5h7.7V13zM163.4 26.5v-6.3H160l-.2 2.9h-6.4V7l2.4-.5V3.8h-9.3v2.7l2.4.5v16.3l-2.4.5v2.7h16.9zM169.1 7v16.3l-2.4.5v2.7h9.4v-2.7l-2.4-.5V7l2.4-.5V3.8h-9.4v2.7l2.4.5zM200.1 3.8h-7v2.7l2.4.5v12h-.1l-9.2-15.3h-6.9v2.7l2.4.5v16.3l-2.4.5v2.7h9.4v-2.7l-2.4-.5v-12h.1l9.2 15.3h4.5V7l2.4-.5V3.8h-2.4zM224.4 15.2h-7.8v3.2l3.2.2v3.8c-.3.2-.8.4-1.3.5-.6.2-1.3.2-2.2.2-2 0-3.6-.7-4.7-2.1-1.1-1.4-1.6-3.2-1.6-5.5v-.8c0-2.4.6-4.3 1.7-5.7 1.1-1.5 2.6-2.2 4.6-2.2.9 0 1.7.1 2.3.3.7.2 1.2.5 1.6.8l.6 3h3.4V6.6c-1-1-2.2-1.7-3.7-2.3-1.5-.6-3.1-.8-4.9-.8-3.1 0-5.5 1.1-7.4 3.2-1.9 2.1-2.8 4.9-2.8 8.3v.8c0 3.3 1 5.9 2.9 8 1.9 2.1 4.4 3.1 7.5 3.1 2.2 0 3.9-.3 5.4-.9 1.4-.6 2.5-1.2 3.2-2v-8.8zM18.6 42.5v19l-2.9.5v3.2h10.9V62l-2.8-.5v-19l2.8-.5v-3.2H15.7V42l2.9.5zM55.5 57.3v4.2l-2.8.5v3.2h10.9V62l-2.8-.5v-19l2.8-.5v-3.2h-9.8L47 58.3l-6.7-19.5h-9.7V42l2.8.5v19l-2.9.5v3.2h10.9V62l-2.8-.5v-4.2l-.5-11.6h.1l7 19.5h3.6l7.1-19.6h.1l-.5 11.7zM67.1 65.2h9V62l-1.8-.3 1.2-3.6H84l1.2 3.6-1.8.3v3.2h9V62l-1.9-.3-8-23h-5.4l-8 23-2 .3v3.2zm12.6-20.3h.1l3 9.3h-6.1l3-9.3zM116.8 52.1h-9.1v3.7l3.8.3v4.5c-.4.2-.9.5-1.6.6-.7.2-1.5.3-2.6.3-2.4 0-4.2-.8-5.4-2.4-1.3-1.6-1.9-3.7-1.9-6.4v-.9c0-2.8.6-5 1.9-6.7 1.3-1.7 3.1-2.6 5.4-2.6 1 0 1.9.1 2.7.4.8.2 1.4.6 1.9 1l.7 3.5h3.9v-5.3c-1.1-1.1-2.6-2-4.3-2.7-1.7-.7-3.6-1-5.7-1-3.6 0-6.4 1.2-8.6 3.7-2.2 2.5-3.3 5.7-3.3 9.7v.9c0 3.8 1.1 6.9 3.4 9.3 2.2 2.4 5.1 3.6 8.7 3.6 2.5 0 4.6-.3 6.2-1 1.6-.7 2.9-1.4 3.8-2.3V52.1zM124.1 42.5v19l-2.8.5v3.2h10.9V62l-2.8-.5v-19l2.8-.5v-3.2h-10.9V42l2.8.5zM160.3 38.8h-8.1V42l2.8.5v14h-.1l-10.7-17.8h-8.1V42l2.8.5v19l-2.8.5v3.2H147V62l-2.8-.5v-14h.1L155 65.2h5.3V42.5l2.8-.5v-3.2h-2.8zM164.1 65.2h9V62l-1.8-.3 1.2-3.6h8.6l1.2 3.6-1.8.3v3.2h9V62l-1.9-.3-8-23H174l-8 23-1.9.3v3.2zm12.5-20.3h.1l3 9.3h-6.1l3-9.3zM189.9 38.8v7h4l.2-3h4.8v18.6l-2.8.5v3.2h11V62l-2.8-.5V42.9h4.9l.2 3h4.1v-7h-23.6zM219.8 42.5v19l-2.8.5v3.2h10.9V62l-2.8-.5v-19l2.8-.5v-3.2H217V42l2.8.5zM256 51.8c0-3.8-1.1-7-3.3-9.6-2.2-2.5-5.1-3.8-8.7-3.8-3.6 0-6.4 1.3-8.6 3.8-2.2 2.5-3.3 5.7-3.3 9.6v.4c0 3.9 1.1 7.1 3.3 9.6 2.2 2.5 5.1 3.8 8.6 3.8 3.6 0 6.5-1.3 8.7-3.8 2.2-2.5 3.3-5.7 3.3-9.6v-.4zm-5.3.4c0 2.8-.6 5-1.7 6.7-1.1 1.7-2.8 2.5-5 2.5s-3.9-.8-5-2.5-1.7-3.9-1.7-6.7v-.4c0-2.8.5-5 1.6-6.7 1.1-1.7 2.8-2.5 5-2.5s3.9.9 5 2.6c1.1 1.7 1.7 3.9 1.7 6.7v.3zM284.1 38.8H276V42l2.8.5v14h-.1L268 38.7h-8V42l2.8.5v19l-2.8.5v3.2h10.9V62l-2.8-.5v-14h.1l10.7 17.8h5.3V42.5l2.8-.5v-3.2h-2.9z" class="st0"/>
    <path d="M25.7 188.5h-3.9v1.6l1.6.1v1.9c-.2.1-.4.2-.7.3-.3.1-.7.1-1.1.1-1 0-1.8-.3-2.3-1-.5-.7-.8-1.6-.8-2.8v-.4c0-1.2.3-2.1.8-2.9.6-.7 1.3-1.1 2.3-1.1.4 0 .8.1 1.2.2.3.1.6.2.8.4l.3 1.5h1.7v-2.3c-.5-.5-1.1-.9-1.8-1.2-.7-.3-1.6-.4-2.4-.4-1.5 0-2.8.5-3.7 1.6-1 1.1-1.4 2.5-1.4 4.2v.4c0 1.6.5 3 1.4 4 1 1 2.2 1.5 3.8 1.5 1.1 0 2-.1 2.7-.4.7-.3 1.2-.6 1.6-1v-4.3zM38 188.3c0-1.7-.5-3-1.4-4.1-1-1.1-2.2-1.6-3.7-1.6s-2.8.5-3.7 1.6c-.9 1.1-1.4 2.5-1.4 4.1v.2c0 1.7.5 3 1.4 4.1.9 1.1 2.2 1.6 3.7 1.6s2.8-.5 3.7-1.6c1-1.1 1.4-2.5 1.4-4.1v-.2zm-2.2.2c0 1.2-.2 2.2-.7 2.9-.5.7-1.2 1.1-2.2 1.1-1 0-1.7-.4-2.1-1.1-.5-.7-.7-1.7-.7-2.9v-.2c0-1.2.2-2.1.7-2.9.5-.7 1.2-1.1 2.1-1.1 1 0 1.7.4 2.2 1.1.5.7.7 1.7.7 2.9v.2zM44.3 182.7v3H46l.1-1.3h2.1v8l-1.2.2v1.4h4.7v-1.4l-1.2-.2v-8h2.1l.1 1.3h1.8v-3H44.3zM66.2 188.3c0-1.7-.5-3-1.4-4.1-1-1.1-2.2-1.6-3.7-1.6s-2.8.5-3.7 1.6c-.9 1.1-1.4 2.5-1.4 4.1v.2c0 1.7.5 3 1.4 4.1.9 1.1 2.2 1.6 3.7 1.6s2.8-.5 3.7-1.6c1-1.1 1.4-2.5 1.4-4.1v-.2zm-2.3.2c0 1.2-.2 2.2-.7 2.9-.5.7-1.2 1.1-2.2 1.1-1 0-1.7-.4-2.1-1.1-.5-.7-.7-1.7-.7-2.9v-.2c0-1.2.2-2.1.7-2.9.5-.7 1.2-1.1 2.1-1.1 1 0 1.7.4 2.2 1.1.5.7.7 1.7.7 2.9v.2zM72.6 194.1h4.6v-1.4l-1.2-.2v-3.1h1.3l2.2 3.3-.7.1v1.4h4.5v-1.4l-1.1-.2-3.1-4.5 2.8-3.7 1.2-.2v-1.4h-4.5v1.4l.7.1-2.2 3.2h-1v-3l1.2-.2v-1.4h-4.6v1.4l1.2.2v8.2l-1.2.2v1.2zM89 182.7h-4.3v1.4l1 .2 3 5.7v2.5l-1.2.2v1.4h4.7v-1.4l-1.2-.2v-2.4l3.1-5.8 1-.2v-1.4h-4.3v1.4l.9.1-1.8 3.7-1.8-3.7.9-.1v-1.4zM105.2 194.1v-3.2h-1.7l-.1 1.4h-3.2v-8l1.2-.2v-1.4h-4.7v1.4l1.2.2v8.2l-1.2.2v1.4h8.5zM117 188.3c0-1.7-.5-3-1.4-4.1-1-1.1-2.2-1.6-3.7-1.6s-2.8.5-3.7 1.6c-.9 1.1-1.4 2.5-1.4 4.1v.2c0 1.7.5 3 1.4 4.1.9 1.1 2.2 1.6 3.7 1.6s2.8-.5 3.7-1.6c1-1.1 1.4-2.5 1.4-4.1v-.2zm-2.3.2c0 1.2-.2 2.2-.7 2.9-.5.7-1.2 1.1-2.2 1.1-1 0-1.7-.4-2.1-1.1-.5-.7-.7-1.7-.7-2.9v-.2c0-1.2.2-2.1.7-2.9.5-.7 1.2-1.1 2.1-1.1 1 0 1.7.4 2.2 1.1.5.7.7 1.7.7 2.9v.2zM118.4 182.7v3h1.7l.1-1.3h2.1v8l-1.2.2v1.4h4.7v-1.4l-1.2-.2v-8h2.1l.1 1.3h1.7v-3h-10.1zM130 182.7v3h1.7l.1-1.3h2.1v8l-1.2.2v1.4h4.7v-1.4l-1.2-.2v-8h2.1l.1 1.3h1.8v-3H130zM149.1 187.3h-3.9v-2.9h3.6l.1 1.4h1.8v-3.1h-9v1.4l1.2.2v8.2l-1.2.2v1.4h9V191H149l-.1 1.4h-3.7v-3.2h3.9v-1.9zM154 182.7h-1.2v1.4l1.2.2v8.2l-1.2.2v1.4h4.7v-1.4l-1.2-.2v-3h1.9c.5 0 1 .2 1.2.5.3.3.4.7.4 1.3v.6c0 .6.2 1.2.5 1.6.3.4.8.6 1.6.6h1.2v-1.4h-.3c-.2 0-.4-.1-.5-.2-.1-.1-.1-.3-.1-.6v-.6c0-.7-.1-1.3-.4-1.7-.3-.5-.8-.8-1.4-1 .6-.3 1-.6 1.4-1 .3-.4.5-.9.5-1.5 0-1-.4-1.9-1.1-2.4-.7-.6-1.7-.9-3-.9H154zm2.2 1.8h1.6c.6 0 1.1.2 1.4.5s.5.7.5 1.2-.2.9-.5 1.2c-.3.3-.8.4-1.4.4h-1.6v-3.3zM167.9 182.7h-4.3v1.4l1 .2 3 5.7v2.5l-1.2.2v1.4h4.7v-1.4l-1.2-.2v-2.4l3.1-5.8 1-.2v-1.4h-4.3v1.4l.9.1-1.8 3.7-1.8-3.7.9-.1v-1.4zM176.5 192.1h-2.3v2h2.3v-2zM187.9 184.3c-.5-.5-1-.9-1.8-1.3-.7-.3-1.5-.5-2.4-.5-1.5 0-2.8.5-3.8 1.6s-1.5 2.4-1.5 4.1v.4c0 1.7.5 3 1.5 4.1 1 1.1 2.2 1.6 3.8 1.6.9 0 1.7-.2 2.4-.5s1.3-.7 1.8-1.3v-2.2h-1.7l-.2 1.5c-.2.2-.5.4-.9.5-.4.1-.8.2-1.2.2-1 0-1.7-.4-2.2-1.1-.5-.7-.8-1.7-.8-2.8v-.4c0-1.2.3-2.1.8-2.8.5-.7 1.3-1.1 2.3-1.1.5 0 .9.1 1.2.2.3.1.6.3.8.5l.2 1.5h1.7v-2.2zM200.1 188.3c0-1.7-.5-3-1.4-4.1-1-1.1-2.2-1.6-3.7-1.6s-2.8.5-3.7 1.6c-.9 1.1-1.4 2.5-1.4 4.1v.2c0 1.7.5 3 1.4 4.1.9 1.1 2.2 1.6 3.7 1.6s2.8-.5 3.7-1.6c1-1.1 1.4-2.5 1.4-4.1v-.2zm-2.3.2c0 1.2-.2 2.2-.7 2.9-.5.7-1.2 1.1-2.2 1.1-1 0-1.7-.4-2.1-1.1-.5-.7-.7-1.7-.7-2.9v-.2c0-1.2.2-2.1.7-2.9.5-.7 1.2-1.1 2.1-1.1 1 0 1.7.4 2.2 1.1.5.7.7 1.7.7 2.9v.2zM212.6 190.7v1.8l-1.2.2v1.4h4.7v-1.4l-1.2-.2v-8.2l1.2-.2v-1.4h-4.2l-2.9 8.4-2.9-8.4h-4.2v1.4l1.2.2v8.2l-1.2.2v1.4h4.7v-1.4l-1.2-.2v-1.8l-.2-5 3 8.4h1.5l3-8.4-.1 5zM222.9 182.7h-1.7l-4.2 12.4h1.7l4.2-12.4zM225.6 182.7h-1.2v1.4l1.2.2v8.2l-1.2.2v1.4h4.7v-1.4l-1.2-.2V190h1.9c1.3 0 2.3-.3 3.1-1 .8-.7 1.1-1.5 1.1-2.6s-.4-2-1.1-2.6c-.8-.7-1.8-1-3.1-1h-4.2zm2.2 1.8h1.9c.6 0 1.1.2 1.4.5.3.4.5.8.5 1.4 0 .5-.2 1-.5 1.3-.3.3-.8.5-1.4.5h-1.9v-3.7zM245.9 188.3c0-1.7-.5-3-1.4-4.1-1-1.1-2.2-1.6-3.7-1.6s-2.8.5-3.7 1.6c-.9 1.1-1.4 2.5-1.4 4.1v.2c0 1.7.5 3 1.4 4.1.9 1.1 2.2 1.6 3.7 1.6s2.8-.5 3.7-1.6c1-1.1 1.4-2.5 1.4-4.1v-.2zm-2.3.2c0 1.2-.2 2.2-.7 2.9-.5.7-1.2 1.1-2.2 1.1-1 0-1.7-.4-2.1-1.1-.5-.7-.7-1.7-.7-2.9v-.2c0-1.2.2-2.1.7-2.9.5-.7 1.2-1.1 2.1-1.1 1 0 1.7.4 2.2 1.1.5.7.7 1.7.7 2.9v.2zM258.4 190.7v1.8l-1.2.2v1.4h4.7v-1.4l-1.2-.2v-8.2l1.2-.2v-1.4h-4.2l-2.9 8.4-2.9-8.4h-4.2v1.4l1.2.2v8.2l-1.2.2v1.4h4.7v-1.4l-1.2-.2v-1.8l-.2-5 3 8.4h1.5l3-8.4-.1 5zM264.7 182.7h-1.2v1.4l1.2.2v8.2l-1.2.2v1.4h4.7v-1.4l-1.2-.2V190h1.9c1.3 0 2.3-.3 3.1-1 .8-.7 1.1-1.5 1.1-2.6s-.4-2-1.1-2.6c-.8-.7-1.8-1-3.1-1h-4.2zm2.3 1.8h1.9c.6 0 1.1.2 1.4.5.3.4.5.8.5 1.4 0 .5-.2 1-.5 1.3-.3.3-.8.5-1.4.5H267v-3.7zM69.5 210.4v3h1.7l.1-1.3h2.1v8l-1.2.2v1.4h4.7v-1.4l-1.2-.2v-8h2.1l.1 1.3h1.8v-3H69.5zM91.3 216c0-1.7-.5-3-1.4-4.1-1-1.1-2.2-1.6-3.7-1.6s-2.8.5-3.7 1.6c-.9 1.1-1.4 2.5-1.4 4.1v.2c0 1.7.5 3 1.4 4.1.9 1.1 2.2 1.6 3.7 1.6s2.8-.5 3.7-1.6c1-1.1 1.4-2.5 1.4-4.1v-.2zm-2.3.2c0 1.2-.2 2.2-.7 2.9-.5.7-1.2 1.1-2.2 1.1-1 0-1.7-.4-2.1-1.1-.5-.7-.7-1.7-.7-2.9v-.2c0-1.2.2-2.1.7-2.9.5-.7 1.2-1.1 2.1-1.1 1 0 1.7.4 2.2 1.1.5.7.7 1.7.7 2.9v.2zM111 221.8v-3.2h-1.7l-.1 1.4H106v-8l1.2-.2v-1.4h-4.7v1.4l1.2.2v8.2l-1.2.2v1.4h8.5zM120 215h-3.9v-2.9h3.6l.1 1.4h1.8v-3.1h-9v1.4l1.2.2v8.2l-1.2.2v1.4h9v-3.1h-1.7l-.1 1.4h-3.7v-3.2h3.9V215zM123.5 221.8h3.9v-1.4l-.8-.1.5-1.6h3.7l.5 1.6-.8.1v1.4h3.9v-1.4l-.8-.1-3.4-9.9h-2.3l-3.5 9.9-.8.1v1.4zm5.5-8.8l1.3 4h-2.6l1.3-4zM137.2 210.4H136v1.4l1.2.2v8.2l-1.2.2v1.4h4.7v-1.4l-1.2-.2v-3h1.9c.5 0 1 .2 1.2.5.3.3.4.7.4 1.3v.6c0 .6.2 1.2.5 1.6.3.4.8.6 1.6.6h1.2v-1.4h-.3c-.2 0-.4-.1-.5-.2-.1-.1-.1-.3-.1-.6v-.6c0-.7-.1-1.3-.4-1.7-.3-.5-.8-.8-1.4-1 .6-.3 1-.6 1.4-1 .3-.4.5-.9.5-1.5 0-1-.4-1.9-1.1-2.4-.7-.6-1.7-.9-3-.9h-4.2zm2.2 1.8h1.6c.6 0 1.1.2 1.4.5.3.3.5.7.5 1.2s-.2.9-.5 1.2c-.3.3-.8.4-1.4.4h-1.6v-3.3zM158.2 210.4h-3.5v1.4l1.2.2v6l-4.6-7.7h-3.5v1.4l1.2.2v8.2l-1.2.2v1.4h4.7v-1.4l-1.2-.2v-6l4.6 7.7h2.3V212l1.2-.2v-1.4h-1.2zM176.4 218.4v1.8l-1.2.2v1.4h4.7v-1.4l-1.2-.2V212l1.2-.2v-1.4h-4.2l-2.9 8.4-2.9-8.4h-4.2v1.4l1.2.2v8.2l-1.2.2v1.4h4.7v-1.4l-1.2-.2v-1.8l-.2-5 3 8.4h1.5l3-8.4-.1 5zM191.9 216c0-1.7-.5-3-1.4-4.1-1-1.1-2.2-1.6-3.7-1.6s-2.8.5-3.7 1.6c-.9 1.1-1.4 2.5-1.4 4.1v.2c0 1.7.5 3 1.4 4.1.9 1.1 2.2 1.6 3.7 1.6s2.8-.5 3.7-1.6c1-1.1 1.4-2.5 1.4-4.1v-.2zm-2.3.2c0 1.2-.2 2.2-.7 2.9-.5.7-1.2 1.1-2.2 1.1-1 0-1.7-.4-2.1-1.1-.5-.7-.7-1.7-.7-2.9v-.2c0-1.2.2-2.1.7-2.9.5-.7 1.2-1.1 2.1-1.1 1 0 1.7.4 2.2 1.1.5.7.7 1.7.7 2.9v.2zM194.8 210.4h-1.2v1.4l1.2.2v8.2l-1.2.2v1.4h4.7v-1.4l-1.2-.2v-3h1.9c.5 0 1 .2 1.2.5.3.3.4.7.4 1.3v.6c0 .6.2 1.2.5 1.6.3.4.8.6 1.6.6h1.2v-1.4h-.3c-.2 0-.4-.1-.5-.2-.1-.1-.1-.3-.1-.6v-.6c0-.7-.1-1.3-.4-1.7-.3-.5-.8-.8-1.4-1 .6-.3 1-.6 1.4-1 .3-.4.5-.9.5-1.5 0-1-.4-1.9-1.1-2.4-.7-.6-1.7-.9-3-.9h-4.2zm2.3 1.8h1.6c.6 0 1.1.2 1.4.5.3.3.5.7.5 1.2s-.2.9-.5 1.2c-.3.3-.8.4-1.4.4h-1.6v-3.3zM212.8 215h-3.9v-2.9h3.6l.1 1.4h1.8v-3.1h-9v1.4l1.2.2v8.2l-1.2.2v1.4h9v-3.1h-1.7l-.1 1.4h-3.7v-3.2h3.9V215zM219.3 219.8H217v2h2.3v-2z" class="st1"/>
    <path d="M72.3 114.4h9.4v-2.7l-2.4-.5V105h7.9v-3.5h-7.9v-6.2h7.4l.2 2.7h3.5v-6.2H72.3v2.7l2.4.5v16.3l-2.4.5v2.6zM100.3 91.7h-6.9v2.7l2.4.5v11.8c0 2.5.8 4.5 2.5 5.9 1.7 1.4 3.9 2.1 6.6 2.1 2.7 0 4.9-.7 6.6-2.1 1.7-1.4 2.5-3.3 2.5-5.9V95l2.4-.5v-2.7H107v2.7l2.4.5v11.8c0 1.5-.4 2.6-1.2 3.4-.8.7-1.9 1.1-3.3 1.1s-2.5-.4-3.3-1.1c-.8-.7-1.2-1.9-1.2-3.4V95l2.4-.5v-2.7h-2.5zM140.1 91.7h-7v2.7l2.4.5v12h-.1l-9.2-15.3h-6.9v2.7l2.4.5v16.3l-2.4.5v2.7h9.4v-2.7l-2.4-.5V99.2h.1l9.2 15.3h4.5V95l2.4-.5v-2.7h-2.4zM148 91.7h-2.4v2.7l2.4.6v16.3l-2.4.5v2.7h10.2c2.8 0 5.1-.9 6.9-2.6 1.8-1.8 2.7-4 2.7-6.8v-3.8c0-2.8-.9-5-2.7-6.8-1.8-1.8-4.1-2.7-6.9-2.7H148zm7.5 3.6c1.6 0 2.9.6 3.8 1.7.9 1.1 1.4 2.5 1.4 4.3v3.8c0 1.8-.5 3.2-1.4 4.3-.9 1.1-2.2 1.7-3.8 1.7h-3V95.3h3zM171.6 95v16.3l-2.4.5v2.7h9.4v-2.7l-2.4-.5V95l2.4-.5v-2.7h-9.4v2.7l2.4.5zM202.6 91.7h-7v2.7l2.4.5v12h-.1l-9.2-15.3h-6.9v2.7l2.4.5v16.3l-2.4.5v2.7h9.4v-2.7l-2.4-.5V99.2h.1l9.2 15.3h4.5V95l2.4-.5v-2.7h-2.4zM226.9 103.2h-7.8v3.2l3.2.2v3.8c-.3.2-.8.4-1.3.5-.6.2-1.3.2-2.2.2-2 0-3.6-.7-4.7-2.1-1.1-1.4-1.6-3.2-1.6-5.5v-.8c0-2.4.6-4.3 1.7-5.7 1.1-1.5 2.6-2.2 4.6-2.2.9 0 1.7.1 2.3.3.7.2 1.2.5 1.6.8l.6 3h3.4v-4.6c-1-1-2.2-1.7-3.7-2.3-1.5-.6-3.1-.8-4.9-.8-3.1 0-5.5 1.1-7.4 3.2-1.9 2.1-2.8 4.9-2.8 8.3v.8c0 3.3 1 5.9 2.9 8 1.9 2.1 4.4 3.1 7.5 3.1 2.2 0 3.9-.3 5.4-.9 1.4-.6 2.5-1.2 3.2-2v-8.5zM51.3 137.5h-8.9v-6.6h8.5l.2 3.2h4.1v-7.2H34.3v3.2l2.8.5v19l-2.8.5v3.2h20.9V146h-4l-.2 3.2h-8.5v-7.5h8.9v-4.2zM62.7 126.8h-2.8v3.2l2.8.5v19l-2.8.5v3.2h11.9c3.2 0 5.9-1 8-3.1 2.1-2.1 3.1-4.7 3.1-7.9v-4.4c0-3.2-1-5.9-3.1-7.9-2.1-2.1-4.8-3.1-8-3.1h-9.1zm8.8 4c1.9 0 3.4.6 4.5 1.9 1.1 1.3 1.6 2.9 1.6 5v4.4c0 2.1-.5 3.7-1.6 5-1.1 1.3-2.6 1.9-4.5 1.9H68v-18.3h3.5zM95.1 126.8H87v3.2l2.8.5v13.8c0 3 1 5.3 2.9 6.9 1.9 1.6 4.5 2.4 7.6 2.4 3.2 0 5.7-.8 7.7-2.4 2-1.6 2.9-3.9 2.9-6.9v-13.8l2.8-.5v-3.2h-10.9v3.2l2.8.5v13.8c0 1.8-.5 3.1-1.4 3.9-.9.9-2.2 1.3-3.9 1.3-1.6 0-2.9-.4-3.9-1.3-.9-.9-1.4-2.2-1.4-3.9v-13.8l2.8-.5v-3.2h-2.7zM138.9 130.4c-1.1-1.2-2.4-2.2-4.1-2.9-1.6-.7-3.5-1.1-5.5-1.1-3.6 0-6.5 1.2-8.7 3.7-2.3 2.5-3.4 5.6-3.4 9.5v.9c0 3.8 1.1 7 3.4 9.5s5.2 3.7 8.7 3.7c2 0 3.9-.4 5.5-1.1 1.7-.7 3-1.7 4.1-2.9v-5.2H135l-.5 3.5c-.5.5-1.1.9-2 1.2-.9.3-1.8.5-2.9.5-2.3 0-4-.8-5.2-2.5-1.2-1.7-1.9-3.9-1.9-6.6v-.9c0-2.7.6-4.9 1.9-6.5 1.2-1.7 3-2.5 5.3-2.5 1.1 0 2 .2 2.8.5.8.3 1.4.7 2 1.2l.5 3.5h3.9v-5.5zM142.9 153.2h9V150l-1.8-.3 1.2-3.6h8.6l1.2 3.6-1.8.3v3.2h9V150l-1.9-.3-8-23H153l-8 23-1.9.3v3.2zm12.6-20.4h.1l3 9.3h-6.1l3-9.3zM168.7 126.8v7h4l.2-3h4.8v18.6l-2.7.6v3.2h11V150l-2.8-.5v-18.6h4.9l.2 3h4.1v-7h-23.7zM198.7 130.5v19l-2.8.5v3.2h10.9V150l-2.8-.5v-19l2.8-.5v-3.2h-10.9v3.2l2.8.5zM234.8 139.8c0-3.8-1.1-7-3.3-9.6-2.2-2.5-5.1-3.8-8.7-3.8-3.6 0-6.4 1.3-8.6 3.8-2.2 2.5-3.3 5.7-3.3 9.6v.4c0 3.9 1.1 7.1 3.3 9.6 2.2 2.5 5.1 3.8 8.6 3.8 3.6 0 6.5-1.3 8.7-3.8 2.2-2.5 3.3-5.7 3.3-9.6v-.4zm-5.2.4c0 2.8-.6 5-1.7 6.7-1.1 1.7-2.8 2.5-5 2.5s-3.9-.8-5-2.5-1.7-3.9-1.7-6.7v-.4c0-2.8.5-5 1.6-6.7 1.1-1.7 2.8-2.5 5-2.5s3.9.9 5 2.6c1.1 1.7 1.7 3.9 1.7 6.7v.3zM263 126.8h-8.1v3.2l2.8.5v14h-.1l-10.7-17.8h-8.1v3.2l2.8.5v19l-2.8.5v3.2h10.9V150l-2.8-.5v-14h.1l10.7 17.8h5.3v-22.7l2.8-.5v-3.2H263z" class="st0"/>
</svg>
