<svg xmlns="http://www.w3.org/2000/svg" viewBox="0 0 299 154">
    <style>
        .st0{fill:#0c4f75}
    </style>
    <path d="M90.2 20.9h6.6v-2.3l-1.3-.2.8-2.7h6.3l.8 2.7-1.3.2v2.3h6.6v-2.3l-1.4-.2-5.8-16.8h-4l-5.9 16.8-1.4.2v2.3zM99.4 6l2.3 6.8h-4.4L99.4 6zM125.8 20.9v-5.4h-3l-.2 2.4h-5.5V4.3l2.1-.4V1.6h-8.1v2.3l2.1.4v13.9l-2.1.4v2.3h14.7zM146.9 15.1v3l-2.1.4v2.3h8v-2.3l-2.1-.4V4.3l2.1-.4V1.6h-7.1l-5 14.2h-.1l-4.9-14.2H128.5v2.3l2.1.4v13.9l-2.1.4v2.3h8v-2.3l-2.1-.4v-3l-.4-8.5h.1l5.1 14.2h2.6L147 6.6h.1l-.2 8.5zM173.2 11.1c0-2.8-.8-5.1-2.4-7-1.6-1.9-3.7-2.8-6.4-2.8-2.6 0-4.7.9-6.3 2.8-1.6 1.9-2.4 4.2-2.4 7v.3c0 2.8.8 5.2 2.4 7 1.6 1.8 3.7 2.8 6.3 2.8 2.6 0 4.7-.9 6.4-2.8 1.6-1.8 2.4-4.2 2.4-7v-.3zm-3.9.3c0 2-.4 3.7-1.2 4.9-.8 1.2-2.1 1.9-3.7 1.9s-2.8-.6-3.6-1.9c-.8-1.2-1.2-2.9-1.2-4.9v-.3c0-2 .4-3.6 1.2-4.9.8-1.2 2-1.9 3.6-1.9s2.9.6 3.7 1.9c.8 1.2 1.2 2.9 1.2 4.9v.3zM190.8 3.8c-.8-.8-1.9-1.4-3.1-1.8s-2.6-.7-4.1-.7c-2 0-3.7.5-5 1.5-1.3 1-2 2.3-2 3.8 0 1.6.6 2.8 1.8 3.7 1.2.9 2.9 1.7 5.2 2.4 1.3.4 2.2.8 2.8 1.3.5.5.8 1 .8 1.8 0 .7-.3 1.3-.8 1.7-.6.4-1.4.6-2.4.6-.8 0-1.6-.1-2.2-.3-.7-.2-1.2-.5-1.6-.8l-.4-2.7h-3v4c.8.9 1.9 1.5 3.1 2 1.2.5 2.6.7 4.1.7 2.1 0 3.9-.5 5.2-1.4 1.3-1 2-2.3 2-3.9s-.6-2.9-1.7-3.8c-1.1-1-2.7-1.8-4.8-2.3-1.5-.5-2.5-.9-3.1-1.3-.6-.4-.9-1-.9-1.6 0-.7.3-1.3.9-1.7.6-.4 1.4-.7 2.5-.7.7 0 1.4.1 2.1.2.6.2 1.1.3 1.5.6l.5 2.7h2.9v-4zM193.7 1.6v5.1h3l.2-2.2h3.5v13.6l-2.1.4v2.3h8v-2.3l-2.1-.4V4.6h3.6l.2 2.2h3V1.6h-17.3zM20.7 54.9c-.4.4-1.1.7-1.9.7-.8 0-1.5-.3-2.1-.8-.6-.5-.8-1.4-.8-2.6h-3.8v.1c0 2 .5 3.5 1.6 4.5s2.5 1.6 4.2 1.8v2.6H20v-2.7c1.6-.2 2.9-.7 3.9-1.7 1-.9 1.4-2.2 1.4-3.7 0-1.6-.5-2.8-1.4-3.7-1-.9-2.4-1.7-4.4-2.5-1.1-.4-1.8-.8-2.2-1.3-.4-.4-.6-1-.6-1.7s.2-1.3.6-1.8c.4-.4 1-.7 1.7-.7s1.3.3 1.8.9c.4.6.7 1.4.7 2.4h3.8v-.1c0-1.7-.4-3.1-1.3-4.2s-2.1-1.7-3.7-2v-2.9h-2.1v2.9c-1.6.2-2.9.7-3.9 1.7s-1.4 2.2-1.4 3.7c0 1.6.5 2.9 1.4 3.8 1 .9 2.4 1.7 4.4 2.4 1 .4 1.7.8 2.1 1.3.4.5.6 1 .6 1.8-.1.8-.3 1.4-.7 1.8zM36.9 57.3h4c1.8 0 3.2.4 4.2 1.3.9.9 1.4 2.3 1.4 4.2 0 1.6-.5 2.8-1.4 3.7-1 .9-2.3 1.4-3.9 1.4-1.5 0-2.8-.4-3.7-1.3-1-.9-1.5-2-1.5-3.4h-7v.1c-.1 3.2 1.1 5.7 3.5 7.5 2.4 1.8 5.3 2.6 8.6 2.6 3.7 0 6.8-.9 9.2-2.8 2.4-1.9 3.6-4.5 3.6-7.8 0-1.9-.5-3.6-1.6-5.1-1-1.5-2.6-2.5-4.5-3.3 1.7-.8 3.1-1.9 4.1-3.3 1-1.4 1.5-2.9 1.5-4.4 0-3.3-1.1-5.8-3.3-7.6-2.2-1.8-5.2-2.7-8.9-2.7-3.3 0-6.1.9-8.4 2.7-2.3 1.8-3.3 4.1-3.2 7v.1h7c0-1.3.5-2.3 1.4-3.1.9-.8 2.1-1.2 3.4-1.2 1.6 0 2.8.4 3.6 1.3.8.9 1.2 2 1.2 3.5 0 1.6-.4 2.8-1.2 3.7-.8.9-2.1 1.3-3.8 1.3h-4v5.6zM77.6 37h-3.8v4.3l3.8.7v25.8l-3.8.7v4.3h17.6c4.2 0 7.4-.9 9.6-2.6 2.3-1.8 3.4-4.4 3.4-7.8 0-2-.5-3.7-1.6-5.3-1.1-1.5-2.7-2.5-4.8-3 1.7-.7 3-1.6 3.8-2.9.9-1.3 1.3-2.8 1.3-4.4 0-3.3-1.2-5.7-3.5-7.4-2.4-1.6-5.7-2.5-9.9-2.5H77.6zm14.3 20c1.8 0 3.2.5 4 1.4.9.9 1.3 2.3 1.3 4 0 1.6-.5 2.9-1.5 3.7-1 .8-2.5 1.2-4.4 1.2h-6.6V57h7.2zm-7.1-14.4h4.9c2.1 0 3.6.4 4.7 1.2 1 .8 1.6 2 1.6 3.7 0 1.5-.5 2.7-1.6 3.5-1 .8-2.5 1.2-4.4 1.2h-5.2v-9.6zM113.5 42.1v25.8l-3.8.7v4.3h14.9v-4.3l-3.8-.7V42.1l3.8-.7V37h-14.9v4.3l3.8.8zM156.7 72.9v-10h-5.5l-.3 4.5h-10.1V42.1l3.8-.7V37h-14.8v4.3l3.8.7v25.8l-3.8.7v4.3h26.9zM188.8 72.9v-10h-5.5l-.3 4.5h-10.1V42.1l3.8-.7V37h-14.8v4.3l3.8.7v25.8l-3.8.7v4.3h26.9zM197.8 42.1v25.8l-3.8.7v4.3h14.9v-4.3l-3.8-.7V42.1l3.8-.7V37H194v4.3l3.8.8zM246.9 54.7c0-5.2-1.5-9.6-4.5-13-3-3.5-7-5.2-11.8-5.2-4.8 0-8.8 1.7-11.7 5.2-3 3.5-4.5 7.8-4.5 13v.5c0 5.3 1.5 9.6 4.5 13 3 3.4 6.9 5.2 11.7 5.2 4.9 0 8.8-1.7 11.8-5.2 3-3.4 4.5-7.8 4.5-13v-.5zm-7.2.5c0 3.8-.8 6.8-2.3 9.1-1.5 2.3-3.8 3.5-6.9 3.5-3 0-5.3-1.2-6.8-3.5s-2.3-5.4-2.3-9.1v-.6c0-3.7.7-6.8 2.2-9.1 1.5-2.3 3.7-3.5 6.8-3.5 3 0 5.3 1.2 6.9 3.5 1.5 2.3 2.3 5.3 2.3 9v.7zM285.1 37h-11v4.3l3.8.7v19.1h-.1L263.3 37h-11v4.3l3.8.7v25.8l-3.8.7v4.3h14.9v-4.3l-3.8-.7v-19h.1L278 73h7.2V42.1l3.8-.7V37h-3.9zM14.8 93.1v5.1h3L18 96h3.5v13.6l-2.1.4v2.3h8V110l-2.1-.4V96.1h3.6l.2 2.2h3v-5.1H14.8zM51.9 102.6c0-2.8-.8-5.1-2.4-7-1.6-1.9-3.7-2.8-6.4-2.8-2.6 0-4.7.9-6.3 2.8-1.6 1.9-2.4 4.2-2.4 7v.3c0 2.8.8 5.2 2.4 7 1.6 1.8 3.7 2.8 6.3 2.8 2.6 0 4.7-.9 6.4-2.8 1.6-1.8 2.4-4.2 2.4-7v-.3zm-3.8.3c0 2-.4 3.7-1.2 4.9-.8 1.2-2.1 1.9-3.7 1.9s-2.8-.6-3.6-1.9c-.8-1.2-1.2-2.9-1.2-4.9v-.3c0-2 .4-3.6 1.2-4.9.8-1.2 2-1.9 3.6-1.9s2.9.6 3.7 1.9c.8 1.2 1.2 2.9 1.2 4.9v.3zM77.5 95.3c-.8-.8-1.9-1.4-3.1-1.8-1.2-.5-2.6-.7-4.1-.7-2 0-3.7.5-5 1.5-1.3 1-2 2.3-2 3.8 0 1.6.6 2.8 1.8 3.7 1.2.9 2.9 1.7 5.2 2.4 1.3.4 2.2.8 2.8 1.3.5.5.8 1 .8 1.8 0 .7-.3 1.3-.8 1.7-.6.4-1.4.6-2.4.6-.8 0-1.6-.1-2.2-.3-.7-.2-1.2-.5-1.6-.8l-.4-2.7h-3v4c.8.9 1.9 1.5 3.1 2 1.2.5 2.6.7 4.1.7 2.1 0 3.9-.5 5.2-1.4 1.3-1 2-2.3 2-3.9s-.6-2.9-1.7-3.8c-1.1-1-2.7-1.8-4.8-2.3-1.5-.5-2.5-.9-3.1-1.3-.6-.4-.9-1-.9-1.6 0-.7.3-1.3.9-1.7.6-.4 1.4-.7 2.5-.7.7 0 1.4.1 2.1.2.6.2 1.1.3 1.5.6l.5 2.7h2.9v-4zM96.5 95.8c-.8-.9-1.8-1.6-3-2.2-1.2-.5-2.6-.8-4-.8-2.6 0-4.7.9-6.4 2.7-1.6 1.8-2.5 4.1-2.5 6.9v.7c0 2.8.8 5.1 2.5 6.9 1.7 1.8 3.8 2.7 6.4 2.7 1.5 0 2.8-.3 4.1-.8 1.2-.5 2.2-1.3 3-2.2v-3.8h-2.9l-.4 2.6c-.3.4-.8.7-1.5.9-.6.2-1.3.3-2.1.3-1.6 0-2.9-.6-3.8-1.8-.9-1.2-1.4-2.8-1.4-4.8v-.7c0-2 .5-3.6 1.4-4.8.9-1.2 2.2-1.8 3.9-1.8.8 0 1.5.1 2 .3.6.2 1.1.5 1.4.9l.4 2.6h2.9v-3.8zM101.7 95.8v13.9l-2.1.4v2.3h8v-2.3l-2.1-.4v-5.3h7.9v5.3l-2.1.4v2.3h8v-2.3l-2.1-.4V95.8l2.1-.4v-2.3h-8.1v2.3l2.1.4v5.6h-7.9v-5.6l2.1-.4v-2.3h-8v2.3l2.2.4zM139.9 102.6c0-2.8-.8-5.1-2.4-7-1.6-1.9-3.7-2.8-6.4-2.8-2.6 0-4.7.9-6.3 2.8-1.6 1.9-2.4 4.2-2.4 7v.3c0 2.8.8 5.2 2.4 7 1.6 1.8 3.7 2.8 6.3 2.8 2.6 0 4.7-.9 6.4-2.8 1.6-1.8 2.4-4.2 2.4-7v-.3zm-3.9.3c0 2-.4 3.7-1.2 4.9-.8 1.2-2.1 1.9-3.7 1.9s-2.8-.6-3.6-1.9c-.8-1.2-1.2-2.9-1.2-4.9v-.3c0-2 .4-3.6 1.2-4.9.8-1.2 2-1.9 3.6-1.9s2.9.6 3.7 1.9c.8 1.2 1.2 2.9 1.2 4.9v.3zM157.3 112.4V107h-3l-.2 2.4h-5.5V95.8l2.1-.4v-2.3h-8.1v2.3l2.1.4v13.9l-2.1.4v2.3h14.7zM159.9 112.4h6.6v-2.3l-1.3-.2.8-2.7h6.3l.8 2.7-1.3.2v2.3h6.6v-2.3l-1.4-.2-5.8-16.8h-4l-5.9 16.8-1.4.2v2.3zm9.2-14.9l2.3 6.8H167l2.1-6.8zM183 93.1h-2.1v2.3l2.1.4v13.9l-2.1.4v2.3h8v-2.3l-2.1-.4v-5.1h3.2c.9 0 1.6.3 2.1.8s.7 1.3.7 2.2v1.1c0 1.1.3 2 .8 2.6.5.7 1.4 1 2.7 1h2V110l-.5-.1c-.4 0-.7-.2-.8-.4-.2-.2-.3-.6-.3-1v-1c0-1.2-.2-2.1-.7-2.9-.5-.8-1.3-1.3-2.5-1.7 1-.4 1.8-1 2.3-1.7.5-.7.8-1.6.8-2.5 0-1.8-.6-3.2-1.9-4.2-1.2-1-3-1.5-5.2-1.5H183zm3.9 3h2.7c1 0 1.8.3 2.4.8.5.5.8 1.2.8 2.1 0 .9-.3 1.5-.8 2s-1.3.7-2.4.7h-2.7v-5.6zM215.7 95.3c-.8-.8-1.9-1.4-3.1-1.8-1.2-.5-2.6-.7-4.1-.7-2 0-3.7.5-5 1.5-1.3 1-2 2.3-2 3.8 0 1.6.6 2.8 1.8 3.7 1.2.9 2.9 1.7 5.2 2.4 1.3.4 2.2.8 2.8 1.3.5.5.8 1 .8 1.8 0 .7-.3 1.3-.8 1.7-.6.4-1.4.6-2.4.6-.8 0-1.6-.1-2.2-.3-.7-.2-1.2-.5-1.6-.8l-.4-2.7h-3v4c.8.9 1.9 1.5 3.1 2 1.2.5 2.6.7 4.1.7 2.1 0 3.9-.5 5.2-1.4 1.3-1 2-2.3 2-3.9s-.6-2.9-1.7-3.8c-1.1-1-2.7-1.8-4.8-2.3-1.5-.5-2.5-.9-3.1-1.3-.6-.4-.9-1-.9-1.6 0-.7.3-1.3.9-1.7.6-.4 1.4-.7 2.5-.7.7 0 1.4.1 2.1.2.6.2 1.1.3 1.5.6l.5 2.7h2.9v-4zM220.9 95.8v13.9l-2.1.4v2.3h8v-2.3l-2.1-.4v-5.3h7.9v5.3l-2.1.4v2.3h8v-2.3l-2.1-.4V95.8l2.1-.4v-2.3h-8.1v2.3l2.1.4v5.6h-7.9v-5.6l2.1-.4v-2.3h-8v2.3l2.2.4zM243.5 95.8v13.9l-2.1.4v2.3h8v-2.3l-2.1-.4V95.8l2.1-.4v-2.3h-8v2.3l2.1.4zM254.3 93.1h-2.1v2.3l2.1.4v13.9l-2.1.4v2.3h8v-2.3l-2.1-.4v-4.3h3.3c2.2 0 4-.6 5.2-1.7 1.3-1.1 1.9-2.6 1.9-4.5 0-1.8-.6-3.3-1.9-4.5-1.3-1.1-3-1.7-5.2-1.7h-7.1zm3.9 3h3.3c1.1 0 1.9.3 2.4.9.6.6.8 1.4.8 2.3 0 .9-.3 1.7-.8 2.2-.6.6-1.4.9-2.4.9h-3.3v-6.3zM285.8 95.3c-.8-.8-1.9-1.4-3.1-1.8-1.2-.5-2.6-.7-4.1-.7-2 0-3.7.5-5 1.5-1.3 1-2 2.3-2 3.8 0 1.6.6 2.8 1.8 3.7 1.2.9 2.9 1.7 5.2 2.4 1.3.4 2.2.8 2.8 1.3.5.5.8 1 .8 1.8 0 .7-.3 1.3-.8 1.7-.6.4-1.4.6-2.4.6-.8 0-1.6-.1-2.2-.3-.7-.2-1.2-.5-1.6-.8l-.4-2.7h-3v4c.8.9 1.9 1.5 3.1 2 1.2.5 2.6.7 4.1.7 2.1 0 3.9-.5 5.2-1.4s2-2.3 2-3.9-.6-2.9-1.7-3.8c-1.1-1-2.7-1.8-4.8-2.3-1.5-.5-2.5-.9-3.1-1.3-.6-.4-.9-1-.9-1.6 0-.7.3-1.3.9-1.7.6-.4 1.4-.7 2.5-.7.7 0 1.4.1 2.1.2.6.2 1.1.3 1.5.6l.5 2.7h2.9v-4zM80.5 150.6c1.1 1 2.7 1.5 4.6 1.5.9 0 1.8-.1 2.6-.4.8-.2 1.6-.6 2.3-1.1l1 1.2h4.3v-.1l-2.8-3.2c.6-.8 1.1-1.7 1.4-2.7.3-1 .5-2.1.5-3.4h-2.9c0 .7-.1 1.3-.3 2-.2.6-.4 1.2-.7 1.7l-3.7-4.3 1.2-.9c.8-.5 1.3-1.2 1.8-1.9.4-.7.7-1.5.7-2.4 0-1.2-.4-2.3-1.3-3.2-.9-.9-2-1.3-3.4-1.3-1.6 0-2.9.5-3.8 1.4-1 .9-1.4 2.1-1.4 3.7 0 .7.1 1.4.4 2.1.3.7.7 1.4 1.3 2.2-1.2.8-2.1 1.6-2.6 2.4-.6.8-.9 1.7-.9 2.7 0 1.7.6 3 1.7 4zm2.9-2.2c-.5-.5-.7-1.2-.7-1.9 0-.4.1-.8.2-1.2.2-.4.5-.8.9-1.2l.3-.2 4 4.6c-.4.2-.9.4-1.4.5-.5.1-.9.2-1.4.2-.8 0-1.4-.3-1.9-.8zm1-12.6c.3-.4.8-.6 1.3-.6s.9.2 1.3.5c.3.3.5.7.5 1.2 0 .4-.1.8-.3 1.1-.2.3-.5.7-1 1l-1.1.7c-.4-.5-.7-.9-.9-1.3-.2-.4-.3-.8-.3-1.2 0-.5.2-1 .5-1.4zM121.3 142.3h-6.6v2.7l2.8.2v3.3c-.3.2-.7.3-1.1.5-.5.1-1.1.2-1.9.2-1.7 0-3.1-.6-4-1.8-.9-1.2-1.4-2.7-1.4-4.7v-.7c0-2 .5-3.6 1.4-4.9.9-1.2 2.3-1.9 3.9-1.9.8 0 1.4.1 2 .3.6.2 1 .4 1.4.7l.5 2.6h2.9v-3.9c-.8-.8-1.9-1.5-3.1-2-1.3-.5-2.6-.7-4.1-.7-2.6 0-4.7.9-6.3 2.7-1.6 1.8-2.4 4.2-2.4 7.1v.7c0 2.8.8 5.1 2.5 6.8 1.6 1.7 3.8 2.6 6.4 2.6 1.8 0 3.4-.2 4.6-.7 1.2-.5 2.1-1.1 2.7-1.7v-7.4zM126.6 132.5h-2.1v2.3l2.1.4v13.9l-2.1.4v2.3h8v-2.3l-2.1-.4V144h3.2c.9 0 1.6.3 2.1.8s.7 1.3.7 2.2v1.1c0 1.1.3 2 .8 2.6.5.7 1.4 1 2.7 1h2v-2.3l-.5-.1c-.4 0-.7-.2-.8-.4-.2-.2-.3-.6-.3-1v-1c0-1.2-.2-2.1-.7-2.9-.5-.8-1.3-1.3-2.5-1.7 1-.4 1.8-1 2.3-1.7.5-.7.8-1.6.8-2.5 0-1.8-.6-3.2-1.9-4.2-1.2-1-3-1.5-5.2-1.5h-6.5zm3.9 3h2.7c1 0 1.8.3 2.4.8.5.5.8 1.2.8 2.1 0 .9-.3 1.5-.8 2s-1.3.7-2.4.7h-2.7v-5.6zM144.4 151.9h6.6v-2.3l-1.3-.2.8-2.7h6.3l.8 2.7-1.3.2v2.3h6.6v-2.3l-1.4-.2-5.8-16.8h-4l-5.9 16.8-1.4.2v2.3zm9.2-14.9l2.3 6.8h-4.4l2.1-6.8zM183.1 132.5h-5.9v2.3l2.1.4v10.3h-.1l-7.8-13h-6v2.3l2.1.4v13.9l-2.1.4v2.3h8v-2.3l-2.1-.4v-10.3h.1l7.8 13h3.9v-16.6l2.1-.4v-2.3h-2.1zM187.6 132.5v5.1h3l.2-2.2h3.5V149l-2.1.4v2.3h8v-2.3l-2.1-.4v-13.6h3.6l.2 2.2h3v-5.1h-17.3zM221.9 134.8c-.8-.8-1.9-1.4-3.1-1.8-1.2-.5-2.6-.7-4.1-.7-2 0-3.7.5-5 1.5-1.3 1-2 2.3-2 3.8 0 1.6.6 2.8 1.8 3.7 1.2.9 2.9 1.7 5.2 2.4 1.3.4 2.2.8 2.8 1.3.5.5.8 1 .8 1.8 0 .7-.3 1.3-.8 1.7-.6.4-1.4.7-2.4.7-.8 0-1.6-.1-2.2-.3-.7-.2-1.2-.5-1.6-.8l-.4-2.7h-3v4c.8.9 1.9 1.5 3.1 2 1.2.5 2.6.7 4.1.7 2.1 0 3.9-.5 5.2-1.4 1.3-1 2-2.3 2-3.9s-.6-2.9-1.7-3.8c-1.1-1-2.7-1.8-4.8-2.3-1.5-.5-2.5-.9-3.1-1.3-.6-.4-.9-1-.9-1.6 0-.7.3-1.3.9-1.7.6-.4 1.4-.7 2.5-.7.7 0 1.4.1 2.1.2.6.2 1.1.3 1.5.6l.5 2.7h2.9v-4.1z" class="st0"/>
</svg>
