<svg xmlns="http://www.w3.org/2000/svg" id="Layer_1" viewBox="0 0 365.5 140.5" style="enable-background:new 0 0 365.5 140.5;">
  <style>
    .megamillions-logo-st0{fill:#EF3E33;} .megamillions-logo-st1{fill:#004FA3;} .megamillions-logo-st2{fill:#FFFFFF;} .megamillions-logo-st3{fill:#FFDF1B;} .megamillions-logo-st4{fill:#ED1C24;}
  </style>
  <path d="M109.8 17.8H132l8.2 38.7h.6c.4-3.2.8-6.6 1.5-9.8l6.7-28.9h22l9.8 73.7h-20.9L157 51.1h-.4c-.4 2.4-.8 5-1.4 7.3l-8.6 33H134l-7.7-31.2c-.6-3.1-1.2-6.1-1.3-9.2h-.7c-.2 2.9-.3 6-.6 8.9l-2.5 31.5h-20.9l9.5-73.6m74.7 0h40v20.1h-18.2V45h16.6v19.1h-16.6v7.2h18.9v20.2h-40.7V17.8M291 48.1c-.2 12-.2 22.1-7.2 31.5-6.3 8.5-16 13.1-25.3 13.1-18.2 0-32.8-13.9-32.8-37.5 0-24 14.3-38.5 33-38.5 10.3 0 24.6 6.4 29.2 19l-20.2 9.2c-1.7-3.7-4.7-5.7-8.2-5.7-7.7 0-12 8.2-12 17.1 0 8.1 4.1 15.7 11.1 15.7 3.4 0 7.7-2 8.8-6.4h-9.8V48.1H291m17.3 43.4h-22.9l20.7-73.7H330l21.2 73.7h-22.9l-2-9.2H310l-1.7 9.2m14.3-26.7l-2.5-13c-.6-3.1-1-6.4-1.4-9.5h-.8L314 64.8h8.6z" class="megamillions-logo-st0"/>
  <path d="M101.4 99.3h14.1l5.2 19.7h.3c.2-1.6.5-3.4.9-5l4.2-14.8H140l6.2 37.6H133l-1.8-20.6h-.2c-.2 1.2-.5 2.5-.9 3.7l-5.4 16.8h-8l-4.9-15.9c-.4-1.6-.7-3.1-.8-4.7h-.4l-.3 4.5-1.6 16H95.3l6.1-37.3m47.9 0H163v37.6h-13.7zm17.3 0h13.6v25.5h11.5v12.1h-25.1V99.3m28.3 0h13.7v25.5H220v12.1h-25.1V99.3m29 0h13.7v37.6h-13.7zm56.9 18.9c0 12.1-9.3 19.3-20.8 19.3s-20.8-7.2-20.8-19.3c0-11.8 9.4-19.5 20.8-19.5 11.5 0 20.8 7.7 20.8 19.5m2-18.9h13.1l12.3 20.8h.4c-.5-3.1-1.1-6.4-1.1-9.6V99.3h13.1v37.6h-13.1l-12-19.7h-.5c.4 2.6.8 5 .8 7.5v12.2h-13.1V99.3m44.4 24.1l.7.5c2.4 1.9 5.4 3.4 8.5 3.4 1.3 0 3.5-.5 3.5-2.2s-1.8-1.8-3-2.1l-2.7-.5c-5.3-.9-9.8-4.1-9.8-10 0-8.9 8.1-13.9 16.3-13.9 4.3 0 8.2 1 11.9 3.3l-3.7 9.6c-2.3-1.6-5-2.8-7.9-2.8-1.2 0-2.9.4-2.9 2 0 1.4 1.7 1.6 2.7 1.8l3.1.7c5.8 1.3 10 4.4 10 10.8 0 9-8.2 13.4-16.3 13.4-4.7 0-10.2-1.3-14.5-3.4l4.1-10.6" class="megamillions-logo-st1"/>
  <path d="M256.8 114.5h-9.2l7.4 5.5-3.2 9.3 8.2-5.9 7.8 5.9-2.9-9.3 7.9-5.5h-9.6L260 105l-3.2 9.5" class="megamillions-logo-st2"/>
  <path d="M59.2 118.8c-4.6-1.5-9.1-3.2-13.3-4.9 7.2 4.5 16.3 8.6 26 11.4 4.4 1.4 8.8 2.4 13 3.1 1.6.3 3.1.5 4.5.6l1.1.1h.4c2.9.3 5.6.4 8.2.3 3.6-.1 6.7-.5 9.2-1.3l.9-.3.1-.1.4-.1c.8-.3 1.5-.6 2.1-1-10.7 2.2-30.8-.5-52.6-7.8M45.4 48.7c0 18.7 15.1 33.8 33.8 33.8S113 67.4 113 48.7c0-18.7-15.1-33.8-33.8-33.8S45.4 30 45.4 48.7" class="megamillions-logo-st3"/>
  <path d="M2.3 28.9c.5-7.5 3.1-14.1 7.9-19C20.7-.6 39-.6 57.9 7.9c3.2 1.4 6.4 3.2 9.6 5.1.2.1.3.2.5.3-.2-.1-.5-.2-.7-.3-1 .3-1.9.6-2.8 1-2.5-1.4-4.9-2.7-7.4-3.8-2.8-1.3-5.6-2.4-8.4-3.3C33.9 2.2 20.2 3.4 12 11.7c-3.8 3.8-6.1 8.8-7 14.4-.2 1.2-.3 2.5-.4 3.8-.4 9.2 2.4 20 8.1 30.8 1.3 2.5 2.8 5 4.5 7.5C21.1 74 25.7 79.7 31 85c10 9.9 21.5 17.5 32.8 21.9-6.5-4.1-12.9-9.1-18.8-15-5.1-5.1-9.6-10.5-13.3-16-.7-1.1-1.5-2.2-2.2-3.3-10.2-16.5-14-33.7-10.1-46.4.2-.8.5-1.5.8-2.3l2.4.6c6.1 1.9 12.5 5.8 18.2 11.4 1 1 1.9 1.9 2.7 2.9-.2 1.1-.4 2.2-.5 3.3-1.2-1.5-2.5-3-4-4.5-5.4-5.4-11.6-9.1-17.3-10.9-4 12.7.3 30.2 11.4 47 .7 1 1.3 2 2 2.9 3.3 4.6 7.2 9.2 11.5 13.5 8.7 8.7 18.6 15.5 28.5 20.1 2.9 1.3 5.7 2.4 8.5 3.3-3.1 0-6.2-.3-9.4-1-15-2.9-31.2-12.1-45.1-25.8-7.5-7.7-13.7-16-18.2-24.4-2-3.8-3.7-7.5-5-11.3C4 45.6 2.8 40.3 2.4 35.4c-.2-2.2-.2-4.4-.1-6.5" class="megamillions-logo-st3"/>
  <path d="M8.3 28.6c.3-6.2 2.2-11.5 6.1-15.4 9.1-9.4 26.4-8.3 44 1 .3.2.7.4 1 .5-.8.4-13.5 5.6-15.9 19-11.4-10.6-24.9-14.4-30.7-8.5-1.1 1.2-1.9 2.7-2.2 4.4-.1 3.6.5 7.5 1.6 11.6.9 3.2 2.1 6.4 3.6 9.8-3.6-4.9-6-9.9-7-14.4-.4-1.8-.5-3.5-.5-5.1v-2.9" class="megamillions-logo-st3"/>
  <path d="M12.9 33.1l3.6-6.9-1.3 7.6C12.7 49 20.1 68.4 35 85.9c0 0-24.4-30.6-24.4-42.9.1-3.7.8-7 2.3-9.9" class="megamillions-logo-st4"/>
  <path d="M77.5 87.5c-3.8.2-7.4 0-10.9-.5 6.5 3.9 14.2 5.6 21.9 4.6 3.6-.3 7-1.3 10.1-2.8 1.2-.6 2.3-1.2 3.3-1.9l.8-.5.3-.2c2.1-1.4 4.1-3.1 5.9-5 2.5-2.7 4.5-5.6 6-8.9l.5-1.2.1-.2.3-.6c.5-1.1.8-2.2 1.2-3.4-7 11.5-21.9 19.8-39.5 20.6" class="megamillions-logo-st3"/>
  <path d="M40.3 28.3c.8-3 1.7-5.8 2.7-8.4-3.2 4.5-5.7 10.2-7 16.4-.6 2.8-1 5.6-1 8.3 0 1 0 2 .1 2.9l.1.7v.3c.2 1.8.5 3.6 1 5.3.7 2.4 1.6 4.4 2.7 6.1l.4.6.1.1.2.3c.4.5.8 1 1.3 1.4-3.6-7.2-4.1-20.1-.6-34" class="megamillions-logo-st4"/>
  <path d="M76.5 30.2l-.7 2 .3 18.1 4.7 3.5 3.8-4.5 1.1-1.5L90.2 34l1.8-9.8-3.6-1.5-11.9 7.5" class="megamillions-logo-st2"/>
  <path d="M79.3 61c.8 1.6-1 4.2-4.2 5.9-3.1 1.7-6.4 1.7-7.2.1-.8-1.6 1-4.2 4.2-5.9 3.1-1.7 6.3-1.7 7.2-.1m13.2-39.2s-1.4-4.1-5.2-3c0 0-6.9 1.9-10.8 11.4.3.6.6 1.3.6 1.3 1.7 3.6 3.6 3.5 3.6 3.5.3.1.7-.1.7-.1 1.5-.5 4.9-7.1 4.9-7.1.5-1 1.9-3.3 1.9-3.3 1.2-1.7 2.1-.7 2.1-.7.9.7.1 1.9.1 1.9-.2.4-6.2 8.2-6.2 8.2-1.9 2.3-2 4.5-2 4.5-.2 1.6 3.4 4.5 3.4 4.5.9.7.5 1.4.5 1.4-.1.3-.2.5-.2.8-.4 1.5-.3 2.9-.3 2.9 3.5-5.3 7.1-12.8 7.4-21.5.1-2.2.1-2.9-.5-4.7m-11.7 12c-.9 0-1.5-1-1.5-2.1 0-1.2.8-2.1 1.6-2 .9 0 1.5 1 1.5 2.1s-.7 2-1.6 2zM84.3 45c.3-1.1-.7-1.6-.7-1.6l-2-1.6c-.9-.7-1.4.5-1.4.5l-1.4 3.2c-.4.9.5 1 .5 1 1.1.4 2.2 1.3 2.2 1.3.7.6 1 1.4 1 1.4.4 1.5-.2 1.8-.2 1.8-.3.2-.7-.3-.7-.3-.6-.7-4-3.2-4-3.2-1.5-.8-.9-1.6-.9-1.6l2.1-4.3c1-2.1.3-4.5.3-4.5-.4-1.3-2.4-4-3.2-5.1-1.7 5.1-2.6 12.1-1.4 21.6 0 0 .3 2.2 1 3.1.7.8 1.7 1.1 3.3-.3 0 0 2.8-2.6 6-7-.2-.1-.4-.3-.4-.3-1.4-1.2-.1-4.1-.1-4.1zm11.3-18.1c-.5-.3-.7-.9-.4-1.4.3-.5.9-.7 1.4-.4.5.3.7.9.4 1.4-.3.5-.9.7-1.4.4m5.3 4.2c-.4-.4-.4-1.1.1-1.5.5-.4 1.1-.4 1.5.1.4.5.4 1-.1 1.5-.5.4-1.1.4-1.5-.1m3.5 5.8c-.2-.6 0-1.1.6-1.3.6-.2 1.1 0 1.4.6.2.6 0 1.1-.6 1.3-.6.2-1.1 0-1.4-.6m1.4 6.6c0-.6.4-1 1-1.1.6 0 1.1.4 1.1 1s-.4 1-1 1.1c-.6 0-1.1-.4-1.1-1m-1 6.7c.2-.6.7-.8 1.3-.6.6.2.9.7.7 1.3-.2.6-.7.8-1.3.7-.6-.3-.9-.8-.7-1.4m-3.2 6c.4-.5 1-.5 1.5-.2.5.4.6 1 .2 1.5-.4.5-1 .5-1.5.2-.5-.4-.6-1-.2-1.5m-5.1 4.5c.5-.3 1.1-.2 1.4.4.3.5.2 1.1-.3 1.4-.5.3-1.1.2-1.4-.3-.3-.6-.2-1.2.3-1.5m-6.3 2.5c.6-.1 1.1.2 1.2.8.1.6-.2 1.1-.8 1.2-.6.1-1.1-.2-1.2-.8-.1-.6.2-1.1.8-1.2m-6.7.2c.6.1.9.6.9 1.2-.1.6-.6 1-1.2.9-.6-.1-1-.6-.9-1.2.1-.7.5-1 1.2-.9m1.8-11.8l-.7 2.6 1.2.6-.5-3.2m1.4-.6l1.7 2.4.8-.9-2.5-1.5m.7-1.9l2.1-1.4.6 1.3-2.7.1m-.3 24c0 .5-6.6 1-14.8 1-8.2 0-14.8-.4-14.8-1s6.6-1 14.8-1c8.1.1 14.8.5 14.8 1m271 56.2c2.5 0 4.5 2 4.5 4.5s-2 4.5-4.5 4.5-4.5-2-4.5-4.5 2-4.5 4.5-4.5m0 8.1c2 0 3.7-1.6 3.7-3.7 0-2-1.6-3.7-3.7-3.7-2 0-3.7 1.6-3.7 3.7s1.6 3.7 3.7 3.7zm-1.7-6.2h2c1.2 0 1.8.6 1.8 1.5s-.5 1.3-1.2 1.4l1.3 2.2h-1l-1.3-2.1h-.7v2.1h-.9v-5.1zm.9 2.2h.7c.6 0 1.2 0 1.2-.7s-.6-.7-1.2-.7h-.7v1.4z" class="megamillions-logo-st1"/>
</svg>
