<svg style="fill: #004fa3;" xmlns="http://www.w3.org/2000/svg" viewBox="0 0 92.7 118.8">
  <path d="M54.3 106.54v7.64H38.17v-7.64H27.41q-11.27 0-17.13-4.56T4.42 88.7v-17H42v6.57a9.64 9.64 0 0 0 1 5.15A3.8 3.8 0 0 0 46.49 85a3.86 3.86 0 0 0 3.57-1.76q1.07-1.76 1.08-5.89a9.85 9.85 0 0 0-1-5.12q-1-1.67-5.18-3.37L19.37 58.52Q10.65 55 7.53 50.82T4.42 39.5v-9.29q0-8.66 5.89-13.25t17.1-4.59h10.76V4.62H54.3v7.76h11q11.21 0 17.1 4.59t5.89 13.25v11.15H50.91v-1.14a7.9 7.9 0 0 0-1.22-4.76 4.13 4.13 0 0 0-3.54-1.64A4.47 4.47 0 0 0 43 35a4 4 0 0 0-1.25 3 4.09 4.09 0 0 0 1.19 3q1.19 1.22 5.44 3L78 56.54a15.35 15.35 0 0 1 8 6.82q2.29 4.39 2.29 13.28v9.63q0 10.36-5.61 15.32t-17.38 5z"/>
</svg>
