<svg xmlns="http://www.w3.org/2000/svg" viewBox="0 0 624 296" >
  <style>
    .st0{fill:#ef3e33}.st1{fill:#004fa3}.st2{fill:#fff}.st3{fill:#ffdf1b}.st4{fill:#ed1c24}
  </style>
  <path class="st0" d="M189.3 51H227l13.9 65.6h.9c.7-5.5 1.3-11.3 2.5-16.6l11.4-49H293l16.7 125h-35.5l-5-68.4h-.7c-.7 4.1-1.3 8.4-2.4 12.4l-14.6 56h-21.4L217 123.2c-1.1-5.3-2-10.3-2.3-15.6h-1.2c-.3 5-.5 10.1-.9 15.1l-4.3 53.3H173l16.3-125M316 51h67.8v34.2h-30.9v11.9h28.3v32.5h-28.3v12.2h32V176H316V51m180.6 51.4c-.3 20.4-.3 37.4-12.2 53.3-10.7 14.4-27.2 22.2-42.8 22.2-30.8 0-55.7-23.5-55.7-63.6 0-40.8 24.2-65.3 55.9-65.3 17.5 0 41.6 10.8 49.5 32.1L457 96.7c-2.8-6.3-8-9.6-13.9-9.6-13.1 0-20.3 13.9-20.3 29 0 13.7 7 26.7 18.9 26.7 5.8 0 13.1-3.3 14.9-10.9H440v-29.5h56.6m29.3 73.6h-38.8l35.1-125h40.6l36 124.9H560l-3.3-15.6H529l-3.1 15.7m24.2-45.3l-4.3-22c-1.1-5.3-1.7-10.8-2.4-16.1h-1.3l-6.7 38.1h14.7z"/>
  <path class="st1" d="M175 189.2h23.8l8.8 33.5h.6c.4-2.8.8-5.7 1.6-8.5l7.2-25h23.6l10.5 63.7h-22.4l-3.1-34.9h-.4c-.4 2.1-.8 4.3-1.5 6.3l-9.2 28.6H201l-8.3-27c-.7-2.7-1.3-5.2-1.4-7.9h-.8c-.2 2.5-.3 5.2-.6 7.7l-2.7 27.2h-22.4l10.2-63.7m81.3 0h23.2v63.7h-23.2zm29.3 0h23.2v43.3h19.4v20.4h-42.6v-63.7m48 0h23.2v43.3h19.4v20.4h-42.6v-63.7m49.1 0h23.2v63.7h-23.2zm96.6 32c0 20.4-15.8 32.7-35.2 32.7-19.4 0-35.2-12.3-35.2-32.7 0-20 15.9-33 35.2-33 19.3 0 35.2 13 35.2 33m3.3-32h22.2l20.8 35.3h.7c-.9-5.3-1.9-10.8-1.9-16.2v-19.1h22.1v63.7h-22.1L504 219.4h-.7c.8 4.4 1.4 8.5 1.4 12.8v20.7h-22.1v-63.7m75.1 40.9l1.2.9c4.1 3.2 9.1 5.8 14.4 5.8 2.3 0 5.9-.9 5.9-3.8s-3-3.1-5.2-3.5l-4.6-.8c-9-1.6-16.6-6.9-16.6-16.9 0-15.1 13.8-23.6 27.6-23.6 7.3 0 13.9 1.8 20.2 5.6l-6.3 16.3c-4-2.7-8.4-4.8-13.4-4.8-2 0-5 .8-5 3.4 0 2.4 2.9 2.7 4.6 3.1l5.2 1.2c9.8 2.2 16.9 7.4 16.9 18.2 0 15.2-13.9 22.7-27.6 22.7-8 0-17.3-2.2-24.5-5.8l7.2-18"/>
  <path class="st2" d="M438.6 215h-15.7l12.6 9.3-5.4 15.8 13.9-10 13.3 10-5-15.8 13.4-9.3h-16.3l-5.4-16.2-5.4 16.2"/>
  <path class="st3" d="M103.6 222.3c-7.9-2.6-15.4-5.4-22.6-8.4 12.1 7.7 27.6 14.5 44 19.4 7.5 2.3 15 4.1 22 5.3 2.7.4 5.2.8 7.6 1l1.8.1.7.1c4.8.5 9.5.7 14 .6 6.1-.2 11.4-.9 15.6-2.2l1.5-.5.2-.1.7-.2c1.3-.5 2.5-1 3.6-1.7-18.2 3.6-52.1-1.1-89.1-13.4M80.1 103.5c0 31.7 25.7 57.3 57.3 57.3 31.7 0 57.3-25.7 57.3-57.3 0-31.7-25.7-57.3-57.3-57.3-31.6-.1-57.3 25.6-57.3 57.3"/>
  <path class="st3" d="M7.2 69.9C8 57.2 12.4 46 20.6 37.7c17.7-17.8 48.8-17.9 80.7-3.4 5.4 2.4 10.8 5.3 16.2 8.6.3.2.6.3.9.5-.4-.2-.8-.3-1.2-.4-1.6.5-3.2 1-4.8 1.6-4.2-2.4-8.3-4.6-12.5-6.5-4.8-2.2-9.5-4-14.2-5.5-25.1-8.1-48.2-6-62.2 8-6.4 6.5-10.3 14.8-11.8 24.5-.3 2.1-.5 4.3-.6 6.5-.8 15.7 4.1 33.9 13.8 52.2 2.3 4.3 4.8 8.5 7.6 12.7 6.4 9.8 14.2 19.4 23.3 28.4 16.9 16.8 36.5 29.7 55.6 37.1-11-6.9-21.8-15.4-31.9-25.4-8.7-8.6-16.2-17.8-22.5-27.1-1.3-1.9-2.5-3.8-3.6-5.6-17.4-28-23.8-57.1-17.1-78.7.4-1.3.8-2.6 1.3-3.9 1.3.3 2.7.7 4 1.1 10.3 3.2 21.2 9.8 30.8 19.3 1.6 1.6 3.2 3.3 4.6 5-.4 1.8-.6 3.7-.8 5.5-2.1-2.6-4.3-5.1-6.7-7.5-9.2-9.1-19.6-15.4-29.2-18.4-6.8 21.5.5 51.3 19.4 79.6 1.1 1.7 2.2 3.3 3.4 5 5.6 7.8 12.1 15.5 19.5 22.8 14.8 14.7 31.6 26.3 48.3 34 4.8 2.2 9.7 4.1 14.5 5.6-5.2 0-10.5-.6-16-1.6-25.4-4.9-53-20.5-76.4-43.8-13.1-13-23.6-27.2-31.2-41.5-3.4-6.4-6.3-12.8-8.5-19.1-3.2-9.1-5.2-18.1-5.9-26.5-.4-3.7-.5-7.3-.2-10.9"/>
  <path class="st3" d="M17.3 69.4c.5-10.4 3.8-19.5 10.3-26.2 15.5-15.9 44.8-14.1 74.7 1.6l1.8.9c-1.3.8-22.9 9.5-27 32.3C57.7 60.1 34.7 53.6 25 63.6c-1.9 2-3.1 4.5-3.8 7.4-.2 6.1.8 12.7 2.7 19.6 1.5 5.4 3.5 10.9 6.1 16.6-6.1-8.3-10.2-16.8-11.9-24.4-.7-3-.9-5.9-.8-8.6 0-.6-.1-1.1-.1-1.7 0-1.1.1-2.1.1-3.1"/>
  <path class="st4" d="M25 77l6-11.7-2.1 13c-4.2 25.6 8.4 58.6 33.7 88.2 0 0-41.3-51.8-41.3-72.8 0-6.2 1.2-11.8 3.7-16.7"/>
  <path class="st3" d="M134.6 169.2c-6.4.3-12.6 0-18.5-.9 11 6.7 24 9.5 37.1 7.8 6-.6 11.8-2.2 17.1-4.8 2.1-1 3.9-2 5.7-3.2l1.3-.9.5-.4c3.5-2.4 6.9-5.2 9.9-8.5 4.2-4.5 7.6-9.6 10.2-15.1l.9-2 .1-.3.4-1c.8-1.9 1.4-3.8 2-5.7-11.6 19.6-36.9 33.7-66.7 35"/>
  <path class="st4" d="M71.6 68.9c1.3-5 2.8-9.8 4.5-14.3-5.5 7.6-9.7 17.3-11.8 27.7-1.1 4.8-1.6 9.5-1.6 14.1 0 1.8.1 3.4.2 4.9l.1 1.2.1.5c.3 3.1.9 6.2 1.7 9.1 1.1 4 2.7 7.4 4.6 10.3l.7 1 .1.2.4.5c.7.9 1.4 1.7 2.2 2.4-6.4-12.2-7.2-34.1-1.2-57.6"/>
  <path class="st2" d="M132.9 72.1l-1.1 3.3.5 30.8 7.9 5.9 6.4-7.6 1.8-2.6 7.8-23.4 3-16.5-6.1-2.7-20.2 12.8"/>
  <path class="st1" d="M137.6 124.3c1.4 2.7-1.7 7.2-7.1 10-5.3 2.8-10.8 2.9-12.3.2-1.4-2.7 1.7-7.2 7.1-10 5.3-2.9 10.8-3 12.3-.2m22.5-66.5s-2.3-6.9-8.8-5.1c0 0-11.7 3.2-18.3 19.4.5 1 1.1 2.3 1.1 2.3 2.8 6.2 6.1 5.9 6.1 5.9.5.1 1.2-.2 1.2-.2 2.5-.8 8.3-12 8.3-12 .9-1.7 3.1-5.6 3.1-5.6 2-2.8 3.6-1.3 3.6-1.3 1.5 1.2.2 3.2.2 3.2-.4.7-10.5 13.9-10.5 13.9-3.2 3.9-3.3 7.7-3.3 7.7-.3 2.7 5.8 7.6 5.8 7.6 1.6 1.2.9 2.4.9 2.4-.1.5-.3.8-.4 1.4-.6 2.6-.5 4.9-.5 4.9v.1c5.9-9 12-21.6 12.6-36.5-.1-3.8-.1-5-1.1-8.1m-19.9 20.3c-1.5-.1-2.6-1.7-2.5-3.6.1-2 1.3-3.5 2.8-3.4 1.5.1 2.6 1.7 2.5 3.6-.1 1.9-1.3 3.5-2.8 3.4zm5.9 19.1c.5-1.8-1.2-2.8-1.2-2.8l-3.4-2.7c-1.4-1.2-2.4.9-2.4.9l-2.4 5.4c-.6 1.5.8 1.7.8 1.7 1.8.7 3.7 2.2 3.7 2.2 1.1 1 1.8 2.4 1.8 2.4.7 2.6-.4 3.1-.4 3.1-.5.4-1.2-.6-1.2-.6-1-1.2-6.7-5.5-6.7-5.5-2.6-1.4-1.5-2.7-1.5-2.7l3.5-7.4c1.8-3.6.6-7.6.6-7.6-.8-2.2-4-6.9-5.4-8.7-2.9 8.6-4.3 20.5-2.5 36.7 0 0 .5 3.8 1.7 5.2 1.1 1.3 2.8 1.8 5.6-.6 0 0 4.8-4.4 10.1-11.9-.4-.2-.7-.4-.7-.4-2.2-1.7 0-6.7 0-6.7zm19.1-30.7c-.9-.5-1.2-1.5-.7-2.4.5-.9 1.5-1.2 2.4-.8.9.5 1.2 1.4.7 2.4s-1.4 1.3-2.4.8m9 7.1c-.7-.8-.6-1.8.2-2.5s1.8-.7 2.5.1c.7.8.6 1.8-.2 2.5-.8.8-1.8.7-2.5-.1m6 9.8c-.4-.9 0-1.9 1-2.3 1-.4 1.9 0 2.3 1 .4 1 0 1.9-1 2.3-.9.4-1.9 0-2.3-1m2.4 11.3c0-1 .7-1.8 1.7-1.8s1.8.7 1.8 1.7-.7 1.8-1.7 1.8-1.8-.7-1.8-1.7m-1.7 11.3c.3-1 1.2-1.4 2.2-1.1 1 .3 1.5 1.2 1.2 2.2-.3 1-1.2 1.4-2.2 1.1-1.1-.3-1.5-1.2-1.2-2.2m-5.5 10.1c.6-.8 1.7-.9 2.5-.3.8.6 1 1.7.3 2.5-.6.8-1.6.9-2.5.3-.8-.6-.9-1.6-.3-2.5m-8.6 7.7c.9-.5 1.9-.3 2.4.6.6.9.3 1.9-.5 2.4-.9.5-1.8.3-2.4-.6-.6-.9-.4-1.9.5-2.4m-10.6 4.2c1-.2 1.8.4 2.1 1.4.2 1-.3 1.9-1.3 2.1-1 .2-1.8-.3-2.1-1.4-.3-1 .2-1.9 1.3-2.1m-11.5.3c1 .1 1.6 1 1.5 2-.1 1-1 1.7-2 1.5-1-.1-1.6-1-1.5-2 .2-1 1-1.6 2-1.5m3.1-20l-1.1 4.5 2 1-.9-5.5m2.4-1l2.9 4.1 1.3-1.6-4.2-2.5m1.2-3.2l3.5-2.4 1.1 2.3-4.6.1m-.6 40.8c0 .9-11.3 1.6-25.1 1.6-13.9 0-25.1-.7-25.1-1.6 0-.9 11.3-1.6 25.1-1.6 13.9 0 25.1.7 25.1 1.6"/>
  <path class="st0" d="M287.7 280.5l2.3-7.1h2.3l2.1 7.1h.1l2-7.1h3l-3.5 11h-2.9l-1.9-6.4h-.1l-2.1 6.4h-2.9l-3.3-11h3l1.9 7.1m12.5-7.1h2.9v11h-2.9zm9.1 11h-2.8v-8.6h-2.4v-2.4h7.6v2.4h-2.4v8.6m10.4-6.8v-4.2h2.9v11h-2.9v-4.5h-4.1v4.5h-2.9v-11h2.9v4.2h4.1m11.3-10.7h5.6l4.5 11.7 4.7-11.7h5.7l3.3 21.9h-5.7l-1.6-12.6h-.1l-5.2 12.6h-2.3l-5-12.6h-.1l-1.8 12.6h-5.7l3.7-21.9m31.9 4.8v3.7h6.4v4.8h-6.4v3.8h6.8v4.8h-12.5v-21.9h12.5v4.8h-6.8m32.1 4.9c-.1 3.2-.3 5.9-2.2 8.7-2.2 3-5.4 4.3-9 4.3-6.9 0-11.7-4.7-11.7-11.6 0-7.1 4.8-11.8 11.9-11.8 4.5 0 8 2 9.9 6.1l-5.4 2.3c-.8-2.1-2.4-3.5-4.7-3.5-3.8 0-5.7 3.6-5.7 6.9 0 3.4 2 6.9 5.8 6.9 2.5 0 4.4-1.3 4.6-3.8h-4.7v-4.5H395m8.2 8.4l-1.5 3.8h-6l8.4-21.9h6.2l8.3 21.9h-6.1l-1.4-3.8h-7.9m4-11.3l-2.4 7h4.7l-2.3-7zm13.1-6.8h8.7c4.7 0 8 2.2 8 7.2 0 5.2-2.8 7.4-7.8 7.4H426v7.3h-5.7v-21.9M426 277h1c2.1 0 4.1 0 4.1-2.7 0-2.8-1.9-2.8-4.1-2.8h-1v5.5zm19.2 7h6.9v4.8h-12.6v-21.9h5.7V284m8.7-17.1h5.7v21.9h-5.7zm15.1 4.8v3.7h6.5v4.8H469v3.8h6.8v4.8h-12.5v-21.9h12.5v4.8H469m28.6 17.1h-7.1l-5.4-8.4h-.1v8.4h-5.7v-21.9h8.5c4.3 0 7.6 2.1 7.6 6.7 0 3-1.7 5.6-4.8 6.2l7 9M485 276.7h.6c1.9 0 4-.3 4-2.7 0-2.4-2.1-2.7-4-2.7h-.6v5.4z"/>
  <path class="st1" d="M210.1 8.8h10.2l-12.6 14.9 13.7 16.7h-10.6l-10.7-13.7v13.7h-8.3V8.8h8.3v13l10-13m21.7 6.9V21h9.3v7h-9.3v5.4h9.8v7h-18V8.8h18v6.9h-9.8m14.9-6.9h8.2L270 28.1h.1V8.8h8.2v31.6h-8.2L255 21h-.1v19.4h-8.2V8.8m49.5 31.6H288V15.7h-6.8V8.8H303v6.9h-6.8v24.7m37.2-31.6v17.8c0 4.1-.2 8.1-3.3 11.2-2.6 2.6-6.8 3.5-10.5 3.5s-7.8-.9-10.5-3.5c-3.1-3.1-3.3-7.1-3.3-11.2V8.8h8.2v16.6c0 4.1.3 8.6 5.6 8.6s5.6-4.5 5.6-8.6V8.8h8.2m27.8 10.6c-1.7-2.3-4.4-3.5-7.2-3.5-5 0-8.4 3.9-8.4 8.8 0 5 3.4 8.6 8.6 8.6 2.7 0 5.4-1.3 7.1-3.4v9.9c-2.7.8-4.7 1.5-7.3 1.5-4.4 0-8.6-1.7-11.9-4.7-3.5-3.1-5.1-7.3-5.1-12 0-4.3 1.6-8.5 4.7-11.6 3.1-3.2 7.6-5.1 12-5.1 2.6 0 5.1.6 7.5 1.6v9.9m23.4-10.6h10.1l-12.5 14.9 13.7 16.7h-10.7l-10.6-13.7h-.1v13.7h-8.2V8.8h8.2v13h.1l10-13"/>
  <path class="st1" d="M394.6 8.8h9.9l5.9 8.6 5.9-8.6h9.9l-11.7 16.4v15.2h-8.2V25.2L394.6 8.8m45.6 0l-7.7 13.9h-4.9L433 8.8h7.2m20.8 8.1c-1.5-1.3-3.4-2.1-5.5-2.1-1.5 0-3.5.9-3.5 2.6 0 1.8 2.2 2.6 3.6 3l2.1.6c4.4 1.3 7.8 3.5 7.8 8.6 0 3.1-.8 6.4-3.3 8.5-2.5 2.1-5.8 3-9 3-4 0-7.9-1.3-11.1-3.6l3.5-6.6c2.1 1.8 4.5 3.3 7.3 3.3 1.9 0 4-1 4-3.2 0-2.3-3.2-3.1-5-3.6-5.2-1.5-8.6-2.8-8.6-8.9 0-6.4 4.6-10.6 10.9-10.6 3.2 0 7.1 1 9.9 2.6l-3.1 6.4m149.2 223.2c4.2 0 7.6 3.4 7.6 7.6 0 4.2-3.4 7.6-7.6 7.6-4.2 0-7.6-3.4-7.6-7.6.1-4.2 3.5-7.6 7.6-7.6m0 13.8c3.4 0 6.2-2.8 6.2-6.2 0-3.4-2.8-6.2-6.2-6.2-3.4 0-6.2 2.8-6.2 6.2 0 3.4 2.8 6.2 6.2 6.2zm-2.9-10.6h3.3c2.1 0 3.1.9 3.1 2.6 0 1.5-.9 2.2-2.1 2.4l2.3 3.7h-1.7l-2.2-3.5h-1.2v3.5h-1.6v-8.7zm1.6 3.7h1.2c1 0 2.1-.1 2.1-1.2 0-1.2-1.1-1.2-2.1-1.2h-1.2v2.4z"/>
  <path class="st0" d="M502.4 282c2.1 0 3.8 1.7 3.8 3.8s-1.7 3.8-3.8 3.8c-2.1 0-3.8-1.7-3.8-3.8s1.7-3.8 3.8-3.8m0 6.9c1.7 0 3.1-1.4 3.1-3.1 0-1.7-1.4-3.1-3.1-3.1-1.7 0-3.1 1.4-3.1 3.1-.1 1.7 1.3 3.1 3.1 3.1zm-1.5-5.3h1.7c1 0 1.5.5 1.5 1.3s-.4 1.1-1 1.2l1.1 1.8h-.8l-1.1-1.8h-.6v1.8h-.8v-4.3zm.8 1.9h.6c.5 0 1 0 1-.6s-.5-.6-1-.6h-.6v1.2z"/>
</svg>
