<svg xmlns="http://www.w3.org/2000/svg" viewBox="0 0 189 75.3" style="enable-background:new 0 0 189 75.3;">
  <style>
    .foryourbuck-alt-st0{fill:#ED2224;}
  </style>
  <path d="M7.5 45.1c-.5 0-1-.2-1.4-.5-.4-.4-.7-.9-.8-1.5l-.2-2.8c-.1-1 .6-2 1.5-2.2l.7-.2-1-13.3-.8-.1c-1-.1-1.8-.9-1.9-1.9l-.2-2.8c0-.6.1-1.1.5-1.6.4-.4.9-.7 1.5-.8L24 15.8h.2c1.1 0 2 .8 2.1 2l.5 6.4c0 .6-.1 1.1-.5 1.6-.4.4-.9.7-1.5.8l-1.7.1c.4.4.7.9.8 1.5l.3 3.6c.1 1.2-.8 2.2-2 2.3l-6.1.5.2 2.5.8.1c1 .1 1.8.9 1.9 1.9l.2 2.8c0 .6-.1 1.1-.5 1.6-.4.4-.9.7-1.5.8l-9.7.8c.1 0 .1 0 0 0zm8-18.4l4.2-.4c-.4-.3-.7-.7-.7-1.3l-.1-.8-3.5.3.1 2.2z" class="foryourbuck-alt-st0"/>
  <path d="M24.1 18l.5 6.4-3.6.3-.4-2.8-7.6.7.5 6.4 8.2-.7.3 3.6-8.2.7.5 6.4 2.5.3.2 2.8-9.7.8-.2-2.8 2.4-.7-1.2-16.7-2.5-.3-.2-2.8L24.1 18m0-4.3h-.4L5.2 15.3c-1.2.1-2.2.6-2.9 1.5-.7.9-1.1 2-1 3.1l.2 2.8c.1 1.7 1.3 3.1 2.8 3.7l.8 10c-1.4.8-2.3 2.4-2.2 4.1l.2 2.8c.1 1.1.6 2.2 1.5 2.9.8.7 1.8 1 2.8 1h.4l9.7-.8c1.1-.1 2.2-.6 2.9-1.5.7-.9 1.1-2 1-3.1l-.2-2.8c-.1-1-.5-1.9-1.1-2.6l2.3-.2c2.4-.2 4.1-2.3 3.9-4.6l-.3-3.1c1.8-.6 3.1-2.4 2.9-4.4l-.5-6.4c-.1-1.1-.6-2.2-1.5-2.9-.8-.7-1.8-1.1-2.8-1.1z" />
  <path d="M38.5 42.8c-3.3 0-6.1-1.1-8.4-3.4-2.5-2.4-3.9-5.7-4.3-9.6v-.4c-.3-3.9.5-7.3 2.6-10.2 2.1-2.9 5.1-4.6 8.9-4.9.4 0 .8-.1 1.2-.1 3.3 0 6.1 1.1 8.4 3.4 2.5 2.4 4 5.7 4.3 9.6v.4c.3 3.9-.6 7.4-2.6 10.2-2.1 2.9-5.2 4.5-8.9 4.9-.4 0-.8.1-1.2.1zm-.1-20.5H38c-1.6.1-2.2.9-2.5 1.5-.6 1.2-.9 2.8-.7 4.8v.4c.2 2 .7 3.6 1.5 4.7.6.7 1.3 1.1 2.3 1.1h.4c1.6-.1 2.2-.9 2.6-1.5.7-1.2.9-2.8.7-4.9V28c-.2-2-.7-3.5-1.5-4.6-.6-.8-1.3-1.1-2.4-1.1z" class="foryourbuck-alt-st0"/>
  <path d="M38.6 16.5c2.7 0 5 .9 6.9 2.8 2.2 2.1 3.4 4.8 3.7 8.2v.4c.3 3.4-.5 6.3-2.2 8.7-1.8 2.4-4.2 3.7-7.4 4h-1.1c-2.7 0-5-.9-6.9-2.8-2.1-2.1-3.3-4.8-3.6-8.2v-.4c-.3-3.4.4-6.3 2.2-8.7 1.7-2.4 4.2-3.7 7.4-4h1m.1 20.4h.6c2-.2 3.4-1 4.3-2.6.9-1.6 1.2-3.6 1-6.1v-.4c-.2-2.4-.9-4.3-2-5.8-1-1.3-2.4-1.9-4-1.9H38c-2 .2-3.4 1-4.2 2.6-.8 1.6-1.2 3.6-1 6v.4c.2 2.5.9 4.4 2 5.8.9 1.4 2.2 2 3.9 2m-.1-24.7c-.5 0-.9 0-1.4.1-4.4.4-8 2.4-10.5 5.8-2.4 3.3-3.4 7.2-3 11.6v.4c.4 4.5 2 8.1 4.9 10.9 2.7 2.6 6 4 9.9 4 .5 0 .9 0 1.4-.1 4.4-.4 8-2.4 10.5-5.7 2.4-3.2 3.4-7.2 3-11.6v-.4c-.4-4.4-2-8.1-4.9-10.9-2.7-2.8-6.1-4.1-9.9-4.1zm.1 20.5c-.4 0-.5-.1-.6-.3-.6-.7-.9-2-1.1-3.6v-.4c-.1-1.6 0-2.8.5-3.7.1-.2.2-.3.8-.4h.2c.4 0 .5.1.7.3.6.7 1 1.9 1.1 3.5v.4c.1 1.6 0 2.8-.5 3.7-.1.2-.2.4-.9.4-.1.1-.2.1-.2.1z" />
  <path d="M53.7 41.2c-1.1 0-2-.8-2.1-2l-.2-2.8c-.1-1 .6-2 1.5-2.2l.7-.2-1.1-13.3-.8-.1c-1-.1-1.8-.9-1.9-1.9l-.2-2.8c0-.6.1-1.1.5-1.6.4-.4.9-.7 1.5-.8l10.4-.8c.5 0 1-.1 1.5-.1 2.5 0 4.6.6 6.3 1.7 2.1 1.4 3.4 3.7 3.6 6.4.1 1.6-.2 3.1-1 4.4-.2.3-.3.5-.5.7.3.3.7.6.9 1 .9 1.2 1.5 2.8 1.6 4.6l.1.9h.1c1.1.1 1.9.9 2 2l.2 2.8c0 .6-.1 1.1-.5 1.6-.4.4-.9.7-1.5.8l-2.4.2h-.8c-1.8 0-3.3-.6-4.3-1.7s-1.6-2.6-1.7-4.4l-.1-1.3c0-.6-.2-1-.4-1.2-.1-.1-.3-.3-.9-.3H64l-1.6.1.2 2.3.8.1c1 .1 1.8.9 1.9 1.9l.2 2.8c.1 1.2-.8 2.2-2 2.3l-9.7.8c0 .1-.1.1-.1.1zm8-18.1l1.1-.1c1.1-.1 1.4-.4 1.5-.5.1-.1.2-.2.2-.8-.1-.7-.3-.9-.4-1-.2-.2-.7-.2-1-.2h-.4l-1.2.1.2 2.5z" class="foryourbuck-alt-st0"/>
  <path d="M63.5 14.7c2.1 0 3.7.5 5.1 1.4 1.6 1.1 2.5 2.7 2.7 4.8.1 1.2-.1 2.2-.7 3.1-.6 1-1.4 1.8-2.6 2.4 1.4.3 2.5.9 3.1 1.8.7.9 1.1 2 1.2 3.4l.1 1.2c0 .5.2.9.4 1.2.2.3.6.4 1.1.4h.6l.2 2.8-2.4.2h-.6c-1.2 0-2.1-.3-2.7-1-.7-.8-1.1-1.8-1.2-3.1l-.1-1.3c-.1-1.1-.5-2-1.1-2.6-.6-.5-1.4-.8-2.3-.8H64l-3.9.4.5 6.2 2.5.3.2 2.8-9.6.7-.2-2.8 2.4-.7-1.4-16.8-2.5-.3-.2-2.8 2.5-.2 8-.7h1.2m-3.7 10.7l3.2-.3c1.3-.1 2.3-.5 2.9-1.1.6-.6.9-1.4.8-2.5-.1-1-.5-1.9-1.2-2.4-.6-.5-1.4-.7-2.4-.7h-.6l-3.3.3.6 6.7m3.7-15c-.5 0-1.1 0-1.7.1l-8 .7-2.5.2c-1.1.1-2.2.6-2.9 1.5-.7.9-1.1 2-1 3.1l.2 2.8c.1 1.7 1.3 3.1 2.8 3.7l.8 10c-1.4.8-2.3 2.4-2.2 4.1l.2 2.8c.1 1.1.6 2.2 1.5 2.9.8.7 1.8 1 2.8 1h.4l9.7-.8c1.1-.1 2.2-.6 2.9-1.5.1-.2.3-.4.4-.5 1.1.7 2.6 1.3 4.7 1.3h1l2.4-.2c1.1-.1 2.2-.6 2.9-1.5.7-.9 1.1-2 1-3.1l-.2-2.8c-.1-1.5-1-2.7-2.2-3.4-.2-1.9-.9-3.6-1.9-5 .8-1.5 1.1-3.3.9-5.1-.3-3.4-1.9-6.2-4.6-8-2-1.5-4.5-2.3-7.4-2.3z" />
  <path d="M93 37.9c-1.1 0-2-.8-2.1-2l-.2-2.8c-.1-1 .6-2 1.6-2.2l.8-.2-.2-2.9-6.4-9.9-.9-.1c-1-.1-1.9-.9-2-2l-.4-2.8c0-.6.1-1.1.5-1.6.4-.4.9-.7 1.5-.8L94 10h.2c.7 0 1.3.3 1.7.8.1-.1.1-.2.2-.3.4-.4.9-.7 1.5-.8l8.8-.7h.2c.5 0 1 .2 1.4.5.4.4.7.9.8 1.5l.2 2.8c.1 1-.6 2-1.6 2.3l-.9.2-4.7 11.1.2 2.6.8.1c1 .1 1.8.9 1.9 1.9l.2 2.8c0 .6-.1 1.1-.5 1.6s-.9.7-1.5.8l-9.7.8c-.1-.2-.1-.1-.2-.1zm3.4-20.1l.5-1.3c-.2-.1-.5-.3-.6-.5-.1.3-.3.5-.6.7l.7 1.1z" class="foryourbuck-alt-st0"/>
  <path d="M106.6 11l.2 2.8-2 .5-5.3 12.5.4 4.9 2.5.3.2 2.8-9.6.9-.2-2.8 2.5-.7-.5-5.2-7.2-11.2-2-.2-.2-2.8 8.8-.7.2 2.8-1.9.4 4.3 7.4h.1l3-8-1.9-.1-.2-2.8 8.8-.8m0-4.2h-.4l-8.8.7c-.6.1-1.2.2-1.7.5-.5-.2-.9-.3-1.4-.3h-.4l-8.9.9c-1.1.1-2.2.6-2.9 1.5-.7.9-1.1 2-1 3.1l.2 2.8c.2 2.1 1.8 3.7 3.8 3.9l5.5 8.6.1.7c-1.4.8-2.3 2.4-2.2 4.1l.2 2.8c.1 1.1.6 2.2 1.5 2.9.8.7 1.8 1 2.8 1h.4l9.7-.8c2.4-.2 4.1-2.3 3.9-4.6l-.2-2.8c-.1-1.7-1.3-3.1-2.8-3.7v-.5l4.1-9.6c2-.5 3.3-2.4 3.1-4.5l-.2-2.8c-.1-1.1-.6-2.2-1.5-2.9-1-.7-1.9-1-2.9-1z" />
  <path d="M120.9 35.8c-3.3 0-6.1-1.1-8.4-3.4-2.5-2.4-3.9-5.7-4.3-9.6v-.4c-.3-3.9.5-7.3 2.6-10.1 2.1-2.9 5.1-4.6 8.9-4.9.4 0 .8-.1 1.2-.1 3.3 0 6.1 1.1 8.4 3.4 2.5 2.4 4 5.7 4.3 9.6v.4c.3 3.9-.6 7.4-2.6 10.2-2.1 2.9-5.2 4.5-8.9 4.9h-1.2zm0-20.5h-.4c-1.6.1-2.2.9-2.5 1.5-.6 1.2-.9 2.8-.7 4.8v.4c.2 2 .7 3.6 1.5 4.7.6.7 1.3 1.1 2.3 1.1h.4c1.6-.1 2.2-.9 2.6-1.5.7-1.2.9-2.8.7-4.9V21c-.2-2-.7-3.5-1.5-4.6-.7-.7-1.4-1.1-2.4-1.1z" class="foryourbuck-alt-st0"/>
  <path d="M121 9.5c2.7 0 5 .9 6.9 2.8 2.2 2.1 3.4 4.8 3.7 8.2v.4c.3 3.4-.5 6.3-2.2 8.7-1.8 2.4-4.2 3.7-7.4 4h-1.1c-2.7 0-5-.9-6.9-2.8-2.1-2.1-3.3-4.8-3.6-8.2v-.4c-.3-3.4.4-6.3 2.2-8.7 1.7-2.4 4.2-3.7 7.4-4h1m.1 20.5h.6c2-.2 3.4-1 4.3-2.6s1.2-3.6 1-6.1v-.4c-.2-2.4-.9-4.3-2-5.8-1-1.3-2.4-1.9-4-1.9h-.6c-2 .2-3.4 1-4.2 2.6-.8 1.6-1.2 3.6-1 6v.4c.2 2.5.9 4.4 2 5.8.9 1.4 2.2 2 3.9 2M121 5.2c-.5 0-.9 0-1.4.1-4.4.4-8 2.4-10.5 5.8-2.4 3.3-3.4 7.2-3 11.6v.4c.4 4.5 2 8.1 4.9 10.9 2.7 2.6 6 4 9.9 4 .5 0 .9 0 1.4-.1 4.4-.4 8-2.4 10.5-5.7 2.4-3.2 3.4-7.2 3-11.6v-.4c-.4-4.4-2-8.1-4.9-10.9-2.7-2.7-6.1-4.1-9.9-4.1zm.1 20.5c-.4 0-.5-.1-.6-.3-.6-.7-.9-2-1.1-3.6v-.4c-.1-1.6 0-2.8.5-3.7.1-.2.2-.3.8-.4h.2c.4 0 .5.1.7.3.6.7 1 1.9 1.1 3.5v.4c.1 1.6 0 2.8-.5 3.7-.1.2-.2.4-.9.4-.1.1-.1.1-.2.1z" />
  <path d="M146.4 33.6c-2.7 0-5-.7-6.9-2-2.4-1.7-3.7-4.2-4-7.4l-.9-10.4-.8-.1c-1-.1-1.8-.9-1.9-1.9l-.2-2.8c-.1-1.2.8-2.2 2-2.3l9.7-.8h.2c.5 0 1 .2 1.4.5.4.4.7.9.8 1.5l.2 2.8c.1 1-.6 2-1.6 2.2l-.8.2.9 10.4c.1.9.3 1.5.7 1.8.4.3.9.4 1.6.4h.4c.9-.1 1.6-.3 2-.8.3-.4.5-1 .4-1.9l-.9-10.4-.8-.1c-1-.1-1.8-.9-1.9-1.9l-.2-2.8c-.1-1.2.8-2.2 2-2.3l9.7-.8h.2c.5 0 1 .2 1.4.5.4.4.7.9.8 1.5l.2 2.8c.1 1-.6 2-1.6 2.2l-.8.2.9 10.4c.3 3.3-.6 6-2.7 8-2 1.9-4.6 3-7.9 3.3h-1.6z" class="foryourbuck-alt-st0"/>
  <path d="M157.6 6.7l.2 2.8-2.5.7 1 12.2c.2 2.6-.5 4.7-2.1 6.3-1.6 1.6-3.8 2.5-6.6 2.7-.4 0-.9.1-1.3.1-2.2 0-4.1-.5-5.7-1.6-1.8-1.3-2.9-3.2-3.1-5.8l-1-12.2-2.5-.3-.2-2.8 2.5-.2 4.7-.4 2.5-.2.2 2.8-2.5.7 1 12.2c.1 1.5.6 2.7 1.5 3.4.8.6 1.7.9 2.9.9h.6c1.5-.1 2.6-.6 3.4-1.4s1.1-2 1-3.6l-1-12.2-2.5-.3-.2-2.8 9.7-1m0-4.2h-.4l-9.7.8c-.8.1-1.5.3-2.1.8-.6-.3-1.2-.4-1.9-.4h-.4l-2.5.2-4.6.4-2.5.2c-1.1.1-2.2.6-2.9 1.5s-1.1 2-1 3.1l.2 2.8c.1 1.7 1.3 3.1 2.8 3.7l.7 8.8c.4 4.9 2.9 7.6 4.9 9 2.3 1.6 5 2.4 8.1 2.4.5 0 1.1 0 1.6-.1 3.8-.3 6.9-1.6 9.2-3.9 1.8-1.7 3.8-4.8 3.4-9.7l-.7-8.8c1.4-.8 2.3-2.4 2.2-4.1l-.2-2.8c-.1-1.1-.6-2.2-1.5-2.9-.7-.7-1.7-1-2.7-1zm-11.7 12c.1-.1.3-.2.4-.3.1.1.3.1.4.2l.7 8.8v.3c-.1 0-.2 0-.4.1h-.4v-.3l-.7-8.8z" />
  <path d="M162.6 32c-1.1 0-2-.8-2.1-2l-.2-2.8c-.1-1 .6-2 1.5-2.2l.7-.2-1.1-13.3-.8-.1c-1-.1-1.8-.9-1.9-1.9l-.2-2.8c-.1-1.2.8-2.2 2-2.3l10.5-.9c.5 0 1-.1 1.5-.1 2.5 0 4.6.6 6.3 1.7 2.1 1.4 3.4 3.7 3.6 6.4.1 1.6-.2 3.1-1 4.4-.2.3-.3.5-.5.7.3.3.7.6.9 1 .9 1.2 1.5 2.8 1.6 4.6l.1.8h.1c1.1.1 1.9.9 2 2l.2 2.8c.1 1.2-.8 2.2-2 2.3l-2.4.2h-.8c-1.8 0-3.3-.6-4.3-1.7s-1.6-2.6-1.7-4.4l-.1-1.3c0-.6-.2-1-.4-1.2-.1-.1-.3-.3-.9-.3h-.2l-1.6.1.2 2.3.8.1c1 .1 1.8.9 1.9 1.9l.2 2.8c0 .6-.1 1.1-.5 1.6-.4.4-.9.7-1.5.8l-9.7.8c-.1.2-.2.2-.2.2zm8-18.1l1.1-.1c1.1-.1 1.4-.4 1.5-.5.1-.1.2-.2.2-.8-.1-.7-.3-.9-.4-1-.2-.2-.7-.2-1-.2h-.4l-1.2.1.2 2.5z" class="foryourbuck-alt-st0"/>
  <path d="M172.4 5.5c2.1 0 3.7.5 5.1 1.4 1.6 1.1 2.5 2.7 2.7 4.8.1 1.2-.1 2.2-.7 3.1s-1.4 1.7-2.6 2.3c1.4.3 2.5.9 3.1 1.8s1.1 2 1.2 3.4l.1 1.2c0 .5.2.9.4 1.2.2.3.6.4 1.1.4h.6l.2 2.8-2.4.2h-.6c-1.2 0-2.1-.3-2.7-1-.7-.8-1.1-1.8-1.2-3.1l-.1-1.3c-.1-1.1-.5-2-1.1-2.6-.6-.5-1.4-.8-2.3-.8h-.3l-3.8.3.5 6.2 2.5.3.2 2.8-9.7.8-.2-2.8 2.4-.7-1.4-16.8-2.5-.3-.2-2.8 2.5-.2 8-.7c.3.1.8.1 1.2.1m-3.8 10.7l3.2-.3c1.3-.1 2.3-.5 2.9-1.1.6-.6.9-1.4.8-2.5-.1-1-.5-1.9-1.2-2.4-.6-.5-1.4-.7-2.4-.7h-.6l-3.3.3.6 6.7m3.8-14.9c-.5 0-1.1 0-1.7.1l-8 .7-2.5.2c-2.4.2-4.1 2.3-3.9 4.6l.2 2.8c.1 1.7 1.3 3.1 2.8 3.7l.8 10c-1.4.8-2.3 2.4-2.2 4.1l.2 2.8c.2 2.2 2.1 3.9 4.3 3.9h.4l9.7-.8c1.4-.1 2.6-.9 3.3-2.1 1.1.7 2.6 1.3 4.7 1.3h1l2.4-.2c1.1-.1 2.2-.6 2.9-1.5.7-.9 1.1-2 1-3.1l-.2-2.8c-.1-1.5-1-2.7-2.2-3.4-.2-1.9-.9-3.6-1.9-5 .8-1.5 1.1-3.3.9-5.1-.3-3.4-1.9-6.2-4.6-8-2-1.5-4.5-2.2-7.4-2.2z" />
  <path d="M51.5 72.1c-.5 0-1-.2-1.4-.5-.4-.4-.7-.9-.8-1.5l-.2-2.8c-.1-1 .6-2 1.5-2.2l.7-.2-1.1-13.3-.8-.1c-1-.1-1.8-.9-1.9-1.9l-.2-2.8c0-.6.1-1.1.5-1.6.4-.4.9-.7 1.5-.8l10.4-.9c.6-.1 1.2-.1 1.8-.1 2.4 0 4.4.5 6.1 1.4 2.2 1.3 3.5 3.5 3.8 6.3.1 1.5-.2 2.9-.9 4.2-.1.1-.2.3-.2.4.4.3.7.6 1 1 1.1 1.3 1.7 2.8 1.8 4.5.3 3.6-1.2 5.8-2.5 7-1.7 1.6-4.2 2.5-7.4 2.8l-11.5 1c0 .1-.1.1-.2.1zm8.9-8.7l2.2-.2c1-.1 1.3-.3 1.5-.4.1-.1.2-.4.1-.8 0-.6-.2-1-.4-1.2-.1-.1-.3-.1-.7-.1h-.4l-2.5.2.2 2.5zm-.9-10l1.2-.1c1-.1 1.4-.4 1.6-.5.1-.1.2-.1.1-.6 0-.2-.1-.6-.2-.7-.1-.1-.4-.2-1.2-.2h-.6l-1.1.1.2 2z" class="foryourbuck-alt-st0"/>
  <path d="M61.5 45.6c2 0 3.7.4 5 1.1 1.6.9 2.5 2.5 2.7 4.6.1 1.1-.1 2.1-.6 3-.5.9-1.3 1.6-2.3 2.1 1.4.2 2.5.7 3.3 1.7.8.9 1.2 2 1.3 3.3.2 2.2-.4 4-1.8 5.3-1.4 1.3-3.4 2-6.1 2.3l-11.5 1-.2-2.8 2.4-.7-1.4-16.8-2.5-.3-.2-2.8 2.5-.2 7.9-.7c.5-.1 1-.1 1.5-.1m-3.9 10.2l3.4-.3c1.3-.1 2.2-.4 2.8-1 .6-.6.9-1.3.8-2.3-.1-1.1-.5-1.8-1.2-2.3-.6-.4-1.4-.5-2.3-.5h-.8l-3.3.2.6 6.2m.8 9.9l4.3-.4c1.2-.1 2.2-.5 2.8-1.1.6-.6.9-1.4.8-2.5-.1-1.1-.4-2-1.1-2.6-.5-.5-1.2-.7-2.2-.7h-.5l-4.7.6.6 6.7m3.1-24.4c-.6 0-1.3 0-1.9.1l-7.9.7-2.5.2c-2.4.2-4.1 2.3-3.9 4.6l.2 2.8c.1 1.7 1.3 3.1 2.8 3.7l.8 10c-1.4.8-2.3 2.4-2.2 4.1l.2 2.8c.2 2.2 2.1 3.9 4.3 3.9h.4l11.5-1c3.7-.3 6.6-1.4 8.7-3.4 1.6-1.5 3.5-4.3 3.1-8.8-.2-2.2-1-4.1-2.3-5.7.5-1.4.8-2.8.6-4.3-.4-4.5-2.8-6.8-4.8-7.9-1.9-1.2-4.3-1.8-7.1-1.8z" />
  <path d="M85.2 69.5c-2.7 0-5-.7-6.9-2-2.4-1.7-3.7-4.2-4-7.4l-.9-10.4-.8-.1c-1-.1-1.8-.9-1.9-1.9l-.2-2.8c0-.6.1-1.1.5-1.6.4-.4.9-.7 1.5-.8l9.7-.8h.2c.5 0 1 .2 1.4.5.4.4.7.9.8 1.5l.2 2.8c.1 1-.6 2-1.6 2.2l-.8.2.9 10.4c.1.9.3 1.5.7 1.8.4.3.9.4 1.6.4h.4c.9-.1 1.6-.3 2-.8.3-.4.5-1 .4-1.9l-.9-10.4-.8-.1c-1-.1-1.8-.9-1.9-1.9l-.2-2.8c0-.6.1-1.1.5-1.6.4-.4.9-.7 1.5-.8l9.7-.8h.2c.5 0 1 .2 1.4.5.4.4.7.9.8 1.5l.2 2.8c.1 1-.6 2-1.6 2.2l-.8.2.9 10.4c.3 3.3-.6 6-2.7 8-2 1.9-4.6 3-7.9 3.3-.6.2-1.1.2-1.6.2z" class="foryourbuck-alt-st0"/>
  <path d="M96.4 42.6l.2 2.8-2.5.7 1 12.2c.2 2.6-.5 4.7-2.1 6.3-1.6 1.6-3.8 2.5-6.6 2.7-.4 0-.9.1-1.3.1-2.2 0-4.1-.5-5.7-1.6-1.8-1.3-2.9-3.2-3.1-5.8l-1-12.2-2.5-.3-.2-2.8 2.5-.2 4.7-.4 2.5-.2.2 2.8-2.5.7 1 12.2c.1 1.5.6 2.7 1.5 3.4.8.6 1.7.9 2.9.9h.6c1.5-.1 2.6-.6 3.4-1.4s1.1-2 1-3.6l-1-12.2-2.5-.3-.2-2.8 9.7-1m0-4.3H96l-9.7.8c-.8.1-1.5.3-2.1.8-.6-.3-1.2-.4-1.9-.4h-.4l-2.5.2-4.7.4-2.5.2c-2.4.2-4.1 2.3-3.9 4.6l.2 2.8c.1 1.7 1.3 3.1 2.8 3.7l.7 8.8c.4 4.9 2.9 7.6 4.9 9 2.3 1.6 5 2.4 8.1 2.4.5 0 1.1 0 1.6-.1 3.8-.3 6.9-1.6 9.2-3.9 1.8-1.7 3.8-4.8 3.4-9.7l-.7-8.8c1.4-.8 2.3-2.4 2.2-4.1l-.2-2.8c-.1-2.2-1.9-3.9-4.1-3.9zM84.7 50.4c.1-.1.3-.2.4-.3.1.1.3.1.4.2l.7 8.8v.3c-.1 0-.2 0-.4.1h-.4v-.3l-.7-8.8z" />
  <path d="M111 67.3c-3.2 0-6-1.1-8.3-3.2-2.6-2.4-4.1-5.6-4.4-9.5l-.1-.8c-.3-3.9.6-7.3 2.7-10.1 2.2-2.8 5.2-4.4 9-4.8.5 0 .9-.1 1.4-.1 1.6 0 3.1.3 4.5.7 1.8.6 3.3 1.6 4.6 2.8.4.4.6.8.7 1.4l.4 4.6c0 .6-.1 1.1-.5 1.6s-.9.7-1.5.8l-3.5.3h-.2c-1 0-1.8-.7-2.1-1.6l-.5-2.3c-.2-.1-.3-.1-.5-.2-.3-.1-.7-.1-1.2-.1h-.6c-1.3.1-2.3.6-2.9 1.6-.7 1.2-1 2.7-.8 4.6l.1.8c.2 1.9.7 3.4 1.6 4.4.7.8 1.5 1.1 2.6 1.1h.5c.7-.1 1.3-.2 1.8-.4.2-.1.4-.2.5-.3l.2-2.3c.1-1.1.9-1.9 2-2l3.5-.3h.2c1.1 0 2 .8 2.1 2l.4 4.6c0 .5-.1 1-.4 1.4-1 1.4-2.4 2.6-4.1 3.5-1.7.9-3.6 1.5-5.7 1.6-.7.2-1.1.2-1.5.2z" class="foryourbuck-alt-st0"/>
  <path d="M111.2 41.1c1.4 0 2.6.2 3.8.6 1.5.5 2.8 1.3 3.8 2.3l.4 4.6-3.5.3-.7-3.1c-.5-.4-1.1-.7-1.8-.9-.5-.2-1.1-.2-1.7-.2h-.8c-2 .2-3.5 1-4.5 2.6s-1.4 3.5-1.2 5.9l.1.8c.2 2.4.9 4.3 2.1 5.7 1.1 1.2 2.5 1.9 4.2 1.9h.6c.9-.1 1.8-.3 2.5-.6s1.3-.7 1.7-1.2l.2-3.2 3.5-.3.4 4.6c-.8 1.2-2 2.1-3.4 2.9-1.4.8-3 1.2-4.8 1.4H111c-2.7 0-5-.9-6.9-2.7-2.2-2-3.4-4.7-3.7-8.1l-.1-.8c-.3-3.4.5-6.3 2.3-8.6 1.8-2.4 4.3-3.7 7.4-3.9h1.2m0-4.3c-.5 0-1 0-1.5.1-4.3.4-7.9 2.3-10.5 5.6-2.5 3.2-3.5 7.1-3.1 11.6l.1.8c.4 4.5 2.1 8.2 5.1 10.9 2.7 2.5 6 3.8 9.8 3.8.5 0 1 0 1.4-.1 2.4-.2 4.6-.8 6.5-1.9 2-1.1 3.6-2.5 4.8-4.2.6-.8.9-1.8.8-2.9l-.4-4.6c-.1-1.7-1.2-3-2.7-3.6 1.3-.8 2.2-2.3 2-4l-.4-4.6c-.1-1-.6-2-1.3-2.7-1.5-1.4-3.3-2.5-5.4-3.2-1.6-.7-3.4-1-5.2-1zm.1 20.5c-.5 0-.7-.1-1-.4-.6-.7-1-1.8-1.1-3.2l-.1-.8c-.1-1.4.1-2.5.5-3.3.1-.2.3-.5 1.2-.6h.3l.2 1c.3 1.4 1.3 2.5 2.6 3-1.1.7-1.9 1.9-2 3.4l-.1 1c-.1 0-.3 0-.4.1.1-.2 0-.2-.1-.2z" />
  <path d="M124.3 65.9c-.5 0-1-.2-1.4-.5-.4-.4-.7-.9-.8-1.5l-.2-2.8c-.1-1 .6-2 1.5-2.2l.7-.2-1.1-13.3-.8-.1c-1-.1-1.8-.9-1.9-1.9l-.2-2.8c-.1-1.2.8-2.2 2-2.3l9.5-.8h.2c.4 0 .9.1 1.3.4.3-.4.8-.6 1.3-.6l9.3-.8h.2c1.1 0 2 .8 2.1 2l.2 2.8c.1 1-.6 2-1.6 2.3l-1.7.4-3.8 6.1 5.7 6.8 1.5.1c1 .1 1.9.9 1.9 2l.2 2.8c0 .6-.1 1.1-.5 1.6s-.9.7-1.5.8l-9.3.8h-.2c-.6 0-1.1-.2-1.5-.6 0 .1-.1.1-.1.2-.4.4-.9.7-1.5.8l-9.5.8c.1-.3.1-.3 0-.3zm9.6-7.9c.2 0 .5.1.7.2l-1.5-1.9.1 1.6.7.1zm-1.8-12.7l.4-.7-.5.1.1.6z" class="foryourbuck-alt-st0"/>
  <path d="M143.9 38.6l.2 2.8-2.5.6-5.1 8.2 7.2 8.7 2.4.2.2 2.8-9.3.8-.2-2.8 1.4-.3-5.1-6.4-2.6.2.5 6.5 2.4.3.2 2.8-9.5.8-.2-2.8 2.4-.7-1.4-16.8-2.5-.3-.2-2.8 9.5-.8.2 2.8-2.3.7.5 6.2 2-.2 3.9-6.9-1.4-.1-.2-2.8 9.5-.7m0-4.3h-.4l-9.3.8c-.5 0-.9.2-1.4.3-.3-.1-.7-.1-1-.1h-.4l-9.5.8c-1.1.1-2.2.6-2.9 1.5s-1.1 2-1 3.1l.2 2.8c.1 1.7 1.3 3.1 2.8 3.7l.8 10c-1.4.8-2.3 2.4-2.2 4.1l.2 2.8c.1 1.1.6 2.2 1.5 2.9.8.7 1.8 1 2.8 1h.4l9.5-.8c.6 0 1.1-.2 1.6-.5.4.1.9.2 1.3.2h.4l9.3-.8c1.1-.1 2.2-.6 2.9-1.5.7-.9 1.1-2 1-3.1l-.2-2.8c-.2-2.1-1.8-3.7-3.9-3.9l-.6-.1-4.1-4.9 2.6-4.1.8-.2c2-.5 3.4-2.4 3.2-4.5l-.2-2.8c-.1-1.1-.6-2.2-1.5-2.9-.7-.6-1.7-1-2.7-1z" />
</svg>
